<?xml version="1.0" standalone="no"?>
<!DOCTYPE svg PUBLIC "-//W3C//DTD SVG 20010904//EN"
 "http://www.w3.org/TR/2001/REC-SVG-20010904/DTD/svg10.dtd">
<svg version="1.0" xmlns="http://www.w3.org/2000/svg"
 width="820.000000pt" height="477.000000pt" viewBox="0 0 820.000000 477.000000"
 preserveAspectRatio="xMidYMid meet">
<metadata>
Created by potrace 1.16, written by Peter Selinger 2001-2019
</metadata>
<g transform="translate(0.000000,477.000000) scale(0.100000,-0.100000)"
fill="#000000" stroke="none">
<path d="M3028 4383 c-34 -3 -48 -8 -48 -19 0 -15 -16 -19 -24 -5 -5 8 -87 5
-135 -5 -20 -4 -22 -7 -10 -15 7 -5 11 -9 7 -10 -5 -1 -12 -3 -18 -4 -5 -1
-13 -3 -17 -4 -5 -1 9 -11 30 -22 59 -31 35 -35 -28 -5 -65 30 -95 35 -75 11
19 -23 4 -30 -24 -11 -33 21 -36 20 -36 -9 0 -14 -4 -25 -10 -25 -5 0 -10 12
-10 26 0 26 -1 27 -47 20 -26 -3 -50 -11 -54 -18 -4 -6 -14 -8 -23 -5 -27 11
-43 -2 -38 -30 4 -23 3 -24 -15 -14 -16 8 -31 5 -72 -15 -56 -28 -65 -44 -26
-44 26 0 29 -7 19 -34 -4 -10 -18 -16 -36 -16 -17 0 -44 -6 -61 -14 -18 -8
-40 -16 -49 -20 -10 -3 -18 -9 -18 -14 0 -12 79 -34 109 -30 13 2 26 -3 29
-10 2 -9 -3 -13 -14 -12 -11 1 -35 2 -54 1 -33 -2 -34 -3 -14 -14 12 -7 19
-18 17 -24 -3 -7 4 -14 14 -15 57 -4 81 -3 105 5 53 17 111 -16 176 -101 18
-24 24 -44 24 -78 -1 -39 1 -44 13 -34 12 10 21 6 47 -20 l32 -32 -32 7 c-42
9 -41 -2 3 -21 42 -17 50 -58 13 -68 -13 -3 -29 -15 -37 -27 -12 -20 -11 -24
5 -37 13 -10 15 -16 7 -19 -18 -6 -16 -30 2 -37 8 -3 15 -16 15 -28 0 -13 9
-34 20 -48 11 -14 20 -30 20 -35 0 -18 58 -75 75 -75 9 0 27 -7 41 -17 22 -14
27 -14 40 -1 8 8 16 31 17 52 2 20 7 40 13 44 6 4 16 22 24 40 11 29 11 35 -1
44 -12 8 -12 9 1 5 8 -2 20 1 27 7 37 32 42 35 45 25 6 -17 75 16 89 42 19 36
35 49 63 49 14 0 28 5 31 10 3 6 18 10 33 10 15 0 38 7 52 15 14 8 36 20 50
27 24 12 23 13 -22 16 -46 3 -47 4 -35 25 6 12 13 24 14 25 1 2 16 -7 33 -19
26 -20 32 -21 40 -9 14 23 13 28 -20 52 -37 27 -38 37 -5 30 14 -2 25 0 25 6
0 15 -22 21 -56 15 -29 -6 -29 -6 -9 14 16 16 25 18 47 9 21 -8 31 -7 40 3 10
11 10 14 1 18 -21 8 -14 25 7 18 11 -3 25 -3 32 1 9 6 5 10 -11 14 -31 7 -40
30 -12 30 11 0 22 4 25 9 11 17 -6 41 -29 41 -12 0 -28 6 -34 14 -10 12 -7 15
16 20 15 3 35 5 43 3 8 -1 15 3 16 8 0 6 -7 9 -17 7 -9 -2 -20 2 -24 8 -3 5 1
10 9 10 9 0 16 5 16 11 0 7 -11 9 -30 6 -34 -7 -34 -8 -20 27 5 14 16 26 25
26 8 0 15 7 15 16 0 9 9 18 20 21 33 9 23 25 -11 18 -22 -5 -29 -4 -25 4 4 6
25 11 47 11 22 0 39 5 39 11 0 6 -7 9 -15 6 -8 -4 -17 -2 -20 3 -4 6 5 10 19
10 32 0 106 29 106 41 0 16 -52 30 -82 24 -15 -4 -28 -11 -28 -17 0 -6 -15 -8
-37 -5 -32 4 -43 0 -70 -26 -37 -35 -46 -17 -11 20 35 37 6 48 -43 17 -46 -29
-74 -31 -40 -4 l23 20 -33 0 c-19 0 -54 -5 -78 -11 -24 -5 -46 -8 -48 -5 -12
12 47 28 133 35 52 5 100 13 107 20 8 8 2 11 -25 11 -20 0 -38 4 -40 10 -4 11
-138 41 -176 38 -15 -1 -48 -3 -74 -5z"/>
<path d="M2022 4328 c-23 -11 -49 -15 -68 -12 -20 4 -34 1 -43 -10 -8 -10 -22
-14 -36 -10 -13 3 -26 1 -29 -5 -4 -6 -19 -12 -34 -12 -25 -2 -25 -2 -4 -6 15
-3 22 -10 18 -18 -7 -20 20 -38 49 -33 14 3 28 1 31 -4 7 -12 110 -1 137 14
24 12 34 3 17 -17 -7 -8 -26 -15 -43 -15 -29 0 -30 0 -12 -20 24 -27 2 -26
-36 1 -30 21 -60 23 -66 3 -2 -5 17 -25 42 -44 51 -38 58 -53 17 -38 -32 12
-82 4 -82 -13 0 -7 12 -9 30 -7 20 3 27 1 21 -5 -7 -7 -5 -15 7 -23 9 -7 14
-16 10 -20 -5 -4 -16 0 -26 9 -20 19 -52 23 -52 7 0 -5 5 -10 10 -10 6 0 10
-4 10 -10 0 -5 -11 -10 -25 -10 -14 0 -25 -4 -25 -10 0 -5 11 -10 24 -10 14 0
36 -4 50 -10 16 -6 27 -6 31 0 8 13 58 13 72 -1 13 -13 75 1 81 19 2 8 -11 12
-42 12 -25 0 -46 5 -46 10 0 6 18 10 40 10 33 0 40 3 38 17 -2 12 4 18 21 19
44 3 57 53 14 55 -26 1 -26 2 7 11 19 5 43 14 52 19 10 5 24 6 31 3 8 -3 17 2
20 10 6 15 125 76 147 76 6 0 8 5 5 10 -3 6 -18 7 -32 4 -17 -5 -24 -3 -20 3
4 6 30 13 58 15 57 6 105 38 57 38 -15 0 -30 5 -33 11 -4 6 -21 9 -39 8 -17
-1 -41 1 -54 5 -14 5 -29 3 -37 -4 -8 -6 -19 -9 -24 -5 -6 3 -54 7 -107 8 -74
2 -104 -2 -132 -15z"/>
<path d="M1735 4240 c-11 -5 -15 -9 -10 -10 6 -1 -1 -6 -14 -11 -19 -8 -21
-12 -11 -24 10 -12 9 -15 -4 -15 -20 0 -20 -7 -1 -27 11 -10 26 -13 45 -9 17
3 30 1 30 -4 0 -6 -7 -10 -15 -10 -24 0 -17 -17 15 -37 35 -22 90 -20 90 4 0
8 14 20 30 26 34 13 40 27 11 27 -11 0 -21 9 -24 21 -3 12 -10 18 -16 15 -5
-4 -13 0 -18 7 -7 11 -80 59 -86 56 -1 0 -11 -4 -22 -9z"/>
<path d="M5080 4241 c0 -5 -6 -8 -12 -7 -7 0 -14 -3 -15 -9 -2 -5 6 -10 17
-10 11 0 20 4 19 9 0 5 5 13 13 17 10 7 9 9 -4 9 -10 0 -18 -4 -18 -9z"/>
<path d="M5820 4240 c0 -5 5 -10 10 -10 6 0 10 5 10 10 0 6 -4 10 -10 10 -5 0
-10 -4 -10 -10z"/>
<path d="M4913 4212 c-24 -9 -43 -20 -43 -24 0 -14 37 -9 50 7 7 8 19 15 26
15 8 0 14 5 14 10 0 6 -1 10 -2 9 -2 0 -22 -8 -45 -17z"/>
<path d="M5155 4219 c-4 -6 -5 -13 -2 -16 8 -7 47 7 47 18 0 13 -37 11 -45 -2z"/>
<path d="M5230 4220 c0 -5 4 -10 9 -10 6 0 13 5 16 10 3 6 -1 10 -9 10 -9 0
-16 -4 -16 -10z"/>
<path d="M5874 4215 c3 -9 0 -15 -10 -15 -8 0 -13 -4 -10 -9 4 -5 0 -11 -6
-14 -10 -4 -10 -7 -1 -18 10 -10 16 -9 31 4 10 9 24 17 30 17 15 0 15 6 2 31
-13 23 -45 27 -36 4z"/>
<path d="M5090 4197 c-18 -7 -21 -11 -9 -14 22 -5 66 12 48 19 -8 3 -25 1 -39
-5z"/>
<path d="M4232 4181 c2 -11 13 -15 38 -14 19 1 27 -1 18 -3 -28 -8 -21 -24 10
-24 15 0 38 -1 51 -1 13 0 31 7 40 16 14 14 14 17 1 25 -8 5 -24 10 -35 11
-11 0 -44 2 -73 3 -44 3 -52 0 -50 -13z"/>
<path d="M4990 4190 c0 -5 5 -10 10 -10 6 0 10 5 10 10 0 6 -4 10 -10 10 -5 0
-10 -4 -10 -10z"/>
<path d="M1605 4170 c3 -5 10 -10 16 -10 5 0 9 5 9 10 0 6 -7 10 -16 10 -8 0
-12 -4 -9 -10z"/>
<path d="M4176 4173 c-3 -3 -1 -14 5 -24 6 -12 6 -19 0 -19 -5 0 -13 9 -16 21
-5 16 -10 18 -21 8 -8 -7 -14 -7 -14 -1 0 14 -49 10 -55 -5 -2 -7 3 -13 12
-13 12 0 13 -3 4 -13 -8 -11 -6 -18 9 -32 19 -17 21 -17 39 -1 15 14 24 15 38
7 14 -8 15 -11 3 -11 -8 0 -24 -8 -35 -16 -19 -15 -18 -16 13 -9 22 4 32 3 32
-5 0 -7 -6 -10 -13 -7 -8 3 -20 2 -27 -3 -9 -6 -7 -13 9 -29 33 -33 33 -33 75
57 10 22 22 32 38 32 18 0 20 -2 8 -10 -13 -8 -12 -11 5 -24 16 -12 17 -18 7
-24 -8 -6 -1 -8 22 -8 19 1 38 5 41 8 18 17 -108 98 -139 90 -5 -2 -6 4 -3 12
5 14 -26 30 -37 19z"/>
<path d="M5909 4164 c-17 -20 4 -40 52 -49 26 -5 36 -3 36 7 0 7 2 18 3 23 6
24 -2 31 -39 32 -24 1 -44 -4 -52 -13z"/>
<path d="M1480 4131 c0 -6 9 -11 19 -11 11 0 23 -4 26 -10 3 -5 -1 -10 -9 -10
-9 0 -16 -5 -16 -10 0 -7 13 -9 33 -5 24 5 37 2 46 -9 16 -19 41 -21 41 -3 0
24 -50 57 -95 64 -31 4 -45 2 -45 -6z"/>
<path d="M6020 4103 l-22 -28 34 -3 c18 -2 51 6 73 17 l40 19 -27 6 c-16 3
-39 8 -52 11 -18 4 -30 -2 -46 -22z"/>
<path d="M1650 4098 c0 -28 18 -41 45 -34 28 7 30 31 2 31 -8 0 -19 4 -23 8
-11 11 -24 8 -24 -5z"/>
<path d="M1320 4090 c0 -5 7 -10 15 -10 8 0 15 5 15 10 0 6 -7 10 -15 10 -8 0
-15 -4 -15 -10z"/>
<path d="M1370 4090 c0 -5 4 -10 9 -10 6 0 13 5 16 10 3 6 -1 10 -9 10 -9 0
-16 -4 -16 -10z"/>
<path d="M1280 4060 c0 -5 5 -10 10 -10 6 0 10 5 10 10 0 6 -4 10 -10 10 -5 0
-10 -4 -10 -10z"/>
<path d="M1327 4063 c-11 -10 -8 -20 8 -27 20 -7 42 2 49 20 4 10 -3 14 -23
14 -15 0 -31 -3 -34 -7z"/>
<path d="M1472 4048 c3 -7 13 -15 24 -17 16 -3 17 -1 5 13 -16 19 -34 21 -29
4z"/>
<path d="M1706 4051 c-13 -5 -16 -10 -8 -15 11 -6 52 9 52 19 0 7 -22 5 -44
-4z"/>
<path d="M1230 4039 c0 -6 -7 -8 -16 -5 -20 7 -54 -10 -54 -28 0 -8 -9 -16
-20 -19 -26 -7 -26 -22 -1 -24 11 -1 31 9 44 23 18 18 27 21 30 12 4 -9 12 -6
26 11 12 12 18 27 15 32 -7 13 -24 11 -24 -2z"/>
<path d="M1800 4040 c0 -5 7 -10 15 -10 8 0 15 5 15 10 0 6 -7 10 -15 10 -8 0
-15 -4 -15 -10z"/>
<path d="M6058 4036 c-35 -36 -46 -56 -38 -61 19 -12 9 -43 -22 -68 -31 -26
-48 -27 -48 -2 0 7 11 16 25 19 31 8 35 46 6 46 -11 0 -23 -5 -27 -11 -4 -6
-20 -8 -40 -4 -24 4 -52 -1 -95 -17 -48 -18 -61 -28 -65 -49 -5 -22 -14 -28
-56 -38 -27 -6 -58 -11 -69 -11 -22 0 -23 -4 -9 -31 6 -10 17 -19 25 -19 8 0
15 -4 15 -9 0 -20 -18 -20 -43 -1 -14 11 -38 20 -53 20 -26 0 -27 0 -9 -20 20
-22 14 -26 -16 -10 -12 7 -19 7 -19 1 0 -6 9 -15 21 -21 29 -16 18 -23 -16
-10 -24 9 -27 14 -21 40 3 17 1 30 -4 30 -6 0 -10 -7 -10 -15 0 -8 -9 -19 -21
-25 -19 -11 -19 -13 -5 -35 10 -15 12 -26 6 -30 -6 -3 -10 -17 -10 -31 0 -21
4 -23 24 -18 34 8 66 -12 66 -41 0 -13 6 -25 13 -28 6 -2 9 -8 4 -12 -13 -15
-32 14 -36 58 -1 4 -13 7 -27 7 -20 0 -25 -4 -20 -16 11 -29 -49 -103 -67 -84
-9 8 16 64 33 75 6 4 4 16 -7 31 -12 19 -13 30 -5 48 8 18 7 29 -5 46 -11 16
-12 25 -4 33 21 21 13 47 -14 47 -17 0 -29 -9 -40 -30 -8 -16 -27 -37 -40 -46
-28 -18 -36 -74 -11 -74 14 0 33 -37 23 -46 -2 -2 -24 7 -48 21 -24 13 -55 25
-69 25 -14 0 -38 7 -54 15 -15 8 -36 15 -45 14 -12 0 -10 -3 6 -11 28 -13 40
-47 22 -59 -20 -13 -29 -11 -29 6 0 13 -4 14 -22 3 -13 -7 -30 -11 -40 -10 -9
2 -19 -2 -23 -8 -3 -5 -13 -10 -21 -10 -11 0 -13 6 -9 20 5 15 3 18 -9 14 -9
-3 -16 -9 -16 -13 0 -3 -12 -7 -26 -7 -14 -1 -33 -9 -43 -18 -10 -9 -23 -16
-29 -16 -7 0 -12 -7 -12 -16 0 -22 -54 -15 -58 9 -2 10 3 17 13 17 23 0 13 24
-12 28 -16 2 -22 -4 -26 -25 -3 -15 -2 -32 3 -37 5 -5 6 -14 3 -22 -4 -10 -9
-10 -23 -2 -27 17 -74 -15 -67 -48 5 -28 -6 -30 -45 -10 -33 17 -51 1 -23 -20
27 -20 11 -28 -24 -13 -30 13 -36 24 -33 62 1 10 -9 22 -23 29 -13 6 -26 17
-29 24 -6 16 5 19 19 5 6 -5 35 -16 65 -25 52 -15 56 -15 79 2 35 26 36 40 4
54 -15 6 -36 19 -46 27 -21 17 -84 41 -110 41 -10 0 -15 4 -12 10 4 6 -6 8
-24 6 -30 -3 -43 8 -19 16 7 3 8 10 3 17 -5 9 -20 12 -45 8 -21 -3 -42 -1 -47
4 -12 12 -63 -6 -63 -21 0 -5 -5 -10 -11 -10 -6 0 -9 7 -5 15 8 22 -2 18 -28
-10 -18 -19 -25 -22 -35 -12 -10 9 -14 8 -22 -5 -5 -10 -16 -15 -24 -12 -10 4
-15 0 -15 -11 0 -10 -5 -15 -14 -12 -13 5 -36 -10 -36 -24 0 -3 12 -5 28 -2
18 2 21 1 10 -4 -18 -9 -88 -106 -88 -123 0 -5 -4 -10 -10 -10 -5 0 -10 -6
-10 -14 0 -17 -56 -66 -76 -66 -8 0 -14 -7 -14 -15 0 -9 -7 -18 -15 -21 -8 -4
-15 -14 -15 -23 0 -9 -6 -23 -12 -30 -11 -11 -9 -13 10 -8 12 3 20 1 16 -4 -3
-5 -12 -9 -20 -9 -8 0 -14 -4 -14 -10 0 -5 7 -10 16 -10 8 0 12 -5 9 -11 -6
-9 20 -38 35 -39 3 0 19 14 37 30 31 29 46 27 48 -5 1 -21 40 -115 47 -115 5
0 8 5 8 11 0 5 13 15 30 20 25 9 28 15 24 38 -4 19 1 34 20 54 32 34 32 42 5
61 -30 21 -20 63 28 113 21 21 47 52 58 68 17 23 25 27 48 21 25 -6 39 -36 17
-36 -5 0 -10 -5 -10 -10 0 -6 -15 -24 -34 -41 -30 -26 -34 -34 -31 -71 4 -54
25 -65 97 -50 36 7 57 7 69 -1 16 -10 16 -12 -5 -22 -12 -6 -37 -10 -56 -8
-19 2 -42 -1 -50 -6 -12 -8 -12 -13 0 -36 11 -21 11 -28 1 -38 -11 -9 -14 -9
-18 1 -6 16 -30 16 -39 0 -5 -7 -8 -29 -9 -48 0 -20 -5 -36 -13 -36 -6 -1 -15
-3 -19 -4 -5 -1 -17 -2 -28 -1 -12 1 -34 -5 -49 -13 -22 -11 -33 -12 -47 -3
-13 8 -21 8 -31 0 -10 -8 -18 -8 -32 3 -16 11 -17 16 -6 29 8 9 8 15 2 15 -7
0 -9 14 -5 37 l6 36 -27 -19 c-27 -20 -27 -17 -10 -100 3 -18 -2 -22 -31 -27
-23 -4 -45 -18 -66 -41 -17 -20 -37 -36 -45 -36 -8 0 -14 -6 -14 -14 0 -7 -12
-21 -26 -31 -21 -14 -28 -14 -41 -3 -14 11 -16 10 -10 -10 5 -21 3 -23 -29
-20 -18 1 -34 -1 -34 -5 0 -4 0 -11 0 -17 0 -5 11 -10 24 -10 17 0 28 -9 40
-35 15 -32 14 -79 -3 -89 -3 -2 -36 -1 -73 3 -74 8 -94 0 -75 -30 9 -14 7 -26
-5 -53 -23 -47 -14 -110 15 -102 11 2 26 -2 34 -10 10 -10 19 -11 33 -4 10 6
27 10 38 10 21 0 73 47 71 64 -3 28 3 38 37 58 20 11 33 26 30 33 -2 7 3 20
12 28 15 13 20 14 36 2 17 -13 22 -11 48 10 16 14 33 25 38 25 5 0 21 -18 37
-39 15 -22 40 -47 56 -56 32 -19 61 -60 53 -74 -4 -5 -20 -12 -37 -16 -28 -6
-29 -8 -12 -21 22 -16 33 -18 33 -4 0 6 9 19 21 31 13 13 18 27 14 40 -6 18
-4 20 17 14 21 -5 20 -4 -7 20 -16 14 -38 28 -47 31 -10 3 -18 12 -18 19 0 8
-9 23 -21 34 -15 14 -19 25 -14 42 8 23 8 23 39 -11 17 -20 48 -47 68 -60 25
-17 37 -32 36 -45 -2 -26 32 -74 52 -75 12 0 12 -2 1 -9 -10 -7 -11 -13 -2
-30 13 -23 33 -29 30 -8 -3 26 2 37 17 37 8 0 12 5 9 10 -4 6 -11 8 -16 5 -5
-4 -9 -2 -9 4 0 5 -3 16 -6 25 -4 10 -1 16 9 16 8 0 17 5 19 11 2 7 13 9 27 4
14 -4 20 -12 17 -21 -3 -8 -1 -14 5 -14 6 0 8 -7 5 -16 -8 -21 7 -47 39 -68
21 -14 29 -15 41 -5 11 9 21 9 40 0 17 -7 31 -8 44 -1 10 5 23 10 29 10 13 0
14 -53 2 -78 -5 -9 -15 -30 -22 -45 -10 -21 -19 -28 -38 -26 -15 1 -52 -3 -83
-10 -60 -13 -78 -10 -78 14 0 17 -61 39 -70 25 -4 -6 -17 -9 -31 -8 -20 3 -23
-1 -21 -19 3 -24 -21 -33 -33 -13 -3 6 -15 10 -26 10 -10 0 -28 9 -39 20 -11
11 -28 20 -38 20 -45 0 -85 34 -64 54 4 4 7 19 7 33 l1 25 -109 -6 c-87 -4
-114 -9 -137 -26 -25 -17 -35 -19 -72 -11 -23 6 -43 9 -43 8 -1 -1 -23 -37
-49 -80 -48 -79 -89 -127 -106 -127 -5 0 -19 -19 -31 -42 -12 -24 -35 -62 -50
-84 -27 -40 -28 -43 -13 -73 16 -33 12 -105 -7 -117 -6 -3 -6 -10 -1 -17 5 -7
12 -24 16 -39 3 -16 11 -28 16 -28 6 0 10 -5 10 -11 0 -6 21 -35 48 -66 48
-56 114 -99 134 -87 6 4 45 11 87 16 42 5 95 12 118 15 36 4 48 1 74 -21 20
-17 43 -26 65 -26 28 0 35 -4 40 -25 4 -15 1 -32 -6 -40 -16 -20 -7 -81 17
-107 9 -10 18 -24 19 -31 1 -7 9 -32 17 -57 22 -65 30 -129 19 -143 -17 -22
-23 -125 -9 -160 8 -18 17 -55 21 -82 10 -72 38 -155 51 -155 7 0 12 -16 13
-37 1 -20 6 -41 12 -47 5 -5 10 -21 10 -35 0 -15 7 -34 15 -45 12 -16 19 -17
42 -8 15 6 53 18 84 26 65 18 109 54 109 90 0 16 11 33 32 49 17 14 32 35 33
48 1 12 15 33 31 45 23 19 26 26 16 36 -6 6 -12 29 -12 49 0 43 40 99 70 99
10 0 22 10 26 23 10 29 11 217 2 217 -16 0 -6 56 15 91 42 69 92 126 120 137
15 6 33 23 40 39 13 30 47 85 58 93 4 3 11 27 17 54 l10 48 -41 -8 c-87 -16
-110 -12 -125 21 -8 17 -27 44 -41 60 -42 47 -77 107 -84 144 -4 19 -13 42
-21 50 -17 21 -86 174 -86 192 1 8 8 1 17 -16 14 -25 18 -27 21 -11 3 14 14 1
40 -45 19 -35 44 -75 54 -88 10 -13 18 -30 18 -39 0 -8 16 -39 35 -68 21 -31
40 -77 47 -109 8 -43 14 -55 26 -50 8 3 34 10 58 16 23 6 50 20 60 30 9 10 22
19 28 19 13 0 124 56 144 72 6 6 12 18 12 27 0 9 9 27 20 41 27 34 25 47 -9
64 -16 9 -31 26 -35 38 l-6 23 -25 -27 c-35 -38 -85 -39 -85 -4 0 14 -4 28
-10 31 -6 4 -7 -1 -3 -11 4 -12 3 -15 -5 -10 -7 4 -12 14 -12 22 0 8 -9 28
-21 43 -32 44 -10 97 23 55 7 -9 28 -32 46 -51 28 -31 36 -34 66 -29 27 5 37
3 44 -10 6 -11 23 -18 43 -19 19 0 67 -2 107 -3 59 -2 74 -5 79 -19 9 -26 40
-53 59 -53 16 0 16 -1 -1 -13 -17 -13 -17 -15 6 -31 23 -15 25 -15 41 6 l16
22 6 -34 c3 -19 7 -48 9 -65 12 -83 39 -151 75 -188 32 -33 38 -35 51 -22 9 9
17 40 19 81 3 44 9 67 19 71 7 3 21 20 30 37 22 44 53 76 75 76 10 0 21 7 24
15 4 8 17 15 30 15 13 0 33 9 43 19 19 19 19 18 25 -10 3 -16 14 -36 25 -46
12 -9 23 -36 27 -60 6 -41 24 -57 39 -33 12 20 25 9 25 -20 0 -17 6 -43 13
-58 13 -27 13 -36 1 -99 -4 -23 -2 -33 6 -33 18 0 39 -31 40 -58 0 -27 38 -82
56 -82 7 0 15 -6 18 -12 4 -7 4 -2 1 12 -2 14 -5 37 -5 52 0 21 -9 34 -35 50
-22 15 -35 31 -35 45 0 12 -5 23 -10 25 -15 5 0 98 15 98 14 0 95 -77 95 -91
0 -11 55 17 78 39 8 7 16 30 19 52 5 32 1 43 -21 65 -51 51 -61 73 -45 102 17
32 59 50 74 31 11 -16 39 -6 74 26 10 9 23 16 28 14 4 -2 30 8 56 22 41 22 47
29 47 57 0 25 5 33 29 41 33 12 51 50 30 63 -12 8 -12 10 0 18 10 6 10 10 1
16 -8 5 -9 10 -2 14 6 4 -2 24 -20 50 l-30 44 29 23 c15 13 35 24 43 24 8 1 4
6 -9 11 -14 5 -31 7 -38 5 -17 -7 -53 15 -53 31 0 7 6 13 14 13 8 0 16 7 20
15 3 8 12 15 21 15 8 0 15 5 15 10 0 6 7 10 16 10 9 0 14 -6 11 -12 -23 -56
-24 -54 14 -31 30 18 36 19 47 7 11 -12 11 -18 2 -29 -10 -12 -7 -16 13 -24
25 -10 46 -31 30 -31 -13 0 -10 -53 3 -57 7 -2 19 3 27 12 9 8 20 15 25 15 15
0 1 41 -26 78 -24 32 -24 33 -6 48 10 8 27 19 37 25 9 5 17 16 17 24 0 25 30
45 56 39 32 -8 70 26 129 116 35 54 44 76 49 130 6 59 5 68 -14 85 -15 13 -23
16 -31 8 -13 -13 -37 -6 -58 14 -11 12 -10 18 8 37 11 12 21 26 21 30 0 7 16
23 79 79 32 28 69 34 101 17 13 -7 21 -7 25 0 4 6 16 8 27 4 12 -3 24 -1 28 6
11 17 63 1 55 -17 -4 -11 -1 -13 11 -9 8 3 27 6 40 6 20 0 24 4 20 18 -9 27
54 82 94 82 24 0 31 -4 27 -15 -4 -8 -3 -16 1 -19 12 -7 72 34 72 50 0 8 10
14 23 14 12 0 17 -4 12 -8 -6 -4 -15 -16 -20 -28 -8 -17 -50 -56 -158 -150
-14 -11 -16 -19 -8 -28 8 -10 8 -35 1 -86 -7 -48 -7 -77 -1 -83 14 -14 41 10
41 34 0 11 7 19 15 19 10 0 15 10 15 29 0 21 9 34 33 51 25 17 34 31 34 52 0
15 -4 28 -9 28 -15 0 -8 25 16 53 15 19 34 29 57 31 19 2 42 6 52 11 10 4 23
2 31 -4 10 -8 22 -4 52 19 21 16 47 30 57 30 10 0 29 7 42 16 14 9 32 13 41
10 27 -10 37 5 14 21 -18 13 -43 58 -41 73 1 2 9 5 19 6 9 0 29 1 44 2 22 2
27 6 25 23 -1 12 4 24 11 26 9 3 12 -2 10 -13 -2 -13 4 -20 20 -22 13 -2 39
-14 59 -28 33 -22 37 -23 48 -7 7 9 11 23 8 30 -4 9 0 11 10 7 9 -3 21 -3 26
0 13 8 3 36 -13 36 -6 0 -24 7 -40 15 -25 13 -27 13 -22 0 3 -8 1 -15 -5 -15
-5 0 -14 11 -19 25 -7 18 -17 25 -35 25 -33 0 -65 17 -65 34 0 28 -52 50 -115
48 -33 -1 -70 3 -82 10 -28 14 -41 4 -23 -17 17 -21 7 -29 -27 -20 -15 5 -37
7 -47 6 -11 -2 -37 3 -59 10 -30 10 -43 10 -58 1 -11 -7 -19 -8 -19 -2 0 5 -7
10 -15 10 -8 0 -15 8 -15 19 0 14 -10 20 -46 25 -26 3 -59 6 -75 6 -27 0 -91
28 -97 43 -2 4 -17 7 -33 7 -16 0 -29 5 -29 11 0 6 -8 1 -18 -12 -13 -15 -21
-19 -26 -11 -4 7 -4 12 0 12 4 0 -4 9 -17 19 -46 36 -109 27 -109 -15 0 -30
-32 -39 -107 -30 -46 5 -58 4 -68 -11 -13 -17 -15 -16 -44 11 -17 16 -29 38
-28 49 2 16 -8 23 -52 35 -41 12 -56 13 -59 4 -5 -17 -73 -15 -115 3 -44 18
-89 19 -105 3 -9 -9 -12 -8 -12 6 0 9 -4 15 -10 11 -5 -3 -18 0 -29 7 -17 10
-23 10 -33 -3 -7 -9 -28 -22 -47 -28 -41 -13 -41 -13 -41 -2 0 5 17 17 38 26
57 28 132 78 132 91 0 28 -41 47 -100 47 -32 0 -57 4 -54 8 2 4 -8 12 -23 17
-16 6 -22 11 -15 11 6 1 12 6 12 11 0 15 -57 12 -72 -4z m172 -908 c0 -25 -91
-118 -116 -118 -10 0 2 18 35 51 27 27 53 59 56 70 8 26 25 24 25 -3z m-1570
-273 c-23 -41 -25 -55 -7 -55 17 0 89 -68 83 -79 -3 -4 -19 -14 -36 -21 -26
-11 -37 -10 -81 10 -50 21 -53 21 -90 5 -44 -20 -85 -14 -94 14 -5 16 10 67
25 81 3 3 10 14 16 24 15 28 45 45 51 29 3 -7 12 -13 21 -13 14 0 14 -2 3 -9
-12 -8 -12 -12 3 -26 12 -13 20 -15 28 -7 6 6 17 8 24 5 8 -3 14 -1 14 5 0 5
-7 12 -15 16 -24 9 -18 20 23 38 52 23 54 22 32 -17z m335 -10 c0 -17 -21 -34
-60 -48 -5 -3 2 -16 18 -30 15 -14 27 -32 27 -39 0 -11 2 -11 9 0 6 10 12 7
25 -12 16 -25 16 -26 -3 -26 -27 0 -33 -13 -16 -36 8 -10 15 -31 15 -46 0 -40
-39 -48 -85 -17 -35 24 -44 43 -25 54 17 10 11 50 -10 75 -21 25 -43 88 -34
102 12 19 81 47 109 45 22 -1 30 -7 30 -22z m167 3 c-8 -8 -9 -15 -1 -25 9 -9
8 -17 -1 -28 -17 -21 -30 -19 -30 5 0 12 -5 17 -14 14 -8 -3 -17 -1 -20 5 -3
5 7 12 24 16 16 4 30 11 30 16 0 5 5 9 12 9 9 0 9 -3 0 -12z m406 6 c-3 -3
-23 -7 -44 -9 -22 -2 -44 -11 -51 -21 -12 -17 -13 -17 -13 2 0 30 8 34 63 34
28 0 48 -3 45 -6z m-1113 -164 c-3 -5 -16 -10 -28 -10 -18 0 -19 2 -7 10 20
13 43 13 35 0z m108 -1055 c-6 -30 -25 -46 -41 -36 -19 12 2 61 26 61 15 0 18
-5 15 -25z m-93 -110 c0 -11 7 -29 15 -39 17 -22 19 -36 7 -36 -13 0 -42 68
-42 98 0 21 2 24 10 12 5 -8 10 -24 10 -35z m110 -158 c7 -56 -3 -49 -18 11
-7 32 -7 42 1 39 7 -2 14 -25 17 -50z"/>
<path d="M1680 4012 c0 -12 50 -33 61 -26 15 9 39 -16 39 -42 0 -12 5 -26 12
-30 11 -7 93 -17 128 -16 62 3 104 12 117 25 15 15 14 17 -13 27 -16 7 -45 9
-64 5 -79 -14 -149 -3 -129 21 8 10 5 14 -18 19 -15 3 -44 10 -64 15 -45 12
-69 13 -69 2z"/>
<path d="M1510 3997 c0 -24 38 -50 65 -45 19 4 25 1 25 -13 0 -24 48 -27 56
-4 9 22 -5 67 -19 62 -7 -2 -20 0 -29 5 -21 10 -24 -2 -5 -21 10 -11 8 -11
-10 -2 -29 15 -33 14 -26 -6 4 -12 -4 -9 -21 10 -30 31 -36 33 -36 14z"/>
<path d="M5285 4002 c-6 -5 -41 -16 -79 -26 -38 -9 -77 -23 -86 -31 -9 -8 -22
-15 -28 -15 -7 0 -12 -4 -12 -9 0 -5 -11 -19 -25 -32 -13 -13 -25 -29 -25 -36
0 -7 -9 -17 -21 -23 -11 -7 -18 -14 -15 -17 3 -4 -1 -14 -9 -23 -16 -18 -10
-54 7 -44 5 3 15 -1 21 -9 16 -19 38 -26 60 -18 17 6 17 8 -4 35 -24 31 -26
22 20 115 4 8 21 19 37 24 16 5 36 16 45 23 8 8 47 24 85 35 70 22 94 35 94
50 0 11 -53 12 -65 1z"/>
<path d="M1258 3986 c-10 -7 -15 -16 -11 -19 3 -4 1 -7 -6 -7 -7 0 -9 -4 -6
-10 3 -5 1 -10 -4 -10 -6 0 -11 -4 -11 -10 0 -15 57 -12 64 3 4 8 8 9 11 1 3
-6 18 -9 33 -7 21 4 24 2 12 -6 -8 -6 -23 -11 -32 -11 -10 0 -18 -4 -18 -10 0
-15 44 -12 66 5 10 8 40 15 65 15 33 0 49 5 53 16 10 27 7 36 -14 29 -13 -4
-25 1 -37 14 -32 37 -55 23 -33 -20 9 -16 7 -19 -8 -19 -10 0 -27 9 -37 20
-10 11 -26 20 -35 20 -9 0 -20 4 -25 9 -6 6 -17 5 -27 -3z"/>
<path d="M1185 3959 c-11 -17 1 -21 15 -4 8 9 8 15 2 15 -6 0 -14 -5 -17 -11z"/>
<path d="M6857 3946 c-9 -26 6 -36 55 -36 43 0 49 2 44 18 -6 16 -5 16 8 0 15
-20 35 -24 38 -8 4 33 2 35 -69 36 -46 1 -73 -3 -76 -10z"/>
<path d="M1505 3930 c3 -5 8 -10 11 -10 2 0 4 5 4 10 0 6 -5 10 -11 10 -5 0
-7 -4 -4 -10z"/>
<path d="M1690 3931 c-19 -13 -9 -21 26 -24 20 -1 29 3 29 13 0 18 -34 24 -55
11z"/>
<path d="M7043 3927 c5 -15 79 -28 91 -16 11 10 -2 15 -57 23 -27 3 -37 1 -34
-7z"/>
<path d="M1083 3870 c-13 -15 -23 -34 -23 -41 0 -7 -7 -21 -17 -31 -15 -17
-15 -18 6 -18 14 0 25 -9 32 -27 7 -20 13 -23 21 -15 7 7 20 12 30 12 10 0 18
7 18 15 0 9 7 18 15 21 8 3 17 14 20 23 3 9 22 23 42 30 34 13 35 15 18 27
-10 8 -36 14 -56 14 -21 0 -41 5 -44 10 -11 18 -40 9 -62 -20z"/>
<path d="M6275 3880 c3 -5 12 -7 20 -3 21 7 19 13 -6 13 -11 0 -18 -4 -14 -10z"/>
<path d="M1635 3870 c-4 -6 -12 -10 -18 -9 -24 3 -37 -1 -37 -11 0 -5 7 -10
15 -10 8 0 15 -4 15 -10 0 -11 -13 -14 -45 -10 -16 1 -12 -6 19 -34 39 -36 56
-44 56 -26 0 6 7 10 15 10 9 0 20 12 25 26 12 32 12 34 -1 34 -5 0 -7 -4 -4
-10 9 -15 -4 -12 -21 4 -18 19 -18 24 3 28 15 3 15 4 0 16 -10 9 -17 10 -22 2z"/>
<path d="M1710 3865 c-8 -9 -10 -28 -5 -53 5 -29 2 -43 -9 -54 -23 -24 -16
-72 12 -76 12 -2 27 -13 33 -25 10 -17 8 -24 -12 -40 -13 -11 -23 -26 -21 -33
2 -8 -2 -14 -8 -14 -10 0 -14 13 -11 36 2 17 -38 24 -47 10 -13 -23 -78 -26
-118 -7 -30 15 -42 16 -66 7 -23 -9 -28 -15 -23 -33 3 -13 1 -23 -5 -23 -5 0
-10 6 -10 14 0 21 -17 24 -87 18 -54 -4 -63 -3 -63 12 0 9 5 16 10 16 6 0 10
4 10 9 0 5 -30 16 -67 25 -38 10 -78 20 -90 23 -13 3 -30 3 -38 -1 -18 -7 -31
-4 -27 7 4 14 -16 7 -22 -8 -9 -23 -22 -18 -36 15 -13 32 -30 40 -30 15 0 -9
-12 -20 -27 -25 -16 -5 -41 -17 -57 -25 -27 -15 -28 -15 -15 1 7 9 22 20 34
24 20 9 20 9 0 9 -11 0 -28 -6 -38 -13 -9 -7 -29 -11 -44 -8 -22 4 -25 2 -20
-12 6 -15 3 -17 -25 -11 -18 4 -39 11 -48 15 -8 5 -34 14 -58 21 -36 10 -45
10 -52 -1 -4 -7 -15 -10 -25 -6 -9 3 -25 1 -36 -4 -14 -8 -25 -7 -41 5 -13 8
-30 15 -39 15 -9 0 -24 9 -34 20 -22 24 -77 24 -125 -1 -19 -9 -50 -22 -69
-28 -19 -6 -55 -23 -80 -38 -37 -22 -42 -28 -26 -31 10 -2 39 -19 63 -38 44
-33 44 -34 21 -43 -26 -9 -50 -4 -61 13 -4 7 -13 5 -25 -5 -10 -9 -26 -19 -36
-22 -16 -6 -16 -8 5 -29 26 -26 75 -31 97 -10 18 17 34 2 29 -29 -2 -15 -14
-26 -36 -33 -45 -16 -67 -52 -53 -88 8 -22 17 -28 41 -28 26 0 30 -4 30 -26 0
-22 2 -24 15 -14 8 6 18 9 23 7 4 -3 14 -2 22 3 22 14 41 -8 33 -39 -7 -30
-60 -80 -85 -81 -10 0 -18 -5 -18 -11 0 -7 7 -8 18 -4 9 4 29 10 45 13 15 2
27 10 27 17 0 8 9 17 20 20 11 3 20 10 20 14 0 3 14 15 30 25 20 12 29 23 26
34 -7 24 57 94 78 86 9 -3 16 -10 16 -16 0 -5 -5 -6 -11 -3 -14 9 -37 -24 -31
-47 4 -17 6 -17 29 2 14 11 31 20 38 20 8 0 11 8 8 20 -6 24 24 29 33 5 7 -17
35 -20 49 -6 6 6 25 2 49 -10 21 -10 43 -16 47 -13 5 3 9 1 9 -3 0 -10 58 -46
78 -49 6 -1 12 2 12 7 0 5 5 9 10 9 6 0 10 -7 10 -15 0 -8 -7 -15 -15 -15 -25
0 -17 -22 18 -49 14 -11 20 -11 34 0 12 11 17 11 20 2 7 -20 4 -28 -9 -28 -7
0 -14 -8 -16 -18 -3 -15 1 -17 23 -11 22 5 31 1 55 -27 16 -19 29 -40 30 -46
0 -7 5 -13 10 -13 6 0 10 -8 8 -17 -2 -11 6 -22 20 -28 12 -5 22 -13 22 -18 0
-4 -9 -3 -19 3 -24 12 -31 13 -31 1 0 -5 16 -16 35 -25 19 -9 40 -27 47 -39 6
-13 12 -73 14 -142 1 -66 2 -123 3 -126 1 -3 17 -27 36 -52 19 -25 35 -53 35
-62 0 -9 15 -22 33 -30 25 -10 36 -25 52 -65 11 -29 28 -58 38 -64 9 -6 17
-20 17 -32 0 -11 12 -32 28 -47 15 -14 35 -37 45 -52 32 -45 30 -20 -3 34 -16
29 -30 55 -30 58 0 3 -11 21 -25 39 -29 39 -33 67 -7 62 9 -2 17 -8 17 -15 0
-6 3 -15 8 -19 4 -4 7 -13 7 -21 0 -7 16 -27 35 -44 19 -17 35 -35 35 -39 0
-5 16 -26 36 -47 20 -21 44 -56 54 -78 24 -54 65 -89 127 -109 28 -10 53 -22
55 -28 3 -7 11 -6 25 3 20 12 26 10 60 -17 21 -17 56 -37 78 -45 42 -15 82
-54 77 -76 -2 -7 5 -13 15 -13 10 0 24 -9 31 -20 7 -11 21 -20 31 -20 11 0 23
-4 26 -10 10 -16 22 -12 28 10 6 25 25 26 34 3 3 -10 12 -25 19 -33 21 -25 12
-85 -19 -119 -15 -17 -27 -35 -27 -41 0 -5 -4 -10 -10 -10 -5 0 -13 -11 -16
-26 -5 -18 -1 -29 12 -39 18 -13 18 -14 2 -20 -18 -7 -27 -65 -10 -65 4 0 18
-17 32 -38 14 -20 30 -41 37 -45 7 -4 13 -14 13 -22 0 -28 54 -128 72 -133 10
-2 18 -8 18 -13 0 -5 6 -9 13 -9 7 0 20 -9 30 -21 15 -17 17 -35 13 -112 -3
-80 -20 -216 -41 -337 -4 -19 -11 -45 -17 -57 -6 -12 -8 -32 -5 -44 3 -13 2
-28 -2 -33 -13 -17 -21 -86 -10 -86 5 0 9 12 9 26 0 14 4 23 9 20 5 -3 7 -25
4 -49 -8 -73 -12 -87 -27 -81 -21 8 -30 -16 -11 -30 16 -12 16 -13 -1 -30 -14
-15 -15 -19 -3 -27 10 -6 10 -9 2 -9 -7 0 -13 -7 -13 -16 0 -14 3 -14 15 -4
14 11 14 10 5 -14 -13 -35 -13 -36 6 -36 8 0 12 -4 9 -10 -3 -5 0 -10 7 -10
10 0 11 -2 0 -8 -17 -12 -4 -42 15 -35 12 5 12 7 1 14 -9 6 -9 9 -1 9 19 0 24
-17 8 -30 -8 -7 -12 -16 -9 -22 8 -12 34 10 34 28 0 8 11 19 23 25 18 8 23 17
19 34 -2 13 1 30 7 37 6 7 25 29 41 48 35 42 36 47 10 55 -27 9 -25 39 4 54
13 8 26 26 30 42 3 19 12 29 23 30 14 0 13 2 -4 9 -36 15 -29 41 10 38 30 -3
32 -1 31 29 0 27 3 32 21 31 29 -3 78 19 92 40 14 23 5 72 -13 72 -8 0 -14 5
-14 11 0 7 7 8 18 3 36 -16 76 -6 105 28 15 18 27 41 27 51 0 11 18 36 39 56
30 28 38 43 35 61 -3 14 -1 30 3 36 12 16 83 57 127 74 33 13 41 22 51 58 7
23 18 48 23 55 6 7 8 36 6 65 -3 50 -1 56 35 95 44 49 65 101 51 127 -5 9 -22
25 -37 35 -15 10 -32 24 -36 32 -5 8 -28 13 -66 13 -32 0 -61 3 -65 7 -15 15
-81 32 -90 23 -16 -16 -30 -11 -16 5 6 8 9 19 5 25 -9 14 -32 13 -38 -2 -2 -7
-8 -9 -13 -5 -5 5 -1 13 9 18 22 13 22 21 -3 49 -11 13 -20 31 -20 40 0 21
-41 50 -70 50 -26 0 -52 13 -86 45 -15 14 -30 22 -35 19 -12 -7 -51 35 -44 46
4 6 -3 10 -14 10 -11 0 -22 -4 -25 -8 -3 -5 -23 -9 -45 -10 -31 -1 -44 3 -59
23 -19 24 -20 24 -36 6 -9 -10 -16 -22 -14 -27 2 -5 -1 -10 -7 -11 -5 -1 -10
7 -9 18 1 17 -4 19 -25 14 -14 -4 -40 -20 -57 -37 -31 -29 -33 -29 -57 -13
-21 13 -30 14 -47 5 -18 -9 -26 -8 -43 7 -34 28 -37 35 -35 91 3 64 -9 75 -71
66 -39 -6 -43 -5 -38 12 15 57 20 81 18 97 -1 10 4 17 13 17 9 0 16 5 16 10 0
14 -54 12 -68 -2 -7 -7 -12 -19 -12 -28 0 -21 -41 -40 -84 -40 -28 0 -38 7
-60 41 -26 39 -27 44 -20 122 6 76 9 83 42 114 37 35 79 43 88 18 8 -19 40
-20 47 -1 7 17 83 20 93 4 3 -5 14 -6 24 -3 15 5 21 -1 29 -32 6 -21 20 -51
30 -68 17 -25 21 -27 27 -12 3 10 -1 37 -10 60 -29 76 -23 100 38 151 29 25
58 46 65 46 15 0 14 13 -5 53 -13 26 -14 39 -6 53 10 17 11 17 12 2 0 -20 20
-25 20 -5 1 24 49 67 75 67 22 0 25 4 25 35 0 35 20 55 56 55 10 0 25 6 33 14
22 19 53 24 58 8 3 -7 1 -12 -4 -11 -22 4 -33 -3 -33 -21 0 -24 13 -26 30 -5
7 8 17 15 23 15 14 0 79 51 73 57 -3 3 -12 -2 -21 -11 -24 -23 -39 -20 -75 15
-21 21 -29 37 -25 50 5 13 1 19 -10 19 -22 0 -75 -28 -75 -40 0 -6 -4 -10 -10
-10 -19 0 -10 16 32 58 l41 42 78 0 c43 0 81 5 84 10 4 6 22 17 41 25 39 16
44 42 13 68 -16 14 -24 16 -34 7 -8 -7 -20 -10 -27 -7 -7 3 0 10 17 17 l30 12
-40 14 c-22 7 -41 14 -42 14 -1 0 -7 10 -14 21 -8 16 -8 23 0 28 7 5 3 15 -11
31 -13 13 -31 40 -40 59 l-16 36 -7 -26 c-4 -15 -17 -32 -30 -39 -20 -11 -27
-9 -51 13 -18 17 -25 32 -22 45 6 21 -8 32 -40 32 -8 0 -26 9 -38 21 -29 27
-104 39 -104 15 0 -9 5 -16 11 -16 8 0 8 -5 -1 -15 -10 -12 -10 -18 1 -31 10
-12 10 -17 1 -23 -9 -5 -7 -18 8 -49 27 -56 26 -66 -15 -99 -34 -27 -34 -29
-24 -72 8 -37 7 -47 -6 -60 -15 -15 -19 -13 -46 17 -20 22 -29 43 -29 66 0 32
-3 34 -47 45 -27 7 -68 24 -91 38 -24 13 -52 23 -62 20 -14 -4 -20 2 -25 24
-4 16 -13 29 -20 29 -23 0 -33 30 -24 69 5 23 22 49 48 72 l40 36 -27 11 c-25
10 -24 10 11 5 24 -3 37 -1 37 6 0 6 8 11 18 11 20 1 65 67 56 82 -5 7 2 9 21
4 24 -6 27 -4 21 11 -6 16 -5 17 7 1 12 -15 15 -15 37 2 21 16 23 21 13 43
-10 22 -9 26 5 29 15 3 14 6 -6 26 -25 25 -94 33 -73 8 14 -17 -5 -56 -26 -56
-7 0 -10 -6 -7 -14 3 -8 1 -17 -5 -20 -12 -8 -34 30 -26 45 4 5 1 17 -6 25
-12 14 -14 14 -26 -3 -11 -15 -15 -15 -22 -4 -5 8 -7 20 -4 28 3 8 -2 13 -12
13 -11 0 -15 5 -12 14 3 8 -1 20 -9 26 -8 7 -14 18 -14 26 0 7 -8 17 -17 23
-14 7 -15 12 -5 23 6 8 8 18 4 23 -4 4 3 4 15 1 18 -6 25 -1 37 22 15 29 15
30 -16 36 -45 9 -54 8 -68 -9z m-542 -312 c-3 -18 4 -20 35 -8 13 6 16 3 11
-9 -3 -9 -10 -16 -16 -16 -5 0 -17 -7 -25 -16 -13 -12 -17 -13 -24 -2 -7 10
-11 10 -21 0 -17 -17 -39 -15 -32 3 4 8 12 15 20 15 17 0 19 20 2 20 -13 1 31
29 45 30 4 0 7 -8 5 -17z m-71 -19 c-3 -3 -12 -4 -19 -1 -8 3 -5 6 6 6 11 1
17 -2 13 -5z m759 -31 c-7 -7 -26 7 -26 19 0 6 6 6 15 -2 9 -7 13 -15 11 -17z
m-515 -139 c-31 -21 -62 -34 -82 -34 l-32 0 27 21 c21 17 24 24 15 35 -9 11
-8 14 4 14 9 0 20 -7 25 -17 9 -15 12 -15 43 4 55 33 55 14 0 -23z m-481 -148
c0 -15 -18 -31 -26 -23 -7 7 7 37 17 37 5 0 9 -6 9 -14z m797 -138 c14 -21 35
-89 29 -95 -3 -4 -7 -4 -9 -2 -1 2 -12 18 -25 36 -22 32 -30 73 -13 73 5 0 13
-6 18 -12z m-593 -113 c3 -8 12 -15 20 -15 15 0 33 -56 22 -67 -3 -4 -6 1 -6
10 0 10 -13 31 -30 49 -32 33 -35 38 -21 38 5 0 11 -7 15 -15z m856 -58 c8 -7
20 -21 26 -32 6 -11 24 -22 40 -23 29 -4 64 -27 64 -44 0 -5 -9 -7 -19 -3 -13
4 -20 1 -23 -11 -2 -10 -13 -18 -25 -19 -17 -1 -21 4 -20 23 1 14 -3 27 -10
29 -20 7 -53 -35 -53 -66 0 -28 -15 -49 -27 -38 -3 3 -2 29 2 57 6 46 10 51
36 57 39 8 37 23 -4 23 -18 0 -38 5 -45 12 -9 9 -15 9 -24 0 -14 -14 -44 -16
-52 -4 -3 5 16 23 42 40 47 31 56 31 92 -1z m190 -132 c0 -9 -9 -15 -25 -15
-24 0 -32 10 -18 23 12 13 43 7 43 -8z m-50 -29 c0 -10 -71 -47 -80 -41 -16
10 -12 19 13 31 22 11 67 18 67 10z"/>
<path d="M6900 3870 c0 -5 5 -10 10 -10 6 0 10 5 10 10 0 6 -4 10 -10 10 -5 0
-10 -4 -10 -10z"/>
<path d="M1460 3850 c0 -5 -9 -10 -21 -10 -21 0 -22 -14 -3 -64 3 -9 1 -16 -5
-16 -6 0 -13 11 -17 25 -6 25 -44 56 -44 36 0 -5 6 -12 13 -14 7 -3 4 -6 -6
-6 -10 -1 -25 6 -33 14 -9 8 -20 15 -25 15 -5 0 -9 -7 -9 -15 0 -8 -6 -15 -14
-15 -9 0 -12 7 -9 20 6 24 -6 25 -52 3 -36 -17 -55 -50 -36 -63 7 -4 11 -13 9
-21 -2 -10 8 -14 38 -15 23 -1 54 -5 70 -10 26 -7 23 -9 -29 -14 -66 -6 -81
-23 -23 -28 28 -2 40 -9 43 -23 6 -23 28 -24 100 -3 43 12 61 14 80 5 31 -14
60 -14 69 0 3 6 0 15 -7 20 -10 6 -7 10 11 17 25 10 25 10 -12 28 -43 20 -64
65 -53 114 6 26 4 30 -14 30 -12 0 -21 -4 -21 -10z m-207 -97 c-7 -2 -19 -2
-25 0 -7 3 -2 5 12 5 14 0 19 -2 13 -5z"/>
<path d="M1856 3839 c-33 -26 -38 -89 -7 -89 11 0 23 -4 26 -10 3 -5 -3 -10
-15 -10 -29 0 -17 -16 17 -23 91 -19 124 -23 129 -15 3 4 18 8 34 8 15 0 30 6
33 13 2 7 16 -1 36 -22 25 -26 29 -36 19 -44 -10 -6 -9 -7 4 -4 28 9 69 -16
75 -45 4 -23 11 -28 34 -28 33 0 45 -15 29 -35 -10 -12 -16 -11 -40 7 -32 23
-52 17 -48 -15 3 -19 -3 -23 -42 -27 -31 -4 -46 -10 -48 -22 -3 -13 4 -16 32
-15 20 1 36 5 36 10 0 20 38 3 59 -28 16 -24 36 -38 63 -46 22 -5 47 -13 56
-16 11 -4 6 6 -12 25 -23 25 -26 32 -13 32 9 0 17 -4 17 -9 0 -14 40 -25 51
-14 12 12 -11 62 -33 68 -24 8 -39 30 -32 49 7 17 34 22 34 6 0 -5 5 -10 11
-10 7 0 17 -7 24 -16 10 -15 14 -14 37 9 l26 25 -32 31 c-17 16 -43 33 -58 36
-33 8 -59 35 -34 35 9 0 16 5 16 11 0 5 -5 7 -11 3 -8 -4 -9 1 -4 16 6 19 4
22 -9 17 -10 -4 -16 -1 -16 8 0 8 -9 15 -19 15 -11 0 -21 6 -24 13 -3 9 -7 9
-20 -2 -20 -16 -23 -1 -4 18 10 11 8 13 -11 8 -18 -4 -31 2 -53 24 -29 29 -89
42 -89 18 0 -6 -7 -9 -15 -6 -8 4 -17 2 -20 -3 -12 -19 -27 -10 -22 12 7 25
-8 58 -27 58 -18 0 -76 -30 -76 -39 0 -4 5 -12 11 -18 8 -8 8 -13 -1 -18 -8
-5 -6 -11 7 -21 10 -7 13 -14 7 -14 -31 -1 -50 66 -27 92 15 17 14 18 -9 18
-14 0 -37 -9 -52 -21z"/>
<path d="M2030 3853 c0 -5 7 -17 15 -27 12 -16 17 -17 30 -6 8 7 22 10 30 6
22 -8 18 11 -4 24 -23 12 -71 14 -71 3z"/>
<path d="M6917 3854 c-12 -12 4 -24 34 -24 31 0 39 14 13 24 -20 8 -39 8 -47
0z"/>
<path d="M7769 3733 c-13 -15 -11 -16 11 -10 14 4 35 7 48 7 13 0 20 4 17 10
-10 16 -61 12 -76 -7z"/>
<path d="M2610 3691 c0 -17 30 -40 45 -35 11 5 12 11 4 25 -10 19 -49 27 -49
10z"/>
<path d="M1640 3670 c-8 -15 -6 -21 8 -29 19 -10 62 -4 62 8 0 3 -14 14 -30
23 -29 16 -30 16 -40 -2z"/>
<path d="M4885 3660 c-8 -12 20 -24 35 -15 5 3 10 10 10 16 0 12 -37 12 -45
-1z"/>
<path d="M1438 3638 c-16 -5 -28 -14 -28 -20 0 -6 8 -7 18 -3 9 4 25 10 35 12
9 3 17 9 17 14 0 11 -7 10 -42 -3z"/>
<path d="M2105 3610 c-4 -6 -1 -17 5 -25 16 -19 52 -2 44 20 -7 17 -40 20 -49
5z"/>
<path d="M3304 3525 c-18 -14 -18 -14 9 -15 24 0 27 -3 22 -20 -4 -12 -2 -20
6 -20 9 0 8 -4 -1 -15 -11 -13 -6 -15 38 -15 34 0 54 5 59 15 5 8 26 18 47 22
42 9 62 33 28 33 -11 0 -25 6 -31 14 -15 18 -91 9 -107 -12 -10 -14 -13 -13
-23 6 -14 26 -21 27 -47 7z"/>
<path d="M1913 3489 c-3 -16 -10 -32 -14 -35 -5 -3 -9 -10 -9 -16 0 -6 3 -8 7
-5 3 4 12 2 20 -4 10 -9 19 -7 38 5 20 13 28 14 44 4 11 -7 23 -9 26 -6 9 9
-33 49 -73 69 l-33 17 -6 -29z"/>
<path d="M7993 3413 c9 -2 23 -2 30 0 6 3 -1 5 -18 5 -16 0 -22 -2 -12 -5z"/>
<path d="M1965 3399 c-4 -6 -4 -13 -1 -16 8 -8 36 5 36 17 0 13 -27 13 -35 -1z"/>
<path d="M2046 3381 c-4 -7 -5 -15 -2 -18 9 -9 19 4 14 18 -4 11 -6 11 -12 0z"/>
<path d="M3733 3253 c-13 -2 -23 -11 -23 -19 0 -8 -6 -17 -14 -20 -11 -4 -12
-12 -4 -35 5 -16 14 -26 19 -23 5 3 9 -5 9 -16 0 -16 5 -20 15 -16 8 3 15 2
15 -2 0 -4 3 -17 6 -28 4 -16 0 -23 -17 -27 -13 -4 -20 -9 -16 -13 4 -4 2 -13
-4 -21 -9 -10 -7 -13 9 -13 12 0 24 -4 27 -10 3 -5 0 -10 -8 -10 -8 0 -21 -8
-28 -17 -13 -15 -12 -16 6 -8 11 4 36 10 55 12 61 7 81 13 75 24 -4 5 -1 16 5
24 10 12 9 15 -4 15 -9 0 -20 8 -23 18 -10 24 -52 85 -65 93 -8 5 -6 15 6 33
l16 26 -31 0 c-31 0 -32 0 -14 20 10 11 16 19 14 19 -2 -1 -14 -4 -26 -6z"/>
<path d="M4317 3253 c-4 -3 -7 -11 -7 -17 0 -6 5 -5 12 2 6 6 9 14 7 17 -3 3
-9 2 -12 -2z"/>
<path d="M420 3225 c-7 -9 -8 -15 -2 -15 5 0 12 7 16 15 3 8 4 15 2 15 -2 0
-9 -7 -16 -15z"/>
<path d="M3670 3229 c0 -5 5 -7 10 -4 6 3 10 8 10 11 0 2 -4 4 -10 4 -5 0 -10
-5 -10 -11z"/>
<path d="M4225 3210 c-3 -5 -1 -10 4 -10 6 0 11 5 11 10 0 6 -2 10 -4 10 -3 0
-8 -4 -11 -10z"/>
<path d="M4080 3140 c0 -11 5 -20 10 -20 6 0 10 9 10 20 0 11 -4 20 -10 20 -5
0 -10 -9 -10 -20z"/>
<path d="M3658 3133 c-10 -2 -18 -11 -18 -19 0 -8 -7 -14 -16 -14 -12 0 -15
-6 -10 -24 3 -14 2 -28 -4 -31 -17 -10 -11 -25 10 -25 10 0 31 5 45 12 22 10
26 17 23 40 -3 15 0 29 6 31 11 4 1 38 -11 36 -4 -1 -16 -3 -25 -6z"/>
<path d="M874 3074 c3 -9 6 -18 6 -20 0 -2 5 -4 10 -4 6 0 10 9 10 20 0 12 -7
20 -16 20 -11 0 -14 -5 -10 -16z"/>
<path d="M6943 2943 c-1 -59 1 -102 4 -95 4 10 8 10 19 1 9 -8 14 -8 14 -1 0
6 -4 14 -10 17 -12 8 -13 62 -1 69 9 6 -6 95 -18 109 -4 4 -8 -41 -8 -100z"/>
<path d="M2556 2988 c-9 -12 -16 -28 -16 -34 0 -7 -4 -14 -9 -16 -4 -1 -11
-13 -15 -25 -7 -21 -5 -22 23 -12 26 9 37 7 67 -10 20 -12 38 -20 40 -18 7 6
-9 47 -18 47 -5 0 -6 5 -3 10 3 6 0 10 -7 10 -7 0 -22 7 -33 16 -16 12 -18 18
-7 34 17 27 -3 25 -22 -2z"/>
<path d="M2405 2950 c3 -5 13 -10 21 -10 8 0 12 5 9 10 -3 6 -13 10 -21 10 -8
0 -12 -4 -9 -10z"/>
<path d="M6935 2790 c-4 -17 -15 -36 -25 -43 -13 -9 -16 -17 -9 -27 7 -12 9
-12 9 4 0 15 5 17 35 12 22 -4 35 -3 35 4 0 5 6 10 14 10 7 0 19 7 26 15 10
13 9 15 -12 15 -13 0 -34 9 -45 20 l-22 19 -6 -29z"/>
<path d="M4025 2737 c-4 -10 -5 -21 -1 -24 10 -10 18 4 13 24 -4 17 -4 17 -12
0z"/>
<path d="M4012 2673 c2 -37 9 -48 19 -32 14 23 10 59 -6 59 -10 0 -14 -9 -13
-27z"/>
<path d="M6900 2678 c-5 -13 -11 -36 -15 -51 -4 -20 -13 -29 -33 -33 -16 -3
-32 -15 -37 -27 -7 -16 -20 -23 -46 -25 -38 -3 -89 -42 -56 -42 9 0 19 5 22
10 10 16 55 12 55 -5 0 -8 7 -15 15 -15 8 0 15 5 15 10 0 6 7 10 15 10 22 0
85 60 85 81 0 11 5 28 11 38 13 20 5 71 -11 71 -6 0 -15 -10 -20 -22z"/>
<path d="M3885 2660 c-3 -5 -1 -10 4 -10 6 0 11 5 11 10 0 6 -2 10 -4 10 -3 0
-8 -4 -11 -10z"/>
<path d="M4340 2540 c0 -5 12 -10 28 -9 24 0 25 1 7 9 -27 12 -35 12 -35 0z"/>
<path d="M4546 2540 c-15 -5 -16 -9 -7 -14 7 -5 18 -3 24 3 14 14 6 20 -17 11z"/>
<path d="M6748 2496 c-10 -7 -18 -18 -18 -24 0 -22 49 8 50 31 0 11 -13 8 -32
-7z"/>
<path d="M6670 2474 c0 -8 5 -12 10 -9 7 4 9 -2 4 -19 -3 -14 -2 -26 3 -26 14
0 36 46 29 59 -11 17 -46 13 -46 -5z"/>
<path d="M2085 2250 c3 -5 8 -10 11 -10 2 0 4 5 4 10 0 6 -5 10 -11 10 -5 0
-7 -4 -4 -10z"/>
<path d="M6469 2258 c-5 -21 -5 -68 0 -68 4 0 12 16 18 35 9 29 9 35 -3 35 -8
0 -14 -1 -15 -2z"/>
<path d="M1964 2198 l-19 -21 26 17 c23 15 28 15 39 1 7 -8 23 -15 36 -15 13
0 24 -4 24 -10 0 -5 6 -10 14 -10 8 0 17 -7 20 -16 4 -10 15 -14 33 -12 35 4
37 31 3 38 -14 3 -45 16 -70 28 -57 27 -82 28 -106 0z"/>
<path d="M2205 2121 c5 -17 2 -21 -17 -22 -16 -1 -12 -4 12 -8 19 -4 39 -4 45
1 5 4 20 8 34 8 22 0 23 2 11 14 -8 7 -32 17 -53 20 -36 7 -38 6 -32 -13z"/>
<path d="M6218 2133 c-25 -6 -23 -33 2 -33 11 0 20 2 20 4 0 2 3 11 6 20 6 16
3 17 -28 9z"/>
<path d="M2080 2096 c0 -9 30 -14 35 -6 4 6 -3 10 -14 10 -12 0 -21 -2 -21 -4z"/>
<path d="M2338 2093 c6 -2 18 -2 25 0 6 3 1 5 -13 5 -14 0 -19 -2 -12 -5z"/>
<path d="M6457 2060 c-7 -53 0 -77 26 -84 28 -7 33 0 13 19 -20 20 -20 24 -1
45 18 20 9 60 -15 60 -13 0 -19 -11 -23 -40z"/>
<path d="M6460 1962 c0 -12 19 -26 26 -19 2 2 -2 10 -11 17 -9 8 -15 8 -15 2z"/>
<path d="M6546 1932 c-3 -6 -3 -18 1 -29 5 -15 2 -15 -19 5 -28 26 -38 28 -38
7 0 -8 5 -15 11 -15 6 0 9 -7 5 -15 -6 -17 9 -20 20 -4 5 8 8 8 13 0 5 -7 12
-2 21 14 10 18 10 29 3 36 -7 7 -13 7 -17 1z"/>
<path d="M6412 1885 c-12 -19 -20 -35 -17 -35 8 0 54 53 55 63 0 17 -17 4 -38
-28z"/>
<path d="M6560 1865 c-7 -8 -20 -15 -29 -15 -19 0 -41 -19 -41 -34 0 -6 5 -5
12 2 18 18 38 14 38 -7 0 -10 7 -21 15 -25 10 -4 15 1 15 15 0 11 5 17 10 14
6 -4 10 8 10 29 0 38 -10 45 -30 21z"/>
<path d="M5586 1844 c-5 -19 -2 -30 11 -39 25 -19 40 8 22 41 -16 31 -25 30
-33 -2z"/>
<path d="M6355 1788 c-6 -13 -20 -24 -32 -26 -13 -2 -23 -10 -23 -18 0 -8 -11
-19 -25 -24 -14 -5 -25 -16 -25 -23 0 -10 -8 -13 -25 -9 -21 4 -25 1 -25 -19
0 -13 9 -35 20 -49 11 -14 20 -31 20 -37 0 -7 6 -14 13 -14 28 -3 63 -8 81
-11 10 -2 22 4 26 12 4 8 12 25 18 37 7 13 12 30 12 38 0 9 7 18 15 21 13 5
13 8 0 27 -21 29 -19 53 5 70 20 14 20 14 -4 31 -33 21 -39 20 -51 -6z"/>
<path d="M5900 1776 c0 -3 17 -25 38 -50 20 -25 45 -56 54 -68 10 -13 27 -35
38 -50 11 -14 20 -30 20 -35 0 -13 54 -63 68 -63 7 0 12 13 12 29 0 16 5 31
12 33 7 3 9 12 4 23 -5 13 -10 16 -14 8 -9 -14 -52 19 -52 39 0 15 -40 58 -54
58 -4 0 -25 18 -47 40 -22 22 -49 40 -59 40 -11 0 -20 -2 -20 -4z"/>
<path d="M6610 1670 c0 -13 5 -20 13 -17 6 2 12 10 12 17 0 7 -6 15 -12 18 -8
2 -13 -5 -13 -18z"/>
<path d="M6463 1673 c-28 -10 -11 -18 32 -18 59 1 79 20 22 21 -23 0 -48 -1
-54 -3z"/>
<path d="M6711 1631 c-18 -12 -5 -31 22 -31 20 -1 20 -2 5 -13 -16 -13 -10
-40 8 -36 22 6 97 -27 111 -48 15 -22 14 -25 -3 -38 -18 -13 -17 -14 12 -15
17 0 37 -7 44 -15 17 -20 33 -19 55 5 25 27 41 25 73 -9 15 -16 43 -32 62 -36
l35 -8 -42 42 c-45 43 -51 56 -30 64 8 4 7 6 -4 6 -8 1 -26 12 -39 26 -13 13
-44 32 -69 41 -25 8 -60 23 -78 31 -30 15 -33 14 -59 -6 -33 -26 -44 -27 -44
-2 0 19 -24 51 -38 51 -4 0 -13 -4 -21 -9z"/>
<path d="M6430 1612 c0 -10 -5 -23 -12 -30 -9 -9 -7 -13 5 -18 10 -3 17 -17
17 -31 0 -13 4 -22 8 -19 5 3 7 20 5 38 -4 31 -3 32 11 14 9 -11 16 -23 16
-28 0 -4 6 -5 14 -2 11 4 13 12 5 31 -12 31 -12 29 7 47 14 15 14 16 -3 16
-11 0 -24 -5 -30 -11 -8 -8 -13 -8 -17 0 -11 17 -26 13 -26 -7z"/>
<path d="M6582 1569 c2 -7 10 -15 17 -17 8 -3 12 1 9 9 -2 7 -10 15 -17 17 -8
3 -12 -1 -9 -9z"/>
<path d="M6630 1571 c0 -5 14 -11 30 -13 32 -5 41 6 14 16 -23 9 -44 7 -44 -3z"/>
<path d="M7151 1533 c-18 -19 -29 -23 -49 -18 -22 5 -24 4 -13 -9 19 -23 47
-20 69 9 11 13 22 21 26 18 3 -3 6 -1 6 5 0 21 -15 19 -39 -5z"/>
<path d="M6141 1496 c-9 -11 -8 -15 6 -21 28 -13 141 -16 148 -5 3 6 -4 11
-17 11 -52 3 -82 9 -92 19 -14 14 -31 13 -45 -4z"/>
<path d="M7230 1495 c7 -9 15 -13 17 -11 7 7 -7 26 -19 26 -6 0 -6 -6 2 -15z"/>
<path d="M7300 1456 c0 -2 7 -6 15 -10 8 -3 15 -1 15 4 0 6 -7 10 -15 10 -8 0
-15 -2 -15 -4z"/>
<path d="M6359 1434 c18 -13 24 -13 42 -1 19 14 18 15 -22 15 -40 1 -41 0 -20
-14z"/>
<path d="M6440 1440 c0 -12 47 -12 75 0 15 6 8 9 -27 9 -27 1 -48 -3 -48 -9z"/>
<path d="M6548 1432 c-16 -10 -28 -20 -28 -24 0 -14 27 -9 40 7 7 8 18 15 26
15 7 0 16 5 19 10 10 15 -27 10 -57 -8z"/>
<path d="M7355 1430 c3 -5 8 -10 11 -10 2 0 4 5 4 10 0 6 -5 10 -11 10 -5 0
-7 -4 -4 -10z"/>
<path d="M6435 1410 c28 -12 37 -12 30 0 -3 6 -16 10 -28 9 -21 0 -21 -1 -2
-9z"/>
<path d="M7330 1416 c0 -2 7 -7 16 -10 8 -3 12 -2 9 4 -6 10 -25 14 -25 6z"/>
<path d="M7370 1390 c0 -5 7 -10 16 -10 8 0 12 5 9 10 -3 6 -10 10 -16 10 -5
0 -9 -4 -9 -10z"/>
<path d="M6692 1344 c-18 -18 -32 -40 -32 -49 0 -8 -7 -15 -15 -15 -8 0 -15 4
-15 9 0 29 -66 19 -76 -12 -9 -28 -26 -45 -42 -39 -7 2 -12 -5 -12 -15 0 -24
-32 -53 -90 -82 -96 -48 -129 -88 -98 -119 8 -8 8 -15 0 -25 -9 -10 -8 -18 3
-33 8 -10 15 -31 15 -45 0 -14 6 -33 13 -43 14 -19 11 -62 -4 -72 -5 -3 -2
-12 6 -21 14 -13 20 -13 58 2 23 9 61 28 84 41 31 18 56 24 90 23 27 0 60 2
75 6 50 13 96 -2 114 -38 23 -44 21 -43 51 -16 18 17 24 19 20 7 -3 -10 4 -27
19 -43 13 -14 24 -30 24 -35 0 -5 8 -11 19 -15 10 -3 31 -17 46 -31 21 -19 30
-22 40 -14 9 8 20 8 30 2 24 -13 95 24 95 49 0 22 37 100 52 110 4 3 11 42 15
86 5 68 3 85 -13 112 -10 17 -22 31 -26 31 -4 0 -8 7 -8 15 0 7 -6 18 -14 22
-7 4 -21 22 -30 40 -8 17 -25 34 -36 38 -13 4 -23 21 -30 48 -16 63 -18 67
-34 67 -7 0 -17 11 -20 25 -11 42 -33 30 -41 -21 -12 -84 -19 -89 -71 -49 -18
14 -37 25 -42 25 -6 0 -12 6 -15 13 -5 17 3 47 14 47 5 0 9 5 9 10 0 6 -10 10
-22 10 -13 0 -35 6 -49 14 -24 12 -28 11 -57 -20z"/>
<path d="M4871 1317 c-5 -13 -27 -31 -49 -41 -44 -20 -54 -42 -39 -89 7 -19 6
-32 -2 -40 -6 -6 -11 -32 -11 -58 0 -40 3 -49 22 -55 17 -5 27 0 45 22 13 16
23 38 23 49 1 11 9 38 20 60 11 22 19 57 20 78 0 23 4 36 10 32 13 -8 13 21 0
46 -14 25 -29 24 -39 -4z"/>
<path d="M7760 1240 c0 -5 5 -10 10 -10 6 0 10 5 10 10 0 6 -4 10 -10 10 -5 0
-10 -4 -10 -10z"/>
<path d="M7727 1214 c-8 -8 1 -24 14 -24 5 0 9 7 9 15 0 15 -12 20 -23 9z"/>
<path d="M7440 1137 c0 -14 46 -44 55 -35 3 2 -9 14 -25 27 -21 15 -30 18 -30
8z"/>
<path d="M7630 769 c0 -8 7 -24 15 -35 11 -15 14 -16 15 -3 0 8 -7 24 -15 35
-11 15 -14 16 -15 3z"/>
<path d="M6816 751 c-4 -5 -2 -12 3 -15 5 -4 12 -2 15 3 4 5 2 12 -3 15 -5 4
-12 2 -15 -3z"/>
<path d="M7682 711 c-7 -4 -20 -21 -28 -37 -14 -26 -14 -30 2 -41 23 -17 34
-16 34 2 0 8 10 20 22 26 19 10 20 13 6 23 -8 6 -17 16 -19 23 -2 8 -9 9 -17
4z"/>
<path d="M7019 574 c17 -38 46 -45 54 -13 9 33 -2 47 -37 47 l-33 0 16 -34z"/>
<path d="M7600 597 c0 -18 -68 -97 -83 -97 -16 0 -39 -38 -32 -50 11 -18 43
-10 71 19 16 15 48 49 71 74 l43 45 -32 11 c-39 14 -38 14 -38 -2z"/>
<path d="M5320 356 c0 -11 10 -16 31 -16 38 0 35 24 -4 28 -19 2 -27 -1 -27
-12z"/>
<path d="M2476 284 c-4 -10 -1 -14 6 -12 15 5 23 28 10 28 -5 0 -13 -7 -16
-16z"/>
<path d="M2518 283 c7 -3 16 -2 19 1 4 3 -2 6 -13 5 -11 0 -14 -3 -6 -6z"/>
<path d="M2260 245 c-9 -11 -10 -15 0 -15 6 0 10 -6 8 -12 -3 -7 -10 -13 -15
-13 -23 0 -23 -13 -1 -27 19 -11 51 -15 91 -9 13 2 7 21 -7 21 -8 0 -17 8 -21
19 -3 10 -14 26 -24 35 -16 15 -19 15 -31 1z"/>
</g>
</svg>
