<?xml version="1.0" standalone="no"?>
<!DOCTYPE svg PUBLIC "-//W3C//DTD SVG 20010904//EN"
 "http://www.w3.org/TR/2001/REC-SVG-20010904/DTD/svg10.dtd">
<svg version="1.0" xmlns="http://www.w3.org/2000/svg"
 width="1024.000000pt" height="457.000000pt" viewBox="0 0 1024.000000 457.000000"
 preserveAspectRatio="xMidYMid meet">
<metadata>
Created by potrace 1.16, written by Peter Selinger 2001-2019
</metadata>
<g transform="translate(0.000000,457.000000) scale(0.100000,-0.100000)"
fill="#000000" stroke="none">
<path d="M4287 4563 c-37 -2 -66 -7 -63 -11 5 -8 -198 -6 -374 4 -67 4 -184 1
-279 -6 -141 -11 -161 -15 -145 -27 17 -12 17 -13 -2 -13 -11 0 -25 5 -31 11
-8 8 -26 7 -67 -5 -31 -9 -56 -19 -56 -22 0 -3 9 -14 19 -25 15 -17 27 -20 58
-16 52 8 77 -8 26 -16 -21 -4 -49 -4 -63 -2 -21 5 -22 4 -5 -4 19 -8 18 -9 -5
-12 -14 -3 -43 -2 -66 1 -44 7 -64 3 -64 -11 0 -5 11 -7 25 -5 25 5 34 -7 15
-19 -5 -3 -10 -11 -10 -16 0 -12 244 -9 256 4 16 15 -10 21 -92 18 -58 -1 -84
1 -79 8 8 14 145 14 179 1 17 -6 26 -6 26 0 0 6 9 10 20 10 11 0 20 4 20 10 0
5 26 17 58 26 31 9 66 23 77 30 11 8 31 14 45 14 14 0 47 7 74 15 27 8 59 14
70 14 15 -1 13 -3 -9 -9 -16 -4 -22 -8 -12 -9 28 -2 9 -21 -20 -21 -15 0 -55
-5 -90 -11 -53 -9 -62 -14 -52 -25 9 -11 8 -14 -2 -14 -8 0 -4 -6 8 -15 15
-10 45 -15 103 -14 67 1 84 -2 94 -17 15 -20 10 -85 -7 -96 -8 -5 -6 -9 5 -13
10 -4 21 -4 26 -1 5 3 18 -1 28 -9 18 -14 16 -14 -13 -9 -20 4 -39 2 -48 -6
-23 -19 -18 -30 16 -30 28 0 30 2 18 17 -13 15 -12 15 9 4 19 -10 21 -15 11
-27 -6 -8 -19 -14 -28 -14 -28 -1 -64 -39 -64 -68 -1 -89 27 -162 63 -162 10
0 25 -7 34 -15 8 -8 21 -15 29 -15 15 0 77 64 77 79 0 4 11 13 25 19 13 6 27
23 31 36 6 27 18 33 74 40 46 6 78 18 122 49 25 16 57 26 100 31 35 3 85 14
112 25 l50 19 -32 7 c-18 3 -32 11 -32 16 0 12 27 12 35 -1 8 -13 42 -13 51 1
3 6 2 15 -4 21 -12 12 15 48 35 48 7 0 13 5 13 10 0 6 8 10 19 10 14 0 19 7
19 28 0 15 -5 30 -12 34 -7 5 -5 8 7 8 9 0 17 -4 17 -10 0 -19 17 -10 28 16 7
14 8 23 3 20 -5 -3 -20 -2 -32 2 -23 9 -22 9 11 24 65 29 120 48 140 48 11 0
20 5 20 11 0 7 -28 9 -85 6 -47 -3 -85 -1 -85 4 0 5 6 10 13 10 6 1 -8 5 -33
10 -44 7 -220 8 -353 2z m-332 -33 c-3 -5 -20 -10 -36 -10 -18 0 -28 4 -24 10
3 6 20 10 36 10 18 0 28 -4 24 -10z m-420 -25 c-23 -8 -85 -10 -85 -3 0 4 21
8 48 7 26 0 43 -2 37 -4z m995 -190 c0 -8 -2 -15 -4 -15 -2 0 -6 7 -10 15 -3
8 -1 15 4 15 6 0 10 -7 10 -15z"/>
<path d="M6047 4525 c-52 -18 -57 -25 -16 -26 19 0 51 -1 72 -3 20 -2 45 2 54
9 14 11 13 13 -13 19 -16 4 -36 9 -44 11 -8 2 -32 -2 -53 -10z"/>
<path d="M5885 4510 c-4 -6 7 -10 27 -10 18 0 43 -3 56 -6 18 -5 21 -3 16 10
-7 18 -88 23 -99 6z"/>
<path d="M6193 4513 c9 -2 23 -2 30 0 6 3 -1 5 -18 5 -16 0 -22 -2 -12 -5z"/>
<path d="M6720 4505 c0 -21 27 -30 44 -16 10 9 15 9 18 1 4 -12 118 -31 118
-20 0 15 -26 30 -51 30 -15 0 -31 5 -34 10 -3 6 -26 10 -51 10 -33 0 -44 -4
-44 -15z"/>
<path d="M5360 4500 c-14 -5 -46 -8 -71 -9 -34 -1 -46 -5 -46 -17 0 -9 12 -18
29 -21 15 -3 28 -9 28 -13 0 -4 12 -12 26 -19 27 -12 48 -4 67 27 11 17 36 15
43 -3 4 -8 18 -15 33 -15 47 0 44 14 -6 31 l-48 17 52 0 c56 0 110 20 63 23
-88 6 -148 5 -170 -1z"/>
<path d="M3218 4493 c7 -3 16 -2 19 1 4 3 -2 6 -13 5 -11 0 -14 -3 -6 -6z"/>
<path d="M6933 4483 c-7 -3 -13 -11 -13 -19 0 -10 13 -14 44 -14 43 0 76 18
39 22 -32 2 -38 3 -48 9 -5 4 -16 4 -22 2z"/>
<path d="M3077 4467 c-4 -11 5 -16 36 -20 39 -5 69 5 55 19 -4 3 -24 8 -46 11
-29 4 -40 1 -45 -10z"/>
<path d="M2903 4455 c-29 -12 -30 -25 -3 -25 20 0 80 26 80 35 0 7 -54 1 -77
-10z"/>
<path d="M3195 4460 c-8 -13 20 -24 42 -16 15 6 15 8 3 16 -20 13 -37 12 -45
0z"/>
<path d="M3020 4440 c0 -5 5 -10 11 -10 5 0 7 5 4 10 -3 6 -8 10 -11 10 -2 0
-4 -4 -4 -10z"/>
<path d="M2691 4420 c-36 -9 -59 -20 -53 -24 7 -4 16 -4 22 -1 5 3 21 -2 36
-11 15 -11 46 -18 77 -18 92 -1 207 9 207 17 0 5 -4 5 -10 2 -5 -3 -10 -1 -10
4 0 6 -7 11 -15 11 -8 0 -15 5 -15 10 0 15 -16 12 -34 -5 -18 -18 -30 -19 -79
-2 -36 13 -37 14 -15 25 21 10 20 11 -12 10 -19 0 -64 -8 -99 -18z m59 -14 c0
-11 -19 -15 -25 -6 -3 5 1 10 9 10 9 0 16 -2 16 -4z"/>
<path d="M6986 4431 c-4 -6 -4 -11 1 -12 23 -3 -49 -17 -92 -18 -27 -1 -68 -6
-90 -12 -70 -18 -70 -18 -49 -34 17 -13 14 -14 -38 -15 -32 0 -58 -3 -58 -6 0
-12 35 -33 54 -34 11 0 17 -3 14 -6 -4 -3 -27 -2 -53 2 -32 4 -43 9 -34 15 9
6 10 9 2 9 -6 0 -19 -8 -29 -17 -15 -16 -15 -17 2 -24 17 -7 17 -8 -3 -8 -13
-1 -24 7 -28 18 -6 19 -33 36 -43 26 -3 -3 0 -5 7 -5 8 0 10 -7 6 -20 -4 -13
-1 -22 8 -26 9 -3 18 -16 21 -30 4 -13 13 -24 21 -24 24 0 31 -49 9 -65 -22
-17 -50 -19 -59 -5 -3 6 3 10 14 10 32 0 35 34 6 67 -47 52 -55 63 -55 77 0 8
-14 22 -32 30 -34 17 -48 10 -48 -25 0 -9 -8 -20 -17 -24 -17 -6 -17 -7 0 -16
9 -6 17 -17 17 -24 0 -8 3 -15 8 -14 15 2 52 -14 52 -22 0 -12 0 -12 -51 7
-24 8 -69 20 -99 24 -30 5 -66 12 -80 15 -17 4 -13 -1 14 -15 29 -16 35 -24
25 -30 -8 -5 -16 -5 -20 2 -5 7 -22 7 -58 -1 -64 -14 -64 -14 -55 0 15 25
-111 -19 -127 -44 -4 -6 -18 -7 -35 -2 -22 6 -25 9 -11 12 29 7 13 28 -24 31
-19 1 -29 -1 -23 -5 11 -8 27 -44 23 -53 -1 -3 -10 -4 -20 -2 -25 4 -69 -26
-63 -43 5 -11 -1 -12 -31 -4 -20 6 -40 8 -43 4 -3 -3 4 -8 16 -12 21 -5 31
-23 14 -23 -21 0 -72 33 -72 45 0 8 -12 22 -27 30 -27 16 -28 16 -3 10 104
-24 123 -25 148 -9 20 13 22 18 11 28 -21 19 -127 56 -159 56 -16 0 -32 5 -35
10 -3 6 -17 7 -31 4 -17 -5 -24 -3 -22 6 4 17 -64 33 -73 18 -4 -7 -9 -6 -14
2 -7 11 -77 6 -100 -9 -5 -3 -19 -6 -30 -7 -32 -2 -65 -15 -65 -26 0 -6 -6 -8
-12 -5 -7 2 -29 -4 -48 -15 -33 -19 -33 -20 -7 -14 33 8 29 -6 -10 -37 -13
-10 -23 -24 -23 -31 0 -12 -28 -31 -115 -77 -47 -26 -50 -30 -51 -68 -1 -23 3
-44 8 -47 4 -3 6 -10 3 -15 -4 -5 6 -14 20 -19 22 -8 34 -6 60 10 18 11 35 20
38 20 4 0 16 -18 27 -41 l21 -40 -20 -17 c-26 -22 -14 -49 15 -34 11 5 33 15
49 22 57 23 60 27 57 58 -2 23 2 32 17 37 30 9 35 37 11 55 -33 25 -23 58 25
85 23 12 40 29 40 39 0 10 8 22 17 27 17 10 68 2 68 -10 0 -9 -64 -51 -77 -51
-6 0 -10 -8 -8 -17 2 -10 4 -30 4 -44 1 -38 42 -53 106 -39 27 6 62 8 79 4
l31 -8 -30 -7 c-16 -4 -49 -7 -73 -8 -48 -1 -96 -27 -88 -47 3 -7 1 -16 -4
-19 -6 -4 -10 -22 -10 -41 0 -23 -5 -34 -14 -34 -8 0 -16 -6 -19 -12 -3 -10
-9 -10 -25 -1 -17 10 -28 9 -58 -3 -30 -13 -42 -13 -60 -3 -18 9 -27 9 -37 0
-17 -14 -44 -5 -57 19 -7 13 -6 21 4 29 7 6 11 22 9 35 -5 23 -6 23 -35 9 -31
-16 -33 -28 -13 -89 6 -20 2 -23 -42 -29 -40 -5 -51 -11 -66 -37 -9 -16 -31
-35 -47 -41 -17 -6 -30 -16 -30 -22 0 -15 -54 -37 -73 -29 -12 4 -14 1 -10
-15 4 -15 1 -21 -10 -21 -9 0 -18 4 -21 9 -9 13 -46 1 -46 -15 0 -8 8 -14 18
-14 32 0 62 -45 62 -94 0 -26 -5 -46 -12 -48 -7 -3 -47 -2 -88 2 -95 8 -110 0
-110 -60 -1 -25 -7 -56 -14 -69 -8 -15 -10 -31 -6 -40 5 -9 11 -24 14 -34 4
-13 12 -16 29 -12 52 13 50 -93 -2 -110 -31 -9 -71 -67 -71 -102 0 -32 -39
-76 -78 -88 -13 -4 -28 -18 -34 -31 -6 -13 -15 -24 -19 -24 -4 0 -16 -17 -26
-37 -11 -21 -32 -62 -48 -91 -22 -43 -25 -56 -15 -62 20 -12 22 -101 5 -151
-25 -69 -11 -124 44 -181 25 -26 48 -60 51 -75 3 -17 24 -42 60 -70 103 -82
97 -79 136 -58 25 14 45 16 83 11 40 -5 63 -1 118 19 89 34 123 31 143 -13 14
-32 16 -33 55 -28 42 6 71 -7 76 -34 4 -22 -11 -112 -21 -131 -10 -20 10 -62
50 -104 28 -29 84 -158 73 -169 -3 -2 1 -27 8 -55 12 -48 11 -51 -14 -88 -31
-46 -48 -162 -27 -188 30 -36 67 -134 73 -195 5 -47 20 -90 52 -157 31 -63 44
-100 40 -116 -4 -15 0 -32 12 -46 18 -22 22 -22 78 -12 33 6 81 13 108 16 36
5 58 16 95 47 26 23 55 55 66 72 10 17 27 40 37 52 11 11 23 41 27 65 6 37 13
47 42 61 43 22 55 63 34 121 l-15 41 44 42 c25 23 57 49 73 57 58 30 68 50 67
140 -1 54 -7 92 -17 112 -19 36 -20 52 -3 58 9 4 9 6 -1 6 -7 1 -11 5 -7 11 3
5 0 18 -6 29 -10 15 -9 28 8 68 20 48 128 193 143 193 25 0 106 104 146 187
54 113 69 202 29 164 -6 -4 -49 -16 -96 -26 -85 -17 -87 -17 -106 2 -16 16
-18 23 -8 36 7 10 18 17 26 17 8 0 22 7 32 15 11 7 36 16 57 20 22 4 44 13 50
20 6 8 27 19 46 25 19 7 39 20 44 30 5 10 24 22 42 25 35 8 108 75 108 99 0 8
6 19 14 23 7 4 20 22 28 38 14 27 14 32 -1 47 -9 9 -29 22 -46 29 -36 16 -45
27 -45 57 0 12 -2 22 -4 22 -2 0 -20 -16 -39 -35 -25 -25 -44 -35 -66 -35 -29
0 -31 3 -31 35 0 19 -4 35 -10 35 -5 0 -10 -4 -10 -10 0 -5 -4 -10 -10 -10 -5
0 -10 6 -10 14 0 7 -10 24 -23 38 -34 37 -54 88 -37 98 20 12 45 1 63 -29 19
-32 80 -77 118 -86 18 -4 31 -1 42 10 15 14 17 13 31 -12 12 -25 23 -30 83
-40 66 -10 120 -10 174 3 22 5 29 0 46 -28 11 -19 35 -42 54 -51 20 -10 27
-17 17 -17 -24 0 -22 -12 5 -38 30 -28 52 -28 71 0 16 22 16 22 16 -12 0 -44
31 -155 58 -206 23 -44 53 -113 72 -164 27 -71 46 -77 74 -25 11 19 23 35 29
35 5 0 8 38 6 92 -4 91 -4 92 22 102 25 10 99 89 99 105 0 4 11 13 25 19 14 7
25 20 25 31 0 24 18 36 48 32 12 -1 35 4 52 12 l29 15 21 -44 c12 -24 28 -44
36 -44 8 0 14 -9 14 -19 0 -10 7 -21 15 -25 10 -3 15 -19 15 -46 0 -51 21 -62
56 -29 15 14 28 19 34 13 13 -13 47 -126 45 -152 -1 -12 1 -22 5 -22 3 0 4
-28 2 -61 -3 -40 -1 -60 5 -56 14 9 63 -67 63 -97 0 -31 54 -101 99 -129 l33
-21 -7 25 c-4 13 -14 31 -21 40 -8 8 -14 32 -14 51 0 30 -7 43 -43 75 -24 21
-49 53 -56 71 -7 17 -18 32 -23 32 -7 0 -7 18 -3 48 4 26 9 56 10 66 2 24 25
34 25 12 0 -9 6 -16 13 -16 8 0 35 -20 60 -44 33 -31 47 -52 47 -70 l0 -27 30
23 c17 12 30 27 30 32 0 6 15 18 33 27 39 19 44 43 22 108 -11 34 -33 66 -71
104 -49 49 -54 57 -45 80 5 14 20 34 32 46 27 25 69 24 69 -1 0 -10 7 -18 15
-18 8 0 12 6 9 13 -3 9 9 18 36 26 22 6 40 16 40 21 0 4 18 11 40 15 31 5 48
17 80 55 22 26 40 56 40 66 1 11 7 30 15 44 19 34 19 76 -1 84 -13 5 -14 9 -4
20 9 12 5 21 -21 48 -17 18 -38 43 -46 56 -9 12 -22 22 -29 22 -8 0 -14 7 -14
15 0 23 30 65 46 65 29 0 12 18 -22 25 -26 4 -39 2 -45 -7 -7 -10 -11 -10 -21
4 -7 9 -22 18 -32 20 -22 3 -34 28 -14 28 7 0 22 14 33 30 22 33 57 41 54 13
-5 -51 -1 -55 31 -32 25 19 33 21 55 11 20 -9 24 -17 19 -36 -5 -22 -2 -25 28
-28 21 -2 33 -8 33 -18 0 -8 6 -21 13 -28 6 -7 12 -24 12 -37 0 -32 9 -36 48
-20 46 20 41 46 -24 110 -55 55 -56 57 -37 77 10 11 17 29 15 40 -5 27 17 50
39 43 37 -12 57 4 73 60 23 76 20 126 -9 181 -14 26 -22 50 -19 53 7 7 83 -80
84 -95 0 -7 7 -14 15 -18 8 -3 15 -11 15 -18 1 -18 39 -66 40 -49 0 8 6 11 18
7 14 -5 14 -4 -2 9 -11 8 -23 15 -28 15 -10 0 -41 60 -31 61 5 1 13 1 18 0 6
-1 -28 36 -75 83 -78 79 -111 108 -80 71 7 -8 9 -15 5 -15 -4 0 -2 -7 5 -15 9
-11 9 -15 1 -15 -6 0 -14 6 -17 14 -3 7 -23 22 -45 31 -38 18 -40 18 -53 0
-12 -17 -13 -17 -19 -1 -4 10 -11 15 -16 11 -5 -3 -12 -1 -16 5 -3 5 -15 10
-27 10 -15 0 -18 4 -13 18 4 9 16 40 27 67 11 28 22 52 25 55 9 9 213 8 207
-1 -6 -10 30 -10 66 0 l25 7 -24 6 c-17 5 -22 12 -17 23 3 9 6 23 6 31 0 20
66 19 74 -1 3 -8 14 -15 25 -15 21 0 33 22 25 45 -9 24 9 17 29 -11 15 -20 16
-28 6 -40 -6 -8 -12 -28 -11 -45 0 -17 -5 -32 -13 -35 -27 -11 7 -63 91 -140
62 -56 88 -74 96 -66 8 8 7 16 -3 28 -11 14 -11 18 -1 22 10 3 10 7 2 18 -13
15 -4 38 11 29 5 -4 9 -2 9 2 0 5 -9 14 -20 21 -11 7 -20 17 -20 23 0 5 5 7
10 4 6 -3 10 -2 10 4 0 5 -9 13 -20 16 -11 3 -20 13 -20 21 0 8 -10 14 -24 14
-18 0 -27 8 -35 31 -6 18 -11 33 -11 34 0 2 11 5 25 7 14 3 25 1 25 -5 0 -7 4
-7 12 1 15 15 65 16 74 1 4 -7 12 0 19 19 7 16 23 33 34 37 12 3 21 10 21 14
0 4 14 6 30 3 17 -2 30 -2 30 1 0 8 -85 47 -103 47 -9 0 -17 5 -17 11 0 5 4 8
9 4 19 -11 23 18 5 33 -18 14 -18 14 1 7 11 -4 38 -11 60 -16 37 -7 73 -16
133 -34 23 -8 32 10 10 17 -7 3 -13 13 -13 23 0 14 -13 22 -55 33 -37 9 -56
10 -58 3 -2 -7 -11 -6 -25 3 -23 14 -196 62 -277 77 -25 4 -72 8 -105 8 -50 0
-56 -2 -37 -11 12 -6 22 -15 22 -19 0 -10 -29 -1 -49 15 -9 7 -50 10 -108 7
-80 -3 -97 0 -114 15 -16 14 -39 19 -102 20 -93 2 -165 13 -173 25 -8 13 -68
11 -83 -3 -10 -11 -11 -9 -5 6 6 15 4 18 -7 14 -8 -3 -39 -2 -69 2 -63 9 -79
4 -53 -15 16 -12 7 -14 -63 -12 -65 2 -80 -1 -76 -12 7 -17 -34 -6 -63 18 -38
31 -68 43 -123 48 -43 5 -53 3 -47 -6 6 -10 -4 -12 -46 -7 -148 16 -244 22
-249 16 -8 -11 -40 -20 -40 -11 0 4 16 16 35 27 19 10 35 21 35 25 0 19 -39
33 -96 35 -35 2 -68 5 -74 9 -20 13 -107 17 -114 6z m-296 -238 c0 -10 -4 -14
-8 -8 -4 6 -11 13 -16 18 -5 4 -2 7 7 7 10 0 17 -8 17 -17z m-1124 -308 c10
-26 0 -37 -20 -22 -11 8 -16 19 -12 25 10 16 26 15 32 -3z m414 -355 c-8 -5
-16 -14 -16 -20 -1 -5 -2 -15 -3 -21 -1 -14 -73 -7 -78 8 -4 10 65 41 97 42
13 1 13 0 0 -9z m-180 -20 c0 -5 12 -10 28 -11 23 0 24 -2 8 -8 -18 -7 -18 -8
-3 -14 9 -3 17 -13 17 -22 0 -19 5 -19 35 1 16 11 34 14 51 10 38 -10 144 -84
144 -101 0 -29 -86 -36 -144 -11 -48 20 -86 20 -112 1 -22 -17 -67 -19 -95 -5
-20 11 -26 54 -9 65 6 3 10 15 10 26 0 10 3 19 8 19 4 0 13 14 20 30 13 28 42
42 42 20z m-480 -35 c0 -8 9 -15 20 -15 11 0 20 -6 20 -13 0 -14 27 -33 83
-59 30 -14 37 -22 37 -46 0 -16 9 -41 20 -55 11 -14 20 -30 20 -37 0 -6 5 -8
10 -5 6 3 10 -4 10 -18 0 -15 8 -28 24 -35 22 -10 25 -8 31 15 5 21 10 24 32
18 23 -5 22 -2 -16 35 -42 41 -53 67 -26 56 8 -3 15 -1 15 4 0 5 19 8 43 6 23
-1 49 2 58 7 10 7 22 6 35 -1 17 -10 16 -11 -11 -12 -35 0 -49 -8 -58 -32 -7
-20 9 -25 16 -5 3 6 6 2 6 -11 1 -13 -3 -21 -8 -17 -5 3 -12 1 -16 -5 -3 -5 3
-10 15 -10 12 0 18 -4 15 -10 -3 -5 -1 -10 4 -10 6 0 11 -7 11 -15 0 -9 9 -15
23 -15 13 0 28 -5 35 -12 9 -9 15 -8 26 7 13 18 14 18 41 1 22 -15 32 -16 52
-7 50 23 61 16 58 -36 -2 -27 -10 -66 -18 -88 l-14 -40 -59 0 c-32 0 -64 -3
-71 -8 -13 -8 -95 8 -125 24 -10 5 -27 9 -38 9 -11 0 -20 4 -20 10 0 16 -46
23 -69 10 -15 -8 -21 -20 -21 -45 0 -39 -20 -46 -54 -20 -11 8 -30 15 -43 15
-13 0 -26 8 -30 18 -9 24 -23 32 -60 32 -20 0 -41 8 -53 20 -11 11 -25 20 -31
20 -8 0 -7 5 2 16 7 8 13 33 13 54 l1 40 -108 -5 c-119 -5 -175 -16 -225 -46
-35 -20 -95 -20 -116 1 -15 15 10 30 50 30 17 0 37 7 44 15 7 8 19 15 26 15 8
0 14 7 14 15 0 8 5 15 11 15 6 0 8 9 4 21 -8 25 17 56 63 76 18 7 32 19 31 26
-4 33 2 38 39 36 26 -2 51 4 75 19 21 12 43 19 51 16 18 -7 28 -32 19 -46 -3
-6 -2 -8 4 -5 6 4 21 -5 33 -18 13 -14 28 -25 33 -25 5 0 26 -12 48 -27 61
-44 51 -83 -22 -83 -48 0 -39 -13 34 -48 4 -2 7 6 7 17 0 12 5 21 11 21 20 0
48 44 37 57 -18 22 2 36 24 16 16 -14 20 -14 16 -3 -2 8 -19 25 -36 36 -17 12
-28 24 -25 28 4 3 -6 6 -20 6 -19 0 -31 8 -41 29 -9 16 -22 31 -31 34 -15 6
-21 38 -8 50 11 12 23 8 23 -8z m603 -569 c11 4 27 -11 51 -48 20 -29 36 -58
36 -64 0 -7 11 -19 24 -28 18 -11 27 -29 32 -61 3 -27 14 -51 24 -58 24 -17
92 -118 85 -126 -3 -3 -10 1 -15 9 -5 8 -12 11 -16 8 -3 -4 5 -21 19 -37 23
-28 45 -87 35 -97 -7 -6 -93 79 -90 88 1 4 -3 7 -9 6 -6 -2 -16 11 -21 27 -6
17 -21 41 -33 55 -19 20 -32 63 -35 112 0 4 -12 18 -27 32 -15 14 -24 28 -21
31 3 3 -16 47 -43 98 -27 51 -40 82 -30 69 11 -13 26 -20 34 -16z"/>
<path d="M5200 3385 c-6 -8 -9 -23 -5 -35 3 -11 3 -20 -2 -20 -4 0 -8 -13 -8
-30 0 -22 5 -30 17 -30 15 0 17 10 16 65 0 36 -2 65 -3 65 -2 0 -8 -7 -15 -15z"/>
<path d="M5030 3290 c0 -5 5 -10 10 -10 6 0 10 5 10 10 0 6 -4 10 -10 10 -5 0
-10 -4 -10 -10z"/>
<path d="M5614 3145 c11 -8 31 -15 45 -15 34 0 15 16 -29 24 -32 5 -34 5 -16
-9z"/>
<path d="M5871 3149 c-16 -6 -21 -13 -14 -20 12 -12 40 -2 47 17 6 16 1 17
-33 3z"/>
<path d="M3007 4413 c-13 -12 -7 -23 13 -23 11 0 20 -4 20 -10 0 -15 38 -12
65 6 14 9 25 19 25 23 0 11 -47 12 -75 1 -16 -6 -25 -6 -25 0 0 11 -13 13 -23
3z"/>
<path d="M6255 4410 c-33 -4 -72 -13 -86 -19 -25 -12 -66 -68 -61 -83 1 -5 -2
-8 -8 -8 -6 0 -10 -4 -10 -10 0 -5 8 -10 18 -10 10 0 22 -4 28 -9 13 -12 84
-21 84 -10 0 5 -6 9 -13 9 -8 0 -21 8 -30 18 -16 17 -15 20 11 44 41 38 73 55
117 63 22 3 47 10 55 15 18 11 -12 11 -105 0z"/>
<path d="M7695 4390 c3 -5 8 -10 11 -10 2 0 4 5 4 10 0 6 -5 10 -11 10 -5 0
-7 -4 -4 -10z"/>
<path d="M7730 4391 c0 -5 15 -14 33 -19 38 -10 127 -4 127 9 0 5 -1 9 -2 10
-2 0 -38 3 -80 5 -51 4 -78 2 -78 -5z"/>
<path d="M3130 4380 c-11 -7 -7 -10 18 -10 17 0 32 5 32 10 0 13 -30 13 -50 0z"/>
<path d="M4665 4380 c-3 -5 1 -10 10 -10 9 0 13 5 10 10 -3 6 -8 10 -10 10 -2
0 -7 -4 -10 -10z"/>
<path d="M7925 4383 c14 -14 83 -24 90 -12 4 5 -3 9 -13 9 -11 0 -35 3 -53 6
-23 5 -31 3 -24 -3z"/>
<path d="M2530 4354 c0 -5 -22 -19 -50 -32 -35 -16 -48 -27 -43 -38 7 -18 65
-12 114 13 17 8 33 13 35 10 3 -3 -5 -9 -18 -13 -21 -8 -20 -9 12 -15 l35 -6
-38 -2 c-21 0 -36 -5 -32 -10 3 -6 28 -7 55 -4 34 4 50 2 50 -6 0 -7 -22 -11
-60 -11 -33 0 -60 -4 -60 -10 0 -5 11 -10 25 -10 17 0 23 -4 19 -15 -5 -12 3
-13 45 -8 47 5 51 4 45 -13 -12 -33 -16 -36 -28 -18 -8 11 -21 15 -34 12 -11
-3 -36 -2 -54 2 -18 4 -25 8 -15 9 9 1 17 5 17 10 0 10 -74 23 -137 25 -33 0
-39 3 -31 13 13 16 4 17 -23 1 -14 -9 -23 -9 -25 -3 -4 10 -172 -4 -237 -20
-15 -4 -33 -3 -40 4 -8 6 -61 16 -118 22 -57 6 -122 17 -143 24 -23 8 -46 10
-55 6 -9 -5 -46 -11 -83 -14 -37 -3 -85 -15 -107 -27 -22 -11 -54 -20 -70 -20
-51 0 -60 -8 -50 -42 10 -37 5 -48 -22 -48 -11 0 -17 5 -14 10 8 13 -12 13
-75 -1 -40 -9 -50 -15 -50 -31 0 -19 4 -20 62 -15 l61 5 -28 -18 c-15 -10 -46
-21 -69 -24 -59 -9 -156 -49 -156 -63 0 -7 -4 -13 -10 -13 -5 0 -7 -7 -3 -16
3 -9 13 -14 24 -11 26 7 24 -7 -4 -26 -21 -15 -19 -15 36 -11 114 8 32 -34
-212 -107 -78 -24 -86 -38 -10 -18 24 6 59 11 77 10 18 -1 31 3 28 8 -3 5 4
11 17 14 39 10 125 43 139 54 14 11 100 34 106 28 2 -1 -13 -8 -32 -15 -48
-15 -60 -35 -17 -27 39 8 87 43 69 50 -19 7 -1 21 55 45 55 24 60 22 15 -7
-36 -22 -26 -28 19 -10 15 6 41 11 56 11 16 0 31 6 34 14 7 18 33 18 59 0 11
-8 38 -16 59 -18 44 -3 86 -47 68 -70 -15 -20 -14 -88 2 -88 7 0 15 6 18 13 3
8 7 6 12 -7 4 -10 4 -21 -2 -25 -12 -7 -11 -81 2 -100 6 -11 4 -13 -9 -8 -31
12 -35 -2 -13 -42 21 -38 21 -40 4 -77 -10 -20 -38 -63 -63 -94 -24 -31 -44
-61 -44 -67 0 -6 -9 -22 -20 -35 -16 -22 -19 -36 -14 -99 2 -41 6 -85 8 -99 3
-14 5 -29 5 -35 1 -6 5 -5 9 2 5 8 13 6 29 -6 15 -13 23 -34 28 -77 4 -32 14
-68 21 -79 18 -26 18 -45 -1 -45 -13 0 -14 -4 -5 -20 6 -11 17 -20 25 -20 17
0 28 -31 19 -54 -4 -10 0 -18 10 -22 9 -4 23 -18 31 -33 12 -24 14 -24 21 -7
5 12 2 23 -7 30 -8 6 -16 26 -17 44 -1 18 -15 61 -30 95 -33 73 -31 120 4 107
17 -7 21 -16 19 -47 -1 -36 5 -48 55 -110 5 -7 7 -19 4 -27 -3 -9 -2 -16 3
-16 5 0 24 -21 42 -46 32 -46 42 -93 27 -125 -5 -12 2 -26 26 -48 18 -17 39
-31 47 -31 7 0 26 -11 43 -25 16 -14 37 -25 46 -25 9 0 26 -7 36 -15 23 -17
62 -20 71 -5 12 19 34 10 70 -27 36 -37 90 -63 133 -63 12 0 21 -3 20 -7 -2
-14 15 -48 29 -56 7 -4 13 -18 13 -30 0 -16 9 -26 31 -34 17 -7 28 -17 25 -22
-4 -6 6 -14 21 -17 15 -4 34 -13 41 -21 20 -20 45 -17 40 5 -3 12 2 24 14 31
22 14 38 7 38 -17 0 -10 6 -27 14 -38 18 -26 13 -134 -7 -149 -7 -5 -19 -20
-26 -32 -6 -13 -17 -23 -24 -23 -13 0 -37 -65 -37 -100 0 -11 5 -20 10 -20 15
0 12 -26 -5 -40 -22 -18 -15 -77 11 -91 12 -6 40 -49 63 -95 23 -46 46 -86 51
-89 5 -3 14 -24 20 -46 10 -34 21 -47 83 -87 90 -58 113 -79 122 -117 4 -16 9
-108 11 -202 1 -95 5 -177 9 -183 14 -23 22 -119 14 -169 -6 -40 -5 -60 5 -80
8 -14 17 -56 21 -94 5 -46 12 -67 21 -67 10 0 12 9 7 33 -4 22 -2 29 5 22 5
-5 13 -30 17 -55 4 -33 3 -41 -4 -30 -12 17 -12 19 -16 -42 -3 -38 -1 -46 10
-41 18 6 32 -26 16 -36 -9 -6 -9 -14 0 -34 7 -15 16 -27 21 -27 4 0 8 -8 8
-17 0 -15 2 -15 9 -4 7 11 10 7 13 -15 2 -18 12 -33 26 -40 13 -6 24 -15 24
-20 2 -11 33 -36 68 -54 35 -19 130 -40 130 -29 0 5 3 8 8 8 43 -7 57 15 14
24 -15 3 -40 17 -54 31 -15 13 -35 26 -45 29 -16 4 -16 5 2 6 18 1 18 2 -3 17
-22 15 -31 54 -11 54 6 0 8 8 4 19 -3 10 1 24 10 31 21 18 19 50 -3 50 -11 0
-27 9 -38 21 -19 21 -18 21 5 40 16 13 22 26 18 39 -4 14 1 25 14 33 26 16 24
27 -6 27 -14 0 -25 4 -25 9 0 5 -3 17 -7 26 -5 15 -3 16 16 5 13 -6 29 -9 36
-6 14 5 15 42 2 63 -4 6 7 10 31 10 49 0 80 17 93 51 8 21 7 29 -5 38 -9 6
-16 18 -16 26 0 8 -10 20 -22 27 -21 11 -21 11 7 5 95 -18 92 -19 113 22 11
22 22 56 26 77 4 20 11 37 16 37 13 0 12 -7 0 -31 -6 -10 -9 -19 -6 -19 3 0
19 30 36 66 26 53 30 72 25 104 -6 35 -3 43 23 70 17 16 37 30 45 30 8 0 20 7
27 15 7 8 26 15 42 15 65 0 99 80 103 246 2 68 6 85 24 103 11 11 21 26 21 32
0 6 13 27 30 45 37 42 45 73 34 127 -7 34 -14 43 -34 45 -14 2 -36 14 -50 26
-54 48 -78 56 -172 58 -16 1 -28 8 -31 18 -6 24 -90 52 -107 37 -10 -9 -12 -8
-8 4 4 10 -4 19 -23 28 -22 10 -28 18 -24 32 4 10 -1 29 -9 41 -9 12 -16 29
-16 38 -1 41 -76 90 -139 90 -35 0 -44 5 -71 39 -18 22 -40 41 -51 44 -10 3
-19 12 -19 20 0 8 -11 18 -25 21 -25 6 -35 26 -13 26 6 0 9 3 5 6 -3 3 -29 0
-56 -7 -38 -10 -54 -10 -63 -1 -6 6 -24 8 -39 5 -22 -4 -29 -2 -29 11 0 9 -8
16 -20 16 -11 0 -20 5 -20 10 0 6 -9 1 -20 -10 -24 -24 -40 -26 -40 -5 0 8 5
15 10 15 6 0 10 5 10 10 0 6 -7 10 -15 10 -8 0 -15 -4 -15 -10 0 -5 -20 -15
-45 -21 -39 -10 -70 -37 -68 -59 0 -3 -8 -15 -18 -28 -14 -18 -19 -20 -26 -9
-17 30 -51 39 -82 22 -35 -18 -48 -13 -78 24 -20 25 -21 34 -13 77 4 27 11 58
15 70 12 38 -18 55 -91 52 -35 -2 -64 -2 -64 0 0 1 4 10 9 20 5 9 19 40 31 67
12 28 26 58 31 67 15 28 11 38 -15 38 -41 0 -76 -18 -86 -46 -16 -41 -38 -56
-83 -59 -54 -3 -87 10 -87 33 0 10 -5 23 -11 29 -16 16 -13 104 5 147 9 21 16
48 16 60 0 58 153 131 197 94 7 -6 19 -8 27 -5 7 3 19 0 26 -6 9 -9 11 -9 10
3 -5 36 0 40 50 40 30 0 50 -4 50 -11 0 -7 10 -9 27 -5 32 9 43 -5 43 -57 0
-36 23 -107 34 -107 3 0 12 13 21 30 13 24 14 41 6 91 -6 34 -6 70 -2 83 8 18
144 121 162 121 11 0 37 32 44 55 16 53 91 136 131 146 13 3 21 10 18 15 -3 5
-2 9 3 8 33 -6 50 4 58 34 9 28 19 36 90 64 92 37 125 42 76 12 -24 -14 -31
-23 -23 -31 8 -8 17 -7 34 4 13 8 39 20 58 27 68 23 90 36 90 53 0 24 -17 23
-32 -2 -15 -24 -60 -27 -79 -4 -10 12 -10 20 -1 35 11 17 9 19 -10 20 -18 1
-16 3 7 8 18 4 31 14 33 25 4 16 0 18 -29 12 -19 -3 -61 -19 -94 -36 -54 -27
-57 -28 -31 -6 16 14 41 30 55 36 14 7 38 19 53 26 16 9 58 14 109 14 55 0 88
4 98 14 9 7 30 16 46 20 l30 7 -35 -37 c-19 -21 -45 -47 -57 -59 -13 -12 -23
-25 -23 -29 0 -3 24 -6 53 -6 37 0 48 -3 37 -10 -9 -6 -10 -10 -3 -10 6 0 15
5 18 10 3 6 11 10 16 10 6 0 8 -4 5 -9 -9 -14 20 -21 33 -8 14 14 15 61 1 52
-5 -3 -10 -1 -10 4 0 6 6 11 13 11 8 0 7 4 -3 10 -8 5 -23 7 -34 4 -12 -4 -16
-2 -12 5 4 6 2 11 -5 11 -7 0 -2 11 11 25 15 16 19 25 10 25 -10 0 -9 5 3 18
23 25 21 38 -5 56 -19 14 -20 16 -5 16 10 0 15 5 12 10 -3 6 -19 10 -35 10
-23 0 -30 5 -35 30 -4 16 -4 34 0 39 3 6 0 31 -6 56 -12 46 -12 46 -33 27 -46
-40 -76 -54 -92 -41 -16 13 -19 45 -4 54 17 10 11 25 -10 25 -11 0 -20 6 -20
14 0 18 -19 23 -83 25 -47 1 -49 0 -67 -41 -10 -23 -28 -49 -40 -58 -20 -15
-21 -19 -9 -38 11 -18 10 -24 -6 -42 -24 -27 -68 -50 -93 -50 -15 0 -21 -9
-25 -42 -4 -27 -14 -49 -27 -60 -29 -23 -34 -23 -49 6 -11 19 -10 28 3 54 22
42 20 52 -9 52 -27 0 -58 15 -87 43 -10 9 -32 17 -48 17 -27 0 -30 2 -24 25 5
19 2 25 -10 25 -9 0 -16 5 -16 10 0 16 121 101 153 107 16 3 31 12 34 19 3 7
21 16 41 19 47 8 92 25 92 35 0 4 7 10 15 14 27 10 16 -12 -15 -31 -16 -9 -30
-21 -30 -26 0 -4 4 -6 9 -3 5 4 11 0 14 -6 3 -10 12 -9 35 5 25 14 36 16 52 7
11 -6 25 -8 31 -5 10 7 -12 30 -55 61 -11 7 -17 17 -13 20 4 4 16 -1 27 -11
11 -10 20 -13 20 -7 0 6 19 17 43 25 27 9 42 20 41 30 -1 9 7 19 17 22 38 12
13 35 -37 35 -15 0 -24 -6 -24 -15 0 -9 -12 -18 -29 -21 -17 -4 -32 -12 -35
-20 -7 -19 -26 -18 -26 1 0 8 5 15 10 15 6 0 10 5 10 11 0 7 -10 9 -25 7 -20
-4 -23 -3 -14 8 9 11 7 14 -7 14 -15 0 -16 2 -5 9 8 5 12 18 8 31 -6 22 9 33
63 44 14 3 34 12 45 20 19 14 17 15 -32 16 -42 0 -57 -5 -73 -22 -48 -52 -53
-57 -61 -53 -4 3 -16 -6 -27 -20 -11 -14 -30 -25 -43 -25 -27 -1 -62 -23 -52
-33 3 -4 1 -7 -6 -7 -7 0 -10 -4 -7 -8 2 -4 -12 -7 -32 -6 -20 1 -49 2 -63 3
-14 0 -37 11 -50 22 l-24 21 35 -7 c19 -4 45 -9 57 -12 15 -3 25 0 29 11 3 9
15 16 25 16 25 0 24 17 -1 25 -19 6 -19 8 -3 31 14 22 14 27 2 35 -23 14 -36
10 -59 -18 -16 -22 -20 -24 -16 -8 5 18 1 20 -36 21 -24 1 -46 8 -53 17 -12
16 -165 36 -165 21z m470 -134 c0 -5 -5 -10 -11 -10 -5 0 -7 -4 -4 -10 3 -5
-3 -10 -13 -10 -11 0 -25 -7 -32 -15 -18 -22 -32 -18 -20 5 6 11 20 20 31 20
11 0 18 4 15 9 -4 5 0 12 6 14 21 9 28 8 28 -3z m-293 -36 c-3 -3 -12 -4 -19
-1 -8 3 -5 6 6 6 11 1 17 -2 13 -5z m-1217 -204 c-8 -5 -19 -10 -25 -10 -5 0
-3 5 5 10 8 5 20 10 25 10 6 0 3 -5 -5 -10z m-155 -50 c-3 -5 -14 -10 -23 -10
-15 0 -15 2 -2 10 20 13 33 13 25 0z m1532 -697 c-3 -10 -5 -4 -5 12 0 17 2
24 5 18 2 -7 2 -21 0 -30z m-427 -878 c10 -12 10 -15 -4 -15 -9 0 -16 7 -16
15 0 8 2 15 4 15 2 0 9 -7 16 -15z"/>
<path d="M7278 4353 c7 -3 16 -2 19 1 4 3 -2 6 -13 5 -11 0 -14 -3 -6 -6z"/>
<path d="M7845 4350 c3 -5 8 -10 11 -10 2 0 4 5 4 10 0 6 -5 10 -11 10 -5 0
-7 -4 -4 -10z"/>
<path d="M2988 4342 c-10 -2 -18 -10 -18 -18 0 -10 -7 -13 -25 -8 -15 4 -25 2
-25 -5 0 -6 7 -11 15 -11 8 0 15 -7 15 -15 0 -12 7 -14 28 -9 33 8 76 34 68
41 -3 3 2 12 12 19 15 12 13 13 -18 12 -19 -1 -43 -4 -52 -6z"/>
<path d="M7875 4340 c-4 -6 7 -10 27 -9 27 0 30 2 13 9 -27 12 -33 12 -40 0z"/>
<path d="M2865 4330 c3 -5 12 -10 20 -10 8 0 17 5 20 10 4 6 -5 10 -20 10 -15
0 -24 -4 -20 -10z"/>
<path d="M3196 4315 c-42 -22 -61 -60 -34 -70 10 -3 100 -11 172 -15 6 0 1 -7
-10 -16 -18 -14 -18 -15 4 -4 12 6 22 17 22 26 0 12 4 12 20 4 23 -13 27 -35
4 -26 -9 3 -12 2 -9 -5 4 -6 14 -8 22 -5 18 7 43 -11 43 -31 0 -8 -16 -21 -35
-29 -20 -8 -33 -19 -30 -24 3 -6 -6 -10 -22 -11 -15 -1 -35 -2 -43 -3 -8 -2
-23 -3 -32 -4 -10 -1 -18 -9 -18 -17 0 -12 9 -13 44 -9 52 8 76 -7 76 -47 0
-6 7 -9 15 -6 8 4 17 2 19 -2 3 -5 18 -11 33 -14 16 -3 37 -9 48 -12 11 -4 16
-3 10 2 -5 4 -21 21 -35 37 l-25 29 36 -21 c43 -26 49 -27 49 -6 0 8 5 12 10
9 17 -10 11 37 -6 49 -9 7 -12 18 -8 29 8 23 25 22 31 -2 5 -21 33 -37 42 -24
3 4 18 15 33 23 15 8 28 19 29 25 1 5 -21 21 -47 34 -34 17 -43 26 -31 29 28
6 20 39 -15 56 -17 9 -37 16 -45 16 -15 0 -54 36 -50 48 1 4 -15 8 -35 10 -39
3 -47 -5 -26 -26 9 -9 9 -12 -1 -12 -7 0 -15 9 -18 19 -7 29 -129 27 -187 -4z
m74 -9 c-14 -12 -27 -18 -29 -13 -4 11 26 37 43 37 6 0 -1 -11 -14 -24z"/>
<path d="M8760 4270 c0 -5 13 -10 29 -10 17 0 33 5 36 10 4 6 -8 10 -29 10
-20 0 -36 -4 -36 -10z"/>
<path d="M4828 4263 c7 -3 16 -2 19 1 4 3 -2 6 -13 5 -11 0 -14 -3 -6 -6z"/>
<path d="M6046 4223 c-3 -3 -3 -10 0 -14 7 -12 34 -11 34 0 0 11 -26 22 -34
14z"/>
<path d="M3368 4192 c-34 -4 -60 -32 -30 -32 23 0 77 26 65 32 -4 2 -20 2 -35
0z"/>
<path d="M4485 4128 c-19 -12 -19 -12 5 -19 24 -7 24 -7 3 -8 -13 -1 -23 -5
-23 -11 0 -5 8 -6 17 -3 12 5 15 2 10 -9 -9 -25 71 -33 138 -14 62 19 71 27
53 56 -11 18 -19 20 -58 14 -25 -4 -56 -11 -69 -16 -19 -7 -27 -5 -33 7 -11
18 -16 18 -43 3z"/>
<path d="M3093 4032 c-13 -2 -23 -8 -23 -13 0 -9 37 -3 49 7 8 7 -4 10 -26 6z"/>
<path d="M3147 4013 c-12 -12 -7 -22 8 -17 8 4 15 10 15 15 0 11 -14 12 -23 2z"/>
<path d="M4830 4010 c0 -5 5 -10 10 -10 6 0 10 5 10 10 0 6 -4 10 -10 10 -5 0
-10 -4 -10 -10z"/>
<path d="M4955 3961 c-3 -5 -1 -12 5 -16 5 -3 10 1 10 9 0 18 -6 21 -15 7z"/>
<path d="M1070 3950 c-13 -8 -13 -10 2 -10 9 0 20 5 23 10 8 13 -5 13 -25 0z"/>
<path d="M4915 3920 c-3 -5 -1 -10 4 -10 6 0 11 5 11 10 0 6 -2 10 -4 10 -3 0
-8 -4 -11 -10z"/>
<path d="M8885 3910 c3 -5 8 -10 11 -10 2 0 4 5 4 10 0 6 -5 10 -11 10 -5 0
-7 -4 -4 -10z"/>
<path d="M4816 3884 c-9 -24 -7 -28 9 -14 17 14 20 30 6 30 -5 0 -12 -7 -15
-16z"/>
<path d="M4855 3882 c-36 -30 -30 -80 9 -73 5 1 6 -5 2 -14 -5 -13 -1 -15 17
-9 12 3 19 3 15 -1 -4 -5 -3 -14 3 -21 14 -17 3 -34 -24 -35 -14 0 -17 -3 -8
-6 11 -4 8 -10 -10 -24 l-24 -19 40 -1 c22 -1 31 -4 20 -6 -22 -6 -67 -34 -62
-39 2 -2 19 1 38 6 28 7 71 14 133 19 4 1 6 8 2 16 -3 8 -1 15 4 15 6 0 10 7
10 15 0 8 -9 15 -20 15 -13 0 -17 5 -14 14 3 8 -3 23 -13 33 -11 11 -22 27
-26 36 -3 9 -14 17 -23 17 -15 0 -14 4 6 25 l23 25 -32 0 c-29 0 -32 2 -21 15
10 12 9 15 -6 15 -11 -1 -28 -8 -39 -18z"/>
<path d="M5430 3865 c0 -8 2 -15 4 -15 2 0 6 7 10 15 3 8 1 15 -4 15 -6 0 -10
-7 -10 -15z"/>
<path d="M3040 3835 c-7 -9 -11 -18 -8 -20 7 -8 38 5 38 15 0 17 -18 19 -30 5z"/>
<path d="M4774 3785 c-4 -8 -14 -15 -24 -15 -26 0 -36 -21 -16 -32 15 -8 14
-11 -6 -28 -21 -17 -21 -19 -6 -25 20 -8 89 12 100 29 4 6 5 18 2 27 -2 10 2
19 12 23 13 5 14 9 4 21 -16 19 -59 19 -66 0z"/>
<path d="M8365 3790 c3 -5 8 -10 11 -10 2 0 4 5 4 10 0 6 -5 10 -11 10 -5 0
-7 -4 -4 -10z"/>
<path d="M868 3763 c7 -3 16 -2 19 1 4 3 -2 6 -13 5 -11 0 -14 -3 -6 -6z"/>
<path d="M793 3749 c-18 -5 -34 -13 -37 -18 -7 -11 76 7 89 20 11 11 -8 11
-52 -2z"/>
<path d="M1666 3745 c-3 -8 -2 -23 2 -34 6 -15 9 -13 23 15 15 32 15 34 -1 34
-10 0 -20 -7 -24 -15z"/>
<path d="M2938 3723 c7 -3 16 -2 19 1 4 3 -2 6 -13 5 -11 0 -14 -3 -6 -6z"/>
<path d="M9640 3700 c0 -5 5 -10 10 -10 6 0 10 5 10 10 0 6 -4 10 -10 10 -5 0
-10 -4 -10 -10z"/>
<path d="M9585 3690 c-18 -8 -17 -9 8 -9 15 -1 27 4 27 9 0 12 -8 12 -35 0z"/>
<path d="M8940 3639 c0 -5 5 -7 10 -4 6 3 10 8 10 11 0 2 -4 4 -10 4 -5 0 -10
-5 -10 -11z"/>
<path d="M3334 3615 c11 -8 27 -15 35 -15 13 1 12 4 -3 15 -11 8 -27 15 -35
15 -13 -1 -12 -4 3 -15z"/>
<path d="M3290 3520 c0 -13 33 -21 42 -12 6 6 -1 11 -16 14 -14 3 -26 2 -26
-2z"/>
<path d="M8864 3472 c-39 -41 -58 -43 -110 -17 -27 14 -50 25 -51 25 -1 0 6
-14 15 -31 13 -24 14 -33 5 -36 -7 -3 -13 -14 -13 -25 0 -15 4 -18 18 -13 9 5
24 8 32 8 8 0 23 -3 33 -8 12 -5 17 -3 17 9 0 9 8 16 20 16 14 0 18 5 13 16
-4 10 4 25 22 40 16 13 26 27 23 30 -3 3 -14 -3 -24 -14z"/>
<path d="M8730 3360 c0 -5 3 -10 8 -10 10 0 32 -74 32 -110 0 -34 -26 -52 -41
-29 -6 10 -9 3 -9 -21 0 -35 -1 -36 -33 -32 -24 3 -39 -3 -60 -22 -15 -14 -27
-29 -27 -34 0 -6 -7 -13 -16 -16 -8 -3 -13 -10 -9 -15 3 -6 12 -8 20 -4 11 4
15 -2 15 -21 0 -14 8 -34 19 -45 18 -18 18 -17 18 26 0 32 -5 48 -18 56 -15
10 -13 13 23 29 52 23 68 23 68 -2 0 -11 7 -20 15 -20 14 0 19 12 16 33 -1 4
10 5 24 1 17 -4 25 -2 25 7 0 11 3 11 10 -1 8 -12 10 -10 10 10 1 25 1 25 16
5 15 -19 15 -17 9 25 -4 25 -11 49 -15 54 -5 5 -7 21 -4 35 3 19 -4 35 -26 59
-16 17 -34 32 -40 32 -5 0 -10 5 -10 10 0 6 -4 10 -10 10 -5 0 -10 -4 -10 -10z"/>
<path d="M8740 3240 c0 -5 5 -10 11 -10 5 0 7 5 4 10 -3 6 -8 10 -11 10 -2 0
-4 -4 -4 -10z"/>
<path d="M8662 3102 c-7 -5 -10 -16 -6 -25 7 -18 24 -23 24 -7 0 6 7 10 15 10
8 0 15 7 15 15 0 16 -27 20 -48 7z"/>
<path d="M4546 2931 c-4 -7 -5 -15 -2 -18 9 -9 19 4 14 18 -4 11 -6 11 -12 0z"/>
<path d="M4470 2909 c0 -5 5 -7 10 -4 6 3 10 8 10 11 0 2 -4 4 -10 4 -5 0 -10
-5 -10 -11z"/>
<path d="M2700 2862 c-12 -14 -11 -15 8 -10 14 4 22 1 25 -11 3 -11 5 -10 6 5
1 28 -20 36 -39 16z"/>
<path d="M2746 2807 c3 -10 9 -15 12 -12 3 3 0 11 -7 18 -10 9 -11 8 -5 -6z"/>
<path d="M2697 2803 c-3 -5 -1 -17 4 -28 7 -17 8 -17 8 8 1 27 -4 34 -12 20z"/>
<path d="M8406 2783 c-12 -25 -12 -31 2 -58 l16 -30 7 25 c19 67 2 113 -25 63z"/>
<path d="M2770 2751 c0 -6 4 -13 10 -16 6 -3 7 1 4 9 -7 18 -14 21 -14 7z"/>
<path d="M2523 2728 c-13 -6 -23 -17 -23 -24 0 -10 10 -8 35 7 31 19 36 19 50
5 9 -8 31 -18 50 -22 19 -3 35 -10 35 -15 0 -6 10 -14 23 -19 12 -5 16 -9 10
-9 -7 -1 -13 -5 -13 -11 0 -13 87 -13 95 1 4 6 -2 13 -14 16 -12 3 -21 9 -21
14 0 5 -5 9 -12 9 -6 0 -20 8 -30 17 -42 38 -138 54 -185 31z"/>
<path d="M2540 2690 c0 -5 5 -10 10 -10 6 0 10 5 10 10 0 6 -4 10 -10 10 -5 0
-10 -4 -10 -10z"/>
<path d="M403 2663 c9 -9 20 -13 24 -9 4 4 1 11 -7 16 -25 16 -35 11 -17 -7z"/>
<path d="M2810 2670 c0 -5 5 -10 10 -10 6 0 10 5 10 10 0 6 -4 10 -10 10 -5 0
-10 -4 -10 -10z"/>
<path d="M420 2620 c0 -11 4 -20 9 -20 13 0 32 26 24 33 -13 14 -33 6 -33 -13z"/>
<path d="M8112 2629 c-28 -11 -26 -42 2 -47 20 -4 36 13 36 41 0 19 -5 20 -38
6z"/>
<path d="M2818 2623 c22 -9 13 -33 -13 -33 -14 0 -25 -5 -25 -11 0 -6 12 -9
28 -8 15 2 33 0 40 -5 7 -4 18 -3 25 2 7 5 27 9 44 8 18 0 35 4 37 10 7 17
-60 44 -107 43 -23 0 -36 -3 -29 -6z"/>
<path d="M2660 2580 c0 -12 48 -25 58 -16 8 9 -18 26 -40 26 -10 0 -18 -4 -18
-10z"/>
<path d="M2990 2580 c-12 -8 -9 -10 13 -10 16 0 26 4 22 10 -8 12 -16 12 -35
0z"/>
<path d="M8438 2543 c-5 -56 6 -98 24 -87 8 5 9 2 5 -9 -5 -13 -1 -17 19 -17
14 0 23 -4 20 -8 -3 -5 1 -9 9 -9 8 0 12 5 9 11 -3 6 2 2 10 -9 9 -11 14 -25
12 -31 -3 -7 2 -15 10 -18 8 -3 14 -1 14 5 0 6 5 7 10 4 6 -4 8 -10 5 -15 -3
-5 1 -22 10 -37 13 -23 15 -24 12 -6 -3 12 -1 23 3 25 13 5 -8 48 -24 48 -17
0 -30 30 -13 30 7 1 -3 7 -21 15 -18 8 -39 12 -46 9 -18 -7 -31 43 -16 62 13
14 4 74 -10 74 -5 0 -15 3 -23 6 -12 4 -16 -6 -19 -43z"/>
<path d="M4240 2470 c0 -5 5 -10 11 -10 5 0 7 5 4 10 -3 6 -8 10 -11 10 -2 0
-4 -4 -4 -10z"/>
<path d="M7649 2390 c-7 -35 -4 -48 7 -38 3 4 4 21 2 40 l-3 33 -6 -35z"/>
<path d="M8460 2413 c0 -5 4 -15 10 -23 11 -18 25 -7 17 15 -6 15 -27 21 -27
8z"/>
<path d="M6508 2383 c7 -3 16 -2 19 1 4 3 -2 6 -13 5 -11 0 -14 -3 -6 -6z"/>
<path d="M8510 2335 c0 -18 4 -23 15 -19 11 5 14 0 13 -16 -2 -15 3 -24 14
-25 25 -4 42 20 29 42 -6 10 -11 14 -11 9 0 -6 -9 0 -20 12 -27 29 -40 28 -40
-3z"/>
<path d="M8430 2338 c0 -9 -12 -31 -26 -48 -37 -43 -25 -47 15 -5 26 28 30 38
22 52 -9 16 -10 16 -11 1z"/>
<path d="M3126 2315 c-3 -9 0 -15 9 -15 8 0 15 7 15 15 0 8 -4 15 -9 15 -5 0
-11 -7 -15 -15z"/>
<path d="M8615 2290 c-3 -5 -3 -10 2 -10 4 0 -2 -7 -14 -15 -12 -9 -26 -14
-30 -13 -18 5 -51 -23 -55 -47 -3 -14 -1 -25 3 -25 5 0 9 8 9 19 0 12 9 20 24
23 20 4 25 0 29 -21 3 -14 15 -32 26 -39 20 -11 21 -10 21 20 0 24 3 29 10 18
14 -23 24 13 11 39 -6 11 -11 29 -11 40 0 22 -14 28 -25 11z"/>
<path d="M7280 2244 c0 -61 14 -88 40 -74 26 14 25 44 -1 86 -28 46 -39 43
-39 -12z"/>
<path d="M8880 2209 c0 -5 5 -7 10 -4 6 3 10 8 10 11 0 2 -4 4 -10 4 -5 0 -10
-5 -10 -11z"/>
<path d="M9968 2203 c7 -3 16 -2 19 1 4 3 -2 6 -13 5 -11 0 -14 -3 -6 -6z"/>
<path d="M8346 2165 c-11 -19 -25 -35 -32 -35 -7 0 -22 -13 -34 -30 -12 -16
-32 -33 -46 -36 -15 -4 -24 -13 -24 -26 0 -17 -5 -19 -30 -13 -30 7 -30 6 -30
-38 0 -32 5 -47 16 -51 9 -3 14 -12 11 -19 -2 -6 0 -22 4 -35 7 -18 14 -22 29
-17 11 3 20 2 20 -3 0 -6 16 -10 36 -9 19 1 38 -4 42 -9 4 -6 17 -10 29 -10
17 0 23 8 28 42 3 23 13 48 20 54 8 7 15 21 15 32 0 11 9 22 20 25 23 6 26 19
6 30 -8 4 -17 25 -21 45 -6 30 -4 39 9 44 9 3 13 11 9 17 -4 6 0 8 9 5 9 -4
15 0 15 8 0 7 -9 16 -19 20 -10 3 -23 14 -28 25 -16 28 -33 23 -54 -16z"/>
<path d="M8487 2169 c7 -7 15 -10 18 -7 3 3 -2 9 -12 12 -14 6 -15 5 -6 -5z"/>
<path d="M7080 2150 c0 -5 5 -10 11 -10 5 0 7 5 4 10 -3 6 -8 10 -11 10 -2 0
-4 -4 -4 -10z"/>
<path d="M7740 2141 c0 -9 16 -29 35 -45 19 -16 35 -35 35 -42 0 -6 6 -14 14
-17 7 -3 22 -23 33 -44 11 -21 30 -58 43 -83 33 -64 107 -139 131 -133 13 4
19 14 19 33 0 37 10 61 21 54 5 -3 9 2 9 10 0 9 -4 16 -10 16 -5 0 -10 7 -10
15 0 8 -5 15 -11 15 -6 0 -9 -7 -5 -15 9 -24 -7 -18 -34 13 -14 16 -24 35 -22
43 3 15 -59 79 -77 79 -6 0 -31 21 -57 47 -52 53 -114 82 -114 54z"/>
<path d="M8465 2140 c-3 -5 -1 -10 4 -10 6 0 11 5 11 10 0 6 -2 10 -4 10 -3 0
-8 -4 -11 -10z"/>
<path d="M8661 2104 c0 -11 3 -14 6 -6 3 7 2 16 -1 19 -3 4 -6 -2 -5 -13z"/>
<path d="M7081 2054 c0 -11 3 -14 6 -6 3 7 2 16 -1 19 -3 4 -6 -2 -5 -13z"/>
<path d="M7750 2056 c0 -2 7 -6 15 -10 8 -3 15 -1 15 4 0 6 -7 10 -15 10 -8 0
-15 -2 -15 -4z"/>
<path d="M8706 2041 c-13 -15 -17 -29 -13 -51 4 -17 2 -30 -3 -30 -6 0 -10 -4
-10 -10 0 -5 9 -10 19 -10 15 0 18 5 13 22 -3 13 -1 19 5 15 6 -4 11 4 11 18
0 20 -3 23 -14 14 -19 -16 -18 -4 2 15 8 9 14 21 12 27 -2 6 -12 1 -22 -10z"/>
<path d="M7800 2011 c0 -5 5 -13 10 -16 6 -3 10 -2 10 4 0 5 -4 13 -10 16 -5
3 -10 2 -10 -4z"/>
<path d="M8604 2009 c-4 -8 -26 -10 -60 -6 -65 7 -79 -4 -89 -65 -4 -23 -13
-51 -19 -61 -9 -14 -8 -20 6 -28 13 -7 16 -17 11 -39 -4 -23 -2 -30 11 -30 12
0 16 10 16 44 0 61 14 65 29 8 9 -36 17 -48 31 -49 16 -1 20 5 20 28 0 16 -4
29 -8 29 -4 0 -13 14 -20 32 -10 27 -9 33 5 43 10 7 23 11 30 8 9 -4 11 0 7
11 -6 16 -46 13 -70 -6 -8 -5 -14 -3 -18 8 -15 39 -8 44 57 44 51 0 64 3 75
20 7 11 8 20 3 20 -6 0 -13 -5 -17 -11z m-54 -193 c0 -3 -4 -8 -10 -11 -5 -3
-10 -1 -10 4 0 6 5 11 10 11 6 0 10 -2 10 -4z"/>
<path d="M7085 1991 c-3 -5 -1 -12 5 -16 5 -3 10 1 10 9 0 18 -6 21 -15 7z"/>
<path d="M2237 1963 c-3 -5 -2 -15 2 -22 7 -10 10 -10 16 -1 4 6 3 16 -3 22
-5 5 -12 6 -15 1z"/>
<path d="M8010 1954 c0 -8 5 -12 10 -9 6 3 10 10 10 16 0 5 -4 9 -10 9 -5 0
-10 -7 -10 -16z"/>
<path d="M8775 1960 c3 -5 10 -10 16 -10 5 0 9 5 9 10 0 6 -7 10 -16 10 -8 0
-12 -4 -9 -10z"/>
<path d="M8825 1951 c-3 -6 -16 -11 -28 -11 -20 0 -20 -2 8 -25 17 -13 41 -25
55 -26 20 -1 18 -3 -10 -9 -28 -5 -31 -8 -17 -14 9 -5 17 -15 17 -23 0 -8 5
-11 11 -8 9 6 47 -7 109 -38 35 -18 49 -61 27 -85 -21 -23 -12 -34 19 -22 19
7 28 5 43 -11 13 -15 29 -19 52 -17 19 2 33 8 33 13 -2 17 34 36 59 30 13 -4
31 -22 42 -40 18 -35 23 -38 84 -50 l34 -7 -24 30 c-13 16 -27 27 -32 25 -4
-2 -11 7 -17 21 -5 14 -14 26 -20 26 -5 0 -10 7 -10 15 0 8 7 15 15 15 25 0
17 17 -14 29 -15 7 -33 23 -39 36 -10 23 -37 38 -112 65 -19 7 -54 22 -78 32
l-42 19 -30 -31 c-16 -16 -34 -30 -39 -30 -13 0 -31 33 -31 58 0 11 -8 22 -17
26 -10 3 -23 8 -30 12 -6 3 -14 0 -18 -5z"/>
<path d="M7840 1926 c0 -9 5 -16 10 -16 6 0 10 4 10 9 0 6 -4 13 -10 16 -5 3
-10 -1 -10 -9z"/>
<path d="M8690 1920 c0 -5 5 -10 11 -10 5 0 7 5 4 10 -3 6 -8 10 -11 10 -2 0
-4 -4 -4 -10z"/>
<path d="M8937 1909 c7 -7 15 -10 18 -7 3 3 -2 9 -12 12 -14 6 -15 5 -6 -5z"/>
<path d="M8600 1906 c0 -2 11 -6 25 -8 14 -3 25 -1 25 3 0 5 -11 9 -25 9 -14
0 -25 -2 -25 -4z"/>
<path d="M9255 1900 c-3 -5 1 -10 10 -10 9 0 13 5 10 10 -3 6 -8 10 -10 10 -2
0 -7 -4 -10 -10z"/>
<path d="M7880 1870 c0 -5 5 -10 11 -10 5 0 7 5 4 10 -3 6 -8 10 -11 10 -2 0
-4 -4 -4 -10z"/>
<path d="M8100 1870 c0 -5 7 -10 16 -10 8 0 12 5 9 10 -3 6 -10 10 -16 10 -5
0 -9 -4 -9 -10z"/>
<path d="M8650 1855 c0 -8 7 -15 15 -15 8 0 15 4 15 9 0 5 -7 11 -15 15 -9 3
-15 0 -15 -9z"/>
<path d="M8704 1861 c4 -5 14 -9 24 -9 9 1 28 -2 41 -6 17 -6 22 -5 19 5 -3 8
-23 15 -47 17 -27 2 -41 -1 -37 -7z"/>
<path d="M9422 1838 c7 -15 15 -23 17 -17 2 6 -4 18 -13 27 -15 15 -15 15 -4
-10z"/>
<path d="M9400 1819 c0 -21 -30 -39 -67 -39 -38 -1 -38 -1 -13 -14 21 -12 29
-12 55 1 16 9 33 21 37 27 11 16 10 36 -2 36 -5 0 -10 -5 -10 -11z"/>
<path d="M7038 1793 c7 -3 16 -2 19 1 4 3 -2 6 -13 5 -11 0 -14 -3 -6 -6z"/>
<path d="M8835 1780 c-3 -5 -2 -10 4 -10 5 0 13 5 16 10 3 6 2 10 -4 10 -5 0
-13 -4 -16 -10z"/>
<path d="M8887 1777 c-11 -29 -9 -43 4 -30 6 6 9 19 7 29 -3 18 -4 18 -11 1z"/>
<path d="M9495 1759 c9 -17 19 -28 22 -25 8 8 -17 56 -29 56 -5 0 -1 -14 7
-31z"/>
<path d="M6091 1764 c0 -11 3 -14 6 -6 3 7 2 16 -1 19 -3 4 -6 -2 -5 -13z"/>
<path d="M8048 1759 c-7 -21 18 -40 59 -45 21 -3 49 -9 63 -14 42 -14 160 -23
160 -11 0 5 -19 14 -42 19 -42 9 -42 9 -18 20 24 10 23 11 -15 13 -22 1 -58 1
-79 0 -21 -2 -42 2 -46 9 -11 17 -77 25 -82 9z"/>
<path d="M9540 1742 c0 -12 19 -26 26 -19 2 2 -2 10 -11 17 -9 8 -15 8 -15 2z"/>
<path d="M8795 1722 c-6 -4 -11 -14 -13 -22 -3 -12 0 -12 14 2 18 18 17 33 -1
20z"/>
<path d="M9604 1701 c21 -23 26 -26 26 -11 0 5 -10 15 -22 21 -23 12 -23 12
-4 -10z"/>
<path d="M8638 1703 c7 -3 16 -2 19 1 4 3 -2 6 -13 5 -11 0 -14 -3 -6 -6z"/>
<path d="M9530 1703 c0 -5 11 -13 25 -20 27 -12 33 -5 13 15 -13 13 -38 16
-38 5z"/>
<path d="M8393 1694 c4 -6 -6 -9 -24 -6 -17 3 -29 0 -29 -7 0 -12 19 -16 60
-12 25 2 54 21 33 21 -6 0 -19 3 -29 7 -10 4 -15 2 -11 -3z"/>
<path d="M8558 1690 c-21 -4 -51 -5 -67 -4 -17 2 -33 -1 -37 -8 -9 -13 136 -2
151 13 10 10 8 10 -47 -1z"/>
<path d="M8598 1668 c-21 -11 -38 -26 -38 -34 0 -18 29 -18 36 0 3 8 23 22 45
30 21 9 39 18 39 21 0 12 -48 2 -82 -17z"/>
<path d="M9348 1683 c7 -3 16 -2 19 1 4 3 -2 6 -13 5 -11 0 -14 -3 -6 -6z"/>
<path d="M9650 1685 c0 -15 18 -40 24 -34 3 3 -1 14 -9 25 -8 10 -14 15 -15 9z"/>
<path d="M9340 1662 c0 -5 7 -15 15 -22 8 -7 15 -8 15 -2 0 5 -7 15 -15 22 -8
7 -15 8 -15 2z"/>
<path d="M8430 1655 c0 -9 31 -34 43 -35 4 0 7 7 7 15 0 8 -4 15 -9 15 -5 0
-16 3 -25 6 -9 3 -16 3 -16 -1z"/>
<path d="M9620 1650 c0 -5 7 -10 16 -10 8 0 12 5 9 10 -3 6 -10 10 -16 10 -5
0 -9 -4 -9 -10z"/>
<path d="M9672 1618 c5 -15 28 -23 28 -10 0 5 -7 13 -16 16 -10 4 -14 1 -12
-6z"/>
<path d="M9096 1579 c-9 -19 -21 -60 -26 -91 -10 -66 -34 -108 -61 -108 -11 0
-19 4 -19 8 0 5 -21 24 -47 42 -27 18 -50 35 -52 37 -3 2 1 9 7 15 7 7 12 20
12 30 0 10 7 18 15 18 8 0 15 5 15 10 0 6 0 13 0 17 0 3 -15 7 -33 9 -45 2
-77 13 -77 25 0 5 -7 9 -15 9 -8 0 -15 -4 -15 -10 0 -5 5 -10 10 -10 6 0 10
-4 10 -9 0 -6 -15 -11 -32 -13 -28 -2 -36 -10 -53 -45 -22 -47 -39 -52 -70
-23 l-22 20 -34 -23 c-18 -12 -39 -33 -45 -45 -6 -12 -14 -19 -17 -15 -4 3 -7
-3 -7 -15 0 -12 -4 -22 -10 -22 -5 0 -10 7 -10 16 0 14 -3 14 -15 4 -8 -7 -15
-20 -15 -29 0 -9 -10 -29 -23 -44 -20 -26 -39 -34 -127 -54 -14 -3 -43 -17
-65 -31 -22 -14 -42 -24 -44 -23 -11 6 -31 -78 -26 -109 4 -23 3 -30 -3 -21
-16 23 -21 -2 -10 -59 14 -76 6 -164 -16 -189 -15 -16 -16 -24 -7 -35 20 -23
46 -24 92 -3 24 12 65 21 90 21 28 1 54 8 65 17 30 25 80 40 186 56 56 8 105
-12 113 -46 3 -16 5 -32 4 -37 -4 -25 5 -23 46 10 51 42 59 36 16 -12 -19 -20
-25 -32 -16 -32 8 0 19 8 25 18 10 15 11 14 7 -5 -3 -13 -1 -23 5 -23 5 0 8
-17 6 -37 -3 -35 0 -39 35 -56 34 -16 40 -16 59 -3 20 14 23 14 35 -4 13 -19
14 -19 46 0 17 10 46 21 64 25 18 3 35 14 38 24 3 10 43 57 90 106 94 97 132
157 145 225 5 25 12 54 16 64 5 13 4 17 -3 13 -13 -8 -47 41 -46 65 1 9 -6 18
-16 21 -10 2 -18 10 -19 18 -2 35 -10 50 -35 71 -22 19 -28 35 -32 83 -7 77
-13 95 -31 95 -8 0 -14 8 -14 18 0 9 -6 37 -14 62 l-13 44 -17 -35z"/>
<path d="M9420 1590 c0 -14 15 -19 29 -11 9 6 7 10 -8 14 -12 3 -21 1 -21 -3z"/>
<path d="M8750 1580 c0 -5 6 -10 14 -10 8 0 18 5 21 10 3 6 -3 10 -14 10 -12
0 -21 -4 -21 -10z"/>
<path d="M6370 1540 c0 -11 -7 -20 -15 -20 -8 0 -15 -6 -15 -13 0 -19 -51 -65
-81 -72 -33 -8 -51 -54 -38 -97 7 -25 5 -39 -12 -67 -16 -27 -19 -44 -14 -81
10 -70 22 -81 75 -66 23 6 31 24 73 149 26 78 47 148 47 155 0 6 5 12 11 12
10 0 6 54 -7 103 -7 23 -24 22 -24 -3z"/>
<path d="M9620 1550 c0 -5 5 -10 11 -10 5 0 7 5 4 10 -3 6 -8 10 -11 10 -2 0
-4 -4 -4 -10z"/>
<path d="M8920 1500 c0 -5 5 -10 10 -10 6 0 10 5 10 10 0 6 -4 10 -10 10 -5 0
-10 -4 -10 -10z"/>
<path d="M9801 1459 c0 -8 4 -23 9 -34 8 -17 9 -16 7 7 -3 28 -18 53 -16 27z"/>
<path d="M10140 1415 c-11 -13 -8 -15 14 -15 16 0 26 5 26 15 0 8 -6 15 -14
15 -7 0 -19 -7 -26 -15z"/>
<path d="M708 1403 c7 -3 16 -2 19 1 4 3 -2 6 -13 5 -11 0 -14 -3 -6 -6z"/>
<path d="M10097 1383 c-13 -12 -7 -23 13 -23 11 0 20 7 20 15 0 15 -21 21 -33
8z"/>
<path d="M6600 1289 c0 -5 5 -7 10 -4 6 3 10 8 10 11 0 2 -4 4 -10 4 -5 0 -10
-5 -10 -11z"/>
<path d="M9690 1284 c0 -22 43 -68 58 -63 6 2 -5 22 -24 44 -28 33 -34 37 -34
19z"/>
<path d="M6540 1264 c0 -8 5 -12 10 -9 6 4 8 11 5 16 -9 14 -15 11 -15 -7z"/>
<path d="M9760 765 c0 -56 -19 -90 -61 -109 -11 -4 -11 -7 -1 -12 17 -8 15
-25 -5 -40 -10 -7 -15 -15 -11 -19 8 -8 98 52 98 65 0 6 8 10 18 10 18 0 62
38 62 53 0 4 -9 3 -20 -3 -29 -16 -43 -3 -36 34 l6 31 -16 -25 -15 -25 6 32
c5 23 2 38 -9 49 -15 14 -16 10 -16 -41z"/>
<path d="M8730 770 c0 -13 20 -13 40 0 12 8 9 10 -12 10 -16 0 -28 -4 -28 -10z"/>
<path d="M4595 730 c-3 -5 -1 -10 4 -10 6 0 11 5 11 10 0 6 -2 10 -4 10 -3 0
-8 -4 -11 -10z"/>
<path d="M8970 625 c0 -17 -31 -26 -74 -23 -27 3 -31 -1 -39 -35 -12 -48 1
-64 34 -46 29 15 59 44 82 81 20 31 21 38 7 38 -5 0 -10 -7 -10 -15z"/>
<path d="M9585 579 c-22 -16 -80 -50 -130 -75 -118 -60 -123 -64 -91 -81 31
-16 65 -5 113 38 19 16 48 32 64 36 16 3 29 12 29 19 0 8 6 14 13 14 17 0 96
69 80 70 -6 0 -17 2 -25 4 -7 2 -31 -9 -53 -25z"/>
<path d="M9340 400 c0 -5 5 -10 10 -10 6 0 10 5 10 10 0 6 -4 10 -10 10 -5 0
-10 -4 -10 -10z"/>
<path d="M6740 330 c0 -24 35 -28 43 -6 4 10 1 13 -9 9 -7 -3 -14 0 -14 6 0 6
-4 11 -10 11 -5 0 -10 -9 -10 -20z"/>
<path d="M3445 252 c-8 -22 2 -27 22 -11 11 9 14 10 9 2 -10 -18 19 -17 33 1
9 11 5 15 -23 18 -25 3 -37 -1 -41 -10z"/>
<path d="M4060 165 c33 -19 50 -18 26 0 -11 8 -27 15 -35 15 -10 -1 -7 -6 9
-15z"/>
</g>
</svg>
