<?xml version="1.0" standalone="no"?>
<!DOCTYPE svg PUBLIC "-//W3C//DTD SVG 20010904//EN"
 "http://www.w3.org/TR/2001/REC-SVG-20010904/DTD/svg10.dtd">
<svg version="1.0" xmlns="http://www.w3.org/2000/svg"
 width="1024.000000pt" height="1024.000000pt" viewBox="0 0 1024.000000 1024.000000"
 preserveAspectRatio="xMidYMid meet">
<metadata>
Created by potrace 1.16, written by Peter Selinger 2001-2019
</metadata>
<g transform="translate(0.000000,1024.000000) scale(0.100000,-0.100000)"
fill="#000000" stroke="none">
<path d="M6056 7829 c-15 -22 -18 -22 -48 -10 -70 27 -75 26 -43 -8 25 -27 27
-33 15 -41 -19 -12 -23 -12 -92 2 -60 12 -82 7 -57 -15 9 -6 21 -24 27 -40 11
-26 11 -27 -13 -21 -19 5 -25 2 -25 -9 0 -20 -27 -47 -46 -47 -8 0 -14 7 -14
15 0 8 -28 30 -61 50 -58 34 -62 35 -74 18 -13 -17 -15 -17 -38 5 -27 25 -62
26 -62 3 0 -14 66 -33 163 -47 26 -4 42 -12 42 -20 0 -19 -106 -20 -113 -1 -3
9 -7 9 -21 -2 -14 -12 -19 -12 -34 2 -9 9 -39 17 -67 19 -49 3 -50 4 -65 48
-20 56 -45 64 -59 18 -6 -21 -10 -25 -10 -13 -2 29 -38 85 -56 85 -22 0 -18
-23 6 -38 21 -14 21 -14 -10 -33 -41 -25 -42 -51 -1 -42 23 4 30 2 30 -11 0
-11 -9 -16 -31 -16 -19 0 -37 -7 -45 -17 -12 -17 -14 -17 -44 0 -101 58 -89
55 -110 29 -11 -13 -24 -20 -31 -17 -6 4 -18 -3 -26 -15 -15 -21 -17 -21 -28
-7 -11 16 -74 47 -94 47 -5 0 -11 -9 -14 -19 -3 -14 -16 -20 -53 -23 -57 -5
-94 1 -94 13 0 5 23 9 50 9 58 0 75 19 43 51 -19 20 -104 31 -120 16 -4 -4 -2
-22 5 -39 15 -40 4 -52 -31 -36 -22 11 -27 20 -29 63 -3 50 -23 64 -23 16 0
-20 -13 -31 -74 -62 -75 -39 -91 -41 -91 -11 0 12 -3 13 -12 4 -7 -7 -26 -12
-43 -12 -33 0 -108 -31 -119 -49 -13 -20 5 -33 19 -14 11 15 28 18 112 17 54
0 110 -4 126 -7 48 -13 29 -47 -27 -47 -12 0 -28 -6 -35 -12 -11 -11 -12 -9
-7 8 5 17 1 23 -16 28 -38 10 -88 7 -88 -5 0 -7 -12 -10 -33 -6 -20 3 -40 0
-52 -9 -24 -18 -43 -18 -79 1 -17 9 -33 12 -38 7 -5 -5 -22 -40 -37 -77 -15
-38 -33 -71 -39 -73 -7 -2 -4 15 8 44 14 32 17 51 11 57 -17 17 -48 -19 -60
-68 -6 -24 -20 -50 -32 -58 -18 -13 -23 -13 -46 9 -30 28 -54 20 -72 -23 -7
-16 -28 -35 -50 -46 -35 -16 -40 -16 -69 -1 -18 8 -32 22 -32 30 0 19 -19 18
-27 -2 -4 -11 2 -23 17 -34 l23 -17 -42 -23 c-45 -26 -52 -40 -20 -40 18 0 20
-4 14 -30 -6 -30 -6 -30 34 -30 34 0 41 -3 41 -19 0 -11 -13 -25 -34 -35 -42
-20 -52 -20 -60 -1 -8 22 -35 18 -72 -10 -56 -43 -66 -31 -39 45 18 52 19 50
-2 50 -10 0 -40 -21 -66 -45 -47 -44 -67 -55 -67 -35 0 6 -9 10 -20 10 -11 0
-20 6 -20 13 -1 13 -40 -30 -40 -44 0 -5 11 -9 24 -9 35 0 56 -10 56 -26 0 -9
-12 -14 -35 -14 -27 0 -38 -6 -50 -27 -8 -16 -37 -53 -65 -83 -27 -30 -60 -74
-72 -97 -14 -26 -30 -43 -40 -43 -12 0 -18 -8 -18 -22 0 -13 -21 -67 -47 -121
-44 -92 -67 -115 -69 -71 -2 40 -4 45 -20 42 -8 -2 -26 -30 -40 -63 -29 -72
-30 -85 -5 -54 11 13 22 22 25 19 10 -11 -6 -50 -21 -50 -9 0 -12 -6 -8 -19 3
-10 0 -31 -6 -47 -6 -16 -11 -48 -10 -72 1 -46 -22 -92 -46 -92 -13 0 -14 12
-8 71 6 56 5 70 -5 64 -33 -21 -179 -407 -195 -515 -4 -30 -1 -59 9 -89 25
-70 21 -95 -18 -116 -37 -20 -51 -42 -61 -99 -9 -47 7 -46 25 2 14 36 15 33
22 -98 3 -74 16 -182 27 -240 28 -138 27 -157 -1 -156 -17 1 -24 -5 -26 -22
-3 -17 -8 -21 -23 -17 -17 6 -19 1 -19 -49 0 -58 12 -71 36 -38 12 16 13 16
14 -4 0 -12 -9 -33 -21 -48 -20 -25 -20 -28 -5 -80 9 -30 16 -66 16 -80 0 -15
6 -26 14 -26 9 0 15 -19 18 -63 5 -60 23 -115 35 -103 6 6 -15 196 -27 244
-11 42 5 42 26 0 26 -52 35 -60 50 -47 13 11 34 5 34 -11 0 -5 -16 -18 -35
-30 -32 -20 -35 -26 -35 -67 0 -43 1 -45 25 -39 22 6 25 3 25 -19 0 -14 5 -25
10 -25 6 0 10 -9 10 -19 0 -33 11 -51 31 -51 14 0 19 -7 19 -29 0 -16 4 -41
10 -55 16 -43 -2 -30 -68 49 -34 41 -67 75 -72 75 -6 0 -10 -23 -10 -51 0 -40
5 -58 25 -81 30 -35 34 -64 8 -52 -10 4 -35 8 -55 7 -21 -1 -38 3 -38 8 0 5 5
9 10 9 24 0 32 46 17 91 -13 39 -13 46 -1 60 14 15 10 20 -36 48 -28 17 -53
38 -57 47 -5 13 -7 13 -14 2 -7 -10 -15 -6 -34 18 -13 18 -36 34 -49 38 -13 3
-27 13 -30 22 -10 25 2 30 20 8 15 -18 15 -17 10 14 -3 18 -1 32 4 32 6 0 10
5 10 10 0 6 -11 10 -24 10 -13 0 -26 7 -30 15 -5 15 3 75 11 75 15 0 53 -35
53 -50 0 -28 21 -80 32 -80 11 0 7 71 -8 154 -5 28 -4 37 4 32 7 -4 12 -1 12
9 0 11 -5 15 -15 11 -11 -4 -15 2 -15 25 0 17 5 39 10 50 9 16 7 19 -9 19 -14
0 -18 5 -14 20 3 11 0 26 -6 34 -9 11 -9 15 1 19 10 3 9 11 -5 36 -22 38 -13
60 14 35 24 -22 24 -17 -6 91 -29 105 -29 106 -12 102 23 -4 21 63 -4 89 -12
13 -19 27 -14 31 4 5 10 2 12 -4 7 -21 23 -15 23 8 0 16 -5 20 -27 17 -31 -3
-40 -26 -42 -110 -2 -72 -19 -66 -26 9 -4 38 -13 111 -20 163 -11 84 -13 89
-14 40 0 -30 8 -170 19 -310 25 -328 26 -310 -5 -310 -25 0 -31 -13 -19 -44 8
-20 23 -20 44 -1 21 19 50 10 50 -16 0 -24 -65 -89 -89 -89 -16 0 -19 10 -23
70 -3 60 -7 74 -29 93 -14 12 -35 37 -48 54 -12 18 -27 33 -32 33 -13 0 -10
-78 4 -120 13 -39 33 -39 30 0 -4 43 35 -49 60 -144 20 -75 24 -83 35 -66 6
11 12 28 12 38 0 48 16 26 28 -40 17 -91 17 -92 8 -158 -5 -42 -3 -60 8 -75
14 -18 15 -16 9 31 -3 33 -1 54 6 58 7 5 11 -7 11 -39 0 -46 7 -56 64 -103 9
-7 16 -18 16 -24 0 -6 -9 -3 -19 6 -13 11 -27 15 -40 11 -22 -7 -29 -39 -11
-50 5 -3 15 -15 21 -26 9 -19 9 -19 -9 -10 -27 14 -54 49 -76 100 -11 22 -25
41 -33 41 -20 0 -7 -45 32 -110 27 -43 39 -55 57 -53 39 3 64 -5 99 -36 31
-28 49 -32 49 -11 0 5 -9 12 -20 15 -11 3 -20 11 -20 16 0 16 29 10 49 -10 17
-17 18 -24 9 -49 -6 -15 -8 -40 -5 -54 9 -33 60 -88 83 -88 14 0 11 7 -15 34
-27 28 -32 40 -27 60 4 17 13 26 26 26 11 0 20 -4 20 -10 0 -5 7 -10 15 -10 8
0 15 7 15 15 0 25 17 17 23 -11 11 -62 -21 -87 -43 -34 -16 38 -30 48 -30 21
0 -11 12 -34 27 -51 22 -27 31 -31 57 -26 55 11 69 11 73 0 2 -6 -5 -14 -17
-17 -11 -3 -20 -12 -20 -20 0 -18 30 -30 54 -21 21 8 32 -21 16 -41 -18 -22
-23 -20 -78 30 -32 29 -53 41 -57 34 -4 -6 -2 -16 4 -22 7 -7 6 -14 -5 -22
-14 -10 -12 -18 15 -68 36 -66 38 -77 14 -75 -52 4 -103 -3 -103 -15 0 -7 13
-12 32 -12 26 0 37 -8 60 -40 30 -43 85 -144 99 -185 8 -21 4 -19 -23 12 -30
34 -93 78 -110 78 -5 0 -8 -6 -8 -14 0 -11 45 -54 109 -103 13 -9 4 -11 -41
-6 -61 6 -58 8 -62 -39 -1 -7 6 -13 14 -13 20 0 205 -148 191 -153 -6 -2 -11
-11 -11 -19 0 -11 -5 -13 -17 -8 -29 13 -66 11 -70 -3 -3 -7 1 -10 10 -6 22 8
63 -16 137 -81 102 -89 170 -138 241 -174 36 -18 76 -42 90 -52 22 -18 23 -20
7 -33 -16 -12 -14 -14 17 -23 29 -9 37 -8 44 5 12 22 39 0 43 -35 l3 -25 24
21 c13 12 24 21 25 21 1 0 1 -27 1 -60 0 -41 -4 -60 -12 -60 -7 0 -13 -4 -13
-10 0 -5 9 -10 19 -10 11 0 30 -12 43 -27 193 -228 1050 -426 1878 -436 168
-2 202 1 249 17 36 12 70 17 107 14 29 -3 51 -1 49 3 -11 16 31 32 136 51 73
13 134 30 171 49 68 34 149 65 196 73 28 5 35 3 39 -14 5 -20 18 -27 25 -12 9
19 250 182 271 182 5 0 29 14 54 31 44 31 45 31 37 8 -4 -13 -7 -35 -6 -49 1
-14 2 -32 2 -40 1 -12 10 -15 36 -12 40 5 45 -12 14 -49 l-19 -24 -1 22 0 23
-72 -26 c-76 -27 -118 -57 -118 -83 0 -10 9 -6 30 14 33 32 48 32 22 0 -10
-11 -76 -73 -149 -137 -151 -136 -184 -171 -159 -176 16 -3 95 32 106 47 6 8
58 41 65 41 13 0 2 -30 -30 -78 -36 -53 -36 -63 -1 -37 11 8 23 15 28 15 14 0
9 -37 -7 -50 -8 -7 -15 -20 -15 -29 1 -23 50 35 50 59 0 17 39 55 47 46 2 -2
-6 -22 -17 -44 -27 -51 -19 -70 17 -42 14 11 33 20 43 20 20 0 52 33 74 77 14
28 22 33 51 33 29 0 36 -4 41 -26 l7 -26 44 44 c61 59 146 164 227 281 37 53
72 95 77 92 5 -4 9 -21 9 -38 l1 -32 24 28 c31 35 46 89 35 126 -4 16 -25 59
-45 96 -35 63 -38 65 -49 44 -15 -30 -36 -36 -36 -10 0 11 12 47 26 81 15 33
24 63 21 66 -12 12 -27 -9 -33 -45 -6 -35 -8 -37 -43 -37 -21 1 -46 7 -55 15
-14 12 -18 11 -31 -5 -13 -18 -14 -18 -20 -1 -11 28 0 43 59 81 30 19 63 48
73 63 10 15 20 30 24 33 3 3 18 29 34 58 34 63 49 67 41 10 -20 -149 -20 -147
4 -141 15 4 21 2 16 -5 -3 -6 -2 -13 4 -17 6 -4 10 11 10 39 0 38 3 46 19 46
10 0 26 10 34 22 16 23 16 23 16 2 1 -25 -15 -111 -24 -136 -12 -31 11 -19 28
15 66 128 174 312 193 328 13 10 17 10 24 -1 9 -15 16 15 24 112 5 65 23 109
36 87 5 -7 4 -21 -1 -30 -12 -23 -12 -72 1 -64 5 3 16 29 25 57 8 28 23 65 33
83 15 24 18 44 14 88 -2 31 -2 64 2 73 6 15 8 15 26 -1 23 -21 22 -21 39 22 7
17 19 34 28 37 8 3 11 10 8 16 -9 15 -68 12 -91 -5 -26 -19 -34 -19 -34 3 0
28 27 47 104 73 67 23 69 23 80 5 33 -56 42 -62 77 -49 90 34 216 134 278 222
50 71 38 76 -44 21 -41 -28 -82 -53 -90 -56 -28 -11 -16 21 16 41 32 21 82 85
93 121 4 13 1 26 -8 33 -17 14 -41 9 -150 -33 -37 -14 -70 -26 -72 -26 -2 0
-3 11 -2 25 3 29 3 29 29 14 29 -15 55 12 74 74 20 69 19 74 -10 43 -33 -36
-80 -34 -80 3 0 22 7 26 50 36 45 9 53 15 84 63 18 28 40 52 47 52 18 0 18 -3
-6 -43 -18 -30 -18 -35 -6 -40 12 -5 20 10 36 59 29 96 26 106 -18 55 -31 -36
-41 -42 -55 -34 -17 9 -16 10 3 28 24 22 26 41 4 49 -27 10 -39 7 -26 -6 7 -7
12 -16 12 -22 0 -5 -3 -7 -6 -4 -3 4 -18 3 -34 -2 l-28 -8 29 61 c16 34 29 71
29 83 0 30 19 44 46 34 28 -11 41 4 24 25 -15 18 -29 19 -80 3 -25 -8 -40 -19
-40 -29 0 -22 -28 -45 -40 -33 -7 7 -1 22 14 43 14 19 28 48 31 65 4 17 9 39
11 49 4 13 -1 17 -21 17 l-26 0 21 30 c24 34 40 31 40 -6 0 -15 6 -24 16 -24
11 0 14 5 9 18 -4 9 -10 72 -12 139 l-6 121 31 33 c25 27 33 30 45 21 8 -7 22
-10 31 -6 12 4 16 0 16 -15 0 -12 6 -21 15 -21 16 0 19 53 6 100 l-7 25 -13
-24 c-7 -13 -17 -19 -21 -15 -14 15 -16 97 -2 102 17 5 15 22 -3 22 -8 0 -15
7 -15 15 0 8 7 15 15 15 9 0 20 21 30 58 25 89 24 87 37 74 16 -16 28 -15 28
3 0 9 12 27 26 40 24 23 25 26 13 62 -9 27 -9 38 0 41 12 4 15 44 4 55 -3 4
-12 2 -19 -4 -9 -7 -15 -1 -24 28 -24 75 -157 339 -189 376 -40 45 -51 46 -51
7 0 -16 -3 -30 -8 -30 -12 0 -72 105 -74 131 -3 21 1 24 25 22 16 -1 62 -23
103 -48 61 -38 77 -45 89 -35 22 18 31 -14 17 -54 -7 -18 -12 -42 -12 -53 0
-44 62 -59 68 -16 2 16 -3 22 -20 25 -20 3 -22 8 -19 50 2 32 -3 57 -15 78
-22 35 -34 39 -27 8 4 -22 3 -21 -21 5 -32 34 -38 71 -7 43 15 -14 20 -14 29
-3 18 21 -12 55 -73 82 -43 19 -63 36 -104 93 -40 54 -56 69 -71 65 -27 -7
-110 74 -217 214 -116 151 -113 148 -149 166 -16 9 -45 31 -63 49 -30 31 -31
33 -12 38 19 5 18 8 -15 60 -38 61 -44 82 -14 55 29 -27 35 -12 7 20 -21 25
-25 26 -48 14 -13 -8 -32 -20 -41 -28 -20 -16 -20 -17 -22 58 -1 53 -2 55 -46
82 -56 34 -64 35 -78 7 -10 -21 -11 -20 -11 15 -1 30 -6 40 -26 49 -20 9 -22
14 -14 31 13 23 -6 67 -28 67 -16 0 -16 -5 -1 -30 7 -10 9 -22 5 -26 -11 -11
-85 44 -102 76 -9 16 -23 30 -32 30 -13 0 -14 3 -6 11 16 16 -2 53 -32 69 -13
7 -21 18 -18 26 9 23 -44 37 -70 19 -30 -21 -47 -19 -47 5 0 24 -69 101 -117
131 -34 21 -57 19 -35 -3 26 -26 14 -38 -32 -32 -25 4 -52 2 -65 -5 -17 -10
-32 -7 -84 14 -174 73 -270 106 -280 96 -20 -20 -84 -13 -100 10 l-15 20 -16
-22z m1521 -1218 l23 -26 -6 30 c-6 29 -6 29 9 10 9 -11 17 -28 17 -37 0 -10
6 -18 14 -18 19 0 29 17 16 25 -5 3 -15 15 -21 27 -11 20 -11 20 20 2 18 -10
44 -31 58 -47 27 -27 27 -28 10 -56 -20 -35 -21 -44 -4 -38 6 2 17 -3 24 -12
8 -11 12 -12 13 -3 0 6 5 12 10 12 6 0 10 -17 10 -38 0 -22 6 -60 14 -85 13
-42 12 -47 -2 -47 -37 0 -282 302 -282 348 0 18 41 -7 77 -47z m223 -424 c0
-7 -4 -17 -10 -23 -6 -6 -4 -24 5 -49 22 -62 20 -67 -20 -59 -34 6 -49 -6 -25
-21 17 -10 11 -25 -10 -25 -11 0 -20 -7 -20 -15 0 -8 -8 -19 -19 -24 -17 -9
-19 -6 -24 37 -6 50 14 83 42 74 14 -5 13 13 -5 76 -5 18 -2 22 15 22 11 0 21
-4 21 -10 0 -18 18 -11 25 10 7 22 25 27 25 7z m280 -227 c0 -40 31 -98 56
-104 20 -5 24 -13 24 -41 0 -31 -3 -35 -25 -35 -33 0 -39 -29 -31 -131 4 -43
5 -79 3 -79 -3 0 -15 30 -28 68 -29 88 -46 122 -64 122 -16 0 -29 -53 -23 -91
4 -22 5 -20 14 10 5 19 15 36 21 38 31 11 78 -308 56 -378 -13 -43 -18 -30
-31 87 -11 100 -26 137 -74 186 l-32 32 22 84 c15 58 19 90 12 102 -5 9 -7 20
-4 22 2 3 8 25 13 49 l9 44 1 -52 c1 -54 13 -72 35 -54 7 6 21 9 30 5 21 -8
20 7 -5 55 -16 32 -18 44 -9 60 14 27 30 27 30 1z m-870 -1444 c0 -45 3 -54
20 -59 17 -4 19 -9 10 -32 -13 -34 -13 -35 5 -35 18 0 18 0 4 -56 -11 -43 -22
-54 -34 -34 -11 17 -25 11 -25 -11 0 -29 -18 -59 -36 -59 -25 0 -55 82 -55
154 -1 52 5 78 27 123 26 54 28 56 32 30 4 -34 27 -31 28 4 2 37 3 41 14 34 6
-3 10 -30 10 -59z m-4102 -1111 c40 -27 125 -86 189 -130 64 -44 118 -86 120
-92 2 -6 -5 -17 -17 -23 -28 -15 -80 5 -80 30 0 27 -60 72 -132 99 -77 29 -90
39 -83 61 5 14 -4 21 -37 32 -38 13 -43 19 -46 47 -4 39 -6 40 86 -24z"/>
<path d="M2986 6786 c-29 -39 -96 -173 -96 -193 0 -16 12 -17 28 -1 9 9 12 9
12 0 0 -22 38 -12 60 15 16 21 19 35 15 67 -4 23 -1 63 5 90 6 27 9 50 7 53
-2 2 -16 -12 -31 -31z"/>
<path d="M2452 6288 c-11 -35 -23 -85 -27 -113 -4 -27 -15 -60 -26 -73 -45
-58 -71 -223 -46 -285 9 -20 21 -37 26 -37 15 0 14 17 -4 44 -15 22 -15 24 2
22 24 -2 32 53 9 66 -35 20 -15 82 36 109 17 9 19 18 15 50 -4 29 -2 39 8 39
8 0 16 3 19 8 7 11 19 232 12 232 -3 0 -14 -28 -24 -62z"/>
</g>
</svg>
