<?xml version="1.0" standalone="no"?>
<!DOCTYPE svg PUBLIC "-//W3C//DTD SVG 20010904//EN"
 "http://www.w3.org/TR/2001/REC-SVG-20010904/DTD/svg10.dtd">
<svg version="1.0" xmlns="http://www.w3.org/2000/svg"
 width="1024.000000pt" height="1024.000000pt" viewBox="0 0 1024.000000 1024.000000"
 preserveAspectRatio="xMidYMid meet">
<metadata>
Created by potrace 1.16, written by Peter Selinger 2001-2019
</metadata>
<g transform="translate(0.000000,1024.000000) scale(0.100000,-0.100000)"
fill="#000000" stroke="none">
<path d="M5295 8707 c-12 -7 -62 -12 -130 -13 -67 0 -137 -7 -180 -17 -38 -9
-86 -17 -105 -17 -20 0 -45 -7 -57 -15 -15 -10 -56 -16 -135 -19 -96 -4 -122
-8 -173 -31 -54 -24 -63 -26 -97 -14 -31 10 -39 9 -53 -5 -9 -9 -25 -16 -36
-16 -25 0 -24 -14 4 -33 21 -16 21 -16 -23 -18 -25 -1 -68 -1 -96 0 -35 2 -71
-5 -115 -22 -65 -25 -106 -37 -146 -40 -12 -1 -32 -12 -45 -24 -14 -13 -34
-23 -45 -23 -11 0 -32 -9 -47 -21 -14 -11 -30 -18 -35 -15 -5 4 -17 -1 -26
-10 -9 -9 -18 -14 -21 -11 -8 7 19 47 31 47 6 0 16 5 23 12 15 15 -3 48 -26
48 -21 -1 -52 -23 -52 -39 0 -17 -25 -13 -53 9 -27 22 -52 26 -62 10 -9 -15
-25 -12 -25 5 0 12 -7 14 -27 9 -55 -13 -60 -21 -23 -36 l35 -14 -63 -32 c-34
-18 -69 -32 -76 -32 -8 0 -24 -9 -37 -20 -23 -18 -23 -19 -4 -19 11 0 28 6 38
14 11 7 38 16 60 20 23 4 57 11 75 17 18 5 36 8 38 5 15 -15 -134 -87 -181
-87 -11 0 -32 -8 -46 -18 -15 -9 -45 -29 -67 -44 -23 -16 -49 -28 -57 -28 -9
0 -34 -17 -58 -38 -23 -21 -60 -51 -82 -67 -22 -16 -64 -54 -94 -85 -30 -30
-64 -62 -76 -70 -13 -8 -60 -51 -106 -94 -89 -84 -133 -121 -294 -241 -128
-96 -143 -111 -161 -153 -17 -42 -18 -40 3 -38 47 3 -13 -77 -86 -116 -18 -10
-30 -22 -26 -28 12 -20 -159 -174 -244 -220 -12 -6 -21 -15 -21 -20 0 -17 71
18 92 46 11 14 26 23 33 20 8 -3 19 2 25 10 7 8 19 14 26 14 28 0 13 -36 -40
-95 -29 -33 -57 -71 -61 -85 -4 -14 -34 -66 -67 -117 -32 -50 -68 -117 -79
-150 -12 -32 -31 -78 -44 -103 -66 -130 -161 -348 -211 -485 -72 -199 -113
-319 -110 -322 2 -2 22 1 45 6 42 9 42 9 39 -17 -2 -18 -10 -28 -23 -30 -29
-6 -41 -20 -28 -33 12 -12 -3 -59 -18 -59 -10 0 -49 -73 -49 -91 0 -7 8 -5 20
6 11 10 20 24 20 30 0 7 16 25 36 40 l37 28 -8 -69 c-4 -38 -14 -87 -23 -109
-8 -22 -17 -62 -18 -90 -2 -27 -8 -72 -14 -99 -5 -27 -10 -67 -10 -90 0 -23
-2 -59 -5 -81 -4 -22 -9 -80 -12 -128 -4 -72 -2 -91 11 -100 11 -9 16 -33 17
-92 1 -44 5 -98 10 -120 12 -60 38 -222 45 -290 4 -38 16 -73 30 -95 13 -19
24 -40 24 -47 0 -6 11 -33 25 -59 18 -33 25 -63 25 -99 0 -38 8 -70 29 -111
26 -55 38 -98 46 -165 4 -40 61 -120 111 -157 43 -32 44 -34 44 -87 0 -41 8
-71 32 -121 l33 -66 -27 -20 c-16 -11 -28 -26 -28 -34 0 -8 27 -42 60 -76 33
-33 60 -69 60 -79 0 -11 16 -29 39 -43 21 -14 53 -48 71 -77 34 -56 59 -79
126 -119 45 -26 164 -135 164 -150 0 -17 59 -57 116 -80 87 -34 120 -66 67
-65 -14 0 -28 -5 -30 -12 -6 -17 64 -91 107 -113 38 -19 65 -51 71 -84 2 -10
20 -27 39 -37 32 -18 36 -18 47 -3 11 15 17 13 53 -24 22 -23 49 -42 60 -42
11 0 20 -4 20 -10 0 -5 -4 -10 -9 -10 -5 0 -12 -8 -15 -17 -5 -11 2 -24 21
-39 21 -18 24 -23 11 -24 -29 0 -29 -16 -1 -44 33 -34 76 -33 81 2 2 13 10 22
22 22 13 0 19 -11 24 -44 7 -48 18 -55 134 -91 29 -9 61 -25 70 -34 9 -10 37
-23 62 -30 25 -7 63 -24 85 -37 22 -12 65 -36 95 -52 60 -32 81 -58 32 -40
-16 6 -36 8 -46 5 -21 -8 -21 -36 2 -44 32 -11 97 -43 130 -64 60 -39 108 -42
104 -8 -2 12 52 21 56 10 5 -14 39 -14 47 -1 3 6 -2 13 -12 16 -10 3 -30 12
-46 20 -15 8 -31 13 -36 10 -4 -3 -13 6 -19 19 -7 15 -20 25 -32 25 -11 0 -20
5 -20 10 0 12 47 13 52 1 2 -5 32 -23 66 -40 47 -24 71 -31 92 -26 22 5 41 -1
83 -28 30 -20 61 -44 68 -55 8 -10 27 -22 42 -26 16 -4 45 -17 65 -30 54 -33
70 -37 86 -21 8 8 20 15 26 15 6 0 13 7 16 15 4 8 10 15 14 15 17 0 79 -45 80
-57 0 -8 15 -13 43 -13 29 0 54 -8 81 -26 30 -21 46 -25 74 -20 27 4 41 1 57
-13 11 -11 67 -36 125 -56 129 -44 150 -50 150 -38 0 5 -40 22 -90 38 -87 29
-101 37 -80 50 10 6 111 -20 151 -41 14 -7 31 -9 38 -5 17 11 17 11 -139 61
-74 24 -142 50 -151 57 -8 7 -20 13 -26 13 -6 0 -13 7 -17 15 -7 20 13 19 73
-5 27 -10 87 -26 133 -34 45 -8 96 -19 111 -25 41 -16 55 -14 62 10 10 29 1
35 -97 63 -98 29 -171 63 -165 79 6 18 27 20 27 3 0 -18 -2 -18 66 -20 33 -2
58 -9 69 -19 10 -11 35 -18 68 -19 95 -2 108 -5 121 -24 13 -16 11 -20 -15
-32 -36 -18 -36 -24 -1 -39 53 -22 242 -53 322 -53 25 0 51 -5 57 -11 7 -7 23
-9 38 -5 20 5 26 12 22 26 -4 14 3 20 31 25 22 4 37 2 42 -5 6 -9 14 -8 33 5
18 11 36 14 59 10 30 -6 37 -3 51 19 9 14 14 32 11 40 -7 19 11 23 134 31 51
3 100 9 109 12 32 12 -29 26 -131 29 -64 2 -102 7 -106 15 -5 6 -17 10 -28 7
-27 -7 -44 5 -36 25 6 18 54 17 169 -3 104 -19 204 -23 235 -10 17 7 34 10 37
6 9 -9 -27 -33 -60 -40 -20 -4 -28 -11 -25 -23 3 -14 12 -17 38 -15 19 2 68 5
108 8 76 6 94 22 50 45 -22 12 -22 13 12 25 19 7 52 13 73 13 49 1 97 26 97
50 0 10 7 22 16 25 24 9 34 7 34 -8 0 -18 73 -5 99 18 9 9 24 16 31 16 7 0 28
11 46 25 38 29 50 31 58 9 4 -10 15 -14 33 -12 16 2 33 -3 39 -11 9 -11 31 -1
124 53 126 75 170 106 170 118 0 14 -24 8 -50 -12 -14 -11 -29 -20 -34 -20
-17 0 29 42 60 55 18 7 42 23 53 34 11 11 32 23 46 27 14 3 25 12 25 19 0 8 9
16 20 20 11 3 29 19 40 36 13 18 30 29 45 29 13 0 48 19 78 43 109 84 276 228
302 260 15 17 38 39 50 47 26 17 205 221 205 232 0 5 33 51 73 104 131 174
198 276 195 299 -2 15 8 31 29 49 18 15 38 39 46 54 8 15 26 48 41 73 14 26
38 80 52 120 14 41 32 88 40 104 50 107 148 449 189 661 18 94 38 188 44 210
26 102 36 230 35 464 -1 135 -4 268 -8 295 -3 28 -12 106 -20 175 -17 154 -34
249 -47 269 -9 14 -10 14 -5 -2 3 -9 0 -28 -6 -42 -8 -18 -8 -35 0 -62 7 -23
8 -52 3 -73 -12 -54 3 -177 24 -200 16 -17 18 -39 18 -148 0 -71 -4 -135 -9
-143 -4 -8 -9 -32 -10 -54 -8 -179 -20 -303 -39 -435 -8 -52 -21 -147 -30
-210 -9 -63 -24 -148 -35 -189 -10 -41 -17 -78 -14 -83 3 -4 -2 -18 -10 -30
-8 -13 -19 -50 -25 -83 -6 -32 -16 -64 -21 -69 -6 -6 -10 -16 -10 -23 0 -7
-25 -71 -56 -141 -31 -70 -62 -140 -69 -157 -7 -16 -24 -55 -39 -86 -14 -31
-26 -60 -26 -66 0 -14 -48 -130 -81 -196 -16 -33 -80 -129 -142 -214 -62 -85
-122 -169 -133 -186 -35 -53 -182 -194 -242 -233 -126 -81 -201 -141 -214
-170 -6 -13 -19 -24 -28 -24 -20 0 -93 -47 -145 -94 -22 -20 -63 -50 -91 -66
-29 -17 -57 -37 -64 -46 -9 -10 -22 -13 -42 -8 -24 5 -37 -1 -76 -33 -26 -21
-67 -45 -92 -52 -25 -7 -52 -19 -60 -26 -25 -21 -82 -44 -150 -59 -36 -9 -92
-24 -124 -36 -33 -11 -67 -20 -77 -20 -10 0 -25 -7 -33 -16 -12 -11 -25 -14
-49 -8 -17 4 -38 7 -44 5 -24 -4 -13 23 24 61 39 40 34 48 -13 23 -16 -8 -40
-15 -54 -15 -14 0 -36 -7 -48 -16 -18 -12 -20 -19 -11 -30 9 -11 6 -16 -16
-24 -34 -13 -35 -13 -29 4 7 19 -34 24 -107 12 -31 -5 -65 -6 -75 -2 -17 8
-17 9 6 18 14 6 43 19 66 29 23 10 46 19 52 19 5 0 12 6 15 14 3 8 18 23 32
32 23 15 28 15 35 3 7 -10 2 -18 -16 -27 -38 -20 -22 -26 21 -8 21 9 47 16 59
16 11 0 37 9 56 19 19 11 49 26 65 34 17 7 46 29 66 48 57 53 120 99 135 99 8
0 14 5 14 10 0 16 -15 12 -61 -20 -24 -16 -52 -30 -62 -30 -16 0 -116 -62
-127 -79 -5 -9 -45 -31 -54 -31 -3 0 -6 6 -6 14 0 17 46 48 85 56 25 5 30 10
27 33 -2 18 4 29 18 37 26 14 26 30 0 30 -12 0 -42 -19 -68 -43 -67 -62 -92
-77 -128 -77 -39 0 -62 23 -44 45 10 12 7 15 -14 21 -31 7 -35 24 -6 24 11 0
23 7 26 15 4 8 12 15 20 15 8 0 22 9 31 20 10 11 21 20 26 20 8 0 26 13 55 41
9 10 34 24 55 33 20 8 40 23 44 33 4 10 14 23 22 30 25 18 5 26 -26 10 -69
-37 -108 -48 -133 -39 l-25 10 25 11 c34 14 229 53 239 47 4 -3 32 10 62 30
30 19 72 40 94 46 22 6 56 26 75 44 19 17 55 42 80 54 25 13 72 51 105 86 53
56 65 64 97 64 28 0 47 9 86 42 28 24 72 54 99 68 47 24 200 149 216 177 4 7
16 13 26 13 10 0 26 9 36 20 10 11 21 17 26 15 15 -10 39 27 39 61 0 29 4 34
23 34 30 0 41 9 71 53 37 54 42 84 20 109 -19 20 -18 21 78 112 78 74 98 98
103 129 4 20 16 48 26 61 11 13 19 29 19 35 0 6 15 28 34 49 19 21 46 63 60
95 14 32 34 70 46 84 11 14 20 35 20 47 0 17 -4 14 -19 -14 -11 -19 -24 -44
-29 -55 -6 -12 -29 -38 -53 -60 -24 -22 -56 -56 -72 -77 -15 -21 -33 -38 -40
-38 -6 0 -29 -18 -50 -40 -36 -38 -67 -52 -67 -29 0 20 110 148 152 176 24 16
44 38 46 50 2 13 17 28 38 38 22 10 34 23 34 36 0 12 14 34 30 49 20 19 30 38
30 57 0 15 8 44 19 63 25 48 49 146 62 260 5 52 13 118 16 145 l6 50 -21 -25
-21 -25 6 36 c3 22 1 39 -6 43 -6 4 -11 16 -11 27 0 44 -18 5 -25 -53 -11 -92
-42 -186 -66 -199 -28 -15 -35 -5 -22 34 25 75 68 307 61 329 -3 8 -11 2 -21
-17 l-16 -30 -1 41 c0 22 11 67 24 100 13 32 27 70 31 84 6 24 6 24 -20 -5
l-26 -30 6 35 c4 19 17 64 30 100 30 85 41 150 26 159 -7 5 -8 17 -1 40 5 19
6 39 3 45 -4 6 -8 88 -8 181 -1 94 -4 190 -8 215 -6 38 -3 34 15 -23 l21 -68
37 6 c32 5 38 3 43 -14 5 -21 37 -30 37 -11 0 6 13 10 29 10 38 0 52 39 27 78
-4 7 -5 24 -2 37 4 14 1 34 -6 45 -10 16 -9 25 5 50 14 23 16 34 7 50 -11 21
-8 53 12 120 6 19 13 41 15 49 3 11 8 9 19 -8 10 -14 24 -21 37 -19 22 3 23 6
10 69 -3 16 2 37 12 53 16 24 16 27 -4 59 -25 41 -26 47 -7 47 19 0 29 17 20
31 -4 7 -8 26 -9 44 -1 17 -11 45 -22 61 -10 16 -29 43 -41 61 -12 18 -22 35
-22 39 0 3 -11 19 -25 36 -14 16 -25 36 -25 43 0 20 -29 82 -61 130 -23 36
-25 48 -23 125 2 86 -13 144 -43 163 -7 4 -13 19 -13 31 0 40 -57 167 -90 201
-21 21 -30 41 -30 63 0 31 -36 82 -58 82 -4 0 -14 22 -21 48 -6 26 -24 66 -39
89 -31 47 -184 200 -225 227 -16 9 -33 30 -38 45 -5 15 -23 35 -39 45 -17 9
-30 25 -30 35 0 10 -9 39 -20 63 -18 41 -24 46 -61 52 -29 5 -51 17 -73 40
-17 18 -56 50 -86 70 -30 20 -61 41 -68 47 -7 6 -29 15 -48 20 -27 8 -34 15
-34 35 0 16 -8 27 -22 33 -52 21 -64 25 -74 26 -6 0 -28 9 -48 20 -25 14 -36
26 -36 42 0 14 -6 23 -15 23 -8 0 -29 9 -47 20 -18 11 -45 20 -59 20 -15 0
-32 6 -38 14 -6 7 -37 21 -69 30 -31 8 -65 25 -75 36 -9 11 -28 20 -41 20 -14
0 -28 5 -31 10 -10 15 -82 50 -104 50 -11 0 -26 8 -33 18 -7 11 -32 22 -58 26
-24 4 -50 12 -56 17 -18 15 -113 39 -130 32 -8 -3 -20 0 -28 6 -15 13 -212 71
-240 71 -11 0 -58 12 -105 26 -64 20 -114 28 -196 30 -219 8 -241 10 -265 27
-16 11 -28 13 -41 7 -11 -7 -27 -6 -44 0 -34 13 -55 12 -80 -3z m373 -234 c12
-3 22 -11 22 -18 0 -7 10 -13 23 -14 12 0 42 -3 67 -6 25 -2 57 0 72 6 22 9
30 8 43 -5 9 -9 18 -16 20 -16 1 0 38 -7 81 -14 44 -8 99 -17 125 -19 25 -3
63 -14 85 -25 21 -11 59 -25 84 -32 25 -6 52 -17 60 -24 19 -15 50 -30 118
-56 30 -11 61 -27 69 -35 8 -8 21 -15 28 -15 8 0 24 -14 36 -31 18 -25 27 -30
49 -26 35 7 70 -2 70 -18 0 -7 14 -18 30 -24 17 -5 30 -15 30 -20 0 -14 -84
-14 -128 -2 -27 8 -34 7 -42 -9 -9 -16 -6 -22 17 -34 16 -7 46 -19 68 -25 53
-14 69 -26 60 -41 -6 -9 -35 -11 -110 -8 -86 4 -108 8 -141 29 -30 18 -58 25
-119 30 -82 5 -127 25 -195 85 -32 29 -180 113 -250 143 -30 13 -77 34 -105
47 -66 30 -213 72 -283 81 -31 3 -63 14 -72 23 -10 10 -41 25 -70 35 -47 15
-51 19 -34 29 19 11 227 26 254 18 8 -3 25 -7 38 -9z m-1053 -69 c-11 -8 -35
-19 -55 -24 -37 -11 -72 -30 -55 -30 6 0 49 11 95 24 107 31 209 51 217 42 4
-3 -21 -18 -56 -33 -34 -14 -58 -30 -53 -35 9 -9 86 15 110 34 12 10 19 7 38
-17 23 -29 24 -29 61 -15 26 10 85 15 183 16 80 1 153 3 164 4 16 1 56 -30 56
-45 0 -3 -10 -5 -22 -5 -13 0 -41 -12 -63 -25 -32 -20 -36 -25 -18 -25 12 0
25 5 28 10 10 17 69 11 115 -11 29 -14 51 -19 69 -14 42 12 110 7 133 -10 13
-8 34 -16 48 -16 14 -1 -4 -6 -40 -11 -73 -10 -167 -3 -187 14 -10 8 -33 6
-89 -7 -64 -15 -77 -16 -85 -4 -7 11 -40 14 -161 12 -129 -1 -162 -4 -208 -22
-30 -12 -78 -21 -107 -21 -28 0 -55 -5 -58 -10 -4 -7 -12 -7 -25 0 -27 14 -57
12 -85 -6 -20 -13 -34 -14 -72 -7 -46 9 -47 10 -23 21 21 8 11 10 -56 11 -44
0 -123 7 -175 16 -119 21 -135 21 -158 1 -14 -13 -104 -45 -128 -46 -2 0 -3 6
-3 14 0 21 49 49 73 42 21 -5 137 42 137 55 0 4 13 21 29 38 21 23 38 31 63
31 18 0 49 5 68 10 19 6 71 17 115 26 44 8 96 19 115 23 19 5 46 9 60 10 24 0
24 0 5 -15z m-665 -259 c0 -7 -8 -18 -17 -24 -27 -15 -12 -21 30 -12 20 5 37
8 37 7 0 -7 -99 -76 -109 -76 -17 0 -116 -48 -173 -83 -29 -18 -51 -40 -54
-54 -7 -27 -36 -46 -57 -38 -7 3 -26 1 -40 -4 -17 -7 -27 -7 -27 -1 0 17 144
154 184 175 21 11 43 29 48 41 15 31 53 47 78 32 17 -11 24 -8 52 20 36 35 48
40 48 17z m-606 -124 c3 -5 -7 -14 -22 -20 -16 -7 -61 -43 -100 -81 -52 -50
-72 -75 -72 -94 0 -26 -19 -76 -29 -76 -3 0 -12 4 -20 9 -23 15 -67 -14 -74
-47 -4 -21 -15 -33 -39 -43 -18 -7 -70 -50 -115 -96 -45 -46 -86 -83 -92 -83
-5 0 -22 -17 -38 -37 -48 -67 -127 -148 -155 -160 -15 -6 -49 -43 -77 -81 -28
-39 -58 -72 -66 -76 -8 -3 -15 -13 -15 -21 0 -9 -23 -43 -52 -76 -49 -56 -71
-71 -50 -33 11 19 -8 69 -27 76 -6 2 -7 9 -1 17 7 12 11 12 24 2 9 -8 16 -20
16 -28 0 -7 35 21 78 64 102 102 107 109 93 127 -10 12 2 28 66 90 77 73 140
136 188 186 14 14 25 31 25 38 0 7 20 21 45 32 42 18 50 27 46 57 -1 6 24 32
56 56 32 25 75 63 95 86 20 22 44 41 54 41 9 0 53 31 98 68 136 115 148 122
160 103z m4309 -1275 c80 -85 219 -327 238 -414 12 -58 44 -143 76 -202 16
-30 34 -74 41 -97 7 -24 17 -43 22 -43 6 0 6 10 0 26 -6 14 -10 33 -9 42 1 9
7 -3 15 -27 18 -60 43 -242 49 -366 5 -103 22 -203 37 -220 4 -5 8 -17 8 -26
0 -20 -42 -38 -48 -20 -7 22 -20 10 -26 -26 -4 -27 -13 -41 -31 -50 -23 -10
-25 -9 -24 10 1 38 37 193 38 167 1 -21 3 -22 11 -9 26 44 -31 385 -91 551
-17 46 -53 148 -81 228 -56 163 -137 336 -175 372 -14 12 -33 39 -43 59 -10
19 -39 52 -64 73 -25 20 -46 42 -46 47 0 19 45 -14 103 -75z m120 -23 c-3 -9
10 -31 34 -56 60 -64 113 -134 113 -149 0 -8 13 -35 29 -60 16 -25 32 -55 36
-68 4 -13 23 -38 41 -57 37 -36 43 -66 19 -89 -8 -9 -15 -24 -15 -35 0 -10 -7
-19 -15 -19 -18 0 -65 68 -65 95 0 17 2 17 10 5 9 -13 10 -13 10 1 0 8 -14 36
-30 62 -17 25 -33 54 -35 65 -7 36 -44 110 -80 156 -20 26 -33 51 -30 55 2 5
-9 27 -25 49 -17 24 -25 42 -18 44 8 3 7 11 -2 28 -13 25 -13 25 8 7 11 -11
18 -26 15 -34z m371 -578 c9 -16 16 -36 16 -43 0 -7 12 -31 27 -53 21 -32 26
-52 27 -105 1 -57 -2 -67 -23 -83 -21 -16 -22 -20 -11 -42 l13 -24 10 28 c11
34 25 35 37 2 5 -14 16 -25 24 -25 9 0 15 -10 14 -27 0 -16 4 -39 9 -53 6 -14
8 -31 6 -37 -5 -14 -34 -18 -31 -5 3 14 -25 62 -38 62 -8 0 -10 -10 -4 -35 4
-20 4 -35 -1 -35 -5 0 -9 11 -9 24 0 14 -5 28 -12 32 -8 5 -9 0 -6 -14 4 -12
2 -22 -3 -22 -5 0 -9 8 -9 18 0 9 -8 33 -18 52 -13 23 -17 48 -14 73 3 27 -1
43 -13 57 -9 10 -14 23 -11 29 7 10 -21 228 -31 244 -2 4 2 23 9 43 l13 37 6
-34 c3 -19 14 -47 23 -64z m-3871 -3316 c22 -6 50 -8 62 -5 26 7 117 -31 179
-73 64 -44 113 -61 177 -61 61 0 78 -14 37 -29 -14 -5 -31 -5 -42 1 -10 6 -37
8 -59 5 -25 -4 -53 1 -81 12 -25 11 -81 20 -146 24 -96 6 -226 33 -271 58 -11
5 -19 20 -19 34 0 17 -6 25 -22 27 -12 2 -23 8 -25 15 -5 14 150 8 210 -8z"/>
<path d="M8311 4993 c-6 -21 -11 -57 -11 -80 0 -35 -7 -50 -36 -82 -30 -34
-34 -44 -29 -73 5 -26 1 -44 -15 -72 -13 -20 -20 -39 -17 -42 3 -3 13 9 23 28
l18 33 9 -37 c9 -39 26 -51 28 -20 1 9 3 39 5 66 2 27 10 56 18 65 29 32 46
90 46 159 0 48 -4 73 -14 81 -12 10 -17 6 -25 -26z"/>
</g>
</svg>
