<?xml version="1.0" standalone="no"?>
<!DOCTYPE svg PUBLIC "-//W3C//DTD SVG 20010904//EN"
 "http://www.w3.org/TR/2001/REC-SVG-20010904/DTD/svg10.dtd">
<svg version="1.0" xmlns="http://www.w3.org/2000/svg"
 width="1024.000000pt" height="759.000000pt" viewBox="0 0 1024.000000 759.000000"
 preserveAspectRatio="xMidYMid meet">
<metadata>
Created by potrace 1.16, written by Peter Selinger 2001-2019
</metadata>
<g transform="translate(0.000000,759.000000) scale(0.100000,-0.100000)"
fill="#000000" stroke="none">
<path d="M4550 6923 c-52 -7 -171 -19 -265 -27 -207 -18 -282 -30 -400 -60
-49 -13 -153 -38 -230 -56 -77 -17 -148 -36 -157 -41 -10 -5 -28 -9 -40 -9
-43 0 -206 -52 -383 -121 -42 -17 -221 -81 -470 -169 -175 -62 -420 -175 -573
-266 -46 -27 -93 -54 -103 -60 -10 -6 -27 -18 -36 -26 -10 -9 -24 -13 -30 -11
-7 3 -13 -2 -13 -11 0 -9 5 -16 11 -16 11 0 79 38 89 50 3 3 41 24 85 47 44
22 98 50 120 61 85 44 135 65 140 60 3 -3 -43 -29 -102 -58 -60 -29 -159 -82
-221 -117 -87 -49 -117 -61 -127 -53 -9 8 -15 8 -20 0 -3 -5 -14 -10 -23 -10
-10 0 -33 -13 -52 -28 -19 -15 -60 -43 -90 -62 -30 -19 -101 -68 -158 -109
-85 -61 -101 -77 -96 -94 5 -16 3 -19 -10 -14 -11 4 -26 -1 -39 -15 -17 -16
-18 -20 -4 -15 27 10 21 3 -42 -42 -33 -24 -57 -49 -55 -55 2 -6 -31 -41 -75
-76 -81 -67 -132 -138 -88 -124 19 6 20 5 10 -8 -7 -8 -11 -17 -8 -20 3 -3 -1
-11 -10 -18 -8 -7 -15 -18 -15 -25 0 -8 -13 -24 -29 -37 -16 -13 -34 -33 -40
-46 -7 -13 -26 -31 -43 -42 -27 -16 -28 -19 -12 -28 21 -12 28 -82 10 -94 -8
-6 -6 -11 4 -18 13 -9 11 -14 -10 -32 l-25 -21 40 7 c22 4 50 10 63 13 27 6
29 -11 2 -30 -11 -8 -17 -17 -12 -21 4 -4 7 -15 8 -24 1 -10 2 -29 3 -44 0
-18 7 -28 16 -28 18 0 19 -20 3 -54 -9 -22 -8 -29 6 -45 18 -20 15 -61 -5 -61
-5 0 -9 -7 -9 -15 0 -8 -7 -15 -15 -15 -25 0 -17 -14 16 -29 27 -12 32 -11 45
5 14 18 14 18 29 0 21 -27 19 -32 -13 -51 -16 -10 -32 -25 -38 -35 -5 -10 -48
-69 -95 -132 -91 -119 -169 -240 -213 -326 -30 -59 -32 -70 -11 -52 22 19 28
7 16 -35 -5 -20 -7 -43 -4 -51 3 -8 0 -14 -7 -14 -7 0 -10 -7 -6 -16 3 -8 -3
-32 -13 -52 -24 -47 -42 -112 -35 -124 11 -17 43 29 41 59 -2 22 3 29 21 31
12 2 22 -1 22 -7 0 -6 -7 -11 -15 -11 -8 0 -15 -7 -15 -15 0 -8 8 -15 19 -15
10 0 24 7 31 15 7 8 16 15 21 15 14 0 10 -44 -6 -66 -8 -10 -15 -32 -15 -47 0
-16 -4 -37 -10 -47 -7 -14 -6 -23 4 -33 9 -8 11 -18 6 -23 -20 -20 1 -53 37
-60 37 -7 38 -9 17 -83 -6 -20 -4 -22 13 -17 22 7 23 3 40 -91 6 -39 15 -41
43 -11 l20 22 0 -23 c0 -13 -25 -60 -55 -106 -62 -93 -94 -170 -77 -187 6 -6
7 -19 2 -33 -13 -33 3 -90 24 -88 13 1 16 -4 12 -20 -3 -12 3 -32 15 -49 18
-25 23 -27 37 -16 13 11 12 7 -3 -22 -39 -76 -41 -80 -27 -80 5 0 14 10 20 23
9 19 11 19 11 3 1 -15 4 -16 15 -6 8 6 29 14 45 16 24 4 31 1 31 -10 0 -23 7
-20 40 17 38 41 39 18 1 -37 -32 -47 -54 -115 -45 -140 8 -21 33 -20 50 2 12
15 13 12 10 -22 -3 -22 -15 -50 -29 -65 -32 -34 -97 -135 -97 -150 0 -10 -20
-15 -48 -12 -16 2 -15 -7 3 -25 16 -16 11 -35 -17 -76 -23 -33 -23 -38 2 -38
16 0 19 -6 17 -38 -2 -34 0 -37 23 -33 24 3 24 2 8 -16 -10 -11 -18 -22 -18
-24 0 -3 27 -5 59 -4 53 0 58 -2 50 -17 -5 -10 -14 -18 -19 -18 -6 0 -10 -6
-10 -13 0 -7 -19 -34 -43 -60 -24 -26 -48 -62 -55 -80 l-11 -32 35 40 c23 26
42 39 55 37 13 -2 26 8 40 32 21 36 47 50 35 20 -8 -20 23 -66 40 -60 7 3 17
-1 23 -8 9 -10 7 -15 -9 -19 -14 -4 -20 -13 -20 -35 0 -17 -4 -34 -10 -37 -13
-8 -13 -45 0 -65 8 -12 12 -13 19 -2 14 22 44 9 52 -23 6 -20 4 -39 -6 -59
-11 -20 -12 -32 -5 -36 7 -5 6 -11 -4 -19 -8 -7 -12 -19 -9 -27 3 -7 -9 -28
-26 -45 l-32 -31 21 -35 c25 -43 25 -43 -4 -43 -33 0 -46 -38 -20 -57 10 -7
24 -13 32 -13 12 0 11 4 -3 20 -14 15 -16 23 -7 32 8 8 17 -4 36 -46 l25 -56
-27 -45 c-15 -25 -35 -45 -44 -45 -10 0 -18 -5 -18 -11 0 -5 5 -7 10 -4 6 3
10 2 10 -4 0 -5 -5 -13 -10 -16 -6 -4 -26 -37 -45 -75 l-34 -68 28 14 c26 13
81 97 81 125 0 16 39 97 50 104 4 3 15 2 24 -1 13 -5 14 -10 5 -20 -6 -7 -7
-19 -2 -26 4 -7 8 -22 8 -33 0 -14 9 -21 30 -25 l30 -6 -23 -13 c-14 -7 -21
-18 -18 -26 3 -8 -1 -27 -9 -42 -11 -21 -15 -23 -15 -10 0 33 -24 12 -32 -28
-5 -21 -13 -44 -18 -50 -5 -7 -7 -14 -5 -17 3 -3 1 -18 -5 -33 -7 -20 -7 -31
1 -41 9 -11 8 -14 -5 -14 -9 0 -16 -7 -16 -15 0 -8 6 -15 14 -15 9 0 16 -12
18 -32 l3 -33 47 48 c25 26 49 47 52 47 3 0 -2 -16 -10 -35 -18 -43 -18 -46 1
-39 9 4 15 1 15 -7 0 -16 -27 -94 -41 -121 -11 -20 -2 -23 20 -9 8 5 16 22 19
38 2 15 8 33 13 38 7 7 8 4 4 -7 -4 -11 -2 -18 4 -18 6 0 11 5 11 11 0 6 9 8
21 4 26 -8 61 21 54 45 -7 23 31 58 47 42 9 -9 7 -16 -5 -30 -9 -10 -17 -22
-17 -26 0 -5 -6 -22 -13 -39 -20 -47 -38 -99 -44 -126 -5 -21 -4 -22 16 -11
13 6 20 17 18 24 -3 7 19 32 49 55 l54 42 -6 -31 c-9 -43 13 -39 60 10 33 35
43 40 82 40 30 0 46 5 50 15 4 8 10 15 15 15 4 0 6 -7 3 -15 -8 -21 -2 -19 54
14 69 40 92 47 92 25 0 -16 1 -16 20 1 11 10 20 13 20 7 0 -8 8 -8 29 -1 17 6
28 16 25 22 -4 12 85 62 94 52 9 -8 -19 -34 -41 -37 -24 -3 -35 -34 -19 -50
14 -14 50 0 57 23 4 10 13 19 20 19 8 0 20 9 28 20 8 12 24 19 39 18 13 -1 39
8 56 21 18 13 39 20 47 17 8 -3 15 -2 15 2 0 12 125 72 157 75 16 2 33 6 38 9
6 3 22 8 36 12 15 3 43 22 62 41 23 23 41 33 51 29 11 -4 16 -1 16 11 0 14 3
15 14 6 18 -15 50 0 66 29 6 11 21 20 33 20 28 0 91 49 64 50 -21 0 -93 -35
-102 -50 -10 -17 -25 -11 -18 7 6 15 5 15 -17 0 -17 -12 -27 -13 -36 -6 -10 8
-22 5 -44 -11 -17 -12 -37 -20 -44 -17 -8 3 -29 -5 -47 -19 -18 -13 -40 -24
-50 -24 -9 0 -28 -9 -42 -20 -14 -11 -33 -20 -42 -20 -9 0 -23 -7 -31 -15 -18
-17 -34 -20 -34 -5 0 7 -7 7 -21 0 -11 -7 -23 -9 -26 -6 -7 7 42 26 66 26 10
0 24 7 31 15 7 8 21 15 31 15 11 0 19 5 19 10 0 6 7 10 15 10 8 0 25 12 39 26
18 20 30 25 49 20 18 -4 31 1 51 20 14 15 24 30 21 34 -4 6 17 20 30 20 9 0
-3 -33 -16 -41 -29 -18 1 -8 75 26 70 32 98 56 82 72 -3 3 -14 -1 -24 -10 -10
-10 -25 -17 -33 -17 -8 0 -25 -7 -37 -16 -12 -8 -22 -11 -22 -7 0 5 9 14 20
21 32 19 24 32 -12 20 -18 -6 -38 -15 -44 -19 -11 -9 -144 -59 -154 -59 -3 0
4 7 15 15 17 14 15 15 -34 13 -29 -1 -55 -6 -57 -10 -3 -4 -11 -8 -17 -8 -25
1 28 30 54 30 18 0 34 8 44 23 11 16 18 19 23 10 10 -17 64 6 58 24 -3 6 2 14
10 17 22 9 24 8 18 -9 -4 -10 0 -15 10 -15 9 0 19 7 23 16 3 8 12 13 19 10 8
-3 14 -1 14 5 0 5 8 9 17 7 12 -2 18 4 18 17 0 13 16 28 47 45 26 14 59 36 72
47 41 36 88 56 129 56 30 0 41 4 44 18 3 11 12 19 19 19 8 0 14 7 14 15 0 8
12 17 28 21 42 9 115 36 131 48 12 9 13 8 8 -6 -4 -12 -1 -18 9 -18 8 0 12 -4
9 -10 -3 -5 0 -10 7 -10 18 0 156 68 141 69 -23 2 -13 19 15 27 41 11 41 11
52 13 18 2 11 19 -11 26 -19 6 -20 8 -3 26 21 23 18 23 -36 4 -24 -8 -45 -13
-48 -10 -3 3 -1 5 4 5 6 0 19 7 30 15 16 13 16 14 2 9 -10 -3 -18 -1 -18 5 0
12 63 41 90 41 21 0 60 40 39 40 -27 1 14 17 86 35 39 10 77 23 85 30 8 7 31
15 50 19 19 3 58 11 85 17 28 7 69 11 91 11 29 -2 44 3 48 13 4 11 20 15 55
15 27 0 53 5 56 10 3 6 19 10 35 10 16 0 41 5 55 10 15 6 56 11 91 11 35 1 67
5 70 11 3 5 40 9 82 8 98 -2 223 10 239 22 7 6 39 11 70 13 79 3 86 7 33 15
l-45 7 52 1 c28 1 55 -3 59 -9 3 -6 15 -9 25 -6 15 4 17 2 9 -13 -6 -10 -7
-26 -4 -34 4 -11 0 -16 -15 -16 -14 0 -19 5 -15 15 5 13 -6 15 -67 14 -41 0
-83 -5 -94 -10 -14 -6 -7 -8 27 -4 26 4 49 2 52 -4 4 -6 13 -8 21 -4 8 3 15 1
15 -5 0 -13 -65 -24 -155 -27 -38 -2 -77 -5 -85 -8 -19 -7 -61 -16 -135 -28
-33 -6 -64 -15 -69 -20 -14 -12 8 -11 74 5 31 7 69 11 86 9 17 -3 47 0 67 5
20 6 47 8 59 4 19 -5 17 -7 -17 -19 -40 -12 -39 -13 25 -7 36 3 128 7 205 9
105 4 133 2 110 -6 -16 -5 -75 -12 -130 -14 -77 -3 -267 -19 -282 -24 -1 -1 0
-8 3 -16 5 -11 16 -13 48 -9 22 4 46 10 51 14 12 9 253 23 417 24 64 1 120 4
124 8 4 5 -10 8 -30 8 -26 0 -36 4 -34 13 3 8 29 13 74 14 62 1 67 0 50 -13
-11 -8 -24 -14 -29 -14 -4 0 -6 -4 -2 -9 10 -17 -39 -25 -150 -23 -60 1 -150
-3 -200 -9 -49 -6 -103 -11 -120 -13 -35 -2 -82 -25 -53 -26 11 0 15 -5 12
-15 -8 -19 -34 -20 -34 -1 0 18 -110 29 -147 14 -21 -8 -24 -12 -11 -15 10 -3
15 -10 11 -18 -4 -13 18 -14 142 -11 80 2 144 2 141 -1 -2 -2 -40 -11 -83 -18
-66 -11 -71 -13 -33 -14 25 0 62 3 82 8 27 6 40 5 48 -4 15 -18 -2 -27 -34
-19 -49 12 -346 -27 -346 -46 0 -4 -33 -15 -72 -25 -40 -9 -84 -19 -98 -22
-23 -5 -21 -7 14 -15 30 -6 45 -5 63 7 17 12 34 14 56 9 30 -7 27 -9 -47 -29
-70 -19 -80 -24 -83 -47 l-3 -25 72 18 c40 10 100 18 133 19 33 0 78 2 100 5
22 3 103 6 180 8 77 2 145 6 151 9 9 6 73 8 263 9 74 0 116 -15 89 -32 -9 -6
-6 -9 10 -9 13 0 20 4 17 10 -6 10 25 15 70 12 11 0 69 -2 128 -4 91 -3 110
-6 118 -21 8 -13 20 -17 50 -15 21 2 39 6 39 11 0 10 42 9 58 -2 8 -4 14 -12
14 -17 -1 -10 30 -6 38 5 6 9 50 5 160 -14 47 -9 104 -18 128 -22 23 -3 42 -9
42 -13 0 -4 15 -10 33 -13 17 -3 73 -12 122 -20 50 -8 98 -18 108 -22 26 -11
20 -25 -10 -25 -22 0 -25 -2 -13 -10 18 -12 63 -13 56 -2 -3 5 8 6 25 4 16 -2
29 -9 29 -14 0 -6 17 -8 44 -4 51 8 106 -2 85 -15 -18 -11 13 -23 41 -16 10 3
21 -1 24 -8 2 -7 16 -15 30 -17 14 -3 23 -1 20 4 -8 13 67 -20 80 -35 14 -16
70 -41 61 -27 -10 16 -4 13 122 -44 88 -40 126 -53 147 -49 24 5 28 3 23 -10
-3 -8 0 -18 8 -21 8 -3 15 0 17 6 2 6 17 5 41 -5 40 -17 48 -13 20 9 -17 13
-17 14 2 7 27 -9 86 -43 108 -61 9 -9 20 -13 23 -9 8 7 -69 63 -123 90 -40 19
-56 37 -34 37 14 0 81 -41 81 -49 0 -4 20 -13 45 -20 25 -7 45 -17 45 -22 0
-5 9 -9 19 -9 11 0 32 -11 48 -24 15 -13 42 -31 60 -40 18 -9 36 -24 42 -33 5
-10 13 -15 17 -11 10 10 46 -11 39 -23 -4 -5 -2 -9 4 -9 23 0 18 18 -9 39 -37
27 -43 58 -7 39 12 -7 24 -16 27 -19 12 -14 111 -79 120 -79 5 0 10 -4 10 -10
0 -5 4 -10 10 -10 5 0 20 -11 34 -25 14 -14 33 -25 44 -25 10 0 27 -7 38 -15
10 -8 28 -14 39 -14 17 0 14 5 -15 29 -19 16 -40 30 -45 30 -11 0 -33 16 -88
62 -17 14 -44 29 -60 32 -34 7 -79 40 -69 51 4 3 0 5 -8 3 -8 -2 -14 3 -13 10
2 6 -6 12 -18 12 -11 0 -18 4 -15 9 4 5 -14 19 -39 31 -25 12 -50 31 -56 41
-13 26 1 24 45 -6 20 -14 40 -25 45 -25 4 0 16 -9 26 -20 10 -11 23 -20 30
-20 7 0 23 -10 36 -22 14 -13 55 -43 92 -67 37 -24 71 -49 75 -55 11 -17 82
-55 137 -73 17 -6 38 -14 48 -18 30 -12 20 22 -12 41 -16 10 -32 25 -34 33 -5
19 -87 66 -87 51 0 -12 -39 7 -104 51 -56 37 -74 62 -23 30 41 -25 49 -20 15
10 -22 19 -22 20 -2 10 12 -6 24 -8 27 -4 7 7 59 -17 131 -60 64 -37 136 -69
136 -59 0 4 -13 16 -30 25 -55 33 -31 39 27 8 69 -38 79 -39 49 -6 -13 14 -29
25 -36 25 -7 0 -10 3 -7 7 4 3 2 12 -5 20 -21 25 1 26 39 1 75 -50 89 -43 29
13 -60 57 -74 83 -28 50 16 -11 40 -23 55 -26 15 -4 30 -11 33 -16 9 -15 22
-10 29 12 6 17 12 20 40 15 22 -4 35 -2 37 5 3 8 20 -2 45 -24 22 -20 46 -37
52 -37 6 0 11 -11 11 -24 0 -13 10 -31 23 -40 l22 -17 -22 5 c-27 5 -31 -9 -5
-18 9 -3 23 -9 31 -12 8 -4 11 -2 7 4 -11 19 14 24 38 8 23 -14 66 -12 66 4 0
4 -6 13 -14 20 -8 6 -12 18 -9 26 9 23 25 16 19 -8 -3 -13 -3 -18 0 -12 3 7
14 10 24 7 15 -4 20 0 20 14 0 30 8 32 47 12 41 -21 55 -17 30 8 -15 15 -14
19 4 55 11 21 22 38 25 38 3 0 3 -4 0 -8 -2 -4 0 -14 5 -22 7 -13 10 -13 18
-2 9 15 7 16 50 -36 19 -23 40 -14 25 10 -4 7 6 2 23 -10 20 -14 34 -18 38
-12 3 5 -1 10 -9 10 -19 0 -21 17 -3 23 12 4 18 107 6 117 -11 8 -21 50 -12
50 24 -1 64 -81 43 -88 -6 -2 3 -16 20 -32 18 -17 30 -38 30 -53 0 -14 5 -29
11 -32 16 -11 -1 84 -21 118 -14 23 -16 34 -7 57 8 21 8 43 -1 81 -9 37 -9 55
-2 59 12 7 3 41 -14 52 -8 6 -8 8 0 8 17 0 50 -44 46 -62 -2 -10 -11 -18 -20
-18 -12 0 -11 -4 7 -21 16 -15 21 -28 17 -45 -6 -23 11 -64 27 -64 5 0 7 8 5
18 -1 9 2 18 7 20 6 1 11 -6 13 -18 2 -11 8 -20 14 -20 7 0 9 27 6 80 -5 85 4
100 26 48 8 -18 22 -50 31 -70 9 -21 20 -38 25 -38 14 0 13 6 -6 43 -12 21
-13 32 -5 35 6 2 11 8 11 14 0 6 -6 8 -13 5 -9 -3 -18 7 -25 27 -7 18 -25 46
-42 62 -34 33 -38 46 -12 37 14 -5 13 -2 -5 18 -13 15 -21 36 -21 56 l1 31 28
-20 c15 -12 31 -28 34 -36 4 -12 8 -12 29 1 21 14 25 14 40 -1 13 -14 16 -14
16 -2 1 12 4 11 14 -3 13 -17 15 -17 45 0 17 10 31 25 31 33 0 13 1 13 10 0 7
-11 10 -7 10 18 0 35 10 41 30 17 15 -18 30 -11 30 16 0 10 5 19 10 19 6 0 10
6 9 13 -4 34 1 40 19 24 24 -22 29 -21 28 6 -1 16 4 21 17 19 9 -2 17 2 17 8
0 7 6 8 17 2 24 -14 72 31 55 51 -10 12 -9 16 8 20 17 4 19 9 10 32 -13 35
-13 40 5 25 8 -7 15 -19 15 -26 0 -8 5 -14 10 -14 6 0 10 8 10 18 0 14 2 15
10 2 13 -20 12 -10 -4 53 -14 53 -66 139 -173 285 -30 39 -57 72 -61 72 -12 0
-122 137 -123 152 0 7 -4 4 -8 -6 -7 -17 -9 -16 -30 12 -16 23 -20 38 -15 59
7 25 6 27 -9 14 -10 -7 -17 -9 -17 -4 0 5 -15 9 -33 10 -36 1 -103 52 -79 60
6 3 12 13 12 24 0 22 0 22 34 9 17 -6 26 -17 26 -32 0 -17 3 -19 9 -9 6 9 11
10 15 2 17 -26 27 -9 21 32 -7 42 -7 42 13 24 11 -10 23 -34 26 -53 4 -19 13
-34 20 -34 9 0 12 9 8 27 -5 28 -5 28 16 10 14 -13 21 -15 24 -6 2 7 11 1 21
-14 14 -22 14 -25 2 -21 -19 8 -20 -16 -1 -41 12 -17 13 -17 20 9 4 15 11 24
16 21 6 -3 10 2 10 13 0 27 8 31 41 22 21 -6 29 -5 29 4 0 17 -74 76 -95 76
-13 0 -16 6 -11 26 5 19 2 30 -11 39 -10 7 -15 17 -10 21 4 4 26 -11 49 -34
22 -23 46 -42 51 -42 6 0 -1 13 -16 28 -26 27 -36 62 -19 62 15 0 52 -46 52
-65 0 -10 3 -15 7 -12 3 4 6 20 5 37 -1 33 9 38 28 15 7 -8 17 -15 22 -15 6 0
7 7 4 15 -3 8 -9 23 -12 33 -5 14 -4 14 5 2 19 -27 30 15 16 63 -9 35 1 46 20
21 14 -18 14 -17 9 14 -6 29 -4 32 19 32 14 0 29 5 32 10 8 13 -34 105 -74
160 -17 23 -31 48 -31 53 0 6 -9 20 -20 32 -11 12 -21 38 -23 61 -1 21 -5 44
-9 49 -9 16 10 55 27 55 8 0 15 8 15 19 0 22 35 34 61 20 32 -16 32 10 0 49
-39 50 -50 92 -25 92 14 0 15 3 6 12 -20 20 -14 26 28 33 46 8 49 19 18 71
-19 32 -20 38 -6 48 19 14 16 97 -5 147 -8 19 -51 75 -95 126 -46 51 -76 93
-69 96 16 5 -7 57 -26 57 -22 0 -47 34 -47 63 0 15 4 27 8 27 11 0 52 -44 52
-56 0 -5 12 -20 26 -33 15 -15 24 -32 21 -43 -3 -10 -1 -20 4 -23 4 -3 11 6
15 20 4 17 11 24 20 21 9 -4 14 2 14 16 0 16 3 19 11 11 12 -12 39 -6 51 11 5
7 8 7 8 -1 0 -7 5 -13 11 -13 18 0 -1 82 -24 108 -13 14 -27 20 -39 16 -16 -5
-18 -2 -13 23 4 15 8 34 11 41 3 11 -14 16 -42 13 -6 -1 -17 6 -25 15 -11 13
-10 17 2 24 8 6 18 5 23 0 6 -6 18 -10 27 -10 10 0 20 -6 22 -12 3 -7 6 -1 6
14 1 22 -3 26 -16 21 -13 -5 -15 -2 -11 15 5 17 2 22 -13 22 -11 0 -16 -5 -13
-14 4 -9 -3 -14 -20 -13 -27 0 -35 12 -13 20 9 4 9 8 -2 15 -7 5 -10 15 -7 21
4 6 4 17 0 23 -14 22 -12 52 3 70 18 20 43 13 43 -12 0 -9 9 -25 19 -34 11
-10 17 -23 15 -30 -3 -7 2 -18 10 -25 21 -17 29 2 21 49 -5 29 -12 40 -25 40
-10 0 -30 17 -46 38 -15 20 -32 39 -36 40 -4 2 -8 8 -8 12 0 11 71 1 85 -11
16 -15 32 -10 38 12 4 15 11 20 22 15 12 -4 15 -1 11 12 -4 12 3 21 21 30 37
17 73 15 73 -3 0 -8 4 -15 9 -15 18 0 22 19 9 42 -7 13 -11 26 -10 31 1 4 -2
7 -8 7 -6 0 -6 9 0 26 8 19 6 31 -5 47 -8 12 -15 36 -15 54 0 17 -4 34 -9 38
-6 3 -24 31 -42 63 -18 34 -73 100 -130 157 -54 55 -94 102 -89 103 15 5 12
28 -5 42 -15 13 -16 64 -2 87 4 6 4 19 0 30 -6 16 -5 16 10 4 37 -30 14 9 -29
49 -25 23 -44 44 -41 46 2 3 10 -2 17 -11 7 -8 22 -15 34 -15 11 0 30 -7 40
-15 11 -8 29 -15 40 -15 18 1 19 2 6 13 -9 7 -26 27 -39 46 -24 33 -24 33 -2
26 42 -13 22 26 -61 118 -153 170 -436 391 -725 565 -153 93 -361 199 -495
253 -343 140 -400 162 -488 190 -52 17 -99 34 -105 39 -5 4 -26 11 -45 14 -19
4 -44 11 -55 16 -44 20 -189 57 -440 115 -33 7 -127 30 -208 49 -178 44 -265
60 -459 86 -81 10 -185 26 -230 34 -46 8 -159 20 -253 25 -219 14 -900 10
-1025 -6z m-3020 -1113 c0 -5 -7 -10 -15 -10 -8 0 -15 5 -15 10 0 6 7 10 15
10 8 0 15 -4 15 -10z m-40 -24 c0 -3 -13 -14 -30 -26 -20 -14 -28 -16 -24 -7
3 8 15 19 27 25 27 13 27 13 27 8z m7653 -1524 c9 -8 17 -19 17 -23 0 -5 -8
-6 -17 -2 -22 8 -53 33 -53 44 0 11 31 0 53 -19z m17 -51 c19 -1 40 -7 45 -13
7 -8 4 -9 -8 -4 -16 5 -18 2 -12 -24 4 -20 3 -30 -5 -30 -14 0 -78 58 -92 85
-10 18 -10 18 13 4 13 -8 40 -16 59 -18z m-57 -51 c16 -16 24 -30 18 -30 -12
0 -51 40 -51 52 0 12 3 10 33 -22z m-8300 -249 c-6 -3 -13 -13 -16 -21 -3 -9
-6 -4 -6 12 -1 14 5 28 12 31 15 5 23 -13 10 -22z m117 -991 c0 -5 -4 -10 -10
-10 -5 0 -10 5 -10 10 0 6 5 10 10 10 6 0 10 -4 10 -10z m48 -12 c-6 -18 -28
-21 -28 -4 0 9 7 16 16 16 9 0 14 -5 12 -12z m-17 -71 c-8 -8 -11 -7 -11 4 0
20 13 34 18 19 3 -7 -1 -17 -7 -23z m49 -1 c0 -2 -7 -6 -15 -10 -8 -3 -15 -1
-15 4 0 6 7 10 15 10 8 0 15 -2 15 -4z m170 -27 c0 -6 -4 -7 -10 -4 -5 3 -10
11 -10 16 0 6 5 7 10 4 6 -3 10 -11 10 -16z m8037 -51 c-3 -8 -6 -5 -6 6 -1
11 2 17 5 13 3 -3 4 -12 1 -19z m-197 -58 c0 -5 6 -10 14 -10 8 0 17 -4 20 -9
7 -11 -3 -41 -13 -41 -10 1 -40 70 -30 70 5 0 9 -4 9 -10z m110 -150 c0 -5 -4
-10 -10 -10 -5 0 -10 5 -10 10 0 6 5 10 10 10 6 0 10 -4 10 -10z m-5403 -276
c-3 -3 -12 -4 -19 -1 -8 3 -5 6 6 6 11 1 17 -2 13 -5z m-57 -8 c0 -3 -4 -8
-10 -11 -5 -3 -10 -1 -10 4 0 6 5 11 10 11 6 0 10 -2 10 -4z m87 -37 c-9 -6
-15 -14 -12 -20 4 -5 2 -9 -3 -9 -12 0 -23 26 -15 34 4 3 16 6 27 6 19 -1 20
-1 3 -11z m63 -19 c-8 -5 -22 -10 -30 -10 -13 0 -13 1 0 10 8 5 22 10 30 10
13 0 13 -1 0 -10z m-200 -10 c0 -5 -7 -10 -16 -10 -8 0 -12 5 -9 10 3 6 10 10
16 10 5 0 9 -4 9 -10z m347 -16 c-3 -3 -12 -4 -19 -1 -8 3 -5 6 6 6 11 1 17
-2 13 -5z m-102 -20 c-62 -17 -79 -17 -40 1 17 8 44 14 60 14 24 -1 21 -3 -20
-15z m-265 -4 c0 -5 -4 -10 -9 -10 -6 0 -13 5 -16 10 -3 6 1 10 9 10 9 0 16
-4 16 -10z m375 0 c-3 -5 -10 -10 -16 -10 -5 0 -9 5 -9 10 0 6 7 10 16 10 8 0
12 -4 9 -10z m-118 -26 c-3 -3 -12 -4 -19 -1 -8 3 -5 6 6 6 11 1 17 -2 13 -5z
m1193 -4 c0 -5 -10 -10 -22 -9 -22 0 -22 1 -3 9 11 5 21 9 23 9 1 1 2 -3 2 -9z
m-1103 -6 c-3 -3 -12 -4 -19 -1 -8 3 -5 6 6 6 11 1 17 -2 13 -5z m53 -16 c-19
-6 -37 -13 -40 -17 -12 -15 -58 -29 -71 -20 -11 7 -10 9 6 9 17 0 17 2 5 10
-13 9 -13 10 0 11 8 0 4 4 -9 8 -13 3 14 7 60 7 70 1 78 0 49 -8z m870 1 c0
-7 18 -8 54 -4 58 8 136 -1 136 -15 0 -12 -100 -11 -122 1 -9 5 -19 5 -22 1
-7 -12 -156 -14 -156 -3 0 12 37 24 50 16 5 -3 18 -1 27 4 23 13 33 14 33 0z
m-1084 -24 c-8 -8 -27 -15 -43 -14 -28 1 -28 1 7 14 47 18 54 18 36 0z m949 5
c-3 -5 -13 -10 -21 -10 -8 0 -12 5 -9 10 3 6 13 10 21 10 8 0 12 -4 9 -10z
m410 0 c-3 -5 -22 -10 -41 -10 -46 0 -36 15 11 18 23 2 34 -1 30 -8z m-1302
-20 c-4 -13 -14 -20 -31 -20 l-25 0 23 20 c13 11 26 20 31 20 4 0 5 -9 2 -20z
m-2579 -35 c-4 -8 -11 -15 -16 -15 -6 0 -5 6 2 15 7 8 14 15 16 15 2 0 1 -7
-2 -15z m2511 5 c-3 -5 -13 -10 -21 -10 -8 0 -14 5 -14 10 0 6 9 10 21 10 11
0 17 -4 14 -10z m870 -16 c-68 -16 -185 -30 -127 -15 19 5 39 14 45 20 6 6 40
11 77 10 l65 -1 -60 -14z m274 -25 c-16 -10 -23 -4 -14 10 3 6 11 8 17 5 6 -4
5 -9 -3 -15z m536 1 c-19 -21 -75 -28 -75 -10 0 11 2 11 38 15 12 1 25 5 29 9
16 16 24 4 8 -14z m-262 0 c-13 -5 -23 -15 -23 -22 0 -9 3 -9 12 0 7 7 35 12
63 12 36 0 46 -3 35 -10 -12 -8 -12 -10 5 -11 11 -1 5 -5 -15 -10 -19 -4 -64
-5 -100 -2 -64 6 -64 7 -35 19 17 7 24 13 18 14 -7 0 -13 5 -13 10 0 6 17 10
38 9 32 0 34 -1 15 -9z m145 -2 c-6 -18 -25 -20 -31 -3 -5 10 0 15 14 15 12 0
19 -5 17 -12z m635 -34 c31 -3 60 -10 63 -15 5 -8 -42 -5 -123 7 -18 3 -33 10
-33 15 0 6 8 8 18 5 9 -3 43 -8 75 -12z m-418 -14 c28 -6 42 -6 47 3 6 9 11 7
19 -5 5 -10 17 -18 25 -18 8 0 12 5 9 10 -4 6 5 10 19 10 14 0 26 -5 26 -11 0
-6 -6 -9 -14 -6 -8 3 -17 -1 -20 -8 -4 -11 -12 -12 -33 -5 -46 14 -163 22
-163 10 0 -12 -58 -12 -85 1 -15 7 -10 8 18 4 21 -4 37 -2 37 4 0 5 -15 12
-32 14 -18 2 -1 4 37 5 39 1 88 -3 110 -8z m-355 -20 c-8 -5 -59 -8 -115 -8
-120 1 -83 15 45 17 55 0 80 -3 70 -9z m67 4 c-3 -3 -12 -4 -19 -1 -8 3 -5 6
6 6 11 1 17 -2 13 -5z m93 -4 c0 -12 -27 -12 -55 0 -16 7 -13 9 18 9 20 1 37
-3 37 -9z m613 -4 c40 -8 89 -17 111 -21 66 -11 35 -13 -49 -4 -44 6 -95 11
-112 12 -36 3 -71 27 -40 27 10 0 50 -6 90 -14z m-120 -3 c-7 -2 -21 -2 -30 0
-10 3 -4 5 12 5 17 0 24 -2 18 -5z m-1133 -13 c-36 -4 -84 -12 -108 -18 -36
-8 -41 -8 -32 3 14 17 45 22 135 22 l70 0 -65 -7z m829 1 c10 -6 1 -11 -30
-17 -24 -5 -50 -9 -58 -9 -27 0 -24 -25 3 -25 29 0 35 -14 10 -24 -25 -10 -74
-7 -74 4 0 13 -76 13 -102 -1 -16 -9 -19 -8 -13 1 6 10 -5 12 -49 8 -37 -3
-60 -1 -66 7 -13 16 53 28 108 20 88 -13 131 -11 137 4 3 8 0 18 -7 22 -7 5
14 9 47 12 33 2 65 4 70 5 6 1 16 -2 24 -7z m-181 -8 c-10 -2 -26 -2 -35 0
-10 3 -2 5 17 5 19 0 27 -2 18 -5z m-318 -26 c-24 -11 -24 -11 15 -15 22 -2
41 1 43 7 6 17 32 13 32 -4 0 -8 -1 -15 -2 -15 -2 -1 -52 -3 -113 -6 -60 -3
-125 -9 -142 -14 -18 -5 -42 -6 -53 -3 -11 3 -20 0 -20 -6 0 -6 -13 -9 -32 -7
-18 3 -41 5 -50 5 -10 1 -18 6 -18 11 0 6 24 11 53 11 28 1 43 3 32 6 -45 11
-32 20 37 26 40 3 87 4 103 2 17 -2 46 0 65 5 19 4 44 8 55 8 17 1 16 -1 -5
-11z m800 -4 c0 -18 -52 -16 -76 2 -17 13 -15 14 28 12 31 -1 48 -7 48 -14z
m47 11 c-3 -3 -12 -4 -19 -1 -8 3 -5 6 6 6 11 1 17 -2 13 -5z m-174 -32 c-1
-6 21 -8 61 -5 59 5 64 4 71 -16 3 -12 10 -19 14 -17 4 3 50 -2 102 -11 52 -8
114 -17 139 -20 25 -3 50 -12 57 -20 7 -9 19 -13 28 -10 19 8 45 -1 45 -15 0
-14 -83 -3 -88 11 -2 6 -10 11 -18 11 -9 0 -12 -4 -9 -10 3 -5 -3 -10 -15 -10
-11 0 -23 7 -26 15 -4 10 -21 15 -54 15 -27 0 -52 5 -56 11 -5 8 -34 10 -93 7
-47 -3 -72 -2 -56 1 l30 7 -39 7 c-22 3 -46 3 -54 -2 -8 -4 -30 -2 -51 5 -20
7 -55 13 -78 14 -61 0 -61 16 -1 23 28 4 56 11 62 17 12 12 32 7 29 -8z
m-1005 1 c-10 -2 -26 -2 -35 0 -10 3 -2 5 17 5 19 0 27 -2 18 -5z m4592 -15
c0 -19 -2 -20 -10 -8 -13 19 -13 30 0 30 6 0 10 -10 10 -22z m-2823 6 c-3 -3
-12 -4 -19 -1 -8 3 -5 6 6 6 11 1 17 -2 13 -5z m-564 -11 c-7 -2 -21 -2 -30 0
-10 3 -4 5 12 5 17 0 24 -2 18 -5z m614 1 c-3 -3 -12 -4 -19 -1 -8 3 -5 6 6 6
11 1 17 -2 13 -5z m-3398 -68 c-2 -2 -15 -7 -29 -10 l-25 -7 25 15 c21 12 42
14 29 2z m61 -1 c0 -8 -89 -45 -103 -44 -7 0 11 11 38 25 51 24 65 28 65 19z
m1210 -34 c0 -11 -50 -24 -58 -16 -8 8 19 25 41 25 9 0 17 -4 17 -9z m1949
-20 c14 -8 37 -10 57 -6 25 4 34 2 34 -8 0 -24 -9 -25 -93 -10 -110 19 -112
20 -98 37 13 15 58 9 100 -13z m-1859 0 c0 -12 -36 -21 -85 -21 -22 -1 -70 -7
-107 -14 -38 -7 -68 -9 -68 -5 0 10 17 14 145 32 55 8 103 15 108 16 4 0 7 -3
7 -8z m-1410 -17 c0 -9 -93 -45 -104 -40 -6 2 6 11 26 20 20 9 39 20 43 25 5
9 35 4 35 -5z m30 6 c0 -5 -4 -10 -10 -10 -5 0 -10 5 -10 10 0 6 5 10 10 10 6
0 10 -4 10 -10z m3120 0 c0 -5 -7 -10 -15 -10 -8 0 -15 5 -15 10 0 6 7 10 15
10 8 0 15 -4 15 -10z m-3355 -60 c-28 -12 -37 -12 -30 0 3 6 16 10 28 9 21 0
21 -1 2 -9z m25 -14 c0 -2 -7 -7 -16 -10 -8 -3 -12 -2 -9 4 6 10 25 14 25 6z
m3680 -16 c8 -5 12 -11 9 -14 -7 -8 -49 5 -49 15 0 12 21 11 40 -1z m-3785
-50 c-3 -5 -11 -10 -16 -10 -6 0 -7 5 -4 10 3 6 11 10 16 10 6 0 7 -4 4 -10z
m-111 -55 c-4 -8 -26 -24 -51 -35 -49 -22 -69 -26 -39 -9 15 9 16 13 5 20 -11
7 -10 9 4 9 11 0 15 4 11 11 -5 8 1 10 19 5 14 -3 29 -2 32 4 10 16 25 12 19
-5z m-1514 -10 c0 -8 -7 -15 -15 -15 -26 0 -18 20 13 29 1 1 2 -6 2 -14z
m5795 -55 c3 -6 -1 -7 -9 -4 -18 7 -21 14 -7 14 6 0 13 -4 16 -10z m154 -72
c23 -12 41 -25 41 -30 0 -12 -6 -10 -47 18 -62 42 -59 47 6 12z m-5861 -48
c-5 -17 -14 -32 -18 -35 -12 -7 -9 37 3 53 17 22 26 12 15 -18z m5942 10 c0
-5 -4 -10 -10 -10 -5 0 -10 5 -10 10 0 6 5 10 10 10 6 0 10 -4 10 -10z m-5750
-30 c0 -5 -5 -10 -11 -10 -5 0 -7 5 -4 10 3 6 8 10 11 10 2 0 4 -4 4 -10z
m6037 -86 c54 -36 54 -39 1 -13 -27 13 -48 27 -48 31 0 12 6 10 47 -18z m698
-21 c35 -40 31 -52 -5 -17 -28 27 -37 44 -25 44 3 0 17 -12 30 -27z m-5735
-59 c0 -3 -13 -10 -30 -15 -16 -6 -30 -15 -30 -20 0 -5 -10 -9 -22 -9 -13 0
-47 -11 -75 -25 -29 -13 -53 -21 -53 -16 0 7 24 18 140 64 75 30 70 29 70 21z
m-360 -28 c0 -3 -4 -8 -10 -11 -5 -3 -10 -1 -10 4 0 6 5 11 10 11 6 0 10 -2
10 -4z m6223 -10 c24 -18 21 -24 -8 -18 -14 2 -25 11 -25 18 0 17 10 17 33 0z
m-6819 -20 c-10 -8 -21 -12 -24 -10 -5 6 21 24 34 24 6 0 1 -6 -10 -14z m240
-1 c-25 -19 -35 -19 -28 0 4 8 16 15 27 15 20 0 20 0 1 -15z m-251 -49 c8 -21
-48 -76 -77 -76 -14 0 -26 2 -26 4 0 10 48 56 57 56 6 0 16 7 23 15 15 18 17
18 23 1z m727 6 c0 -8 -58 -32 -76 -32 -10 1 56 39 69 40 4 0 7 -4 7 -8z
m-942 -29 c-15 -15 -30 -24 -34 -21 -8 8 32 48 48 48 7 0 0 -12 -14 -27z m266
-7 c-3 -9 -10 -16 -15 -16 -6 0 -5 9 1 21 13 24 24 20 14 -5z m256 4 c0 -5 -7
-10 -16 -10 -8 0 -12 5 -9 10 3 6 10 10 16 10 5 0 9 -4 9 -10z m-636 -35 c-4
-8 -10 -15 -15 -15 -4 0 -6 7 -3 15 4 8 10 15 15 15 4 0 6 -7 3 -15z m634 -42
c-11 -22 -20 -27 -40 -25 -15 1 -29 -2 -33 -8 -7 -12 -45 -14 -45 -2 0 8 122
73 128 67 2 -2 -2 -16 -10 -32z m-164 -15 c-3 -5 -10 -6 -15 -3 -5 4 -9 1 -9
-4 0 -6 -8 -11 -17 -11 -14 0 -12 4 7 25 17 18 26 22 31 13 4 -7 5 -16 3 -20z
m-312 -30 c-7 -7 -12 -8 -12 -2 0 14 12 26 19 19 2 -3 -1 -11 -7 -17z m328 -2
c0 -3 -4 -8 -10 -11 -5 -3 -10 -1 -10 4 0 6 5 11 10 11 6 0 10 -2 10 -4z"/>
<path d="M1195 5560 c-3 -5 -1 -10 4 -10 6 0 11 5 11 10 0 6 -2 10 -4 10 -3 0
-8 -4 -11 -10z"/>
<path d="M9110 5204 c0 -20 27 -47 40 -39 5 3 22 -2 37 -11 18 -11 12 -2 -17
24 -48 45 -60 51 -60 26z"/>
<path d="M9275 5080 c3 -5 13 -10 21 -10 8 0 12 5 9 10 -3 6 -13 10 -21 10 -8
0 -12 -4 -9 -10z"/>
<path d="M1020 4573 c0 -29 12 -24 17 7 2 11 -2 20 -7 20 -6 0 -10 -12 -10
-27z"/>
<path d="M9350 4584 c0 -5 7 -18 15 -28 8 -11 15 -16 15 -10 0 5 -7 18 -15 28
-8 11 -15 16 -15 10z"/>
<path d="M9500 4514 c0 -5 7 -19 15 -30 8 -10 15 -14 15 -8 0 5 -7 19 -15 30
-8 10 -15 14 -15 8z"/>
<path d="M9318 4491 c1 -3 -10 -12 -24 -22 -16 -10 -22 -19 -15 -24 6 -3 9
-10 6 -15 -3 -5 -1 -11 5 -15 5 -3 10 -2 10 3 0 5 9 12 20 15 23 6 26 26 8 48
-7 8 -12 12 -10 10z"/>
<path d="M9380 4480 c0 -5 5 -10 11 -10 5 0 7 5 4 10 -3 6 -8 10 -11 10 -2 0
-4 -4 -4 -10z"/>
<path d="M9370 4442 c0 -5 7 -13 16 -16 10 -4 14 -1 12 6 -5 15 -28 23 -28 10z"/>
<path d="M9430 4392 c0 -11 53 -82 61 -82 25 0 -5 62 -36 77 -14 6 -25 8 -25
5z"/>
<path d="M9356 4164 c-3 -9 -6 -23 -6 -31 0 -13 3 -13 15 -3 17 14 20 36 6 44
-5 3 -12 -1 -15 -10z"/>
<path d="M9310 4128 c0 -7 7 -26 15 -41 8 -15 12 -34 9 -41 -5 -13 24 -31 34
-22 6 7 -41 116 -50 116 -5 0 -8 -6 -8 -12z"/>
<path d="M800 3814 c0 -8 5 -12 10 -9 6 4 8 11 5 16 -9 14 -15 11 -15 -7z"/>
<path d="M716 3724 c-4 -9 -4 -19 -1 -22 2 -3 7 3 11 12 4 9 4 19 1 22 -2 3
-7 -3 -11 -12z"/>
<path d="M705 3671 c-3 -5 -1 -12 4 -15 5 -3 11 1 15 9 6 16 -9 21 -19 6z"/>
<path d="M737 3623 c-10 -9 -9 -23 1 -23 5 0 17 7 28 15 19 14 19 14 -2 15
-11 0 -24 -3 -27 -7z"/>
<path d="M9336 3264 c-9 -23 -7 -34 4 -34 5 0 6 7 3 17 -4 11 -3 14 5 9 7 -4
12 -3 12 3 0 17 -18 21 -24 5z"/>
<path d="M946 2764 c-4 -10 -1 -14 6 -12 15 5 23 28 10 28 -5 0 -13 -7 -16
-16z"/>
<path d="M902 2656 c0 -44 18 -68 18 -25 0 11 5 30 11 42 7 12 8 19 4 15 -5
-4 -14 -3 -21 3 -11 9 -13 2 -12 -35z"/>
<path d="M9247 2585 c10 -13 21 -25 26 -25 14 0 7 38 -9 44 -30 11 -35 6 -17
-19z"/>
<path d="M975 2569 c-4 -6 -5 -12 -2 -15 2 -3 7 2 10 11 7 17 1 20 -8 4z"/>
<path d="M9320 2564 c0 -8 43 -43 54 -44 5 0 -1 11 -14 25 -22 24 -40 32 -40
19z"/>
<path d="M9410 2512 c0 -13 39 -46 46 -40 8 9 -19 48 -33 48 -7 0 -13 -4 -13
-8z"/>
<path d="M8995 2440 c3 -5 8 -10 11 -10 2 0 4 5 4 10 0 6 -5 10 -11 10 -5 0
-7 -4 -4 -10z"/>
<path d="M9204 2311 c11 -12 14 -21 7 -26 -7 -4 -8 -12 -1 -24 5 -10 7 -21 3
-24 -3 -4 0 -14 7 -23 12 -14 15 -13 32 8 24 31 23 35 -17 74 -37 36 -60 47
-31 15z"/>
<path d="M9167 2283 c-12 -12 -7 -34 13 -55 16 -18 20 -19 20 -5 0 8 -5 19
-10 22 -6 4 -8 15 -5 26 6 18 -5 26 -18 12z"/>
<path d="M3878 2003 c7 -3 16 -2 19 1 4 3 -2 6 -13 5 -11 0 -14 -3 -6 -6z"/>
<path d="M3988 1985 c-25 -7 -54 -18 -65 -24 -30 -17 40 -14 84 4 19 8 50 15
67 15 17 0 38 5 46 10 22 14 -74 10 -132 -5z"/>
<path d="M4305 1970 c-7 -12 22 -12 50 0 17 7 15 9 -12 9 -17 1 -35 -3 -38 -9z"/>
<path d="M4205 1960 c-7 -12 19 -12 55 0 22 7 21 8 -12 9 -20 1 -40 -3 -43 -9z"/>
<path d="M3740 1935 c-32 -12 -33 -14 -9 -14 14 -1 34 6 45 14 23 18 10 18
-36 0z"/>
<path d="M4276 1935 c-19 -14 -19 -15 5 -15 14 0 34 7 45 15 18 14 18 14 -6
14 -14 0 -34 -6 -44 -14z"/>
<path d="M4000 1924 c-30 -7 -98 -23 -150 -35 -84 -20 -182 -45 -315 -81 -36
-10 -80 -37 -72 -44 2 -2 31 8 66 22 67 27 258 77 381 99 95 17 141 29 166 43
19 11 18 11 -1 10 -11 0 -45 -7 -75 -14z"/>
<path d="M3606 1904 c-21 -7 -42 -11 -47 -9 -4 3 -15 -5 -24 -19 -11 -17 -22
-22 -37 -18 -15 4 -19 2 -14 -7 8 -13 44 -9 103 12 21 7 28 14 21 18 -7 5 -1
10 18 14 16 4 40 11 54 15 24 8 24 8 -5 9 -16 0 -47 -7 -69 -15z"/>
<path d="M880 1879 c0 -5 5 -7 10 -4 6 3 10 8 10 11 0 2 -4 4 -10 4 -5 0 -10
-5 -10 -11z"/>
<path d="M4278 1873 c7 -3 16 -2 19 1 4 3 -2 6 -13 5 -11 0 -14 -3 -6 -6z"/>
<path d="M4088 1851 c-37 -9 -73 -22 -80 -29 -6 -6 -32 -12 -57 -13 -26 0 -55
-5 -66 -10 -17 -8 -16 -9 8 -6 30 5 38 -17 11 -27 -9 -4 -15 -9 -12 -11 7 -8
89 23 102 38 17 20 189 72 205 63 4 -3 13 -1 21 5 24 14 -57 9 -132 -10z"/>
<path d="M3265 1820 c-3 -5 3 -10 14 -10 12 0 21 5 21 10 0 6 -6 10 -14 10 -8
0 -18 -4 -21 -10z"/>
<path d="M3375 1819 c-10 -15 3 -25 16 -12 7 7 7 13 1 17 -6 3 -14 1 -17 -5z"/>
<path d="M1000 1780 c0 -5 7 -10 16 -10 8 0 12 5 9 10 -3 6 -10 10 -16 10 -5
0 -9 -4 -9 -10z"/>
<path d="M3830 1775 c-7 -8 -20 -15 -29 -16 -10 0 -11 -2 -4 -6 7 -2 25 5 39
16 15 12 22 21 17 21 -6 0 -16 -7 -23 -15z"/>
<path d="M3360 1760 c0 -5 7 -7 15 -4 8 4 15 8 15 10 0 2 -7 4 -15 4 -8 0 -15
-4 -15 -10z"/>
<path d="M3468 1753 c-19 -5 -24 -18 -10 -26 12 -8 54 12 47 23 -6 10 -9 11
-37 3z"/>
<path d="M4120 1749 c-25 -5 -97 -21 -160 -36 -94 -22 -119 -32 -139 -54 -44
-50 -34 -90 13 -54 14 11 16 15 5 15 -12 0 -12 2 1 10 8 5 26 9 40 9 22 0 23
-1 6 -8 -13 -5 -16 -10 -8 -15 14 -8 45 10 61 36 11 18 10 19 -11 13 -48 -14
-62 -15 -35 -2 15 7 25 16 21 19 -7 8 15 15 91 28 103 17 140 26 160 38 23 13
17 13 -45 1z m-250 -79 c-8 -5 -22 -9 -30 -9 -10 0 -8 3 5 9 27 12 43 12 25 0z"/>
<path d="M3688 1733 c-10 -2 -18 -9 -18 -14 0 -6 7 -6 18 -1 9 5 24 12 32 15
13 5 13 5 0 5 -8 0 -23 -2 -32 -5z"/>
<path d="M3305 1694 c-44 -19 -71 -33 -60 -30 32 7 154 52 162 59 15 15 -27 3
-102 -29z"/>
<path d="M3862 1713 c-24 -8 -42 -16 -40 -18 3 -3 102 21 123 29 29 12 -46 2
-83 -11z"/>
<path d="M3718 1713 c7 -3 16 -2 19 1 4 3 -2 6 -13 5 -11 0 -14 -3 -6 -6z"/>
<path d="M3405 1680 c-33 -11 -71 -20 -85 -20 -35 0 -58 -16 -44 -30 7 -7 19
-6 40 5 43 22 65 18 24 -5 -19 -11 -29 -19 -21 -20 15 0 181 78 181 86 0 9
-37 2 -95 -16z"/>
<path d="M4005 1690 c-7 -12 2 -12 30 0 19 8 19 9 -2 9 -12 1 -25 -3 -28 -9z"/>
<path d="M9398 1669 c6 -7 12 -21 12 -31 0 -9 10 -22 22 -29 18 -10 20 -9 15
5 -19 45 -18 51 2 27 15 -16 21 -19 21 -8 0 19 -19 34 -55 42 -25 6 -28 5 -17
-6z"/>
<path d="M3605 1660 c-13 -6 -15 -9 -5 -9 8 0 22 4 30 9 18 12 2 12 -25 0z"/>
<path d="M3518 1643 c7 -3 16 -2 19 1 4 3 -2 6 -13 5 -11 0 -14 -3 -6 -6z"/>
<path d="M4738 1643 c7 -3 16 -2 19 1 4 3 -2 6 -13 5 -11 0 -14 -3 -6 -6z"/>
<path d="M3983 1634 c6 -10 -16 -25 -53 -37 -8 -3 -4 -5 10 -5 32 0 112 26 85
27 -12 1 -27 7 -34 14 -8 6 -11 7 -8 1z"/>
<path d="M9210 1631 c0 -18 12 -41 21 -41 15 0 10 37 -6 44 -8 3 -15 1 -15 -3z"/>
<path d="M3658 1623 c7 -3 16 -2 19 1 4 3 -2 6 -13 5 -11 0 -14 -3 -6 -6z"/>
<path d="M3393 1606 c-18 -6 -35 -15 -39 -19 -14 -13 21 -6 61 12 44 21 29 26
-22 7z"/>
<path d="M3580 1590 c-26 -17 -52 -27 -62 -24 -12 3 -18 0 -18 -10 0 -9 3 -16
6 -16 14 0 134 63 134 71 0 15 -13 10 -60 -21z"/>
<path d="M3730 1610 c-13 -8 -13 -10 2 -10 9 0 20 5 23 10 8 13 -5 13 -25 0z"/>
<path d="M3108 1588 l-23 -21 30 7 c37 9 51 22 31 29 -8 3 -25 -4 -38 -15z"/>
<path d="M3660 1595 c-7 -8 -8 -15 -2 -15 5 0 15 7 22 15 7 8 8 15 2 15 -5 0
-15 -7 -22 -15z"/>
<path d="M3230 1585 c-14 -8 -20 -14 -15 -14 6 0 21 6 35 14 14 8 21 14 15 14
-5 0 -21 -6 -35 -14z"/>
<path d="M9100 1591 c0 -6 5 -13 10 -16 6 -3 10 1 10 9 0 9 -4 16 -10 16 -5 0
-10 -4 -10 -9z"/>
<path d="M3818 1574 c-73 -22 -57 -34 18 -13 37 10 69 21 72 24 10 10 -43 3
-90 -11z"/>
<path d="M3624 1554 c-55 -22 -105 -56 -59 -40 11 4 55 19 98 32 42 14 77 27
77 29 0 11 -68 -1 -116 -21z"/>
<path d="M3205 1558 c-41 -14 -57 -29 -51 -45 4 -8 -2 -13 -16 -13 -17 0 -18
2 -8 15 21 25 -5 18 -97 -25 -47 -22 -90 -40 -95 -40 -5 0 -22 -10 -38 -21
-21 -16 -37 -20 -60 -15 -26 5 -37 1 -62 -24 -34 -35 -24 -38 34 -10 23 11 48
20 55 20 7 0 36 12 65 28 36 19 52 23 55 15 5 -15 33 -17 33 -3 0 6 -6 10 -12
11 -7 0 10 11 37 24 34 16 60 23 81 19 21 -4 34 -1 43 10 8 9 20 16 27 16 8 0
14 4 14 9 0 5 17 16 38 24 31 14 33 16 12 16 -14 0 -38 -5 -55 -11z"/>
<path d="M3422 1529 c-24 -10 -41 -23 -38 -28 3 -5 0 -9 -7 -8 -33 1 -46 -5
-61 -28 -15 -23 -15 -26 -1 -31 23 -9 65 5 65 21 0 8 9 15 19 15 11 0 23 5 26
10 4 6 15 8 24 5 10 -3 24 1 31 10 7 8 20 15 30 15 10 0 23 7 31 16 11 13 9
14 -17 8 -16 -3 -35 -14 -42 -23 -7 -8 -27 -16 -44 -17 -30 -2 -31 -1 -13 12
10 8 24 14 31 14 6 0 14 7 18 15 7 19 1 18 -52 -6z"/>
<path d="M3700 1543 c-8 -3 -26 -10 -39 -15 -13 -5 -21 -11 -18 -14 5 -5 107
25 107 32 0 6 -32 3 -50 -3z"/>
<path d="M3035 1525 c-16 -7 -23 -14 -15 -14 8 0 26 6 40 14 32 18 14 18 -25
0z"/>
<path d="M8888 1512 c-3 -12 2 -23 14 -31 18 -11 19 -10 13 11 -10 34 -22 42
-27 20z"/>
<path d="M8974 1519 c-7 -12 15 -59 28 -59 9 0 11 31 2 54 -7 19 -20 21 -30 5z"/>
<path d="M6148 1513 c7 -3 16 -2 19 1 4 3 -2 6 -13 5 -11 0 -14 -3 -6 -6z"/>
<path d="M9430 1514 c0 -3 5 -14 10 -25 16 -28 32 -23 18 6 -10 22 -28 35 -28
19z"/>
<path d="M2740 1470 c-8 -5 -10 -10 -5 -10 6 0 17 5 25 10 8 5 11 10 5 10 -5
0 -17 -5 -25 -10z"/>
<path d="M2691 1454 c0 -11 3 -14 6 -6 3 7 2 16 -1 19 -3 4 -6 -2 -5 -13z"/>
<path d="M2810 1450 c-8 -5 -10 -10 -5 -10 6 0 17 5 25 10 8 5 11 10 5 10 -5
0 -17 -5 -25 -10z"/>
<path d="M9390 1446 c0 -8 5 -18 10 -21 6 -3 10 1 10 9 0 8 -4 18 -10 21 -5 3
-10 -1 -10 -9z"/>
<path d="M2640 1430 c0 -5 4 -10 9 -10 6 0 13 5 16 10 3 6 -1 10 -9 10 -9 0
-16 -4 -16 -10z"/>
<path d="M3200 1410 c-45 -24 -28 -24 25 0 22 10 33 19 25 19 -8 0 -31 -8 -50
-19z"/>
<path d="M8974 1394 c3 -9 6 -22 6 -30 0 -8 6 -14 13 -12 14 3 67 -35 67 -48
0 -5 14 -25 30 -44 l29 -35 1 39 c0 45 -40 102 -58 84 -8 -8 -13 -7 -17 5 -4
9 -13 13 -21 10 -8 -3 -18 5 -25 21 -13 28 -35 37 -25 10z"/>
<path d="M1060 1389 c0 -5 9 -9 20 -9 11 0 20 2 20 4 0 2 -9 6 -20 9 -11 3
-20 1 -20 -4z"/>
<path d="M2708 1365 c-5 -25 14 -36 27 -15 3 6 2 10 -4 10 -6 0 -8 7 -5 15 4
8 2 15 -4 15 -5 0 -12 -11 -14 -25z"/>
<path d="M9414 1359 c1 -17 11 -36 20 -41 14 -8 16 -6 11 19 -11 46 -14 53
-25 53 -5 0 -8 -14 -6 -31z"/>
<path d="M3106 1365 c-14 -11 -16 -15 -5 -15 8 0 23 7 33 15 14 11 16 15 5 15
-8 0 -23 -7 -33 -15z"/>
<path d="M2550 1350 c-9 -6 -10 -10 -3 -10 6 0 15 5 18 10 8 12 4 12 -15 0z"/>
<path d="M2465 1310 c-16 -7 -17 -9 -3 -9 9 -1 20 4 23 9 7 11 7 11 -20 0z"/>
<path d="M8880 1313 c0 -4 5 -15 10 -23 8 -13 10 -13 10 2 0 9 -4 20 -10 23
-5 3 -10 3 -10 -2z"/>
<path d="M9023 1289 c4 -15 2 -19 -8 -15 -21 8 -25 -6 -9 -29 8 -11 14 -13 14
-6 0 8 6 11 15 7 16 -6 20 18 9 48 -9 24 -27 19 -21 -5z"/>
<path d="M9410 1289 c7 -11 14 -18 17 -15 8 8 -5 36 -17 36 -7 0 -7 -6 0 -21z"/>
<path d="M8960 1280 c0 -5 5 -10 10 -10 6 0 10 5 10 10 0 6 -4 10 -10 10 -5 0
-10 -4 -10 -10z"/>
<path d="M2768 1263 c6 -2 18 -2 25 0 6 3 1 5 -13 5 -14 0 -19 -2 -12 -5z"/>
<path d="M2820 1250 c-24 -15 -7 -19 20 -5 15 8 19 14 10 14 -8 1 -22 -3 -30
-9z"/>
<path d="M8832 1235 c11 -24 28 -34 28 -16 0 21 -13 41 -26 41 -11 0 -11 -5
-2 -25z"/>
<path d="M9205 1220 c9 -16 20 -30 24 -30 5 0 16 -3 25 -6 25 -10 19 13 -11
41 -39 36 -58 34 -38 -5z"/>
<path d="M1138 1233 c7 -3 16 -2 19 1 4 3 -2 6 -13 5 -11 0 -14 -3 -6 -6z"/>
<path d="M2713 1227 c-26 -11 -29 -22 -10 -30 7 -3 19 4 26 15 16 25 12 28
-16 15z"/>
<path d="M9138 1227 c10 -12 10 -16 0 -19 -21 -7 6 -15 29 -9 27 7 18 25 -17
36 -22 7 -23 6 -12 -8z"/>
<path d="M8970 1220 c0 -5 5 -10 11 -10 5 0 7 5 4 10 -3 6 -8 10 -11 10 -2 0
-4 -4 -4 -10z"/>
<path d="M9370 1221 c0 -5 7 -12 16 -15 24 -9 28 -7 14 9 -14 17 -30 20 -30 6z"/>
<path d="M2745 1210 c-3 -5 -2 -10 4 -10 5 0 13 5 16 10 3 6 2 10 -4 10 -5 0
-13 -4 -16 -10z"/>
<path d="M8830 1174 c0 -8 5 -12 10 -9 6 4 8 11 5 16 -9 14 -15 11 -15 -7z"/>
<path d="M8972 1178 c5 -15 28 -23 28 -10 0 5 -7 13 -16 16 -10 4 -14 1 -12
-6z"/>
<path d="M8890 1100 c0 -5 5 -10 10 -10 6 0 10 5 10 10 0 6 -4 10 -10 10 -5 0
-10 -4 -10 -10z"/>
<path d="M1075 1090 c-3 -5 -1 -10 4 -10 6 0 11 5 11 10 0 6 -2 10 -4 10 -3 0
-8 -4 -11 -10z"/>
<path d="M1060 1066 c0 -2 7 -7 16 -10 8 -3 12 -2 9 4 -6 10 -25 14 -25 6z"/>
<path d="M7770 1060 c0 -6 7 -10 15 -10 8 0 15 2 15 4 0 2 -7 6 -15 10 -8 3
-15 1 -15 -4z"/>
<path d="M8200 1050 c0 -5 5 -10 10 -10 6 0 10 5 10 10 0 6 -4 10 -10 10 -5 0
-10 -4 -10 -10z"/>
<path d="M7460 1046 c0 -2 7 -9 15 -16 12 -10 15 -10 15 4 0 9 -7 16 -15 16
-8 0 -15 -2 -15 -4z"/>
<path d="M8654 1039 c-10 -17 23 -46 38 -31 8 8 8 15 -2 27 -15 18 -26 19 -36
4z"/>
<path d="M8470 1030 c0 -5 5 -10 10 -10 6 0 10 5 10 10 0 6 -4 10 -10 10 -5 0
-10 -4 -10 -10z"/>
<path d="M7512 1008 c2 -16 11 -24 28 -26 14 -2 33 -12 43 -23 10 -10 24 -19
31 -19 24 0 76 -31 76 -46 0 -9 11 -14 31 -14 17 0 28 4 24 10 -9 14 -141 90
-157 90 -7 0 -24 12 -37 25 -29 31 -43 32 -39 3z"/>
<path d="M8380 1000 c0 -5 4 -10 9 -10 6 0 13 5 16 10 3 6 -1 10 -9 10 -9 0
-16 -4 -16 -10z"/>
<path d="M1997 886 c-4 -10 -1 -13 8 -9 8 3 12 9 9 14 -7 12 -11 11 -17 -5z"/>
<path d="M1415 669 c-4 -6 -5 -13 -2 -16 7 -7 27 6 27 18 0 12 -17 12 -25 -2z"/>
</g>
</svg>
