<?xml version="1.0" standalone="no"?>
<!DOCTYPE svg PUBLIC "-//W3C//DTD SVG 20010904//EN"
 "http://www.w3.org/TR/2001/REC-SVG-20010904/DTD/svg10.dtd">
<svg version="1.0" xmlns="http://www.w3.org/2000/svg"
 width="1600.000000pt" height="1132.000000pt" viewBox="0 0 1600.000000 1132.000000"
 preserveAspectRatio="xMidYMid meet">
<metadata>
Created by potrace 1.16, written by Peter Selinger 2001-2019
</metadata>
<g transform="translate(0.000000,1132.000000) scale(0.100000,-0.100000)"
fill="#000000" stroke="none">
<path d="M6960 9617 c3 -3 104 -11 225 -18 121 -6 225 -15 232 -18 6 -3 -68
-5 -165 -5 -132 1 -158 0 -102 -6 41 -4 115 -8 163 -9 68 -1 89 -4 93 -16 4
-8 17 -15 30 -15 15 0 24 -6 24 -15 0 -16 22 -20 105 -16 39 2 47 0 35 -9 -11
-9 21 -10 129 -7 83 3 148 10 154 16 6 6 37 11 70 11 40 0 56 3 51 11 -3 6 0
15 7 20 25 15 2 20 -128 30 -70 5 -209 16 -308 24 -190 16 -624 32 -615 22z
m538 -44 c-10 -2 -28 -2 -40 0 -13 2 -5 4 17 4 22 1 32 -1 23 -4z"/>
<path d="M6465 9578 c-27 -5 -54 -14 -60 -20 -7 -7 2 -8 30 -3 22 5 76 14 120
20 l80 12 -60 1 c-33 0 -82 -5 -110 -10z"/>
<path d="M6313 9524 c-18 -8 -33 -16 -33 -19 0 -5 70 22 79 30 8 9 -14 4 -46
-11z"/>
<path d="M6375 9504 c-59 -22 -67 -37 -10 -19 28 8 53 15 58 15 4 0 7 5 7 10
0 13 -6 12 -55 -6z"/>
<path d="M6820 9463 c0 -5 37 -7 82 -5 143 4 157 9 36 10 -65 1 -118 -1 -118
-5z"/>
<path d="M7208 9453 c6 -2 18 -2 25 0 6 3 1 5 -13 5 -14 0 -19 -2 -12 -5z"/>
<path d="M7303 9443 c9 -2 23 -2 30 0 6 3 -1 5 -18 5 -16 0 -22 -2 -12 -5z"/>
<path d="M6592 9419 c-40 -4 -75 -9 -77 -11 -2 -1 200 -3 448 -3 432 0 446 0
302 12 -156 13 -545 14 -673 2z"/>
<path d="M7680 9395 c-41 -7 -91 -10 -111 -7 -22 2 -39 0 -44 -7 -5 -9 16 -11
78 -9 86 3 105 -1 92 -21 -4 -8 -39 -10 -103 -6 -95 5 -96 5 -49 -9 27 -7 58
-23 70 -35 l21 -21 -32 0 c-67 0 -469 31 -521 40 -30 6 -139 10 -243 10 -174
0 -210 5 -177 26 6 4 152 7 323 8 171 0 300 2 286 3 -218 23 -709 18 -733 -6
-6 -6 7 -7 32 -4 71 10 46 -31 -27 -43 -23 -3 -50 -13 -59 -20 -17 -12 -16
-13 9 -14 52 0 76 -21 41 -35 -33 -12 -118 -27 -208 -35 -49 -5 -108 -13 -130
-18 -36 -8 -33 -9 37 -10 99 -1 250 -23 223 -32 -16 -5 -13 -8 14 -13 19 -4
46 -7 62 -7 24 0 29 -4 29 -24 0 -54 -5 -56 -113 -56 -81 0 -98 -2 -88 -12 8
-9 40 -12 97 -11 47 1 84 -2 84 -8 0 -11 -203 -12 -214 -2 -4 4 -35 7 -69 5
-34 -1 -75 2 -92 7 -24 7 -14 9 55 10 47 1 92 6 100 11 24 16 -217 11 -275 -5
l-50 -14 54 0 c94 -1 51 -9 -89 -15 -74 -4 -142 -9 -151 -12 -9 -2 -99 2 -200
11 -386 33 -717 46 -705 26 3 -4 52 -11 108 -15 57 -4 126 -13 153 -21 28 -7
85 -17 127 -20 57 -5 75 -11 72 -20 -8 -19 121 -29 250 -20 68 4 106 3 110 -4
4 -6 -7 -12 -26 -15 -18 -4 -55 -10 -83 -15 l-50 -9 70 -1 c39 -1 80 -4 93 -7
18 -5 22 -2 22 15 0 17 6 21 30 21 65 0 18 -29 -102 -64 -32 -10 -58 -18 -58
-20 0 -2 33 -2 73 0 l72 3 -70 -13 c-39 -6 -76 -16 -83 -20 -12 -7 -170 2
-412 24 -58 5 -240 12 -405 15 -165 3 -340 9 -390 15 -127 14 -395 13 -395 -1
0 -8 37 -10 128 -7 70 3 181 1 247 -5 106 -9 116 -12 87 -21 -22 -8 -72 -9
-155 -3 -141 9 -543 2 -578 -11 -14 -5 124 -9 341 -8 201 1 397 -3 435 -8 l70
-10 -50 -7 c-27 -4 -136 -5 -241 -2 -179 5 -659 -17 -526 -25 28 -2 52 -7 52
-12 0 -14 -35 -30 -67 -31 -15 0 -44 -6 -63 -13 l-35 -13 29 -7 c15 -4 37 -4
47 -1 19 6 49 -9 49 -25 0 -4 -28 -10 -62 -14 -35 -4 -79 -10 -98 -13 l-35 -7
40 -7 c22 -4 66 -8 98 -8 70 -1 67 -16 -5 -26 -41 -5 -49 -9 -33 -15 11 -5 35
-9 53 -9 39 -1 48 -18 33 -64 -7 -19 -13 -75 -15 -125 -2 -49 -9 -99 -15 -111
-7 -11 -10 -44 -9 -73 l3 -52 -50 -14 c-27 -8 -60 -23 -72 -34 -19 -17 -29
-19 -88 -13 -45 5 -79 3 -106 -5 -39 -13 -44 -30 -8 -30 10 0 19 -4 19 -10 0
-5 -9 -10 -21 -10 -11 0 -17 -4 -14 -10 3 -5 32 -10 63 -10 31 0 64 -5 72 -10
10 -7 -12 -10 -72 -10 -48 0 -90 -4 -93 -10 -4 -6 7 -10 25 -10 17 0 44 -7 60
-15 17 -9 56 -22 87 -29 32 -8 50 -15 41 -15 -21 -1 -24 -21 -6 -39 8 -8 9
-15 2 -22 -11 -11 -48 -1 -118 31 -40 18 -62 17 -50 -3 5 -8 1 -9 -11 -4 -15
6 -16 4 -4 -10 23 -27 93 -71 126 -78 28 -7 51 -32 39 -44 -3 -2 -35 3 -71 12
-81 20 -109 11 -98 -32 4 -15 7 -38 6 -52 -1 -14 8 -35 20 -47 l20 -23 -47 0
c-40 0 -46 -2 -37 -14 6 -7 9 -20 5 -29 -6 -16 50 -39 130 -53 39 -7 122 -54
95 -54 -28 1 -154 30 -196 46 -24 9 -46 15 -48 12 -3 -3 2 -18 10 -35 15 -30
50 -49 138 -72 20 -5 59 -25 85 -44 63 -46 106 -67 136 -67 14 0 27 -4 30 -9
5 -7 -59 -110 -131 -211 l-18 -25 32 23 c17 12 50 43 72 69 65 73 46 15 -34
-107 -20 -30 -68 -118 -107 -195 -39 -77 -91 -171 -116 -210 -28 -44 -36 -63
-22 -50 l23 20 -8 -25 c-4 -14 -13 -37 -21 -51 -12 -24 -16 -25 -71 -21 -32 2
-60 6 -62 8 -2 2 16 25 40 52 71 78 150 183 146 195 -2 6 -50 -48 -108 -119
-118 -145 -99 -137 -249 -112 -52 9 -122 19 -155 21 -52 5 -56 4 -25 -5 19 -5
44 -14 55 -19 11 -4 45 -13 76 -18 69 -12 111 -46 102 -80 -5 -20 -4 -22 13
-13 11 6 36 7 59 2 38 -7 37 -9 -7 -24 -23 -7 -23 -33 0 -39 9 -3 -4 -5 -30
-6 -64 -1 -82 6 -66 28 12 14 11 15 -5 2 -18 -15 -73 -17 -130 -5 -35 7 -34
-6 3 -31 44 -29 44 -43 3 -89 -21 -23 -48 -54 -60 -69 -13 -15 -27 -27 -33
-27 -5 0 -10 -9 -10 -20 0 -13 5 -18 15 -14 24 9 19 -39 -9 -95 -14 -27 -25
-58 -25 -70 -1 -11 -1 -30 -2 -41 0 -14 -12 -26 -37 -37 -103 -43 -171 -77
-193 -95 l-24 -20 25 14 c42 25 120 57 120 50 0 -4 -24 -19 -53 -35 -28 -15
-63 -36 -77 -47 -25 -19 -25 -20 -3 -20 12 0 45 9 73 20 66 26 78 25 52 -3
-24 -26 -28 -43 -10 -49 6 -2 -6 -17 -28 -33 -21 -16 -71 -60 -111 -96 l-72
-68 -58 18 c-32 10 -68 23 -80 29 -30 17 -35 15 -28 -8 4 -11 2 -20 -4 -20 -6
0 -11 -7 -11 -15 0 -8 7 -15 15 -15 8 0 23 -7 32 -15 10 -8 26 -21 36 -28 18
-12 16 -16 -26 -48 -25 -19 -48 -42 -50 -51 -8 -29 -37 -22 -38 10 l-1 27 -7
-25 c-10 -36 -2 -70 15 -63 18 7 18 7 -10 -52 -17 -34 -21 -53 -14 -60 7 -7
15 -2 26 15 37 54 57 71 75 65 23 -10 22 -14 -18 -81 -41 -68 -45 -92 -9 -49
94 111 134 141 134 102 0 -6 -3 -7 -6 -4 -4 4 -14 -7 -23 -22 -9 -16 -31 -53
-48 -83 -40 -64 -42 -80 -7 -47 l26 24 -7 -37 c-5 -24 -3 -38 3 -38 6 0 42 32
80 70 38 39 75 70 82 70 13 0 10 -26 -5 -64 -7 -16 -5 -18 8 -13 28 10 22 -43
-7 -68 -13 -11 -27 -29 -30 -41 -4 -14 9 -6 45 28 29 27 54 46 58 43 3 -3 1
-9 -4 -13 -6 -4 -16 -17 -23 -30 l-13 -23 30 22 c17 12 34 20 38 16 3 -4 1 -7
-5 -7 -7 0 -12 -4 -12 -10 0 -5 7 -10 15 -10 9 0 18 -8 21 -17 19 -59 28 -73
56 -82 27 -10 30 -14 24 -41 -5 -28 -4 -30 15 -19 18 9 26 5 60 -32 22 -24 37
-49 35 -56 -7 -16 10 -63 23 -63 5 0 11 9 14 20 3 13 10 18 21 14 9 -3 28 2
44 11 l27 18 -26 -29 c-15 -16 -32 -39 -39 -52 -11 -22 -10 -23 9 -12 22 11
31 -3 10 -16 -13 -8 -59 -108 -59 -129 0 -9 12 -29 27 -45 34 -39 74 -40 102
-2 l21 27 -14 -40 c-7 -22 -16 -65 -20 -95 l-6 -55 23 65 c13 36 34 85 47 110
22 42 23 43 31 22 7 -18 3 -34 -16 -66 -26 -44 -33 -86 -15 -86 6 0 10 -10 9
-22 -4 -46 1 -88 11 -88 6 0 10 6 10 14 0 7 10 37 22 65 16 40 25 50 37 45 34
-13 46 -9 43 14 -2 27 -4 27 69 -12 38 -20 67 -47 97 -88 23 -32 42 -62 42
-67 0 -9 55 -97 122 -195 18 -28 47 -64 64 -80 17 -17 44 -51 59 -76 15 -25
41 -62 57 -82 l29 -37 -28 -3 c-25 -3 -24 -5 17 -17 68 -20 97 -33 83 -38 -20
-7 -15 -23 6 -23 11 0 22 -4 25 -9 3 -4 -35 -11 -84 -15 -103 -8 -120 -12
-120 -32 0 -22 -44 -34 -80 -24 -27 8 -30 7 -20 -5 7 -8 18 -15 26 -15 7 0 16
-5 20 -11 5 -9 -7 -10 -42 -6 l-49 6 35 -14 c57 -25 65 -31 68 -54 2 -13 11
-21 22 -21 10 0 22 -4 25 -10 4 -6 -5 -10 -20 -10 -46 0 -18 -17 40 -25 67 -8
82 -25 23 -26 -36 -1 -28 -4 47 -20 50 -10 102 -18 117 -18 15 -1 31 -7 35
-15 11 -18 67 -46 93 -46 36 0 36 -29 0 -59 -22 -18 -34 -38 -36 -57 -1 -16
-6 -40 -12 -54 -5 -14 -8 -68 -6 -120 1 -52 3 -106 3 -119 1 -20 4 -22 13 -13
19 19 63 14 83 -8 10 -12 25 -18 32 -16 7 3 13 0 13 -7 0 -26 186 -194 305
-277 28 -19 52 -38 54 -43 2 -4 14 -12 27 -17 26 -10 33 -30 11 -30 -20 0
-145 90 -213 153 -84 77 -150 110 -84 42 19 -19 29 -35 22 -35 -6 0 -36 25
-67 56 -57 58 -74 65 -30 12 14 -16 25 -36 25 -43 0 -8 28 -35 62 -62 63 -47
90 -74 82 -82 -2 -2 -10 2 -19 9 -25 21 -17 -2 13 -33 l27 -28 -30 11 c-16 6
-41 21 -55 32 -14 12 -5 2 20 -23 25 -24 63 -59 85 -77 l40 -33 -38 21 c-20
12 -37 19 -37 17 0 -10 146 -123 185 -144 74 -38 105 -58 105 -66 0 -13 -36 1
-134 49 -100 49 -96 48 -96 34 0 -20 222 -150 256 -150 3 0 3 9 -1 19 -4 12 1
26 14 38 24 23 41 65 41 104 0 16 7 40 15 53 19 29 47 25 124 -19 44 -25 55
-36 54 -53 -3 -23 11 -30 22 -12 11 18 22 10 29 -20 8 -45 35 -38 76 20 19 27
39 49 43 50 4 0 39 -24 76 -54 47 -37 72 -51 79 -44 6 6 12 6 16 -1 13 -21 25
-11 32 27 17 97 44 95 44 -4 0 -66 2 -75 17 -72 17 3 25 21 39 83 l6 30 18
-40 c18 -44 21 -40 35 38 4 27 11 37 25 37 10 0 21 9 25 20 7 21 55 60 75 60
10 0 11 -18 6 -72 -13 -124 -13 -122 9 -126 30 -5 98 -34 118 -50 33 -28 27
-5 -13 52 -39 56 -40 59 -24 77 24 27 34 24 34 -10 0 -55 43 -47 78 16 7 11
14 11 43 -3 18 -9 46 -28 61 -41 18 -18 32 -23 47 -18 16 5 23 1 29 -17 12
-32 9 -68 -7 -98 -14 -25 -13 -25 16 3 16 15 32 27 36 27 10 0 -24 -74 -45
-97 l-21 -22 29 8 c16 5 38 12 49 17 18 7 18 5 -4 -32 l-23 -39 27 25 c14 13
35 39 46 57 23 37 39 43 39 13 0 -25 -19 -67 -47 -106 -28 -38 -29 -44 -2 -37
30 8 77 76 139 201 56 114 66 124 108 103 9 -4 34 -16 56 -27 21 -10 59 -42
84 -72 44 -51 45 -55 34 -85 -11 -29 -8 -27 33 18 24 28 44 53 45 58 0 4 7 7
15 7 13 0 14 -4 5 -21 -6 -11 -10 -28 -8 -37 2 -12 16 -2 47 38 24 30 48 57
53 59 6 2 7 -22 3 -65 -7 -68 -6 -68 11 -45 9 13 27 51 38 85 16 47 26 61 41
61 12 0 21 -9 25 -25 l6 -24 11 29 c7 17 15 46 18 65 3 19 10 44 14 55 5 11
14 33 20 48 6 16 20 31 31 34 11 3 23 16 26 30 5 16 11 22 22 18 8 -3 23 2 33
11 25 23 25 1 0 -40 -25 -39 -54 -124 -48 -139 2 -7 14 9 27 36 26 56 34 62
50 42 13 -15 5 -91 -10 -100 -13 -8 -22 -74 -12 -91 8 -14 15 -10 46 22 41 42
52 42 30 0 -36 -71 25 -23 82 64 24 37 52 74 61 81 12 10 10 4 -5 -18 -20 -29
-28 -53 -17 -53 11 0 78 51 94 72 10 13 30 46 44 73 14 28 36 55 48 60 13 6
30 21 37 35 12 22 13 16 7 -50 -3 -41 -10 -99 -14 -127 -5 -40 -4 -53 5 -53 7
0 15 13 19 28 5 26 75 107 75 88 0 -4 -9 -28 -21 -53 -15 -33 -19 -56 -14 -81
l6 -35 45 44 c32 32 44 39 44 25 0 -9 -5 -26 -11 -37 -21 -40 38 10 71 59 l30
45 0 -45 c0 -25 -7 -64 -15 -87 -13 -38 -13 -42 3 -48 9 -4 23 -15 30 -25 15
-21 40 -23 76 -7 23 11 29 8 70 -32 25 -23 67 -51 93 -61 27 -10 49 -18 49
-18 1 0 4 10 7 21 4 16 11 20 26 16 22 -5 31 9 31 53 0 15 7 33 15 40 17 14
16 19 18 -100 2 -60 4 -65 25 -68 56 -8 138 52 128 94 -5 18 0 23 25 28 19 4
33 13 36 26 3 11 9 20 14 20 20 0 7 28 -32 65 -73 72 -89 90 -89 97 0 5 -6 8
-14 8 -15 0 -42 28 -34 36 9 8 138 -18 138 -28 0 -5 10 -6 21 -3 23 8 23 1 3
-64 -6 -21 -5 -22 14 -12 28 15 30 14 34 -12 3 -20 6 -17 32 21 28 41 65 60
52 26 -3 -9 -6 -21 -6 -28 0 -7 -13 -33 -29 -57 -30 -44 -32 -63 -5 -52 26 10
174 255 174 289 0 20 30 25 53 9 12 -8 16 -15 9 -15 -19 0 -14 -28 7 -40 12
-6 17 -17 14 -29 -4 -14 3 -24 24 -34 45 -24 96 -107 65 -107 -5 0 -17 -7 -28
-15 -18 -15 -18 -15 7 -9 22 5 31 0 54 -30 67 -88 275 -186 275 -131 0 9 7 18
15 22 22 8 45 56 45 93 0 30 24 90 36 90 12 0 133 -71 144 -85 7 -8 18 -15 24
-15 17 0 48 -39 40 -51 -4 -7 3 -9 17 -7 19 2 24 9 24 33 0 24 4 30 21 30 12
1 28 6 36 13 12 9 22 9 47 -4 17 -8 31 -20 31 -25 0 -8 46 -31 60 -30 3 0 10
33 17 73 29 174 38 204 50 160 9 -36 21 -25 28 26 8 62 12 72 26 72 8 0 10
-16 5 -52 -3 -29 -11 -93 -17 -143 -6 -49 -17 -108 -24 -130 -7 -22 -16 -72
-19 -112 -3 -39 -9 -78 -12 -87 -8 -21 14 -21 38 1 11 9 18 11 18 5 0 -7 8
-12 18 -12 9 0 24 -4 32 -10 12 -7 11 -15 -8 -49 -13 -23 -19 -41 -15 -41 13
0 53 57 53 75 0 8 4 15 9 15 13 0 34 57 28 74 -3 8 0 17 8 19 7 3 16 19 20 36
4 18 22 43 42 60 32 26 36 36 43 97 10 78 19 114 29 114 4 0 24 -16 44 -36 19
-20 40 -33 46 -30 5 4 13 27 17 51 8 54 24 50 24 -6 0 -49 15 -50 30 -1 26 80
60 139 60 102 0 -25 18 -6 24 26 4 19 13 37 21 40 8 3 22 29 31 57 9 29 21 57
25 63 5 6 12 32 15 58 7 46 34 67 34 25 0 -39 17 -9 29 50 20 102 32 84 25
-35 -5 -75 -4 -105 3 -101 6 4 14 30 18 57 4 27 11 52 16 56 13 8 11 -60 -6
-172 -18 -118 -18 -124 -5 -124 6 0 10 16 10 35 0 20 9 55 20 77 11 23 17 50
14 60 -3 11 0 26 7 34 6 8 17 38 24 67 8 37 16 52 28 52 24 0 35 16 39 55 4
43 38 58 38 16 0 -15 6 -26 14 -26 37 0 44 -110 15 -257 -9 -47 -8 -55 12 -82
23 -32 49 -31 49 0 0 11 10 23 24 29 13 5 27 17 29 27 18 62 17 81 -3 116 -27
46 -9 59 30 22 l28 -27 16 23 c9 13 16 33 16 46 0 12 5 25 10 28 6 4 10 -10
10 -35 0 -33 4 -42 24 -51 13 -6 34 -24 45 -40 l22 -29 -22 0 c-13 0 -31 7
-41 17 -20 18 -25 17 -30 -12 -3 -18 3 -20 72 -21 70 -2 76 -4 102 -33 18 -20
37 -31 55 -31 16 0 36 -7 46 -14 12 -9 32 -12 58 -9 22 3 39 1 39 -4 0 -16
-98 -74 -161 -96 -33 -11 -58 -22 -56 -23 5 -6 120 18 132 26 6 4 26 11 45 15
37 8 284 125 335 159 17 11 46 35 65 52 46 40 138 63 157 39 6 -9 31 -19 55
-22 32 -3 39 -2 28 6 -13 9 -13 11 1 11 9 0 32 -3 50 -7 l34 -7 -35 -6 -35 -6
54 -12 c57 -13 80 -9 40 7 -23 9 -23 10 -2 10 12 1 34 -4 49 -9 21 -8 29 -8
36 2 12 19 10 28 -7 28 -20 0 -19 19 1 27 10 4 22 -1 29 -11 11 -14 17 -15 41
-4 16 7 37 21 48 31 18 18 18 19 -10 48 -15 16 -36 31 -46 35 -23 7 -23 30 0
36 9 3 52 0 96 -5 57 -8 94 -7 137 2 32 6 70 9 84 5 33 -8 76 3 70 19 -10 26
13 40 62 38 47 -1 48 -1 28 17 -13 12 -54 25 -115 36 -132 24 -130 23 -92 52
18 14 30 29 27 34 -9 14 21 18 71 9 27 -6 76 -14 109 -19 33 -4 98 -18 145
-29 47 -11 89 -21 95 -21 22 0 -17 24 -67 41 l-53 18 50 -4 c28 -2 58 -7 68
-10 10 -4 17 -3 17 4 0 6 -6 12 -12 12 -27 3 -34 4 -53 16 -26 14 -166 44
-177 37 -14 -9 -51 7 -40 18 10 10 202 -23 295 -53 48 -15 57 -15 57 -3 0 8
-6 14 -14 14 -8 0 -18 5 -22 11 -5 8 1 10 19 5 15 -3 29 -1 33 5 13 21 -24 41
-102 55 -89 17 -134 32 -134 46 0 13 76 0 112 -18 15 -8 38 -14 51 -14 12 0
28 -5 35 -12 9 -9 12 -9 12 0 0 6 -16 18 -35 26 -20 9 -45 22 -58 31 -21 14
-17 15 53 9 41 -3 94 -10 118 -15 28 -6 56 -5 85 2 23 6 60 11 82 10 22 -1 55
1 73 4 28 5 31 8 22 25 -5 10 -10 28 -10 39 0 16 -6 21 -24 21 -14 0 -28 5
-31 10 -3 6 -23 10 -43 10 -73 0 -79 32 -11 60 22 10 28 17 24 31 -5 15 0 20
24 25 36 7 37 11 14 37 -17 20 -17 20 0 14 10 -4 29 -4 41 -1 19 4 22 12 22
55 0 46 -2 50 -28 57 -34 9 -36 28 -2 25 28 -2 29 -1 8 39 -13 24 -20 29 -41
25 -65 -12 -111 37 -58 61 32 15 33 54 4 101 -19 31 -19 36 -5 46 9 7 13 15 9
18 -3 4 -1 7 5 7 7 0 12 -6 12 -13 0 -14 49 -42 58 -33 3 3 0 12 -7 20 -9 11
-8 15 5 20 13 5 14 9 4 21 -7 8 -21 15 -31 15 -24 0 -24 1 5 52 19 35 33 46
70 58 51 17 56 24 26 40 -25 14 -25 35 1 113 12 34 23 73 25 87 3 14 14 37 24
52 22 30 27 93 9 104 -8 5 -6 10 5 16 9 5 16 22 16 39 0 39 26 89 47 89 26 0
123 50 130 66 9 24 -3 27 -49 10 -24 -8 -54 -17 -68 -18 -18 -2 -24 -8 -22
-21 2 -13 -2 -18 -15 -15 -15 3 -19 17 -25 91 -3 48 -11 102 -17 119 -6 17
-11 55 -11 84 0 43 4 56 22 68 22 16 18 21 -26 28 -18 3 -18 4 -3 19 20 21 12
57 -15 61 -21 3 -80 96 -71 112 3 4 1 11 -4 15 -14 9 -47 59 -80 121 -45 84
-73 132 -94 162 -11 14 -19 32 -19 40 0 8 -14 33 -31 56 l-31 42 31 0 c17 0
31 4 31 10 0 13 -35 30 -63 30 -20 0 -30 10 -49 48 -13 26 -32 59 -42 75 -13
20 -15 31 -8 40 6 7 9 23 5 35 -3 15 0 24 11 28 20 8 20 22 0 63 -9 18 -13 39
-8 49 4 9 7 24 8 32 1 14 27 65 59 115 17 27 50 54 65 55 8 0 11 7 8 18 -7 20
15 81 44 122 9 14 27 54 39 90 18 55 19 67 7 75 -12 9 -12 14 0 35 7 14 13 46
14 72 0 26 4 57 9 70 5 13 12 35 15 49 3 15 29 51 58 80 47 48 55 63 71 129
10 41 21 91 24 110 5 36 47 90 69 90 20 0 27 19 14 35 -7 8 -21 15 -31 15 -13
0 -19 7 -19 23 0 12 -4 28 -9 35 -6 10 -10 9 -14 -7 -7 -28 -23 -27 -31 2 -9
35 5 125 20 131 14 5 20 48 6 43 -4 -1 -7 2 -7 8 0 5 2 9 5 8 10 -3 1 242 -9
269 -6 16 -21 30 -36 34 -18 4 -25 13 -25 29 0 13 -4 26 -9 30 -6 3 -8 27 -5
53 3 26 0 54 -6 62 -9 13 -13 11 -30 -10 -11 -14 -20 -33 -20 -43 0 -10 -11
-22 -25 -27 -21 -8 -33 -5 -65 15 -21 14 -44 34 -50 45 -14 27 -4 60 18 57 26
-3 26 17 0 24 -20 5 -23 11 -21 54 2 63 28 83 60 45 23 -27 37 -25 28 3 -22
75 -23 86 -4 103 11 9 19 25 19 34 0 9 6 22 13 29 10 12 8 13 -8 7 -31 -11
-105 -19 -105 -12 0 20 23 47 36 42 8 -3 14 -1 14 4 0 6 -3 10 -8 10 -4 0 -17
21 -29 48 -32 67 -140 180 -177 184 -16 2 -31 9 -34 17 -3 9 2 11 17 6 32 -10
26 5 -35 79 -55 66 -93 91 -126 83 -9 -3 -19 1 -22 9 -3 8 -12 14 -21 14 -34
0 -180 99 -147 100 6 0 12 6 12 13 0 8 -29 17 -87 24 -60 9 -92 18 -100 29 -7
9 -24 17 -38 17 -14 0 -25 3 -25 7 0 4 -13 10 -29 13 -17 4 -30 14 -34 26 -4
17 -10 20 -36 15 -22 -5 -47 2 -95 25 -71 34 -81 37 -70 19 5 -8 2 -9 -10 -5
-10 4 -30 10 -44 13 -23 4 -24 3 -9 -6 9 -6 17 -18 17 -26 0 -16 -7 -16 -151
12 -42 8 -105 14 -140 13 -57 -1 -172 -1 -251 0 -46 0 -62 3 -76 14 -10 8 -14
5 -19 -11 -5 -19 -10 -21 -43 -16 -23 4 -40 2 -44 -5 -11 -18 -93 -14 -104 5
-8 14 -11 13 -28 -8 -15 -20 -23 -23 -36 -14 -12 7 -26 5 -52 -9 -27 -15 -40
-17 -58 -8 -13 6 -48 8 -77 5 -39 -3 -52 -2 -47 7 10 15 -23 14 -72 -3 -22 -8
-74 -19 -115 -26 -85 -13 -113 -3 -135 45 -6 14 -18 25 -27 25 -8 0 -15 5 -15
10 0 6 -20 10 -43 10 -35 0 -49 6 -73 30 -16 16 -39 30 -51 30 -13 0 -23 3
-23 8 1 13 35 49 54 56 29 10 18 13 -64 20 -90 7 -132 18 -138 34 -2 8 12 12
48 12 50 0 52 1 46 24 l-6 25 105 -6 c89 -4 105 -3 105 10 0 8 8 18 18 22 36
14 -18 27 -146 35 -70 5 -236 18 -370 29 -311 27 -528 28 -554 4 -16 -15 -24
-15 -68 -4 -27 7 -54 10 -60 6 -7 -4 -73 -9 -148 -11 -75 -2 -164 -8 -197 -13
-42 -8 -61 -7 -66 0 -4 8 -14 4 -28 -10 -17 -17 -26 -19 -41 -11 -15 8 -21 6
-28 -6 -6 -10 -21 -16 -38 -16 -55 2 -70 2 -174 2 -58 0 -132 4 -165 9 -33 6
-125 15 -203 21 -152 12 -182 18 -162 30 15 9 -53 35 -95 36 -76 1 -96 5 -90
14 4 6 26 8 55 4 54 -7 104 1 95 16 -3 6 -16 10 -28 10 -34 0 -7 18 33 22 29
2 35 6 32 25 -2 17 3 22 25 26 15 2 -8 4 -52 4 -44 1 -114 -5 -155 -12z m373
-240 c9 -2 30 2 47 8 37 14 49 3 26 -22 -13 -14 -28 -19 -52 -17 -19 2 -37 6
-41 10 -3 3 -21 6 -39 6 -34 0 -54 15 -32 23 12 4 44 1 91 -8z m2007 5 c8 -5
12 -12 8 -15 -10 -10 -171 -15 -204 -6 -23 6 -11 10 66 18 52 6 100 11 105 11
6 1 17 -2 25 -8z m-3210 -80 c-130 -41 -119 -39 -135 -17 -8 12 -11 23 -6 27
5 3 44 3 87 1 57 -2 72 -6 54 -11z m34 -51 c21 0 21 -1 1 -9 -27 -12 -132 -12
-140 -1 -8 14 24 20 74 15 24 -2 53 -4 65 -5z m-1626 -26 c-10 -2 -26 -2 -35
0 -10 3 -2 5 17 5 19 0 27 -2 18 -5z m95 -10 c-13 -2 -33 -2 -45 0 -13 2 -3 4
22 4 25 0 35 -2 23 -4z m1184 -21 c32 -19 -8 -21 -143 -11 -77 6 -201 9 -276
6 -129 -6 -150 -3 -130 18 9 10 529 -2 549 -13z m-59 -40 c54 -3 72 -8 72 -19
0 -12 -16 -13 -92 -8 -51 3 -185 8 -298 10 -238 6 -237 6 -185 15 42 8 377 9
503 2z m-598 -12 c0 -5 -9 -10 -21 -10 -11 0 -17 5 -14 10 3 6 13 10 21 10 8
0 14 -4 14 -10z m-955 -99 c48 -7 45 -8 -49 -15 -107 -9 -255 -1 -270 14 -12
12 242 12 319 1z m185 0 c-8 -4 -42 -5 -75 -1 l-60 7 75 1 c43 1 69 -2 60 -7z
m310 -13 c30 -6 91 -14 135 -19 95 -9 85 -6 85 -20 0 -11 -22 -10 -149 8 -31
4 -42 2 -37 -6 4 -6 17 -11 29 -11 12 -1 38 -9 57 -20 31 -16 33 -19 16 -26
-10 -4 -141 3 -290 15 -149 13 -358 24 -464 25 -105 0 -192 4 -192 7 0 15 74
18 259 13 135 -3 197 -1 207 7 7 6 18 8 23 5 19 -12 116 -16 161 -7 42 8 39 9
-37 10 -74 1 -83 3 -83 20 0 18 7 19 113 14 61 -2 137 -9 167 -15z m-783 -14
c-3 -3 -12 -4 -19 -1 -8 3 -5 6 6 6 11 1 17 -2 13 -5z m1120 -20 c-3 -3 -12
-4 -19 -1 -8 3 -5 6 6 6 11 1 17 -2 13 -5z m-1404 -11 c3 -5 45 -5 94 -2 79 5
129 -3 92 -15 -68 -22 -154 -29 -236 -18 -48 6 -164 11 -258 10 -148 0 -170 2
-173 16 -3 14 22 16 237 16 132 0 242 -3 244 -7z m1377 -48 c-24 -14 -130 -22
-117 -9 9 10 68 22 107 23 l35 0 -25 -14z m310 -24 c0 -11 -49 -21 -55 -10 -3
4 3 10 12 12 30 8 43 7 43 -2z m-646 -32 c-25 -10 -175 -9 -239 1 -36 6 -7 8
104 7 85 0 146 -4 135 -8z m-1041 -6 c-7 -2 -21 -2 -30 0 -10 3 -4 5 12 5 17
0 24 -2 18 -5z m1172 -4 c27 -1 27 -2 -10 -10 -47 -12 -98 -3 -74 12 7 5 23 7
34 4 11 -2 34 -5 50 -6z m-1555 -89 c0 -5 -13 -10 -30 -10 -16 0 -30 5 -30 10
0 6 14 10 30 10 17 0 30 -4 30 -10z m91 -36 c20 -24 -2 -34 -75 -34 -66 0 -96
10 -96 31 0 20 155 22 171 3z m42 -71 c20 -9 37 -19 37 -24 0 -14 -60 -21
-121 -14 -51 6 -61 11 -73 34 l-14 27 66 -4 c37 -2 84 -10 105 -19z m73 -8
c15 -11 16 -14 3 -15 -8 0 -24 7 -35 15 -15 11 -16 14 -3 15 8 0 24 -7 35 -15z
m-246 -55 c14 -10 21 -22 17 -26 -4 -4 -20 4 -35 19 -31 31 -19 36 18 7z m105
0 l30 -20 -30 0 c-30 0 -55 15 -55 32 0 14 24 9 55 -12z m145 -31 c0 -7 -12
-10 -30 -7 -16 3 -30 1 -30 -4 0 -4 5 -8 10 -8 6 0 10 -4 10 -10 0 -13 -87
-13 -95 1 -10 15 -1 21 42 29 58 12 93 11 93 -1z m-118 -66 c27 -13 52 -23 58
-23 15 0 12 -17 -4 -23 -7 -3 -40 13 -72 35 -65 44 -110 85 -59 53 17 -11 51
-29 77 -42z m115 -139 c-3 -3 -12 -4 -19 -1 -8 3 -5 6 6 6 11 1 17 -2 13 -5z
m-648 -350 c2 -2 -7 -4 -22 -4 -14 0 -29 5 -32 10 -6 10 42 4 54 -6z m1 -400
c0 -14 -3 -14 -15 -4 -8 7 -15 14 -15 16 0 2 7 4 15 4 8 0 15 -7 15 -16z
m9608 -52 c2 -7 -3 -12 -12 -12 -9 0 -16 7 -16 16 0 17 22 14 28 -4z m-9409
-33 c17 -6 31 -15 31 -20 0 -15 -32 -10 -70 11 -28 15 -31 19 -14 20 12 0 35
-5 53 -11z m9211 -949 c0 -5 -4 -10 -10 -10 -5 0 -10 5 -10 10 0 6 5 10 10 10
6 0 10 -4 10 -10z m-80 -91 c0 -20 -21 -49 -35 -49 -20 0 -19 19 2 42 18 20
33 24 33 7z m-9723 -30 c39 -15 17 -29 -46 -29 -50 0 -61 -4 -84 -28 -15 -15
-27 -33 -27 -39 0 -13 -25 -24 -34 -16 -12 13 -5 26 46 79 48 51 55 55 86 49
19 -3 45 -11 59 -16z m9676 -72 c-6 -24 -41 -67 -55 -67 -24 0 -18 34 12 65
36 37 51 38 43 2z m-10323 -721 c0 -8 -4 -17 -9 -21 -12 -7 -24 12 -16 25 9
15 25 12 25 -4z m80 -115 c0 -12 -37 -24 -50 -16 -20 12 -10 25 20 25 17 0 30
-4 30 -9z m55 -21 c4 -6 -5 -10 -20 -10 -15 0 -24 4 -20 10 3 6 12 10 20 10 8
0 17 -4 20 -10z m-120 -30 c-3 -5 -13 -10 -21 -10 -8 0 -14 5 -14 10 0 6 9 10
21 10 11 0 17 -4 14 -10z m-45 -36 c0 -18 -36 -18 -43 0 -7 19 0 25 24 19 10
-3 19 -12 19 -19z m100 11 c0 -8 -9 -15 -20 -15 -20 0 -26 11 -13 23 12 13 33
7 33 -8z m50 -25 c0 -5 -7 -10 -15 -10 -8 0 -15 5 -15 10 0 6 7 10 15 10 8 0
15 -4 15 -10z m-60 -59 c0 -5 -15 -20 -32 -32 -18 -13 -39 -30 -47 -39 -13
-15 -4 3 30 58 14 22 49 31 49 13z m1191 -1102 c9 -18 9 -19 -10 -7 -12 7 -21
19 -21 26 0 17 17 7 31 -19z m25 -57 c17 -10 15 -11 -14 -12 -35 0 -72 15 -72
29 0 11 59 -1 86 -17z m40 -63 c6 -5 19 -27 29 -49 14 -31 16 -43 7 -52 -9 -9
-8 -16 5 -30 9 -10 14 -20 11 -23 -10 -10 -128 113 -128 132 0 10 -6 25 -12
32 -11 11 -5 12 32 6 25 -4 50 -11 56 -16z m9154 -399 c0 -5 -4 -10 -9 -10 -6
0 -13 5 -16 10 -3 6 1 10 9 10 9 0 16 -4 16 -10z m70 -76 c0 -16 -16 -19 -25
-4 -8 13 4 32 16 25 5 -4 9 -13 9 -21z m-370 -264 c12 -8 9 -10 -12 -10 -16 0
-28 5 -28 10 0 13 20 13 40 0z m164 -30 c-7 -7 -19 -7 -35 -1 -23 9 -22 10 11
10 23 1 31 -2 24 -9z m-8754 -81 c0 -10 -69 -43 -76 -36 -8 8 8 37 17 31 5 -3
17 0 26 5 23 13 33 14 33 0z m8395 -99 c3 -5 -3 -10 -14 -10 -12 0 -21 5 -21
10 0 6 6 10 14 10 8 0 18 -4 21 -10z m35 -10 c0 -5 -2 -10 -4 -10 -3 0 -8 5
-11 10 -3 6 -1 10 4 10 6 0 11 -4 11 -10z m-135 -70 c3 -5 1 -10 -4 -10 -6 0
-11 5 -11 10 0 6 2 10 4 10 3 0 8 -4 11 -10z m-8125 -4 c0 -3 -4 -8 -10 -11
-5 -3 -10 -1 -10 4 0 6 5 11 10 11 6 0 10 -2 10 -4z m8177 -2 c-3 -3 -12 -4
-19 -1 -8 3 -5 6 6 6 11 1 17 -2 13 -5z m50 -10 c-3 -3 -12 -4 -19 -1 -8 3 -5
6 6 6 11 1 17 -2 13 -5z m-8306 -13 c-10 -6 -6 -11 15 -19 l29 -10 -27 -1
c-28 -1 -43 12 -33 29 3 6 12 10 18 10 8 0 7 -3 -2 -9z m63 -65 c27 -7 54 -19
60 -27 6 -8 20 -19 31 -25 23 -13 42 -41 32 -50 -9 -10 -92 24 -125 50 -15 13
-35 25 -44 29 -10 3 -18 13 -18 22 0 18 1 18 64 1z m206 -147 c0 -5 -4 -9 -10
-9 -5 0 -10 7 -10 16 0 8 5 12 10 9 6 -3 10 -10 10 -16z m-85 1 c3 -5 2 -10
-4 -10 -5 0 -13 5 -16 10 -3 6 -2 10 4 10 5 0 13 -4 16 -10z m7565 -40 c-8 -5
-24 -10 -35 -10 -17 0 -17 2 -5 10 8 5 24 10 35 10 17 0 17 -2 5 -10z m-540
-79 l43 -19 -32 -17 c-31 -15 -33 -15 -51 7 -21 24 -26 48 -11 48 5 0 28 -9
51 -19z m-63 -33 c28 -26 29 -38 4 -38 -11 0 -23 -4 -26 -10 -17 -27 -74 2
-75 38 0 10 10 8 36 -7 39 -23 54 -27 36 -9 -13 13 -17 48 -5 48 4 0 17 -10
30 -22z m-6832 -150 c104 -70 133 -98 102 -98 -23 0 -157 95 -189 134 -16 20
-28 36 -25 36 2 0 53 -33 112 -72z m6525 32 c0 -5 -4 -10 -10 -10 -5 0 -10 5
-10 10 0 6 5 10 10 10 6 0 10 -4 10 -10z m-5387 -128 c11 -12 13 -22 6 -32 -8
-13 -12 -11 -29 10 -11 14 -20 28 -20 33 0 14 27 7 43 -11z m113 -47 c-7 -18
-26 -20 -26 -2 0 18 24 41 28 27 2 -6 1 -17 -2 -25z m-733 -3 c-3 -12 -12 -22
-19 -22 -18 0 -18 9 3 32 20 22 24 19 16 -10z m3882 -42 c3 -5 -1 -10 -9 -10
-9 0 -16 5 -16 10 0 6 4 10 9 10 6 0 13 -4 16 -10z m-2405 -40 c0 -5 -7 -7
-15 -4 -8 4 -15 8 -15 10 0 2 7 4 15 4 8 0 15 -4 15 -10z m2265 0 c8 -13 -5
-13 -25 0 -13 8 -13 10 2 10 9 0 20 -4 23 -10z"/>
<path d="M5860 9180 c-152 -11 -312 -49 -364 -86 -25 -17 -19 -18 24 -3 21 8
34 8 39 2 4 -7 43 1 106 22 55 17 146 38 203 45 56 7 102 16 102 21 0 5 -3 8
-7 7 -5 0 -51 -4 -103 -8z"/>
<path d="M5633 9083 c-13 -2 -23 -9 -23 -15 0 -6 10 -7 28 -2 15 4 50 10 77
14 l50 7 -55 0 c-30 0 -65 -2 -77 -4z"/>
<path d="M4200 9020 c25 -5 76 -9 115 -9 73 -1 76 -10 10 -29 -48 -14 -115
-54 -99 -59 6 -2 42 8 80 21 91 33 132 38 234 29 70 -7 85 -11 84 -24 -1 -15
18 -17 162 -18 90 -1 211 -4 270 -7 59 -2 111 0 118 5 6 5 21 11 34 13 12 1
22 8 21 13 -3 19 -85 35 -184 35 -55 0 -167 7 -250 15 -171 17 -666 29 -595
15z m453 -37 c-29 -2 -77 -2 -105 0 -29 2 -6 3 52 3 58 0 81 -1 53 -3z m494
-49 c-3 -3 -12 -4 -19 -1 -8 3 -5 6 6 6 11 1 17 -2 13 -5z"/>
<path d="M3700 8993 c-44 -7 -177 -53 -196 -68 -18 -13 -18 -14 -1 -15 9 0 44
11 77 24 58 24 146 42 265 56 56 7 55 7 -30 7 -49 0 -101 -2 -115 -4z"/>
<path d="M4300 8918 c-40 -16 -10 -19 45 -4 47 13 48 14 15 14 -19 1 -46 -4
-60 -10z"/>
<path d="M3554 8895 c-23 -18 -10 -18 36 0 32 12 33 14 9 14 -14 1 -34 -6 -45
-14z"/>
<path d="M4868 8901 c-69 -3 -130 -9 -134 -13 -4 -5 -1 -8 7 -8 191 -2 462
-10 522 -15 55 -6 77 -5 77 4 0 7 -26 11 -77 11 -71 0 -216 13 -253 22 -8 3
-72 2 -142 -1z"/>
<path d="M3678 8753 c7 -3 16 -2 19 1 4 3 -2 6 -13 5 -11 0 -14 -3 -6 -6z"/>
<path d="M3628 8743 c7 -3 16 -2 19 1 4 3 -2 6 -13 5 -11 0 -14 -3 -6 -6z"/>
<path d="M12938 8493 c7 -3 16 -2 19 1 4 3 -2 6 -13 5 -11 0 -14 -3 -6 -6z"/>
<path d="M3435 8210 c-25 -4 -34 -9 -25 -13 8 -4 49 0 90 7 71 13 72 14 25 14
-27 -1 -68 -4 -90 -8z"/>
<path d="M13070 8154 l-25 -15 34 3 c19 2 36 9 39 16 5 16 -16 14 -48 -4z"/>
<path d="M13046 8089 c-37 -29 -33 -43 10 -36 45 7 48 10 39 36 -8 26 -16 26
-49 0z"/>
<path d="M3518 7873 c7 -3 16 -2 19 1 4 3 -2 6 -13 5 -11 0 -14 -3 -6 -6z"/>
<path d="M13191 7164 c0 -11 3 -14 6 -6 3 7 2 16 -1 19 -3 4 -6 -2 -5 -13z"/>
<path d="M2898 6624 c-18 -18 0 -22 140 -28 151 -7 215 -1 157 16 -40 12 -288
22 -297 12z"/>
<path d="M2953 6423 c9 -2 25 -2 35 0 9 3 1 5 -18 5 -19 0 -27 -2 -17 -5z"/>
<path d="M3088 6413 c7 -3 16 -2 19 1 4 3 -2 6 -13 5 -11 0 -14 -3 -6 -6z"/>
<path d="M2309 5443 c-13 -16 -12 -17 4 -4 9 7 17 15 17 17 0 8 -8 3 -21 -13z"/>
<path d="M2229 5373 l-24 -28 28 24 c25 23 32 31 24 31 -2 0 -14 -12 -28 -27z"/>
<path d="M2580 4876 c0 -9 5 -16 10 -16 6 0 10 4 10 9 0 6 -4 13 -10 16 -5 3
-10 -1 -10 -9z"/>
<path d="M13100 3800 c0 -5 5 -10 10 -10 6 0 10 5 10 10 0 6 -4 10 -10 10 -5
0 -10 -4 -10 -10z"/>
<path d="M3790 3670 c0 -5 9 -10 20 -10 11 0 20 5 20 10 0 6 -9 10 -20 10 -11
0 -20 -4 -20 -10z"/>
<path d="M11473 2449 c-7 -7 -13 -16 -13 -20 0 -8 188 -32 218 -27 39 6 7 31
-50 39 -134 20 -143 21 -155 8z"/>
<path d="M10769 2432 c-9 -1 -22 -14 -29 -27 -12 -22 -11 -28 5 -45 23 -26 35
-26 28 0 -5 18 0 20 58 21 35 0 73 4 84 9 18 7 18 9 -10 20 -36 14 -114 27
-136 22z"/>
<path d="M8510 2310 c0 -5 7 -10 16 -10 8 0 12 5 9 10 -3 6 -10 10 -16 10 -5
0 -9 -4 -9 -10z"/>
<path d="M10500 2230 c0 -27 4 -50 9 -50 24 0 61 21 61 34 0 17 -45 66 -60 66
-6 0 -10 -22 -10 -50z"/>
<path d="M10878 2243 c7 -3 16 -2 19 1 4 3 -2 6 -13 5 -11 0 -14 -3 -6 -6z"/>
<path d="M10828 2233 c6 -2 18 -2 25 0 6 3 1 5 -13 5 -14 0 -19 -2 -12 -5z"/>
<path d="M7580 1995 c-19 -23 -8 -50 23 -51 15 -1 36 -9 47 -19 19 -17 20 -17
27 1 4 12 1 21 -12 28 -10 6 -29 21 -41 34 -25 26 -28 27 -44 7z"/>
<path d="M8445 1880 c-3 -5 -1 -10 4 -10 6 0 11 5 11 10 0 6 -2 10 -4 10 -3 0
-8 -4 -11 -10z"/>
</g>
</svg>
