<svg xmlns="http://www.w3.org/2000/svg" xmlns:xlink="http://www.w3.org/1999/xlink" viewBox="0 0 294.82 126.89"><defs><style>.cls-1{fill:url(#Degradado_sin_nombre_13);}</style><linearGradient id="Degradado_sin_nombre_13" y1="63.44" x2="294.82" y2="63.44" gradientUnits="userSpaceOnUse"><stop offset="0" stop-color="#fff"/><stop offset="0.98" stop-color="#fff"/></linearGradient></defs><g id="Layer_2" data-name="Layer 2"><g id="OBJECTS"><path class="cls-1" d="M232.67,79.78l-.86-5.91,3.09,3.07ZM198.2,55.65l-1.74-.12,1.15,1.32Zm46.5,30.56L244,89.79,246.53,88ZM212.17,57.6l1,3.88,2.94-3.19-2.05-2Zm73,69.29h0L0,126.1V2.38H159.82l3.78,3.76.64,1.64.16-.85,3.48,3.46-.09.34.27-.16,11.1,11-.32.08.19,13.4,3.59-10,4,3.95v6.36l3.28-3.11,7.76,7.71a1.36,1.36,0,0,0-.17,1.84,1.38,1.38,0,0,0,1.93.25.93.93,0,0,0,.18-.16l5.57,5.53-3.78,2.71,2.54,1.28,1.56-3.67.44.43-4.55,7.56,8.17-4,.12.12-3.49,4.54-.26-.55-2.8,4.74,3.18-.75,4.65,4-11.75,4.73L202.42,70l-1.86.22,1.6,4.83-3.62-1.66.71,4,6.35-.73-2.14-1,2.94-3.87L209,73l1.31-5.77,6.16,2.52L218,60.2l5.2,5.16-.57,4,2.06-2.48,3,2.94-7.9.35,4.42,6.63,3.47-2.86,3.94,7.2-1.24,1.57,1.59.51-1.15,1.9,2.36-1.14.08,0,.37-.18,2.62.85.18-2.2,2.65-1.28,1.06,1-.27,1.1-2.1.59L239,87.07l-.16.65.32-.22,1,2.67-6.1,4.2,7.58-.17.21.58-1.71,1.73,4.56,1.4.88-3.79,4.61-.1,2.15,9,1-7.85,5.41,5.37-4.94,3.17,8.75,5,1.43-3,9.79,9.72L269.8,117l9.86,4.4h0ZM163.14,15.65l-1.35-8-2.14,2Zm31.7,39.77.95.06-1.21,4.24,1.63.88-.37,1.51,4.58.76,4.74,2.56-7.34-8.35,1.52.74.88-1.77-.86-.42,3.08-10.21Zm1.41,11.35a1.25,1.25,0,0,0-1.68.51,1.23,1.23,0,0,0,.51,1.67,1.24,1.24,0,1,0,1.17-2.18Zm-5.13-20.65,3.35,4.31,2.24-7ZM185,38.27l.3,3,5-.89Zm1.87,6.37a1,1,0,0,0-1.14.84,1,1,0,1,0,1.14-.84ZM184.35,52l.23,13.16,9.29-13.91Zm-3.17,22.13L194,75.27l-2.25-2.8,4.25-.18-2.46-3.21-2.94,2-3.34-4.15ZM170,14.09l-4.27,1.31,2.76,7Zm6.66,31.35,2.79,11.63,1.69-13.81Zm6.89,45.26-1.67-2.29-3.72,3.1Zm3.29-10.11-4.5-1.11-.17,4Zm3.25,5.76-1.18-1.58-1.6,1.17,1.19,1.59Zm.64,6.76,8.82,3.66L205.42,85ZM206.88,101l-.9-5.39.27-1.11-.37.54-.34-2-2.14,2,1.16,2-6.18,9,5,.1,1.93-7.83Zm2.19-13.87-2.92,1.33L208,93.11Zm4.68,12.31-4.27,1.31,2.76,7Zm.13-4.69-1.56-1.78-.78,3.11Zm.26-20.62L201,82.7l5.13,2.21Zm1.63,4.56,2.87-2-4.06-.13Zm.41,6.44,4.17,1.7,1.21-7.54ZM218.31,97l-1.14-.19-.2,1.13,1.14.2Zm1.29-3.2.32-2.79L218,93.5Zm6.51,7-.36-5.49-5.88,4.64Zm.38-16.24-.94-3.43L224,86ZM227,93l8-.59-5-4.47Zm5.77,6.24L231.49,98l-2,2.28Zm4.34,1.36.31,2.5L240,100.8Zm-2.52-4.66.89.85.86-.88-.89-.85Zm7.37,8.69-7.69-1.5,4.52,5-2,2.06,3.38.57.21-.92Zm5.12-5.36-3.66,7.86,3.08-.45ZM202.38,37.09l-1.47-3.39-5.62,2.91Zm-10.49-8.87,1.68-2.74-6.42-2.3.73,2.73Zm4.45,1a1.24,1.24,0,1,0,1-1.42A1.24,1.24,0,0,0,196.34,29.2Zm-12.76-5.29,2.81-4.08-5.27-.12Zm82.07,14.32,9.9-.41-3.13-4.09Zm24.69-16.66-2.18-4.7-3.57,6.05Zm1.82,17.14L294.82,27,279.59,33.1ZM288,5.51l-5.64,4,3.24,1.63ZM256.6.81,250.88,3.6l3.56,14.82Zm24.31,16.31L278.63,16l-1.11,2.26,2.27,1.11ZM272.82,11l-12.14,1,.3,16.78Zm-56.7,47.31L218,60.2l.78-4.83Zm64.37,42.28-3,5,4.81-1.13Zm7.93,20.18-.32-10-7.45,5.48ZM275.67,94.46l2.7,1.36,2-4.73ZM231.38,70.87l1.6-1.32-5.29.23,4.12,4.09Zm42.13,31.79.93-1.88-1.9-.93-.93,1.89Zm-2.77-16.38-9.83,10.27,6.73,4.08Zm9.73-44.48-5.21,9.69,11.6-6.77ZM275.4,61.55l5.57,2,.74-5.12Zm-.17,24.1,7.23-7L269,76.06Zm.44-14.14,4-2.71-5.45.27Zm-10-25-5.13,14.36L272,47.27ZM270,73.43l-1-1.7-1.71,1,1,1.69Zm-14.75-7.28-6.16,11.46,12.64-7.39ZM221.92,45.08l1.68,5.24,2.22-4Zm19.25,4.5-7-9.81L230.07,51l-3.22-5-5.71,2.72,8.75,2.8-1.32,3.63Zm-26.25-5.12.07,2.8,7.74-7.75-8.09-5.26.21,7.87-.26,2.47ZM217.16,52l1.85-.74-.74-1.83-1.85.74Zm18.51,8.3,3.78,10.33L240.81,64,247.19,71l2.06-6.66-8.2-1.59,1.08-5.27Zm7.27,10.31-1.46,5.31,4.09-2.2Zm18.95,5.31L251,84.12l4.08.65-4.31-.06,9.49,6-.23-5.1,2.32.37Zm-9.2,3.84.38-1.94-1.95-.38-.38,1.94ZM165,4.77,167.19,0,164,.58l.4,3.22Zm5.12,4.63-1.57-1.78-.69,2.77.18.18Zm12.22,6.07L182,10l-5.87,4.64Zm-6.19-9.79-1.94,2.49,1.63.31Zm-1.6,6-1.15-.19-.19,1.13,1.14.2Zm32.6,30.13,1.22-8.07-4.07,1.37Zm3.29-16a1,1,0,0,0-.19,1.37,1,1,0,0,0,1.39.19,1,1,0,0,0-1.2-1.56Zm-9.88,12.91.36,2.71a1.37,1.37,0,0,0,1.14-1.35,1.36,1.36,0,0,0-1.37-1.37Zm47.85-5.72-8.09-2.25-5.27,8.69Zm8.71,5.89-18,12.4,22.73-.5ZM195.87,12.6,192,17.91l5,6.2Zm23.46,7.85-4.06,6.66,8.44-3.35ZM212.68,7.6l-10.09.22,4.33,16.54Zm47,23.87-2.28-8.33-3.88,12Zm-16.2-14.86-2.59,8L245,22.2Zm-13.65,6-5.18-.16,1.53,2.72ZM235,25.86l2-12.27-8.76,9.5Z"/></g></g></svg>