<svg xmlns="http://www.w3.org/2000/svg" viewBox="0 0 2141.24 827.87"><path d="M1714.25 739.83l3.27-1.12-.3-.32c3.1.77 6.2 2.2 9.27 2.18 10.2-.1 19.8.53 23.67 12.9-11.5 10.35-26.54 6.83-40.67 7.38l-151.8 5.4c-21.33.62-42.7-.44-64.06 0-14.3.32-28.58 1.77-42.78 3.44-1.67.2-4.66 6.13-3.84 7.52 3.47 5.9 3.9 5.63-7 9.53 6.34 2.28 10.38 5 14.45 5l129.75 1.46c35.9.77 71.77 2.37 107.6 4.3 8 .43 16.2 3 23.64 6.1 3.5 1.47 5.44 6.63 8.36 10.5-20.13 12.9-43 9.16-64.52 9.4l-511.93 4.25c-93.67.3-187.34-1.88-281-2.92q-107.64-1.18-215.26-2.36l-78.92-1.24c-10.08 0-18.13-2.4-24.33-11.5 11.55-14.06 28.47-10.46 43.07-11.1 50.17-2.2 100.4-2.78 150.6-4a71.59 71.59 0 0 0 13.88-1.59l-111.1-4c-3.8-.15-9-.4-11-2.76-11.93-13.64-26.9-11.26-42.3-10.13-9.4.7-18.94-1.6-28.43-1.73l-184.6-2.4c-13.2-.25-26.5-2.34-39.46-5.06-4.68-1-8.44-6.3-12.6-9.65 3.78-3.75 7.25-10.32 11.4-10.8 29.08-3.34 58.27-7.06 87.48-7.6l309.88-3.65q68.78-.76 137.57-1.7a17.9 17.9 0 0 0 9.44-2.3l-73-2.64c-31.84-.8-63.8.16-95.52-2.24-24.6-1.86-48.77-8.8-73.35-11.47-22.83-2.5-45.94-2.5-68.94-3.28l-151.82-5.22c-8.45-.37-16.73-4.72-25.5-7.36l3.47-4.37c1 .76 2.07 1.53.37.27 2.12.1.76 0-.6 0l-7.7-9c19.2-19.7 44.86-14.82 68.28-19.6-35.58-3.37-73.38.66-104.8-30.24 13.18-4.82 24.64-7.67 34.8-13 20.5-10.76 42.3-7.53 63.84-8.28 8.52-.3 18.68 4.06 23.16-9.4 1-2.88 11.33-3.2 17.45-3.7 15.57-1.24 31.18-1.9 46.78-2.8l1.53-3.4c-5.43-2.6-10.62-6.48-16.33-7.52-10.24-1.85-21.05-.9-31.1-3.34-4.7-1.14-8.18-7.4-12.22-11.32 4.16-3.43 7.9-9 12.57-9.9 12.58-2.53 25.53-3.25 38.37-4.38 6.35-.56 12.74 1 16.24-7.47 1.28-3.1 7.92-4 14.3-6.84-6.65-.48-11.5-1.14-16.33-1.14-64.7 0-129.43.74-194.12-.3-25.07-.4-50.17-4.3-75.1-7.76-14.2-2-23.12-18.07-19.3-32.55-5.56-2.68-11-6.37-17-7.95-10.17-2.67-13.14-11.8-13.9-18.95-.64-6 1.68-14.9 11.5-17.83 13.4-4 26.28-9.83 39.37-14.87l-.07.23q1.47-6.25 3-12.5l-2.5-.52 12.8-15.44c-9.1-.66-17.53-1.63-26-1.8-14.36-.33-28.73-.18-43.1-.2-24.1 0-48.25.6-72.34-.2-36.7-1.2-73.5-2.24-110-5.85-11.74-1.16-23.3-9.25-33.83-16-8.38-5.35-5.8-13.5 3.65-17.5 26.77-11.32 54.44-13 83.28-12.06 29.05 1 58.23-2.5 87.37-3.8 14.93-.66 29.9-.8 44.83-1.27 3.13-.1 6.25-.6 11.25-1.08-4.9-5.27-9.66-8.77-12.15-13.47-3.56-6.73-8.63-11.3-4.68-22.7 4.8-13.88 15.44-19 24-26.4 7.7-6.7 5.8-14.7 6.45-20.94 1.9-18.08 10.58-33.85 29.86-35.58 36.42-3.25 72.95-5.24 109.44-7.7 3.2-.2 6.43 0 12.2 0-20.34-6.8-42.14-1.44-56.2-19.5 13-12.66 29.68-15.25 46.2-15.44l226.83-1.4c23-.1 46 0 69-1.37l-136-4-181.4-4.47a471.83 471.83 0 0 1-55.13-5.34c-8.2-1.23-16-5.9-10.87-17 .86-1.83 3.38-3.87 5.3-4l81.08-6.68c91.05-9.84 182.42-3.68 273.6-6.25 1.5 0 3-.16 3.34 2.15-11.93-4.4-23.56-10.35-35.88-12.72-12.5-2.4-25.68-1.64-38.56-1.64l-191.13.22c-32.55-.3-65.13-2.36-97.6-4.95-13.86-1.1-27.44-5.6-41.15-8.53l.2-.32-15-12.06c9-3.5 14.7-7.1 20.77-7.86 38.95-4.88 77.9-10.54 117-13.16 30.06-2 60.38.22 90.58.22l90.46-.54 123.84.7c14.18 0 28.35-1.3 42.5-2 0 .46 0 .9.06 1.36.1-.18.34-.43.3-.5a3.93 3.93 0 0 0-.64-.65c7-12.36 19.72-13.16 31.2-13.46l179.34-3 83.74-.06-2.18-10.8c-56.77 0-114 .56-171.22-.15Q758.1 54.38 663.24 51c-8.42-.28-16.65-5.84-25.78-9.26l3.7-8.92c-27.57-7.1-58.42 5.7-86.28-17.72 9.18-2.84 16.1-6.77 23.1-6.9q107.17-2.1 214.35-3.1L1236.22.74 1700.58 0c22.63 0 45.32-.17 67.88 1.26A624 624 0 0 1 1831 8.9c4 .67 9.5 7 9.76 11 .22 3.3-5.82 9.23-9.93 10.14A186.3 186.3 0 0 1 1795 34.5l-181.88 3.28-207.54.12-1.18 3.3c3.65 1.3 7.3 3.72 11 3.74l124.48.58c18.65.5 37.24 4.44 55.75 7.44 2.8.45 4.78 4.8 7.66 6.43 4.8 2.7 10 6.56 15.1 6.62l129.82.5c39.14.78 78.27 2.87 117.36 5.22 9.86.6 19.82 3.6 29.15 7.07 3.7 1.37 5.8 7 8.2 10.1-12 14.16-28 11.4-42.05 13.06-21.34 2.54-43 3.25-64.5 3.46q-121.75 1.24-243.52 1.6c-66.24.22-132.5 0-198.73-.07h-36.5l.73 8.06 160.26.15c31.93.32 64 .77 95.67 4.13 8.85.94 22.5-1.36 28.56 11.73 1.07 2.33 8.08 2.62 12.36 2.66l170.83 1.42c21.8.22 42.5 5.72 62.1 15.13 4.23 2 11.74 3.66 4.54 11-.12.12 3.25 3.66 4.5 5.06-10.25 25.9-31.85 31.2-56.44 32 12.64 1.08 24.86 1.6 36.9 3.32 10.74 1.53 21.28 4.38 31.9 6.64v4l-3.5 3 8.25 4.23c-10.83 19.1-29 12.45-44.57 14.78 14.2 3.23 29.62 2 39.5 15.3l.25-.34-2.77 3.5a5.81 5.81 0 0 1 .43.43l-.24-.83c1.64 2.9 4.52 5.8 4.6 8.74.1 3.82-2 7.7-2.8 10.26 8.32 4.13 15.5 7.06 21.92 11.2 2.66 1.72 4 5.9 5.3 9.23 4.75 12.33 15.7 8.7 24.45 9.08l139.4 5.07a315.41 315.41 0 0 1 43 4.59l-5.1 1.6c14.47 5.6 34.7-6.65 43.6 14.7-9.93 14-25.86 11.8-39.35 12.85-38.84 3-77.84 4.4-116.8 5.65l-115.95 2.16c-30.25.07-60.5-1.37-90.76-1.94-8.2-.15-17.94-1.6-15.55 12.33.2 1.1-3 3.58-5 4.1-8.3 2.2-16.75 3.93-28.22 6.52l8.6 14 .15-.47-7.6 13.82c128.48 2.75 253.65-8.17 380.4 8.36l-5.62 2.4 10.66 6.4a4.87 4.87 0 0 1-.72.94 7.61 7.61 0 0 1-1.07.53l.4.56-.3-.77 6.73 5.17c-13.68 15.1-31.94 12.82-48.56 14.2-27.77 2.3-55.7 2.93-83.54 4.34-6.64.34-13.26 1-20.74 1.58l4.87 14.06 119 4.86v2.8l-6 2.7c13.65-2.68 20 3.5 22.55 11.87-2.3 4.35-3.17 8.36-5.6 10-3.77 2.53-8.6 4.7-13 4.84l-175.24 4.68-116.83 3.95 3.1 11.25 65 .1c24.23.5 48.57.6 72.62 3.16 9.77 1 20.54 4.6 24.84 17.52 2.55 7.7 1.16 10.1-5.6 13.67l42.78 4.28c9.2.88 16.12 4.14 20.06 13.65 4.3 10.35.3 17.1-10.33 18.88-81.2 13.65-162.93 2.36-244.33 5.7-17.25.7-34.58.07-51.86-.5-5.9-.2-10.46-.55-10 7.44.05.83-3.47 2.48-5.45 2.7l-67.22 7.33c-1.92.2-3.82.58-5.73.88l.1 3.13c12.57 0 25.23-1 37.68.2 23.4 2.25 46.7 5.77 70 8.73 8.82 1.12 12.1 7.1 10.4 16-1.65 8.65-1.73 17.6-2.6 27.42l-89.86 5.5-.12 1.73 64.22 5.28 98 7.6c3.94.32 11.3 0 4.9 7.63l5.8 2.2 1.64 3.37c-5.5 3-10.72 7.82-16.54 8.7-68.63 10.25-137.8 5.1-206.73 6.3-9.7.17-19.38 0-25.72 0l-12.28 22.5c6.38.53 15 1.6 23.64 1.9l103 3.2c7.5.28 15 1.8 22.46 2.75zM893 729.9l-.5.5.87-.3a2.35 2.35 0 0 0-.38-.2zm-139.5-66l.08 1.14H759v-1.14zM447.2 225.56a2.85 2.85 0 0 0-.08-.67 7.11 7.11 0 0 0-1 0c0 .22 0 .62.08.63a5 5 0 0 0 1 .04zm-10.06-.63l-.83.33a2.51 2.51 0 0 0 .82.31 2.56 2.56 0 0 0 .83-.31zm262 438.77v1.54l3.67-.3a2.29 2.29 0 0 0 0-.69c-1.2-.24-2.42-.37-3.65-.54zm-16.56 1.46l1.58-.78c-.3-.16-.66-.5-.92-.45a8.43 8.43 0 0 0-1.62.74zm-37.57-.22l-.27-1.35-3.4.72.26 1.24zm-19.44-.24l-1.7-.33c.25.2.48.48.75.53a2.62 2.62 0 0 0 .91-.2zm-21.5 0a10.14 10.14 0 0 0-1.53-1.13c-.24-.1-.67.18-1 .28l.5 1.6zm-15.68.28c-1.25-.68-1.93-1.36-2.5-1.27s-.88 1-1.3 1.53zm-97.45.14l-.23-1.54-3.86.67.2 1.32zM763 792.46v1.3h3.92v-1.1zM471.7 665.8l-.5-2.3-4.25.84.18 1.68zm304.9 128v-1h-4v1zm865.74-127.2h-1.93a4.88 4.88 0 0 0 0 .69h2zm49.78 132.25l-1.7 1.36c.58.38 1.18 1.06 1.75 1s1.13-.72 1.7-1.13zM1632.6 666.6h-1.88a3.55 3.55 0 0 0 0 .68h1.9zm53.5-52.65l-1.84-.7c0 .24 0 .67.06.68a13.59 13.59 0 0 0 1.78-.02zM741.6 665v-.63l-2.75-.22v.62zm64.12 128.8v-1h-4v1zm-13.6-1.32l-.06 1.4 3.9.17c0-.45 0-.9.07-1.36zm-5.83 1.3v-1h-3.95v1zM527.43 664.3c.07.23.07.58.22.66a3.08 3.08 0 0 0 .93.2l-.25-1.18zm18 0l-.8.32.82.3zm21.57.14l.7.55.25-.7zM1748.67 676l-.84.46.9.36zm-52.5-62.58l-1.54-.17c.23.18.45.5.7.5s.56-.2.84-.32zM659.55 664.87l.07-.63-.87.26zm-204.92-439.8l.75.47.17-.62zm1284.46 451.1l-.9.44.94.33zm-925.6 117.2c-.24-.23-.46-.6-.72-.64a2.62 2.62 0 0 0-1 .32c.26.23.5.6.78.65s.62-.2.94-.33zM622.65 774.2a2.89 2.89 0 0 0 .88.24c.1 0 .17-.46.25-.7a2.33 2.33 0 0 0-.86-.2c-.12.01-.18.45-.27.66zM1570 51.15l1.67-.9c-.23-.26-.47-.74-.7-.74a9.48 9.48 0 0 0-1.86.39c.33.4.6.8.9 1.26zm296.35 23.24a11.35 11.35 0 0 0-2-.67c-.16 0-.44.53-.66.8a10.82 10.82 0 0 0 1.86.65c.28.03.56-.5.84-.8zm-305 46.2c-.2-.27-.47-.8-.63-.78a11.21 11.21 0 0 0-1.84.58c.22.27.47.8.65.77a10.08 10.08 0 0 0 1.83-.57zm-885.5 21.9l.64.46.2-.58zm1180.57 63a11.51 11.51 0 0 0-1.85-.7c-.13 0-.4.54-.6.83a11.3 11.3 0 0 0 1.81.67c.16 0 .43-.55.65-.83zm-164.07 535l1.9-.76c-.16-.26-.28-.7-.48-.74a12.6 12.6 0 0 0-1.85-.09zm153.24-534.66l-.65-.42-.1.67zm9.2-131.6l-.4.54.6.1z"/></svg>