<?xml version="1.0" standalone="no"?>
<!DOCTYPE svg PUBLIC "-//W3C//DTD SVG 20010904//EN"
 "http://www.w3.org/TR/2001/REC-SVG-20010904/DTD/svg10.dtd">
<svg version="1.0" xmlns="http://www.w3.org/2000/svg"
 width="1600.000000pt" height="1132.000000pt" viewBox="0 0 1600.000000 1132.000000"
 preserveAspectRatio="xMidYMid meet">
<metadata>
Created by potrace 1.16, written by Peter Selinger 2001-2019
</metadata>
<g transform="translate(0.000000,1132.000000) scale(0.100000,-0.100000)"
fill="#000000" stroke="none">
<path d="M11201 9311 c-18 -33 -24 -97 -11 -121 24 -44 9 -156 -26 -200 -9
-10 -10 -21 -3 -32 21 -37 -36 -91 -108 -103 -39 -6 -43 -5 -43 14 0 27 -27
27 -35 1 -8 -25 -37 -41 -55 -30 -11 7 -11 11 -1 24 9 11 10 20 2 35 -6 11
-11 30 -11 43 0 13 -5 30 -11 38 -8 11 -9 6 -4 -22 3 -21 1 -39 -5 -43 -5 -3
-10 -17 -10 -30 0 -30 -53 -75 -89 -75 -15 0 -36 6 -46 14 -14 10 -26 11 -43
5 -39 -15 -56 -10 -105 30 -26 22 -75 52 -107 68 -35 16 -58 33 -55 40 5 14
-16 37 -45 53 -15 8 -21 6 -30 -10 -14 -27 -7 -37 32 -45 33 -8 133 -103 144
-138 3 -10 0 -32 -6 -48 -12 -28 -15 -29 -73 -29 -79 0 -127 -17 -127 -45 0
-12 5 -26 12 -33 9 -9 9 -15 1 -23 -14 -14 -36 -3 -97 49 -24 20 -68 54 -98
75 -50 35 -54 40 -56 82 -2 47 22 164 39 197 10 19 -3 80 -23 105 -13 16 -38
5 -38 -18 0 -10 -5 -29 -11 -43 -9 -20 -8 -33 5 -66 19 -47 20 -71 6 -120 -19
-65 -23 -66 -83 -17 -31 25 -91 59 -138 78 -48 20 -97 48 -116 67 -18 17 -36
32 -41 32 -5 0 -29 17 -53 38 -75 66 -99 76 -139 60 l-33 -14 49 -35 c27 -19
70 -48 96 -64 50 -32 66 -54 47 -65 -8 -5 -8 -13 1 -27 11 -16 10 -24 -5 -47
-25 -38 -63 -55 -135 -61 -34 -3 -66 -7 -71 -11 -5 -3 -18 -2 -30 1 -18 6 -18
8 -5 18 13 11 13 18 1 66 -17 64 -31 82 -21 29 4 -23 3 -38 -3 -38 -5 0 -11
-14 -13 -32 -2 -20 -13 -38 -29 -51 -27 -19 -27 -19 -57 3 l-31 23 -45 -22
c-25 -11 -49 -21 -52 -21 -17 0 -64 44 -64 60 0 15 -38 50 -54 50 -2 0 -9 -12
-15 -27 -24 -60 -47 -92 -62 -82 -8 5 -9 9 -4 9 24 1 -23 20 -49 20 -27 0 -28
-2 -21 -32 12 -56 11 -62 -16 -71 -21 -8 -32 -5 -57 13 -21 16 -36 20 -49 14
-19 -8 -59 -14 -105 -14 -17 0 -31 -7 -38 -20 -6 -11 -20 -20 -31 -20 -27 0
-49 -47 -28 -62 11 -8 11 -9 -4 -4 -13 4 -40 -15 -95 -68 -102 -97 -174 -132
-221 -106 -39 20 -42 42 -16 126 14 44 25 87 25 97 0 11 9 30 20 44 11 14 17
29 14 34 -3 5 -13 0 -23 -12 -18 -22 -18 -22 -26 22 l-7 44 -14 -64 c-14 -65
-24 -81 -56 -81 -15 0 -18 10 -18 64 0 34 4 76 9 92 5 16 12 42 16 59 l7 30
24 -40 24 -40 0 37 c0 20 -4 48 -10 62 -12 33 -5 33 37 0 l33 -25 0 25 c0 15
1 29 3 33 1 4 -21 23 -49 42 -28 20 -68 51 -88 69 -26 23 -46 32 -71 32 -46 0
-45 -16 6 -60 39 -34 40 -36 28 -68 -9 -26 -8 -39 2 -65 14 -34 20 -149 7
-140 -5 2 -11 -10 -14 -27 -4 -17 -11 -33 -15 -36 -5 -3 -9 -19 -9 -37 0 -24
-3 -28 -12 -19 -7 7 -23 12 -37 12 -23 0 -24 -1 -6 -20 16 -18 16 -20 1 -35
-14 -15 -14 -18 -1 -31 19 -20 19 -40 0 -48 -8 -3 -15 -12 -15 -20 0 -9 -9
-20 -20 -26 -11 -6 -20 -20 -20 -32 0 -17 -3 -19 -12 -10 -28 28 -38 14 -32
-47 l7 -58 -39 -7 c-31 -6 -41 -4 -51 10 -11 15 -25 18 -81 16 -37 -2 -74 -9
-82 -17 -8 -7 -25 -16 -38 -20 -20 -6 -22 -11 -17 -36 4 -18 3 -29 -4 -29 -6
0 -11 -14 -11 -31 0 -17 -4 -28 -10 -24 -5 3 -10 14 -10 24 0 9 -13 30 -30 46
-28 26 -30 27 -53 12 -23 -15 -26 -14 -65 23 -22 21 -56 46 -76 54 -21 9 -40
26 -46 41 -12 31 -50 35 -50 5 0 -27 -20 -25 -61 5 -19 13 -43 29 -54 34 -11
5 -35 23 -53 40 -53 49 -87 37 -37 -13 14 -14 25 -31 25 -39 0 -8 46 -48 102
-88 106 -77 208 -165 208 -181 0 -20 -31 -18 -69 6 -23 15 -41 25 -41 23 0 -2
11 -25 24 -53 25 -51 25 -64 0 -64 -8 0 -14 -7 -14 -16 0 -24 -30 -43 -67 -44
-22 0 -47 -13 -83 -42 -67 -56 -111 -88 -120 -88 -4 0 -22 10 -41 23 -23 15
-42 41 -57 77 -37 90 -24 142 75 289 28 41 28 48 3 56 -29 9 -93 -12 -119 -39
l-22 -24 -25 25 c-27 27 -28 32 -12 68 8 18 14 22 19 13 6 -9 18 -2 45 25 21
20 44 37 51 37 9 0 12 7 8 19 -3 10 1 24 10 31 19 16 20 66 1 73 -13 5 -33 91
-26 112 6 18 6 105 1 105 -3 0 -14 -7 -24 -14 -9 -7 -28 -11 -41 -9 l-23 5 5
-99 c5 -95 4 -97 -14 -83 -27 22 -34 32 -34 57 0 12 -10 37 -22 56 -19 29 -27
34 -50 30 -21 -4 -28 -2 -28 10 0 10 -6 14 -14 11 -7 -3 -16 2 -19 10 -7 18
-42 21 -53 5 -4 -6 -19 -9 -37 -5 l-30 6 27 -25 c15 -14 24 -30 21 -35 -10
-15 -46 -12 -67 7 -15 13 -23 14 -44 4 -15 -6 -35 -9 -46 -5 -17 5 -19 12 -13
55 6 43 5 48 -10 43 -12 -5 -16 -15 -13 -35 6 -36 -10 -37 -46 -4 -20 19 -38
25 -72 25 -24 0 -44 -3 -44 -7 0 -5 16 -19 35 -33 35 -25 50 -48 40 -59 -3 -3
-15 0 -26 7 -11 7 -30 10 -42 7 -15 -4 -18 -3 -9 3 11 7 11 10 -2 15 -10 4
-16 1 -16 -7 0 -9 -7 -12 -20 -9 -11 3 -20 11 -20 19 0 7 -16 17 -35 23 -19 5
-59 30 -89 55 -29 25 -58 46 -64 46 -6 0 -15 7 -20 16 -8 15 -11 15 -36 -1
l-27 -18 22 -23 21 -22 -39 8 c-23 6 -42 5 -47 0 -6 -6 -18 -10 -28 -10 -10 0
-21 -7 -24 -15 -5 -12 -15 -7 -47 20 -22 19 -46 35 -53 35 -8 0 -18 9 -24 21
-9 16 -14 18 -26 8 -11 -9 -19 -8 -39 5 -14 9 -30 14 -35 11 -6 -3 -10 1 -10
9 0 23 -30 20 -57 -6 l-23 -22 30 -31 c27 -28 29 -35 21 -58 -13 -34 -19 -34
-61 3 -35 29 -60 38 -60 21 0 -5 14 -21 31 -35 17 -14 29 -31 27 -37 -2 -6
-37 14 -78 45 -41 30 -76 53 -78 51 -2 -2 4 -17 13 -34 8 -17 13 -31 9 -31 -3
0 -43 34 -89 75 -45 41 -87 75 -94 75 -6 0 -16 9 -23 19 -9 15 -15 17 -28 8
-13 -8 -24 -5 -46 10 -51 35 -54 36 -46 12 5 -12 35 -42 69 -68 33 -25 95 -73
139 -106 80 -62 114 -91 114 -100 0 -7 -191 94 -211 111 -8 8 -21 14 -27 14
-7 0 -12 9 -12 19 0 25 -61 65 -72 48 -16 -25 -7 -37 47 -63 30 -15 55 -31 55
-36 0 -4 16 -25 35 -47 37 -41 41 -52 25 -81 -9 -17 -12 -17 -62 4 -59 24
-184 104 -213 136 -10 11 -24 20 -30 20 -7 0 -18 6 -25 14 -9 11 -17 12 -34 5
-19 -9 -28 -6 -51 15 -15 14 -31 24 -35 21 -3 -2 -4 -27 0 -55 4 -27 3 -50 0
-50 -4 0 -19 9 -33 20 -14 11 -30 20 -36 20 -6 0 -20 9 -32 21 -15 15 -24 18
-32 10 -17 -17 -67 -13 -115 9 l-43 19 -9 -25 c-6 -14 -10 -28 -10 -32 0 -12
168 -152 182 -152 20 0 78 -38 78 -51 0 -7 -7 -8 -17 -3 -10 4 -30 7 -45 6
-16 -1 -28 3 -28 8 0 6 -7 10 -16 10 -9 0 -54 37 -101 82 l-84 82 -50 -50
c-52 -52 -57 -77 -18 -87 10 -3 19 -10 19 -16 0 -17 -15 -13 -35 9 -22 24 -32
25 -73 4 -91 -45 -159 -17 -148 62 4 34 1 45 -16 60 -21 19 -21 19 -16 -3 8
-31 2 -29 -43 12 -40 36 -69 38 -69 4 0 -18 5 -24 60 -68 20 -16 23 -22 12
-33 -13 -13 -15 -12 -80 30 -20 13 -22 13 -22 -4 0 -11 -14 -27 -30 -36 -18
-10 -30 -25 -30 -38 0 -25 -15 -26 -25 -2 -6 16 -7 16 -21 -2 -12 -17 -12 -22
3 -38 9 -10 26 -18 39 -18 23 0 84 -44 84 -61 0 -17 -47 -9 -70 11 -27 23 -46
26 -53 6 -3 -7 -20 -16 -38 -20 -25 -5 -37 -2 -50 13 -16 16 -28 19 -76 15
-56 -5 -143 -37 -143 -53 0 -13 69 -41 100 -41 19 0 47 -14 82 -43 29 -23 70
-51 91 -62 21 -11 43 -26 49 -32 18 -22 -16 -15 -47 9 -27 21 -28 21 -16 0 6
-11 11 -23 11 -26 0 -12 -23 -5 -47 14 -19 15 -30 17 -44 9 -15 -8 -32 -4 -74
15 -30 13 -63 22 -74 19 -11 -3 -36 0 -56 7 -42 14 -51 10 -37 -17 6 -11 36
-26 75 -37 49 -14 68 -25 76 -43 6 -13 11 -26 11 -28 0 -12 -22 -3 -40 15 -24
24 -42 26 -34 5 5 -12 -2 -11 -37 5 -50 22 -75 25 -84 9 -12 -18 26 -49 60
-49 55 0 152 -74 175 -134 14 -37 9 -41 -23 -16 -34 27 -43 25 -42 -7 0 -22
-5 -29 -23 -31 -14 -2 -29 4 -37 15 -8 10 -15 13 -15 6 0 -7 18 -27 40 -44 45
-36 50 -54 19 -64 -16 -5 -27 0 -43 20 l-22 28 -14 -33 c-11 -26 -11 -35 -2
-38 14 -4 42 -54 42 -75 0 -23 -29 -28 -58 -12 -40 24 -96 64 -103 77 -6 9
-12 8 -23 -1 -14 -11 -21 -9 -52 14 -19 15 -38 25 -41 21 -8 -8 57 -86 73 -86
7 0 38 -21 68 -47 29 -27 72 -60 94 -75 43 -30 46 -53 14 -90 -19 -23 -46 -9
-74 38 -19 32 -48 46 -48 24 0 -17 -26 -11 -46 11 -10 12 -32 28 -49 36 -25
13 -80 58 -218 179 -15 12 -21 13 -33 3 -11 -9 -18 -8 -32 5 -10 9 -24 16 -30
16 -23 0 -11 -20 31 -52 62 -48 141 -118 132 -118 -4 0 -23 10 -43 22 -70 43
-26 -7 82 -93 135 -108 157 -131 93 -96 -58 31 -60 21 -7 -27 22 -20 40 -43
40 -51 0 -8 5 -15 10 -15 6 0 10 -6 10 -13 0 -7 14 -23 31 -36 16 -12 34 -34
39 -47 8 -21 5 -32 -22 -65 -17 -21 -39 -39 -49 -39 -10 0 -34 15 -54 34 -20
19 -40 36 -44 38 -34 14 -118 76 -191 141 -48 42 -93 77 -99 77 -6 0 -16 9
-23 19 -9 15 -15 17 -28 8 -13 -8 -27 -3 -63 22 l-46 31 14 -26 c7 -14 38 -45
68 -68 30 -22 72 -56 93 -73 200 -166 259 -203 386 -238 51 -14 106 -51 93
-63 -2 -2 -22 5 -44 17 l-41 21 -19 -21 c-18 -19 -21 -19 -55 -5 -46 19 -49
41 -3 32 23 -4 28 -3 17 4 -8 5 -25 10 -38 10 -12 0 -42 18 -67 41 -49 45 -56
42 -25 -9 27 -45 25 -55 -8 -38 -18 9 -43 13 -68 9 -33 -4 -44 0 -73 26 -27
24 -44 31 -75 31 -23 0 -52 7 -66 15 -48 28 -65 34 -112 40 -37 5 -58 16 -96
50 -27 25 -52 42 -56 38 -3 -3 -6 -20 -6 -36 0 -31 34 -70 127 -147 25 -21 45
-47 49 -64 4 -19 35 -57 88 -107 83 -79 98 -111 29 -65 -45 31 -62 14 -19 -18
65 -50 110 -93 126 -119 16 -26 94 -87 272 -214 57 -41 74 -59 96 -105 6 -14
-112 -9 -171 7 -32 8 -66 15 -76 15 -9 0 -33 14 -51 30 -18 17 -39 30 -47 30
-7 0 -52 36 -100 80 -49 44 -93 80 -100 80 -7 0 -17 10 -24 21 -11 21 -11 21
-26 -8 -14 -29 -13 -31 30 -74 23 -24 54 -51 68 -60 39 -27 15 -33 -55 -15
-36 9 -73 16 -83 16 -30 0 78 -58 132 -71 114 -26 184 -57 185 -83 0 -16 -143
6 -194 30 -28 13 -63 24 -77 24 -33 0 -89 19 -110 36 -32 28 -40 5 -13 -35 11
-16 19 -19 24 -11 5 8 24 2 64 -19 31 -17 69 -31 84 -31 27 0 132 -65 132 -81
0 -5 6 -9 13 -9 7 0 30 -12 52 -27 l40 -27 -40 -8 c-32 -7 -44 -5 -67 12 -36
26 -39 25 -32 -9 4 -20 1 -30 -9 -34 -26 -10 -148 57 -240 132 -81 66 -117 85
-117 62 0 -5 -12 -11 -27 -13 -24 -3 -18 -9 59 -63 241 -169 240 -168 234
-197 -4 -21 -1 -28 14 -33 25 -8 27 -45 3 -45 -13 0 -6 -11 22 -39 22 -21 43
-35 46 -29 4 6 34 -10 69 -36 75 -56 55 -61 -45 -12 -53 27 -72 32 -83 24 -10
-9 -20 -7 -42 5 -36 22 -46 7 -19 -27 l21 -27 -21 -20 c-11 -11 -21 -24 -21
-28 0 -5 -9 -11 -20 -14 -26 -7 -26 -37 0 -44 11 -3 20 -9 20 -13 0 -8 -33 -1
-71 14 -9 4 -23 -1 -34 -14 -11 -12 -31 -20 -52 -20 -27 0 -33 -4 -33 -21 0
-16 -3 -19 -13 -12 -16 14 -82 25 -91 16 -3 -4 -27 -6 -51 -4 -41 2 -45 1 -45
-21 0 -13 5 -29 11 -35 8 -8 7 -13 -2 -18 -7 -5 -17 -1 -24 8 -16 22 -25 21
-25 -2 0 -24 57 -38 74 -17 6 7 27 16 46 20 23 4 30 3 21 -3 -11 -7 -5 -11 22
-16 20 -4 37 -11 37 -16 0 -5 9 -9 20 -9 11 0 20 -4 20 -10 0 -5 16 -17 36
-26 20 -9 39 -27 44 -39 5 -12 16 -25 24 -28 9 -4 16 -13 16 -21 0 -8 11 -23
23 -33 31 -24 46 -113 22 -133 -8 -7 -15 -24 -15 -37 0 -22 -3 -24 -25 -19
-37 9 -50 -2 -29 -25 16 -18 16 -21 -2 -55 -29 -53 -41 -60 -72 -42 -46 27
-74 26 -89 -2 -17 -34 -16 -66 3 -95 16 -24 12 -45 -8 -45 -6 0 -17 -8 -24
-17 -12 -16 -15 -16 -24 -3 -5 8 -7 22 -4 31 2 9 -3 25 -13 34 -16 17 -18 16
-32 -2 -9 -10 -25 -22 -35 -26 -15 -6 -17 -10 -8 -19 7 -7 12 -22 12 -35 0
-13 5 -23 10 -23 25 0 4 -36 -56 -97 -58 -57 -65 -69 -55 -84 6 -11 11 -32 11
-48 0 -24 -9 -35 -47 -60 -59 -40 -97 -41 -115 -4 -7 16 -36 42 -63 60 -28 18
-55 37 -62 42 -7 6 -17 11 -23 11 -5 0 -10 5 -10 10 0 6 7 10 15 10 12 0 13 4
3 25 -16 35 -51 33 -64 -2 -14 -39 -8 -55 26 -78 24 -16 58 -72 48 -80 -2 -1
-26 -5 -55 -8 l-52 -6 -28 45 c-30 47 -44 57 -36 24 3 -11 10 -20 15 -20 14 0
50 -87 46 -113 -3 -20 1 -22 36 -20 46 2 53 8 37 27 -11 13 -8 16 14 22 39 10
93 -18 101 -52 10 -39 -7 -59 -55 -62 -49 -4 -55 -25 -16 -62 28 -27 32 -48
10 -56 -8 -4 -15 -13 -15 -20 0 -8 -11 -19 -25 -24 -14 -5 -30 -20 -36 -33 -6
-13 -24 -31 -40 -41 -16 -9 -29 -24 -29 -32 0 -20 -54 -74 -74 -74 -9 0 -16
-8 -16 -19 0 -30 3 -32 160 -90 25 -9 50 -19 55 -22 6 -4 35 -14 65 -24 85
-27 103 -41 95 -76 l-7 -29 61 0 c49 0 62 -3 71 -19 18 -34 12 -60 -15 -67
-29 -7 -28 -27 1 -33 10 -1 26 -9 34 -16 8 -6 37 -18 63 -25 26 -7 64 -25 83
-41 19 -15 39 -29 43 -31 19 -8 74 -104 75 -132 1 -22 11 -40 34 -59 26 -24
32 -37 32 -68 0 -37 12 -51 25 -29 3 5 22 10 41 10 32 0 34 -2 34 -34 0 -28 4
-35 27 -40 14 -4 91 -68 171 -143 148 -138 193 -169 224 -152 23 12 28 11 28
-6 0 -26 90 -107 112 -101 15 3 23 -3 33 -27 8 -19 37 -49 74 -75 34 -23 61
-46 62 -50 7 -66 3 -74 -26 -42 -12 13 -25 18 -40 14 -13 -3 -26 -1 -29 5 -4
6 -16 11 -26 11 -17 0 -39 9 -102 41 -35 18 -162 116 -212 164 -21 20 -51 44
-65 53 -39 24 -186 139 -229 178 -44 41 -52 42 -52 8 0 -14 -4 -33 -10 -43 -7
-15 -2 -26 28 -57 46 -48 85 -74 111 -74 12 0 26 -12 35 -29 9 -16 44 -51 78
-78 54 -42 63 -54 63 -81 0 -37 -5 -39 -29 -13 -10 10 -37 21 -64 25 -26 3
-60 15 -77 26 -16 11 -37 20 -46 20 -8 0 -49 27 -90 59 l-74 60 -27 -30 c-23
-25 -28 -39 -28 -82 0 -48 3 -55 39 -89 22 -21 58 -42 82 -48 24 -7 66 -27 94
-45 28 -18 61 -36 73 -40 26 -8 86 10 123 37 14 11 41 21 60 23 58 7 71 11 81
28 5 9 20 17 33 17 18 0 23 4 18 16 -4 12 -1 15 13 12 15 -2 19 -12 19 -42 0
-23 6 -41 13 -44 14 -4 62 -76 62 -92 0 -19 36 -52 84 -77 27 -13 58 -34 70
-45 11 -11 45 -36 75 -56 30 -19 73 -52 95 -72 53 -48 138 -102 199 -124 26
-10 69 -33 95 -52 26 -19 54 -37 62 -41 8 -3 29 -19 45 -34 37 -35 114 -93
146 -109 13 -7 28 -19 32 -26 10 -18 96 -68 104 -61 3 4 0 20 -7 36 -14 34 -7
51 20 51 42 0 23 20 -93 98 -211 142 -351 241 -370 263 -15 19 -25 79 -12 79
16 0 211 -141 300 -218 22 -18 87 -56 145 -84 58 -28 124 -66 148 -86 23 -19
44 -33 46 -31 8 10 26 49 26 57 0 24 -97 125 -142 148 -43 22 -47 27 -38 44 6
11 13 20 16 20 14 0 64 -42 59 -50 -6 -10 34 -40 86 -64 20 -9 45 -25 55 -34
11 -10 34 -28 52 -41 29 -21 36 -22 63 -10 27 10 35 10 61 -6 29 -16 32 -16
69 0 41 19 50 38 23 53 -25 14 -13 47 19 50 19 2 27 9 27 23 0 10 -4 19 -10
19 -5 0 -10 -6 -10 -14 0 -15 -76 -31 -102 -21 -10 4 -19 25 -23 52 -8 56 8
79 46 65 43 -15 59 -5 59 38 0 45 14 59 30 30 13 -24 42 -26 60 -5 17 21 40
19 40 -4 0 -27 -27 -51 -56 -51 -30 0 -31 -23 -7 -134 l18 -78 68 6 c73 7 111
21 141 55 24 26 15 71 -14 71 -11 0 -20 6 -20 14 0 23 20 30 34 11 12 -17 13
-17 20 1 8 20 4 23 -63 67 -19 12 -36 27 -38 34 -5 15 34 41 74 49 27 5 33 2
47 -22 l15 -29 1 31 c0 18 -6 46 -13 63 -11 27 -11 39 2 81 20 65 45 68 62 8
10 -37 8 -54 -11 -123 -28 -101 -27 -124 6 -153 30 -26 89 -28 89 -2 0 8 9 16
20 19 11 2 35 16 54 32 38 31 48 31 32 0 -7 -11 -9 -31 -5 -45 3 -14 -1 -37
-10 -54 -20 -39 -20 -42 4 -42 11 0 20 -7 20 -15 0 -26 -28 -85 -40 -85 -7 0
-9 -8 -5 -20 3 -10 1 -28 -4 -39 -13 -23 10 -36 37 -22 9 5 45 12 79 16 50 5
69 13 100 40 34 30 36 34 26 58 -10 20 -9 28 3 37 8 7 14 21 14 31 0 10 4 20
9 23 17 11 20 82 5 136 -12 47 -13 62 -1 100 18 62 40 64 60 3 15 -45 15 -51
-5 -108 -22 -65 -35 -192 -24 -249 6 -32 10 -36 36 -36 23 0 30 5 30 19 0 26
9 31 71 33 44 2 59 8 82 31 15 15 27 32 27 37 0 13 33 13 46 0 8 -8 15 -6 24
5 37 44 75 -8 46 -63 -20 -38 -20 -42 -1 -42 8 0 19 -9 25 -19 8 -15 21 -19
62 -20 29 0 62 -2 73 -3 17 -3 20 4 23 39 4 50 41 93 82 93 16 0 30 7 34 15 7
18 57 20 74 3 20 -20 14 -56 -13 -74 -27 -17 -34 -44 -12 -44 18 0 54 40 59
65 2 11 12 21 22 23 17 4 18 -1 12 -44 -10 -78 36 -111 80 -56 19 23 25 25 42
15 16 -9 24 -8 42 4 19 14 28 14 57 4 42 -16 47 -12 88 67 24 46 35 58 58 60
16 2 31 10 34 18 3 9 13 12 30 8 19 -5 25 -2 30 15 3 11 10 18 15 15 5 -3 19
3 31 14 43 40 122 56 133 27 4 -8 -6 -31 -20 -49 -14 -19 -26 -38 -26 -41 0
-4 -13 -26 -28 -49 -35 -51 -45 -108 -28 -156 11 -30 17 -35 39 -32 21 3 27
-1 27 -17 0 -11 -7 -24 -16 -29 -14 -8 -12 -12 11 -30 43 -34 67 -28 137 34
64 56 102 79 119 69 12 -8 51 14 67 37 7 10 20 18 29 18 12 0 14 -9 8 -48 -5
-36 -1 -61 14 -103 25 -66 55 -97 102 -105 96 -16 97 -16 117 4 59 59 135 112
152 107 10 -3 29 0 44 6 24 11 29 9 61 -24 30 -31 35 -43 35 -84 1 -44 2 -47
15 -29 10 13 12 23 5 30 -5 5 -10 17 -10 25 0 14 1 14 10 1 8 -12 10 -10 10
10 0 16 12 34 34 53 41 32 46 33 46 10 1 -27 25 -54 42 -48 9 4 18 -1 21 -9 5
-13 -1 -16 -26 -16 l-31 0 22 -16 c19 -13 22 -22 16 -47 -3 -18 -13 -36 -20
-40 -8 -4 -14 -12 -14 -17 0 -18 -80 -91 -93 -85 -6 4 1 -5 17 -20 27 -25 33
-26 87 -20 55 6 59 5 70 -17 6 -13 34 -34 62 -47 29 -13 69 -33 90 -43 46 -22
47 -22 47 -2 0 20 13 15 85 -31 68 -43 87 -44 117 -5 13 17 33 43 46 57 14 17
21 35 18 48 -3 11 -1 26 3 34 13 20 65 -3 92 -40 27 -38 43 -37 36 1 -6 26 -3
31 18 36 14 3 25 9 25 13 0 4 -48 40 -107 79 -60 39 -133 90 -163 112 -30 22
-89 63 -130 92 -68 48 -75 57 -78 91 -4 48 17 49 78 2 25 -19 63 -47 85 -62
22 -15 69 -53 105 -83 74 -64 117 -91 204 -126 33 -13 78 -36 98 -49 21 -14
43 -25 50 -25 6 0 21 -9 33 -20 16 -15 29 -19 53 -14 35 7 34 6 32 82 -2 56 3
61 33 34 11 -9 17 -12 14 -5 -4 6 4 25 18 41 14 16 25 34 25 40 0 5 7 15 15
22 21 17 19 27 -6 35 -19 6 -19 8 -4 25 11 12 13 20 5 25 -6 4 -22 24 -35 45
-13 21 -37 45 -52 52 -17 8 -30 25 -35 46 -7 26 -13 32 -28 27 -10 -3 -21 -2
-24 3 -11 18 -95 5 -135 -21 -36 -24 -41 -25 -55 -11 -9 8 -16 19 -16 24 0 5
-11 21 -25 36 -19 21 -22 29 -13 36 19 12 25 10 48 -14 l20 -22 16 22 c19 27
28 28 54 2 15 -15 27 -18 50 -13 17 3 49 0 71 -7 30 -10 42 -11 51 -2 19 19
48 14 48 -8 0 -23 13 -26 30 -6 34 42 101 -45 114 -150 3 -27 10 -65 14 -84
l8 -35 7 32 c7 34 69 103 92 103 17 0 11 -47 -16 -134 l-19 -59 25 -25 c14
-13 23 -28 20 -32 -6 -9 60 -50 80 -50 8 0 33 -18 57 -40 24 -22 49 -40 56
-40 6 0 12 -4 12 -10 0 -14 36 -13 59 2 14 9 23 8 42 -5 33 -23 63 -21 96 7
31 26 56 98 46 134 -3 12 -1 22 4 22 14 0 36 -97 29 -125 -10 -39 26 -32 58
10 32 41 43 43 75 10 30 -33 41 -32 80 9 28 29 32 39 26 65 -4 17 -3 31 2 31
12 0 34 68 40 121 3 29 -1 59 -11 83 -14 35 -14 42 0 87 20 60 41 62 61 4 13
-37 12 -47 -12 -131 -27 -94 -27 -102 -10 -286 7 -73 9 -77 41 -94 33 -18 34
-18 58 5 38 36 60 22 53 -32 -10 -72 -2 -83 73 -112 59 -23 71 -24 91 -13 18
11 22 11 26 0 3 -8 9 -10 16 -4 7 5 47 12 90 14 84 5 119 25 131 74 4 13 14
24 22 24 14 0 16 -8 10 -50 l-7 -50 41 0 c39 0 80 26 80 50 0 5 7 10 15 10 9
0 18 12 21 29 4 20 15 33 34 41 29 12 56 39 78 79 13 22 11 26 -15 48 -15 13
-44 34 -64 47 -19 13 -55 44 -80 68 -24 25 -57 53 -74 63 -63 40 -145 107
-145 118 0 7 10 17 22 22 13 6 24 19 26 30 2 11 7 23 11 28 4 4 45 -28 92 -71
104 -96 140 -122 172 -122 16 0 34 -10 47 -27 27 -35 80 -70 110 -75 15 -2 30
-14 38 -31 12 -26 15 -26 35 -12 31 22 47 18 47 -11 0 -14 4 -23 9 -19 6 3 15
-4 21 -16 12 -21 12 -21 40 6 22 21 42 29 81 33 l52 5 -7 -34 c-23 -108 -19
-122 36 -134 23 -5 35 -2 53 15 28 26 40 21 48 -20 5 -21 12 -30 27 -30 35 0
22 -32 -35 -87 -53 -52 -67 -84 -43 -99 6 -4 16 -1 22 7 30 37 67 61 99 64 48
4 77 22 77 45 0 13 7 20 20 20 23 0 26 10 8 28 -9 9 -7 17 10 35 12 13 22 34
22 48 0 30 26 69 46 69 18 0 18 -10 -1 -24 -12 -10 -12 -14 3 -34 l18 -23 42
65 c23 36 47 66 52 66 6 0 15 12 21 27 8 21 7 28 -6 35 -8 5 -15 16 -15 24 0
24 29 28 53 7 12 -11 37 -30 55 -42 27 -19 35 -21 49 -10 8 7 23 14 32 14 9 1
28 2 44 3 15 1 27 5 27 10 0 16 -160 104 -180 99 -16 -4 -20 0 -20 19 0 13 -9
28 -19 34 -11 5 -25 16 -33 23 -7 7 -40 32 -74 55 -54 37 -66 41 -108 38 -38
-3 -61 3 -119 32 -40 19 -85 46 -100 58 -37 31 -51 31 -43 -1 6 -25 6 -26 -21
-11 -15 8 -41 31 -57 51 -15 20 -51 52 -80 70 -64 41 -72 50 -80 98 -6 30 -4
39 10 44 10 4 19 2 22 -5 2 -7 9 -12 16 -12 7 0 41 -32 76 -70 93 -104 148
-131 301 -150 58 -7 92 -18 144 -46 46 -26 84 -39 114 -40 134 -7 220 -22 277
-49 73 -34 188 -46 198 -19 9 23 2 29 -46 43 -24 8 -81 27 -128 43 -47 16
-119 40 -160 53 -41 13 -95 30 -120 39 -25 8 -88 25 -140 37 -61 13 -118 34
-159 58 -121 68 -136 76 -160 79 -13 2 -36 13 -51 23 -14 11 -44 26 -65 34
-22 7 -41 18 -43 24 -5 14 35 15 43 1 11 -19 75 -39 103 -34 21 4 34 -1 58
-24 24 -23 43 -30 91 -36 33 -4 94 -17 136 -30 68 -21 78 -22 97 -9 19 13 27
12 93 -20 40 -19 86 -40 102 -48 17 -7 33 -15 37 -17 3 -2 8 6 10 17 3 18 8
16 63 -21 55 -38 66 -42 130 -44 39 -1 58 0 42 3 -38 6 -24 23 19 23 19 0 33
4 30 9 -3 5 -15 7 -26 4 -14 -4 -20 0 -20 11 0 22 27 31 45 16 13 -10 19 -10
33 4 22 20 39 20 73 2 25 -13 27 -12 53 27 14 23 26 47 26 54 0 7 -51 47 -112
88 -158 105 -317 218 -356 251 l-32 29 25 22 26 22 32 -28 c17 -15 59 -46 92
-68 33 -22 69 -51 80 -63 30 -34 126 -94 192 -120 32 -13 74 -36 95 -51 32
-25 38 -27 49 -13 7 8 19 12 27 9 8 -3 21 3 28 12 7 10 14 13 14 6 0 -6 -12
-25 -26 -42 -14 -17 -22 -31 -16 -31 8 0 139 -97 212 -157 19 -16 52 -40 73
-52 31 -19 38 -20 43 -8 3 9 -2 27 -12 42 -15 23 -15 28 -3 36 15 9 111 31
125 28 39 -7 62 3 74 32 9 20 10 36 4 44 -74 99 -86 111 -134 130 -47 20 -56
31 -40 55 8 12 13 12 44 -3 27 -13 36 -23 36 -42 0 -18 5 -25 19 -25 11 0 23
-5 26 -10 4 -6 21 -16 38 -24 18 -7 54 -32 82 -55 50 -41 78 -51 91 -30 4 6
19 9 36 5 24 -5 31 -1 40 19 8 18 19 25 38 25 15 0 33 7 40 15 7 8 19 15 26
15 23 0 18 99 -6 135 -21 31 -27 80 -11 89 17 11 32 -23 38 -87 8 -86 12 -93
51 -73 17 9 42 16 57 16 15 0 25 6 25 15 0 8 5 26 12 40 11 23 16 25 85 25 69
0 73 1 75 23 2 40 -3 82 -14 109 -7 20 -7 41 2 78 10 42 16 51 32 48 13 -2 25
-17 34 -43 12 -36 11 -47 -6 -103 -11 -35 -20 -74 -20 -86 l0 -21 18 23 c12
16 34 25 71 31 38 6 59 15 71 31 25 33 50 20 50 -25 0 -42 13 -44 55 -10 28
23 28 25 12 43 -30 33 -15 122 20 122 10 0 35 -9 56 -20 21 -11 42 -18 46 -15
5 3 19 23 30 46 20 38 20 43 6 58 -22 26 -19 31 20 31 31 0 35 3 35 25 0 14 7
28 15 31 25 10 9 104 -21 127 -13 10 -24 25 -24 32 0 8 -8 20 -18 27 -10 7
-21 20 -24 29 -3 9 -22 23 -41 32 -19 9 -37 24 -41 32 -3 9 -12 12 -22 8 -12
-4 -15 -3 -10 5 5 8 0 12 -13 12 -11 0 -26 6 -33 13 -24 26 -131 -17 -142 -56
-12 -48 -114 16 -131 83 -4 14 -18 35 -33 46 -41 33 -18 52 61 51 62 -2 62 -2
65 -34 3 -29 44 -83 63 -83 12 0 11 7 -3 29 -14 24 4 51 33 51 11 0 28 5 39
12 14 9 25 9 42 1 32 -15 78 -33 83 -33 3 0 5 9 5 20 0 17 7 20 38 20 26 0 45
7 57 20 10 11 26 20 37 20 10 0 18 7 18 15 0 8 6 15 13 15 6 0 24 15 39 34
l27 34 -21 27 c-21 27 -21 28 -3 41 15 11 16 17 7 26 -7 7 -12 20 -12 29 0 21
-46 57 -111 88 -34 16 -57 20 -85 16 -47 -8 -82 4 -135 47 -43 34 -52 72 -20
83 15 4 17 13 13 53 -3 36 0 51 12 61 9 7 16 24 16 37 0 21 23 54 39 54 4 0
12 -5 18 -11 8 -8 16 -7 31 2 16 10 26 10 48 1 32 -15 43 -8 26 18 -7 11 -12
23 -12 28 0 9 64 42 83 42 18 0 56 79 63 134 6 39 13 52 35 65 34 19 43 69 17
101 -25 31 -40 90 -27 106 7 8 7 19 1 31 -5 10 -12 33 -16 52 -10 53 -135 159
-175 148 -12 -3 -27 3 -37 14 -20 22 -46 24 -74 7 -39 -25 -82 32 -44 59 15
11 16 18 6 50 -6 20 -9 40 -6 45 3 5 -6 18 -20 29 -14 11 -26 26 -26 32 0 20
-81 97 -101 97 -13 0 -19 7 -19 21 0 18 -4 20 -30 14 -23 -5 -30 -3 -30 9 0 9
-7 16 -15 16 -8 0 -15 4 -15 10 0 5 -13 7 -29 4 -41 -8 -47 11 -12 37 24 18
28 26 20 41 -7 14 -6 18 5 18 8 0 17 -4 20 -9 3 -5 16 -11 28 -14 13 -2 31 -8
41 -12 15 -6 18 -4 15 11 -2 16 4 20 38 22 26 2 49 11 59 23 10 10 23 19 29
19 7 0 19 8 28 18 10 9 31 31 48 47 33 33 25 44 -20 25 -32 -13 -83 -6 -100
15 -15 18 -58 40 -126 66 -27 10 -65 35 -84 54 -31 32 -34 40 -31 87 2 32 10
61 21 75 10 13 22 37 25 53 4 17 13 30 21 30 8 0 14 10 14 25 0 18 -4 23 -15
19 -11 -5 -13 -2 -9 10 5 12 2 15 -10 10 -11 -4 -16 -1 -16 13 0 10 -9 26 -20
36 -29 25 -25 45 15 61 23 10 41 27 52 50 9 20 21 36 25 36 13 0 58 47 58 60
0 6 -8 9 -17 6 -71 -21 -73 -21 -66 18 5 32 2 40 -31 70 -21 21 -36 44 -36 58
0 24 -65 138 -79 138 -5 0 -24 13 -44 28 -20 16 -61 37 -91 46 -31 10 -58 22
-62 27 -3 5 -14 9 -24 9 -33 0 -33 21 -1 33 28 10 31 15 25 42 -8 39 -19 45
-81 45 -52 0 -53 1 -53 30 0 31 -23 52 -70 64 -14 4 -45 15 -70 26 -25 10 -85
35 -135 55 -116 47 -129 63 -70 91 20 9 42 29 50 43 7 15 50 64 94 110 45 46
81 88 81 93 0 5 -7 11 -15 15 -18 6 -47 58 -38 67 4 3 23 6 44 6 41 0 43 2 53
43 7 28 6 29 -23 22 -16 -3 -39 -1 -50 5 -12 6 -21 7 -21 3 0 -4 -17 -9 -37
-10 -21 -1 -40 -8 -45 -17 -17 -31 -45 -37 -84 -21 -20 8 -46 15 -58 15 -17 0
-27 11 -40 45 -12 29 -25 45 -36 45 -21 0 -30 19 -30 61 0 23 5 29 21 29 11 0
28 4 37 9 9 4 41 11 70 14 51 6 55 5 83 -26 16 -17 29 -37 29 -44 0 -7 4 -13
9 -13 8 0 7 29 -4 66 -4 12 -2 25 4 28 14 9 15 66 1 66 -17 0 -12 60 6 67 14
5 12 8 -7 19 -13 7 -32 13 -41 14 -9 0 -29 11 -44 25 -37 34 -51 31 -56 -10
-7 -60 3 -107 23 -112 15 -4 16 -9 8 -24 -5 -10 -18 -19 -28 -19 -11 0 -21 -7
-25 -15 -3 -9 -18 -15 -40 -15 -78 0 -124 -48 -112 -119 20 -121 20 -138 -7
-165 -49 -48 -98 -26 -174 76 -52 71 -78 98 -95 98 -8 0 -19 5 -25 11 -8 8
-17 8 -32 0 -28 -15 -27 -10 10 42 28 41 30 47 20 84 -10 35 -18 43 -59 61
-74 33 -213 109 -236 130 -12 10 -37 28 -56 40 -64 39 -76 93 -23 113 39 15
52 11 90 -26 20 -19 39 -35 43 -35 4 0 25 -14 46 -31 53 -43 112 -67 182 -75
65 -7 96 9 38 20 -28 5 -36 12 -41 36 -8 36 3 93 16 85 16 -11 45 52 41 88 -3
28 -10 36 -40 47 -21 7 -53 26 -73 42 -34 27 -41 29 -112 26 -42 -2 -77 -5
-77 -8 0 -3 -18 -11 -41 -18 -30 -9 -45 -10 -54 -2 -10 8 -15 8 -20 0 -4 -6
-14 -8 -24 -4 -9 4 -28 6 -43 5 -37 -2 -38 30 -2 53 34 23 76 17 89 -11 14
-33 29 -28 22 6 -5 24 -2 31 13 36 11 3 28 1 39 -4 51 -28 67 -1 26 43 -26 28
-55 35 -55 13 0 -17 -45 -42 -59 -33 -17 11 -13 22 14 34 47 21 23 51 -41 52
-12 0 -27 -7 -34 -15 -7 -8 -17 -15 -23 -15 -5 0 -2 9 9 21 18 20 17 21 -55
90 -40 38 -77 69 -82 69 -5 0 -9 8 -9 18 0 10 -7 27 -15 38 -14 18 -14 18 -15
-5 0 -25 5 -25 -121 -2 -81 15 -185 56 -227 88 -21 15 -52 29 -71 30 -19 1
-39 7 -45 13 -5 5 -18 10 -27 10 -14 0 -18 14 -24 70 -4 39 -11 73 -17 76 -5
3 -19 -3 -31 -14 -26 -24 -67 -20 -93 9 -14 16 -17 43 -18 176 0 135 2 166 20
213 16 45 18 62 9 90 -18 62 -36 76 -54 41z m-1354 -422 c94 -61 183 -129 183
-139 0 -4 -18 -19 -39 -34 -29 -21 -49 -27 -77 -24 -22 2 -38 8 -37 13 9 59 7
79 -10 89 -14 9 -20 7 -28 -6 -14 -25 -48 -22 -59 5 -7 17 -9 18 -9 5 -1 -21
-12 -23 -29 -6 -13 13 -17 80 -5 92 4 3 13 -4 21 -16 12 -21 13 -19 8 25 -3
26 -4 47 -1 47 2 0 39 -23 82 -51z m-4979 -117 c24 -19 41 -36 39 -38 -2 -2
-29 4 -60 13 -55 15 -63 24 -51 57 7 18 13 15 72 -32z m4517 38 c4 -6 -5 -10
-20 -10 -15 0 -24 4 -20 10 3 6 12 10 20 10 8 0 17 -4 20 -10z m1496 -5 c0
-13 -41 -19 -41 -7 0 11 20 22 33 18 5 -1 8 -6 8 -11z m-4894 -7 c52 -22 144
-92 159 -119 18 -36 18 -34 -11 -53 -20 -13 -28 -14 -45 -4 -11 7 -20 18 -20
25 0 7 -8 17 -19 22 -39 21 -121 114 -121 137 0 8 30 4 57 -8z m3012 -17 l24
-15 -24 -7 c-46 -13 -59 -10 -59 14 0 13 3 27 6 30 7 7 11 5 53 -22z m-3314
-12 c25 -17 45 -32 43 -34 -2 -1 -29 -5 -60 -9 l-58 -6 0 33 c0 57 11 59 75
16z m587 -104 c-2 -17 -10 -52 -20 -80 l-16 -50 -7 65 c-7 70 3 103 29 98 12
-3 16 -12 14 -33z m2363 -14 c3 -5 1 -13 -5 -16 -15 -9 -43 3 -35 15 8 13 32
13 40 1z m1495 -6 c0 -8 -4 -15 -10 -15 -5 0 -10 7 -10 15 0 8 5 15 10 15 6 0
10 -7 10 -15z m-5730 -40 c7 -9 10 -18 7 -22 -8 -7 -37 15 -37 28 0 14 16 11
30 -6z m-72 -33 c2 -7 -2 -10 -12 -6 -9 3 -16 11 -16 16 0 13 23 5 28 -10z
m2540 -11 c-5 -24 -33 -19 -36 6 -3 17 1 20 18 16 12 -3 20 -12 18 -22z
m-2708 -54 l35 -15 -55 -1 c-52 -1 -80 10 -80 32 0 12 55 3 100 -16z m2067
-34 c-3 -10 -5 -2 -5 17 0 19 2 27 5 18 2 -10 2 -26 0 -35z m5333 -188 c0 -8
-4 -15 -9 -15 -5 0 -11 7 -15 15 -3 9 0 15 9 15 8 0 15 -7 15 -15z m-7840 -40
c7 -9 10 -18 7 -21 -7 -8 -47 14 -47 26 0 15 26 12 40 -5z m8290 -5 c-20 -13
-63 -13 -55 0 3 6 21 10 38 10 24 0 28 -3 17 -10z m-376 -116 c9 -23 8 -24
-13 -24 -22 0 -36 26 -18 34 20 8 25 7 31 -10z m-7924 -35 c0 -6 -4 -7 -10 -4
-5 3 -10 11 -10 16 0 6 5 7 10 4 6 -3 10 -11 10 -16z m-120 -183 c-1 -21 -1
-21 -15 -2 -19 25 -19 37 0 30 8 -4 15 -16 15 -28z m1 -96 c20 0 30 -22 19
-40 -15 -24 -60 4 -60 37 0 21 3 24 12 15 7 -7 20 -12 29 -12z m-745 -441 c31
-12 65 -30 75 -40 11 -11 29 -19 42 -19 12 0 65 -24 117 -54 53 -29 121 -61
152 -70 55 -16 88 -37 88 -57 0 -13 -5 -12 -47 17 -62 42 -54 7 13 -54 l59
-55 -55 30 c-58 32 -107 46 -152 45 -42 -1 -154 34 -190 59 -58 40 -198 191
-198 213 0 12 41 5 96 -15z m661 -125 c-3 -3 -12 -4 -19 -1 -8 3 -5 6 6 6 11
1 17 -2 13 -5z m-1 -164 c24 0 141 -67 132 -75 -2 -2 -38 0 -81 5 -78 7 -79 8
-133 61 -30 29 -54 57 -54 61 0 5 24 -5 53 -22 30 -16 67 -30 83 -30z m-493
12 c88 -60 162 -90 212 -86 39 3 55 -2 100 -30 65 -42 81 -62 39 -51 -16 4
-48 11 -72 15 -24 4 -48 12 -54 18 -7 7 -21 12 -33 12 -15 -1 -10 -6 17 -19
21 -11 52 -28 70 -39 18 -10 63 -27 101 -37 37 -10 67 -22 67 -26 0 -5 9 -9
20 -9 29 0 24 -16 -9 -30 -26 -10 -38 -9 -93 13 -35 14 -74 28 -88 32 -14 4
-52 32 -86 61 -34 30 -67 54 -75 54 -11 0 -11 2 1 10 11 7 4 13 -30 28 -25 11
-54 29 -64 41 -11 12 -26 19 -36 16 -10 -3 -22 5 -33 25 -23 38 -8 39 46 2z
m227 -526 c0 -8 -4 -18 -10 -21 -5 -3 -10 -4 -10 -1 0 2 -3 11 -6 20 -4 11 -1
16 10 16 9 0 16 -6 16 -14z m-355 -596 c3 -5 -1 -10 -9 -10 -8 0 -18 5 -21 10
-3 6 1 10 9 10 8 0 18 -4 21 -10z m10895 -626 c0 -15 -6 -24 -15 -24 -18 0
-30 24 -21 45 8 22 36 6 36 -21z m-63 -20 c37 -28 40 -43 17 -79 -21 -32 -57
-29 -101 9 -38 34 -45 76 -14 76 11 0 23 5 26 10 10 17 37 11 72 -16z m323
-213 c0 -5 -7 -11 -15 -15 -9 -3 -15 0 -15 9 0 8 7 15 15 15 8 0 15 -4 15 -9z
m-11560 -201 c0 -5 -4 -10 -10 -10 -5 0 -10 5 -10 10 0 6 5 10 10 10 6 0 10
-4 10 -10z m11590 1 c0 -11 -26 -22 -34 -14 -12 12 -5 23 14 23 11 0 20 -4 20
-9z m-11523 -46 c9 -24 -3 -29 -37 -15 -23 9 -28 15 -18 21 21 14 48 10 55 -6z
m-567 -14 c0 -5 -7 -11 -15 -15 -15 -5 -20 5 -8 17 9 10 23 9 23 -2z m12022
-191 c14 -32 32 -39 42 -15 8 22 21 18 34 -9 9 -19 8 -27 -4 -37 -8 -7 -12
-20 -9 -30 6 -16 2 -18 -27 -12 -40 7 -58 20 -58 42 0 9 -5 22 -11 28 -13 13
-4 63 10 63 5 0 15 -13 23 -30z m-685 -608 c18 -11 -14 -70 -48 -88 -37 -19
-39 -18 -39 11 0 16 6 25 15 25 8 0 15 8 15 18 0 33 30 51 57 34z m433 -141
c0 -6 -5 -13 -10 -16 -15 -9 -43 3 -35 15 8 13 45 13 45 1z m100 -91 c0 -19
-20 -27 -33 -13 -8 7 11 33 24 33 5 0 9 -9 9 -20z m-11240 -90 c0 -5 -5 -10
-11 -10 -5 0 -7 5 -4 10 3 6 8 10 11 10 2 0 4 -4 4 -10z m680 -524 c0 -33 -12
-39 -47 -24 -56 25 -52 48 8 48 35 0 39 -3 39 -24z m11040 -21 c0 -8 -4 -15
-10 -15 -5 0 -10 7 -10 15 0 8 5 15 10 15 6 0 10 -7 10 -15z m-9222 -47 c20
-20 14 -40 -10 -36 -15 2 -24 11 -26 26 -4 24 16 30 36 10z m1317 -158 c35
-24 55 -25 55 -6 0 29 22 27 54 -5 18 -17 45 -37 58 -43 14 -6 51 -34 81 -62
51 -47 55 -53 42 -71 -8 -11 -15 -39 -17 -62 l-3 -42 -60 50 c-33 27 -103 83
-155 123 -137 104 -161 126 -147 132 26 10 64 5 92 -14z m347 -262 c2 -40 3
-74 2 -76 -1 -2 -12 2 -24 8 -16 9 -20 17 -15 33 3 12 9 41 12 65 9 65 21 50
25 -30z m117 -51 c6 -8 25 -20 42 -27 33 -14 35 -36 6 -54 -13 -8 -20 -8 -26
2 -6 10 -10 7 -15 -12 -3 -14 -10 -26 -14 -26 -4 1 -26 18 -49 39 -41 37 -42
40 -32 72 6 19 13 40 15 47 3 10 11 9 32 -7 16 -11 34 -27 41 -34z m-335 -46
c54 -30 59 -69 15 -124 -25 -33 -58 -34 -114 -4 -43 24 -50 41 -40 93 11 60
69 75 139 35z m2068 -145 c8 -39 -4 -49 -38 -31 -18 9 -23 15 -12 15 9 0 20 9
23 20 9 27 22 25 27 -4z m-2534 -88 c-2 -13 -11 -24 -20 -26 -21 -4 -24 18 -6
36 19 19 30 14 26 -10z m2472 18 c0 -3 -4 -8 -10 -11 -5 -3 -10 -1 -10 4 0 6
5 11 10 11 6 0 10 -2 10 -4z m1780 -19 c0 -21 -12 -28 -27 -16 -19 16 -16 29
7 29 11 0 20 -6 20 -13z m-1010 -101 c-17 -46 -23 -22 -9 36 12 47 14 49 17
22 2 -16 -2 -43 -8 -58z m-51 -52 c-10 -12 -14 -12 -20 -2 -15 23 -10 81 9
101 16 19 17 18 20 -33 2 -30 -2 -58 -9 -66z m212 -155 c10 -32 10 -51 0 -87
-6 -26 -16 -64 -22 -84 -14 -52 -25 -47 -26 10 0 27 -6 59 -13 72 -18 33 5
130 31 130 13 0 22 -13 30 -41z m306 -53 c10 -32 11 -52 5 -58 -14 -14 -42 42
-42 82 0 46 21 33 37 -24z"/>
<path d="M9682 9253 c-7 -13 -6 -29 4 -52 8 -18 14 -53 14 -77 0 -47 16 -60
25 -21 15 57 1 157 -22 164 -6 2 -16 -4 -21 -14z"/>
<path d="M5190 9151 c0 -22 11 -39 47 -70 l46 -41 17 27 c18 27 17 28 -9 53
-25 24 -83 60 -95 60 -3 0 -6 -13 -6 -29z"/>
<path d="M5015 9150 c-9 -15 5 -34 65 -82 70 -56 137 -85 185 -79 10 1 -83 91
-94 91 -3 0 -19 11 -36 25 -29 24 -88 55 -106 55 -4 0 -11 -4 -14 -10z"/>
<path d="M9350 9102 c0 -16 11 -42 25 -58 29 -33 29 -33 14 36 -12 56 -39 71
-39 22z"/>
<path d="M10857 9123 c-14 -14 -6 -50 18 -83 28 -38 30 -33 14 40 -10 48 -18
58 -32 43z"/>
<path d="M6995 9070 c-3 -5 -13 -6 -22 -3 -13 5 -15 2 -10 -18 4 -13 7 -31 7
-40 0 -20 41 -64 49 -52 3 6 20 13 36 17 l30 8 -28 22 c-23 18 -27 28 -22 49
6 23 4 27 -13 27 -12 0 -23 -4 -27 -10z"/>
<path d="M8270 9066 c0 -7 11 -23 26 -36 20 -20 27 -22 34 -11 12 21 2 38 -31
50 -22 8 -29 7 -29 -3z"/>
<path d="M6937 8953 c-15 -14 -6 -51 12 -56 20 -5 51 20 51 40 0 18 -49 31
-63 16z"/>
<path d="M6000 8925 c-14 -16 -13 -17 53 -34 45 -11 52 7 12 33 -30 20 -49 20
-65 1z"/>
<path d="M6161 8912 c-14 -26 7 -45 44 -40 35 4 34 19 -3 41 -30 18 -31 18
-41 -1z"/>
<path d="M7694 8846 c-3 -15 -14 -30 -23 -35 -14 -9 -14 -10 2 -17 30 -11 66
14 63 45 -4 35 -33 40 -42 7z"/>
<path d="M11385 8839 c-12 -19 5 -23 22 -6 16 16 16 17 1 17 -9 0 -20 -5 -23
-11z"/>
<path d="M5154 8705 c26 -19 42 -19 26 0 -7 8 -20 15 -29 15 -13 -1 -13 -3 3
-15z"/>
<path d="M11750 8660 c0 -5 5 -10 10 -10 6 0 10 5 10 10 0 6 -4 10 -10 10 -5
0 -10 -4 -10 -10z"/>
<path d="M6976 8623 c-3 -3 -3 -10 0 -14 7 -12 34 -11 34 0 0 11 -26 22 -34
14z"/>
<path d="M3112 8020 c-17 -27 -15 -30 11 -30 31 0 38 9 26 31 -12 24 -21 24
-37 -1z"/>
<path d="M3416 7947 c28 -36 44 -46 44 -29 0 9 -36 44 -59 57 -8 5 -1 -8 15
-28z"/>
<path d="M13510 7773 c-14 -3 -29 -9 -34 -14 -6 -5 -21 -9 -33 -9 -13 0 -38
-7 -54 -16 -17 -8 -58 -16 -93 -18 -62 -3 -86 -10 -86 -25 0 -11 99 -5 133 8
16 6 52 11 80 10 55 -2 143 16 165 33 9 8 9 14 1 24 -11 14 -31 15 -79 7z"/>
<path d="M13727 7533 c-23 -22 33 -63 87 -63 27 0 66 27 66 45 0 21 -39 29
-67 14 -19 -10 -28 -10 -43 -1 -22 14 -34 15 -43 5z"/>
<path d="M13986 7373 c-15 -78 -18 -153 -6 -153 10 0 10 -3 0 -15 -15 -18 -7
-31 31 -51 45 -23 61 -5 55 61 -6 59 -14 85 -28 85 -5 0 -8 21 -6 48 3 42 1
47 -19 50 -16 2 -22 -3 -27 -25z"/>
<path d="M2800 7136 c0 -8 5 -18 10 -21 6 -3 10 1 10 9 0 8 -4 18 -10 21 -5 3
-10 -1 -10 -9z"/>
<path d="M13948 7019 c-22 -13 -23 -55 -2 -63 29 -11 34 -6 34 34 0 42 -4 46
-32 29z"/>
<path d="M2430 6428 c0 -9 7 -19 16 -22 15 -6 15 -4 3 11 -7 10 -15 20 -16 22
-2 2 -3 -3 -3 -11z"/>
<path d="M2511 6403 c-1 -7 -9 -13 -18 -13 -33 0 20 -40 63 -47 36 -6 38 -5
25 10 -7 10 -19 17 -26 17 -7 0 -20 10 -28 23 -9 12 -16 16 -16 10z"/>
<path d="M2656 5693 c-11 -11 -6 -23 9 -23 8 0 15 4 15 9 0 13 -16 22 -24 14z"/>
<path d="M13915 3410 c-3 -5 1 -10 9 -10 9 0 16 5 16 10 0 6 -4 10 -9 10 -6 0
-13 -4 -16 -10z"/>
<path d="M2740 3200 c0 -5 5 -10 10 -10 6 0 10 5 10 10 0 6 -4 10 -10 10 -5 0
-10 -4 -10 -10z"/>
<path d="M3316 2678 c-14 -53 -6 -121 16 -145 18 -19 20 -27 11 -42 -9 -14 -9
-21 0 -30 13 -13 14 -13 -58 -37 -38 -12 -60 -25 -60 -34 0 -21 72 -29 114
-13 52 20 96 17 115 -9 l16 -23 16 23 c19 25 49 29 58 7 4 -10 20 -15 50 -15
25 0 56 -4 70 -9 16 -7 35 -6 55 2 27 10 33 9 45 -8 11 -16 17 -17 29 -7 11
10 20 10 41 1 20 -10 26 -19 26 -45 0 -24 5 -34 20 -39 12 -4 20 -15 20 -28 0
-22 19 -62 20 -42 0 6 4 3 10 -5 12 -20 17 -12 22 40 6 52 23 36 -222 202
-192 129 -340 233 -366 258 -28 26 -40 25 -48 -2z"/>
<path d="M5164 2458 c3 -13 6 -26 6 -29 0 -11 40 -17 46 -7 7 10 -33 58 -49
58 -5 0 -7 -10 -3 -22z"/>
<path d="M5203 2402 c-21 -3 -23 -9 -22 -55 1 -50 1 -51 11 -20 8 23 17 33 36
35 14 2 27 8 29 15 5 15 -26 30 -54 25z"/>
<path d="M12670 2375 c0 -8 6 -15 14 -15 8 0 16 -6 19 -12 5 -17 -12 -69 -31
-91 -8 -9 -13 -18 -11 -20 2 -2 37 0 77 3 73 5 93 19 46 32 -39 10 -54 28 -54
64 0 23 -6 37 -19 44 -27 14 -41 13 -41 -5z"/>
<path d="M5266 2314 c-9 -22 -8 -24 9 -18 8 4 15 12 15 20 0 19 -16 18 -24 -2z"/>
<path d="M4790 2300 c-12 -8 -9 -10 13 -10 16 0 26 4 22 10 -8 12 -16 12 -35
0z"/>
<path d="M5660 2206 c0 -9 43 -46 53 -46 5 0 4 7 -3 16 -14 16 -50 38 -50 30z"/>
<path d="M3310 2128 c0 -25 3 -29 10 -18 13 20 13 50 0 50 -5 0 -10 -15 -10
-32z"/>
<path d="M3910 2145 c0 -8 5 -15 10 -15 6 0 10 7 10 15 0 8 -4 15 -10 15 -5 0
-10 -7 -10 -15z"/>
<path d="M7329 2137 c-10 -21 -10 -33 0 -54 13 -29 26 -23 36 17 3 15 0 33 -9
45 -14 19 -15 19 -27 -8z"/>
<path d="M3946 2135 c-4 -11 1 -15 19 -15 16 0 25 6 25 15 0 8 -9 15 -19 15
-10 0 -21 -7 -25 -15z"/>
<path d="M9166 2135 c4 -8 8 -15 10 -15 2 0 4 7 4 15 0 8 -4 15 -10 15 -5 0
-7 -7 -4 -15z"/>
<path d="M12440 2130 c-13 -8 -12 -10 3 -10 9 0 17 5 17 10 0 12 -1 12 -20 0z"/>
<path d="M7316 1983 c-3 -26 -2 -51 3 -56 5 -5 10 12 12 43 5 66 -6 75 -15 13z"/>
<path d="M9221 1903 c-6 -21 -11 -47 -10 -58 0 -17 2 -16 10 5 10 23 11 24 23
8 17 -23 28 -23 49 2 9 11 20 20 25 20 4 0 16 -23 26 -51 19 -50 19 -51 -3
-90 l-22 -39 34 0 c43 0 66 23 50 50 -8 12 -8 21 -1 28 28 28 -33 112 -97 132
-22 7 -44 16 -49 21 -17 16 -25 10 -35 -28z"/>
<path d="M9752 1758 c7 -19 38 -22 38 -4 0 10 -9 16 -21 16 -12 0 -19 -5 -17
-12z"/>
<path d="M8694 1709 c-3 -6 -1 -16 5 -22 8 -8 11 -5 11 11 0 24 -5 28 -16 11z"/>
<path d="M8040 1645 c-19 -30 -20 -38 -9 -52 21 -24 97 -53 138 -52 20 0 55
-2 79 -6 34 -6 41 -5 37 6 -9 21 -188 139 -212 139 -6 0 -21 -16 -33 -35z"/>
<path d="M8374 1582 c11 -12 27 -22 38 -22 23 0 24 16 1 23 -10 2 -27 8 -38
13 -20 7 -20 7 -1 -14z"/>
<path d="M8028 1491 c2 -17 12 -37 23 -47 21 -19 109 -32 109 -17 0 10 -116
93 -130 93 -4 0 -5 -13 -2 -29z"/>
</g>
</svg>
