<svg width="50" height="48" viewBox="0 0 50 48" fill="none" xmlns="http://www.w3.org/2000/svg">
<path d="M49.1667 37.2001H41.2333V29.4418L45.4083 27.3918C45.7302 27.2352 46.0136 27.0096 46.2384 26.7311C46.4631 26.4526 46.6238 26.1279 46.7089 25.7803C46.7941 25.4326 46.8015 25.0705 46.7309 24.7196C46.6602 24.3687 46.5131 24.0377 46.3 23.7501L41.075 16.6335C41.0016 16.529 40.9045 16.4433 40.7917 16.3835L34.4333 13.5668C34.2322 13.4829 34.0063 13.4809 33.8037 13.5611C33.6011 13.6414 33.4379 13.7976 33.3488 13.9964C33.2597 14.1953 33.2518 14.4211 33.3267 14.6257C33.4017 14.8303 33.5535 14.9976 33.75 15.0918L38.4333 17.1668L25.05 23.7335L11.675 17.1751L16.35 15.0918C16.4496 15.0475 16.5395 14.984 16.6145 14.9049C16.6896 14.8259 16.7483 14.7328 16.7874 14.6311C16.8264 14.5293 16.8451 14.4208 16.8423 14.3119C16.8394 14.2029 16.8152 14.0956 16.7708 13.996C16.7265 13.8964 16.663 13.8065 16.584 13.7315C16.5049 13.6564 16.4118 13.5977 16.3101 13.5586C16.2083 13.5195 16.0999 13.5009 15.9909 13.5037C15.8819 13.5066 15.7746 13.5308 15.675 13.5751L9.33333 16.3751C9.20213 16.4538 9.08864 16.5588 9 16.6835L3.8 23.7501C3.58922 24.0395 3.4442 24.3713 3.37511 24.7226C3.30602 25.0738 3.31451 25.4359 3.4 25.7835C3.48364 26.1313 3.64371 26.4561 3.86858 26.7343C4.09345 27.0125 4.37747 27.2371 4.7 27.3918L8.875 29.4418V37.2001H0.833333C0.61232 37.2001 0.400358 37.2879 0.244078 37.4442C0.0877974 37.6005 0 37.8125 0 38.0335C0 38.2545 0.0877974 38.4665 0.244078 38.6227C0.400358 38.779 0.61232 38.8668 0.833333 38.8668H9.09167C9.32339 39.3914 9.73389 39.8167 10.25 40.0668L23.9833 46.8168C24.3166 46.9753 24.6809 47.0578 25.05 47.0585C25.4244 47.0578 25.7942 46.9754 26.1333 46.8168L39.8667 40.0668C40.3846 39.8193 40.7959 39.3932 41.025 38.8668H49.1667C49.3877 38.8668 49.5996 38.779 49.7559 38.6227C49.9122 38.4665 50 38.2545 50 38.0335C50 37.8125 49.9122 37.6005 49.7559 37.4442C49.5996 37.2879 49.3877 37.2001 49.1667 37.2001ZM5.43333 25.9001C5.33043 25.8496 5.23981 25.7772 5.16784 25.6879C5.09587 25.5987 5.04427 25.4948 5.01667 25.3835C4.98838 25.2734 4.98569 25.1584 5.0088 25.0472C5.03191 24.9359 5.08022 24.8315 5.15 24.7418L9.95833 18.1835L23.7917 24.9751L18.8083 31.7501C18.7022 31.8987 18.5466 32.0046 18.3695 32.0489C18.1923 32.0932 18.0052 32.073 17.8417 31.9918L5.43333 25.9001ZM39.5667 37.9501C39.553 38.0814 39.5061 38.2069 39.4302 38.3148C39.3544 38.4228 39.2522 38.5095 39.1333 38.5668L25.4083 45.3168C25.3009 45.3703 25.1825 45.3981 25.0625 45.3981C24.9425 45.3981 24.8241 45.3703 24.7167 45.3168L10.9833 38.5668C10.8547 38.5014 10.7459 38.4028 10.6682 38.2812C10.5905 38.1596 10.5468 38.0194 10.5417 37.8751V30.2585L17.1083 33.4835C17.4413 33.653 17.8097 33.7416 18.1833 33.7418C18.5677 33.7408 18.9466 33.6498 19.2895 33.4762C19.6324 33.3025 19.93 33.051 20.1583 32.7418L25.0583 26.0751L29.95 32.7418C30.1783 33.051 30.4759 33.3025 30.8188 33.4762C31.1618 33.6498 31.5406 33.7408 31.925 33.7418C32.2986 33.7406 32.6667 33.6521 33 33.4835L39.5667 30.2585V37.9501ZM32.2667 31.9918C32.1018 32.073 31.9134 32.0933 31.735 32.0491C31.5566 32.0048 31.3996 31.899 31.2917 31.7501L26.3167 24.9751L40.1417 18.1835L44.9583 24.7418C45.0281 24.8315 45.0764 24.9359 45.0995 25.0472C45.1226 25.1584 45.12 25.2734 45.0917 25.3835C45.0641 25.4948 45.0125 25.5987 44.9405 25.6879C44.8685 25.7772 44.7779 25.8496 44.675 25.9001L32.2667 31.9918ZM25 13.1443C24.3819 13.1362 23.7751 12.9772 23.2324 12.6811C22.6897 12.3851 22.2275 11.961 21.886 11.4457C21.5445 10.9304 21.334 10.3395 21.2728 9.72437C21.2116 9.10922 21.3016 8.48843 21.535 7.91598C21.6223 7.71287 21.7867 7.55275 21.9921 7.47086C22.1974 7.38897 22.4269 7.39201 22.63 7.47931C22.8331 7.56661 22.9932 7.73102 23.0751 7.93637C23.157 8.14173 23.154 8.3712 23.0667 8.57431C22.8901 8.99905 22.8582 9.47009 22.9759 9.91474C23.0937 10.3594 23.3545 10.7529 23.7181 11.0347C24.0817 11.3164 24.5279 11.4706 24.9879 11.4735C25.4479 11.4764 25.896 11.3278 26.2632 11.0508C26.6303 10.7737 26.8961 10.3835 27.0194 9.94033C27.1428 9.4972 27.1169 9.0258 26.9457 8.59886C26.7745 8.17192 26.4676 7.81319 26.0722 7.57803C25.6769 7.34286 25.2152 7.24433 24.7583 7.29764C24.5388 7.32339 24.3179 7.26086 24.1445 7.1238C23.971 6.98674 23.8591 6.78639 23.8333 6.56681C23.8076 6.34723 23.8701 6.12642 24.0072 5.95295C24.1442 5.77948 24.3446 5.66756 24.5642 5.64181C25.0726 5.58393 25.5875 5.63035 26.0774 5.77824C26.5673 5.92612 27.0219 6.17237 27.4134 6.50192C27.8049 6.83148 28.1251 7.23741 28.3543 7.69491C28.5836 8.15241 28.7172 8.65187 28.7469 9.16274C28.7765 9.67361 28.7017 10.1852 28.527 10.6661C28.3522 11.1471 28.0812 11.5874 27.7305 11.9601C27.3798 12.3327 26.9568 12.63 26.4873 12.8336C26.0178 13.0372 25.5117 13.1429 25 13.1443ZM25 21.4668C24.8451 21.4669 24.6933 21.4238 24.5616 21.3424C24.4298 21.261 24.3234 21.1445 24.2542 21.006L22.4758 17.4435C21.0519 16.9971 19.7715 16.1815 18.7651 15.0797C17.7588 13.9778 17.0622 12.629 16.7464 11.1705C16.4306 9.71205 16.5067 8.19593 16.9671 6.77644C17.4275 5.35696 18.2557 4.08476 19.3675 3.08931C20.5137 2.0627 21.9187 1.36877 23.4306 1.0825C24.9425 0.796219 26.5039 0.928474 27.9461 1.46497C29.3883 2.00147 30.6565 2.92182 31.6138 4.12661C32.571 5.33139 33.1809 6.77482 33.3775 8.30098C33.6305 10.2697 33.1826 12.2647 32.1122 13.9363C31.0418 15.6079 29.4173 16.8495 27.5233 17.4435L25.7458 21.006C25.6766 21.1445 25.5702 21.261 25.4384 21.3424C25.3067 21.4238 25.1549 21.4669 25 21.4668ZM24.9917 2.60264C23.3249 2.59748 21.716 3.21369 20.4792 4.33098C19.5831 5.13322 18.9165 6.15936 18.5478 7.30417C18.1791 8.44898 18.1215 9.67126 18.381 10.8457C18.6404 12.0201 19.2075 13.1043 20.0242 13.9873C20.8409 14.8702 21.8777 15.52 23.0283 15.8701C23.2223 15.9287 23.4024 16.026 23.5577 16.1562C23.713 16.2864 23.8402 16.4468 23.9317 16.6276L25 18.7668L26.0683 16.626C26.1601 16.4455 26.2875 16.2854 26.4427 16.1554C26.598 16.0254 26.7779 15.9281 26.9717 15.8693C28.5058 15.401 29.8247 14.4046 30.6944 13.0568C31.5642 11.709 31.9287 10.0968 31.7233 8.50598C31.5249 7.00665 30.8322 5.61627 29.7549 4.55479C28.6776 3.49331 27.2771 2.82133 25.775 2.64514C25.5149 2.6162 25.2534 2.60257 24.9917 2.60264Z" fill="url(#paint0_linear_163_9897)"/>
<defs>
<linearGradient id="paint0_linear_163_9897" x1="25" y1="0.935059" x2="25" y2="47.0585" gradientUnits="userSpaceOnUse">
<stop stop-color="#447AF5"/>
<stop offset="1" stop-color="#FC499F"/>
</linearGradient>
</defs>
</svg>
