<svg width="525" height="380" viewBox="0 0 525 380" fill="none" xmlns="http://www.w3.org/2000/svg">
<mask id="mask0_163_9575" style="mask-type:alpha" maskUnits="userSpaceOnUse" x="0" y="0" width="525" height="380">
<rect width="525" height="380" rx="10" fill="white"/>
</mask>
<g mask="url(#mask0_163_9575)">
<g opacity="0.06">
<path d="M427.391 69.9921C425.586 70.5182 424.408 70.8283 424.073 70.9093C424.489 70.7363 424.941 70.6439 425.386 70.5215L432.161 68.4829C430.258 69.1107 428.874 69.5505 427.391 69.9921Z" fill="#447AF5"/>
<path d="M402.281 75.5504C400.51 75.8439 399.521 75.9772 399.257 76.006C399.441 75.9558 399.615 75.9454 399.809 75.912L407.03 74.704C405.455 75.0074 403.871 75.294 402.281 75.5504Z" fill="#447AF5"/>
<path d="M406.957 75.2395C406.703 75.2852 404.454 75.7205 403.921 75.6916C404.166 75.4158 412.201 73.9283 412.274 73.9195C412.291 73.9098 412.318 73.9169 412.348 73.9107C412.158 74.0875 409.104 74.8191 406.957 75.2395Z" fill="#447AF5"/>
<path d="M379.937 78.6357C379.72 78.6487 377.864 78.8341 377.392 78.7928C377.755 78.6056 384.189 78.0541 384.245 78.0551C384.272 78.0622 384.302 78.056 384.315 78.0596C384.006 78.2043 381.062 78.5247 379.937 78.6357Z" fill="#447AF5"/>
<path d="M385.184 79.1176C384.683 79.1825 383 79.3575 382.569 79.2702C382.559 79.2534 382.549 79.2366 382.536 79.233C383.041 78.9416 388.698 78.2105 389.653 78.2532C389.666 78.2567 389.693 78.2639 389.72 78.271C389.716 78.2842 389.726 78.3011 389.735 78.3179C389.406 78.4856 387.193 78.8882 385.184 79.1176Z" fill="#447AF5"/>
<path d="M350.358 80.0697C349.728 80.0857 349.077 80.1248 348.448 80.0842C348.683 80.0048 353.416 79.9079 353.456 79.9185C353.469 79.9221 353.482 79.9256 353.509 79.9327C353.342 79.9732 351.105 80.0422 350.358 80.0697Z" fill="#447AF5"/>
<path d="M356.363 80.6388C356.176 80.6457 354.479 80.7171 354.29 80.624C354.493 80.4508 358.975 80.2296 359.78 80.3032C359.807 80.3103 359.833 80.3174 359.843 80.3342C359.601 80.4401 357.77 80.5892 356.363 80.6388Z" fill="#447AF5"/>
<path d="M362.14 81.8458C361.937 81.8624 360.136 81.9487 359.952 81.7857C360.207 81.4701 364.904 81.1359 365.718 81.2829C365.745 81.29 365.785 81.3007 365.807 81.3211C365.617 81.5544 363.294 81.7852 362.14 81.8458Z" fill="#447AF5"/>
<path d="M318.499 80.0215C318.129 80.0219 317.776 80.0126 317.423 80.0034C317.68 80.001 317.946 80.0155 318.203 80.0131L320.002 80.0401C320.088 80.0349 320.145 80.0358 320.228 80.0439C320.241 80.0474 320.271 80.0413 320.271 80.0413C319.672 80.0512 319.092 80.0381 318.499 80.0215Z" fill="#447AF5"/>
<path d="M325.171 80.5587C324.901 80.5575 324.008 80.5458 323.893 80.5006C324.01 80.4326 326.696 80.4411 327.251 80.4904C327.265 80.494 327.291 80.5011 327.305 80.5046C327.164 80.5522 326.034 80.5766 325.171 80.5587Z" fill="#447AF5"/>
<path d="M331.629 81.7624C331.316 81.7638 330.266 81.7528 330.135 81.6606C330.277 81.4997 333.403 81.4557 334.015 81.5626C334.028 81.5662 334.055 81.5732 334.064 81.5901C333.976 81.7085 332.425 81.7624 331.629 81.7624Z" fill="#447AF5"/>
<path d="M337.906 83.6011C337.666 83.5938 336.44 83.6065 336.292 83.4674C336.463 83.2004 339.861 83.1009 340.511 83.2751C340.537 83.2822 340.564 83.2893 340.573 83.3062C340.467 83.491 338.789 83.596 337.906 83.6011Z" fill="#447AF5"/>
<path d="M291.54 79.3827L291.866 79.3849L292.486 79.4086L292.116 79.4091L291.54 79.3827Z" fill="#447AF5"/>
<path d="M298.488 80.4053L298.948 80.3864L299.803 80.4307L299.3 80.4522L298.488 80.4053Z" fill="#447AF5"/>
<path d="M305.849 82.1787C305.693 82.1794 305.173 82.154 305.101 82.1062C305.156 82.0071 306.785 82.0312 307.077 82.1094C307.077 82.1094 307.09 82.113 307.1 82.1298C307.042 82.1855 306.163 82.1773 305.849 82.1787Z" fill="#447AF5"/>
<path d="M312.573 84.5772C312.433 84.5682 311.753 84.5567 311.678 84.4655C311.751 84.3001 313.644 84.2953 314.021 84.4249C314.035 84.4285 314.061 84.4356 314.067 84.4657C313.973 84.5541 313.126 84.5832 312.573 84.5772Z" fill="#447AF5"/>
<path d="M507.182 16.6677C506.192 18.2937 505.682 19.2948 505.378 19.8961C507.216 17.2314 508.972 14.4453 510.63 11.5477C509.843 12.574 508.461 14.55 507.182 16.6677Z" fill="#447AF5"/>
<path d="M494.417 31.5653C492.548 33.7664 490.534 36.3982 491.567 36.4189C491.58 36.4224 491.614 36.403 491.64 36.4101C495.168 32.9041 498.48 29.1413 501.614 25.0889C500.219 24.8288 495.373 30.4418 494.417 31.5653Z" fill="#447AF5"/>
<path d="M479.989 44.166C476.511 47.1164 476.579 47.4474 476.616 47.628C477.651 48.2751 486.248 42.1455 487.245 39.4833C487.342 38.6986 485.954 39.4216 483.08 41.6524C482.152 42.3565 480.987 43.3098 479.989 44.166Z" fill="#447AF5"/>
<path d="M461.383 57.8816C459.059 59.122 458.395 59.5839 458.183 59.7403C461.088 58.3431 463.915 56.8679 466.671 55.2882C464.956 56.0091 462.845 57.0932 461.383 57.8816Z" fill="#447AF5"/>
<path d="M463.971 54.6366C460.998 56.4426 460.626 56.7695 460.469 56.9835C460.492 57.0039 460.512 57.0375 460.522 57.0543C461.969 56.9587 469.581 52.9117 470.908 51.0914C470.919 51.0516 470.936 50.9853 470.937 50.9286C470.785 50.8594 470.445 50.6971 463.971 54.6366Z" fill="#447AF5"/>
<path d="M443.08 65.3644C439.901 66.5604 439.685 66.7301 439.523 66.8573C439.533 66.8741 439.526 66.9007 439.536 66.9175C439.912 66.9471 441.133 66.6345 442.074 66.3604C444.286 65.5879 446.466 64.7783 448.616 63.9181C449.194 63.618 449.383 63.4978 449.592 63.3547C449.616 63.3185 449.656 63.2725 449.667 63.2327C449.498 63.1732 449.143 63.064 443.08 65.3644Z" fill="#447AF5"/>
<path d="M446.405 63.1979C443.126 64.6089 443.126 64.6089 442.934 64.7423C443.716 64.7954 451.452 61.6635 452.97 60.5628C452.991 60.5398 453.011 60.5168 453.028 60.5071C453.015 60.5035 453.005 60.4867 452.982 60.4663C452.598 60.5198 452.598 60.5198 446.405 63.1979Z" fill="#447AF5"/>
<path d="M423.378 71.1768C420.674 71.8744 420.322 71.9651 420.054 72.0639C420.458 72.2006 427.584 70.4979 429.282 69.7867C429.312 69.7806 429.333 69.7576 429.349 69.7479C429.181 69.6884 428.752 69.8011 423.378 71.1768Z" fill="#447AF5"/>
<path d="M425.386 70.5215C430.304 69.1515 432.586 68.3835 433.343 68.1031C433.374 68.0969 433.39 68.0872 433.407 68.0775C432.982 68.1769 432.583 68.3401 432.178 68.4733L425.386 70.5215Z" fill="#447AF5"/>
<path d="M397.348 76.4482C394.793 76.8017 394.562 76.8678 394.411 76.8986L394.434 76.919C397.112 76.5842 399.771 76.2157 402.406 75.8269C402.206 75.8302 401.823 75.8271 397.348 76.4482Z" fill="#447AF5"/>
<path d="M399.805 75.9255C402.625 75.4864 405.298 75.0649 407.491 74.6287C407.521 74.6225 407.538 74.6128 407.564 74.6199C407.387 74.6436 407.207 74.6805 407.013 74.7139L399.805 75.9255Z" fill="#447AF5"/>
<path d="M374.414 78.7631C373.6 78.8293 372.763 78.8752 371.935 78.938C372.435 78.9297 376.852 78.6342 378.581 78.4434C378.594 78.4469 378.625 78.4407 378.638 78.4443C377.235 78.424 375.826 78.6435 374.414 78.7631Z" fill="#447AF5"/>
<path d="M318.205 80.0139C318.801 80.0173 319.394 80.034 320.003 80.0409L318.205 80.0139Z" fill="#447AF5"/>
<path d="M324.601 376.546C322.328 376.591 320.923 377.693 321.879 378.689C322.897 379.772 326.206 380.005 327.619 378.762C328.675 377.58 326.814 376.513 324.601 376.546Z" fill="#447AF5"/>
<path d="M336.784 363.982C334.328 364.021 332.797 365.275 333.838 366.378C334.893 367.486 338.437 367.952 340.058 366.466C341.18 365.146 339.171 363.939 336.784 363.982Z" fill="#447AF5"/>
<path d="M348.655 351.32C346.098 351.36 344.486 352.706 345.603 353.901C346.807 355.191 350.601 355.468 352.162 353.995C353.308 352.581 351.155 351.279 348.655 351.32Z" fill="#447AF5"/>
<path d="M360.164 338.506C357.264 338.553 355.604 340.185 357.115 341.5C358.589 342.791 362.368 342.964 363.95 341.412C365.234 339.75 362.59 338.473 360.164 338.506Z" fill="#447AF5"/>
<path d="M371.332 325.597C368.402 325.651 366.622 327.251 367.938 328.656C369.385 330.21 373.625 330.521 375.364 328.754C376.642 327.063 374.175 325.549 371.332 325.597Z" fill="#447AF5"/>
<path d="M382.179 312.662C378.959 312.738 377.181 314.594 378.912 316.096C380.433 317.427 384.65 317.875 386.438 315.979C387.724 314.205 385.122 312.611 382.179 312.662Z" fill="#447AF5"/>
<path d="M392.663 299.643C389.243 299.722 387.413 301.72 389.268 303.341C390.894 304.758 395.28 305.265 397.192 303.175C398.541 301.218 395.783 299.569 392.663 299.643Z" fill="#447AF5"/>
<path d="M402.797 286.616C399.369 286.722 397.474 288.859 399.353 290.5C401.06 291.981 405.644 292.442 407.543 290.291C408.972 288.143 405.694 286.525 402.797 286.616Z" fill="#447AF5"/>
<path d="M412.582 273.495C408.945 273.644 407.021 275.887 409.024 277.647C410.998 279.356 415.75 279.506 417.575 277.364C418.948 275.215 415.917 273.365 412.582 273.495Z" fill="#447AF5"/>
<path d="M422.01 260.393C418.218 260.586 416.259 262.962 418.387 264.784C420.299 266.405 425.307 266.823 427.294 264.397C428.654 262.131 425.468 260.225 422.01 260.393Z" fill="#447AF5"/>
<path d="M431.06 247.316C427.184 247.557 425.213 250.03 427.431 251.89C429.613 253.726 434.609 253.813 436.496 251.389C437.913 248.967 434.629 247.106 431.06 247.316Z" fill="#447AF5"/>
<path d="M439.737 234.197C435.73 234.503 433.746 237.128 436.067 239.03C438.141 240.738 443.386 241.119 445.444 238.371C446.963 235.621 443.033 233.942 439.737 234.197Z" fill="#447AF5"/>
<path d="M448.034 221.118C443.976 221.51 441.998 224.222 444.388 226.128C446.532 227.841 451.868 228.147 453.919 225.269C455.276 222.646 451.769 220.768 448.034 221.118Z" fill="#447AF5"/>
<path d="M455.938 208.021C451.782 208.514 449.794 211.366 452.268 213.28C454.508 215.004 460.012 215.213 462.046 212.189C463.412 209.426 459.758 207.565 455.938 208.021Z" fill="#447AF5"/>
<path d="M463.418 194.907C459.186 195.522 457.203 198.518 459.78 200.417C462.107 202.136 467.734 202.207 469.766 199.026C471.188 195.951 466.909 194.406 463.418 194.907Z" fill="#447AF5"/>
<path d="M470.486 181.854C466.141 182.624 464.234 185.654 466.925 187.555C469.315 189.248 475.018 189.141 477.013 185.835C478.282 182.905 474.423 181.174 470.486 181.854Z" fill="#447AF5"/>
<path d="M477.127 168.801C472.723 169.74 470.847 172.92 473.611 174.756C476.086 176.4 481.886 176.091 483.846 172.649C485.067 169.577 481.11 167.948 477.127 168.801Z" fill="#447AF5"/>
<path d="M483.32 155.771C478.919 156.91 477.105 160.178 479.921 161.928C482.737 163.678 488.441 162.718 490.19 159.375C491.374 156.179 487.396 154.73 483.32 155.771Z" fill="#447AF5"/>
<path d="M489.047 142.786C484.676 144.132 482.933 147.505 485.781 149.135C488.359 150.608 494.224 149.79 496.016 146.075C497.113 142.828 493.103 141.555 489.047 142.786Z" fill="#447AF5"/>
<path d="M494.274 129.808C489.785 131.435 488.154 134.866 491.144 136.392C493.81 137.747 499.717 136.613 501.418 132.76C502.508 129.17 497.908 128.506 494.274 129.808Z" fill="#447AF5"/>
<path d="M498.984 116.949C494.554 118.834 493.005 122.386 496.015 123.733C499.064 125.091 504.824 123.178 506.326 119.428C507.252 115.922 503.075 115.215 498.984 116.949Z" fill="#447AF5"/>
<path d="M503.268 104.416C498.822 106.624 497.387 110.121 500.474 111.233C503.316 112.25 509.135 110.382 510.654 106.253C511.478 102.805 507.283 102.434 503.268 104.416Z" fill="#447AF5"/>
<path d="M507.074 92.225C502.704 94.7371 501.368 98.2899 504.459 99.1183C507.657 99.9751 513.24 97.2901 514.566 93.3506C515.366 89.5689 510.658 90.1561 507.074 92.225Z" fill="#447AF5"/>
<path d="M510.434 80.3682C506.1 83.2741 504.892 86.7758 508.035 87.3052C511.261 87.8426 516.739 84.7026 517.932 80.7276C518.574 77.0031 513.919 78.0311 510.434 80.3682Z" fill="#447AF5"/>
<path d="M513.277 68.8576C509.236 71.9984 508.021 75.3133 510.722 75.7952C513.585 76.3066 519.665 72.8302 520.823 68.3481C521.351 64.6783 516.708 66.193 513.277 68.8576Z" fill="#447AF5"/>
<path d="M515.628 57.6981C511.653 61.2831 510.574 64.5637 513.331 64.7334C516.519 64.9336 522.272 60.5021 523.193 56.2693C523.518 53.1426 520.141 54.0721 516.71 56.7933C516.385 57.0477 515.946 57.4135 515.628 57.6981Z" fill="#447AF5"/>
<path d="M517.497 46.9077C513.709 50.8557 512.78 54.1622 515.486 53.9911C518.754 53.7862 524.219 48.8367 524.989 44.478C525.164 41.3821 522.041 42.7924 519.065 45.4079C518.676 45.7446 517.993 46.3862 517.497 46.9077Z" fill="#447AF5"/>
<path d="M518.81 36.4795C515.358 40.6598 514.455 43.8167 516.753 43.6788C519.905 43.4852 525.649 37.6008 526.236 32.9658C526.277 30.1609 523.547 31.5911 520.843 34.2512C520.153 34.9193 519.463 35.6874 518.81 36.4795Z" fill="#447AF5"/>
<path d="M519.583 26.4762C516.306 31.1159 515.588 34.2227 517.895 33.7317C521.066 33.0453 526.538 26.4199 526.892 21.8076C526.744 18.3264 522.822 22.5088 522.031 23.3919C521.742 23.7269 520.699 24.9122 519.583 26.4762Z" fill="#447AF5"/>
<path d="M519.802 16.9076C516.926 21.6974 516.248 24.7582 518.168 24.334C520.994 23.7117 526.859 16.1533 526.972 11.0072C526.695 8.27357 524.167 10.9667 523.073 12.2378C522.053 13.4435 520.831 15.1922 519.802 16.9076Z" fill="#447AF5"/>
<path d="M519.427 7.80384C516.749 13.0734 516.265 16.1008 518.207 15.3271C521.34 14.0903 526.599 5.3455 526.416 0.560919C525.97 -2.07557 523.531 1.08216 522.497 2.55419C521.537 3.96083 520.384 5.92734 519.427 7.80384Z" fill="#447AF5"/>
<path d="M518.481 -0.767969C516.214 4.61184 515.808 7.56052 517.445 6.91831C520.149 5.85088 525.769 -4.19071 525.227 -9.38452C524.674 -11.623 522.795 -9.01225 521.712 -7.25447C521.345 -6.62755 519.97 -4.30823 518.481 -0.767969Z" fill="#447AF5"/>
<path d="M298.417 370.298C296.087 370.342 294.652 371.45 295.635 372.453C296.696 373.534 300.118 373.768 301.531 372.526C302.604 371.334 300.686 370.266 298.417 370.298Z" fill="#447AF5"/>
<path d="M310.858 357.673C308.358 357.714 306.797 358.974 307.865 360.085C309.034 361.294 312.748 361.55 314.298 360.173C315.426 358.826 313.318 357.621 310.858 357.673Z" fill="#447AF5"/>
<path d="M322.953 344.959C320.31 345.005 318.681 346.36 319.827 347.549C321.071 348.849 324.995 349.119 326.603 347.63C327.767 346.206 325.539 344.913 322.953 344.959Z" fill="#447AF5"/>
<path d="M334.728 332.117C331.929 332.163 330.194 333.646 331.412 334.94C332.751 336.365 336.941 336.649 338.645 335.015C339.969 333.364 337.215 332.072 334.728 332.117Z" fill="#447AF5"/>
<path d="M346.152 319.205C343.135 319.265 341.312 320.867 342.675 322.256C344.159 323.777 348.635 324.109 350.397 322.362C351.688 320.675 349.095 319.155 346.152 319.205Z" fill="#447AF5"/>
<path d="M357.271 306.315C354.141 306.373 352.28 308.064 353.704 309.541C355.25 311.15 359.896 311.484 361.703 309.622C363.016 307.855 360.314 306.263 357.271 306.315Z" fill="#447AF5"/>
<path d="M368.036 293.371C364.759 293.446 362.809 295.256 364.322 296.827C365.966 298.547 370.895 298.887 372.781 296.889C374.139 295.006 371.269 293.299 368.036 293.371Z" fill="#447AF5"/>
<path d="M378.459 280.478C375.053 280.561 373.081 282.45 374.673 284.1C376.412 285.889 381.468 286.234 383.392 284.147C384.905 281.95 381.453 280.399 378.459 280.478Z" fill="#447AF5"/>
<path d="M388.549 267.552C384.962 267.672 382.952 269.65 384.633 271.395C386.47 273.295 391.786 273.624 393.776 271.399C395.181 269.286 392.023 267.43 388.549 267.552Z" fill="#447AF5"/>
<path d="M398.273 254.672C394.491 254.825 392.427 256.903 394.256 258.729C396.071 260.553 401.568 261.215 403.757 258.673C405.19 256.454 401.877 254.543 398.273 254.672Z" fill="#447AF5"/>
<path d="M407.637 241.893C403.793 242.072 401.717 244.246 403.608 246.104C405.643 248.114 411.327 248.4 413.34 245.981C414.858 243.501 410.966 241.733 407.637 241.893Z" fill="#447AF5"/>
<path d="M416.617 229.14C412.705 229.357 410.546 231.68 412.501 233.569C414.487 235.495 420.342 236.097 422.581 233.312C424.165 230.636 420.042 228.934 416.617 229.14Z" fill="#447AF5"/>
<path d="M425.241 216.49C421.211 216.775 419.099 219.139 421.142 221.066C423.366 223.169 429.381 223.33 431.432 220.666C432.926 218.008 428.751 216.235 425.241 216.49Z" fill="#447AF5"/>
<path d="M433.483 203.88C429.319 204.243 427.178 206.713 429.341 208.672C431.73 210.848 437.813 210.913 439.906 208.09C441.331 205.428 437.487 203.531 433.483 203.88Z" fill="#447AF5"/>
<path d="M441.33 191.363C437.067 191.828 434.931 194.384 437.177 196.351C439.45 198.326 445.768 198.682 447.99 195.537C449.493 192.583 444.992 190.965 441.33 191.363Z" fill="#447AF5"/>
<path d="M448.777 178.966C444.476 179.52 442.376 182.157 444.672 184.095C447.252 186.251 453.576 186.054 455.63 183.007C456.973 180.224 452.918 178.426 448.777 178.966Z" fill="#447AF5"/>
<path d="M455.806 166.644C451.453 167.34 449.354 170.077 451.731 171.98C454.158 173.91 460.705 173.943 462.861 170.567C464.189 167.681 460.013 165.965 455.806 166.644Z" fill="#447AF5"/>
<path d="M462.416 154.436C457.946 155.301 455.937 158.076 458.425 159.937C461.186 162 467.687 161.409 469.654 158.154C470.903 155.189 466.645 153.621 462.416 154.436Z" fill="#447AF5"/>
<path d="M468.572 142.347C464.116 143.371 462.172 146.221 464.698 147.993C467.26 149.788 473.918 149.354 475.944 145.773C477.232 142.506 472.435 141.462 468.572 142.347Z" fill="#447AF5"/>
<path d="M474.257 130.36C469.788 131.594 467.876 134.538 470.491 136.191C473.151 137.885 479.897 137.176 481.842 133.473C483.051 130.128 478.157 129.286 474.257 130.36Z" fill="#447AF5"/>
<path d="M479.494 118.623C474.947 120.093 473.135 123.035 475.825 124.566C478.568 126.112 485.38 125.05 487.246 121.27C488.352 117.939 483.383 117.376 479.494 118.623Z" fill="#447AF5"/>
<path d="M484.338 107.336C479.848 109.02 478.093 111.963 480.813 113.275C483.609 114.621 490.398 113.169 492.167 109.377C493.116 106.261 488.657 105.706 484.338 107.336Z" fill="#447AF5"/>
<path d="M488.712 96.4205C484.171 98.4033 482.522 101.318 485.326 102.425C488.544 103.685 495.065 101.479 496.656 97.8237C497.606 94.4376 492.593 94.7298 488.712 96.4205Z" fill="#447AF5"/>
<path d="M492.695 85.9113C488.252 88.1623 486.687 91.0849 489.492 91.9217C492.453 92.8146 499.099 90.5139 500.674 86.5986C501.506 83.2806 496.5 83.9727 492.695 85.9113Z" fill="#447AF5"/>
<path d="M496.178 75.7809C491.991 78.2429 490.436 80.969 492.802 81.7452C495.665 82.683 502.738 79.7998 504.24 75.68C504.952 72.3866 500.024 73.5265 496.178 75.7809Z" fill="#447AF5"/>
<path d="M499.24 66.0491C495.158 68.8094 493.706 71.5772 496.056 72.0932C498.975 72.7188 505.98 69.2347 507.333 65.089C507.924 61.8768 503.012 63.4902 499.24 66.0491Z" fill="#447AF5"/>
<path d="M501.827 56.7165C497.819 59.8378 496.521 62.5616 498.906 62.7883C502.18 63.0966 508.746 58.8121 509.869 54.8325C510.266 52.0236 506.298 53.4063 502.397 56.2862C502.219 56.4232 501.989 56.5892 501.827 56.7165Z" fill="#447AF5"/>
<path d="M503.919 47.7916C500.225 51.1248 498.965 53.7026 500.927 53.9155C503.718 54.2224 510.898 49.2918 511.932 44.9042C512.186 42.2561 508.654 43.8694 505.042 46.8408C504.684 47.1147 504.241 47.4938 503.919 47.7916Z" fill="#447AF5"/>
<path d="M505.525 39.3048C501.97 43.0169 500.865 45.5506 502.849 45.4707C505.749 45.3662 512.611 39.7671 513.438 35.3527C513.547 32.8788 510.356 34.7545 507.161 37.7096C506.657 38.1576 505.996 38.8195 505.525 39.3048Z" fill="#447AF5"/>
<path d="M506.6 31.26C503.407 35.1115 502.362 37.5763 503.952 37.5331C506.633 37.4549 513.817 30.705 514.396 26.1532C514.369 23.8136 511.43 26.0266 508.699 28.8929C507.811 29.821 507.08 30.6917 506.6 31.26Z" fill="#447AF5"/>
<path d="M507.148 23.6974C504.138 27.9252 503.27 30.3663 504.875 30.0567C507.693 29.5177 514.518 21.9321 514.838 17.3392C514.621 14.8066 511.165 18.6303 509.695 20.3982C509.298 20.8747 508.267 22.1202 507.148 23.6974Z" fill="#447AF5"/>
<path d="M505.375 19.9102C504.923 20.8556 503.555 23.7315 505.309 23.0779C508.152 22.0195 514.616 13.4982 514.621 9.07662C514.382 7.63315 513.035 8.46683 510.627 11.5618C508.969 14.4595 507.216 17.2322 505.375 19.9102Z" fill="#447AF5"/>
<path d="M258.554 377.037C257.115 377.05 256.224 377.721 256.82 378.308C257.417 378.894 259.555 379.14 260.505 378.356C261.2 377.618 259.834 377.039 258.554 377.037Z" fill="#447AF5"/>
<path d="M271.547 364.534C269.974 364.568 268.972 365.337 269.63 366.011C270.288 366.685 272.646 366.962 273.701 366.05C274.414 365.245 273.077 364.503 271.547 364.534Z" fill="#447AF5"/>
<path d="M284.191 351.851C282.361 351.887 281.247 352.755 282.03 353.548C282.882 354.402 285.574 354.597 286.677 353.612C287.573 352.601 285.821 351.819 284.191 351.851Z" fill="#447AF5"/>
<path d="M296.539 339.091C294.596 339.125 293.393 340.111 294.228 340.974C295.155 341.92 298.061 342.115 299.245 341.039C300.17 339.921 298.266 339.07 296.539 339.091Z" fill="#447AF5"/>
<path d="M308.545 326.237C306.358 326.277 305.057 327.365 306.03 328.351C307.068 329.411 310.307 329.639 311.613 328.425C312.523 327.261 310.631 326.199 308.545 326.237Z" fill="#447AF5"/>
<path d="M320.237 313.331C317.877 313.381 316.454 314.607 317.522 315.661C318.689 316.827 322.194 317.069 323.585 315.75C324.668 314.362 322.337 313.296 320.237 313.331Z" fill="#447AF5"/>
<path d="M331.606 300.463C329.05 300.503 327.595 301.791 328.775 302.961C330.021 304.204 333.758 304.481 335.208 303.049C336.234 301.66 334.049 300.42 331.606 300.463Z" fill="#447AF5"/>
<path d="M342.613 287.569C339.944 287.607 338.38 289.037 339.612 290.278C340.965 291.65 344.973 291.927 346.532 290.354C347.698 288.761 345 287.526 342.613 287.569Z" fill="#447AF5"/>
<path d="M353.309 274.764C350.506 274.824 348.868 276.319 350.209 277.631C351.658 279.072 355.874 279.362 357.455 277.71C358.66 276.027 355.809 274.723 353.309 274.764Z" fill="#447AF5"/>
<path d="M363.675 261.983C360.655 262.056 358.975 263.654 360.418 265.064C361.955 266.599 366.438 266.905 368.097 265.117C369.354 263.292 366.325 261.911 363.675 261.983Z" fill="#447AF5"/>
<path d="M373.692 249.336C370.581 249.427 368.837 251.107 370.355 252.552C371.861 253.994 376.556 254.569 378.355 252.577C379.617 250.682 376.442 249.262 373.692 249.336Z" fill="#447AF5"/>
<path d="M383.366 236.798C380.165 236.907 378.386 238.663 379.964 240.153C381.703 241.785 386.506 242.062 388.205 240.128C389.487 238.154 386.193 236.702 383.366 236.798Z" fill="#447AF5"/>
<path d="M392.664 224.329C389.283 224.475 387.486 226.298 389.169 227.872C390.987 229.582 396.024 229.837 397.784 227.777C399.096 225.697 395.612 224.209 392.664 224.329Z" fill="#447AF5"/>
<path d="M401.584 212C398.035 212.187 396.184 214.108 397.996 215.731C399.939 217.503 405.216 217.709 407.019 215.547C408.342 213.37 404.682 211.849 401.584 212Z" fill="#447AF5"/>
<path d="M410.172 199.852C406.556 200.078 404.703 202.056 406.568 203.693C408.591 205.487 413.983 205.637 415.776 203.402C417.135 201.092 413.31 199.655 410.172 199.852Z" fill="#447AF5"/>
<path d="M418.361 187.811C414.588 188.095 412.697 190.162 414.695 191.835C416.706 193.511 422.31 193.932 424.272 191.386C425.612 188.986 421.61 187.573 418.361 187.811Z" fill="#447AF5"/>
<path d="M426.186 175.972C422.375 176.344 420.496 178.471 422.531 180.112C424.602 181.776 430.288 182.105 432.271 179.479C433.483 177.187 429.881 175.61 426.186 175.972Z" fill="#447AF5"/>
<path d="M433.576 164.257C429.657 164.714 427.753 166.935 429.892 168.56C432.287 170.396 438.083 170.257 439.932 167.709C441.148 165.347 437.379 163.811 433.576 164.257Z" fill="#447AF5"/>
<path d="M440.574 152.735C436.569 153.298 434.675 155.592 436.903 157.199C439.405 159.007 445.358 158.71 447.179 156.055C448.339 153.636 444.462 152.184 440.574 152.735Z" fill="#447AF5"/>
<path d="M447.145 141.427C443.022 142.114 441.207 144.429 443.543 146.008C446.119 147.751 452.161 147.279 453.943 144.557C455.041 142.106 451.061 140.77 447.145 141.427Z" fill="#447AF5"/>
<path d="M453.254 130.308C449.075 131.151 447.285 133.53 449.689 135.013C452.143 136.524 458.42 136.186 460.273 133.199C461.448 130.456 456.895 129.563 453.254 130.308Z" fill="#447AF5"/>
<path d="M458.992 119.615C455.057 120.552 453.208 122.73 455.201 124.103C457.539 125.725 464.292 125.202 466.154 122.075C467.252 119.411 462.635 118.757 458.992 119.615Z" fill="#447AF5"/>
<path d="M464.325 109.368C460.298 110.493 458.509 112.659 460.59 113.913C462.998 115.383 469.839 114.529 471.665 111.377C472.682 108.749 467.994 108.36 464.325 109.368Z" fill="#447AF5"/>
<path d="M469.278 99.5887C465.244 100.897 463.508 103.077 465.606 104.165C468.076 105.453 474.984 104.246 476.743 101.077C477.731 98.398 472.91 98.4002 469.278 99.5887Z" fill="#447AF5"/>
<path d="M473.809 90.2662C469.761 91.7842 468.119 93.9324 470.276 94.8517C473.049 96.0212 479.815 94.1225 481.374 91.1699C482.271 88.5659 477.417 88.9008 473.809 90.2662Z" fill="#447AF5"/>
<path d="M477.951 81.3348C474.147 83.0035 472.481 85.0313 474.223 85.8536C476.583 86.9696 483.951 84.9477 485.613 81.6103C486.416 79.0381 481.61 79.7269 477.951 81.3348Z" fill="#447AF5"/>
<path d="M481.67 72.8742C477.886 74.7897 476.313 76.7858 478.109 77.4091C480.523 78.2694 487.83 75.7334 489.368 72.4339C490.067 69.9332 485.357 71.0036 481.67 72.8742Z" fill="#447AF5"/>
<path d="M484.937 64.8186C481.165 67.0076 479.708 68.9924 481.527 69.4228C484.079 70.0355 491.238 66.9905 492.684 63.6094C493.292 61.1273 488.49 62.7559 484.937 64.8186Z" fill="#447AF5"/>
<path d="M487.781 57.2335C484.316 59.5477 482.902 61.4298 484.308 61.8067C486.591 62.4182 494.184 58.6507 495.499 55.1775C495.989 52.82 491.319 54.854 487.781 57.2335Z" fill="#447AF5"/>
<path d="M490.139 50.072C486.753 52.6773 485.439 54.5578 486.889 54.7188C489.3 55.0093 496.687 50.6319 497.852 47.1329C498.18 45.1158 494.649 46.8291 491.236 49.2707C490.902 49.5083 490.473 49.8343 490.139 50.072Z" fill="#447AF5"/>
<path d="M492.055 43.404C489.633 45.5424 487.511 47.8892 488.82 48.0978C490.951 48.4268 498.667 43.142 499.684 39.5039C499.869 37.6477 496.542 39.7143 493.637 42.0645C493.11 42.4921 492.576 42.9463 492.055 43.404Z" fill="#447AF5"/>
<path d="M493.485 37.2171C490.475 40.2786 489.409 42.0267 490.526 41.9989C492.729 41.9493 500.263 35.8051 501.035 32.2861C501.094 30.5811 497.959 32.9407 495.01 35.72C494.495 36.2078 493.977 36.7089 493.485 37.2171Z" fill="#447AF5"/>
<path d="M491.638 36.4097C493.855 36.1504 501.271 29.0646 501.814 25.5551C501.803 25.3817 501.788 25.1215 501.612 25.0885C498.481 29.1276 495.166 32.9037 491.638 36.4097Z" fill="#447AF5"/>
<path d="M243.951 358.718C243.098 358.717 242.565 359.115 242.952 359.475C243.326 359.831 244.566 359.978 245.121 359.501C245.488 359.087 244.764 358.709 243.951 358.718Z" fill="#447AF5"/>
<path d="M256.799 346.019C255.785 346.032 255.141 346.527 255.593 346.961C256.092 347.436 257.586 347.538 258.198 347.005C258.708 346.431 257.712 346.007 256.799 346.019Z" fill="#447AF5"/>
<path d="M269.362 333.202C268.119 333.224 267.362 333.818 267.913 334.364C268.493 334.96 270.35 335.088 271.114 334.411C271.642 333.77 270.549 333.179 269.362 333.202Z" fill="#447AF5"/>
<path d="M281.593 320.352C280.18 320.372 279.325 321.067 279.968 321.694C280.597 322.318 282.675 322.576 283.583 321.738C284.178 321.002 282.96 320.349 281.593 320.352Z" fill="#447AF5"/>
<path d="M293.513 307.448C291.886 307.467 290.916 308.274 291.674 309.003C292.491 309.776 294.903 309.954 295.851 309.07C296.522 308.211 295.109 307.435 293.513 307.448Z" fill="#447AF5"/>
<path d="M305.132 294.605C303.393 294.622 302.325 295.531 303.138 296.318C303.937 297.101 306.581 297.425 307.675 296.367C308.492 295.335 306.689 294.581 305.132 294.605Z" fill="#447AF5"/>
<path d="M316.398 281.753C314.385 281.783 313.265 282.777 314.203 283.682C315.127 284.584 318.043 284.953 319.263 283.744C320.118 282.622 318.137 281.736 316.398 281.753Z" fill="#447AF5"/>
<path d="M327.354 268.989C325.198 269.023 323.946 270.138 324.962 271.122C326.08 272.203 329.332 272.435 330.546 271.196C331.467 269.935 329.267 268.962 327.354 268.989Z" fill="#447AF5"/>
<path d="M337.98 256.351C335.61 256.384 334.31 257.572 335.459 258.647C336.672 259.797 340.15 260.032 341.428 258.711C342.388 257.361 340.026 256.302 337.98 256.351Z" fill="#447AF5"/>
<path d="M348.254 243.8C345.754 243.842 344.366 245.148 345.587 246.271C346.919 247.51 350.663 247.759 352.013 246.329C353.014 244.877 350.467 243.768 348.254 243.8Z" fill="#447AF5"/>
<path d="M358.187 231.459C355.554 231.522 354.108 232.884 355.414 234.058C356.747 235.24 360.641 235.729 362.144 234.098C363.18 232.57 360.49 231.408 358.187 231.459Z" fill="#447AF5"/>
<path d="M367.779 219.225C364.942 219.304 363.449 220.739 364.873 222.002C366.4 223.364 370.614 223.611 372.067 222.01C373.069 220.501 370.512 219.161 367.779 219.225Z" fill="#447AF5"/>
<path d="M377.023 207.225C374.056 207.311 372.519 208.805 374.056 210.127C375.57 211.429 379.924 211.898 381.534 210.083C382.564 208.468 379.874 207.149 377.023 207.225Z" fill="#447AF5"/>
<path d="M385.897 195.396C382.763 195.523 381.19 197.092 382.817 198.453C384.558 199.915 389.17 200.112 390.709 198.349C391.869 196.512 388.584 195.291 385.897 195.396Z" fill="#447AF5"/>
<path d="M394.403 183.767C391.345 183.929 389.681 185.417 391.037 186.776C392.695 188.443 397.869 188.72 399.514 186.772C400.587 184.997 397.558 183.617 394.403 183.767Z" fill="#447AF5"/>
<path d="M402.538 172.408C399.399 172.605 397.707 174.143 399.134 175.506C400.888 177.185 406.236 177.395 407.899 175.381C408.953 173.572 405.777 172.209 402.538 172.408Z" fill="#447AF5"/>
<path d="M410.296 161.233C407.039 161.498 405.303 163.095 406.809 164.479C408.656 166.183 414.225 166.31 415.91 164.216C416.988 162.315 413.669 160.956 410.296 161.233Z" fill="#447AF5"/>
<path d="M417.662 150.352C414.318 150.679 412.585 152.319 414.168 153.682C416.168 155.398 421.792 155.426 423.502 153.239C424.53 151.31 421.093 150.02 417.662 150.352Z" fill="#447AF5"/>
<path d="M424.613 139.698C421.191 140.104 419.453 141.814 421.1 143.151C423.187 144.863 429.003 144.757 430.711 142.47C431.724 140.495 428.152 139.282 424.613 139.698Z" fill="#447AF5"/>
<path d="M431.158 129.393C427.611 129.893 425.907 131.584 427.668 132.866C429.863 134.493 435.792 134.232 437.452 131.961C438.515 129.8 434.438 128.935 431.158 129.393Z" fill="#447AF5"/>
<path d="M437.358 119.578C433.739 120.187 432.031 121.89 433.843 123.087C435.933 124.472 442.097 124.289 443.861 121.846C444.899 119.721 440.693 119.021 437.358 119.578Z" fill="#447AF5"/>
<path d="M443.181 110.316C439.757 110.992 438.005 112.542 439.463 113.629C441.555 115.214 448.1 114.621 449.813 112.207C450.787 110.164 446.53 109.65 443.181 110.316Z" fill="#447AF5"/>
<path d="M448.65 101.527C445.174 102.345 443.432 103.912 444.922 104.88C447.113 106.306 453.789 105.435 455.472 103.028C456.443 100.942 452.002 100.747 448.65 101.527Z" fill="#447AF5"/>
<path d="M453.74 93.2497C450.212 94.2099 448.533 95.7511 450.081 96.6068C452.349 97.8545 459.067 96.668 460.7 94.2897C461.527 92.421 457.579 92.188 453.74 93.2497Z" fill="#447AF5"/>
<path d="M458.44 85.422C454.845 86.5777 453.217 88.0898 454.831 88.8067C457.183 89.8492 463.976 88.3274 465.539 85.9446C466.391 83.983 461.907 84.3175 458.44 85.422Z" fill="#447AF5"/>
<path d="M462.753 78.0872C459.343 79.3493 457.709 80.7746 458.961 81.4088C460.918 82.388 468.273 80.7324 469.961 78.0418C470.749 76.1625 466.223 76.8127 462.753 78.0872Z" fill="#447AF5"/>
<path d="M466.697 71.2232C463.791 72.4639 461.582 74.0194 463.042 74.5671C465.042 75.3305 472.369 73.198 473.969 70.5692C474.656 68.7481 470.198 69.7294 466.697 71.2232Z" fill="#447AF5"/>
<path d="M470.202 64.8245C467.01 66.3868 465.498 67.7308 466.437 68.1531C468.15 68.925 475.986 66.2179 477.548 63.4652C478.165 61.6963 473.676 63.1102 470.202 64.8245Z" fill="#447AF5"/>
<path d="M473.294 58.9117C470.162 60.675 468.757 61.9908 469.719 62.2769C471.499 62.7967 479.225 59.4913 480.653 56.8163C481.117 55.348 477.718 56.5704 474.373 58.3334C474.044 58.5011 473.613 58.7271 473.294 58.9117Z" fill="#447AF5"/>
<path d="M475.96 53.4684C472.831 55.4883 471.55 56.7662 472.541 56.8895C474.452 57.1316 482.038 53.2341 483.336 50.567C483.756 49.0013 479.447 51.3878 478.118 52.1552C477.105 52.7512 476.213 53.3227 475.96 53.4684Z" fill="#447AF5"/>
<path d="M478.189 48.5478C476.151 50.0496 473.911 51.8812 474.772 52.0123C476.324 52.2716 484.381 47.4624 485.563 44.75C485.811 43.508 482.723 45.4252 480.853 46.6733C480.351 47.0081 479.356 47.6944 478.189 48.5478Z" fill="#447AF5"/>
<path d="M242.039 327.703L242.07 327.697L242.04 327.646C242.046 327.676 242.043 327.689 242.039 327.703Z" fill="#447AF5"/>
<path d="M253.935 314.407C253.279 314.415 252.88 314.735 253.172 315.027C253.463 315.318 254.428 315.434 254.848 315.035C255.123 314.696 254.565 314.39 253.935 314.407Z" fill="#447AF5"/>
<path d="M266.054 301.499C265.141 301.51 264.614 301.938 265.051 302.325C265.51 302.733 266.835 302.831 267.329 302.367C267.73 301.877 266.854 301.486 266.054 301.499Z" fill="#447AF5"/>
<path d="M277.881 288.669C276.824 288.684 276.219 289.19 276.704 289.662C277.239 290.161 278.803 290.267 279.396 289.7C279.829 289.148 278.911 288.646 277.881 288.669Z" fill="#447AF5"/>
<path d="M289.378 275.851C288.068 275.855 287.345 276.486 287.962 277.05C288.579 277.613 290.477 277.852 291.263 277.095C291.808 276.388 290.508 275.826 289.378 275.851Z" fill="#447AF5"/>
<path d="M300.571 263.165C299.145 263.181 298.33 263.887 299.012 264.524C299.75 265.22 301.873 265.362 302.68 264.583C303.296 263.767 301.824 263.159 300.571 263.165Z" fill="#447AF5"/>
<path d="M311.443 250.562C309.8 250.591 308.87 251.408 309.657 252.131C310.514 252.915 312.983 253.094 313.878 252.196C314.58 251.275 312.896 250.553 311.443 250.562Z" fill="#447AF5"/>
<path d="M321.969 238.137C320.082 238.172 319.074 239.068 319.99 239.896C321.001 240.793 323.723 240.982 324.737 239.96C325.423 238.991 323.765 238.121 321.969 238.137Z" fill="#447AF5"/>
<path d="M332.147 225.946C330.19 225.977 329.101 226.965 330.079 227.824C331.146 228.778 334.131 228.995 335.193 227.9C335.978 226.774 333.907 225.906 332.147 225.946Z" fill="#447AF5"/>
<path d="M342.001 213.954C340.015 213.99 338.84 214.927 339.681 215.821C340.718 216.938 344.112 217.221 345.276 216.011C346.092 214.822 343.875 213.915 342.001 213.954Z" fill="#447AF5"/>
<path d="M351.519 202.156C349.376 202.193 348.119 203.221 349.026 204.19C350.168 205.392 353.885 205.691 355.137 204.362C356.005 203.087 353.566 202.107 351.519 202.156Z" fill="#447AF5"/>
<path d="M360.676 190.643C358.356 190.704 357.065 191.751 358.084 192.778C359.316 194.018 363.233 194.314 364.516 192.923C365.398 191.595 362.839 190.582 360.676 190.643Z" fill="#447AF5"/>
<path d="M369.49 179.353C367.053 179.425 365.681 180.565 366.766 181.609C368.11 182.908 372.327 183.199 373.671 181.739C374.575 180.331 371.797 179.288 369.49 179.353Z" fill="#447AF5"/>
<path d="M377.961 168.383C375.374 168.486 373.981 169.649 375.156 170.731C376.593 172.055 380.977 172.306 382.349 170.796C383.267 169.335 380.349 168.283 377.961 168.383Z" fill="#447AF5"/>
<path d="M386.035 157.676C383.307 157.826 381.857 159.045 383.124 160.152C384.681 161.508 389.342 161.733 390.752 160.134C391.632 158.706 388.829 157.543 386.035 157.676Z" fill="#447AF5"/>
<path d="M393.723 147.293C390.845 147.474 389.351 148.752 390.715 149.871C392.414 151.279 397.262 151.441 398.727 149.743C399.608 148.258 396.659 147.112 393.723 147.293Z" fill="#447AF5"/>
<path d="M401.037 137.249C398.087 137.483 396.586 138.787 398.01 139.894C399.799 141.284 404.76 141.347 406.235 139.609C407.14 138.088 404.083 137.027 401.037 137.249Z" fill="#447AF5"/>
<path d="M407.974 127.647C405.071 127.921 403.485 129.117 404.674 130.147C406.318 131.597 411.945 131.669 413.478 129.875C414.445 128.229 410.801 127.394 407.974 127.647Z" fill="#447AF5"/>
<path d="M414.603 118.672C411.595 119.017 410.05 120.168 411.276 121.165C412.989 122.52 418.738 122.453 420.271 120.659C421.197 119.059 417.477 118.347 414.603 118.672Z" fill="#447AF5"/>
<path d="M420.862 110.223C417.763 110.644 416.184 111.813 417.475 112.728C419.329 114.035 425.22 113.808 426.794 111.968C427.734 110.371 423.901 109.814 420.862 110.223Z" fill="#447AF5"/>
<path d="M426.801 102.343C423.814 102.823 422.19 103.895 423.192 104.718C424.809 106.062 431.306 105.698 432.941 103.789C433.857 102.229 429.908 101.839 426.801 102.343Z" fill="#447AF5"/>
<path d="M432.408 94.9998C429.41 95.5757 427.802 96.6383 428.809 97.3916C430.488 98.6094 437.083 97.9873 438.714 96.0921C439.586 94.5907 435.544 94.3894 432.408 94.9998Z" fill="#447AF5"/>
<path d="M437.639 88.1675C434.535 88.8717 432.948 89.9112 434.027 90.5558C435.63 91.5257 442.429 90.8304 444.138 88.8566C444.989 87.3782 440.786 87.4607 437.639 88.1675Z" fill="#447AF5"/>
<path d="M442.544 81.8594C439.618 82.6399 438.053 83.5998 438.813 84.1591C440.097 85.1003 447.383 84.18 449.147 82.1071C449.954 80.6879 445.774 81.0041 442.544 81.8594Z" fill="#447AF5"/>
<path d="M447.059 76.0438C444.068 76.9631 442.546 77.9204 443.348 78.3771C444.704 79.1529 452.117 77.8115 453.811 75.7908C454.529 74.4901 450.648 75.0145 447.568 75.8957C447.414 75.9398 447.213 75.9997 447.059 76.0438Z" fill="#447AF5"/>
<path d="M451.214 70.7295C448.184 71.7948 446.721 72.7398 447.539 73.0868C449.047 73.7186 456.442 71.917 458.105 69.9024C458.693 68.8227 455.746 69.313 452.775 70.2093C452.259 70.3839 451.73 70.5549 451.214 70.7295Z" fill="#447AF5"/>
<path d="M455 65.941C452.162 67.0861 450.741 67.9852 451.276 68.2707C452.399 68.8561 460.271 66.5428 461.908 64.5211C462.459 63.4741 459.18 64.4586 458.168 64.7847C457.468 65.0095 456.342 65.3904 455 65.941Z" fill="#447AF5"/>
<path d="M458.398 61.647C455.57 62.9656 454.259 63.8232 454.809 63.9991C456.033 64.3695 463.784 61.5544 465.353 59.5716C465.581 59.0922 464.925 59.1012 463.397 59.6019C461.886 60.093 459.828 60.978 458.398 61.647Z" fill="#447AF5"/>
<path d="M458.169 59.7368C457.747 60.0363 457.736 60.1327 457.728 60.2159C458.387 60.8334 466.868 57.0476 468.364 55.0735C468.391 55.024 468.412 54.9444 468.4 54.8842C468.344 54.8266 468.164 54.6503 466.654 55.298C463.915 56.868 461.075 58.3396 458.169 59.7368Z" fill="#447AF5"/>
<path d="M249.658 282.814L249.817 283.013L250.285 282.968L250.072 282.754L249.658 282.814Z" fill="#447AF5"/>
<path d="M261.109 270.111L261.439 270.526L262.331 270.381L261.941 269.978L261.109 270.111Z" fill="#447AF5"/>
<path d="M273.017 257.259C272.364 257.255 271.952 257.571 272.214 257.868C272.531 258.224 273.695 258.337 274.098 257.947C274.422 257.536 273.57 257.265 273.017 257.259Z" fill="#447AF5"/>
<path d="M284.115 244.761C283.255 244.786 282.775 245.198 283.172 245.575C283.615 245.992 284.93 246.074 285.411 245.606C285.778 245.135 284.885 244.754 284.115 244.761Z" fill="#447AF5"/>
<path d="M294.872 232.427C293.832 232.433 293.211 232.892 293.656 233.353C294.131 233.864 295.913 234.114 296.553 233.475C296.956 232.928 295.928 232.411 294.872 232.427Z" fill="#447AF5"/>
<path d="M305.304 220.347C304.134 220.36 303.435 220.898 303.927 221.4C304.526 222.029 306.522 222.223 307.203 221.538C307.711 220.863 306.417 220.332 305.304 220.347Z" fill="#447AF5"/>
<path d="M315.401 208.461C314.018 208.475 313.211 209.097 313.804 209.697C314.531 210.432 316.877 210.649 317.673 209.852C318.236 209.079 316.697 208.453 315.401 208.461Z" fill="#447AF5"/>
<path d="M325.167 196.857C323.597 196.877 322.703 197.562 323.374 198.24C324.19 199.07 326.872 199.305 327.77 198.393C328.401 197.524 326.637 196.838 325.167 196.857Z" fill="#447AF5"/>
<path d="M334.615 185.58C332.916 185.608 331.98 186.339 332.711 187.061C333.609 187.955 336.491 188.187 337.447 187.22C338.092 186.298 336.185 185.56 334.615 185.58Z" fill="#447AF5"/>
<path d="M343.678 174.584C341.805 174.622 340.752 175.421 341.595 176.201C342.635 177.148 345.853 177.399 346.884 176.367C347.571 175.342 345.448 174.56 343.678 174.584Z" fill="#447AF5"/>
<path d="M352.427 163.943C350.367 163.989 349.294 164.81 350.236 165.646C351.389 166.651 354.776 166.905 355.858 165.787C356.528 164.772 354.487 163.898 352.427 163.943Z" fill="#447AF5"/>
<path d="M360.796 153.629C358.72 153.684 357.55 154.494 358.335 155.33C359.413 156.458 363.362 156.791 364.572 155.565C365.274 154.488 363.047 153.564 360.796 153.629Z" fill="#447AF5"/>
<path d="M368.827 143.722C366.673 143.799 365.469 144.628 366.282 145.471C367.422 146.63 371.578 146.933 372.806 145.641C373.589 144.471 370.95 143.651 368.827 143.722Z" fill="#447AF5"/>
<path d="M376.433 134.17C374.146 134.269 372.862 135.133 373.757 135.985C375.013 137.189 379.48 137.447 380.783 136.09C381.61 134.861 378.708 134.069 376.433 134.17Z" fill="#447AF5"/>
<path d="M383.752 125.223C381.328 125.356 379.997 126.236 380.956 127.062C382.309 128.221 387.047 128.424 388.376 127.074C389.224 125.822 386.147 125.097 383.752 125.223Z" fill="#447AF5"/>
<path d="M390.763 116.949C388.401 117.112 387.028 117.882 387.775 118.651C388.938 119.83 394.213 120.049 395.626 118.65C396.449 117.434 393.241 116.774 390.763 116.949Z" fill="#447AF5"/>
<path d="M397.481 109.276C395.052 109.478 393.667 110.244 394.428 110.96C395.639 112.067 401.075 112.158 402.498 110.776C403.31 109.6 400.014 109.058 397.481 109.276Z" fill="#447AF5"/>
<path d="M403.849 102.18C401.262 102.44 399.85 103.199 400.695 103.866C402.056 104.942 407.692 104.874 409.158 103.489C409.98 102.33 406.556 101.896 403.849 102.18Z" fill="#447AF5"/>
<path d="M409.935 95.6619C407.313 95.9976 405.888 96.7534 406.754 97.3411C408.171 98.3179 413.909 98.0779 415.385 96.7099C416.193 95.6039 412.699 95.3219 409.935 95.6619Z" fill="#447AF5"/>
<path d="M415.669 89.7043C413.107 90.0843 411.642 90.7728 412.283 91.3C413.299 92.1268 419.763 91.939 421.394 90.4703C422.174 89.4138 418.511 89.2856 415.669 89.7043Z" fill="#447AF5"/>
<path d="M421.083 84.3002C418.456 84.7625 416.975 85.4607 417.641 85.895C418.883 86.7256 425.438 86.0928 426.987 84.7161C427.73 83.7489 424.46 83.7972 422.005 84.1491C421.734 84.2046 421.35 84.2581 421.083 84.3002Z" fill="#447AF5"/>
<path d="M426.181 79.4514C423.65 79.9819 422.22 80.5943 422.647 80.9647C423.503 81.7488 430.639 80.8592 432.248 79.4701C432.831 78.7302 430.631 78.7665 428.58 79.0419C428.21 79.099 427.264 79.2297 426.181 79.4514Z" fill="#447AF5"/>
<path d="M430.938 75.1231C428.348 75.766 426.952 76.3589 427.384 76.6594C428.187 77.2161 435.452 76.1621 437.163 74.7147C437.591 74.1755 436.315 74.2173 435.173 74.338C433.984 74.4746 432.413 74.7648 430.938 75.1231Z" fill="#447AF5"/>
<path d="M435.348 71.3419C432.746 72.0812 431.393 72.6715 431.837 72.8755C432.762 73.2943 439.955 71.8225 441.627 70.4645C441.732 70.3363 441.956 70.0836 440.916 70.146C439.671 70.225 437.216 70.7902 435.348 71.3419Z" fill="#447AF5"/>
<path d="M439.396 68.0743C435.948 69.2125 435.824 69.4636 435.786 69.553C436.587 70.0662 444.375 67.8015 445.838 66.6432C445.861 66.607 445.906 66.5477 445.92 66.4947C445.614 66.043 440.036 67.8618 439.396 68.0743Z" fill="#447AF5"/>
<path d="M442.09 66.3507C444.695 65.5982 447.348 64.5599 448.632 63.9084C446.485 64.7553 444.302 65.5783 442.09 66.3507Z" fill="#447AF5"/>
<path d="M244.608 251.297L244.726 251.385L244.956 251.376L244.858 251.264L244.608 251.297Z" fill="#447AF5"/>
<path d="M255.929 238.972L256.044 239.074L256.281 239.038L256.166 238.936L255.929 238.972Z" fill="#447AF5"/>
<path d="M266.65 226.77L266.938 227.075L267.59 226.979L267.288 226.671L266.65 226.77Z" fill="#447AF5"/>
<path d="M277.088 214.834L277.54 215.269L278.486 215.138L278.063 214.698L277.088 214.834Z" fill="#447AF5"/>
<path d="M288.032 202.92C287.388 202.932 287.017 203.203 287.286 203.474C287.624 203.806 288.722 203.901 289.101 203.547C289.343 203.228 288.715 202.918 288.032 202.92Z" fill="#447AF5"/>
<path d="M298.014 191.459C297.147 191.454 296.651 191.819 297.025 192.175C297.455 192.589 298.907 192.794 299.433 192.266C299.756 191.855 298.906 191.471 298.014 191.459Z" fill="#447AF5"/>
<path d="M307.696 180.373C306.716 180.366 306.146 180.796 306.562 181.206C307.107 181.722 308.83 181.871 309.389 181.324C309.792 180.778 308.636 180.368 307.696 180.373Z" fill="#447AF5"/>
<path d="M317.023 169.603C315.813 169.606 315.159 170.085 315.684 170.567C316.36 171.175 318.389 171.349 319.06 170.704C319.483 170.134 318.259 169.607 317.023 169.603Z" fill="#447AF5"/>
<path d="M326.027 159.203C324.701 159.217 323.943 159.711 324.427 160.239C325.101 160.96 327.649 161.216 328.439 160.446C328.913 159.791 327.48 159.194 326.027 159.203Z" fill="#447AF5"/>
<path d="M334.683 149.235C333.214 149.254 332.379 149.769 332.939 150.332C333.686 151.101 336.49 151.355 337.317 150.552C337.849 149.841 336.28 149.222 334.683 149.235Z" fill="#447AF5"/>
<path d="M342.977 139.668C341.35 139.687 340.431 140.251 341.061 140.875C341.92 141.703 345.06 141.975 345.995 141.088C346.569 140.275 344.573 139.655 342.977 139.668Z" fill="#447AF5"/>
<path d="M350.928 130.635C349.155 130.672 348.209 131.229 348.909 131.857C349.851 132.693 353.208 132.952 354.18 132.032C354.747 131.246 352.845 130.594 350.928 130.635Z" fill="#447AF5"/>
<path d="M358.596 122.251C356.806 122.298 355.767 122.83 356.307 123.415C357.149 124.309 361.098 124.642 362.174 123.651C362.832 122.789 360.456 122.209 358.596 122.251Z" fill="#447AF5"/>
<path d="M365.961 114.554C364.051 114.625 362.939 115.166 363.525 115.736C364.44 116.621 368.691 116.892 369.837 115.905C370.525 115.037 367.958 114.478 365.961 114.554Z" fill="#447AF5"/>
<path d="M373.05 107.523C371.036 107.609 369.884 108.139 370.521 108.68C371.52 109.516 376.001 109.722 377.184 108.759C377.861 107.93 375.147 107.445 373.05 107.523Z" fill="#447AF5"/>
<path d="M379.843 101.123C377.835 101.239 376.641 101.715 377.093 102.206C377.898 103.076 382.953 103.264 384.263 102.25C384.953 101.425 382.051 101.003 379.843 101.123Z" fill="#447AF5"/>
<path d="M386.35 95.3589C384.262 95.5103 383.014 95.9725 383.503 96.4306C384.396 97.2386 389.579 97.3191 390.933 96.3023C391.605 95.5439 388.888 95.2283 386.714 95.3284C386.61 95.3433 386.467 95.3475 386.35 95.3589Z" fill="#447AF5"/>
<path d="M392.56 90.1811C390.344 90.3837 389.07 90.8387 389.616 91.2411C390.455 91.8783 395.999 91.9416 397.439 90.9196C398.087 90.254 395.671 90.0335 393.747 90.1011C393.344 90.1209 392.954 90.1444 392.56 90.1811Z" fill="#447AF5"/>
<path d="M398.463 85.6057C396.353 85.8368 395.047 86.2547 395.371 86.5834C396.016 87.254 402.027 87.0585 403.48 86.0967C404.076 85.5169 401.944 85.4577 401.278 85.4498C400.442 85.4391 399.405 85.4883 398.463 85.6057Z" fill="#447AF5"/>
<path d="M404.063 81.5887C401.865 81.8817 400.576 82.2898 400.901 82.5618C401.597 83.1467 407.852 82.7321 409.354 81.7977C409.465 81.6996 409.787 81.4018 408.339 81.3408C407.317 81.2803 405.629 81.3685 404.063 81.5887Z" fill="#447AF5"/>
<path d="M409.349 78.1555C407.017 78.5261 405.734 78.9077 406.104 79.1205C406.764 79.5248 413.227 78.9671 414.859 78.0249C414.967 77.9401 415.153 77.7766 414.514 77.7192C413.48 77.5986 411.12 77.8621 409.349 78.1555Z" fill="#447AF5"/>
<path d="M414.345 75.2705C412.306 75.6627 411.188 75.9604 411.038 76.1478C411.547 76.6395 418.492 75.5568 419.998 74.7658C420.035 74.7331 420.073 74.7004 420.097 74.6641C419.69 74.2708 414.9 75.1632 414.345 75.2705Z" fill="#447AF5"/>
<path d="M419.031 72.9558C416.172 73.5974 415.863 73.7421 415.728 73.8199C415.725 73.8331 415.717 73.8596 415.727 73.8765C416.574 74.0606 423.213 72.7962 424.765 72.0459C424.795 72.0398 424.815 72.0168 424.849 71.9974C424.856 71.9708 424.846 71.954 424.853 71.9274C424.319 71.7985 420.607 72.5957 419.031 72.9558Z" fill="#447AF5"/>
<path d="M269.928 186.037L270.058 186.186L270.399 186.135L270.221 186.002L269.928 186.037Z" fill="#447AF5"/>
<path d="M279.6 175.148L279.912 175.416L280.543 175.344L280.235 175.062L279.6 175.148Z" fill="#447AF5"/>
<path d="M289.565 164.45C289.038 164.451 288.758 164.646 288.984 164.863C289.28 165.141 290.222 165.18 290.503 164.928C290.68 164.692 290.118 164.455 289.565 164.45Z" fill="#447AF5"/>
<path d="M298.816 154.286C298.146 154.291 297.759 154.515 298.018 154.769C298.32 155.077 299.593 155.262 299.992 154.886C300.231 154.58 299.526 154.291 298.816 154.286Z" fill="#447AF5"/>
<path d="M307.705 144.566C306.865 144.568 306.39 144.853 306.701 145.178C307.131 145.592 308.791 145.767 309.265 145.325C309.592 144.901 308.558 144.567 307.705 144.566Z" fill="#447AF5"/>
<path d="M316.262 135.297C315.323 135.301 314.605 135.592 315.034 136.006C315.582 136.508 317.591 136.705 318.173 136.179C318.524 135.718 317.385 135.299 316.262 135.297Z" fill="#447AF5"/>
<path d="M324.527 126.689C323.431 126.694 322.792 127.006 323.106 127.375C323.596 127.933 326.028 128.2 326.714 127.602C327.119 127.099 325.676 126.698 324.527 126.689Z" fill="#447AF5"/>
<path d="M332.486 118.797C331.207 118.795 330.448 119.132 330.858 119.512C331.481 120.106 334.239 120.375 335.002 119.755C335.478 119.2 333.796 118.792 332.486 118.797Z" fill="#447AF5"/>
<path d="M340.191 111.646C338.855 111.643 338.036 111.993 338.446 112.373C339.096 112.973 342.118 113.214 342.955 112.585C343.444 112.034 341.618 111.63 340.191 111.646Z" fill="#447AF5"/>
<path d="M347.627 105.176C346.244 105.19 345.396 105.488 345.7 105.84C346.219 106.449 349.726 106.734 350.67 106.077C351.186 105.533 349.166 105.162 347.627 105.176Z" fill="#447AF5"/>
<path d="M354.797 99.3747C353.28 99.4092 352.349 99.7001 352.679 100.059C353.272 100.659 357.107 100.89 358.121 100.237C358.602 99.7686 357.049 99.4093 355.34 99.3639C355.18 99.3779 354.967 99.3776 354.797 99.3747Z" fill="#447AF5"/>
<path d="M361.693 94.2408C360.025 94.306 359.024 94.5924 359.405 94.922C360.079 95.4865 364.281 95.6738 365.365 95.0256C365.818 94.6068 364.43 94.3201 362.899 94.2511C362.492 94.2276 362.083 94.2173 361.693 94.2408Z" fill="#447AF5"/>
<path d="M368.338 89.764C366.711 89.8399 365.69 90.0926 365.915 90.3663C366.353 90.9101 371.002 91.075 372.206 90.4022C372.645 90.0364 371.368 89.865 370.813 89.8156C370.454 89.7763 369.535 89.7008 368.338 89.764Z" fill="#447AF5"/>
<path d="M374.679 85.8885C372.958 85.9961 371.885 86.2346 372.117 86.4818C372.589 86.9495 377.63 86.9777 378.843 86.3783C378.934 86.3032 379.218 86.0948 378.077 85.9456C377.266 85.842 375.937 85.813 374.679 85.8885Z" fill="#447AF5"/>
<path d="M380.771 82.6426C378.942 82.7785 377.856 83.0134 378.115 83.2111C378.648 83.6099 383.829 83.4904 385.104 82.9221C385.192 82.8603 385.364 82.7499 384.862 82.6582C384.175 82.5166 382.495 82.5217 380.771 82.6426Z" fill="#447AF5"/>
<path d="M386.588 79.9778C385.637 80.0784 383.998 80.2508 383.771 80.4602C384.07 80.8818 389.897 80.5233 391.202 80.0055C391.236 79.9861 391.273 79.9533 391.307 79.9339C391.003 79.5823 386.628 79.9885 386.588 79.9778Z" fill="#447AF5"/>
<path d="M392.115 77.9324C390.343 78.1259 389.387 78.2964 389.232 78.3971C389.627 78.6736 395.547 78.1268 396.888 77.6895C396.921 77.6701 396.968 77.6542 396.989 77.6312C396.692 77.4097 392.586 77.8737 392.115 77.9324Z" fill="#447AF5"/>
<path d="M394.445 76.9216C395.511 76.9229 400.86 76.2798 402.359 75.8852C402.376 75.8755 402.406 75.8693 402.436 75.8632C402.423 75.8596 402.413 75.8428 402.417 75.8295C399.781 76.2183 397.136 76.5904 394.445 76.9216Z" fill="#447AF5"/>
<path d="M288.319 130.881L288.651 131.126L289.365 131.062L288.993 130.806L288.319 130.881Z" fill="#447AF5"/>
<path d="M297.255 122.538C296.758 122.533 296.536 122.673 296.657 122.805C296.843 123.011 297.897 123.166 298.208 122.908C298.375 122.711 297.751 122.543 297.255 122.538Z" fill="#447AF5"/>
<path d="M305.517 115.054C304.894 115.044 304.508 115.211 304.688 115.387C304.967 115.675 306.407 115.819 306.812 115.529C307.07 115.257 306.113 115.058 305.517 115.054Z" fill="#447AF5"/>
<path d="M313.519 108.324C312.739 108.314 312.27 108.473 312.43 108.672C312.721 109.02 314.67 109.23 315.192 108.872C315.477 108.607 314.459 108.32 313.519 108.324Z" fill="#447AF5"/>
<path d="M321.28 102.341C320.413 102.336 319.874 102.491 320.057 102.71C320.361 103.062 322.61 103.266 323.203 102.913C323.521 102.628 322.348 102.386 321.433 102.353C321.393 102.343 321.336 102.342 321.28 102.341Z" fill="#447AF5"/>
<path d="M328.784 97.0555C327.748 97.048 327.105 97.2171 327.345 97.4378C327.758 97.8046 330.391 98.0121 331.087 97.644C331.418 97.363 330.318 97.1679 329.526 97.0979C329.277 97.0737 329.041 97.0531 328.784 97.0555Z" fill="#447AF5"/>
<path d="M336.083 92.4832C334.943 92.4907 334.244 92.6588 334.5 92.8697C334.944 93.2304 337.827 93.4055 338.592 93.0418C338.896 92.8104 338.069 92.6599 337.7 92.6037C337.401 92.552 336.822 92.4823 336.083 92.4832Z" fill="#447AF5"/>
<path d="M343.084 88.5858C342.044 88.5917 341.086 88.7188 341.262 88.9084C341.576 89.2769 345.038 89.4651 345.955 89.0706C346.022 89.0318 346.218 88.8851 345.43 88.7453C344.968 88.6642 344.124 88.58 343.084 88.5858Z" fill="#447AF5"/>
<path d="M349.852 85.351C348.508 85.3751 347.676 85.5077 347.86 85.6707C348.218 85.98 352.034 86.1208 353.014 85.7574C353.081 85.7186 353.215 85.6409 352.857 85.5449C352.34 85.4062 351.068 85.3215 349.852 85.351Z" fill="#447AF5"/>
<path d="M356.376 82.7612C355.789 82.7747 354.418 82.8482 354.236 82.9984C354.44 83.3517 358.902 83.3102 359.786 83.0352C359.816 83.029 359.85 83.0096 359.871 82.9866C359.715 82.7174 357.076 82.7497 356.376 82.7612Z" fill="#447AF5"/>
<path d="M362.645 80.8145C361.868 80.8481 360.524 80.9288 360.352 81.0392C360.571 81.2828 365.274 81.192 366.342 80.9234C366.358 80.9136 366.405 80.8978 366.422 80.888C366.226 80.6648 362.688 80.8119 362.645 80.8145Z" fill="#447AF5"/>
<path d="M368.675 79.4872C366.364 79.6215 366.306 79.6772 366.286 79.7002C366.727 79.8043 371.382 79.6293 372.578 79.4096C372.608 79.4034 372.655 79.3875 372.663 79.361C372.291 79.2614 368.822 79.4696 368.675 79.4872Z" fill="#447AF5"/>
<path d="M293.697 99.2439L294.077 99.4169L294.78 99.3921L294.387 99.2156L293.697 99.2439Z" fill="#447AF5"/>
<path d="M301.935 94.3417C301.469 94.3305 301.165 94.4053 301.27 94.4904C301.44 94.6498 302.608 94.7495 302.934 94.595C303.072 94.504 302.737 94.4284 302.587 94.4026C302.368 94.3722 302.158 94.3587 301.935 94.3417Z" fill="#447AF5"/>
<path d="M309.517 90.2439C309.007 90.2353 308.514 90.2736 308.598 90.3817C308.749 90.5642 310.459 90.7096 310.905 90.5305C311.006 90.4722 310.907 90.4172 310.668 90.3532C310.386 90.2918 309.944 90.2444 309.517 90.2439Z" fill="#447AF5"/>
<path d="M316.882 86.856C316.203 86.8445 315.759 86.9104 315.834 87.0016C315.971 87.1805 318.024 87.3183 318.54 87.1438C318.574 87.1243 318.654 87.089 318.459 87.0224C318.197 86.9381 317.535 86.8603 316.882 86.856Z" fill="#447AF5"/>
<path d="M324.018 84.1602C323.748 84.159 322.852 84.1605 322.737 84.2719C322.833 84.4968 325.497 84.5849 326.049 84.4342C326.066 84.4245 326.096 84.4184 326.1 84.4051C326.023 84.2139 324.428 84.1704 324.018 84.1602Z" fill="#447AF5"/>
<path d="M330.958 82.1511C330.575 82.148 329.675 82.1629 329.54 82.2406C329.634 82.4221 332.635 82.4725 333.207 82.3555C333.224 82.3458 333.254 82.3397 333.271 82.33C333.166 82.1883 331.411 82.1587 330.958 82.1511Z" fill="#447AF5"/>
<path d="M337.631 80.8115C337.191 80.8075 336.148 80.8265 336.007 80.8741C336.155 81.0132 339.524 81.0199 340.218 80.9217C340.235 80.912 340.265 80.9058 340.282 80.8961C340.15 80.8039 337.661 80.8054 337.631 80.8115Z" fill="#447AF5"/>
<path d="M344.103 80.1136C343.503 80.1235 342.91 80.1069 342.313 80.1601C342.552 80.2241 346.295 80.1605 347.002 80.1224C347.015 80.126 347.045 80.1198 347.045 80.1198C347.009 80.0959 346.916 80.071 344.103 80.1136Z" fill="#447AF5"/>
<path d="M289.48 84.7322L289.745 84.8033L290.228 84.8048L289.963 84.7337L289.48 84.7322Z" fill="#447AF5"/>
<path d="M296.743 82.5119L297.218 82.5965L298.098 82.6046L297.583 82.5093L296.743 82.5119Z" fill="#447AF5"/>
<path d="M304.537 80.9733C304.423 80.9714 303.9 80.9593 303.82 80.9946C303.872 81.0654 305.337 81.1167 305.631 81.0817C305.644 81.0852 305.648 81.072 305.661 81.0755C305.632 81.0251 304.959 80.9871 304.537 80.9733Z" fill="#447AF5"/>
<path d="M311.609 80.1668C311.299 80.1549 311 80.1032 310.686 80.1612C310.842 80.2172 312.737 80.2557 313.097 80.2384C313.111 80.242 313.114 80.2287 313.127 80.2323C313.078 80.2048 311.992 80.1699 311.609 80.1668Z" fill="#447AF5"/>
<path d="M230.816 371.283C230.19 371.286 229.819 371.556 230.091 371.814C230.406 372.126 231.272 372.13 231.637 371.83C231.898 371.544 231.399 371.283 230.816 371.283Z" fill="#447AF5"/>
<path d="M228.569 340.176L228.716 340.372L229.183 340.326L229.004 340.093L228.569 340.176Z" fill="#447AF5"/>
<path d="M240.986 327.434L241.282 327.812L242.054 327.692C242.058 327.678 242.048 327.661 242.052 327.648L241.784 327.32L240.986 327.434Z" fill="#447AF5"/>
</g>
</g>
</svg>
