<svg width="30" height="30" viewBox="0 0 30 30" fill="none" xmlns="http://www.w3.org/2000/svg">
<circle opacity="0.2" cx="15" cy="15" r="15" fill="#FC499F"/>
<g clip-path="url(#clip0_685_589)">
<path d="M10.948 19.9374C10.7028 19.9517 10.4617 19.8702 10.2754 19.7101C9.90819 19.3407 9.90819 18.744 10.2754 18.3745L18.3172 10.3327C18.6992 9.97531 19.2986 9.99518 19.656 10.3772C19.9792 10.7226 19.9981 11.2535 19.7001 11.621L11.611 19.7101C11.4272 19.8679 11.1899 19.9492 10.948 19.9374Z" fill="#050335"/>
<path d="M18.9805 19.9375C18.732 19.9364 18.4939 19.8378 18.3174 19.6628L10.2756 11.6209C9.93537 11.2236 9.98162 10.6257 10.379 10.2854C10.7336 9.98169 11.2566 9.98169 11.6112 10.2854L19.7003 18.3272C20.0822 18.6847 20.102 19.2841 19.7444 19.666C19.7302 19.6812 19.7155 19.6959 19.7003 19.7101C19.6023 19.7953 19.4879 19.8595 19.364 19.8986C19.2402 19.9377 19.1096 19.9509 18.9805 19.9375Z" fill="#050335"/>
</g>
<defs>
<clipPath id="clip0_685_589">
<rect width="10" height="10" fill="white" transform="translate(10 10)"/>
</clipPath>
</defs>
</svg>
