<svg width="12" height="12" viewBox="0 0 12 12" fill="none" xmlns="http://www.w3.org/2000/svg">
<path d="M11 0.5H1.00001C0.448734 0.5 0 0.9485 0 1.50001V8.50002C0 9.05152 0.448734 9.50002 1.00001 9.50002H4.50113C4.49062 9.89888 4.41445 10.5369 4.12842 10.8382C4.02345 10.9485 3.90333 11 3.75 11C3.71716 11 3.68464 11.0065 3.6543 11.019C3.62396 11.0316 3.59639 11.05 3.57317 11.0732C3.54995 11.0964 3.53154 11.124 3.51898 11.1543C3.50642 11.1847 3.49997 11.2172 3.49999 11.25C3.49997 11.2829 3.50642 11.3154 3.51898 11.3457C3.53154 11.3761 3.54995 11.4036 3.57317 11.4269C3.59639 11.4501 3.62396 11.4685 3.6543 11.4811C3.68464 11.4936 3.71716 11.5001 3.75 11.5H8.25C8.28284 11.5001 8.31536 11.4936 8.3457 11.4811C8.37604 11.4685 8.40361 11.4501 8.42683 11.4269C8.45005 11.4036 8.46846 11.3761 8.48102 11.3457C8.49358 11.3154 8.50003 11.2829 8.50001 11.25C8.50003 11.2172 8.49358 11.1847 8.48102 11.1543C8.46846 11.124 8.45005 11.0964 8.42683 11.0732C8.40361 11.05 8.37604 11.0316 8.3457 11.019C8.31536 11.0065 8.28284 11 8.25 11C8.09667 11 7.97655 10.9487 7.87207 10.8384C7.58674 10.5386 7.51008 9.8997 7.49918 9.50002H11C11.5513 9.50002 12 9.05155 12 8.50002V1.50001C12 0.9485 11.5513 0.5 11 0.5ZM6 9.00146C5.72363 9.00146 5.49853 8.77637 5.49853 8.49999C5.49853 8.22362 5.72363 7.99852 6 7.99852C6.27637 7.99852 6.50147 8.22362 6.50147 8.49999C6.50147 8.77637 6.27637 9.00146 6 9.00146ZM1.00001 7.50001V1.50001H11L11.0004 7.50001H1.00001Z" fill="#93A0CE"/>
</svg>
