<svg width="16" height="14" viewBox="0 0 16 14" fill="none" xmlns="http://www.w3.org/2000/svg">
<path d="M14.7166 0.134766H1.28216C1.00839 0.135188 0.745969 0.244188 0.552469 0.437853C0.358968 0.631517 0.25019 0.89403 0.25 1.1678V9.94986C0.25019 10.2236 0.358968 10.4861 0.552469 10.6798C0.745969 10.8735 1.00839 10.9825 1.28216 10.9829H6.063C5.94044 11.8126 5.49356 12.3733 4.9515 12.9279H3.51975C3.39543 12.9279 3.2762 12.9773 3.18829 13.0652C3.10039 13.1531 3.051 13.2723 3.051 13.3966C3.051 13.521 3.10039 13.6402 3.18829 13.7281C3.2762 13.816 3.39543 13.8654 3.51975 13.8654H12.4791C12.6034 13.8654 12.7227 13.816 12.8106 13.7281C12.8985 13.6402 12.9479 13.521 12.9479 13.3966C12.9479 13.2723 12.8985 13.1531 12.8106 13.0652C12.7227 12.9773 12.6034 12.9279 12.4791 12.9279H11.0481C10.5061 12.3733 10.0592 11.8126 9.93666 10.9829H14.7166C14.9905 10.9826 15.2531 10.8736 15.4467 10.68C15.6404 10.4863 15.7493 10.2237 15.7496 9.94986V1.1678C15.7493 0.893914 15.6404 0.631336 15.4467 0.437671C15.2531 0.244007 14.9905 0.135072 14.7166 0.134766ZM1.28222 1.07227H14.7166C14.7418 1.07261 14.7659 1.08279 14.7838 1.10063C14.8016 1.11847 14.8118 1.14257 14.8121 1.1678V8.22858H1.1875V1.1678C1.18772 1.14268 1.19773 1.11864 1.21541 1.10079C1.23309 1.08295 1.25704 1.07271 1.28216 1.07227H1.28222Z" fill="#93A0CE"/>
</svg>
