<svg width="12" height="14" viewBox="0 0 12 14" fill="none" xmlns="http://www.w3.org/2000/svg">
<path d="M11.0382 3.73494C10.9315 3.50574 10.7865 3.29639 10.6095 3.11588L8.57163 1.078C8.15925 0.671139 7.60435 0.441327 7.02506 0.4375H2.9375C2.35755 0.438195 1.80156 0.668886 1.39147 1.07897C0.981386 1.48906 0.750695 2.04505 0.75 2.625V11.375C0.750695 11.9549 0.981386 12.5109 1.39147 12.921C1.80156 13.3311 2.35755 13.5618 2.9375 13.5625H9.0625C9.64245 13.5618 10.1984 13.3311 10.6085 12.921C11.0186 12.5109 11.2493 11.9549 11.25 11.375V4.66244C11.2479 4.34153 11.1756 4.02498 11.0382 3.73494ZM9.75638 3.5H8.625C8.50897 3.5 8.39769 3.45391 8.31564 3.37186C8.23359 3.28981 8.1875 3.17853 8.1875 3.0625V1.93113L9.75638 3.5ZM10.375 11.375C10.375 11.7231 10.2367 12.0569 9.99058 12.3031C9.74444 12.5492 9.4106 12.6875 9.0625 12.6875H2.9375C2.5894 12.6875 2.25556 12.5492 2.00942 12.3031C1.76328 12.0569 1.625 11.7231 1.625 11.375V2.625C1.625 2.2769 1.76328 1.94306 2.00942 1.69692C2.25556 1.45078 2.5894 1.3125 2.9375 1.3125H7.02506C7.12188 1.31336 7.2183 1.3251 7.3125 1.3475V3.0625C7.3125 3.4106 7.45078 3.74444 7.69692 3.99058C7.94306 4.23672 8.2769 4.375 8.625 4.375H10.34C10.3624 4.4692 10.3741 4.56562 10.375 4.66244V11.375Z" fill="#93A0CE"/>
<path d="M7.75 7H6.4375V5.6875C6.4375 5.57147 6.39141 5.46019 6.30936 5.37814C6.22731 5.29609 6.11603 5.25 6 5.25C5.88397 5.25 5.77269 5.29609 5.69064 5.37814C5.60859 5.46019 5.5625 5.57147 5.5625 5.6875V7H4.25C4.13397 7 4.02269 7.04609 3.94064 7.12814C3.85859 7.21019 3.8125 7.32147 3.8125 7.4375C3.8125 7.55353 3.85859 7.66481 3.94064 7.74686C4.02269 7.82891 4.13397 7.875 4.25 7.875H5.5625V9.1875C5.5625 9.30353 5.60859 9.41481 5.69064 9.49686C5.77269 9.57891 5.88397 9.625 6 9.625C6.11603 9.625 6.22731 9.57891 6.30936 9.49686C6.39141 9.41481 6.4375 9.30353 6.4375 9.1875V7.875H7.75C7.86603 7.875 7.97731 7.82891 8.05936 7.74686C8.14141 7.66481 8.1875 7.55353 8.1875 7.4375C8.1875 7.32147 8.14141 7.21019 8.05936 7.12814C7.97731 7.04609 7.86603 7 7.75 7Z" fill="#93A0CE"/>
</svg>
