<svg width="94" height="88" viewBox="0 0 94 88" fill="none" xmlns="http://www.w3.org/2000/svg">
<path d="M64.1891 0.464173C71.2037 2.13502 77.1228 7.83324 80.3521 14.2798C83.3839 20.332 79.0644 27.7716 81.1021 34.2267C83.4937 41.803 92.1523 46.5021 93.0169 54.3996C93.9947 63.3322 93.2287 74.4965 86.1109 79.9826C78.8804 85.5555 68.287 81.2803 59.1937 80.4692C52.2639 79.851 46.1333 76.5434 39.2159 75.7995C29.9357 74.8016 17.9713 82.2692 11.6952 75.3615C5.44886 68.4865 15.9152 57.1638 14.0224 48.0704C12.1247 38.9529 -4.10738 31.698 0.983832 23.8996C6.8781 14.8711 22.6014 24.0037 32.5106 19.7514C38.1493 17.3317 38.4884 8.74723 43.7293 5.55636C49.8361 1.8383 57.2339 -1.19253 64.1891 0.464173Z" fill="#EFF1FF"/>
<path fill-rule="evenodd" clip-rule="evenodd" d="M45.5999 10.5603C40.6956 10.5603 36.7199 14.536 36.7199 19.4403V49.2003C36.7199 50.5257 35.6454 51.6003 34.3199 51.6003C32.9944 51.6003 31.9199 50.5257 31.9199 49.2003V19.4403C31.9199 11.885 38.0447 5.76025 45.5999 5.76025C53.1552 5.76025 59.2799 11.885 59.2799 19.4403V20.6439C59.2799 21.9694 58.2054 23.0439 56.8799 23.0439C55.5544 23.0439 54.4799 21.9694 54.4799 20.6439V19.4403C54.4799 14.536 50.5042 10.5603 45.5999 10.5603Z" fill="url(#paint0_linear_238_683)"/>
<mask id="mask0_238_683" style="mask-type:alpha" maskUnits="userSpaceOnUse" x="31" y="5" width="29" height="47">
<path fill-rule="evenodd" clip-rule="evenodd" d="M45.5999 10.5603C40.6956 10.5603 36.7199 14.536 36.7199 19.4403V49.2003C36.7199 50.5257 35.6454 51.6003 34.3199 51.6003C32.9944 51.6003 31.9199 50.5257 31.9199 49.2003V19.4403C31.9199 11.885 38.0447 5.76025 45.5999 5.76025C53.1552 5.76025 59.2799 11.885 59.2799 19.4403V20.6439C59.2799 21.9694 58.2054 23.0439 56.8799 23.0439C55.5544 23.0439 54.4799 21.9694 54.4799 20.6439V19.4403C54.4799 14.536 50.5042 10.5603 45.5999 10.5603Z" fill="#4D94FF"/>
</mask>
<g mask="url(#mask0_238_683)">
<path d="M37.2042 14.6402C37.2042 10.0355 41.9388 6.2494 48.0008 5.80401C48.6618 5.75545 49.2 5.22294 49.2 4.5602V2.1602C49.2 1.49746 48.6613 0.957182 47.9993 0.98861C38.3527 1.44657 30.72 7.38355 30.72 14.6402V44.4002C30.72 45.7257 32.1715 46.8002 33.9621 46.8002C35.7526 46.8002 37.2042 45.7257 37.2042 44.4002V14.6402Z" fill="url(#paint1_linear_238_683)"/>
</g>
<path d="M69.84 57.4799C69.84 70.801 59.0411 81.5999 45.72 81.5999C32.3989 81.5999 21.6 70.801 21.6 57.4799C21.6 44.1588 32.3989 33.3599 45.72 33.3599C59.0411 33.3599 69.84 44.1588 69.84 57.4799Z" fill="url(#paint2_linear_238_683)"/>
<mask id="mask1_238_683" style="mask-type:alpha" maskUnits="userSpaceOnUse" x="21" y="33" width="49" height="49">
<path d="M69.84 57.4799C69.84 70.801 59.0411 81.5999 45.72 81.5999C32.3989 81.5999 21.6 70.801 21.6 57.4799C21.6 44.1588 32.3989 33.3599 45.72 33.3599C59.0411 33.3599 69.84 44.1588 69.84 57.4799Z" fill="url(#paint3_linear_238_683)"/>
</mask>
<g mask="url(#mask1_238_683)">
<path d="M70.7999 56.7596C70.7999 70.0808 60.001 80.8797 46.6799 80.8797C33.3588 80.8797 22.5599 70.0808 22.5599 56.7596C22.5599 43.4385 33.3588 32.6396 46.6799 32.6396C60.001 32.6396 70.7999 43.4385 70.7999 56.7596Z" fill="#4383FF"/>
<path d="M72.48 56.0399C72.48 69.361 61.6811 80.1599 48.36 80.1599C35.0389 80.1599 24.24 69.361 24.24 56.0399C24.24 42.7188 35.0389 31.9199 48.36 31.9199C61.6811 31.9199 72.48 42.7188 72.48 56.0399Z" fill="url(#paint4_linear_238_683)"/>
</g>
<path d="M49.632 58.0217C49.632 57.577 49.883 57.176 50.2519 56.9278C52.0783 55.6989 53.28 53.6119 53.28 51.2441C53.28 47.4641 50.2176 44.3999 46.44 44.3999C42.6623 44.3999 39.6 47.4641 39.6 51.2441C39.6 53.5015 40.6922 55.5037 42.3768 56.7504C42.7166 57.0018 42.944 57.3869 42.944 57.8097V69.3599C42.944 70.0226 43.4812 70.5599 44.144 70.5599H48.432C49.0947 70.5599 49.632 70.0226 49.632 69.3599V58.0217Z" fill="url(#paint5_linear_238_683)"/>
<g filter="url(#filter0_b_238_683)">
<path d="M55.2 58.8C55.2 56.149 57.349 54 60 54H84C86.6509 54 88.7999 56.149 88.7999 58.8V82.8C88.7999 85.451 86.6509 87.6 84 87.6H60C57.349 87.6 55.2 85.451 55.2 82.8V58.8Z" fill="#B9CDFF" fill-opacity="0.5"/>
</g>
<path d="M71.5696 59.6724C71.7456 59.3156 72.2544 59.3156 72.4304 59.6724L75.415 65.7198C75.485 65.8615 75.6201 65.9597 75.7764 65.9824L82.4502 66.9521C82.8439 67.0093 83.0011 67.4932 82.7162 67.7709L77.8871 72.4782C77.7739 72.5884 77.7223 72.7473 77.749 72.903L78.889 79.5498C78.9563 79.9419 78.5447 80.241 78.1926 80.0558L72.2234 76.9176C72.0835 76.8441 71.9165 76.8441 71.7766 76.9176L65.8075 80.0558C65.4553 80.2409 65.0437 79.9419 65.111 79.5498L66.251 72.903C66.2777 72.7473 66.2261 72.5884 66.113 72.4782L61.2838 67.7709C60.9989 67.4932 61.1561 67.0093 61.5498 66.9521L68.2236 65.9824C68.3799 65.9597 68.5151 65.8615 68.585 65.7198L71.5696 59.6724Z" fill="#4D7FFE"/>
<defs>
<filter id="filter0_b_238_683" x="50.2" y="49" width="43.6" height="43.6001" filterUnits="userSpaceOnUse" color-interpolation-filters="sRGB">
<feFlood flood-opacity="0" result="BackgroundImageFix"/>
<feGaussianBlur in="BackgroundImageFix" stdDeviation="2.5"/>
<feComposite in2="SourceAlpha" operator="in" result="effect1_backgroundBlur_238_683"/>
<feBlend mode="normal" in="SourceGraphic" in2="effect1_backgroundBlur_238_683" result="shape"/>
</filter>
<linearGradient id="paint0_linear_238_683" x1="55.4399" y1="29.5203" x2="29.2799" y2="23.0403" gradientUnits="userSpaceOnUse">
<stop stop-color="#93B0FF"/>
<stop offset="1" stop-color="#5694FF"/>
</linearGradient>
<linearGradient id="paint1_linear_238_683" x1="32.6652" y1="39.2402" x2="37.484" y2="11.1138" gradientUnits="userSpaceOnUse">
<stop stop-color="#70B5FF"/>
<stop offset="1" stop-color="#ADCCFF"/>
</linearGradient>
<linearGradient id="paint2_linear_238_683" x1="45.72" y1="33.3599" x2="49.56" y2="84.8399" gradientUnits="userSpaceOnUse">
<stop stop-color="#759CFF"/>
<stop offset="1" stop-color="#70BAFF"/>
</linearGradient>
<linearGradient id="paint3_linear_238_683" x1="45.72" y1="33.3599" x2="45.72" y2="81.5999" gradientUnits="userSpaceOnUse">
<stop stop-color="#AAB8FF"/>
<stop offset="1" stop-color="#61A0FF"/>
</linearGradient>
<linearGradient id="paint4_linear_238_683" x1="48.36" y1="31.9199" x2="48.36" y2="80.1599" gradientUnits="userSpaceOnUse">
<stop stop-color="#AAB8FF"/>
<stop offset="1" stop-color="#61A0FF"/>
</linearGradient>
<linearGradient id="paint5_linear_238_683" x1="39.6" y1="59.6092" x2="51.155" y2="65.6871" gradientUnits="userSpaceOnUse">
<stop stop-color="#0048FF"/>
<stop offset="1" stop-color="#5081FD"/>
</linearGradient>
</defs>
</svg>
