<svg width="16" height="16" viewBox="0 0 16 16" fill="none" xmlns="http://www.w3.org/2000/svg">
<path d="M8 16C12.4183 16 16 12.4183 16 8C16 3.58172 12.4183 0 8 0C3.58172 0 0 3.58172 0 8C0 12.4183 3.58172 16 8 16Z" fill="#00BA00"/>
<path fill-rule="evenodd" clip-rule="evenodd" d="M5.4992 11.9057L2.58266 8.76235C2.38918 8.55504 2.28583 8.27944 2.29527 7.99603C2.30472 7.71261 2.4262 7.44451 2.63306 7.25054C2.84118 7.05785 3.11725 6.95561 3.40069 6.96624C3.68412 6.97686 3.95175 7.0995 4.14487 7.30723L6.39998 9.71983L9.97164 6.38125C10.0035 6.35194 10.0372 6.32459 10.0724 6.29936L11.748 4.73085C11.9553 4.53737 12.2309 4.43402 12.5143 4.44347C12.7978 4.45291 13.0659 4.57439 13.2598 4.78125C13.4533 4.98856 13.5567 5.26416 13.5472 5.54757C13.5378 5.83099 13.4163 6.09909 13.2094 6.29306L8.07557 11.0805L6.2929 12.7372L5.5055 11.8931L5.4992 11.9057Z" fill="white"/>
</svg>
