<svg width="74" height="74" viewBox="0 0 74 74" fill="none" xmlns="http://www.w3.org/2000/svg">
<rect x="0.612372" y="15.8829" width="59" height="59" rx="16.5" transform="rotate(-15 0.612372 15.8829)" stroke="url(#paint0_linear_684_596)"/>
<circle cx="5.18066" cy="20.4751" r="5" fill="url(#paint1_linear_684_596)"/>
<path d="M40.75 23.8748H41.1625C41.3948 23.8754 41.6187 23.9623 41.7906 24.1186L47.0031 28.8061C47.1002 28.8937 47.1779 29.0007 47.2312 29.1202C47.2845 29.2397 47.3122 29.369 47.3125 29.4998H41.6875C41.4389 29.4998 41.2004 29.401 41.0246 29.2252C40.8488 29.0494 40.75 28.811 40.75 28.5623V23.8748ZM47.3125 31.3748V47.3123C47.2808 48.0841 46.946 48.8122 46.3809 49.3387C45.8157 49.8652 45.0658 50.1477 44.2938 50.1248H29.7063C28.9342 50.1477 28.1843 49.8652 27.6191 49.3387C27.054 48.8122 26.7192 48.0841 26.6875 47.3123V26.6873C26.7192 25.9156 27.054 25.1875 27.6191 24.6609C28.1843 24.1344 28.9342 23.852 29.7063 23.8748H38.875V28.5623C38.875 29.3082 39.1713 30.0236 39.6988 30.5511C40.2262 31.0785 40.9416 31.3748 41.6875 31.3748H47.3125ZM41.6875 44.4998C41.6875 44.2512 41.5887 44.0127 41.4129 43.8369C41.2371 43.6611 40.9986 43.5623 40.75 43.5623H33.25C33.0014 43.5623 32.7629 43.6611 32.5871 43.8369C32.4113 44.0127 32.3125 44.2512 32.3125 44.4998C32.3125 44.7485 32.4113 44.9869 32.5871 45.1627C32.7629 45.3386 33.0014 45.4373 33.25 45.4373H40.75C40.9986 45.4373 41.2371 45.3386 41.4129 45.1627C41.5887 44.9869 41.6875 44.7485 41.6875 44.4998ZM41.6875 39.8123C41.6875 39.5637 41.5887 39.3252 41.4129 39.1494C41.2371 38.9736 40.9986 38.8748 40.75 38.8748H33.25C33.0014 38.8748 32.7629 38.9736 32.5871 39.1494C32.4113 39.3252 32.3125 39.5637 32.3125 39.8123C32.3125 40.061 32.4113 40.2994 32.5871 40.4752C32.7629 40.6511 33.0014 40.7498 33.25 40.7498H40.75C40.9986 40.7498 41.2371 40.6511 41.4129 40.4752C41.5887 40.2994 41.6875 40.061 41.6875 39.8123ZM41.6875 35.1248C41.6875 34.8762 41.5887 34.6377 41.4129 34.4619C41.2371 34.2861 40.9986 34.1873 40.75 34.1873H33.25C33.0014 34.1873 32.7629 34.2861 32.5871 34.4619C32.4113 34.6377 32.3125 34.8762 32.3125 35.1248C32.3125 35.3735 32.4113 35.6119 32.5871 35.7877C32.7629 35.9636 33.0014 36.0623 33.25 36.0623H40.75C40.9986 36.0623 41.2371 35.9636 41.4129 35.7877C41.5887 35.6119 41.6875 35.3735 41.6875 35.1248Z" fill="url(#paint2_linear_684_596)"/>
<defs>
<linearGradient id="paint0_linear_684_596" x1="1.31238e-06" y1="16.3214" x2="66.4063" y2="67.1615" gradientUnits="userSpaceOnUse">
<stop stop-color="#1D0BCF"/>
<stop offset="1" stop-color="#050335"/>
</linearGradient>
<linearGradient id="paint1_linear_684_596" x1="0.180664" y1="20.4751" x2="10.1807" y2="20.4751" gradientUnits="userSpaceOnUse">
<stop stop-color="#447AF5"/>
<stop offset="1" stop-color="#050335"/>
</linearGradient>
<linearGradient id="paint2_linear_684_596" x1="27" y1="25" x2="45" y2="49.5" gradientUnits="userSpaceOnUse">
<stop stop-color="#1D0BCF"/>
<stop offset="1" stop-color="#050335"/>
</linearGradient>
</defs>
</svg>
