<svg width="74" height="74" viewBox="0 0 74 74" fill="none" xmlns="http://www.w3.org/2000/svg">
<rect x="0.612372" y="15.8829" width="59" height="59" rx="16.5" transform="rotate(-15 0.612372 15.8829)" stroke="url(#paint0_linear_684_593)"/>
<circle cx="5.18066" cy="20.4751" r="5" fill="url(#paint1_linear_684_593)"/>
<path d="M47.3125 26.6875H26.6875C25.9423 26.6897 25.2282 26.9868 24.7012 27.5137C24.1743 28.0407 23.8772 28.7548 23.875 29.5V44.5C23.8772 45.2452 24.1743 45.9593 24.7012 46.4863C25.2282 47.0132 25.9423 47.3103 26.6875 47.3125H47.3125C48.0577 47.3103 48.7718 47.0132 49.2988 46.4863C49.8257 45.9593 50.1228 45.2452 50.125 44.5V29.5C50.1228 28.7548 49.8257 28.0407 49.2988 27.5137C48.7718 26.9868 48.0577 26.6897 47.3125 26.6875ZM32.3125 42.625H29.5C29.2514 42.625 29.0129 42.5262 28.8371 42.3504C28.6613 42.1746 28.5625 41.9361 28.5625 41.6875C28.5625 41.4389 28.6613 41.2004 28.8371 41.0246C29.0129 40.8488 29.2514 40.75 29.5 40.75H32.3125C32.5611 40.75 32.7996 40.8488 32.9754 41.0246C33.1512 41.2004 33.25 41.4389 33.25 41.6875C33.25 41.9361 33.1512 42.1746 32.9754 42.3504C32.7996 42.5262 32.5611 42.625 32.3125 42.625ZM34.1875 35.125C34.186 35.6218 33.988 36.0979 33.6367 36.4492C33.2854 36.8005 32.8093 36.9985 32.3125 37H29.5C29.0032 36.9985 28.5271 36.8005 28.1758 36.4492C27.8245 36.0979 27.6265 35.6218 27.625 35.125V32.3125C27.6265 31.8157 27.8245 31.3396 28.1758 30.9883C28.5271 30.637 29.0032 30.439 29.5 30.4375H32.3125C32.8093 30.439 33.2854 30.637 33.6367 30.9883C33.988 31.3396 34.186 31.8157 34.1875 32.3125V35.125ZM38.875 42.625H36.0625C35.8139 42.625 35.5754 42.5262 35.3996 42.3504C35.2238 42.1746 35.125 41.9361 35.125 41.6875C35.125 41.4389 35.2238 41.2004 35.3996 41.0246C35.5754 40.8488 35.8139 40.75 36.0625 40.75H38.875C39.1236 40.75 39.3621 40.8488 39.5379 41.0246C39.7137 41.2004 39.8125 41.4389 39.8125 41.6875C39.8125 41.9361 39.7137 42.1746 39.5379 42.3504C39.3621 42.5262 39.1236 42.625 38.875 42.625ZM45.4375 42.625H42.625C42.3764 42.625 42.1379 42.5262 41.9621 42.3504C41.7863 42.1746 41.6875 41.9361 41.6875 41.6875C41.6875 41.4389 41.7863 41.2004 41.9621 41.0246C42.1379 40.8488 42.3764 40.75 42.625 40.75H45.4375C45.6861 40.75 45.9246 40.8488 46.1004 41.0246C46.2762 41.2004 46.375 41.4389 46.375 41.6875C46.375 41.9361 46.2762 42.1746 46.1004 42.3504C45.9246 42.5262 45.6861 42.625 45.4375 42.625ZM45.4375 32.3125H42.625C42.3764 32.3125 42.1379 32.2137 41.9621 32.0379C41.7863 31.8621 41.6875 31.6236 41.6875 31.375C41.6875 31.1264 41.7863 30.8879 41.9621 30.7121C42.1379 30.5363 42.3764 30.4375 42.625 30.4375H45.4375C45.6861 30.4375 45.9246 30.5363 46.1004 30.7121C46.2762 30.8879 46.375 31.1264 46.375 31.375C46.375 31.6236 46.2762 31.8621 46.1004 32.0379C45.9246 32.2137 45.6861 32.3125 45.4375 32.3125ZM29.5 32.3125H32.3125V35.125H29.5V32.3125Z" fill="url(#paint2_linear_684_593)"/>
<defs>
<linearGradient id="paint0_linear_684_593" x1="1.31238e-06" y1="16.3214" x2="66.4063" y2="67.1615" gradientUnits="userSpaceOnUse">
<stop stop-color="#1D0BCF"/>
<stop offset="1" stop-color="#050335"/>
</linearGradient>
<linearGradient id="paint1_linear_684_593" x1="0.180664" y1="20.4751" x2="10.1807" y2="20.4751" gradientUnits="userSpaceOnUse">
<stop stop-color="#1D0BCF"/>
<stop offset="1" stop-color="#050335"/>
</linearGradient>
<linearGradient id="paint2_linear_684_593" x1="24" y1="26.5" x2="49" y2="47" gradientUnits="userSpaceOnUse">
<stop stop-color="#1D0BCF"/>
<stop offset="1" stop-color="#050335"/>
</linearGradient>
</defs>
</svg>
