<svg width="74" height="74" viewBox="0 0 74 74" fill="none" xmlns="http://www.w3.org/2000/svg">
<rect x="0.612372" y="15.8829" width="59" height="59" rx="16.5" transform="rotate(-15 0.612372 15.8829)" stroke="url(#paint0_linear_684_600)"/>
<circle cx="5.18066" cy="20.4751" r="5" fill="url(#paint1_linear_684_600)"/>
<g clip-path="url(#clip0_684_600)">
<path d="M35.2121 40.9309C34.64 40.9309 34.1021 40.7079 33.6967 40.3033C30.4956 37.1018 30.4956 31.8928 33.6967 28.6915L37.9869 24.4013C39.5351 22.8528 41.5969 22 43.7925 22C45.9882 22 48.05 22.8528 49.5981 24.4013C52.7992 27.6026 52.7992 32.8117 49.5981 36.0129L46.7382 38.873C46.3336 39.2778 45.7956 39.5008 45.2228 39.501C44.6507 39.501 44.1128 39.278 43.7074 38.8734C43.3028 38.4685 43.0795 37.9302 43.0795 37.3576C43.0795 36.7851 43.3027 36.2468 43.7074 35.842L46.5673 32.9819C48.0974 31.4519 48.0974 28.9625 46.5673 27.4325C45.8277 26.6929 44.8419 26.2855 43.7925 26.2855C42.7432 26.2855 41.7573 26.6929 41.0178 27.4325L36.7276 31.7227C35.1975 33.2526 35.1975 35.742 36.7276 37.2719C37.5634 38.1076 37.5634 39.4674 36.7276 40.3031C36.3222 40.708 35.7842 40.9309 35.2121 40.9309Z" fill="url(#paint2_linear_684_600)"/>
<path d="M30.2069 52C28.0112 52 25.9495 51.1473 24.4013 49.5987C21.2002 46.3974 21.2002 41.1884 24.4013 37.9871L26.5468 35.8418C26.9514 35.4372 27.4901 35.2142 28.0622 35.2142C28.6343 35.2142 29.1729 35.4373 29.5776 35.8422C29.9822 36.2468 30.2055 36.7851 30.2055 37.3576C30.2055 37.9302 29.9823 38.4685 29.5776 38.8733L27.4321 41.0185C25.9021 42.5482 25.9021 45.0376 27.4321 46.5675C28.1717 47.3071 29.1575 47.7146 30.2069 47.7146C31.2563 47.7146 32.2421 47.3073 32.9817 46.5675L37.2718 42.2773C38.8019 40.7475 38.8019 38.258 37.2718 36.7281C36.8672 36.3233 36.6439 35.785 36.6439 35.2125C36.6439 34.6401 36.8671 34.1018 37.2718 33.6969C37.6765 33.2921 38.2151 33.0693 38.7872 33.0693C39.3594 33.0693 39.898 33.2921 40.3027 33.6968C43.5037 36.8982 43.5037 42.1072 40.3027 45.3085L36.0125 49.5987C34.4643 51.1473 32.4026 52 30.2069 52Z" fill="url(#paint3_linear_684_600)"/>
</g>
<defs>
<linearGradient id="paint0_linear_684_600" x1="1.31238e-06" y1="16.3214" x2="66.4063" y2="67.1615" gradientUnits="userSpaceOnUse">
<stop stop-color="#1D0BCF"/>
<stop offset="1" stop-color="#050335"/>
</linearGradient>
<linearGradient id="paint1_linear_684_600" x1="0.180664" y1="20.4751" x2="10.1807" y2="20.4751" gradientUnits="userSpaceOnUse">
<stop stop-color="#1D0BCF"/>
<stop offset="1" stop-color="#050335"/>
</linearGradient>
<linearGradient id="paint2_linear_684_600" x1="34.7462" y1="23.5776" x2="44.6642" y2="42.6418" gradientUnits="userSpaceOnUse">
<stop stop-color="#1D0BCF"/>
<stop offset="1" stop-color="#050335"/>
</linearGradient>
<linearGradient id="paint3_linear_684_600" x1="25.4508" y1="34.6469" x2="35.3686" y2="53.711" gradientUnits="userSpaceOnUse">
<stop stop-color="#1D0BCF"/>
<stop offset="1" stop-color="#050335"/>
</linearGradient>
<clipPath id="clip0_684_600">
<rect width="30" height="30" fill="white" transform="translate(22 22)"/>
</clipPath>
</defs>
</svg>
