<svg width="74" height="74" viewBox="0 0 74 74" fill="none" xmlns="http://www.w3.org/2000/svg">
<rect x="0.612372" y="15.8829" width="59" height="59" rx="16.5" transform="rotate(-15 0.612372 15.8829)" stroke="url(#paint0_linear_684_598)"/>
<circle cx="5.18066" cy="20.4751" r="5" fill="url(#paint1_linear_684_598)"/>
<g clip-path="url(#clip0_684_598)">
<path d="M34.5007 51.9999C36.7645 51.9999 38.6583 50.3861 39.0932 48.2499H29.9082C30.3433 50.3861 32.237 51.9999 34.5007 51.9999ZM43.2657 36.9987C43.2607 36.9987 43.2557 36.9999 43.2506 36.9999C38.4269 36.9999 34.5007 33.0748 34.5007 28.25C34.5007 26.9236 34.8058 25.6698 35.337 24.5424C35.0619 24.5162 34.7831 24.5 34.5007 24.5C29.6683 24.5 25.7508 28.4173 25.7508 33.2499V36.7349C25.7508 39.2086 24.667 41.5437 22.7657 43.1511C22.1319 43.6925 21.8507 44.5548 22.0781 45.3962C22.3431 46.3749 23.3106 47 24.3258 47H44.6694C45.7344 47 46.7382 46.3099 46.9543 45.2662C47.1219 44.4587 46.8344 43.6524 46.2081 43.1262C44.3906 41.6025 43.3394 39.3636 43.2657 36.9987Z" fill="url(#paint2_linear_684_598)"/>
<path d="M49.5009 28.2501C49.5009 31.7018 46.7028 34.4999 43.2508 34.4999C39.7991 34.4999 37.001 31.7018 37.001 28.2501C37.001 24.7983 39.7991 22 43.2508 22C46.7028 22 49.5009 24.7983 49.5009 28.2501Z" fill="url(#paint3_linear_684_598)"/>
</g>
<defs>
<linearGradient id="paint0_linear_684_598" x1="1.31238e-06" y1="16.3214" x2="66.4063" y2="67.1615" gradientUnits="userSpaceOnUse">
<stop stop-color="#1D0BCF"/>
<stop offset="1" stop-color="#050335"/>
</linearGradient>
<linearGradient id="paint1_linear_684_598" x1="0.180664" y1="20.4751" x2="10.1807" y2="20.4751" gradientUnits="userSpaceOnUse">
<stop stop-color="#1D0BCF"/>
<stop offset="1" stop-color="#050335"/>
</linearGradient>
<linearGradient id="paint2_linear_684_598" x1="24.2728" y1="25.875" x2="43.5641" y2="50.9294" gradientUnits="userSpaceOnUse">
<stop stop-color="#1D0BCF"/>
<stop offset="1" stop-color="#050335"/>
</linearGradient>
<linearGradient id="paint3_linear_684_598" x1="38.1373" y1="22.625" x2="46.6595" y2="34.7993" gradientUnits="userSpaceOnUse">
<stop stop-color="#1D0BCF"/>
<stop offset="1" stop-color="#050335"/>
</linearGradient>
<clipPath id="clip0_684_598">
<rect width="30" height="30" fill="white" transform="translate(22 22)"/>
</clipPath>
</defs>
</svg>
