<svg width="74" height="74" viewBox="0 0 74 74" fill="none" xmlns="http://www.w3.org/2000/svg">
<rect x="0.612372" y="15.8829" width="59" height="59" rx="16.5" transform="rotate(-15 0.612372 15.8829)" stroke="url(#paint0_linear_684_597)"/>
<circle cx="5.18066" cy="20.4751" r="5" fill="url(#paint1_linear_684_597)"/>
<path d="M29.2476 32.3911C29.3807 32.391 29.5109 32.3529 29.623 32.2813C29.7351 32.2097 29.8245 32.1076 29.8805 31.9869C29.9365 31.8662 29.9569 31.7321 29.9392 31.6002C29.9215 31.4684 29.8666 31.3443 29.7808 31.2426C29.0553 30.3819 28.6573 29.2925 28.6571 28.1668C28.6571 25.5363 30.7972 23.3963 33.4277 23.3963C36.0581 23.3963 38.1982 25.5363 38.1982 28.1668C38.1982 28.9008 38.0362 29.6043 37.7169 30.2582C37.6766 30.3405 37.653 30.43 37.6473 30.5215C37.6416 30.613 37.654 30.7047 37.6838 30.7914C37.7136 30.8781 37.7602 30.9581 37.8209 31.0268C37.8816 31.0955 37.9553 31.1516 38.0376 31.1918C38.12 31.2321 38.2095 31.2558 38.301 31.2615C38.3925 31.2672 38.4843 31.2548 38.571 31.225C38.6577 31.1952 38.7377 31.1486 38.8064 31.0878C38.875 31.0271 38.9311 30.9534 38.9713 30.871C39.3848 30.0246 39.5944 29.1149 39.5944 28.1668C39.5944 24.7663 36.828 22 33.4275 22C30.0271 22 27.2607 24.7663 27.2607 28.1668C27.2607 29.6212 27.7768 31.0334 28.7137 32.1432C28.7792 32.221 28.861 32.2835 28.9532 32.3263C29.0454 32.3691 29.1459 32.3912 29.2476 32.3911Z" fill="url(#paint2_linear_684_597)"/>
<path d="M46.5666 38.4952C46.1168 35.8353 44.2016 35.4738 43.3766 35.444C43.2618 35.4398 43.1498 35.4077 43.0502 35.3504C42.9506 35.2932 42.8664 35.2125 42.8051 35.1154C42.1806 34.1315 41.3338 33.8726 40.6161 33.8726C40.2875 33.8725 39.9861 33.9267 39.7452 33.9905C39.6753 34.0089 39.6034 34.0182 39.5312 34.0183C39.2778 34.0183 39.0335 33.9026 38.881 33.6912C38.2667 32.8401 37.4649 32.6099 36.7775 32.6099C36.5937 32.6099 36.418 32.6265 36.2564 32.6518C36.2141 32.6586 36.1713 32.6619 36.1284 32.6619C35.6886 32.6619 35.3175 32.3047 35.3169 31.849L35.3111 26.9287C35.3095 25.6573 34.356 25.022 33.4024 25.022C32.4471 25.022 31.4917 25.6595 31.4933 26.9333L31.5059 37.4176C31.5062 37.5773 31.4593 37.7336 31.371 37.8667C31.2827 37.9998 31.1569 38.1038 31.0096 38.1655C27.2233 39.7482 31.8989 46.8478 32.7363 48.0645C32.8179 48.183 32.8665 48.3211 32.8772 48.4646L33.0819 51.2176C33.1138 51.6423 33.4677 52 33.8937 52H33.8947L43.0429 51.9594C43.4512 51.9588 43.7958 51.6415 43.849 51.2367L44.2216 48.3915C44.2378 48.2702 44.2805 48.1539 44.3465 48.0509C46.7914 44.272 46.9835 40.9606 46.5666 38.4952Z" fill="url(#paint3_linear_684_597)"/>
<defs>
<linearGradient id="paint0_linear_684_597" x1="1.31238e-06" y1="16.3214" x2="66.4063" y2="67.1615" gradientUnits="userSpaceOnUse">
<stop stop-color="#1D0BCF"/>
<stop offset="1" stop-color="#050335"/>
</linearGradient>
<linearGradient id="paint1_linear_684_597" x1="0.180664" y1="20.4751" x2="10.1807" y2="20.4751" gradientUnits="userSpaceOnUse">
<stop stop-color="#1D0BCF"/>
<stop offset="1" stop-color="#050335"/>
</linearGradient>
<linearGradient id="paint2_linear_684_597" x1="26.7791" y1="22.6927" x2="30.8001" y2="34.3672" gradientUnits="userSpaceOnUse">
<stop stop-color="#1D0BCF"/>
<stop offset="1" stop-color="#050335"/>
</linearGradient>
<linearGradient id="paint3_linear_684_597" x1="28.878" y1="26.8205" x2="44.2882" y2="50.8394" gradientUnits="userSpaceOnUse">
<stop stop-color="#1D0BCF"/>
<stop offset="1" stop-color="#050335"/>
</linearGradient>
</defs>
</svg>
