<svg width="78" height="78" viewBox="0 0 78 78" fill="none" xmlns="http://www.w3.org/2000/svg">
<g filter="url(#filter0_d_684_592)">
<rect x="4.61237" y="15.8829" width="59" height="59" rx="16.5" transform="rotate(-15 4.61237 15.8829)" stroke="url(#paint0_linear_684_592)"/>
<circle cx="9.18066" cy="20.4751" r="5" fill="url(#paint1_linear_684_592)"/>
<g clip-path="url(#clip0_684_592)">
<path d="M55.6273 47.1555L55.574 47.0834C54.4748 45.8107 53.1242 44.8785 51.8182 43.9779C51.285 43.61 50.3375 43.017 49.6672 42.54C51.2228 40.3434 52.0561 37.717 52.0514 35.0254C52.0514 27.8318 46.2195 22 39.0254 22C31.8313 22 26 27.8318 26 35.0254C26 42.2189 31.8318 48.0514 39.0254 48.0514C41.7137 48.0554 44.3368 47.2239 46.5318 45.6719C47.0094 46.3416 47.6018 47.2873 47.9703 47.8205C48.8732 49.1289 49.8066 50.4766 51.0781 51.5746L51.1502 51.6273C51.5557 51.8753 52.0226 52.0044 52.4979 52C53.2162 51.9978 53.9083 51.7293 54.4402 51.2465L55.2266 50.4619L55.2453 50.4426C56.0826 49.5262 56.2432 48.1439 55.6273 47.1555ZM39.0254 44.6529C36.7977 44.6532 34.6388 43.881 32.9167 42.4679C31.1945 41.0548 30.0156 39.0883 29.5808 36.9034C29.146 34.7186 29.4823 32.4505 30.5323 30.4858C31.5823 28.5211 33.2811 26.9812 35.3392 26.1286C37.3973 25.276 39.6873 25.1634 41.8191 25.81C43.9509 26.4566 45.7925 27.8224 47.0302 29.6746C48.2679 31.5269 48.825 33.751 48.6067 35.968C48.3884 38.1849 47.4081 40.2576 45.8328 41.8328C44.941 42.7296 43.8801 43.4407 42.7116 43.9247C41.5431 44.4088 40.2902 44.6563 39.0254 44.6529Z" fill="url(#paint2_linear_684_592)"/>
<path d="M39.0254 36.2271C41.1369 36.2271 42.8486 34.5153 42.8486 32.4038C42.8486 30.2923 41.1369 28.5806 39.0254 28.5806C36.9139 28.5806 35.2021 30.2923 35.2021 32.4038C35.2021 34.5153 36.9139 36.2271 39.0254 36.2271Z" fill="url(#paint3_linear_684_592)"/>
<path d="M45.3232 39.3797C45.2659 38.8434 45.0259 38.3432 44.6436 37.9629C44.2597 37.5782 43.7563 37.3356 43.2162 37.275C42.4258 37.1912 40.4623 37.1455 39.2395 37.1455C38.0166 37.1455 35.6102 37.1912 34.8191 37.275C34.2792 37.3356 33.7759 37.578 33.3918 37.9623C33.0096 38.3427 32.7699 38.8429 32.7127 39.3791V39.3955C32.6939 39.5771 32.6828 39.7348 32.6758 39.8695C32.8923 40.1526 33.1271 40.4212 33.3789 40.6734C34.8768 42.1711 36.9083 43.0125 39.0265 43.0125C41.1447 43.0125 43.1761 42.1711 44.674 40.6734C44.9218 40.4252 45.1534 40.1611 45.3672 39.883C45.3584 39.7453 45.3455 39.5836 45.3262 39.3961L45.3232 39.3797Z" fill="url(#paint4_linear_684_592)"/>
</g>
</g>
<defs>
<filter id="filter0_d_684_592" x="0.180664" y="3.81641" width="77.4873" height="73.8521" filterUnits="userSpaceOnUse" color-interpolation-filters="sRGB">
<feFlood flood-opacity="0" result="BackgroundImageFix"/>
<feColorMatrix in="SourceAlpha" type="matrix" values="0 0 0 0 0 0 0 0 0 0 0 0 0 0 0 0 0 0 127 0" result="hardAlpha"/>
<feOffset dy="4"/>
<feGaussianBlur stdDeviation="2"/>
<feComposite in2="hardAlpha" operator="out"/>
<feColorMatrix type="matrix" values="0 0 0 0 0 0 0 0 0 0 0 0 0 0 0 0 0 0 0.25 0"/>
<feBlend mode="normal" in2="BackgroundImageFix" result="effect1_dropShadow_684_592"/>
<feBlend mode="normal" in="SourceGraphic" in2="effect1_dropShadow_684_592" result="shape"/>
</filter>
<linearGradient id="paint0_linear_684_592" x1="4" y1="16.3214" x2="70.4063" y2="67.1615" gradientUnits="userSpaceOnUse">
<stop stop-color="#1D0BCF"/>
<stop offset="1" stop-color="#050335"/>
</linearGradient>
<linearGradient id="paint1_linear_684_592" x1="4.18066" y1="20.4751" x2="14.1807" y2="20.4751" gradientUnits="userSpaceOnUse">
<stop stop-color="#1D0BCF"/>
<stop offset="1" stop-color="#050335"/>
</linearGradient>
<linearGradient id="paint2_linear_684_592" x1="27.5" y1="23" x2="49.5" y2="52" gradientUnits="userSpaceOnUse">
<stop stop-color="#1D0BCF"/>
<stop offset="1" stop-color="#050335"/>
</linearGradient>
<linearGradient id="paint3_linear_684_592" x1="35.5845" y1="28.8354" x2="41.1919" y2="36.227" gradientUnits="userSpaceOnUse">
<stop stop-color="#1D0BCF"/>
<stop offset="1" stop-color="#050335"/>
</linearGradient>
<linearGradient id="paint4_linear_684_592" x1="33.3103" y1="37.3411" x2="36.1007" y2="45.2978" gradientUnits="userSpaceOnUse">
<stop stop-color="#1D0BCF"/>
<stop offset="1" stop-color="#050335"/>
</linearGradient>
<clipPath id="clip0_684_592">
<rect width="30" height="30" fill="white" transform="translate(26 22)"/>
</clipPath>
</defs>
</svg>
