<svg xmlns="http://www.w3.org/2000/svg" version="1.1" xmlns:xlink="http://www.w3.org/1999/xlink" width="512" height="512" x="0" y="0" viewBox="0 0 512 512" style="enable-background:new 0 0 512 512" xml:space="preserve" class=""><g><path d="M362.955 119.436c0-59.018-47.945-107.03-106.873-107.03-59.018 0-107.033 48.012-107.033 107.03 0 42.507 25.729 81.293 64.556 98.154v76.777c0 10.578 8.571 19.183 19.258 19.183 2.141 0 3.884 1.81 3.884 4.037v16.897c0 2.226-1.743 4.037-4.037 4.037-10.534 0-19.105 8.605-19.105 19.179v14.771c0 10.575 8.571 19.179 19.258 19.179 2.141 0 3.884 1.777 3.884 3.962v16.972c0 2.226-1.743 4.037-4.037 4.037-10.534 0-19.105 8.571-19.105 19.105v21.543c0 2.026.807 3.97 2.245 5.397 8.301 8.256 12.487 12.446 34.694 34.698 2.953 2.96 7.758 2.977 10.735.03 8.487-8.392 13.571-13.467 34.88-34.727a7.603 7.603 0 0 0 2.245-5.397V217.593c38.823-16.812 64.551-55.598 64.551-98.157zm-74.833 85.895a7.614 7.614 0 0 0-4.944 7.129v241.65c-.772.77-21.756 21.702-27.223 27.126-14.228-14.258-20.585-20.62-27.126-27.13v-18.38c0-2.141 1.74-3.88 4.033-3.88 10.538 0 19.109-8.642 19.109-19.261v-16.972c0-10.578-8.571-19.187-19.261-19.187-2.141 0-3.88-1.773-3.88-3.955V357.7c0-2.219 1.706-3.955 4.033-3.955 10.538 0 19.109-8.642 19.109-19.261v-16.897c0-10.619-8.571-19.261-19.261-19.261-2.174 0-3.88-1.74-3.88-3.959V212.46a7.61 7.61 0 0 0-4.936-7.125c-35.66-13.403-59.62-47.923-59.62-85.899 0-50.621 41.184-91.805 91.809-91.805 50.536 0 91.649 41.184 91.649 91.805-.002 38.024-23.958 72.543-59.611 85.895z" fill="#ffffff" opacity="1" data-original="#000000" class=""></path><path d="M256.004 56.482c-14.269 0-25.881 11.645-25.881 25.959 0 14.269 11.612 25.881 25.881 25.881s25.881-11.612 25.881-25.881c0-14.314-11.612-25.959-25.881-25.959zm0 36.615c-5.877 0-10.657-4.78-10.657-10.657 0-5.917 4.78-10.735 10.657-10.735 5.876 0 10.656 4.817 10.656 10.735 0 5.877-4.78 10.657-10.656 10.657zM328.362 279.588h63.017a7.612 7.612 0 0 0 7.612-7.612v-51.36c8.675-3.13 14.927-11.345 14.927-21.061 0-12.429-10.114-22.543-22.543-22.543s-22.543 10.114-22.543 22.543c0 9.718 6.256 17.935 14.935 21.063v43.746h-55.405a7.612 7.612 0 1 0 0 15.224zm63.013-87.352a7.326 7.326 0 0 1 7.319 7.319c0 3.996-3.282 7.248-7.319 7.248s-7.319-3.252-7.319-7.248a7.326 7.326 0 0 1 7.319-7.319zM391.379 374.831h-63.017a7.612 7.612 0 1 0 0 15.224h55.405v43.75c-8.679 3.138-14.935 11.382-14.935 21.129 0 12.392 10.114 22.473 22.543 22.473s22.543-10.08 22.543-22.473c0-9.744-6.252-17.986-14.927-21.127v-51.365a7.612 7.612 0 0 0-7.612-7.611zm-.004 87.352c-4.037 0-7.319-3.252-7.319-7.248 0-4.037 3.282-7.319 7.319-7.319s7.319 3.282 7.319 7.319c0 3.996-3.282 7.248-7.319 7.248zM477.051 304.699c-9.734 0-17.969 6.238-21.117 14.898H328.362a7.612 7.612 0 1 0 0 15.224H455.92c3.136 8.655 11.381 14.894 21.131 14.894 12.429 0 22.543-10.08 22.543-22.473 0-12.429-10.114-22.543-22.543-22.543zm0 29.792c-4.037 0-7.319-3.252-7.319-7.248 0-4.037 3.282-7.319 7.319-7.319s7.319 3.282 7.319 7.319c-.001 3.996-3.283 7.248-7.319 7.248zM120.621 279.588h63.017a7.612 7.612 0 1 0 0-15.224h-55.405v-43.746c8.679-3.128 14.935-11.345 14.935-21.063 0-12.429-10.114-22.543-22.543-22.543s-22.543 10.114-22.543 22.543c0 9.716 6.252 17.931 14.927 21.061v51.36a7.613 7.613 0 0 0 7.612 7.612zm.004-87.352a7.326 7.326 0 0 1 7.319 7.319c0 3.996-3.282 7.248-7.319 7.248s-7.319-3.252-7.319-7.248a7.326 7.326 0 0 1 7.319-7.319zM183.638 390.056a7.612 7.612 0 1 0 0-15.224h-63.017a7.612 7.612 0 0 0-7.612 7.612v51.365c-8.675 3.14-14.927 11.382-14.927 21.127 0 12.392 10.114 22.473 22.543 22.473s22.543-10.08 22.543-22.473c0-9.747-6.256-17.991-14.935-21.129v-43.75h55.405zm-63.013 72.127c-4.037 0-7.319-3.252-7.319-7.248 0-4.037 3.282-7.319 7.319-7.319s7.319 3.282 7.319 7.319c0 3.996-3.282 7.248-7.319 7.248zM34.949 349.715c9.75 0 17.995-6.238 21.131-14.894h127.558a7.612 7.612 0 1 0 0-15.224H56.067c-3.148-8.66-11.384-14.898-21.117-14.898-12.429 0-22.543 10.114-22.543 22.543-.001 12.393 10.113 22.473 22.542 22.473zm0-29.791a7.326 7.326 0 0 1 7.319 7.319c0 3.996-3.282 7.248-7.319 7.248s-7.319-3.252-7.319-7.248c.001-4.037 3.283-7.319 7.319-7.319z" fill="#ffffff" opacity="1" data-original="#000000" class=""></path></g></svg>