<svg width="552" height="419" viewBox="0 0 552 419" fill="none" xmlns="http://www.w3.org/2000/svg">
<path opacity="0.16" d="M192.997 99.7133C191.853 101.19 190.568 102.137 189.143 102.304C180.304 103.335 159.832 96.3048 159.832 96.3048L160.752 87.9648C165.238 90.4821 184.84 101.166 192.997 99.7133Z" fill="url(#paint0_linear_18_787)"/>
<path opacity="0.16" d="M136.7 76.3101L144.204 86.6818L149.223 83.7056L152.241 87.44L158.028 79.7983L155.556 79.0202L136.7 76.3101Z" fill="url(#paint1_linear_18_787)"/>
<path d="M142.261 74.4307L149.664 81.9459L145.098 86.342L137.58 76.3328L142.261 74.4307Z" fill="white"/>
<path d="M156.098 77.0022L149.664 81.947L152.461 86.3431L157.46 79.5428L156.098 77.0022Z" fill="white"/>
<path d="M22.528 178.248L30.6345 184.546L27.3825 187.675L20.2062 179.092L22.528 178.248Z" fill="white"/>
<path d="M34.9269 180.2L30.6345 184.546L33.2741 187.675L36.6231 181.483L34.9269 180.2Z" fill="white"/>
<path d="M72.9028 417.26L69.7011 414.051L72.9262 410.868L71.6449 409.585L68.4197 412.767L65.2213 409.562L63.9299 410.832L67.1317 414.041L63.9031 417.227L65.1845 418.51L68.4097 415.324L71.6114 418.533L72.9028 417.26Z" fill="#FDD08D"/>
<path d="M9.99969 169.834L6.79792 166.625L10.0231 163.443L8.74174 162.159L5.51657 165.342L2.31815 162.136L1.02675 163.406L4.22852 166.615L1 169.801L2.28135 171.085L5.50652 167.899L8.70829 171.108L9.99969 169.834Z" fill="#6ED8E5"/>
<path d="M142.261 74.2649L149.664 81.7835L145.098 86.1763L137.58 76.167L142.261 74.2649Z" fill="white"/>
<path d="M34.9269 180.034L30.6345 184.38L33.2741 187.509L36.6231 181.321L34.9269 180.034Z" fill="white"/>
<path d="M291.381 228.334C291.381 228.334 286.724 230.03 274.844 236.864C262.964 243.701 256.587 244.485 254.994 244.572C253.402 244.658 222.933 240.179 222.933 240.179L221.281 246.973C221.281 246.973 253.308 257.148 257.119 256.344C260.929 255.539 283.854 251.528 286.677 247.678C289.501 243.824 291.381 228.334 291.381 228.334Z" fill="#FFA171"/>
<path d="M222.632 241.406C222.632 241.406 212.95 235.956 212.234 238.909C211.515 241.862 221.271 247.016 221.271 247.016L222.632 241.406Z" fill="#F7B6B0"/>
<path d="M226.704 155.02H85.0708C82.7389 155.02 80.8386 153.134 80.8386 150.813V85.9058C80.8386 83.588 82.7356 81.6992 85.0708 81.6992H226.704C229.036 81.6992 230.936 83.5847 230.936 85.9058V150.813C230.936 153.134 229.036 155.02 226.704 155.02ZM85.0675 83.3818C83.669 83.3818 82.5282 84.5124 82.5282 85.9058V150.813C82.5282 152.203 83.6657 153.337 85.0675 153.337H226.7C228.099 153.337 229.24 152.206 229.24 150.813V85.9058C229.24 84.5158 228.102 83.3818 226.7 83.3818H85.0675Z" fill="#E7E9F8"/>
<path d="M229.159 84.3723H82.217C81.7018 84.3723 81.2869 83.6374 81.2869 82.7296V77.0299C81.2869 76.1221 81.7018 75.3872 82.217 75.3872H229.159C229.675 75.3872 230.09 76.1221 230.09 77.0299V82.7296C230.09 83.6374 229.671 84.3723 229.159 84.3723Z" fill="#BBBCEA"/>
<path d="M92.9932 79.8814C92.9932 80.8757 92.1802 81.6838 91.1799 81.6838C90.1796 81.6838 89.3666 80.8757 89.3666 79.8814C89.3666 78.8872 90.1796 78.0791 91.1799 78.0791C92.1836 78.0791 92.9932 78.8838 92.9932 79.8814Z" fill="white"/>
<path d="M101.274 79.8814C101.274 80.8757 100.461 81.6838 99.4603 81.6838C98.46 81.6838 97.647 80.8757 97.647 79.8814C97.647 78.8872 98.46 78.0791 99.4603 78.0791C100.461 78.0791 101.274 78.8838 101.274 79.8814Z" fill="white"/>
<path d="M110.046 79.8814C110.046 80.8757 109.233 81.6838 108.232 81.6838C107.232 81.6838 106.419 80.8757 106.419 79.8814C106.419 78.8872 107.232 78.0791 108.232 78.0791C109.233 78.0791 110.046 78.8838 110.046 79.8814Z" fill="white"/>
<path d="M416.356 169.832H159.471C157.6 169.832 156.085 168.326 156.085 166.467V29.1237C156.085 27.2648 157.6 25.7584 159.471 25.7584H416.356C418.226 25.7584 419.742 27.2648 419.742 29.1237V166.467C419.742 168.326 418.226 169.832 416.356 169.832Z" fill="#E7E9F8"/>
<path d="M303.736 116.011H191.311C190.628 116.011 190.076 115.462 190.076 114.784C190.076 114.106 190.628 113.557 191.311 113.557H303.736C304.419 113.557 304.971 114.106 304.971 114.784C304.968 115.459 304.416 116.011 303.736 116.011Z" fill="white"/>
<path d="M303.736 123.59H191.311C190.628 123.59 190.076 123.041 190.076 122.363C190.076 121.684 190.628 121.136 191.311 121.136H303.736C304.419 121.136 304.971 121.684 304.971 122.363C304.968 123.041 304.416 123.59 303.736 123.59Z" fill="white"/>
<path d="M303.736 131.094H191.311C190.628 131.094 190.076 130.546 190.076 129.867C190.076 129.189 190.628 128.64 191.311 128.64H303.736C304.419 128.64 304.971 129.189 304.971 129.867C304.968 130.546 304.416 131.094 303.736 131.094Z" fill="white"/>
<path d="M239.146 138.803H191.307C190.625 138.803 190.073 138.255 190.073 137.576C190.073 136.898 190.625 136.349 191.307 136.349H239.146C239.829 136.349 240.381 136.898 240.381 137.576C240.381 138.255 239.829 138.803 239.146 138.803Z" fill="white"/>
<path d="M230.832 404.023C299.461 404.023 355.095 401.803 355.095 399.065C355.095 396.326 299.461 394.107 230.832 394.107C162.204 394.107 106.57 396.326 106.57 399.065C106.57 401.803 162.204 404.023 230.832 404.023Z" fill="#E7E9F8"/>
<path d="M123.522 397.79L120.524 397.754L176.232 285.786H179.337L123.522 397.79Z" fill="#EF91B3"/>
<path d="M175.66 397.79L120.113 286.155L122.946 285.786L178.658 397.754L175.66 397.79Z" fill="#CE4676"/>
<path d="M336.878 397.864L281.294 286.112L284.128 285.786L339.839 397.754L336.878 397.864Z" fill="#CE4676"/>
<path d="M347.059 286.382H113.003C111.006 286.382 109.383 284.773 109.383 282.784V282.542C109.383 280.556 111.003 278.944 113.003 278.944H347.059C349.056 278.944 350.679 280.553 350.679 282.542V282.784C350.679 284.773 349.059 286.382 347.059 286.382Z" fill="#683987"/>
<path d="M284.713 397.774L281.706 397.754L337.119 286.382H340.137L284.713 397.774Z" fill="#EF91B3"/>
<path d="M507.855 184.669L504.523 189.684C508.444 192.258 509.528 197.522 506.939 201.419C504.349 205.316 499.053 206.394 495.129 203.82L491.8 208.831C498.501 213.231 507.554 211.388 511.981 204.728C516.41 198.067 514.557 189.069 507.855 184.669Z" fill="#6ED8E5"/>
<path d="M418.487 27.5902H157.339C156.426 27.5902 155.687 26.8553 155.687 25.9475V20.2478C155.687 19.34 156.426 18.6051 157.339 18.6051H418.487C419.401 18.6051 420.14 19.34 420.14 20.2478V25.9475C420.14 26.8553 419.401 27.5902 418.487 27.5902Z" fill="#BBBCEA"/>
<path d="M167.396 23.0973C167.396 24.0915 166.583 24.8996 165.583 24.8996C164.583 24.8996 163.77 24.0915 163.77 23.0973C163.77 22.103 164.583 21.2949 165.583 21.2949C166.583 21.2949 167.396 22.0997 167.396 23.0973Z" fill="white"/>
<path d="M175.673 23.0973C175.673 24.0915 174.86 24.8996 173.86 24.8996C172.86 24.8996 172.047 24.0915 172.047 23.0973C172.047 22.103 172.86 21.2949 173.86 21.2949C174.864 21.2949 175.673 22.0997 175.673 23.0973Z" fill="white"/>
<path d="M184.449 23.0973C184.449 24.0915 183.636 24.8996 182.635 24.8996C181.635 24.8996 180.822 24.0915 180.822 23.0973C180.822 22.103 181.635 21.2949 182.635 21.2949C183.636 21.2949 184.449 22.0997 184.449 23.0973Z" fill="white"/>
<path d="M74 224.746C65.7286 224.746 59 218.059 59 209.839C59 201.619 65.7286 194.932 74 194.932C82.2714 194.932 89 201.619 89 209.839C89 218.059 82.2714 224.746 74 224.746ZM74 201.117C69.1613 201.117 65.223 205.03 65.223 209.839C65.223 214.648 69.1613 218.561 74 218.561C78.8387 218.561 82.7769 214.648 82.7769 209.839C82.7769 205.03 78.8387 201.117 74 201.117Z" fill="#FFA171"/>
<path d="M8.5 51.8264C4.36431 51.8264 1 48.483 1 44.373C1 40.263 4.36431 36.9196 8.5 36.9196C12.6357 36.9196 16 40.263 16 44.373C16 48.483 12.6357 51.8264 8.5 51.8264ZM8.5 40.0118C6.08065 40.0118 4.11152 41.9686 4.11152 44.373C4.11152 46.7773 6.08065 48.7342 8.5 48.7342C10.9194 48.7342 12.8885 46.7773 12.8885 44.373C12.8885 41.9686 10.9194 40.0118 8.5 40.0118Z" fill="#FFA171"/>
<g opacity="0.41">
<path opacity="0.47" d="M397.199 0.150056L433.921 0.422737C436.33 0.439363 438.267 2.39467 438.25 4.78892L438.086 26.7894C438.069 29.1837 436.102 31.109 433.693 31.0924L414.463 30.9494L409.618 38.0324C408.605 39.5122 406.406 39.4955 405.416 38.0025L400.679 30.8497L396.972 30.8231C394.563 30.8064 392.626 28.8511 392.643 26.4569L392.807 4.45638C392.823 2.05881 394.791 0.130104 397.199 0.150056Z" fill="#B03C65"/>
<path d="M412.582 15.1023C412.569 16.6751 413.844 17.9621 415.43 17.9754C417.012 17.9887 418.307 16.7217 418.32 15.1455C418.334 13.5726 417.059 12.2857 415.473 12.2724C413.887 12.2624 412.592 13.5294 412.582 15.1023Z" fill="white"/>
<path d="M402.358 15.0293C402.345 16.6022 403.62 17.8891 405.205 17.9024C406.788 17.9157 408.083 16.6488 408.096 15.0725C408.109 13.4996 406.835 12.2127 405.249 12.1994C403.663 12.1861 402.368 13.4531 402.358 15.0293Z" fill="white"/>
<path d="M422.683 15.1786C422.669 16.7515 423.944 18.0384 425.53 18.0517C427.112 18.065 428.407 16.798 428.421 15.2218C428.434 13.6489 427.159 12.362 425.573 12.3487C423.988 12.3387 422.693 13.6057 422.683 15.1786Z" fill="white"/>
</g>
<path d="M392.803 3.45816L429.525 3.73084C431.933 3.74747 433.871 5.70276 433.854 8.09701L433.69 30.0975C433.673 32.4918 431.706 34.4171 429.297 34.4005L410.067 34.2575L405.222 41.3405C404.208 42.8203 402.01 42.8036 401.02 41.3106L396.283 34.1577L392.576 34.1312C390.167 34.1145 388.23 32.1592 388.247 29.765L388.41 7.76448C388.427 5.36358 390.394 3.43821 392.803 3.45816Z" fill="#CE4676"/>
<path d="M404.964 22.8124C404.811 22.8124 404.653 22.7725 404.509 22.6894L398.277 19.0614C398.002 18.9018 397.832 18.6092 397.828 18.2933C397.825 17.9774 397.992 17.6814 398.263 17.5185L404.402 13.7974C404.831 13.5381 405.386 13.6744 405.647 14.0967C405.908 14.5224 405.771 15.0744 405.346 15.3337L400.498 18.27L405.426 21.1365C405.858 21.3859 406.002 21.9379 405.751 22.3668C405.58 22.6528 405.276 22.8124 404.964 22.8124Z" fill="white"/>
<path d="M417.132 22.8122C416.821 22.8122 416.52 22.6526 416.35 22.3666C416.095 21.9377 416.242 21.3857 416.674 21.1363L421.602 18.2698L416.754 15.3335C416.326 15.0742 416.192 14.5222 416.453 14.0965C416.714 13.6709 417.27 13.5379 417.698 13.7972L423.837 17.5183C424.108 17.6846 424.275 17.9772 424.272 18.2931C424.269 18.609 424.098 18.9016 423.824 19.0613L417.591 22.6892C417.447 22.7723 417.29 22.8122 417.132 22.8122Z" fill="white"/>
<path d="M409.096 23.945C408.979 23.945 408.862 23.9218 408.748 23.8752C408.287 23.6857 408.069 23.1569 408.26 22.698L412.278 13.0811C412.469 12.6222 413.001 12.4061 413.462 12.5956C413.924 12.7852 414.141 13.3139 413.951 13.7728L409.933 23.3897C409.789 23.7355 409.454 23.945 409.096 23.945Z" fill="white"/>
<g opacity="0.41">
<path d="M103.85 95.3415L70.4606 95.5909C68.2692 95.6076 66.5094 97.3866 66.5261 99.5614L66.6767 119.567C66.6934 121.745 68.4833 123.494 70.6713 123.477L88.1555 123.348L92.5617 129.789C93.4817 131.136 95.4824 131.119 96.3823 129.759L100.688 123.255L104.061 123.228C106.252 123.211 108.012 121.432 107.995 119.257L107.844 99.2522C107.831 97.0741 106.041 95.3249 103.85 95.3415Z" fill="#44BECB"/>
<path d="M89.8651 108.938C89.8751 110.367 88.7175 111.538 87.2756 111.548C85.837 111.558 84.6593 110.407 84.6493 108.974C84.6393 107.544 85.7968 106.374 87.2388 106.364C88.6774 106.354 89.8551 107.504 89.8651 108.938Z" fill="white"/>
<path d="M99.1625 108.868C99.1725 110.298 98.015 111.468 96.573 111.478C95.1344 111.488 93.9568 110.338 93.9467 108.905C93.9367 107.475 95.0943 106.304 96.5362 106.294C97.9748 106.284 99.1491 107.438 99.1625 108.868Z" fill="white"/>
<path d="M80.6814 109.004C80.6914 110.434 79.5338 111.604 78.0919 111.614C76.6533 111.624 75.4756 110.474 75.4656 109.041C75.4555 107.611 76.6131 106.44 78.0551 106.43C79.4937 106.424 80.6713 107.574 80.6814 109.004Z" fill="white"/>
</g>
<path d="M99.8952 101.233L66.5061 101.482C64.3147 101.499 62.5549 103.278 62.5717 105.453L62.7222 125.458C62.7389 127.636 64.5288 129.385 66.7169 129.369L84.201 129.239L88.6072 135.68C89.5272 137.027 91.5279 137.01 92.4279 135.65L96.7336 129.146L100.106 129.119C102.297 129.103 104.057 127.324 104.04 125.149L103.89 105.143C103.877 102.969 102.087 101.22 99.8952 101.233Z" fill="#44BECB"/>
<path d="M78.1856 109.546H80.2666V117.889C80.2666 118.262 80.2398 118.581 80.1863 118.847C80.1328 119.113 80.0525 119.349 79.9454 119.552C79.8049 119.821 79.6276 120.051 79.4101 120.24C79.196 120.43 78.9518 120.583 78.6808 120.706C78.4098 120.826 78.1187 120.912 77.8076 120.969C77.4965 121.022 77.1753 121.049 76.8407 121.049C76.4961 121.049 76.1615 121.019 75.8337 120.965C75.5092 120.909 75.2348 120.836 75.014 120.746V118.983C75.2616 119.083 75.5292 119.163 75.8102 119.22C76.0946 119.276 76.3723 119.303 76.65 119.303C77.1886 119.303 77.5767 119.18 77.8209 118.93C78.0652 118.684 78.1856 118.318 78.1856 117.833V109.546Z" fill="white"/>
<path d="M88.5235 117.594C88.5235 117.308 88.4533 117.075 88.3094 116.899C88.1689 116.723 87.9749 116.576 87.734 116.463C87.4897 116.35 87.2188 116.26 86.9143 116.187C86.6099 116.117 86.292 116.048 85.9608 115.981C85.5192 115.885 85.0977 115.772 84.6962 115.639C84.2947 115.506 83.9401 115.323 83.6356 115.09C83.3312 114.857 83.087 114.561 82.9063 114.199C82.7256 113.84 82.6353 113.387 82.6353 112.849C82.6353 112.253 82.739 111.735 82.9498 111.292C83.1572 110.85 83.4416 110.484 83.8029 110.195C84.1609 109.906 84.5824 109.69 85.0675 109.547C85.5527 109.404 86.0946 109.334 86.7002 109.334C87.3058 109.334 87.9146 109.394 88.5235 109.51C89.1358 109.63 89.6611 109.779 90.1027 109.966V111.738C89.5139 111.509 88.9484 111.339 88.4098 111.236C87.8678 111.133 87.3626 111.08 86.8875 111.08C86.2017 111.08 85.6764 111.203 85.3051 111.452C84.9337 111.698 84.7497 112.071 84.7497 112.566C84.7497 112.852 84.8099 113.088 84.9304 113.274C85.0508 113.461 85.2181 113.614 85.4255 113.733C85.6329 113.853 85.8738 113.949 86.1482 114.023C86.4192 114.096 86.7069 114.162 87.0147 114.225C87.4964 114.328 87.9548 114.445 88.3931 114.575C88.8313 114.708 89.2194 114.89 89.5607 115.127C89.9019 115.363 90.1696 115.672 90.367 116.051C90.5644 116.43 90.6647 116.916 90.6647 117.508C90.6647 118.116 90.551 118.641 90.3268 119.084C90.0993 119.529 89.7781 119.895 89.3633 120.184C88.9484 120.474 88.4432 120.69 87.8477 120.83C87.2522 120.969 86.6032 121.039 85.8939 121.039C85.2783 121.039 84.6694 120.979 84.0739 120.856C83.4784 120.736 82.9799 120.567 82.5851 120.347V118.602C83.1438 118.844 83.6925 119.017 84.2244 119.13C84.7564 119.24 85.3051 119.293 85.8705 119.293C86.1984 119.293 86.5195 119.267 86.8374 119.213C87.1552 119.16 87.4396 119.067 87.6905 118.937C87.9414 118.808 88.1455 118.631 88.2961 118.409C88.4466 118.193 88.5235 117.92 88.5235 117.594Z" fill="white"/>
<path d="M188.965 252.101L184.656 263.809L180.344 275.521H146.784L151.093 263.809L155.396 252.101H188.965Z" fill="#BBBCEA"/>
<path d="M180.477 279.389H136.412C135.191 279.389 134.201 278.405 134.201 277.191V276.878C134.201 275.665 135.191 274.68 136.412 274.68H180.477C181.699 274.68 182.689 275.665 182.689 276.878V277.191C182.689 278.405 181.699 279.389 180.477 279.389Z" fill="#683987"/>
<path d="M189.905 279.389H145.84C144.619 279.389 143.629 278.405 143.629 277.191V276.878C143.629 275.665 144.619 274.68 145.84 274.68H189.905C191.127 274.68 192.117 275.665 192.117 276.878V277.191C192.117 278.405 191.127 279.389 189.905 279.389Z" fill="#683987"/>
<path d="M188.965 252.101L184.656 263.809H151.093L155.396 252.101H188.965Z" fill="#BBBCEA"/>
<path d="M216.774 256.862H120.625C118.972 256.862 117.503 255.821 116.965 254.268L94.3549 189.142C93.4884 186.641 95.3552 184.037 98.015 184.037H194.164C195.817 184.037 197.286 185.078 197.825 186.631L220.434 251.758C221.301 254.258 219.434 256.862 216.774 256.862Z" fill="#683987"/>
<path d="M221.167 256.862H125.021C123.365 256.862 121.899 255.818 121.361 254.272L118.584 246.278L98.7544 189.145C97.8846 186.641 99.7514 184.037 102.414 184.037H198.561C200.217 184.037 201.682 185.078 202.221 186.634L222.927 246.281L224.827 251.761C225.7 254.258 223.833 256.862 221.167 256.862Z" fill="#E7E9F8"/>
<path d="M221.167 256.862H125.021C123.365 256.862 121.899 255.818 121.361 254.272L118.584 246.278L98.7544 189.145C97.8846 186.641 99.7514 184.037 102.414 184.037H198.561C200.217 184.037 201.682 185.078 202.221 186.634L222.927 246.281L224.827 251.761C225.7 254.258 223.833 256.862 221.167 256.862Z" fill="#E7E9F8"/>
<path d="M221.17 256.859H125.021C123.372 256.859 121.899 255.821 121.361 254.272L118.587 246.284L98.7612 189.145C97.8914 186.641 99.7549 184.037 102.421 184.037H198.561C200.22 184.037 201.679 185.081 202.221 186.631L222.927 246.284L224.83 251.761C225.7 254.255 223.83 256.859 221.17 256.859Z" fill="#BBBCEA"/>
<path d="M124.803 212.353L118.125 193.708C117.898 193.073 118.373 192.404 119.052 192.404H186.567C186.981 192.404 187.353 192.664 187.493 193.053L194.174 211.698C194.402 212.333 193.927 213.002 193.248 213.002H125.73C125.312 213.002 124.94 212.742 124.803 212.353Z" fill="#E7E9F8"/>
<path d="M149.092 244.279H135.061C134.743 244.279 134.459 244.08 134.352 243.777L127.831 225.089C127.617 224.46 128.085 223.799 128.758 223.799H142.297C142.716 223.799 143.094 224.058 143.234 224.45L149.798 243.285C149.969 243.774 149.608 244.279 149.092 244.279Z" fill="#44BECB"/>
<path d="M171.575 244.206H157.55C157.232 244.206 156.951 244.007 156.844 243.711L150.203 225.092C149.982 224.464 150.457 223.802 151.13 223.802H164.67C165.088 223.802 165.466 224.062 165.596 224.454L172.281 243.212C172.455 243.698 172.09 244.206 171.575 244.206Z" fill="#CE4676"/>
<path d="M199.788 224.268C199.645 223.982 199.35 223.799 199.029 223.799H172.167C171.538 223.799 171.13 224.454 171.408 225.016C171.551 225.302 171.846 225.485 172.167 225.485H199.029C199.655 225.485 200.066 224.83 199.788 224.268Z" fill="white"/>
<path d="M201.465 229.472C201.321 229.186 201.026 229.003 200.705 229.003H173.843C173.214 229.003 172.806 229.658 173.084 230.22C173.228 230.506 173.522 230.689 173.843 230.689H200.705C201.331 230.686 201.742 230.03 201.465 229.472Z" fill="white"/>
<path d="M203.449 235.149C203.305 234.863 203.01 234.68 202.689 234.68H175.827C175.198 234.68 174.79 235.335 175.068 235.897C175.212 236.183 175.506 236.366 175.827 236.366H202.689C203.315 236.366 203.726 235.711 203.449 235.149Z" fill="white"/>
<path d="M205.125 240.352C204.981 240.067 204.686 239.884 204.365 239.884H177.503C176.874 239.884 176.466 240.539 176.744 241.101C176.888 241.387 177.182 241.57 177.503 241.57H204.365C204.994 241.566 205.402 240.911 205.125 240.352Z" fill="white"/>
<path d="M208.972 251.113C208.828 250.827 208.534 250.644 208.213 250.644H181.351C180.722 250.644 180.314 251.299 180.591 251.861C180.735 252.147 181.03 252.33 181.351 252.33H208.213C208.842 252.33 209.25 251.671 208.972 251.113Z" fill="white"/>
<path d="M160.17 201.592L158.718 205.658C158.658 205.828 158.403 205.828 158.219 205.658L151.254 199.264C151.07 199.094 150.815 199.094 150.755 199.264L146.918 210.015C146.844 210.217 147.095 210.5 147.346 210.5H156.995H163.495H169.775C170.026 210.5 170.069 210.217 169.849 210.015L160.672 201.592C160.484 201.422 160.23 201.422 160.17 201.592Z" fill="#BBBCEA"/>
<path d="M157.035 196.065C157.269 196.707 156.938 197.229 156.289 197.229C155.643 197.229 154.927 196.707 154.693 196.065C154.459 195.423 154.79 194.901 155.439 194.901C156.085 194.901 156.797 195.423 157.035 196.065Z" fill="#BBBCEA"/>
<path d="M221.167 256.863H125.021C123.365 256.863 121.899 255.819 121.361 254.272L118.584 246.278H222.927L224.827 251.758C225.7 254.259 223.833 256.863 221.167 256.863Z" fill="#683987"/>
<path d="M69.4167 359.177C69.4167 359.177 49.9052 317.88 28.9416 303.215C7.97799 288.55 -12.8518 318.592 12.9897 332.871C38.8312 347.15 57.1049 365.629 57.1049 365.629C57.1049 365.629 74.3348 380.606 69.4167 359.177Z" fill="url(#paint2_linear_18_787)"/>
<path d="M68.9885 369.791L69.4837 369.611C62.0665 349.3 45.576 332.168 33.05 321.37C19.4836 309.678 7.51295 302.692 7.39251 302.622L7.12823 303.074C7.24868 303.144 19.1858 310.111 32.7154 321.773C45.1912 332.53 61.6114 349.589 68.9885 369.791Z" fill="#E7E9F8"/>
<path d="M29.4568 318.963L29.4835 318.441C29.3397 318.434 14.8632 317.816 3.95654 325.009L4.24761 325.444C15.0104 318.345 29.3129 318.956 29.4568 318.963Z" fill="#E7E9F8"/>
<path d="M45.6027 333.948L45.6562 333.429C45.5324 333.416 33.2741 332.252 23.7425 339.178L24.0537 339.601C33.4214 332.79 45.4823 333.938 45.6027 333.948Z" fill="#E7E9F8"/>
<path d="M39.0185 327.417L39.5204 327.264C37.7372 321.444 39.9553 313.154 39.9787 313.074L39.4702 312.938C39.3799 313.284 37.1918 321.451 39.0185 327.417Z" fill="#E7E9F8"/>
<path d="M56.931 347.638L57.3625 347.339C55.4522 344.608 57.8878 337.868 57.9146 337.801L57.4194 337.622C57.3157 337.911 54.8667 344.688 56.931 347.638Z" fill="#E7E9F8"/>
<path d="M75.3151 360.736C75.3151 360.736 89.9287 329.811 105.626 318.827C121.324 307.844 136.928 330.343 117.573 341.037C98.2191 351.731 84.5356 365.572 84.5356 365.572C84.5356 365.572 71.6316 376.788 75.3151 360.736Z" fill="url(#paint3_linear_18_787)"/>
<path d="M75.6362 368.687L75.2682 368.554C80.8219 353.344 93.1705 340.511 102.552 332.427C112.712 323.672 121.678 318.438 121.765 318.388L121.963 318.727C121.873 318.78 112.933 323.998 102.803 332.73C93.4583 340.781 81.1598 353.557 75.6362 368.687Z" fill="#E7E9F8"/>
<path d="M105.242 330.623L105.221 330.234C105.328 330.227 116.172 329.765 124.338 335.152L124.121 335.478C116.058 330.161 105.349 330.616 105.242 330.623Z" fill="#E7E9F8"/>
<path d="M93.1505 341.846L93.1104 341.457C93.2007 341.447 102.384 340.575 109.524 345.763L109.293 346.079C102.271 340.978 93.2408 341.836 93.1505 341.846Z" fill="#E7E9F8"/>
<path d="M98.0786 336.953L97.7039 336.84C99.0388 332.48 97.376 326.275 97.3593 326.212L97.7373 326.109C97.8109 326.368 99.4503 332.484 98.0786 336.953Z" fill="#E7E9F8"/>
<path d="M84.6661 352.097L84.3415 351.874C85.7734 349.829 83.9467 344.781 83.93 344.731L84.298 344.598C84.3783 344.811 86.2117 349.886 84.6661 352.097Z" fill="#E7E9F8"/>
<path d="M46.7168 272.252C34.1908 275.887 29.9653 293.668 41.2835 309.579C50.872 323.06 65.3317 347.429 68.8245 357.834C72.3173 368.242 76.9644 367.953 73.3378 323.436C69.7111 278.923 55.402 269.732 46.7168 272.252Z" fill="url(#paint4_linear_18_787)"/>
<path d="M72.6251 363.44H72.0062C72.0463 341.556 65.0942 317.966 59.2527 302.031C52.9229 284.759 46.506 272.515 46.4424 272.395L46.9911 272.109C47.0547 272.232 53.4916 284.513 59.8349 301.821C65.693 317.803 72.6653 341.466 72.6251 363.44Z" fill="#E7E9F8"/>
<path d="M56.9008 295.753C51.3203 290.303 35.0841 287.14 34.9202 287.11L35.0373 286.505C35.7131 286.635 51.6214 289.734 57.3357 295.314L56.9008 295.753Z" fill="#E7E9F8"/>
<path d="M65.6027 321.41C57.9781 316.266 45.7833 316.283 45.6629 316.283L45.6595 315.667C45.7833 315.667 58.1654 315.647 65.9507 320.901L65.6027 321.41Z" fill="#E7E9F8"/>
<path d="M63.3645 312.103L62.7456 312.14C62.2672 304.395 68.2859 296.205 68.5435 295.859L69.042 296.225C68.9818 296.308 62.8995 304.585 63.3645 312.103Z" fill="#E7E9F8"/>
<path d="M70.397 339.85L69.7781 339.853C69.7647 336.395 73.1571 327.001 73.3009 326.602L73.8831 326.811C73.8496 326.904 70.3836 336.498 70.397 339.85Z" fill="#E7E9F8"/>
<path d="M69.042 400.046C57.8309 400.046 48.7442 391.014 48.7442 379.871V363.919C48.7442 362.652 49.778 361.628 51.0493 361.628H87.0314C88.306 361.628 89.3365 362.656 89.3365 363.919V379.871C89.3432 391.011 80.2532 400.046 69.042 400.046Z" fill="#E7E9F8"/>
<path opacity="0.76" d="M391.726 95.3735H181.672C180.203 95.3735 179.009 94.1864 179.009 92.7266V51.1199C179.009 49.66 180.203 48.4729 181.672 48.4729H391.726C393.195 48.4729 394.389 49.66 394.389 51.1199V92.7266C394.389 94.1864 393.195 95.3735 391.726 95.3735ZM181.675 49.2111C180.615 49.2111 179.755 50.0691 179.755 51.1199V92.7266C179.755 93.7807 180.618 94.6353 181.675 94.6353H391.729C392.79 94.6353 393.65 93.7774 393.65 92.7266V51.1199C393.65 50.0657 392.786 49.2111 391.729 49.2111H181.675Z" fill="white"/>
<path opacity="0.76" d="M314.295 147.19H181.675C180.207 147.19 179.012 146.002 179.012 144.543V102.936C179.012 101.476 180.207 100.289 181.675 100.289H314.295C315.764 100.289 316.958 101.476 316.958 102.936V144.543C316.958 146.002 315.764 147.19 314.295 147.19ZM181.675 101.027C180.615 101.027 179.755 101.885 179.755 102.936V144.543C179.755 145.597 180.618 146.451 181.675 146.451H314.295C315.356 146.451 316.216 145.593 316.216 144.543V102.936C316.216 101.882 315.352 101.027 314.295 101.027H181.675Z" fill="white"/>
<path d="M326.6 107.063H179.939C179.427 107.063 179.012 106.504 179.012 105.812V101.476C179.012 100.788 179.427 100.226 179.939 100.226H326.6C327.112 100.226 327.527 100.784 327.527 101.476V105.812C327.527 106.504 327.112 107.063 326.6 107.063Z" fill="white"/>
<path d="M185.158 103.647C185.158 104.402 184.543 105.017 183.78 105.017C183.017 105.017 182.401 104.405 182.401 103.647C182.401 102.889 183.017 102.277 183.78 102.277C184.543 102.277 185.158 102.889 185.158 103.647Z" fill="#BBBCEA"/>
<path d="M190.076 105.017C190.837 105.017 191.454 104.403 191.454 103.647C191.454 102.89 190.837 102.277 190.076 102.277C189.315 102.277 188.698 102.89 188.698 103.647C188.698 104.403 189.315 105.017 190.076 105.017Z" fill="#BBBCEA"/>
<path d="M196.744 105.017C197.505 105.017 198.122 104.403 198.122 103.647C198.122 102.89 197.505 102.277 196.744 102.277C195.983 102.277 195.366 102.89 195.366 103.647C195.366 104.403 195.983 105.017 196.744 105.017Z" fill="#BBBCEA"/>
<path d="M389.792 133.606H301.17C298.822 133.606 296.915 131.714 296.915 129.377V44.823C296.915 42.4886 298.818 40.5931 301.17 40.5931H389.792C392.141 40.5931 394.048 42.4853 394.048 44.823V129.377C394.048 131.714 392.141 133.606 389.792 133.606Z" fill="#BBBCEA"/>
<path d="M336.896 76.8416C343.611 70.1667 343.611 59.3445 336.896 52.6697C330.18 45.9948 319.292 45.9948 312.577 52.6697C305.861 59.3446 305.861 70.1667 312.577 76.8416C319.292 83.5164 330.18 83.5165 336.896 76.8416Z" fill="#E7E9F8"/>
<path d="M327.985 73.4637C327.959 70.8034 326.587 68.7716 326.587 68.7716L324.717 72.7653L322.847 68.7716C322.847 68.7716 321.472 70.8034 321.448 73.4637C321.425 75.9377 324.289 76.1705 324.693 76.1938V76.1971C324.693 76.1971 324.703 76.1971 324.717 76.1971C324.73 76.1971 324.74 76.1971 324.74 76.1971V76.1938C325.145 76.1738 328.009 75.9377 327.985 73.4637Z" fill="#BBBCEA"/>
<path d="M336.43 68.9281C334.821 67.8972 333.68 65.1638 333.887 61.8651C334.095 58.5663 333.265 54.0272 329.789 52.5342C327.614 51.5997 326.56 52.0952 325.61 52.6007C325.061 52.89 324.412 52.89 323.864 52.6007C322.914 52.0985 321.86 51.5997 319.685 52.5342C316.209 54.0306 315.379 58.5663 315.587 61.8651C315.794 65.1638 314.653 67.8972 313.044 68.9281C311.435 69.959 312.161 70.9898 313.044 71.8145C313.927 72.6392 316.654 71.6582 318.815 73.1546C320.976 74.651 321.96 73.3608 322.301 71.738C322.639 70.1153 324.73 57.2395 324.73 57.2395L324.734 55.2244L324.737 57.2395C324.737 57.2395 326.828 70.1153 327.166 71.738C327.504 73.3608 328.487 74.651 330.652 73.1546C332.817 71.6582 335.543 72.6392 336.423 71.8145C337.313 70.9898 338.039 69.959 336.43 68.9281Z" fill="#683987"/>
<path d="M324.743 72.8178C323.613 72.8178 322.559 72.166 321.672 71.0453C320.103 69.0601 319.063 68.7276 319.063 66.7324V56.7563H330.421V66.7324C330.421 68.7409 329.364 69.11 327.775 71.0886C326.898 72.1859 325.858 72.8178 324.743 72.8178Z" fill="#BBBCEA"/>
<path d="M319.063 61.1396H318.778C317.902 61.1396 317.326 62.0508 317.708 62.8356L319.063 65.6255C319.063 65.6255 320.05 63.3045 320.05 63.0983C320.05 62.8921 319.063 61.1396 319.063 61.1396Z" fill="#BBBCEA"/>
<path d="M330.401 61.1396H330.682C331.558 61.1396 332.134 62.0508 331.753 62.8356L330.398 65.6255C330.398 65.6255 329.411 63.3045 329.411 63.0983C329.411 62.8921 330.401 61.1396 330.401 61.1396Z" fill="#BBBCEA"/>
<path d="M319.063 61.1405C319.063 61.1405 320.418 59.8403 322.264 57.0204C322.264 57.0204 325.456 60.4755 330.401 61.1405C330.401 61.1405 331.629 58.2342 331.629 57.6522C331.629 57.0703 330.618 55.1649 329.712 55.0086C328.808 54.849 319.946 54.1107 318.815 55.0086C317.688 55.9098 319.063 61.1405 319.063 61.1405Z" fill="#683987"/>
<path d="M380.384 59.2845H355.058C353.292 59.2845 351.86 57.8612 351.86 56.1054C351.86 54.3496 353.292 52.9264 355.058 52.9264H380.384C382.151 52.9264 383.583 54.3496 383.583 56.1054C383.579 57.8612 382.151 59.2845 380.384 59.2845Z" fill="#E7E9F8"/>
<path d="M382.348 66.8165H353.091C352.408 66.8165 351.856 66.2678 351.856 65.5895C351.856 64.9111 352.408 64.3624 353.091 64.3624H382.348C383.031 64.3624 383.583 64.9111 383.583 65.5895C383.579 66.2678 383.027 66.8165 382.348 66.8165Z" fill="#E7E9F8"/>
<path d="M382.348 74.2872H353.091C352.408 74.2872 351.856 73.7385 351.856 73.0602C351.856 72.3818 352.408 71.8331 353.091 71.8331H382.348C383.031 71.8331 383.583 72.3818 383.583 73.0602C383.579 73.7385 383.027 74.2872 382.348 74.2872Z" fill="#E7E9F8"/>
<path d="M382.348 81.8466H353.091C352.408 81.8466 351.856 81.2979 351.856 80.6195C351.856 79.9411 352.408 79.3925 353.091 79.3925H382.348C383.031 79.3925 383.583 79.9411 383.583 80.6195C383.579 81.2979 383.027 81.8466 382.348 81.8466Z" fill="#E7E9F8"/>
<path d="M382.348 89.7877H308.782C308.099 89.7877 307.547 89.239 307.547 88.5607C307.547 87.8823 308.099 87.3336 308.782 87.3336H382.348C383.031 87.3336 383.583 87.8823 383.583 88.5607C383.579 89.239 383.027 89.7877 382.348 89.7877Z" fill="#E7E9F8"/>
<path d="M382.348 97.3688H308.782C308.099 97.3688 307.547 96.8201 307.547 96.1417C307.547 95.4634 308.099 94.9147 308.782 94.9147H382.348C383.031 94.9147 383.583 95.4634 383.583 96.1417C383.579 96.8201 383.027 97.3688 382.348 97.3688Z" fill="#E7E9F8"/>
<path d="M382.348 104.874H308.782C308.099 104.874 307.547 104.326 307.547 103.647C307.547 102.969 308.099 102.42 308.782 102.42H382.348C383.031 102.42 383.583 102.969 383.583 103.647C383.579 104.326 383.027 104.874 382.348 104.874Z" fill="#E7E9F8"/>
<path d="M382.348 112.582H308.782C308.099 112.582 307.547 112.033 307.547 111.355C307.547 110.677 308.099 110.128 308.782 110.128H382.348C383.031 110.128 383.583 110.677 383.583 111.355C383.579 112.033 383.027 112.582 382.348 112.582Z" fill="#E7E9F8"/>
<path d="M382.348 120.038H308.782C308.099 120.038 307.547 119.489 307.547 118.811C307.547 118.132 308.099 117.583 308.782 117.583H382.348C383.031 117.583 383.583 118.132 383.583 118.811C383.579 119.489 383.027 120.038 382.348 120.038Z" fill="#E7E9F8"/>
<path d="M237.35 89.662H285.429C287.417 89.662 289.026 88.0625 289.026 86.0873V44.1713C289.026 42.196 287.417 40.5966 285.429 40.5966H237.35C235.362 40.5966 233.753 42.196 233.753 44.1713V86.0906C233.75 88.0625 235.362 89.662 237.35 89.662Z" fill="#BBBCEA"/>
<path d="M272.392 66.8964C273.377 60.8633 269.255 55.1787 263.185 54.1996C257.115 53.2204 251.396 57.3175 250.411 63.3507C249.426 69.3838 253.548 75.0684 259.618 76.0475C265.688 77.0267 271.407 72.9296 272.392 66.8964Z" fill="#E7E9F8"/>
<path d="M260.029 59.0111L265.861 64.7972C266.041 64.9768 266.041 65.2694 265.861 65.449L260.039 71.2451C259.748 71.5344 259.25 71.3315 259.25 70.9192L259.24 59.337C259.24 58.928 259.738 58.7218 260.029 59.0111Z" fill="#BBBCEA"/>
<path opacity="0.47" d="M287.336 125.392H255.563C253.479 125.392 251.789 127.071 251.789 129.143V148.18C251.789 150.252 253.479 151.931 255.563 151.931H258.544L263.301 159.001C264.191 160.321 266.145 160.321 267.035 159.001L271.793 151.931H287.336C289.421 151.931 291.11 150.252 291.11 148.18V129.143C291.11 127.071 289.421 125.392 287.336 125.392Z" fill="#B03C65"/>
<path d="M284.603 129.99H252.83C250.745 129.99 249.056 131.67 249.056 133.741V152.779C249.056 154.851 250.745 156.53 252.83 156.53H255.811L260.568 163.6C261.458 164.92 263.412 164.92 264.302 163.6L269.059 156.53H284.603C286.687 156.53 288.377 154.851 288.377 152.779V133.741C288.377 131.67 286.687 129.99 284.603 129.99Z" fill="#CE4676"/>
<path d="M261.384 139.282C260.916 139.282 260.481 139.359 260.086 139.512C259.688 139.665 259.35 139.891 259.066 140.183C258.782 140.476 258.561 140.842 258.4 141.274C258.24 141.706 258.163 142.199 258.163 142.754C258.163 143.306 258.236 143.788 258.38 144.207C258.524 144.626 258.735 144.972 259.006 145.255C259.277 145.537 259.611 145.747 260.003 145.886C260.394 146.029 260.839 146.099 261.338 146.099C261.696 146.099 262.057 146.073 262.428 146.016C262.8 145.96 263.148 145.88 263.472 145.77V147.246C263.144 147.34 262.79 147.413 262.408 147.466C262.027 147.519 261.632 147.546 261.224 147.546C260.424 147.546 259.725 147.433 259.119 147.207C258.514 146.98 258.009 146.661 257.601 146.245C257.196 145.833 256.888 145.338 256.684 144.762C256.48 144.187 256.376 143.552 256.376 142.857C256.376 142.142 256.486 141.48 256.704 140.868C256.921 140.257 257.236 139.728 257.647 139.279C258.059 138.83 258.571 138.477 259.19 138.221C259.805 137.965 260.504 137.832 261.284 137.829C261.682 137.829 262.06 137.856 262.418 137.909C262.773 137.962 263.097 138.039 263.382 138.138V139.595C263.007 139.478 262.656 139.395 262.331 139.349C262.013 139.305 261.696 139.282 261.384 139.282Z" fill="white"/>
<path d="M269.866 144.686C269.866 144.446 269.805 144.257 269.688 144.107C269.571 143.961 269.411 143.841 269.21 143.748C269.009 143.655 268.782 143.579 268.531 143.522C268.28 143.462 268.015 143.406 267.738 143.349C267.37 143.269 267.022 143.176 266.687 143.066C266.353 142.957 266.062 142.804 265.807 142.611C265.553 142.418 265.352 142.172 265.202 141.873C265.051 141.573 264.978 141.201 264.978 140.752C264.978 140.257 265.065 139.828 265.239 139.462C265.413 139.096 265.647 138.793 265.948 138.551C266.246 138.311 266.597 138.132 266.998 138.012C267.4 137.892 267.851 137.832 268.353 137.832C268.855 137.832 269.36 137.882 269.869 137.979C270.374 138.075 270.812 138.201 271.177 138.358V139.828C270.689 139.638 270.22 139.498 269.772 139.412C269.324 139.325 268.902 139.282 268.507 139.282C267.938 139.282 267.5 139.385 267.192 139.591C266.885 139.798 266.731 140.104 266.731 140.516C266.731 140.752 266.781 140.948 266.881 141.104C266.982 141.257 267.119 141.384 267.293 141.487C267.467 141.587 267.667 141.67 267.892 141.73C268.116 141.789 268.357 141.846 268.611 141.899C269.009 141.982 269.39 142.079 269.755 142.189C270.12 142.298 270.441 142.451 270.722 142.647C271.003 142.844 271.227 143.1 271.391 143.416C271.555 143.731 271.639 144.134 271.639 144.623C271.639 145.128 271.545 145.564 271.358 145.933C271.17 146.302 270.903 146.605 270.558 146.847C270.213 147.087 269.795 147.266 269.3 147.383C268.808 147.499 268.266 147.559 267.681 147.559C267.169 147.559 266.667 147.509 266.172 147.409C265.677 147.31 265.265 147.167 264.937 146.987V145.537C265.402 145.737 265.854 145.883 266.296 145.973C266.737 146.066 267.192 146.109 267.661 146.109C267.932 146.109 268.199 146.086 268.464 146.043C268.728 145.999 268.962 145.923 269.173 145.816C269.38 145.71 269.548 145.564 269.675 145.378C269.799 145.185 269.866 144.959 269.866 144.686Z" fill="white"/>
<path d="M278.189 144.686C278.189 144.446 278.129 144.257 278.012 144.107C277.895 143.961 277.734 143.841 277.534 143.748C277.333 143.655 277.105 143.579 276.855 143.522C276.604 143.462 276.339 143.406 276.062 143.349C275.694 143.269 275.346 143.176 275.011 143.066C274.677 142.957 274.385 142.804 274.131 142.611C273.877 142.418 273.676 142.172 273.526 141.873C273.375 141.573 273.301 141.201 273.301 140.752C273.301 140.257 273.388 139.828 273.562 139.462C273.736 139.096 273.971 138.793 274.272 138.551C274.569 138.311 274.921 138.132 275.322 138.012C275.724 137.892 276.175 137.832 276.677 137.832C277.179 137.832 277.684 137.882 278.193 137.979C278.698 138.075 279.136 138.201 279.501 138.358V139.828C279.012 139.638 278.544 139.498 278.096 139.412C277.647 139.325 277.226 139.282 276.831 139.282C276.262 139.282 275.824 139.385 275.516 139.591C275.208 139.798 275.055 140.104 275.055 140.516C275.055 140.752 275.105 140.948 275.205 141.104C275.305 141.261 275.443 141.384 275.617 141.487C275.791 141.587 275.991 141.67 276.215 141.73C276.44 141.789 276.681 141.846 276.935 141.899C277.333 141.982 277.714 142.079 278.079 142.189C278.444 142.298 278.765 142.451 279.046 142.647C279.327 142.844 279.551 143.1 279.715 143.416C279.879 143.731 279.963 144.134 279.963 144.623C279.963 145.128 279.869 145.564 279.682 145.933C279.494 146.302 279.227 146.605 278.882 146.847C278.537 147.087 278.119 147.266 277.624 147.383C277.132 147.499 276.59 147.559 276.005 147.559C275.493 147.559 274.991 147.509 274.496 147.409C274.001 147.31 273.589 147.167 273.261 146.987V145.537C273.726 145.737 274.178 145.883 274.62 145.973C275.061 146.066 275.516 146.109 275.985 146.109C276.256 146.109 276.523 146.086 276.788 146.043C277.049 145.999 277.286 145.923 277.497 145.816C277.704 145.71 277.872 145.564 277.999 145.378C278.123 145.185 278.189 144.959 278.189 144.686Z" fill="white"/>
<path d="M219.815 88.9787H193.609C192.418 88.9787 191.455 88.021 191.455 86.8371V60.7897C191.455 59.6059 192.418 58.6482 193.609 58.6482H219.815C221.006 58.6482 221.97 59.6059 221.97 60.7897V86.8371C221.97 88.021 221.006 88.9787 219.815 88.9787Z" fill="#BBBCEA"/>
<path d="M206.71 81.8456C211.173 81.8456 214.79 78.2501 214.79 73.8149C214.79 69.3796 211.173 65.7842 206.71 65.7842C202.248 65.7842 198.631 69.3796 198.631 73.8149C198.631 78.2501 202.248 81.8456 206.71 81.8456Z" fill="#E7E9F8"/>
<path d="M387.955 245.018H347.487C345.011 245.018 343.004 243.022 343.004 240.562V200.338C343.004 197.878 345.011 195.882 347.487 195.882H387.955C390.431 195.882 392.439 197.878 392.439 200.338V240.562C392.435 243.022 390.431 245.018 387.955 245.018Z" fill="#E7E9F8"/>
<path d="M367.718 205.858C359.605 205.858 353.037 212.386 353.037 220.45C353.037 228.504 359.605 235.041 367.718 235.041C371.191 235.041 374.376 233.851 376.881 231.849C380.247 229.172 382.398 225.059 382.398 220.45C382.398 212.389 375.831 205.858 367.718 205.858ZM373.131 228.351C371.589 229.395 369.732 230.007 367.721 230.007C362.408 230.007 358.099 225.73 358.099 220.45C358.099 215.169 362.408 210.886 367.721 210.886C373.034 210.886 377.343 215.169 377.343 220.45C377.34 223.738 375.674 226.635 373.131 228.351Z" fill="white"/>
<path d="M382.398 220.45C382.398 225.059 380.247 229.172 376.881 231.849L373.131 228.347C375.677 226.635 377.343 223.735 377.343 220.45C377.343 215.169 373.034 210.886 367.721 210.886V205.858C375.831 205.858 382.398 212.389 382.398 220.45Z" fill="#BBBCEA"/>
<path d="M546.944 326.057H522.568C520.093 326.057 518.085 324.062 518.085 321.601V297.373C518.085 294.912 520.093 292.917 522.568 292.917H546.944C549.42 292.917 551.428 294.912 551.428 297.373V321.601C551.428 324.065 549.42 326.057 546.944 326.057Z" fill="#E7E9F8"/>
<path d="M544.191 310.487L545.355 309.875C545.854 309.612 546.148 309.073 546.088 308.515C546.068 308.328 546.044 308.142 546.014 307.956C545.921 307.361 545.436 306.902 544.837 306.819L543.86 306.686C543.401 306.623 543.003 306.337 542.806 305.921C542.689 305.675 542.562 305.432 542.424 305.199C542.21 304.84 542.19 304.401 542.348 304.015L542.806 302.891C543.02 302.366 542.893 301.758 542.471 301.372C542.378 301.285 542.284 301.202 542.187 301.119C541.732 300.73 541.069 300.69 540.561 301.006L539.708 301.538C539.316 301.781 538.835 301.811 538.413 301.625C538.092 301.482 537.761 301.355 537.416 301.252C536.991 301.119 536.657 300.79 536.52 300.368L536.178 299.313C535.998 298.758 535.486 298.369 534.904 298.359C534.853 298.359 534.803 298.359 534.756 298.359C534.706 298.359 534.653 298.359 534.602 298.359C534.017 298.369 533.505 298.758 533.328 299.313L532.987 300.368C532.849 300.79 532.515 301.119 532.09 301.252C531.749 301.358 531.417 301.482 531.093 301.625C530.675 301.811 530.19 301.781 529.798 301.538L528.945 301.006C528.436 300.69 527.774 300.727 527.319 301.119C527.222 301.202 527.128 301.285 527.035 301.372C526.613 301.758 526.486 302.366 526.7 302.891L527.162 304.019C527.319 304.404 527.296 304.843 527.085 305.203C526.948 305.435 526.821 305.675 526.703 305.921C526.506 306.337 526.108 306.626 525.65 306.689L524.673 306.822C524.07 306.905 523.585 307.364 523.495 307.959C523.465 308.142 523.441 308.328 523.421 308.515C523.361 309.073 523.652 309.612 524.154 309.875L525.315 310.483C525.683 310.676 525.941 311.025 526.021 311.431C526.044 311.547 526.071 311.664 526.098 311.78C526.205 312.226 526.095 312.691 525.783 313.03L525.084 313.802C524.686 314.238 524.606 314.883 524.9 315.391C525.037 315.628 525.181 315.86 525.335 316.083C525.65 316.542 526.218 316.758 526.764 316.642L528.072 316.362C528.48 316.276 528.905 316.376 529.229 316.635L529.239 316.645C529.581 316.918 529.771 317.337 529.755 317.769L529.715 318.91C529.694 319.482 530.029 320.017 530.564 320.23C530.859 320.346 531.16 320.453 531.464 320.546C532.01 320.712 532.602 320.516 532.95 320.067L533.796 318.983C534.024 318.694 534.372 318.524 534.743 318.524C534.746 318.524 534.753 318.524 534.756 318.524C535.128 318.524 535.476 318.694 535.703 318.983L536.55 320.067C536.898 320.516 537.49 320.709 538.035 320.546C538.343 320.453 538.641 320.346 538.935 320.23C539.47 320.017 539.805 319.482 539.785 318.91L539.745 317.769C539.728 317.333 539.919 316.918 540.26 316.645L540.27 316.635C540.594 316.376 541.019 316.273 541.427 316.362L542.736 316.642C543.281 316.758 543.853 316.542 544.164 316.083C544.318 315.857 544.462 315.628 544.599 315.391C544.894 314.883 544.813 314.238 544.415 313.802L543.716 313.03C543.408 312.691 543.294 312.222 543.401 311.78C543.428 311.664 543.455 311.547 543.478 311.431C543.565 311.029 543.823 310.679 544.191 310.487ZM535.656 314.756C532.043 315.348 528.958 312.299 529.537 308.711C529.888 306.533 531.645 304.774 533.83 304.401C537.453 303.786 540.564 306.855 539.969 310.463C539.614 312.641 537.848 314.401 535.656 314.756Z" fill="white"/>
<path d="M95.8592 44.2214H71.4832C69.0074 44.2214 67 42.2261 67 39.7654V15.5369C67 13.0761 69.0074 11.0809 71.4832 11.0809H95.8592C98.335 11.0809 100.342 13.0761 100.342 15.5369V39.7654C100.342 42.2295 98.335 44.2214 95.8592 44.2214Z" fill="#E7E9F8"/>
<path d="M93.1058 28.6528L94.27 28.0409C94.7685 27.7782 95.0629 27.2396 95.0027 26.6809C94.9826 26.4947 94.9592 26.3084 94.9291 26.1222C94.8354 25.527 94.3503 25.0681 93.7514 24.985L92.7745 24.852C92.3162 24.7888 91.9181 24.5028 91.7207 24.0871C91.6036 23.841 91.4764 23.5983 91.3393 23.3655C91.1252 23.0064 91.1051 22.5674 91.2623 22.1817L91.7207 21.0577C91.9348 20.5323 91.8077 19.9238 91.3862 19.5381C91.2925 19.4516 91.1988 19.3685 91.1017 19.2853C90.6467 18.8963 89.9843 18.8563 89.4757 19.1722L88.6227 19.7043C88.2312 19.9471 87.7494 19.977 87.3279 19.7908C87.0067 19.6478 86.6755 19.5214 86.3309 19.4183C85.906 19.2853 85.5715 18.9561 85.4343 18.5338L85.093 17.4796C84.9124 16.9243 84.4005 16.5352 83.8184 16.5253C83.7682 16.5253 83.718 16.5253 83.6712 16.5253C83.621 16.5253 83.5675 16.5253 83.5173 16.5253C82.9318 16.5352 82.4199 16.9243 82.2426 17.4796L81.9013 18.5338C81.7642 18.9561 81.4296 19.2853 81.0047 19.4183C80.6635 19.5247 80.3323 19.6478 80.0077 19.7908C79.5895 19.977 79.1044 19.9471 78.7129 19.7043L77.8598 19.1722C77.3513 18.8563 76.6889 18.8929 76.2339 19.2853C76.1369 19.3685 76.0432 19.4516 75.9495 19.5381C75.5279 19.9238 75.4008 20.5323 75.6149 21.0577L76.0766 22.185C76.2339 22.5708 76.2105 23.0097 75.9997 23.3688C75.8625 23.6016 75.7354 23.841 75.6183 24.0871C75.4209 24.5028 75.0228 24.7921 74.5644 24.8553L73.5875 24.9883C72.9852 25.0714 72.5001 25.5303 72.4098 26.1255C72.3797 26.3084 72.3563 26.4947 72.3362 26.6809C72.276 27.2396 72.5671 27.7782 73.069 28.0409L74.2299 28.6495C74.5979 28.8423 74.8555 29.1915 74.9357 29.5972C74.9592 29.7136 74.9859 29.83 75.0127 29.9464C75.1197 30.392 75.0094 30.8575 74.6982 31.1967L73.999 31.9682C73.6008 32.4038 73.5206 33.0489 73.815 33.5577C73.9522 33.7938 74.096 34.0266 74.2499 34.2494C74.5644 34.7083 75.1331 34.9244 75.6785 34.808L76.9866 34.5287C77.3948 34.4422 77.8197 34.542 78.1442 34.8014L78.1543 34.8114C78.4955 35.084 78.6862 35.503 78.6695 35.9353L78.6293 37.0759C78.6092 37.6479 78.9438 38.1833 79.4791 38.3961C79.7735 38.5125 80.0746 38.6189 80.3791 38.712C80.9244 38.8782 81.5165 38.6821 81.8645 38.2331L82.7109 37.1491C82.9384 36.8598 83.2864 36.6902 83.6578 36.6902C83.6611 36.6902 83.6678 36.6902 83.6712 36.6902C84.0425 36.6902 84.3904 36.8598 84.6179 37.1491L85.4644 38.2331C85.8123 38.6821 86.4045 38.8749 86.9499 38.712C87.2577 38.6189 87.5554 38.5125 87.8498 38.3961C88.3851 38.1833 88.7197 37.6479 88.6996 37.0759L88.6594 35.9353C88.6427 35.4997 88.8334 35.084 89.1747 34.8114L89.1847 34.8014C89.5092 34.542 89.9341 34.4389 90.3423 34.5287L91.6504 34.808C92.1957 34.9244 92.7678 34.7083 93.079 34.2494C93.2329 34.0233 93.3767 33.7938 93.5139 33.5577C93.8083 33.0489 93.728 32.4038 93.3299 31.9682L92.6307 31.1967C92.3229 30.8575 92.2091 30.3886 92.3162 29.9464C92.3429 29.83 92.3698 29.7136 92.3932 29.5972C92.4802 29.1949 92.7377 28.8457 93.1058 28.6528ZM84.5711 32.9226C80.9579 33.5145 77.8732 30.4651 78.452 26.8771C78.8033 24.699 80.5597 22.9399 82.7444 22.5674C86.3677 21.9523 89.4791 25.0215 88.8836 28.6295C88.5289 30.8076 86.7625 32.5668 84.5711 32.9226Z" fill="white"/>
<path d="M331.16 330.38H288.952C285.412 330.38 282.542 327.526 282.542 324.008V323.579C282.542 320.061 285.412 317.208 288.952 317.208H331.16C334.7 317.208 337.571 320.061 337.571 323.579V324.008C337.571 327.526 334.7 330.38 331.16 330.38Z" fill="#FC3C87"/>
<path d="M291.956 330.379L282.542 399.25H284.382L300.25 330.379H291.956Z" fill="#6B3485"/>
<path d="M329.176 330.379L338.591 399.25H336.748L320.883 330.379H329.176Z" fill="#6B3485"/>
<path d="M386.212 400.179C386.212 402.304 420.555 404.023 462.92 404.023C505.286 404.023 539.629 402.3 539.629 400.179C539.629 398.054 505.286 396.335 462.92 396.335C420.555 396.335 386.212 398.057 386.212 400.179Z" fill="#E7E9F8"/>
<path d="M436.473 284.193L438.079 292.253V292.277L443.814 321.061L444.463 324.32L451.843 361.371L452.489 364.626L459.568 400.178H462.92L439.692 283.558L438.079 283.874L436.587 284.166L436.473 284.193Z" fill="#EF91B3"/>
<path d="M466.564 400.178H469.916L491.395 292.287V292.277L493.011 284.193L491.395 283.874L489.789 283.558L466.564 400.178Z" fill="#EF91B3"/>
<path d="M416.597 400.178L423.676 364.626L424.326 361.371L431.706 324.32L432.352 321.061L438.079 292.287V292.253L439.692 284.193L438.079 283.874L436.473 283.558L413.248 400.178H416.59" fill="#EF91B3"/>
<path d="M489.789 284.193L491.395 292.277V292.287L512.884 400.178H516.236L493.011 283.558L491.395 283.874L489.789 284.193Z" fill="#EF91B3"/>
<path d="M507.159 361.371H422.328V364.627H507.159V361.371Z" fill="#EF91B3"/>
<path d="M498.692 321.061H430.08V324.32H498.692V321.061Z" fill="#EF91B3"/>
<path d="M413.248 400.178H416.59L423.67 364.626H452.489L451.843 361.371H424.315L431.696 324.32H444.463L443.814 321.061H432.345L438.079 292.277V292.253L436.587 284.166L436.473 283.558L413.248 400.178Z" fill="#CE4676"/>
<path d="M493.008 283.558H489.796L492.181 286.793L493.008 283.558Z" fill="#EF91B3"/>
<path d="M439.689 283.558H436.477L439.066 287.322L439.689 283.558Z" fill="#EF91B3"/>
<path d="M460.006 90.1236L459.207 87.1208C459.207 87.1208 454.175 84.3974 460.127 78.7975C465.794 73.4636 481.586 78.1391 485.356 87.1275C489.127 96.1159 490.09 102.228 502.272 106.903C514.45 111.579 517.705 122.363 511.676 135.308C505.647 148.254 517.223 153.767 509.384 160.239C501.546 166.71 492.623 165.153 488.524 157.362C484.426 149.571 478.394 133.513 472.606 125.362C466.818 117.212 460.006 90.1236 460.006 90.1236Z" fill="#1F1C37"/>
<path d="M455.59 306.683L455.185 312.735H447.367L446.577 306.683H455.59Z" fill="#F7B6B0"/>
<path d="M455.185 312.735C455.185 312.735 456.099 320.805 455.185 321.411C454.272 322.016 434.68 321.411 434.68 321.411C434.68 321.411 432.649 320.706 433.971 319.09C435.289 317.477 446.253 314.447 447.37 312.731H455.185V312.735Z" fill="#1F1C37"/>
<path d="M497.062 303.57L499.03 309.981L491.365 311.508L489.394 305.725L497.062 303.57Z" fill="#F7B6B0"/>
<path d="M499.03 309.982C499.03 309.982 501.937 317.454 500.743 318.491C499.388 319.669 496.945 319.007 493.71 319.565C490.532 320.114 487.678 320.955 486.611 321.095C483.262 321.531 480.639 321.411 480.639 321.411C480.639 321.411 478.508 321.115 479.485 319.273C479.883 318.518 482.131 318.149 484.309 316.912C486.939 315.415 490.923 312.625 491.372 311.505L499.03 309.982Z" fill="#1F1C37"/>
<path d="M439.675 184.666C439.675 184.666 432.934 215.565 437.347 249.471C441.759 283.376 446.678 311.465 446.678 311.465L456.122 310.65C456.122 310.65 459.521 224.82 459.772 219.386C460.023 213.949 458.414 183.05 458.414 183.05L439.675 184.666Z" fill="#1777AA"/>
<path d="M451.542 188.863C451.542 188.863 459.26 231.381 468.628 259.151C477.996 286.921 489.943 309.49 489.943 309.49L499.026 307.365C499.026 307.365 488.401 268.578 486.29 242.255C484.175 215.931 478.685 189.821 475.376 183.369C472.067 176.918 451.542 188.863 451.542 188.863Z" fill="#42A1CD"/>
<path d="M461.452 117.271C461.452 117.271 450.779 117.81 443.001 125.002C435.222 132.195 425.276 138.666 423.285 138.487C421.294 138.307 399.591 131.294 399.591 131.294L397.059 137.406C397.059 137.406 413.339 145.676 420.752 147.834C428.17 149.992 451.515 133.512 446.955 138.802C443.7 142.577 441.582 151.432 444.553 156.104C447.524 160.78 438.705 185.68 438.705 185.68C438.705 185.68 440.652 189.903 454.396 189.724C468.143 189.544 474.908 185.002 476.216 185.314C477.524 185.623 470.676 172.465 473.931 161.678C477.186 150.89 482.071 144.06 483.155 137.948C484.239 131.836 487.38 126.04 487.38 126.04C487.38 126.04 487.139 119.429 461.452 117.271Z" fill="#FC3C87"/>
<path d="M459.207 87.1241C459.207 87.1241 451.505 107.266 461.636 110.621C461.636 110.621 459.705 119.011 460.552 119.969C461.395 120.926 467.286 125.083 473.626 118.871C473.626 118.871 471.629 109.421 473.626 107.385C475.624 105.347 478.759 103.791 479.244 100.555C479.725 97.3196 476.711 98.397 475.748 98.8758C474.784 99.3547 471.649 96.3586 469.237 91.0846C466.818 85.8106 460.267 83.8952 459.207 87.1241Z" fill="#F7B6B0"/>
<path d="M399.595 131.294C399.595 131.294 392.964 128.358 389.043 127.28C385.125 126.203 384.884 127.699 385.306 128.058C385.727 128.418 390.913 129.256 390.251 131.294C389.588 133.332 388.802 136.209 397.062 137.406L399.595 131.294Z" fill="#F7B6B0"/>
<path d="M460.378 174.022H439.284L428.735 141.344H449.829L460.378 174.022Z" fill="#FFA171"/>
<path d="M460.006 164.86C460.006 164.86 456.57 165.991 453.857 166.469C451.144 166.948 447.708 166.589 447.828 168.328C447.949 170.067 453.676 172.282 460.006 171.025V164.86Z" fill="#F7B6B0"/>
<g opacity="0.7">
<path d="M479.173 130.796C479.173 130.796 473.536 148.121 473.934 161.678C473.934 161.678 478.314 149.281 482.231 141.347C486.149 133.409 479.173 130.796 479.173 130.796Z" fill="#DE3577"/>
</g>
<path d="M460.006 164.86V171.026C460.006 171.026 490.937 174.441 494.372 165.991C497.808 157.541 491.274 123.982 484.864 123.503C478.454 123.024 475.56 137.227 484.423 160.777L460.006 164.86Z" fill="#DE3577"/>
<path d="M461.636 110.621C461.636 110.621 466.494 110.847 469.207 109.317C471.92 107.788 472.094 111.828 461.02 113.584L461.636 110.621Z" fill="#E39E98"/>
<path d="M273.358 370.406L276.868 376.428V379.405L269.996 380.805L264.419 373.219L273.358 370.406Z" fill="#F7B6B0"/>
<path d="M269.996 380.805L276.871 376.428C276.871 376.428 283.097 380.981 282.642 382.893C282.191 384.805 277.888 387.505 276.53 389.87C275.172 392.231 272.227 396.171 267.473 396.507C262.719 396.843 260.454 397.046 261.926 394.681C263.398 392.32 268.266 390.88 268.945 386.667C269.464 383.448 269.996 380.805 269.996 380.805Z" fill="#1F1C37"/>
<path d="M292.157 293.115C292.157 293.115 239.511 308.884 235.908 311.394C232.301 313.902 222.204 323.252 235.908 341.246C249.611 359.239 264.392 381.283 265.657 381.283C266.918 381.283 277.557 374.114 278.096 373.578C278.638 373.04 257.182 334.692 256.64 332.899C256.098 331.107 283.864 306.556 283.864 306.556L304.121 292.104L292.157 293.115Z" fill="#1777AA"/>
<path d="M266.918 186.132C265.597 188.247 265.024 193.478 270.796 196.438C276.563 199.394 294.255 217.537 294.255 217.537C294.255 217.537 295.135 217.584 295.587 212.832C296.038 208.083 301.625 206.291 300.906 195.809C300.183 185.324 293.245 184.25 290.09 184.699C286.928 185.145 271.515 178.783 266.918 186.132Z" fill="#1F1C37"/>
<path d="M270.792 196.434C270.792 196.434 268.357 210.86 272.505 216.416C276.65 221.973 281.16 220.001 281.88 220.626C282.602 221.255 284.489 224.42 284.489 224.42L295.583 219.549C295.583 219.549 289.635 210.767 290.083 209.692C290.535 208.618 292.816 206.377 291.629 203.062C290.441 199.746 287.828 201.988 287.467 203.241C287.105 204.495 285.035 205.123 284.312 199.926C283.589 194.728 284.673 194.818 283.589 194.728C282.512 194.642 278.367 197.153 270.792 196.434Z" fill="#F7B6B0"/>
<path d="M256.64 379.509L256.416 388.809L251.361 391.36L246.453 388.809L247.286 375.758L256.64 379.509Z" fill="#F7B6B0"/>
<path d="M246.453 388.809C246.453 388.809 242.04 390.608 237.624 391.735C233.211 392.859 227.437 394.884 228.002 396.573C228.567 398.259 238.641 398.259 241.923 397.81C245.205 397.361 248.025 397.371 251.317 398.063C256.145 399.081 257.624 398.11 257.544 395.034C257.463 391.964 256.413 388.809 256.413 388.809H246.453Z" fill="#1F1C37"/>
<path d="M329.026 295.442C329.026 295.442 330.378 316.139 301.441 321.786C272.505 327.432 265.202 328.237 263.308 334.688C261.414 341.139 258.44 383.431 257.36 383.611C256.279 383.79 243.479 383.072 242.937 382.892C242.395 382.713 243.117 328.952 244.559 320.173C246.001 311.391 302.974 291.948 302.974 291.948L329.026 295.442Z" fill="#42A1CD"/>
<path d="M299.728 224.301C299.728 224.301 290.535 225.913 287.109 231.826C283.683 237.738 282.422 254.584 284.944 266.413C287.467 278.241 287.202 294.605 287.828 294.419C288.454 294.229 293.777 294.01 306.761 296.879C319.742 299.746 329.658 295.446 330.92 294.372C332.181 293.298 329.297 283.884 324.79 264.398C320.284 244.908 313.432 228.065 299.728 224.301Z" fill="#FF8C52"/>
<path d="M283.616 225.198C282.89 225.97 287.109 231.829 287.109 231.829L299.728 224.304C299.728 224.304 298.286 219.286 296.844 218.747C295.403 218.209 285.891 222.778 283.616 225.198Z" fill="#FFA171"/>
<path d="M243.499 273.067C243.499 273.067 236.674 272.528 234.643 273.403C232.616 274.277 228.019 278.644 229.437 279.049C230.856 279.452 235.724 277.034 237.483 277.503C239.24 277.972 243.659 279.049 243.659 279.049L243.499 273.067Z" fill="#F7B6B0"/>
<path d="M281.88 220.626C281.88 220.626 285.667 218.205 286.476 214.444C287.289 210.68 289.896 216.273 283.271 222.481L281.88 220.626Z" fill="#E39E98"/>
<path d="M286.965 282.764C286.965 282.764 301.863 263.909 307.018 240.698L286.205 274.298L286.965 282.764Z" fill="#F2854E"/>
<path d="M296.359 230.565C292.666 233.648 277.734 266.053 277.192 266.592C276.65 267.131 244.017 271.79 243.659 272.505C243.298 273.223 243.659 279.046 243.659 279.046C243.659 279.046 283.144 281.643 287.651 273.223C292.157 264.8 305.664 246.341 307.417 239.444C309.17 232.544 300.966 226.721 296.359 230.565Z" fill="#FFA171"/>
<path d="M120.113 246.278H116.369L120.678 255.962L123.294 256.863H126.426L120.113 246.278Z" fill="#683987"/>
<defs>
<linearGradient id="paint0_linear_18_787" x1="179.379" y1="91.7113" x2="126.94" y2="139.148" gradientUnits="userSpaceOnUse">
<stop stop-color="white"/>
<stop offset="1" stop-color="#231F20"/>
</linearGradient>
<linearGradient id="paint1_linear_18_787" x1="136.699" y1="81.8744" x2="158.027" y2="81.8744" gradientUnits="userSpaceOnUse">
<stop stop-color="white"/>
<stop offset="1" stop-color="#231F20"/>
</linearGradient>
<linearGradient id="paint2_linear_18_787" x1="11.5166" y1="287.327" x2="46.974" y2="365.868" gradientUnits="userSpaceOnUse">
<stop stop-color="#40E586"/>
<stop offset="1" stop-color="#328784"/>
</linearGradient>
<linearGradient id="paint3_linear_18_787" x1="118.677" y1="306.928" x2="92.1224" y2="365.748" gradientUnits="userSpaceOnUse">
<stop stop-color="#40E586"/>
<stop offset="1" stop-color="#328784"/>
</linearGradient>
<linearGradient id="paint4_linear_18_787" x1="54.7947" y1="250.187" x2="54.6241" y2="351.653" gradientUnits="userSpaceOnUse">
<stop stop-color="#40E586"/>
<stop offset="1" stop-color="#328784"/>
</linearGradient>
</defs>
</svg>
