<svg xmlns="http://www.w3.org/2000/svg" version="1.1" xmlns:xlink="http://www.w3.org/1999/xlink" width="512" height="512" x="0" y="0" viewBox="0 0 94.5 94.5" style="enable-background:new 0 0 512 512" xml:space="preserve" class=""><g><path d="M84.762 41.232c-4.92 3.529-11.826 8.222-14.941 8.222-.617 0-.815-.186-.959-.361-1.272-1.568-.928-7.066 1.025-16.335a1.954 1.954 0 0 0-3.535-1.494c-6.721 10.021-9.799 12.123-11.194 12.123-1.979 0-3.99-5.692-5.986-16.92a1.949 1.949 0 0 0-1.813-1.601v-.011c-.019 0-.037.004-.056.004-.019 0-.04-.004-.058-.004v.011a1.952 1.952 0 0 0-1.811 1.601c-1.998 11.228-4.011 16.92-5.988 16.92-1.396 0-4.472-2.103-11.192-12.123a1.955 1.955 0 0 0-3.536 1.494c1.952 9.269 2.299 14.767 1.024 16.335-.141.176-.342.361-.958.361-3.115 0-10.021-4.692-14.943-8.222a1.951 1.951 0 0 0-2.52.209 1.953 1.953 0 0 0-.207 2.52c11.253 14.392 9.135 30.91 9.135 30.91a3.996 3.996 0 0 0-.063.709c0 4.058 5.682 5.664 10.631 6.61 5.453 1.045 12.635 1.627 20.266 1.647v.002c.073 0 .147 0 .22-.002.073.002.146.002.221.002v-.002c7.629-.021 14.812-.603 20.263-1.647 4.95-.946 10.633-2.555 10.633-6.61 0-.246-.022-.479-.063-.709 0 0-2.117-16.521 9.134-30.91a1.952 1.952 0 0 0-.205-2.52 1.96 1.96 0 0 0-2.524-.209zm-37.24 37.006h-.015c-.07 0-.137.003-.206.003-.07 0-.135-.003-.205-.003h-.015c-12.127-.035-20.144-1.446-23.682-2.657 3.538-1.213 11.555-2.624 23.682-2.658H47.52c12.126.034 20.142 1.445 23.681 2.658-3.537 1.211-11.553 2.622-23.679 2.657z" fill="#ffffff" opacity="1" data-original="#000000" class=""></path><circle cx="47.302" cy="16.573" r="5.914" fill="#ffffff" opacity="1" data-original="#000000" class=""></circle><circle cx="22.339" cy="23.718" r="4.928" fill="#ffffff" opacity="1" data-original="#000000" class=""></circle><circle cx="71.855" cy="23.718" r="4.928" fill="#ffffff" opacity="1" data-original="#000000" class=""></circle><circle cx="3.322" cy="37.759" r="3.322" fill="#ffffff" opacity="1" data-original="#000000" class=""></circle><circle cx="91.178" cy="37.759" r="3.322" fill="#ffffff" opacity="1" data-original="#000000" class=""></circle></g></svg>