<svg width="16" height="17" viewBox="0 0 16 17" fill="none" xmlns="http://www.w3.org/2000/svg">
<path d="M8 16.6001C12.4183 16.6001 16 13.0184 16 8.6001C16 4.18182 12.4183 0.600098 8 0.600098C3.58172 0.600098 0 4.18182 0 8.6001C0 13.0184 3.58172 16.6001 8 16.6001Z" fill="#FF2147"/>
<path d="M7.90434 12.9731H7.11122C6.93184 12.9731 6.81184 12.8575 6.81122 12.6787C6.87684 10.6197 6.44028 10.7768 7.92653 10.7853C9.35466 10.775 8.93247 10.6353 8.99809 12.6534C8.99809 12.8631 8.88841 12.9731 8.68028 12.9734L7.90434 12.9731ZM7.87184 10.35C7.61309 10.35 7.35434 10.3481 7.09559 10.35C6.88434 10.3634 6.84309 10.1225 6.81434 9.96403C6.74091 9.28028 7.02528 8.74934 7.52841 8.31184C7.88153 7.97403 8.36466 7.83278 8.73841 7.52778C9.08653 7.22747 9.05091 6.72059 8.67997 6.45372C8.27622 6.16434 7.63372 6.13403 7.21966 6.40184C6.92684 6.60747 6.71091 6.90934 6.47903 7.17903C6.34216 7.34184 6.20684 7.35934 6.03778 7.23122C5.68257 6.96205 5.32841 6.69195 4.97528 6.42091C4.82591 6.30653 4.80622 6.17403 4.90372 6.01466C5.88184 4.22716 8.36872 3.64591 9.99997 4.88966C11.0937 5.60122 11.5765 7.20059 10.7265 8.27903C10.3943 8.74778 9.83091 8.95278 9.38997 9.29528C8.76747 9.81872 9.15622 10.3112 8.64841 10.35H7.87184Z" fill="white"/>
</svg>
