<svg xmlns="http://www.w3.org/2000/svg" width="1200" height="350" viewBox="0 0 1200 350" fill="none"><script xmlns="" src="chrome-extension://hoklmmgfnpapgjgcpechhaamimifchmp/frame_ant/frame_ant.js"/>
<rect width="1200" height="350" rx="10" fill="white"/>
<rect width="1200" height="350" rx="5" transform="matrix(-1 0 0 1 1200 0)" fill="url(#paint0_linear_235_633)"/>
<g opacity="0.2">
<path d="M781.813 52.2515C782.226 52.2515 782.616 52.4115 782.906 52.7036L786.269 56.0636C786.873 56.6665 786.873 57.6451 786.269 58.248C785.977 58.5402 785.589 58.7002 785.176 58.7002C784.763 58.7002 784.375 58.5402 784.083 58.248L780.719 54.888C780.118 54.2851 780.118 53.3065 780.719 52.7036C781.012 52.4138 781.4 52.2515 781.813 52.2515Z" fill="white"/>
<path d="M774.48 48.0195C774.067 48.0195 773.677 47.8572 773.387 47.5673L770.024 44.2073C769.42 43.6044 769.42 42.6235 770.024 42.023C770.316 41.7308 770.704 41.5708 771.117 41.5708C771.53 41.5708 771.92 41.7308 772.21 42.023L775.574 45.383C775.866 45.6752 776.026 46.0624 776.026 46.4752C776.026 46.8879 775.866 47.2752 775.574 47.5673C775.283 47.8572 774.894 48.0195 774.48 48.0195Z" fill="white"/>
<path d="M783.154 50.3412C782.456 50.3412 781.843 49.8705 781.659 49.1957C781.439 48.3725 781.931 47.5238 782.753 47.3035L787.348 46.0722C788.17 45.8542 789.02 46.3458 789.24 47.1667C789.347 47.5655 789.293 47.9829 789.085 48.34C788.878 48.6971 788.544 48.9545 788.145 49.0612L783.551 50.2902C783.423 50.3226 783.289 50.3412 783.154 50.3412Z" fill="white"/>
<path d="M768.146 51.2126L772.742 49.9813C773.566 49.761 774.415 50.2527 774.634 51.0758C774.854 51.899 774.362 52.7477 773.54 52.968L768.947 54.197C768.817 54.2318 768.682 54.2503 768.548 54.2503C767.849 54.2503 767.234 53.7796 767.053 53.1048C766.832 52.2816 767.322 51.4329 768.146 51.2126Z" fill="white"/>
<path d="M777.994 44.7338L779.225 40.1448C779.445 39.3239 780.295 38.8323 781.119 39.0526C781.943 39.2729 782.432 40.1216 782.212 40.9448L780.982 45.5338C780.801 46.2086 780.185 46.6793 779.487 46.6793C779.352 46.6793 779.218 46.6608 779.088 46.626C778.266 46.4057 777.774 45.557 777.994 44.7338Z" fill="white"/>
<path d="M775.311 54.7373C775.532 53.9164 776.381 53.4271 777.205 53.6451C778.029 53.8654 778.519 54.7141 778.298 55.5373L777.068 60.1286C776.887 60.8011 776.272 61.2718 775.574 61.2718C775.441 61.2718 775.307 61.2556 775.172 61.2185C774.348 60.9982 773.858 60.1495 774.079 59.3263L775.311 54.7373Z" fill="white"/>
</g>
<g opacity="0.2">
<path d="M326.813 261.251C327.226 261.251 327.616 261.411 327.906 261.704L331.269 265.064C331.873 265.667 331.873 266.645 331.269 267.248C330.977 267.54 330.589 267.7 330.176 267.7C329.763 267.7 329.375 267.54 329.083 267.248L325.719 263.888C325.118 263.285 325.118 262.307 325.719 261.704C326.012 261.414 326.4 261.251 326.813 261.251Z" fill="white"/>
<path d="M319.48 257.02C319.067 257.02 318.677 256.857 318.387 256.567L315.024 253.207C314.42 252.604 314.42 251.624 315.024 251.023C315.316 250.731 315.704 250.571 316.117 250.571C316.53 250.571 316.92 250.731 317.21 251.023L320.574 254.383C320.866 254.675 321.026 255.062 321.026 255.475C321.026 255.888 320.866 256.275 320.574 256.567C320.283 256.857 319.893 257.02 319.48 257.02Z" fill="white"/>
<path d="M328.154 259.341C327.456 259.341 326.843 258.87 326.659 258.196C326.439 257.372 326.931 256.524 327.753 256.304L332.348 255.072C333.17 254.854 334.02 255.346 334.24 256.167C334.347 256.566 334.293 256.983 334.085 257.34C333.878 257.697 333.544 257.955 333.145 258.061L328.551 259.29C328.423 259.323 328.289 259.341 328.154 259.341Z" fill="white"/>
<path d="M313.146 260.213L317.742 258.981C318.566 258.761 319.415 259.253 319.634 260.076C319.854 260.899 319.362 261.748 318.54 261.968L313.947 263.197C313.817 263.232 313.682 263.25 313.548 263.25C312.849 263.25 312.234 262.78 312.053 262.105C311.832 261.282 312.322 260.433 313.146 260.213Z" fill="white"/>
<path d="M322.994 253.734L324.225 249.145C324.445 248.324 325.295 247.832 326.119 248.053C326.943 248.273 327.432 249.122 327.212 249.945L325.982 254.534C325.801 255.209 325.185 255.679 324.487 255.679C324.352 255.679 324.218 255.661 324.088 255.626C323.266 255.406 322.774 254.557 322.994 253.734Z" fill="white"/>
<path d="M320.311 263.737C320.532 262.916 321.381 262.427 322.205 262.645C323.029 262.865 323.519 263.714 323.298 264.537L322.068 269.129C321.887 269.801 321.272 270.272 320.574 270.272C320.441 270.272 320.307 270.256 320.172 270.218C319.348 269.998 318.858 269.149 319.079 268.326L320.311 263.737Z" fill="white"/>
</g>
<g opacity="0.2">
<path d="M807.145 301.935C806.947 301.935 806.749 301.883 806.572 301.782C806.218 301.578 806 301.2 806 300.791V288.144C806 287.735 806.218 287.358 806.572 287.153C806.926 286.949 807.363 286.949 807.717 287.153L818.68 293.477C819.034 293.681 819.252 294.059 819.252 294.468C819.252 294.876 819.034 295.254 818.68 295.458L807.717 301.782C807.54 301.883 807.342 301.935 807.145 301.935ZM808.289 290.124V298.81L815.82 294.466L808.289 290.124Z" fill="white"/>
<path d="M818.675 301.957C818.477 301.957 818.28 301.906 818.103 301.804C817.749 301.6 817.53 301.222 817.53 300.814V288.166C817.53 287.758 817.749 287.38 818.103 287.176C818.457 286.971 818.893 286.971 819.247 287.176L830.21 293.499C830.564 293.704 830.783 294.081 830.783 294.49C830.783 294.899 830.564 295.276 830.21 295.481L819.247 301.804C819.07 301.906 818.873 301.957 818.675 301.957ZM819.82 290.146V298.834L827.351 294.49L819.82 290.146Z" fill="white"/>
<path d="M830.207 301.98C830.009 301.98 829.812 301.928 829.635 301.827C829.281 301.623 829.062 301.245 829.062 300.836V288.189C829.062 287.78 829.281 287.402 829.635 287.198C829.989 286.994 830.425 286.994 830.779 287.198L841.743 293.522C842.097 293.726 842.315 294.104 842.315 294.513C842.315 294.921 842.097 295.299 841.743 295.503L830.779 301.827C830.602 301.928 830.405 301.98 830.207 301.98ZM831.352 290.169V298.855L838.883 294.511L831.352 290.169Z" fill="white"/>
<path d="M841.739 302C841.541 302 841.344 301.949 841.167 301.847C840.813 301.643 840.594 301.265 840.594 300.857V288.209C840.594 287.801 840.813 287.423 841.167 287.219C841.521 287.014 841.957 287.014 842.311 287.219L853.275 293.542C853.629 293.747 853.847 294.124 853.847 294.533C853.847 294.942 853.629 295.319 853.275 295.524L842.311 301.847C842.134 301.95 841.937 302 841.739 302ZM842.884 290.191V298.879L850.415 294.535L842.884 290.191Z" fill="white"/>
</g>
<g opacity="0.2">
<path d="M167.88 169.943C168.052 169.943 168.223 169.899 168.376 169.811C168.683 169.634 168.872 169.307 168.872 168.952V157.991C168.872 157.637 168.683 157.31 168.376 157.133C168.07 156.956 167.691 156.956 167.384 157.133L157.883 162.613C157.576 162.79 157.387 163.118 157.387 163.472C157.387 163.826 157.576 164.153 157.883 164.33L167.384 169.811C167.538 169.899 167.709 169.943 167.88 169.943ZM166.888 159.707V167.235L160.362 163.47L166.888 159.707Z" fill="white"/>
<path d="M157.888 169.963C158.059 169.963 158.23 169.918 158.384 169.831C158.69 169.653 158.88 169.326 158.88 168.972V158.011C158.88 157.657 158.69 157.329 158.384 157.152C158.077 156.975 157.698 156.975 157.392 157.152L147.89 162.633C147.583 162.81 147.394 163.137 147.394 163.491C147.394 163.846 147.583 164.173 147.89 164.35L157.392 169.831C157.545 169.918 157.716 169.963 157.888 169.963ZM156.896 159.727V167.256L150.369 163.491L156.896 159.727Z" fill="white"/>
<path d="M147.893 169.982C148.064 169.982 148.236 169.937 148.389 169.85C148.696 169.672 148.885 169.345 148.885 168.991V158.03C148.885 157.676 148.696 157.348 148.389 157.171C148.082 156.994 147.704 156.994 147.397 157.171L137.896 162.652C137.589 162.829 137.4 163.156 137.4 163.51C137.4 163.865 137.589 164.192 137.896 164.369L147.397 169.85C147.551 169.937 147.722 169.982 147.893 169.982ZM146.901 159.746V167.274L140.374 163.509L146.901 159.746Z" fill="white"/>
<path d="M137.899 170C138.07 170 138.241 169.955 138.395 169.868C138.701 169.691 138.891 169.363 138.891 169.009V158.048C138.891 157.694 138.701 157.367 138.395 157.189C138.088 157.012 137.709 157.012 137.403 157.189L127.901 162.67C127.594 162.847 127.405 163.174 127.405 163.529C127.405 163.883 127.594 164.21 127.901 164.387L137.403 169.868C137.556 169.957 137.727 170 137.899 170ZM136.907 159.765V167.295L130.38 163.53L136.907 159.765Z" fill="white"/>
</g>
<path opacity="0.2" d="M197 54.582C197 54.9557 197.146 55.308 197.41 55.5723L204.811 62.9705C205.356 63.5162 206.246 63.5162 206.792 62.9705C207.894 61.8685 209.357 61.2627 210.915 61.2627C212.473 61.2627 213.936 61.8685 215.036 62.9705C217.31 65.2433 217.31 68.9403 215.036 71.213C214.772 71.4772 214.626 71.8295 214.626 72.2033C214.626 72.5771 214.772 72.9294 215.036 73.1936L222.434 80.5897C222.699 80.8539 223.051 81 223.425 81C223.799 81 224.151 80.8539 224.415 80.5897C228.017 76.9894 230 72.1968 230 67.0907C230 61.9867 228.017 57.192 224.415 53.5917C220.808 49.9849 216.014 48 210.913 48C205.812 48 201.016 49.9849 197.41 53.5917C197.146 53.8559 197 54.206 197 54.582ZM217.017 60.9878C215.387 59.3573 213.219 58.4594 210.913 58.4594C209.091 58.4594 207.34 59.0287 205.881 60.077L200.425 54.6228C203.358 52.1503 207.041 50.8012 210.913 50.8012C215.264 50.8012 219.357 52.4961 222.434 55.5723C225.507 58.6441 227.198 62.7342 227.198 67.0907C227.198 70.966 225.851 74.6479 223.384 77.5758L217.929 72.1217C220.376 68.7297 220.049 64.0188 217.017 60.9878Z" fill="white"/>
<path opacity="0.2" d="M1036 263.989C1036 264.216 1036.09 264.429 1036.25 264.589L1040.73 269.073C1041.06 269.404 1041.6 269.404 1041.93 269.073C1042.6 268.405 1043.49 268.038 1044.43 268.038C1045.38 268.038 1046.26 268.405 1046.93 269.073C1048.31 270.45 1048.31 272.691 1046.93 274.068C1046.77 274.229 1046.68 274.442 1046.68 274.669C1046.68 274.895 1046.77 275.109 1046.93 275.269L1051.41 279.751C1051.57 279.911 1051.79 280 1052.02 280C1052.24 280 1052.46 279.911 1052.62 279.751C1054.8 277.569 1056 274.665 1056 271.57C1056 268.477 1054.8 265.571 1052.62 263.389C1050.43 261.203 1047.52 260 1044.43 260C1041.34 260 1038.43 261.203 1036.25 263.389C1036.09 263.549 1036 263.761 1036 263.989ZM1048.13 267.871C1047.14 266.883 1045.83 266.339 1044.43 266.339C1043.33 266.339 1042.27 266.684 1041.38 267.319L1038.08 264.014C1039.85 262.515 1042.09 261.698 1044.43 261.698C1047.07 261.698 1049.55 262.725 1051.41 264.589C1053.28 266.451 1054.3 268.93 1054.3 271.57C1054.3 273.919 1053.49 276.15 1051.99 277.925L1048.68 274.619C1050.17 272.563 1049.97 269.708 1048.13 267.871Z" fill="white"/>
<path opacity="0.2" d="M73 268.722V279.279C73 279.861 73.4909 280.335 74.0951 280.335H80.9395V286.944C80.9395 287.526 81.4304 288 82.0346 288H92.9671C93.5696 288 94.0605 287.526 94.0605 286.944V280.335H100.905C101.507 280.335 102 279.861 102 279.279V268.722C102 268.141 101.509 267.665 100.905 267.665H94.0605V261.056C94.0605 260.474 93.5696 260 92.9671 260H82.0346C81.4321 260 80.9395 260.474 80.9395 261.056V267.665H74.0951C73.4909 267.667 73 268.141 73 268.722ZM82.0346 278.222H75.1885V269.778H82.0329C82.6355 269.778 83.1264 269.304 83.1264 268.722V262.113H91.8704V268.722C91.8704 269.304 92.3612 269.778 92.9654 269.778H99.8099V278.222H92.9654C92.3629 278.222 91.8704 278.696 91.8704 279.279V285.888H83.1264V279.279C83.128 278.696 82.6371 278.222 82.0346 278.222Z" fill="white"/>
<path opacity="0.2" d="M1075 145.273C1075.01 145.594 1075.14 145.893 1075.37 146.114L1084.33 154.662C1084.56 154.887 1084.87 155 1085.17 155C1085.47 155 1085.77 154.887 1086.01 154.662L1092.45 148.52L1098.88 154.662C1099.11 154.88 1099.41 154.998 1099.72 154.998C1100.04 154.998 1100.34 154.88 1100.57 154.662L1107 148.52L1113.44 154.662C1113.91 155.111 1114.65 155.111 1115.12 154.662L1121.56 148.52L1127.99 154.662C1128.46 155.111 1129.2 155.111 1129.67 154.662L1138.63 146.114C1139.11 145.656 1139.12 144.895 1138.66 144.42L1135.3 140.973C1135.08 140.743 1134.77 140.614 1134.45 140.607C1134.13 140.598 1133.82 140.722 1133.59 140.941L1128.83 145.481L1122.4 139.339C1121.93 138.889 1121.19 138.889 1120.71 139.339L1114.28 145.479L1107.84 139.337C1107.37 138.888 1106.63 138.888 1106.16 139.337L1099.72 145.479L1093.29 139.337C1092.82 138.888 1092.08 138.888 1091.61 139.337L1085.17 145.479L1080.42 140.941C1079.94 140.482 1079.17 140.495 1078.7 140.972L1075.34 144.418C1075.11 144.649 1074.99 144.952 1075 145.273ZM1079.6 143.498L1084.33 148.006C1084.8 148.455 1085.54 148.455 1086.01 148.006L1092.45 141.863L1098.88 148.006C1099.35 148.455 1100.09 148.455 1100.56 148.006L1107 141.863L1113.44 148.006C1113.91 148.455 1114.65 148.455 1115.12 148.006L1121.55 141.863L1127.99 148.006C1128.46 148.455 1129.2 148.455 1129.67 148.006L1134.4 143.498L1136.08 145.22L1128.83 152.134L1122.39 145.992C1121.92 145.542 1121.18 145.542 1120.71 145.992L1114.28 152.134L1107.84 145.992C1107.37 145.542 1106.63 145.542 1106.16 145.992L1099.72 152.134L1093.29 145.992C1093.05 145.767 1092.75 145.654 1092.45 145.654C1092.14 145.654 1091.84 145.767 1091.6 145.992L1085.17 152.134L1077.92 145.22L1079.6 143.498Z" fill="white"/>
<defs>
<linearGradient id="paint0_linear_235_633" x1="1508.94" y1="90.0529" x2="1140.15" y2="-561.002" gradientUnits="userSpaceOnUse">
<stop stop-color="#1d0bcf"/>
<stop offset="1" stop-color="#050335"/>
</linearGradient>
</defs>
</svg>