<svg width="12" height="10" viewBox="0 0 12 10" fill="none" xmlns="http://www.w3.org/2000/svg">
<path d="M11.7388 0.962036C11.6808 0.939754 11.625 0.928566 11.5714 0.928566C11.4508 0.928566 11.3505 0.971066 11.27 1.05583L8.57136 3.74785V2.64296C8.57136 2.11164 8.38274 1.65746 8.0055 1.2802C7.62823 0.902977 7.1741 0.714355 6.64274 0.714355H1.92853C1.39733 0.714355 0.943062 0.902977 0.565772 1.2802C0.188622 1.65746 0 2.11164 0 2.64296V7.35723C0 7.8885 0.188622 8.34266 0.565795 8.7199C0.943085 9.09714 1.39735 9.28576 1.92855 9.28576H6.64278C7.17412 9.28576 7.62828 9.09714 8.00554 8.7199C8.38279 8.34266 8.57141 7.88853 8.57141 7.35723V6.24556L11.2701 8.94427C11.3505 9.02901 11.4509 9.07148 11.5714 9.07148C11.625 9.07148 11.6808 9.06032 11.7389 9.03808C11.9131 8.96216 12 8.83051 12 8.64302V1.35722C12 1.16963 11.913 1.03796 11.7388 0.962036Z" fill="#93A0CE"/>
</svg>
