<?xml version="1.0" standalone="no"?>
<!DOCTYPE svg PUBLIC "-//W3C//DTD SVG 20010904//EN"
 "http://www.w3.org/TR/2001/REC-SVG-20010904/DTD/svg10.dtd">
<svg version="1.0" xmlns="http://www.w3.org/2000/svg"
 width="2000.000000pt" height="2000.000000pt" viewBox="0 0 2000.000000 2000.000000"
 preserveAspectRatio="xMidYMid meet">
<metadata>
Created by potrace 1.16, written by Peter Selinger 2001-2019
</metadata>
<g transform="translate(0.000000,2000.000000) scale(0.100000,-0.100000)"
fill="#000000" stroke="none">
<path d="M4965 17270 c-22 -24 -14 -97 15 -131 11 -12 20 -27 20 -34 0 -16 45
-53 75 -61 14 -3 25 -12 25 -20 0 -7 10 -20 22 -28 51 -36 65 -10 37 66 -34
90 -43 108 -56 108 -7 0 -13 5 -13 11 0 6 -11 20 -25 31 -14 11 -25 28 -25 39
0 12 -10 23 -26 29 -32 13 -28 13 -49 -10z"/>
<path d="M4418 17029 c-38 -22 -14 -69 93 -186 11 -12 18 -26 16 -30 -9 -15
97 -199 169 -294 39 -52 79 -116 89 -144 11 -27 22 -52 25 -55 3 -3 14 -25 24
-50 10 -25 22 -52 27 -60 5 -8 14 -26 20 -40 6 -14 21 -39 35 -57 13 -17 24
-35 24 -39 0 -4 17 -26 38 -48 20 -23 49 -63 64 -89 27 -45 70 -78 85 -63 4 4
-12 44 -35 90 -23 46 -42 89 -42 95 0 6 -4 11 -9 11 -11 0 -41 56 -41 75 0 7
-8 15 -17 17 -10 3 -24 22 -32 44 -7 21 -19 46 -27 54 -7 8 -19 26 -26 40 -33
60 -80 130 -89 130 -5 0 -9 5 -9 11 0 13 -36 86 -68 139 -12 19 -30 51 -39 70
-9 19 -32 54 -50 77 -18 23 -33 45 -33 50 0 5 -11 19 -25 31 -14 12 -25 29
-25 37 0 8 -4 15 -10 15 -5 0 -10 8 -10 18 0 9 -9 28 -20 42 -11 14 -20 34
-20 45 0 20 -43 75 -58 75 -4 0 -15 -5 -24 -11z"/>
<path d="M3972 15957 c-19 -20 -20 -27 -10 -67 6 -25 19 -53 30 -63 10 -10 18
-24 18 -31 0 -14 45 -56 60 -56 5 0 25 -16 44 -35 64 -64 86 -41 53 55 -15 42
-37 79 -69 114 -26 28 -48 59 -48 68 0 16 -28 38 -48 38 -5 0 -18 -10 -30 -23z"/>
<path d="M11692 15957 c-19 -20 -20 -27 -10 -67 6 -25 19 -54 28 -65 9 -11 20
-28 23 -38 4 -10 21 -25 39 -35 17 -9 47 -32 65 -49 64 -62 79 -35 42 72 -14
40 -35 75 -65 105 -24 25 -44 54 -44 63 0 10 -12 22 -26 27 -32 13 -27 14 -52
-13z"/>
<path d="M3428 15719 c-34 -19 -14 -119 23 -119 11 0 30 -18 45 -40 15 -22 31
-40 35 -40 5 0 9 -10 9 -22 0 -13 11 -41 23 -64 12 -22 34 -63 49 -92 15 -28
34 -55 41 -59 8 -4 20 -19 27 -33 7 -14 28 -44 46 -67 19 -23 34 -46 34 -52 0
-6 4 -11 8 -11 4 0 14 -17 21 -37 13 -37 66 -154 83 -183 28 -49 38 -82 29
-94 -15 -17 -20 -137 -10 -221 6 -47 17 -80 34 -105 14 -20 25 -41 25 -47 0
-7 8 -18 18 -25 17 -12 43 -67 57 -116 8 -26 -12 -117 -32 -147 -7 -11 -13
-32 -13 -47 0 -17 -7 -31 -20 -38 -16 -9 -30 -4 -75 24 -30 20 -107 61 -171
93 -63 31 -120 65 -125 75 -7 12 -21 18 -45 18 -19 0 -57 12 -85 26 -28 14
-58 23 -67 21 -12 -3 -8 -8 16 -18 17 -7 32 -17 32 -21 0 -4 6 -8 13 -8 8 0
33 -13 55 -30 23 -16 50 -30 59 -31 32 -1 175 -70 278 -134 22 -14 50 -31 63
-37 12 -6 22 -20 22 -31 0 -18 -23 -66 -46 -97 -7 -8 -15 -31 -19 -50 -4 -19
-25 -62 -46 -95 -22 -33 -39 -65 -39 -72 0 -7 -10 -14 -22 -14 -17 -1 -18 -3
-6 -6 14 -3 16 -11 11 -36 -3 -18 -11 -34 -17 -36 -6 -2 -31 -24 -55 -47 -34
-34 -49 -42 -67 -38 -13 3 -32 -1 -46 -10 -12 -9 -30 -16 -39 -16 -38 0 -61
-38 -85 -136 -15 -64 -19 -105 -14 -119 5 -13 4 -39 -2 -61 -5 -22 -15 -63
-21 -91 -6 -29 -15 -53 -19 -53 -4 0 -8 -31 -8 -69 0 -59 -5 -79 -32 -129 -17
-34 -42 -65 -55 -71 -13 -6 -26 -18 -29 -26 -4 -8 -13 -15 -21 -15 -8 0 -21
-15 -29 -32 -8 -18 -25 -47 -37 -64 -12 -18 -30 -46 -39 -63 -13 -24 -24 -31
-48 -31 -29 0 -58 -20 -77 -54 -8 -14 -14 -15 -43 -5 -19 7 -51 25 -70 41 -29
24 -44 28 -94 28 -32 0 -76 5 -97 11 -68 21 -112 -15 -154 -125 -18 -47 -49
-77 -99 -96 -16 -6 -31 -22 -37 -40 -6 -16 -15 -30 -19 -30 -24 0 -17 -161 8
-179 4 -3 8 -18 10 -34 l3 -27 -84 4 c-82 5 -151 -4 -167 -21 -20 -20 3 -66
48 -94 24 -15 50 -30 56 -32 7 -3 4 -12 -8 -26 -19 -20 -19 -23 -3 -56 13 -28
22 -35 46 -35 46 0 60 -9 80 -54 22 -48 106 -136 130 -136 12 0 136 -101 136
-111 0 0 36 -5 80 -12 80 -12 164 -14 220 -4 119 20 123 20 154 -2 17 -12 31
-27 31 -33 0 -5 16 -24 35 -41 19 -17 35 -36 35 -44 0 -16 39 -91 51 -99 16
-9 10 -73 -11 -119 -11 -24 -35 -56 -53 -72 -46 -39 -73 -80 -90 -138 -14 -49
-15 -50 -60 -57 -56 -8 -67 -14 -67 -38 0 -13 9 -22 28 -26 15 -3 41 -12 58
-19 18 -9 53 -13 87 -11 50 3 57 2 57 -15 0 -11 5 -19 10 -19 6 0 10 9 10 20
0 16 7 20 30 20 38 0 182 -31 195 -43 91 -77 205 -222 205 -260 0 -21 -91 -62
-101 -46 -4 6 -12 10 -19 7 -17 -5 -22 -39 -9 -55 6 -7 9 -34 7 -60 l-3 -48
40 -1 c22 -1 60 -6 85 -11 44 -9 45 -9 44 -48 -1 -28 -9 -45 -26 -60 -38 -33
-33 -61 13 -79 22 -9 46 -16 54 -16 8 0 15 -8 15 -18 0 -10 3 -21 6 -25 4 -3
8 -31 10 -61 5 -54 4 -56 -21 -56 -30 0 -36 -34 -7 -45 16 -6 16 -7 -2 -21
-11 -8 -39 -14 -63 -14 -40 0 -43 -2 -33 -19 8 -16 6 -21 -10 -25 -11 -3 -30
-9 -41 -12 -14 -4 -19 -2 -15 5 8 12 -13 15 -31 3 -8 -5 -9 -13 -3 -22 8 -13
16 -13 57 3 26 10 61 18 76 18 16 -1 53 6 83 16 53 16 57 16 112 -2 65 -22 82
-35 82 -64 0 -26 -35 -45 -77 -42 l-33 2 0 -51 c0 -47 1 -50 23 -45 30 7 52
-8 43 -30 -3 -10 -9 -15 -13 -11 -3 3 -16 0 -28 -8 -12 -8 -35 -16 -51 -18
-23 -2 -29 -8 -29 -28 0 -22 4 -25 33 -24 36 2 42 -10 13 -26 -35 -18 -70 -12
-83 15 -12 26 -32 33 -43 15 -8 -13 -62 -13 -70 0 -3 6 1 13 9 16 19 7 11 24
-11 24 -9 0 -13 -6 -10 -14 3 -8 -1 -20 -8 -26 -18 -15 -125 -4 -163 16 -15 8
-33 14 -40 14 -8 0 -28 10 -45 23 -46 32 -138 87 -147 87 -5 0 -21 11 -37 24
-16 14 -42 28 -57 32 -26 6 -28 5 -21 -16 7 -22 5 -23 -33 -18 -47 7 -52 10
-144 105 -39 40 -91 82 -116 94 -26 13 -71 42 -99 67 -40 34 -54 52 -58 80
-15 91 -81 189 -166 246 -27 18 -64 52 -80 75 -35 47 -69 55 -69 17 0 -15 12
-34 34 -51 35 -28 53 -60 58 -105 2 -17 10 -26 25 -28 13 -2 33 -18 45 -35 12
-18 41 -54 63 -82 23 -27 46 -57 51 -66 5 -9 43 -53 84 -99 41 -45 82 -93 91
-107 9 -14 31 -33 48 -44 21 -13 31 -26 31 -43 0 -32 -11 -38 -41 -21 -13 8
-31 17 -39 21 -8 4 -22 12 -30 19 -8 6 -28 17 -45 24 l-30 13 20 -22 c11 -13
50 -42 87 -67 66 -44 98 -73 181 -168 34 -38 46 -61 51 -98 4 -26 18 -72 31
-101 40 -91 41 -117 7 -191 -17 -35 -42 -76 -56 -90 -30 -30 -32 -35 -11 -35
12 0 14 -17 10 -107 -4 -97 -6 -108 -22 -105 -15 2 -14 -1 4 -14 34 -24 14
-50 -55 -70 -31 -9 -78 -27 -103 -41 -25 -13 -70 -28 -100 -33 -30 -5 -70 -14
-89 -20 -19 -6 -78 -19 -130 -30 -143 -28 -142 -28 -194 -45 -27 -8 -68 -15
-92 -15 -26 0 -44 -5 -47 -14 -3 -7 -36 -21 -74 -31 -37 -10 -75 -24 -83 -32
-18 -17 -8 -16 60 2 30 8 73 15 94 15 22 0 47 6 55 14 28 24 127 49 350 90 47
9 86 14 88 13 2 -2 -13 -12 -32 -23 -33 -17 -54 -48 -42 -61 9 -8 98 29 104
44 3 7 0 20 -6 27 -19 22 19 29 114 21 101 -8 175 1 175 22 0 8 -9 17 -20 20
-38 10 -16 53 28 53 13 0 38 -11 55 -24 18 -13 54 -29 81 -35 27 -7 66 -21 87
-31 21 -11 45 -20 53 -20 32 0 46 -43 45 -136 0 -49 3 -98 7 -109 12 -33 55
-74 92 -86 28 -9 33 -14 27 -33 -4 -11 -8 -39 -9 -61 -1 -48 21 -58 55 -24 16
16 20 29 16 58 -4 34 -2 38 39 63 23 14 50 38 59 52 23 35 30 99 15 136 -7 16
-9 41 -6 55 5 20 12 25 39 25 44 0 62 -18 41 -41 -19 -22 -11 -39 20 -39 12 0
26 -4 31 -9 6 -5 21 -11 34 -13 30 -4 41 -28 12 -28 -39 0 -37 -46 2 -52 12
-2 21 -10 19 -17 -2 -8 3 -11 11 -8 25 9 37 -8 39 -59 3 -44 1 -49 -17 -45
-44 8 -50 6 -53 -23 -2 -19 3 -35 18 -48 14 -14 20 -29 17 -44 -4 -24 35 -70
65 -75 21 -4 56 10 62 26 3 8 12 15 21 15 8 0 15 7 15 15 0 18 -14 19 -40 3
-26 -16 -40 0 -16 18 17 12 18 17 6 38 -7 14 -10 31 -7 39 3 8 0 20 -6 26 -9
10 -7 16 8 28 14 10 16 17 8 20 -22 8 5 43 44 60 22 9 46 12 62 8 31 -9 49
-10 201 -20 87 -5 121 -11 141 -25 31 -22 66 -16 74 11 7 22 25 24 72 7 27
-10 38 -10 53 0 26 16 40 15 40 -3 0 -21 49 -20 57 2 8 21 43 56 50 49 3 -2
-5 -23 -18 -45 -18 -32 -28 -41 -50 -41 -21 0 -28 -5 -31 -22 -4 -26 -45 -40
-68 -24 -8 6 -6 1 4 -12 11 -12 25 -22 33 -22 20 0 16 -18 -12 -42 -21 -18
-22 -23 -9 -32 13 -10 13 -16 1 -45 -11 -25 -16 -29 -20 -17 -4 9 -18 16 -32
16 -14 0 -25 6 -25 13 0 24 -16 35 -61 42 -43 6 -47 5 -52 -16 -7 -27 18 -60
39 -52 15 5 79 -21 89 -37 3 -5 -3 -14 -12 -19 -17 -10 -17 -12 -1 -21 25 -15
12 -41 -17 -34 -26 7 -38 -6 -25 -26 8 -12 13 -13 29 -3 14 9 22 9 27 2 4 -7
12 -5 22 4 10 8 30 19 46 24 17 5 32 15 34 23 3 9 -1 11 -12 7 -22 -8 -21 9 1
22 16 9 16 12 4 33 -13 21 -13 22 2 10 17 -15 37 -9 37 11 0 7 12 17 26 24 22
10 29 9 42 -3 12 -12 12 -18 3 -24 -9 -5 -7 -9 8 -13 35 -9 25 -35 -19 -47
-30 -8 -40 -16 -40 -32 0 -17 -3 -18 -15 -8 -23 19 -65 -33 -65 -80 0 -32 4
-39 26 -44 15 -4 28 -5 30 -3 8 8 7 62 0 80 -6 13 -3 17 13 17 12 0 24 -7 27
-15 5 -11 10 -12 25 -2 17 11 24 7 53 -28 19 -22 37 -37 40 -34 8 8 -4 39 -15
39 -20 0 -7 18 17 24 14 4 24 12 21 19 -3 7 7 13 26 14 27 2 28 1 12 -11 -10
-7 -15 -18 -11 -24 4 -7 2 -12 -5 -12 -7 0 -10 -11 -7 -31 3 -19 0 -33 -8 -36
-7 -2 -11 -10 -8 -16 6 -18 -36 -42 -46 -27 -4 7 -7 1 -7 -16 0 -15 -8 -33
-17 -39 -9 -7 -16 -17 -16 -24 0 -6 -7 -11 -15 -11 -23 0 -18 -28 7 -41 22
-12 22 -12 3 -19 -15 -6 -23 -1 -33 16 -7 13 -16 24 -20 24 -5 0 -9 23 -9 51
-1 55 -17 77 -41 56 -11 -9 -18 -6 -33 13 -10 14 -19 29 -19 33 0 4 -10 7 -22
5 -13 -1 -44 1 -70 6 -65 11 -92 1 -83 -32 3 -14 14 -32 23 -39 16 -12 16 -14
0 -26 -23 -18 -13 -27 29 -27 34 0 45 -16 18 -26 -8 -4 -15 -12 -15 -20 0 -11
6 -11 39 1 22 7 48 11 58 9 11 -3 25 2 32 10 17 20 31 20 31 1 0 -8 -5 -15
-11 -15 -8 0 -9 -11 -5 -32 5 -24 2 -34 -14 -45 -11 -8 -19 -22 -18 -30 2 -9
-3 -18 -9 -20 -16 -6 -18 43 -3 52 22 13 4 41 -32 50 -21 5 -29 2 -38 -15 -10
-18 -8 -25 9 -41 17 -16 19 -23 9 -38 -9 -15 -9 -23 0 -33 9 -11 8 -19 -4 -36
-19 -27 -11 -42 22 -42 16 0 24 -5 21 -12 -4 -13 -12 -15 -69 -17 -17 -1 -39
-13 -56 -31 -16 -16 -34 -30 -41 -30 -6 0 -11 -4 -11 -9 0 -5 -3 -17 -7 -27
-4 -11 -2 -15 6 -13 7 3 13 9 13 14 0 6 4 16 10 23 8 9 18 4 44 -25 18 -21 33
-41 34 -44 0 -3 -11 -18 -25 -33 -14 -15 -25 -33 -25 -41 0 -7 -12 -15 -26
-17 -34 -4 -47 -36 -27 -63 14 -20 15 -20 34 4 10 13 19 29 19 37 0 8 9 14 21
14 11 0 27 7 36 16 14 14 18 13 39 -7 13 -12 24 -31 24 -41 0 -10 5 -18 10
-18 6 0 10 -9 10 -19 0 -17 7 -19 48 -18 44 2 82 20 68 34 -3 4 -12 1 -18 -5
-16 -16 -28 -15 -28 3 0 8 -9 24 -20 35 -12 12 -18 25 -15 30 3 5 -4 18 -16
28 -20 19 -20 21 -4 52 10 20 22 30 31 26 8 -3 14 -1 14 4 0 6 -9 10 -20 10
-11 0 -20 5 -20 10 0 6 12 9 27 8 19 -2 28 2 31 15 3 13 -3 17 -28 17 -38 0
-50 25 -24 50 24 23 164 36 164 15 0 -7 7 -16 16 -19 23 -9 5 -29 -22 -23 -18
3 -24 0 -24 -13 0 -10 -8 -28 -19 -41 -12 -16 -18 -39 -17 -67 0 -35 4 -42 21
-42 11 0 26 4 34 9 30 19 113 -42 95 -70 -9 -15 -24 -10 -24 7 0 13 -7 15 -30
11 -16 -4 -32 -2 -35 3 -3 6 -11 10 -16 10 -6 0 -7 -4 -4 -10 3 -5 1 -10 -5
-10 -7 0 -10 -13 -9 -33 2 -18 0 -38 -4 -44 -5 -7 -3 -22 4 -34 9 -17 8 -23
-2 -30 -23 -14 -41 -10 -46 11 -7 28 -23 25 -23 -4 0 -14 -4 -28 -10 -31 -21
-13 -9 -25 30 -31 22 -4 42 -9 44 -13 6 -12 -22 -53 -28 -42 -4 6 -14 11 -22
11 -18 0 -20 -70 -2 -88 7 -7 13 -22 13 -35 0 -18 5 -21 25 -19 41 6 94 6 110
2 10 -4 16 3 18 21 2 17 11 29 23 32 23 6 26 27 4 27 -9 0 -20 11 -25 25 -5
14 -16 25 -25 25 -8 0 -15 5 -15 12 0 6 -7 19 -15 28 -13 14 -13 22 -5 42 17
36 43 33 34 -5 -4 -20 -2 -32 7 -38 21 -13 29 -11 29 7 0 8 -4 12 -10 9 -6 -3
-10 -2 -10 4 0 5 6 14 13 18 28 17 46 55 36 75 -5 10 -16 18 -23 18 -19 0 -9
34 15 56 22 19 25 50 7 57 -7 3 -4 6 8 6 12 1 25 -8 32 -21 l11 -23 0 23 c1
12 -6 25 -14 28 -22 9 -18 40 6 58 12 8 18 19 14 26 -5 8 -11 8 -21 -1 -11 -9
-18 -9 -26 -1 -8 8 -14 7 -23 -5 -11 -14 -14 -9 -20 36 -4 29 -5 54 -2 57 2 3
22 6 43 7 27 2 40 8 42 20 2 12 -3 17 -17 17 -12 0 -21 5 -21 11 0 6 7 9 15 5
8 -3 15 -1 15 4 0 10 -6 12 -55 14 -47 2 -40 30 8 30 20 0 37 4 37 8 0 5 6 8
14 6 8 -2 15 2 15 7 0 11 33 22 69 24 13 1 22 -5 22 -14 0 -11 -7 -14 -25 -9
-14 3 -25 2 -26 -2 0 -5 -3 -18 -6 -29 -16 -65 -15 -81 9 -92 38 -19 57 -23
63 -13 10 15 -6 39 -22 33 -11 -4 -14 -2 -9 6 4 6 16 9 27 6 16 -5 19 -1 19
24 0 18 -5 31 -12 32 -15 1 21 17 40 18 6 1 12 -6 12 -14 0 -9 12 -18 30 -21
34 -7 34 -8 20 -34 -12 -22 -3 -50 16 -50 18 0 18 -5 -2 -35 -13 -21 -19 -22
-45 -13 -22 7 -38 7 -60 -3 -27 -11 -33 -10 -41 4 -5 9 -14 17 -20 17 -6 0
-16 7 -22 16 -10 12 -21 14 -61 6 -39 -7 -45 -11 -30 -16 11 -4 32 -14 46 -22
14 -7 29 -11 33 -7 3 3 6 -1 6 -10 0 -11 8 -17 22 -17 20 0 18 -3 -12 -30 -19
-17 -40 -28 -47 -25 -10 3 -11 0 -3 -15 13 -24 70 -36 99 -21 17 9 22 8 31 -9
8 -14 8 -26 0 -40 -6 -12 -8 -30 -5 -40 4 -13 1 -22 -9 -26 -9 -3 -13 -10 -10
-15 8 -13 -8 -10 -29 5 -23 18 -22 36 3 36 13 0 20 7 20 20 0 11 -6 20 -12 20
-7 0 -23 3 -35 6 -19 5 -23 2 -23 -15 0 -11 5 -21 11 -21 5 0 7 -5 4 -10 -5
-8 -11 -7 -21 1 -8 6 -18 9 -21 5 -11 -11 13 -41 31 -40 24 2 19 -13 -6 -19
-18 -5 -19 -8 -9 -21 18 -22 -12 -54 -33 -37 -22 19 -31 -7 -11 -29 20 -22 11
-43 -15 -35 -11 3 -20 0 -24 -11 -8 -21 1 -34 19 -27 10 3 15 -1 15 -12 0 -10
12 -29 26 -42 16 -14 23 -30 20 -39 -3 -9 -6 -22 -6 -30 0 -8 -8 -14 -19 -14
-21 0 -36 -39 -21 -54 15 -15 12 -33 -5 -40 -16 -6 -72 40 -67 56 4 16 -19 38
-39 38 -14 0 -21 -9 -26 -30 -3 -16 -10 -30 -15 -30 -5 0 -6 5 -3 10 3 6 -1
13 -9 16 -9 3 -16 12 -16 20 0 8 -7 14 -15 14 -8 0 -15 -7 -15 -15 0 -8 6 -15
14 -15 8 0 18 -4 21 -10 8 -12 -14 -131 -26 -146 -6 -8 -4 -27 5 -55 11 -31
12 -47 4 -56 -8 -10 -4 -13 17 -13 18 0 28 -6 32 -19 6 -25 31 -35 49 -20 21
17 17 38 -11 51 -31 14 -31 20 1 55 l25 28 -5 -27 c-5 -21 -3 -28 9 -28 8 0
15 4 15 10 0 5 12 13 26 16 17 4 23 11 19 22 -6 15 11 42 26 42 5 0 9 -10 9
-21 0 -18 2 -19 15 -9 12 10 15 9 15 -6 0 -21 35 -48 50 -39 7 4 6 13 0 25 -9
16 -5 22 25 36 45 21 69 13 62 -22 -3 -18 2 -33 14 -45 21 -21 25 -39 9 -39
-6 0 -15 11 -20 25 -12 32 -16 32 -35 -9 -15 -32 -59 -65 -71 -54 -3 4 0 16 6
28 10 18 9 22 -9 27 -12 3 -21 10 -21 15 0 5 -4 6 -10 3 -6 -4 -5 -13 3 -26
10 -17 9 -22 -6 -33 -20 -15 -14 -41 15 -69 10 -10 16 -22 13 -28 -4 -5 3 -9
14 -9 25 0 71 -20 71 -32 0 -4 -10 -8 -22 -8 -17 0 -19 -3 -9 -9 7 -5 11 -14
7 -20 -10 -16 -47 -7 -62 14 -12 16 -17 17 -39 5 -21 -11 -25 -20 -25 -61 0
-26 5 -51 10 -54 6 -4 8 -15 5 -26 -6 -17 -3 -19 22 -13 28 7 103 75 103 94 0
15 11 12 33 -7 18 -17 19 -17 32 0 6 9 17 17 22 17 6 0 17 10 26 23 15 22 15
22 32 2 15 -18 16 -18 11 -2 -3 10 -6 21 -6 23 0 2 -6 4 -13 4 -7 0 -18 9 -24
19 -9 15 -20 18 -50 15 -21 -3 -45 0 -53 5 -13 9 -13 12 2 28 14 13 21 14 30
5 9 -9 9 -12 0 -12 -7 0 -12 -4 -12 -10 0 -5 6 -10 14 -10 16 0 31 34 21 50
-3 5 -1 10 5 10 6 0 13 -7 16 -15 4 -9 19 -15 39 -15 24 0 34 -5 38 -20 8 -31
55 -27 63 5 10 42 29 22 27 -29 -1 -32 3 -46 12 -46 7 0 15 4 17 10 2 6 24 7
56 3 48 -5 54 -9 67 -39 17 -41 27 -42 49 -9 14 22 19 23 36 12 20 -12 20 -12
-2 -17 -12 -3 -23 -11 -26 -18 -5 -15 27 -29 37 -16 9 14 44 11 49 -4 2 -7 -2
-13 -9 -11 -26 3 -39 -1 -39 -12 0 -7 10 -9 25 -7 21 4 25 1 25 -18 0 -16 -6
-24 -18 -24 -10 0 -23 -5 -29 -11 -14 -14 -36 -2 -27 13 4 6 2 8 -4 4 -6 -3
-13 -20 -17 -36 -4 -17 -13 -37 -22 -45 -11 -12 -12 -19 -4 -29 6 -7 9 -21 5
-30 -7 -18 -15 -20 -29 -7 -15 13 -73 22 -79 12 -3 -5 -1 -22 4 -38 12 -32 52
-51 105 -49 40 2 55 13 55 41 0 17 8 26 32 34 40 14 50 5 20 -20 -13 -10 -27
-31 -31 -46 -6 -21 -13 -27 -28 -25 -11 1 -26 -4 -33 -13 -7 -8 -20 -15 -29
-15 -24 -1 -55 -27 -41 -35 6 -4 18 1 25 11 13 18 15 18 31 2 12 -11 17 -32
16 -62 0 -42 2 -46 23 -46 27 0 45 37 25 50 -22 14 -4 35 30 35 28 0 35 5 43
30 6 17 15 33 21 37 8 5 7 8 -1 8 -8 0 -13 13 -13 30 0 34 14 38 42 13 18 -16
19 -16 25 5 7 29 11 28 45 -10 28 -31 29 -31 34 -11 8 28 28 35 60 21 22 -10
27 -9 35 5 16 28 28 19 27 -18 -1 -34 -19 -47 -33 -25 -10 17 -25 11 -25 -10
0 -21 -15 -27 -25 -10 -12 20 -36 11 -33 -12 2 -18 9 -23 31 -21 20 1 27 -3
27 -17 0 -10 -5 -22 -11 -25 -7 -5 -6 -12 4 -23 8 -10 17 -25 21 -36 4 -12 13
-17 26 -13 11 3 23 1 26 -4 3 -5 20 -9 37 -9 l32 -1 -27 -15 c-31 -16 -35 -29
-14 -50 19 -18 23 -18 29 5 3 14 11 17 30 14 l26 -5 -25 -25 c-30 -30 -31 -45
-1 -41 16 2 22 -2 21 -14 -2 -20 16 -24 33 -7 16 16 33 2 33 -27 0 -16 -15
-40 -40 -65 -37 -38 -53 -79 -30 -79 18 0 10 -38 -9 -43 -12 -3 -27 5 -43 24
-24 26 -27 27 -69 17 -52 -13 -56 -18 -64 -80 -4 -26 -11 -48 -16 -48 -14 0
-11 -23 10 -63 10 -20 15 -40 10 -43 -14 -8 0 -24 22 -24 10 0 19 -6 19 -14 0
-16 34 -31 50 -21 12 7 14 45 2 45 -5 0 -16 6 -26 13 -18 13 -18 15 -1 40 21
33 37 35 33 5 -2 -11 3 -23 10 -25 6 -3 12 0 12 6 0 7 12 16 26 21 19 7 24 15
20 27 -4 9 -1 20 6 25 20 12 28 10 28 -8 0 -9 6 -14 13 -11 7 3 19 -4 26 -15
10 -16 8 -22 -11 -38 -13 -11 -18 -19 -12 -20 6 0 17 7 24 15 7 9 19 14 26 11
19 -7 27 10 15 33 -9 16 -6 21 21 30 17 6 39 11 49 11 29 0 25 -53 -6 -86 -14
-15 -25 -33 -25 -40 0 -8 -7 -14 -15 -14 -8 0 -15 -4 -15 -10 0 -5 -7 -10 -16
-10 -12 0 -15 6 -10 25 5 18 2 25 -9 25 -8 0 -15 -6 -15 -14 0 -8 -6 -16 -14
-19 -33 -13 22 -97 63 -97 26 0 40 -28 20 -41 -10 -6 -10 -9 -1 -9 15 0 16
-26 2 -35 -6 -4 -29 3 -51 15 -49 25 -69 15 -69 -36 0 -19 -4 -34 -10 -34 -5
0 -10 -4 -10 -10 0 -5 7 -10 15 -10 9 0 15 -9 15 -24 0 -14 5 -28 10 -31 6 -3
10 -2 10 3 0 5 13 12 29 15 18 4 32 14 36 27 10 32 44 26 52 -10 6 -34 22 -40
30 -11 3 11 12 22 20 25 21 8 6 26 -23 26 -15 0 -24 6 -24 15 0 8 5 15 10 15
6 0 10 -5 10 -10 0 -6 12 -9 28 -8 23 3 27 -1 30 -27 2 -16 9 -33 15 -37 16
-10 78 1 98 18 21 18 38 18 61 -2 13 -13 21 -14 31 -6 13 11 38 9 211 -14 36
-5 50 -12 53 -25 6 -23 43 -25 84 -4 16 9 34 13 40 9 6 -3 40 -8 77 -10 37 -3
72 -5 77 -6 6 0 24 2 41 6 23 5 36 3 48 -9 34 -34 21 -42 -121 -71 -51 -10
-93 -22 -93 -26 0 -4 7 -8 15 -8 9 0 27 -7 40 -16 24 -15 25 -15 25 3 0 17 11
22 73 31 39 7 128 10 197 8 153 -5 140 -3 140 -20 0 -8 11 -28 24 -43 19 -21
27 -25 37 -16 6 6 18 9 25 6 16 -6 19 -43 3 -43 -6 0 -9 -6 -6 -12 2 -7 9 -13
14 -13 6 0 15 -3 19 -7 17 -17 26 -6 22 27 -3 25 0 35 9 35 19 0 26 -25 14
-48 -7 -13 -7 -22 1 -30 22 -22 -8 -86 -64 -136 -121 -108 -153 -143 -174
-187 -29 -60 -21 -95 26 -121 55 -29 75 -24 135 38 30 31 55 61 55 68 0 7 9
21 19 30 11 10 28 38 39 64 11 26 37 63 56 82 34 32 37 33 53 17 15 -14 16
-21 5 -37 -7 -12 -8 -20 -2 -20 5 0 10 5 10 12 0 16 39 -21 65 -62 12 -20 39
-47 59 -60 56 -39 62 -66 31 -129 -15 -29 -33 -55 -41 -58 -8 -3 -14 -19 -14
-39 0 -19 -3 -34 -8 -34 -4 0 -13 -15 -21 -32 -8 -18 -27 -52 -43 -75 -15 -23
-28 -45 -28 -50 0 -4 -19 -33 -42 -63 -23 -30 -63 -89 -88 -130 -78 -126 -95
-150 -106 -150 -14 0 -24 -23 -24 -52 0 -12 -13 -42 -29 -67 -16 -25 -32 -57
-35 -71 -7 -24 -6 -24 9 -5 41 53 115 157 115 161 0 47 213 358 311 454 25 25
69 67 97 95 63 60 67 80 17 71 -38 -8 -43 1 -26 47 8 19 19 25 57 31 26 3 53
11 60 17 8 6 55 28 104 49 85 35 140 42 140 18 0 -10 -29 -57 -47 -76 -7 -7
-13 -20 -13 -27 0 -17 -38 -93 -51 -100 -4 -3 -6 -12 -2 -21 6 -16 -68 -94
-90 -94 -12 0 -50 -51 -63 -83 -8 -21 30 -67 56 -67 16 0 60 39 60 54 0 4 12
22 26 41 14 18 30 50 36 71 5 21 23 52 39 68 62 64 69 74 84 109 8 21 20 37
25 37 6 0 28 -12 50 -26 36 -24 47 -26 105 -22 36 3 72 11 80 18 13 11 15 7
15 -22 0 -57 49 -87 83 -50 14 16 14 20 1 48 -8 17 -26 36 -38 42 -23 10 -23
10 -7 70 15 59 15 62 -8 111 -19 39 -32 53 -61 65 -51 20 -66 40 -42 58 10 7
21 20 24 29 7 19 77 31 95 17 7 -5 19 -6 30 -1 19 10 81 9 90 -1 4 -3 -6 -6
-20 -6 -25 0 -27 -3 -27 -42 0 -36 4 -45 25 -55 24 -11 25 -10 26 25 2 51 3
57 12 60 17 5 28 0 74 -36 36 -29 52 -52 65 -88 14 -39 25 -54 52 -67 33 -15
37 -15 66 1 38 21 39 65 2 70 -13 2 -27 14 -32 28 -6 14 -18 24 -29 24 -11 0
-31 14 -45 31 -30 35 -34 85 -12 127 15 27 77 82 94 82 5 0 22 11 38 25 l29
25 5 -42 c3 -24 10 -42 15 -41 6 1 17 3 25 5 9 2 16 -6 18 -20 2 -13 10 -26
17 -29 10 -3 14 -20 13 -49 0 -25 2 -48 6 -51 8 -8 56 44 56 62 0 7 6 15 13
18 8 3 6 10 -8 21 -12 9 -15 16 -7 17 6 1 16 2 22 3 5 0 17 11 25 24 13 17 20
20 35 12 10 -5 21 -10 24 -10 7 0 36 61 36 77 0 7 7 13 16 13 11 0 15 -6 11
-20 -3 -11 -1 -23 4 -26 5 -3 9 -14 9 -25 0 -28 16 -23 30 10 7 18 9 39 4 53
-4 13 -7 31 -5 41 1 10 -4 17 -13 17 -9 0 -18 11 -22 25 -13 54 -77 37 -72
-19 3 -29 0 -31 -32 -34 -19 -2 -40 -8 -46 -13 -7 -6 -22 -6 -38 1 -41 15 -53
12 -58 -15 -4 -21 -2 -24 13 -20 11 4 19 0 22 -12 4 -17 5 -17 6 0 1 12 7 17
18 15 12 -2 18 -14 19 -41 2 -20 1 -37 -2 -37 -2 0 -21 11 -42 23 -20 13 -43
22 -49 20 -16 -6 -46 24 -39 36 4 5 1 11 -5 13 -15 5 108 113 139 122 14 5 22
15 22 30 0 31 34 61 57 51 10 -5 24 -7 31 -6 6 1 12 -5 12 -14 0 -11 6 -15 18
-11 31 9 78 -46 66 -78 -7 -19 0 -20 27 -6 13 7 19 7 19 0 0 -5 7 -10 15 -10
9 0 19 -8 22 -18 4 -9 15 -28 25 -41 20 -26 24 -82 7 -109 -9 -14 -6 -25 12
-54 35 -52 51 -59 158 -65 53 -3 105 -11 116 -17 25 -15 90 -12 110 4 9 7 15
30 15 54 0 41 2 43 48 63 65 29 99 33 157 21 61 -13 61 -13 41 -34 -15 -15
-15 -18 -1 -33 8 -10 15 -23 15 -29 0 -7 4 -12 9 -12 15 0 19 23 9 49 -12 34
-5 35 38 5 22 -14 50 -30 63 -35 17 -7 21 -14 16 -27 -18 -40 -16 -75 5 -127
12 -30 26 -55 31 -55 30 0 109 -100 109 -139 0 -33 41 -126 64 -146 17 -14 26
-34 30 -71 7 -55 31 -114 53 -127 7 -4 13 -18 13 -31 0 -12 11 -38 25 -57 14
-19 32 -44 41 -56 9 -13 24 -23 33 -22 12 0 11 3 -4 9 -19 9 -19 9 3 16 12 3
22 11 22 18 -1 13 -25 47 -31 42 -2 -2 -5 10 -6 27 -1 17 -7 35 -13 41 -13 13
-13 113 0 121 17 11 11 36 -18 74 -37 47 -60 125 -42 146 23 28 37 16 44 -35
4 -27 4 -60 1 -73 -8 -31 35 -58 60 -37 13 10 18 11 28 1 7 -7 8 -12 2 -11
-22 5 -27 -1 -15 -15 12 -15 6 -35 -11 -35 -6 0 -7 9 -4 20 4 14 2 20 -9 20
-12 0 -13 -5 -4 -32 6 -18 16 -38 23 -43 6 -6 10 -20 9 -32 -3 -20 -1 -21 21
-13 27 10 39 -1 34 -31 -3 -29 2 -39 21 -39 11 0 20 -4 20 -10 0 -5 -10 -10
-22 -10 -12 0 -18 -3 -14 -8 7 -7 11 -8 39 -11 9 -1 9 -3 -1 -10 -8 -4 -13
-11 -13 -15 1 -3 1 -8 1 -11 0 -9 -36 28 -49 50 -11 18 -11 18 -5 -5 18 -65
62 -91 84 -50 13 24 -2 81 -26 101 -19 16 -44 74 -44 103 0 12 -5 27 -12 34
-9 9 -9 12 -1 12 13 0 -1 56 -18 75 -5 5 -9 24 -9 43 0 18 -14 65 -31 104 -25
57 -28 72 -17 79 7 5 16 9 21 9 4 0 7 9 7 21 0 17 -4 20 -25 15 -21 -5 -25 -2
-34 32 -14 49 -11 156 3 142 16 -16 26 -12 26 9 0 25 14 34 39 26 14 -4 25
-27 40 -84 12 -42 21 -88 21 -102 0 -13 24 -60 53 -103 69 -105 65 -98 71
-119 9 -28 60 -19 64 12 2 13 -1 28 -7 34 -13 13 -15 84 -2 91 4 3 11 29 15
58 10 70 32 106 72 114 19 3 37 15 44 30 12 22 71 65 96 70 6 1 35 13 65 27
30 14 68 29 84 33 17 4 38 14 48 23 17 14 21 14 49 -2 22 -13 34 -15 43 -7 10
8 15 6 20 -9 3 -12 13 -21 21 -21 20 0 47 -27 35 -34 -13 -8 -7 -39 8 -44 9
-3 11 2 7 16 -15 45 22 36 101 -26 44 -34 110 -62 148 -62 12 0 30 9 39 19 18
20 21 47 16 166 -6 150 75 198 176 106 24 -23 60 -49 79 -58 24 -11 34 -22 30
-32 -3 -9 6 -34 19 -55 l23 -39 7 47 c6 37 11 46 23 42 8 -3 32 -6 52 -6 31 0
40 -5 49 -25 14 -30 32 -33 32 -5 0 17 7 20 45 20 61 0 113 28 154 84 34 44
51 57 51 36 0 -5 8 -10 19 -10 28 0 35 40 11 65 -28 29 -26 38 19 83 21 21 44
48 50 60 6 12 18 22 26 22 15 0 65 60 65 78 0 16 17 15 22 0 3 -7 12 3 21 21
19 38 13 56 -9 27 -19 -26 -18 -6 2 44 17 41 17 41 36 21 27 -30 31 -26 25 19
-5 37 -3 40 28 50 66 22 108 128 72 183 -15 23 -15 26 2 41 18 16 19 15 25
-29 7 -41 9 -44 27 -35 10 6 19 8 19 5 0 -3 10 1 22 9 28 20 38 20 38 1 0 -10
11 -15 35 -15 39 0 42 4 19 27 -8 9 -13 22 -9 31 3 8 1 20 -5 27 -16 20 -6 60
16 60 10 0 25 4 33 9 10 6 12 5 9 -5 -3 -8 -14 -15 -26 -17 -14 -2 -22 -11
-22 -22 0 -24 20 -37 30 -20 7 11 14 11 39 0 17 -7 31 -19 31 -26 0 -18 -9
-18 -29 0 -14 13 -16 12 -18 -10 -6 -55 -8 -64 -15 -64 -13 0 -9 -58 4 -66 6
-4 14 -2 16 5 3 9 7 9 18 1 20 -18 74 -3 74 20 0 14 -5 18 -17 13 -16 -6 -16
-5 0 17 9 14 17 39 17 57 0 18 4 33 9 33 10 0 20 -31 37 -118 3 -18 10 -35 15
-38 5 -3 9 -14 9 -25 0 -17 6 -20 33 -17 31 3 32 5 32 48 1 58 -6 70 -87 149
-46 44 -68 73 -68 89 0 12 -12 34 -27 48 -31 29 -27 36 15 28 30 -6 36 -15 35
-51 -1 -7 9 -13 21 -14 51 -2 61 -5 66 -14 3 -5 -5 -11 -17 -13 -30 -4 -30
-22 0 -22 27 0 57 -28 57 -52 0 -9 6 -18 13 -21 9 -3 12 -16 9 -38 -5 -37 16
-59 56 -59 23 0 24 3 19 35 -6 39 -5 41 17 19 9 -8 20 -12 26 -9 19 12 10 45
-17 59 -16 8 -36 24 -45 35 -22 26 -31 26 -54 4 -16 -17 -17 -16 -12 24 5 35
3 42 -16 51 -16 8 -17 11 -4 11 9 1 19 7 21 14 3 6 6 2 6 -10 1 -27 32 -31 50
-9 17 20 -3 56 -29 56 -11 0 -20 7 -20 15 0 18 7 18 49 4 17 -6 31 -17 31 -25
0 -9 11 -14 31 -14 24 0 30 -4 25 -15 -3 -8 4 -23 15 -34 l21 -19 -21 -21
c-38 -38 -24 -81 28 -81 10 0 26 -9 35 -19 10 -11 25 -17 36 -14 17 5 17 6 -2
43 -24 45 -19 66 18 81 31 11 44 3 47 -32 1 -22 41 -68 60 -69 4 0 7 9 7 20 0
11 7 20 15 20 8 0 15 9 15 20 0 15 7 20 28 20 20 0 23 3 13 9 -12 8 -12 12 -2
25 11 14 11 16 -3 16 -10 0 -14 -4 -11 -10 3 -5 -1 -10 -11 -10 -13 0 -15 6
-10 30 6 35 7 35 -30 15 -27 -14 -30 -14 -47 7 -13 16 -21 18 -29 10 -17 -17
-28 -15 -28 7 0 20 55 71 77 71 8 0 16 -7 19 -15 8 -21 21 -19 27 4 3 14 11
17 30 14 13 -3 28 0 31 6 10 16 26 13 26 -4 0 -22 12 -18 39 15 23 27 25 28
47 13 19 -12 27 -13 39 -3 8 7 15 21 15 31 0 11 5 19 10 19 6 0 10 -8 10 -18
0 -10 7 -27 15 -39 14 -20 14 -23 -7 -35 -13 -7 -26 -11 -30 -10 -5 1 -8 -7
-8 -17 0 -21 27 -36 33 -18 5 16 33 -7 40 -33 4 -17 0 -20 -28 -20 -19 0 -46
-5 -62 -12 -15 -7 -32 -12 -38 -13 -44 -5 -53 -16 -52 -65 0 -28 4 -50 9 -50
8 0 9 3 12 32 0 7 16 14 34 15 28 2 32 0 32 -23 0 -14 5 -35 11 -47 25 -47
119 -119 173 -133 15 -3 30 -11 34 -18 27 -41 122 -46 161 -7 12 12 29 21 40
21 24 0 52 42 41 60 -4 7 -6 18 -4 25 8 20 -27 40 -70 40 -33 0 -41 4 -44 20
-2 11 -13 30 -24 42 -22 24 -18 53 6 53 9 0 18 11 22 25 9 36 21 31 29 -14 6
-38 45 -79 73 -75 6 1 17 2 22 3 6 0 10 21 10 46 0 51 -38 119 -71 128 -15 4
-18 11 -14 29 5 21 2 23 -35 25 -54 3 -92 -20 -84 -52 3 -13 1 -26 -4 -29 -6
-3 -8 -14 -6 -24 2 -9 0 -24 -6 -32 -9 -13 -12 -13 -20 2 -6 9 -17 15 -25 12
-8 -4 -15 -2 -15 4 0 6 -10 8 -22 4 -16 -4 -20 -2 -15 10 3 9 0 21 -6 27 -8 8
-5 16 11 31 24 23 27 35 12 45 -5 3 -10 15 -10 25 0 13 8 20 28 22 16 2 27 9
27 18 0 23 24 60 39 60 16 0 30 27 27 53 -3 25 11 21 41 -10 20 -21 25 -35 21
-55 -5 -28 -28 -44 -38 -28 -9 15 -45 12 -45 -4 0 -7 -7 -19 -15 -26 -9 -7
-15 -23 -13 -34 4 -28 41 -28 47 -1 5 26 33 46 47 34 13 -11 39 15 30 30 -3 5
8 14 25 20 18 6 29 16 27 25 -2 8 1 14 7 13 5 -1 8 -12 7 -24 -3 -16 2 -23 15
-25 33 -2 38 -3 50 -11 7 -5 20 -4 28 0 13 8 10 14 -16 41 -17 18 -30 33 -28
33 16 6 59 3 59 -3 0 -4 20 -16 43 -27 27 -13 54 -35 70 -60 l27 -41 -23 0
c-13 0 -28 5 -35 12 -15 15 -28 3 -37 -34 -9 -34 9 -38 20 -5 7 20 8 19 14
-12 6 -34 32 -53 58 -44 7 3 16 -2 19 -11 3 -9 15 -16 25 -16 26 0 25 40 -1
47 -12 3 -17 10 -13 17 4 6 7 19 8 30 0 10 8 24 18 30 23 15 39 -9 31 -47 -4
-19 -1 -29 10 -33 23 -9 23 -156 0 -178 -14 -15 -14 -16 0 -16 11 0 16 -9 16
-29 0 -16 16 -60 35 -96 48 -94 48 -121 0 -342 -4 -16 -13 -23 -29 -23 -13 0
-27 -7 -30 -16 -5 -13 -1 -15 16 -11 16 4 28 -1 39 -17 15 -19 15 -30 5 -93
-11 -64 -17 -76 -58 -116 -57 -57 -88 -135 -97 -247 -4 -47 -13 -95 -19 -107
-15 -27 -16 -70 -2 -78 18 -11 39 15 45 54 10 57 26 91 51 108 18 11 22 21 18
39 -6 22 35 157 72 241 8 17 14 37 14 44 0 28 45 149 55 149 6 0 12 15 13 33
1 17 2 52 3 76 3 98 68 93 67 -4 0 -76 2 -95 12 -95 6 0 10 10 10 22 0 20 1
21 20 3 11 -10 20 -25 20 -34 0 -32 20 6 22 41 2 45 -7 58 -39 58 l-25 0 7 78
c4 42 11 81 16 87 6 5 9 5 9 -2 0 -6 11 -10 25 -9 14 0 25 2 25 3 0 1 -11 13
-25 25 l-25 23 20 64 c15 52 29 73 74 118 31 29 56 59 56 66 0 7 18 31 40 53
34 36 48 43 95 49 58 7 79 1 72 -20 -3 -6 3 -24 13 -39 14 -22 19 -24 23 -12
4 9 4 22 1 29 -6 18 13 67 26 67 5 0 10 -11 10 -25 0 -34 43 -56 66 -33 17 17
14 21 -30 52 -19 13 -17 15 31 39 27 14 63 36 79 49 16 13 41 29 55 37 31 15
47 9 122 -51 27 -21 53 -38 58 -38 9 0 144 -125 203 -189 42 -46 154 -153 191
-184 17 -14 40 -42 50 -61 13 -23 27 -36 40 -36 11 0 42 -20 68 -45 77 -71
102 -68 32 4 -33 34 -62 66 -64 72 -1 5 -21 21 -43 35 -59 37 -95 72 -245 234
-93 100 -143 162 -163 205 -16 33 -43 75 -59 93 -31 35 -57 35 -46 1 10 -31
-3 -40 -35 -24 -32 16 -37 31 -32 87 3 30 9 39 27 44 12 3 32 19 44 35 l23 30
-39 -3 c-29 -2 -39 -8 -41 -23 -11 -57 -32 -32 -47 53 -6 38 -5 42 14 42 24 0
28 25 6 34 -8 3 -15 1 -15 -5 0 -6 -4 -7 -10 -4 -5 3 -10 22 -10 42 0 26 5 36
20 40 11 3 20 9 20 14 0 15 27 10 34 -6 8 -22 56 -20 56 3 0 10 -6 24 -12 31
-11 10 -9 14 5 23 28 15 77 69 77 84 0 8 5 14 11 14 5 0 7 5 3 12 -7 11 -10
25 -17 93 -2 17 3 19 27 17 36 -5 76 16 76 38 0 27 -22 40 -66 40 -34 0 -44 4
-49 20 -4 11 -19 27 -35 35 -25 13 -29 13 -41 -1 -17 -21 -1 -46 39 -59 40
-14 49 -23 28 -31 -9 -4 -24 1 -35 10 -9 9 -32 19 -49 22 -42 8 -142 -5 -142
-18 0 -21 -51 -78 -70 -78 -24 0 -43 34 -34 62 3 11 1 24 -5 27 -8 5 -6 30 6
87 14 68 22 85 57 122 55 57 105 83 150 75 27 -4 37 -2 42 11 3 9 17 16 30 16
20 0 24 5 24 28 0 35 -26 73 -45 66 -8 -4 -23 -3 -32 0 -15 6 -15 8 -3 17 11
7 5 8 -20 4 l-35 -6 23 20 c12 10 22 31 22 45 0 20 7 27 27 33 35 9 66 5 75
-10 4 -6 10 -8 14 -4 4 4 1 13 -8 20 -8 6 -23 23 -32 37 -19 29 -72 36 -98 13
-17 -15 -18 -14 -18 10 0 25 3 27 43 27 37 1 40 2 25 14 -10 7 -18 23 -18 34
0 11 -5 24 -10 27 -6 4 -8 15 -5 26 4 12 2 19 -7 19 -7 0 -4 9 9 22 26 25 43
17 25 -12 -7 -11 -8 -20 -3 -20 5 0 11 5 13 11 2 6 14 1 28 -11 13 -11 30 -18
38 -15 20 8 52 -13 46 -30 -5 -12 2 -15 30 -15 33 0 36 -3 36 -27 1 -32 31
-73 54 -73 9 0 18 -13 22 -35 3 -19 10 -35 15 -35 5 0 9 -5 9 -10 0 -14 60
-80 73 -80 5 0 6 11 3 25 -9 34 3 75 21 75 26 0 9 35 -18 38 -16 2 -30 12 -37
26 -8 18 -16 22 -36 19 -38 -8 -25 19 19 40 30 14 36 15 49 2 19 -19 36 -19
36 0 0 8 8 15 18 15 26 1 55 27 49 45 -7 17 2 19 37 5 20 -7 27 -6 34 7 7 11
11 12 17 4 5 -9 11 -9 23 2 28 25 78 26 68 2 -3 -8 2 -29 12 -45 15 -27 21
-31 50 -26 23 3 35 1 39 -10 10 -27 22 -14 20 23 -2 33 1 38 20 41 15 2 25 13
30 30 3 15 21 40 39 55 18 17 30 35 27 43 -7 20 3 17 37 -8 20 -15 28 -28 25
-39 -7 -22 27 -34 54 -19 17 8 25 6 43 -12 14 -14 23 -18 26 -9 3 9 7 9 18 0
7 -6 21 -8 30 -5 16 6 15 8 -2 24 -10 10 -28 21 -39 26 -20 7 -20 8 -1 22 14
10 23 11 33 3 7 -6 13 -8 13 -5 0 4 12 -1 28 -12 15 -10 35 -22 46 -26 25 -9
48 11 37 33 -4 9 -9 44 -9 79 -2 73 -7 86 -33 79 -10 -3 -23 1 -30 9 -17 21
-31 17 -27 -8 2 -11 -3 -23 -9 -25 -9 -3 -13 6 -13 27 0 23 -5 33 -20 37 -11
3 -20 10 -20 15 0 5 6 8 13 5 10 -3 44 53 35 57 -71 37 -76 39 -114 30 -36 -9
-39 -13 -42 -46 -3 -32 0 -37 27 -46 47 -17 30 -38 -29 -38 l-50 0 5 30 c3 17
1 38 -4 46 -9 13 -12 12 -24 -4 -9 -12 -20 -17 -31 -13 -14 6 -12 13 15 64 17
32 42 68 55 81 13 13 24 31 24 41 0 11 7 21 15 25 8 3 15 12 15 21 0 8 7 15
15 15 8 0 20 9 27 20 13 21 33 26 42 11 7 -10 -27 -51 -43 -51 -6 0 -11 -5
-11 -11 0 -6 7 -8 16 -5 9 3 28 6 42 7 15 0 21 3 15 6 -18 7 -16 23 3 23 11 0
15 8 12 28 -2 22 1 28 22 31 14 1 28 7 31 13 4 6 28 4 65 -6 64 -17 74 -14 56
14 -7 11 -12 26 -12 35 0 24 -34 36 -69 24 -17 -6 -31 -15 -31 -20 0 -18 -19
-9 -25 12 -5 15 -2 25 9 31 9 5 16 17 16 27 0 10 7 25 16 32 14 11 18 11 29
-4 14 -20 46 -22 63 -5 17 17 15 25 -9 31 -29 8 -22 51 9 55 19 3 21 7 15 25
-4 12 -6 41 -5 65 2 39 0 42 -23 42 -13 0 -43 -7 -65 -16 -31 -13 -40 -21 -40
-40 0 -30 5 -30 48 2 28 22 36 24 43 13 6 -9 3 -18 -7 -25 -9 -7 -14 -25 -13
-45 4 -52 -28 -99 -46 -69 -3 6 -18 10 -32 10 -16 0 -27 7 -30 19 -6 23 -26
33 -48 25 -20 -8 -19 -23 2 -46 9 -11 11 -18 5 -18 -21 0 -14 -58 8 -70 32
-17 17 -26 -42 -25 -50 0 -53 1 -56 27 -3 22 2 30 22 38 14 5 26 14 26 20 0 5
8 10 17 10 14 0 13 3 -5 23 -32 34 -30 85 4 97 19 7 31 7 40 -1 19 -16 26 -7
19 22 -5 20 -12 24 -41 24 -19 0 -39 -6 -43 -14 -7 -11 -13 -9 -30 8 -33 33
-48 25 -69 -35 -12 -37 -2 -57 22 -48 27 10 38 -16 20 -45 -13 -19 -14 -25 -3
-32 12 -7 11 -9 -1 -10 -46 -4 -73 -9 -78 -13 -3 -3 -1 -20 4 -38 7 -24 17
-34 42 -40 22 -6 32 -14 32 -28 0 -11 7 -20 15 -20 18 0 20 -16 3 -26 -6 -4
-14 -2 -16 5 -3 9 -9 8 -23 -5 -14 -13 -16 -20 -8 -30 6 -7 8 -18 4 -24 -8
-13 -26 -3 -23 14 2 6 -4 19 -12 27 -11 13 -20 14 -37 6 -18 -8 -27 -6 -43 8
-26 24 -25 35 3 35 12 0 29 5 37 10 12 8 11 13 -8 33 -24 26 -29 57 -9 57 9 0
14 14 14 45 0 31 -5 45 -14 45 -17 0 -16 22 1 90 7 30 13 69 12 85 -1 24 4 31
22 33 18 3 23 -1 20 -15 -2 -12 4 -19 20 -21 14 -2 22 2 22 11 0 18 29 45 31
28 1 -6 3 -14 4 -18 2 -5 6 -18 10 -30 4 -13 11 -23 15 -23 12 0 20 43 10 55
-5 6 -7 21 -3 33 4 18 1 22 -16 22 -12 0 -21 6 -21 15 0 8 5 15 10 15 22 0 91
52 87 64 -7 18 46 69 59 57 5 -6 22 2 42 20 29 26 32 32 20 47 -22 28 -49 51
-69 57 -23 8 -25 25 -3 25 8 0 13 4 10 9 -3 4 -17 6 -31 3 -19 -3 -25 0 -25
12 0 10 -5 14 -10 11 -6 -3 -15 6 -20 21 -9 22 -7 30 10 46 21 20 26 38 10 38
-5 0 -10 -7 -10 -15 0 -8 -8 -15 -18 -15 -13 0 -18 -7 -18 -22 1 -14 -5 -23
-14 -23 -8 0 -32 -9 -53 -20 -32 -16 -40 -17 -47 -6 -7 12 -11 11 -25 -2 -9
-10 -22 -17 -30 -17 -7 0 -15 -10 -17 -23 -4 -19 0 -22 20 -22 14 0 27 -6 29
-12 3 -7 -2 -13 -11 -13 -19 0 -21 -16 -3 -23 10 -3 10 -9 -1 -26 -14 -23 -16
-42 -4 -40 18 3 32 -2 32 -11 0 -5 -11 -10 -25 -10 -14 0 -25 5 -25 11 0 6 -7
8 -16 5 -23 -9 -64 20 -64 45 0 18 -4 20 -22 14 -13 -4 -32 -7 -43 -6 -11 0
-32 1 -47 1 -21 0 -28 5 -28 19 0 11 -5 23 -11 26 -6 4 -8 13 -5 21 3 8 -1 14
-9 14 -18 0 -20 39 -2 41 94 10 101 9 129 -24 21 -24 28 -28 28 -14 0 19 11
22 26 7 16 -16 43 -1 50 27 9 34 -18 62 -40 43 -9 -7 -16 -19 -16 -26 0 -18
-19 -18 -26 0 -3 8 -12 12 -20 9 -8 -3 -14 1 -14 11 0 9 5 16 10 16 6 0 10 7
10 15 0 7 8 19 18 24 13 9 14 12 4 19 -9 6 -14 33 -15 73 l-2 64 28 0 c20 0
36 9 53 30 l24 30 0 -27 c0 -35 20 -44 96 -43 44 1 71 8 97 24 32 20 37 28 37
62 0 27 -4 39 -14 39 -8 0 -18 -4 -21 -10 -9 -14 -45 -12 -45 3 0 19 43 99 62
117 21 18 52 90 39 90 -6 0 -12 -4 -16 -10 -3 -5 -11 -7 -18 -4 -8 3 -28 -24
-52 -71 -31 -60 -42 -74 -56 -70 -22 7 -59 -11 -59 -29 0 -7 -9 -24 -19 -38
-15 -19 -27 -24 -49 -20 -36 5 -93 -23 -86 -42 3 -9 -5 -15 -25 -19 -28 -6
-29 -9 -24 -40 3 -20 1 -37 -6 -41 -14 -9 -82 4 -76 15 3 4 0 17 -7 28 -9 15
-9 23 1 35 18 21 28 20 34 -4 5 -20 27 -28 27 -10 0 6 -5 10 -10 10 -6 0 -3
11 5 24 11 16 13 26 6 31 -6 3 -11 1 -11 -5 0 -7 -6 -10 -12 -7 -8 2 -12 15
-10 30 2 15 -1 27 -7 27 -6 0 -11 7 -11 16 0 9 -9 18 -20 21 -13 4 -20 14 -20
29 0 21 4 23 25 18 29 -7 75 18 75 42 0 8 20 36 46 61 54 55 72 85 55 91 -19
6 -12 32 8 32 27 0 54 29 42 44 -6 7 -6 17 -1 26 14 22 12 50 -3 50 -13 0 -25
-11 -95 -87 -22 -24 -47 -43 -55 -43 -9 0 -21 -9 -27 -20 -6 -11 -17 -20 -25
-20 -8 0 -15 -4 -15 -10 0 -5 5 -10 10 -10 6 0 10 -5 10 -12 0 -9 -3 -9 -11
-1 -7 7 -17 8 -28 3 -9 -5 -33 -16 -53 -24 -27 -11 -41 -25 -52 -51 -18 -42
-31 -39 -40 7 -5 30 -9 33 -42 33 -28 0 -41 -7 -60 -30 -21 -27 -26 -29 -45
-17 -19 12 -24 11 -43 -7 -11 -12 -15 -21 -8 -21 24 0 11 -28 -17 -38 -22 -8
-34 -7 -46 2 -23 17 -11 54 18 58 28 4 31 44 4 42 -11 -1 -17 4 -16 15 1 9 -2
24 -6 35 -10 22 5 50 29 54 11 2 14 -1 10 -12 -3 -9 -12 -16 -20 -16 -8 0 -14
-4 -14 -10 0 -5 7 -10 15 -10 8 0 15 -9 15 -20 0 -11 4 -20 10 -20 5 0 7 7 3
16 -4 10 1 17 16 21 12 3 24 16 27 32 4 14 11 32 17 39 7 9 3 12 -16 12 -27 0
-52 23 -42 40 3 5 13 10 21 10 8 0 12 -4 9 -10 -8 -13 5 -13 38 3 15 6 27 18
27 26 0 9 8 11 25 7 14 -4 33 -2 42 3 10 5 26 12 36 15 15 5 17 12 12 37 -6
27 -5 31 9 26 10 -4 29 2 46 14 15 12 33 18 39 15 6 -4 11 -1 11 5 0 7 -23 35
-51 62 -47 45 -50 50 -35 66 17 18 21 40 9 42 -5 0 -16 2 -25 4 -14 3 -17 -2
-12 -20 8 -33 -8 -37 -35 -9 -14 14 -18 24 -10 24 10 0 10 3 2 11 -12 12 -54
4 -121 -22 -27 -11 -34 -11 -41 -1 -7 11 -9 10 -14 -2 -10 -26 -30 -18 -61 27
l-29 42 -8 -28 c-10 -36 -2 -57 21 -57 10 0 22 -9 25 -21 4 -12 13 -18 20 -15
8 3 19 -1 25 -9 9 -11 7 -16 -10 -25 -20 -11 -20 -12 -4 -24 12 -9 14 -15 5
-20 -12 -8 -56 2 -47 11 3 3 1 14 -5 24 -11 21 -36 24 -59 8 -12 -9 -10 -10 8
-6 18 4 28 -2 45 -29 12 -18 28 -34 35 -34 6 0 12 -5 12 -11 0 -6 9 -8 20 -4
16 5 20 2 20 -15 0 -16 -5 -20 -18 -16 -9 2 -35 10 -58 16 -33 10 -43 19 -53
46 -7 19 -17 32 -22 29 -5 -4 -9 -1 -9 5 0 15 -25 7 -26 -8 -3 -24 -4 -26 -16
-14 -15 15 -38 16 -38 1 0 -14 -25 -39 -39 -39 -6 0 -11 -4 -11 -10 0 -5 -6
-10 -12 -10 -15 0 -16 100 -2 122 5 7 7 23 6 35 -2 14 4 23 17 28 24 7 42 -1
40 -18 -3 -24 1 -37 12 -37 5 0 7 5 4 10 -8 14 13 40 31 40 8 0 20 -11 26 -25
17 -37 30 -30 26 13 -2 28 -7 36 -20 34 -29 -5 -28 13 2 46 21 23 24 32 14 32
-12 0 -15 10 -14 48 5 93 1 112 -19 112 -20 0 -35 -25 -25 -41 3 -5 3 -18 -1
-29 -5 -16 -14 -19 -66 -17 -57 2 -62 0 -88 -32 -18 -22 -38 -34 -59 -37 -48
-5 -41 22 8 37 22 7 40 16 40 21 0 4 7 8 15 8 27 0 16 20 -15 27 -24 4 -28 8
-19 19 6 8 26 14 44 14 25 0 40 8 56 28 14 17 23 22 26 15 3 -7 13 -13 24 -13
14 0 19 7 19 26 0 23 -3 25 -26 20 -23 -6 -26 -4 -21 14 6 23 -33 54 -41 31
-5 -14 -32 -15 -32 -1 0 6 -5 10 -11 10 -6 0 -8 -8 -4 -19 12 -40 -36 -96 -51
-57 -4 11 -10 11 -29 2 -34 -15 -71 -106 -56 -134 17 -33 14 -62 -8 -62 -23 0
-35 28 -21 45 8 10 7 16 -5 22 -9 6 -19 28 -22 52 -5 37 -2 46 21 68 26 24 26
26 10 44 -13 15 -14 19 -3 19 8 0 20 12 27 27 17 38 15 45 -8 33 -11 -6 -20
-17 -20 -25 0 -8 -4 -15 -10 -15 -5 0 -10 4 -10 9 0 17 78 128 94 134 13 5 14
3 4 -13 -10 -16 -8 -22 14 -39 20 -16 25 -29 24 -53 -2 -18 -1 -39 2 -45 6
-18 22 -16 22 2 0 8 4 15 9 15 4 0 6 11 4 24 -4 17 2 28 18 40 21 14 25 14 46
1 21 -14 26 -14 47 0 30 20 68 5 85 -32 9 -18 17 -24 32 -20 33 9 79 -12 79
-35 0 -14 5 -18 15 -14 8 3 15 1 15 -5 0 -5 -6 -12 -14 -15 -8 -3 -13 -11 -11
-17 2 -7 6 -24 9 -39 6 -26 7 -26 78 -22 40 2 87 6 103 9 20 4 47 -1 78 -14
l48 -21 -16 -29 c-22 -43 -11 -61 38 -61 27 0 48 7 62 20 24 22 21 23 112 -16
45 -20 50 -18 51 18 1 23 9 39 28 55 30 24 28 26 -34 37 -30 5 -32 4 -26 -19
8 -31 -4 -65 -22 -65 -8 0 -14 5 -14 10 0 6 -6 10 -13 10 -7 0 -28 11 -46 24
-18 13 -49 27 -69 31 -20 3 -58 16 -84 28 -41 19 -48 26 -48 52 0 42 -15 64
-32 47 -15 -15 -48 -16 -48 0 0 21 43 103 62 116 21 15 25 62 5 62 -21 0 -43
-23 -57 -60 -18 -46 -40 -72 -58 -65 -8 3 -25 -1 -38 -10 -22 -14 -27 -13 -70
6 -25 12 -51 30 -57 40 -6 9 -16 15 -23 12 -7 -2 -20 7 -30 22 -15 23 -16 33
-7 63 24 79 40 112 66 132 15 12 27 30 27 40 0 10 4 22 10 25 15 9 12 32 -6
39 -22 8 -54 -11 -54 -33 0 -10 -7 -24 -15 -31 -8 -7 -15 -20 -15 -29 0 -9
-21 -26 -49 -40 -27 -13 -52 -32 -54 -43 -6 -21 -30 -24 -46 -4 -9 11 -8 17 4
29 21 21 19 30 -10 44 -22 10 -27 8 -46 -19 -12 -17 -18 -33 -13 -37 5 -3 14
-16 21 -27 10 -19 8 -23 -13 -33 -14 -6 -29 -9 -34 -6 -5 3 -17 33 -26 66 -9
33 -24 65 -34 72 -28 20 -31 33 -19 86 8 38 18 56 45 76 19 14 38 24 43 21 13
-8 44 31 38 47 -8 22 83 69 120 61 20 -4 33 -1 42 9 8 11 23 14 46 10 30 -5
39 -1 70 30 25 25 35 44 35 66 0 28 -3 31 -32 31 -36 0 -77 -22 -124 -66 -34
-32 -108 -74 -130 -74 -8 0 -14 7 -14 15 0 8 -4 15 -10 15 -5 0 -10 -9 -10
-20 0 -13 -12 -25 -35 -34 -19 -8 -38 -23 -42 -33 -4 -10 -12 -22 -20 -26 -7
-4 -13 -16 -13 -27 0 -21 -47 -63 -64 -57 -18 6 -19 46 -2 72 11 17 22 22 38
18 18 -4 20 -3 8 6 -12 9 -10 15 16 43 45 47 54 69 54 132 0 51 2 56 25 62 14
3 25 12 25 20 0 16 -36 19 -45 4 -7 -12 -25 -4 -25 11 0 5 16 19 36 31 31 18
35 24 28 47 -7 27 -7 82 1 90 3 2 13 -3 22 -11 25 -22 57 -30 114 -30 35 1 52
-4 56 -14 7 -20 26 -18 57 7 31 24 33 49 8 73 -11 9 -24 34 -31 56 -15 51 -53
80 -103 80 -77 0 -135 -54 -125 -115 l5 -33 -31 16 c-18 10 -33 20 -35 25 -2
4 -10 7 -18 7 -29 0 -13 40 31 75 24 20 47 46 51 57 3 11 12 17 19 14 9 -3 12
0 8 10 -3 9 1 14 11 14 9 0 19 6 22 14 3 8 19 18 35 21 16 4 31 11 34 16 4 5
15 9 25 9 27 0 58 66 42 91 -6 10 -14 35 -18 56 -7 45 13 69 60 75 16 1 34 11
40 21 9 15 6 22 -18 42 -27 22 -29 26 -23 75 3 28 12 63 20 78 8 15 24 46 37
70 17 32 20 50 15 75 -4 17 -6 50 -5 72 0 22 1 56 1 75 0 19 0 86 0 147 0 122
-7 145 -49 165 -35 17 -63 89 -44 116 7 9 16 27 21 39 6 12 16 25 24 30 17 9
67 123 67 150 0 10 10 58 22 106 23 88 23 89 3 103 -26 20 -37 14 -60 -32 -11
-21 -22 -41 -25 -44 -3 -3 -11 -17 -17 -32 -7 -16 -21 -29 -30 -30 -10 0 -25
-2 -33 -3 -29 -3 -40 15 -34 59 5 32 2 46 -11 60 -15 14 -20 15 -37 4 -29 -19
-74 -107 -80 -157 -4 -29 -29 -47 -53 -37 -13 5 -15 9 -6 20 15 18 4 43 -22
50 -19 5 -59 52 -92 106 -6 9 -16 15 -23 12 -6 -2 -12 1 -12 8 0 6 -12 15 -27
21 -39 13 -77 74 -69 110 7 37 -18 130 -38 141 -9 5 -28 35 -43 66 -16 31 -38
65 -51 75 -12 10 -34 44 -48 75 -14 31 -30 65 -35 74 -5 10 -9 31 -9 48 0 18
-6 33 -15 37 -9 3 -15 15 -13 26 3 25 -25 35 -47 17 -10 -8 -12 -25 -8 -63 3
-29 9 -54 12 -57 3 -3 16 -24 29 -46 35 -66 29 -186 -13 -216 -18 -13 -119 -8
-149 7 -15 8 -36 15 -46 15 -23 0 -140 -58 -140 -69 0 -17 -45 -20 -76 -5 -23
11 -65 16 -146 16 -108 0 -168 10 -168 29 0 5 -6 9 -12 9 -17 0 -68 73 -68 97
0 10 -17 43 -38 73 -20 31 -48 77 -62 103 -13 26 -28 47 -32 47 -5 0 -8 4 -8
10 0 5 -15 31 -34 58 -19 26 -37 59 -41 74 -4 15 -13 32 -21 39 -18 15 -18 43
2 99 9 25 13 59 11 76 -3 18 -1 36 5 42 21 21 -24 83 -79 112 -29 14 -60 34
-71 43 -10 9 -22 17 -26 17 -5 0 -24 14 -44 31 -41 36 -81 35 -113 -3 -29 -35
-32 -55 -12 -85 27 -41 41 -64 60 -100 9 -18 23 -33 30 -33 7 0 13 -4 13 -10
0 -5 17 -19 38 -30 50 -26 73 -48 101 -92 12 -21 27 -38 32 -38 5 0 9 -5 9
-11 0 -6 9 -22 20 -36 27 -34 27 -57 0 -43 -25 13 -69 3 -97 -23 -40 -36 -42
-131 -4 -178 17 -21 18 -21 45 -4 14 10 24 20 21 23 -12 12 52 39 83 34 25 -3
32 -1 32 12 0 9 6 16 13 16 12 0 37 -78 37 -116 0 -21 50 -93 69 -99 9 -3 25
-20 35 -37 11 -18 32 -53 48 -77 35 -52 33 -73 -7 -78 -16 -2 -48 -13 -70 -25
-28 -15 -62 -22 -110 -23 -38 -2 -74 -4 -80 -5 -5 -1 -27 -2 -47 -1 -30 1 -40
7 -57 35 -12 19 -32 37 -46 40 -14 3 -38 19 -53 34 -16 15 -39 34 -51 42 -11
8 -21 18 -21 23 0 17 -58 57 -82 57 -7 0 -18 8 -25 19 -6 10 -44 28 -87 41
-42 13 -76 28 -76 32 0 5 -6 6 -12 1 -7 -4 -22 -8 -33 -9 -11 0 -30 -4 -43 -8
-35 -12 -38 0 -8 34 14 17 26 40 26 50 0 10 3 27 6 37 4 10 -9 2 -30 -20 -25
-26 -36 -46 -36 -68 0 -20 -9 -37 -27 -53 -26 -23 -27 -25 -15 -76 10 -41 10
-57 -1 -79 -15 -32 -33 -26 -31 11 2 33 -27 43 -58 19 l-21 -18 21 -21 c50
-50 0 -97 -70 -67 -20 8 -43 12 -51 9 -8 -3 -48 2 -88 10 -40 8 -75 13 -78 11
-2 -3 1 -5 7 -5 7 0 12 -5 12 -12 0 -6 -3 -9 -6 -6 -3 4 -20 -9 -37 -27 -25
-26 -42 -34 -79 -38 -39 -4 -48 -1 -57 17 -10 20 -11 20 -9 1 2 -29 -18 -72
-45 -98 -13 -12 -29 -35 -36 -52 -19 -46 -41 -67 -109 -101 l-62 -32 0 31 0
31 -20 -22 c-24 -26 -26 -42 -4 -42 9 0 14 -6 11 -12 -2 -7 -14 -12 -25 -10
-15 2 -22 -2 -22 -12 0 -9 -9 -16 -20 -16 -12 0 -17 5 -14 14 3 7 -2 16 -10
19 -9 4 -16 14 -16 23 0 16 -1 16 -18 1 -20 -18 -22 -17 -80 57 -25 33 -29 61
-8 53 22 -9 34 13 33 61 0 33 -3 42 -14 38 -8 -4 -17 -6 -19 -6 -2 0 -4 -8 -4
-17 0 -20 -43 -44 -60 -33 -14 9 -20 91 -8 107 11 13 3 33 -13 33 -13 0 -70
-120 -62 -132 8 -15 -18 -28 -43 -22 -21 5 -53 -21 -40 -33 3 -3 26 -7 51 -7
40 -1 44 1 39 19 -3 14 4 9 25 -15 23 -27 26 -36 14 -38 -11 -3 -13 -12 -8
-38 5 -27 3 -34 -10 -34 -8 0 -15 9 -15 19 0 11 -9 22 -19 26 -11 3 -22 12
-25 20 -3 9 -18 15 -36 15 -16 0 -30 5 -30 11 0 6 -7 9 -15 5 -8 -3 -19 2 -24
11 -14 25 -44 -2 -37 -33 7 -27 -26 -43 -49 -24 -12 10 -18 10 -30 0 -13 -11
-15 -8 -15 18 0 16 7 46 15 67 12 26 13 40 5 50 -13 16 -3 43 21 55 26 14 31
12 24 -9 -3 -10 1 -23 8 -30 11 -8 20 -5 41 14 15 14 22 25 17 25 -6 0 -11 5
-11 10 0 6 15 10 33 10 27 1 29 2 14 11 -11 6 -32 9 -48 7 -38 -6 -68 22 -44
42 12 10 15 10 15 -3 0 -19 30 -12 57 12 10 10 41 21 68 24 31 4 54 13 60 24
6 10 29 37 53 61 29 30 40 48 33 56 -5 6 -9 15 -10 19 0 12 -47 47 -61 47 -8
0 -10 9 -6 24 5 20 3 23 -14 19 -11 -3 -20 0 -20 6 0 6 -9 11 -21 11 -15 0
-19 5 -15 15 9 24 -15 27 -63 10 -24 -8 -46 -13 -50 -10 -4 2 -4 -21 0 -52 4
-31 6 -60 3 -65 -9 -15 -23 -8 -30 15 -3 12 -13 30 -22 40 -14 15 -13 19 3 37
10 11 13 20 7 20 -7 0 -12 -4 -12 -10 0 -15 -27 -12 -45 6 -14 15 -11 21 42
71 32 29 48 49 36 43 -12 -5 -25 -15 -28 -20 -3 -6 -13 -10 -22 -10 -8 0 -32
-17 -52 -37 -42 -43 -44 -73 -6 -65 20 3 25 0 25 -16 0 -13 9 -22 25 -26 29
-7 32 -21 8 -35 -16 -9 -16 -12 -3 -20 13 -9 12 -12 -4 -24 -22 -16 -14 -37
15 -37 10 0 19 -7 19 -15 0 -12 -7 -14 -27 -9 -16 4 -31 11 -34 17 -4 5 -11 7
-17 3 -6 -3 -18 -3 -27 0 -12 5 -14 14 -9 37 6 29 5 30 -22 22 -16 -4 -45 -7
-65 -6 -34 0 -35 -1 -31 -29 4 -30 -11 -42 -22 -17 -3 9 -9 7 -19 -5 -15 -20
-37 -24 -37 -8 0 6 5 10 11 10 7 0 4 11 -6 26 -9 15 -13 29 -9 33 5 3 9 29 9
56 l0 50 44 3 c25 2 54 1 65 -2 25 -6 58 -60 50 -81 -5 -11 1 -15 24 -15 42 0
50 18 14 31 -23 8 -29 16 -30 39 -1 38 -10 53 -28 46 -18 -7 -18 4 2 42 18 37
34 41 41 12 7 -26 27 -21 31 8 3 18 -2 22 -26 22 -36 0 -40 4 -34 35 3 18 11
25 28 25 33 0 30 18 -3 22 -24 3 -29 9 -33 39 -5 33 -7 36 -27 28 -13 -5 -23
-17 -23 -27 0 -34 -31 -50 -92 -49 -32 1 -58 4 -58 8 0 4 -9 5 -20 2 -12 -3
-20 0 -20 7 0 19 31 39 60 40 14 0 34 7 44 15 26 19 34 19 38 -2 2 -11 7 -4
14 18 11 34 10 36 -8 31 -17 -4 -19 -1 -13 17 4 14 1 27 -11 38 -15 16 -17 16
-31 -3 -14 -19 -14 -19 -29 0 -15 21 -17 17 -15 -24 0 -14 -6 -34 -14 -44 -14
-19 -16 -19 -34 -2 -26 24 -59 6 -68 -35 -3 -17 -12 -33 -19 -36 -15 -5 -10
-47 8 -70 12 -15 -7 -53 -26 -53 -18 0 -27 35 -12 50 8 8 7 14 -6 21 -10 6
-18 21 -18 34 0 14 -4 25 -10 25 -19 0 -10 24 22 57 31 32 31 33 12 47 -11 8
-23 11 -29 6 -14 -12 -31 0 -39 26 -4 15 -2 24 8 27 9 4 13 1 10 -6 -5 -14 40
-38 53 -28 13 9 48 80 42 85 -3 3 -17 -6 -32 -20 -20 -19 -31 -23 -44 -15 -12
6 -24 4 -41 -7 -24 -16 -25 -16 -14 5 22 40 -13 77 -43 47 -18 -18 -19 -30 -4
-39 6 -4 7 -14 4 -24 -16 -39 -35 -126 -31 -138 3 -7 -3 -28 -14 -46 -19 -33
-19 -33 2 -76 19 -38 24 -42 49 -37 27 5 27 4 22 -29 -5 -30 -2 -36 21 -45 14
-5 26 -17 26 -25 0 -12 -4 -14 -19 -5 -15 7 -23 6 -35 -5 -19 -19 -40 -19 -32
0 7 20 -4 19 -20 -2 -7 -10 -14 -16 -17 -13 -8 8 5 70 13 65 4 -3 8 6 8 18 0
26 -35 35 -44 12 -4 -11 -12 -12 -32 -4 -35 13 -50 6 -55 -28 -4 -27 -4 -27
-12 -5 -4 14 -13 21 -21 18 -7 -3 -16 -1 -19 4 -12 19 -41 9 -58 -20 -17 -28
-17 -30 0 -47 10 -10 29 -17 43 -15 23 2 24 1 8 -11 -13 -10 -18 -28 -18 -61
0 -25 -4 -46 -10 -46 -5 0 -10 5 -10 10 0 6 -9 10 -20 10 -18 0 -25 15 -21 42
0 3 -13 9 -29 13 -17 4 -30 13 -30 21 0 8 -11 19 -25 24 -26 10 -31 20 -16 35
13 15 20 80 11 95 -12 20 -43 4 -37 -20 3 -11 1 -23 -4 -26 -5 -3 -9 0 -9 5 0
6 -8 11 -18 11 -10 0 -26 6 -36 13 -16 11 -16 17 -6 34 8 13 20 18 32 15 10
-2 18 1 18 7 0 6 -4 11 -10 11 -5 0 -16 16 -25 35 -9 19 -23 39 -31 46 -8 6
-14 22 -14 35 0 17 -6 24 -20 24 -11 0 -20 5 -20 11 0 8 12 10 35 6 24 -4 40
-1 50 9 18 19 20 51 3 57 -10 3 -10 8 1 18 10 11 15 11 18 2 5 -15 33 -18 33
-3 0 5 6 7 14 4 7 -3 16 2 19 10 4 9 13 16 22 16 8 0 15 5 15 11 0 6 -8 8 -18
5 -13 -5 -22 1 -30 16 l-11 23 0 -22 c-1 -28 -17 -30 -24 -3 -3 14 -14 20 -31
20 -19 0 -26 5 -26 19 0 10 -7 24 -15 31 -9 7 -13 21 -10 31 6 16 2 18 -27 12
-30 -6 -32 -5 -19 10 7 9 19 17 26 17 7 0 17 6 22 13 13 16 -3 76 -23 84 -9 3
-20 17 -25 32 -8 20 -12 22 -19 11 -6 -10 -2 -22 12 -37 12 -13 20 -24 17 -26
-51 -37 -96 -39 -101 -4 -2 13 -9 21 -18 18 -41 -9 -90 -4 -107 12 -21 18 -48
24 -38 8 3 -5 1 -12 -5 -16 -5 -3 -10 1 -10 10 0 22 -41 64 -47 48 -7 -19 -21
-16 -28 7 -10 30 -25 24 -25 -10 0 -16 -4 -30 -10 -30 -5 0 -10 11 -10 24 0
30 -23 50 -50 41 -16 -5 -20 -15 -20 -54 0 -38 5 -52 25 -71 20 -19 27 -21 40
-10 8 7 15 19 15 26 0 8 7 14 15 14 8 0 15 -4 15 -10 0 -5 9 -10 20 -10 15 0
20 -7 20 -29 0 -16 -6 -31 -12 -34 -7 -2 2 -6 19 -9 18 -2 50 1 70 8 40 14 60
6 50 -20 -5 -11 -14 -14 -37 -10 -23 5 -30 3 -30 -9 0 -8 9 -17 20 -20 12 -3
20 -14 20 -25 0 -12 9 -23 20 -27 25 -8 25 -17 0 -40 -11 -10 -20 -24 -20 -32
0 -7 -7 -13 -15 -13 -8 0 -15 -7 -15 -15 0 -8 0 -18 -1 -22 -2 -19 19 -11 24
8 5 19 8 20 22 9 12 -10 15 -26 13 -58 -2 -27 1 -47 8 -49 19 -6 45 27 39 48
-4 10 -2 19 3 19 14 0 22 -24 15 -48 -3 -15 2 -22 24 -30 19 -7 22 -11 9 -11
-13 -1 -16 -6 -11 -18 14 -33 18 -73 6 -73 -6 0 -11 7 -11 15 0 8 -4 15 -10
15 -5 0 -10 -4 -10 -9 0 -5 -3 -16 -6 -25 -4 -10 -1 -16 9 -16 23 0 29 -16 15
-39 -19 -30 2 -49 37 -33 26 12 63 8 98 -10 17 -9 17 -11 3 -33 -19 -28 -5
-89 23 -105 25 -13 35 -41 19 -52 -19 -12 -22 -11 -63 22 -26 21 -41 27 -46
19 -11 -19 -31 1 -25 26 4 14 -1 36 -12 54 -17 31 -39 43 -28 16 3 -9 0 -15
-9 -15 -8 0 -15 5 -15 11 0 5 -5 7 -11 4 -6 -4 -8 -12 -6 -19 3 -6 1 -34 -3
-61 -11 -73 2 -95 56 -93 29 2 44 7 46 17 2 9 8 5 17 -11 12 -23 11 -31 -5
-67 -17 -39 -19 -40 -56 -35 -25 4 -38 3 -38 -5 0 -6 9 -11 21 -11 11 0 18 -4
14 -10 -3 -5 -13 -6 -21 -3 -13 5 -15 1 -9 -17 10 -31 -13 -17 -25 16 -9 24
-40 34 -40 13 0 -6 -8 -8 -19 -4 -28 9 -53 -5 -48 -27 7 -26 -21 -78 -42 -78
-27 0 -31 10 -15 36 9 13 13 28 9 35 -6 8 -10 8 -16 -2 -14 -24 -21 -2 -12 43
8 37 12 43 33 40 12 -1 33 4 46 12 20 14 23 14 28 0 3 -8 11 -12 16 -9 8 5 8
11 1 19 -11 13 -4 56 10 56 5 0 6 -6 3 -13 -6 -16 34 -60 47 -52 5 4 9 12 9
20 0 18 -45 67 -53 58 -4 -3 -7 -1 -7 6 0 18 -61 3 -83 -20 -18 -19 -43 -27
-33 -10 4 5 -3 7 -14 4 -14 -4 -20 0 -20 10 0 9 -8 22 -19 29 -10 7 -21 22
-25 33 -3 12 -14 21 -24 22 -17 1 -34 -25 -52 -81 -5 -19 -7 -19 -27 4 -24 24
-22 43 2 33 21 -8 18 7 -7 34 -18 20 -19 23 -5 23 9 0 17 5 17 10 0 15 -46 12
-60 -5 -6 -8 -9 -19 -5 -25 3 -5 -3 -10 -14 -10 -11 0 -24 -6 -28 -12 -12 -19
-52 -40 -63 -33 -16 10 -12 22 9 28 10 2 30 29 45 60 19 40 32 56 48 59 13 2
23 10 24 18 0 26 16 70 24 70 4 0 10 9 13 20 7 25 27 26 34 1 5 -19 5 -19 25
1 23 23 20 28 -18 32 -16 2 -29 8 -28 15 1 6 2 18 3 26 0 8 8 15 17 15 28 0
45 27 37 57 l-7 28 -6 -25 c-4 -18 -14 -26 -33 -28 -15 -2 -27 -8 -27 -13 0
-5 -7 -9 -15 -9 -7 0 -18 -7 -22 -15 -10 -17 -56 -9 -50 9 3 6 10 10 16 8 6
-1 11 7 11 18 0 22 -10 26 -27 9 -14 -14 -53 -2 -53 15 0 8 -7 19 -15 26 -11
9 -18 8 -36 -9 -13 -12 -26 -21 -31 -21 -4 0 -8 -6 -8 -14 0 -8 -4 -16 -8 -18
-5 -1 -12 -15 -16 -30 -5 -21 -3 -28 9 -28 21 0 55 36 55 60 0 11 5 20 11 20
6 0 9 -14 8 -34 -2 -21 3 -39 14 -50 19 -20 21 -34 7 -56 -8 -12 -13 -13 -30
-2 -26 16 -30 15 -30 -3 0 -8 -4 -15 -10 -15 -5 0 -10 -5 -10 -12 0 -9 3 -9
12 0 15 15 52 -4 44 -24 -3 -8 -2 -14 3 -14 5 0 12 11 15 24 4 18 14 26 34 28
19 2 27 9 27 23 0 25 22 65 36 65 19 0 60 -38 49 -45 -6 -4 -18 -1 -26 6 -26
21 -37 -2 -24 -51 13 -47 6 -67 -9 -26 -10 24 -31 37 -31 18 0 -13 -55 -72
-67 -72 -23 0 -32 -25 -18 -50 19 -33 19 -45 0 -30 -9 7 -26 9 -45 5 -28 -6
-30 -5 -30 24 0 24 -4 31 -20 31 -11 0 -20 -4 -20 -10 0 -5 -8 -10 -17 -10 -9
0 -13 -3 -10 -7 14 -13 -27 -43 -59 -43 -28 0 -31 -3 -26 -22 10 -41 60 -54
69 -19 10 37 53 37 53 0 0 -12 7 -19 20 -19 11 0 20 -5 20 -11 0 -7 -10 -9
-25 -7 -17 4 -25 1 -25 -9 0 -9 -7 -12 -25 -7 -24 6 -25 4 -19 -20 5 -20 2
-26 -10 -26 -9 0 -16 -7 -16 -16 0 -10 -7 -14 -22 -12 -26 3 -38 46 -17 59 20
12 8 17 -29 12 -20 -3 -31 -10 -29 -17 3 -8 -4 -11 -24 -8 -35 5 -37 16 -5 37
13 9 33 37 44 64 13 29 31 52 46 59 32 14 36 43 4 34 -14 -3 -19 -2 -14 6 4 7
16 12 26 12 12 0 20 8 22 23 3 25 23 25 23 0 0 -10 9 -19 20 -21 16 -3 18 -1
8 9 -15 15 -17 43 -3 34 6 -3 10 1 10 10 0 9 5 13 10 10 14 -8 13 -3 -6 33
-10 22 -23 32 -38 32 -20 0 -23 5 -23 45 0 25 2 45 4 45 11 0 35 -33 48 -64
18 -42 27 -48 56 -38 15 6 18 11 11 16 -7 4 -19 24 -28 44 -9 20 -18 31 -21
25 -6 -16 -23 -17 -23 -1 0 6 -7 19 -16 29 -12 14 -13 22 -4 38 6 12 8 26 4
32 -8 14 16 30 37 24 12 -4 15 1 11 25 -2 17 -8 33 -13 35 -11 8 -61 -44 -53
-56 3 -5 -6 -19 -20 -30 -14 -11 -26 -26 -26 -34 0 -7 -8 -12 -17 -11 -14 1
-18 -6 -16 -28 1 -17 -3 -36 -10 -45 -9 -11 -9 -15 1 -18 7 -3 17 -13 22 -23
8 -15 5 -24 -14 -43 -21 -21 -24 -31 -19 -67 5 -38 4 -42 -13 -36 -26 8 -84
-29 -84 -54 0 -15 -7 -20 -27 -21 -16 -1 -41 -3 -58 -5 -24 -2 -27 -1 -12 7 9
6 17 16 17 24 0 8 7 11 18 8 32 -8 118 91 106 122 -5 11 0 18 14 22 17 4 31
29 32 54 0 4 -11 6 -25 5 -14 0 -25 -5 -25 -9 0 -5 -4 -5 -10 -2 -5 3 -10 -3
-10 -14 0 -12 -7 -21 -15 -21 -14 0 -20 12 -16 33 1 5 -3 6 -8 3 -5 -4 -12 -2
-15 3 -8 12 -66 11 -66 -1 0 -4 14 -8 32 -8 29 0 30 -1 15 -18 -10 -10 -17
-23 -17 -29 0 -6 -7 -14 -16 -17 -27 -10 -5 -26 29 -20 l32 6 -41 -40 c-28
-27 -39 -45 -33 -53 11 -18 -12 -31 -28 -17 -7 6 -13 18 -13 28 0 9 -11 22
-24 29 -20 11 -26 10 -49 -11 -14 -12 -32 -29 -41 -36 -10 -8 -14 -21 -10 -41
6 -26 3 -28 -32 -34 -21 -4 -43 -2 -50 3 -6 6 -20 8 -30 4 -18 -5 -18 -5 0 7
11 6 29 12 40 13 16 1 21 8 21 31 0 24 -5 30 -25 32 -14 2 -34 4 -45 5 -15 2
-22 -5 -30 -29 -6 -22 -15 -33 -28 -33 -16 0 -18 5 -12 33 9 41 13 47 31 47 8
0 19 12 24 26 6 14 16 24 23 21 13 -5 67 29 67 43 0 13 -42 20 -60 10 -11 -6
-21 -5 -28 2 -6 6 -19 8 -29 4 -14 -6 -15 -9 -4 -15 18 -12 5 -31 -21 -31 -14
0 -18 5 -14 16 3 9 6 21 6 29 0 7 9 15 20 18 14 3 20 14 20 32 0 21 4 26 16
21 9 -3 19 -6 24 -6 4 0 10 -9 13 -20 3 -11 13 -20 24 -20 37 -1 55 -25 51
-71 -2 -29 1 -44 9 -44 6 0 14 -3 18 -7 4 -4 14 0 23 8 11 11 12 18 3 27 -20
20 -13 47 13 47 12 0 37 5 55 11 26 9 30 15 25 33 -11 37 -21 39 -35 7 -17
-38 -44 -40 -80 -7 -13 12 -41 26 -61 30 -37 7 -37 7 -24 38 15 35 40 52 63
44 9 -4 17 1 20 14 4 15 11 18 29 14 31 -8 32 17 4 53 -11 14 -20 34 -20 45 0
15 -5 17 -26 12 -19 -5 -26 -2 -30 12 -3 11 -21 30 -39 44 -19 14 -35 31 -35
38 0 14 -16 16 -25 2 -3 -5 -15 -10 -26 -10 -11 0 -31 -11 -45 -25 -23 -23
-54 -34 -54 -19 0 3 8 18 19 32 10 15 27 45 37 67 15 35 18 37 21 18 6 -30 12
-29 46 7 22 23 25 30 13 30 -9 0 -19 -7 -22 -15 -10 -26 -34 3 -34 40 0 44 9
65 27 65 13 0 13 -3 3 -15 -20 -24 13 -19 35 5 16 18 16 20 2 20 -10 0 -17 5
-17 10 0 6 7 10 16 10 14 0 15 2 3 17 -13 15 -12 16 9 11 14 -4 22 -2 22 7 0
7 2 19 5 27 3 7 1 19 -4 27 -8 12 -12 13 -26 1 -22 -18 -38 -1 -33 36 2 23 8
29 26 28 23 -1 29 10 12 21 -14 9 -12 25 3 25 8 0 19 17 26 38 7 20 15 43 17
50 3 6 1 12 -5 12 -6 0 -11 -7 -11 -15 0 -8 -8 -15 -18 -15 -23 0 -41 -21 -71
-82 -12 -27 -26 -48 -30 -48 -16 0 -19 13 -9 30 14 21 3 66 -17 74 -9 3 -25
-3 -37 -14 -29 -27 -41 -25 -36 5 7 32 -1 31 -30 -6 l-24 -29 24 -9 c13 -5 26
-7 30 -4 4 2 14 -10 23 -27 19 -37 11 -74 -22 -100 -22 -17 -24 -25 -19 -55 7
-36 2 -42 -23 -26 -10 6 -14 28 -15 68 l0 59 -33 -4 c-23 -3 -41 -14 -56 -34
-14 -19 -28 -27 -39 -25 -10 3 -19 0 -20 -6 0 -7 -2 -17 -2 -23 -1 -6 -7 -19
-15 -28 -11 -14 -11 -16 2 -16 19 0 30 -42 14 -52 -17 -11 -30 -5 -33 16 -1
10 -10 23 -20 31 -17 12 -16 14 4 40 12 15 22 33 22 41 0 7 12 26 26 43 31 37
26 78 -7 61 -10 -6 -19 -20 -19 -31 0 -15 -4 -19 -16 -15 -10 4 -22 -1 -30
-11 -11 -15 -15 -16 -23 -4 -14 22 -28 4 -23 -31 4 -32 3 -32 -14 -16 -16 16
-17 22 -6 51 7 18 12 43 12 55 0 24 27 36 63 27 29 -8 67 9 67 30 0 8 9 20 20
27 11 7 20 18 20 25 0 7 3 13 8 13 9 0 52 93 52 113 0 9 10 19 23 23 27 8 37
22 37 52 0 12 7 25 15 28 21 8 19 21 -5 29 -26 8 -90 -57 -90 -91 0 -19 -5
-24 -25 -24 -14 0 -25 -4 -25 -8 0 -5 -11 -14 -25 -20 -14 -7 -29 -22 -34 -36
-7 -16 -17 -23 -35 -23 -33 0 -35 29 -5 51 22 15 18 36 -7 36 -8 0 -14 5 -14
12 0 9 -3 9 -12 0 -7 -7 -25 -12 -41 -12 l-30 0 6 -65 c5 -47 2 -72 -8 -92
-16 -31 -20 -63 -7 -63 18 0 29 -43 18 -67 -13 -27 -19 -28 -36 -8 -7 8 -18
15 -24 15 -16 0 -51 42 -48 58 2 6 -5 12 -14 12 -14 0 -14 3 -3 16 9 12 10 23
2 47 -6 18 -14 49 -18 70 -3 22 -14 43 -26 50 -21 13 -69 98 -69 123 0 8 -6
14 -14 14 -19 0 -26 21 -14 43 13 25 1 35 -15 12 -13 -16 -15 -15 -34 21 -11
22 -26 64 -33 94 -8 30 -20 60 -28 67 -11 9 -11 16 -2 33 6 12 9 24 6 28 -3 3
-6 1 -6 -5 0 -6 -9 -9 -20 -6 -36 9 -50 -13 -43 -70 3 -29 9 -54 13 -57 35
-28 62 -184 38 -230 -19 -36 -27 -40 -86 -40 -49 0 -53 2 -51 23 4 46 -1 67
-17 67 -13 0 -15 -7 -11 -29 l6 -29 -49 2 c-28 0 -50 6 -50 11 0 6 -4 4 -9 -3
-4 -7 -14 -12 -22 -10 -8 2 -15 -7 -17 -19 -2 -14 -13 -25 -28 -29 -13 -3 -24
-10 -24 -15 0 -5 -4 -9 -10 -9 -5 0 -10 7 -10 15 0 9 -15 32 -34 51 -37 38
-68 42 -75 9 -3 -17 -1 -18 13 -6 13 11 17 11 22 -2 3 -8 15 -18 27 -21 34 -9
8 -26 -43 -29 -34 -1 -45 2 -45 13 0 16 -46 22 -67 9 -12 -7 -41 6 -67 30 -12
11 -16 11 -26 -3 -13 -18 -25 -11 -25 14 0 26 -20 41 -41 30 -11 -7 -20 -7
-24 0 -9 15 -25 12 -25 -5 0 -8 -5 -15 -11 -15 -6 0 -9 9 -6 20 3 11 1 20 -4
20 -6 0 -17 15 -25 33 -8 17 -23 46 -34 62 -11 17 -33 55 -49 85 -16 30 -41
68 -55 83 -14 15 -26 30 -26 33 0 3 -9 18 -19 33 -11 15 -23 39 -26 54 -4 14
-13 31 -21 38 -18 15 -18 39 2 100 9 27 14 62 12 79 -2 16 0 31 5 33 32 10
-54 127 -95 127 -14 0 -78 42 -126 82 -44 38 -67 35 -114 -12 l-40 -40 26 -31
c14 -17 26 -35 26 -41 0 -16 94 -128 108 -128 27 0 154 -143 145 -165 -3 -9 1
-15 10 -15 15 0 52 -48 44 -57 -3 -2 -14 1 -25 8 -24 15 -63 6 -97 -24 -32
-27 -43 -88 -25 -141 12 -38 51 -69 58 -47 2 6 10 11 18 11 8 0 14 7 14 15 0
22 27 18 40 -5 13 -24 33 -26 51 -4 11 14 10 21 -4 46 -19 33 -21 47 -8 67 7
11 14 8 34 -15 31 -35 44 -93 25 -106 -10 -7 -8 -8 5 -4 16 5 23 -9 18 -37 -2
-11 39 -70 56 -80 7 -4 29 -34 49 -65 20 -31 39 -59 43 -62 14 -12 30 -50 26
-62 -7 -17 -51 -21 -77 -7 -18 9 -20 9 -15 -4 7 -19 -8 -33 -46 -42 -23 -6
-29 -4 -34 14 -3 11 -9 21 -14 21 -13 0 -11 -14 3 -28 16 -16 5 -24 -25 -17
-16 4 -28 16 -30 28 l-4 22 -8 -23 c-8 -26 -36 -35 -90 -30 -31 2 -41 9 -54
34 -9 19 -29 36 -47 43 -17 6 -44 23 -60 36 -16 14 -33 29 -39 34 -5 4 -19 19
-30 32 -11 13 -32 31 -48 38 -22 12 -27 21 -25 45 1 17 -4 40 -10 51 -11 18
-12 16 -10 -15 3 -33 2 -35 -27 -32 -16 2 -34 7 -40 11 -13 11 -101 30 -147
33 -20 1 -43 -4 -52 -11 -14 -11 -16 -11 -16 3 0 10 -4 14 -10 11 -5 -3 -10
-13 -10 -22 0 -9 -8 -25 -17 -35 -10 -12 -17 -38 -18 -73 -2 -43 -7 -60 -26
-78 -38 -37 -77 -60 -94 -53 -8 3 -15 1 -15 -5 0 -6 -6 -6 -18 0 -10 5 -44 11
-76 12 -31 1 -59 6 -62 11 -16 26 -103 -12 -141 -62 -10 -13 -12 -13 -17 0 -3
8 -7 30 -8 49 -7 75 -85 63 -102 -17 -10 -41 -26 -58 -26 -25 0 15 -14 10 -16
-5 0 -4 -4 -15 -9 -25 -7 -18 -3 -67 9 -98 7 -17 -42 -88 -61 -89 -7 0 -17 8
-22 18 -8 14 -11 14 -12 2 -1 -8 -1 -19 0 -24 3 -15 -21 -26 -56 -26 -27 0
-37 -8 -63 -44 -27 -41 -34 -45 -70 -44 -44 0 -74 23 -50 38 9 6 18 3 27 -8
11 -15 14 -15 23 -2 14 22 12 88 -3 97 -17 10 -47 70 -47 95 0 22 -18 24 -27
2 -3 -8 -11 -13 -18 -11 -6 3 -34 1 -61 -4 -47 -9 -50 -9 -74 20 -19 23 -31
29 -48 24 -23 -6 -30 -27 -12 -38 35 -22 -30 -71 -79 -60 -29 6 -88 74 -97
112 -4 13 -11 23 -16 23 -17 0 -119 103 -143 145 -13 22 -28 67 -35 100 -26
136 -34 165 -45 165 -19 0 -113 93 -126 125 -7 17 -15 80 -19 141 -5 85 -12
121 -28 153 -13 24 -24 70 -28 109 -5 61 -3 72 25 127 27 53 31 70 31 145 0
47 -6 105 -14 130 -8 26 -11 67 -9 95 4 40 1 54 -12 65 -15 13 -19 12 -31 -5
-9 -12 -12 -31 -8 -52 3 -18 3 -53 0 -77 -5 -34 -12 -45 -29 -50 l-21 -5 21
-23 c20 -21 21 -31 16 -88 -9 -100 -9 -482 0 -511 6 -19 4 -31 -8 -43 -26 -26
-37 -16 -63 60 -13 38 -28 74 -34 79 -14 14 1 -80 20 -125 10 -23 16 -79 19
-162 l4 -128 -40 0 c-59 0 -86 -14 -106 -56 -21 -45 -26 -177 -7 -196 19 -19
15 -24 -30 -42 -81 -33 -103 -47 -151 -91 -26 -25 -51 -45 -55 -45 -4 0 -16
13 -27 29 -60 85 -82 111 -98 116 -10 4 -30 25 -45 48 -15 23 -31 45 -37 49
-6 4 -5 28 4 65 16 69 32 189 35 255 0 26 5 50 8 54 4 4 11 29 14 56 4 26 10
48 14 48 12 0 40 95 40 134 0 37 -17 86 -35 98 -29 22 -78 26 -128 12 -75 -22
-157 -65 -175 -93 -15 -22 -16 -22 -29 -5 -7 10 -13 26 -13 36 0 10 -4 18 -10
18 -5 0 -12 11 -16 25 -3 14 -10 25 -15 25 -5 0 -9 4 -9 9 0 6 -13 30 -30 54
-16 25 -30 50 -30 56 0 6 -6 11 -13 11 -6 0 -17 12 -23 28 -7 15 -14 34 -18
42 -3 8 -20 38 -36 65 -17 28 -37 66 -46 85 -9 19 -31 53 -49 75 -17 22 -35
50 -39 63 -4 12 -14 22 -21 22 -8 0 -17 11 -21 25 -3 14 -10 25 -15 25 -5 0
-9 8 -9 18 0 9 -9 28 -20 42 -11 14 -20 34 -20 45 0 20 -43 75 -58 75 -4 0
-15 -5 -24 -11z m1368 -3086 c8 -17 14 -36 14 -42 0 -6 5 -11 10 -11 6 0 10
-8 8 -17 -2 -13 4 -18 19 -18 11 0 25 -3 29 -7 4 -5 0 -8 -10 -8 -12 0 -16 -7
-14 -22 3 -19 -2 -24 -30 -26 -37 -4 -64 12 -55 34 3 9 -1 14 -14 14 -19 0
-53 32 -53 50 0 6 16 26 35 46 19 19 36 45 36 57 1 20 2 20 6 2 2 -11 11 -34
19 -52z m7334 -65 c0 -5 -9 -16 -19 -25 -11 -9 -17 -22 -14 -29 4 -10 -4 -14
-23 -14 -16 0 -36 -4 -44 -10 -12 -8 -12 -13 2 -43 15 -32 19 -34 50 -28 22 5
37 16 46 34 11 24 23 30 48 26 4 0 14 11 24 26 11 17 20 23 24 16 4 -6 2 -11
-3 -11 -17 0 -13 -60 4 -66 8 -4 15 -12 15 -20 0 -17 -17 -19 -22 -3 -3 9 -10
9 -27 0 -13 -7 -34 -10 -47 -7 -29 8 -43 -17 -26 -45 16 -25 15 -32 -4 -25 -8
3 -26 -1 -40 -10 -25 -17 -29 -13 -25 28 2 12 -3 16 -13 12 -11 -4 -16 0 -16
11 0 9 -7 23 -15 31 -11 11 -12 21 -5 33 6 12 6 21 -1 28 -6 6 9 22 46 46 44
30 55 43 55 65 1 26 1 26 15 8 8 -11 15 -24 15 -28z m-7433 -117 c18 -34 33
-73 33 -86 0 -14 9 -29 20 -35 11 -6 20 -8 20 -4 0 3 7 1 16 -6 13 -12 11 -15
-15 -26 -34 -14 -42 -48 -15 -58 26 -10 34 -7 46 19 15 33 28 32 28 -4 0 -24
-30 -69 -30 -45 0 5 -5 2 -10 -6 -7 -12 -12 -12 -21 -3 -10 10 -15 8 -24 -10
-6 -13 -19 -21 -30 -20 -11 1 -23 -4 -27 -10 -4 -7 -13 -12 -20 -13 -18 -1
-52 -16 -58 -25 -3 -4 -17 -10 -30 -12 -14 -3 -33 -9 -44 -13 -15 -6 -17 -3
-13 12 13 42 10 130 -7 182 -7 21 4 28 37 23 17 -3 5 41 -13 46 -11 3 -20 12
-20 21 0 17 121 142 134 138 5 -1 24 -30 43 -65z m7687 19 c9 0 30 -21 46 -47
16 -27 41 -59 55 -73 14 -15 25 -37 25 -52 0 -30 -18 -47 -30 -28 -5 8 -10 9
-14 2 -3 -6 -2 -13 4 -17 7 -4 7 -13 0 -26 -6 -11 -8 -24 -5 -29 3 -6 -5 -14
-18 -19 -13 -5 -31 -17 -40 -26 -20 -20 -68 -25 -74 -7 -3 6 2 12 10 12 8 0
20 7 27 15 7 8 27 19 44 23 28 8 31 11 28 43 -2 19 -7 38 -12 43 -5 5 -5 19 0
32 7 17 3 34 -16 69 -16 27 -23 52 -19 63 4 11 -5 6 -24 -12 -16 -15 -34 -25
-39 -22 -6 3 -12 1 -14 -6 -5 -13 -38 -4 -38 11 0 11 39 26 58 22 10 -2 11 2
2 19 -14 27 -2 50 15 27 7 -10 20 -17 29 -17z m3296 -59 c0 -9 70 -7 118 4 20
4 34 0 51 -16 25 -24 24 -50 -6 -137 -17 -51 -11 -84 23 -129 34 -45 41 -87
19 -110 -23 -22 -42 -23 -80 -3 -35 17 -85 60 -85 72 0 5 -8 28 -19 51 -10 23
-21 50 -24 60 -4 9 -12 17 -19 17 -19 0 -53 41 -66 79 -13 37 -16 104 -5 114
10 10 93 8 93 -2z m-3310 -101 c10 -24 10 -33 0 -45 -7 -8 -18 -14 -24 -14 -6
1 -24 -3 -39 -9 -16 -7 -34 -12 -42 -12 -7 0 -19 -15 -26 -32 l-13 -33 -3 28
c-4 23 -8 26 -28 21 -13 -3 -29 -3 -36 1 -17 11 29 34 54 27 14 -3 18 -1 13 6
-4 7 0 15 9 18 10 4 16 17 15 33 -1 14 -2 29 -1 32 1 3 25 6 55 7 51 1 55 0
66 -28z m1112 -574 c0 -19 -4 -40 -8 -47 -4 -7 -8 -36 -9 -64 -1 -29 -9 -62
-19 -78 -14 -20 -16 -36 -11 -67 6 -35 11 -42 36 -47 22 -4 29 -11 29 -29 0
-12 -4 -25 -9 -28 -5 -3 -7 -14 -4 -25 3 -10 -2 -21 -10 -24 -16 -6 -31 41
-21 67 9 23 -14 28 -48 12 -17 -9 -41 -16 -54 -16 -18 0 -22 -4 -17 -16 4 -12
2 -15 -8 -10 -8 3 -22 9 -31 12 -10 4 -18 10 -18 15 0 5 -8 9 -19 9 -19 0 -51
-39 -51 -62 0 -18 36 -39 55 -32 8 3 15 1 15 -5 0 -12 -3 -12 -60 -15 -40 -2
-90 16 -114 39 -22 22 -21 27 14 63 33 35 37 50 15 58 -8 4 -15 11 -15 18 0 6
-9 17 -20 24 -26 16 -26 38 1 45 13 4 19 12 17 24 -10 52 132 112 174 73 19
-17 18 -18 -17 -39 -43 -25 -45 -25 -45 -6 0 8 5 15 10 15 6 0 10 7 10 15 0
22 -41 0 -47 -26 -4 -14 -9 -16 -23 -9 -22 12 -50 3 -50 -16 0 -8 6 -11 15 -8
8 4 15 2 15 -4 0 -6 -5 -12 -10 -14 -14 -4 11 -58 28 -58 6 0 12 8 12 18 0 13
2 14 9 3 11 -16 -18 -86 -49 -118 -17 -18 -19 -26 -10 -43 22 -41 60 -20 60
35 0 32 24 48 71 48 26 0 43 5 46 14 3 8 12 12 19 9 8 -3 14 1 14 8 0 7 7 19
15 26 24 20 18 38 -10 32 -13 -2 -33 -1 -42 3 -16 6 -15 8 6 16 13 5 32 7 42
4 11 -4 19 -2 19 4 0 15 27 14 33 -1 4 -8 6 -7 6 4 1 9 -5 19 -11 21 -10 4
-10 8 1 15 7 5 11 15 7 20 -4 6 3 16 14 22 24 13 26 33 4 51 -14 11 -20 9 -45
-19 -16 -18 -36 -32 -44 -32 -17 0 -20 16 -4 25 5 4 8 12 6 18 -8 21 25 63 62
81 20 10 43 22 51 26 20 10 22 7 22 -34z m258 -38 c0 -4 6 -7 13 -5 12 2 15
-58 3 -71 -10 -9 -29 15 -31 40 -1 13 -6 21 -11 19 -5 -2 -20 -7 -33 -12 -20
-8 -22 -14 -17 -44 5 -26 4 -33 -6 -30 -18 7 -22 -76 -5 -99 11 -15 19 -15 65
-6 52 12 65 23 37 34 -19 7 -19 23 1 43 13 13 20 14 42 4 14 -7 28 -9 29 -4 2
4 7 14 12 22 14 22 43 -6 39 -37 -3 -21 -9 -25 -42 -27 -40 -2 -81 -38 -68
-60 3 -5 -1 -4 -10 3 -11 9 -23 10 -42 2 -14 -5 -33 -7 -41 -4 -10 4 -15 0
-15 -10 0 -22 -36 -21 -45 1 -3 10 -1 19 4 21 19 6 12 29 -10 35 -12 3 -18 10
-14 17 4 6 1 17 -5 25 -15 18 -4 52 21 65 21 12 26 46 7 53 -20 7 0 21 33 23
19 1 37 11 46 25 15 21 17 21 30 4 7 -11 13 -22 13 -27z m311 -125 c1 -10 1
-21 0 -25 0 -5 6 -8 14 -8 9 0 15 -9 15 -24 0 -32 20 -87 30 -81 4 3 11 21 14
41 6 28 3 39 -10 49 -16 11 -16 15 -5 29 22 26 70 10 114 -37 32 -34 38 -45
33 -70 -3 -16 -6 -38 -6 -48 0 -12 -5 -16 -15 -13 -8 4 -15 1 -15 -4 0 -6 -9
-13 -19 -17 -13 -4 -21 -19 -26 -52 l-7 -47 -19 24 c-13 17 -17 34 -13 53 3
16 1 27 -5 27 -6 0 -11 -5 -11 -12 0 -30 -28 23 -52 97 -35 108 -40 135 -28
135 5 0 11 -8 11 -17z m1379 -1913 c15 -12 21 -23 15 -27 -16 -13 -37 -58 -33
-74 2 -9 -4 -13 -18 -11 -12 1 -26 -3 -32 -11 -9 -11 -6 -19 13 -37 36 -34 33
-50 -10 -43 -27 4 -39 1 -48 -11 -11 -15 -14 -15 -36 0 -18 13 -22 23 -17 46
3 16 13 36 21 44 8 9 15 26 15 40 0 17 6 24 18 24 11 0 27 9 37 20 10 11 14
20 10 20 -4 0 0 9 10 20 22 24 24 24 55 0z m620 -856 c0 -18 9 -18 31 2 15 14
21 14 44 1 l27 -14 -26 -20 c-23 -18 -25 -25 -16 -48 13 -35 2 -100 -20 -120
-15 -14 -21 -14 -39 -3 -29 18 -26 36 7 50 15 7 29 13 31 15 2 1 -4 15 -14 29
-10 15 -21 39 -26 53 -8 24 -9 24 -6 -6 4 -36 0 -41 -17 -18 -10 13 -14 13
-40 0 -40 -21 -55 -19 -62 10 -3 14 -12 25 -20 25 -20 0 -17 24 6 45 14 12 23
15 32 8 7 -6 25 -13 40 -17 21 -5 30 -2 38 14 12 22 30 18 30 -6z m-370 -1753
c0 -5 -7 -11 -15 -15 -19 -7 -19 -40 -1 -55 16 -13 56 1 56 19 0 6 7 10 15 10
8 0 15 -4 15 -10 0 -5 -6 -10 -14 -10 -9 0 -12 -8 -8 -25 2 -15 0 -25 -7 -25
-6 0 -11 5 -11 10 0 6 -5 10 -11 10 -18 0 -3 -82 17 -97 13 -10 14 -16 6 -26
-15 -18 18 -50 42 -41 11 4 16 1 16 -10 0 -9 9 -25 21 -37 l21 -21 -29 3 c-35
4 -103 66 -103 95 0 12 -7 24 -15 28 -8 3 -15 14 -15 25 0 11 -5 23 -11 27 -6
3 -9 15 -6 25 3 11 -2 26 -11 35 -12 13 -13 17 -2 24 17 10 4 30 -20 30 -20 0
-36 17 -26 27 3 3 13 0 21 -7 13 -11 19 -11 33 3 18 18 42 23 42 8z m-10490
-514 c0 -14 57 -67 72 -67 12 0 38 -25 38 -37 0 -15 -37 -32 -57 -27 -11 3
-27 -2 -37 -11 -16 -16 -18 -16 -42 5 -21 21 -29 20 -25 -2 0 -5 -4 -8 -9 -8
-19 0 -23 30 -6 49 20 22 20 30 -1 53 -9 10 -13 21 -9 25 4 4 11 1 15 -6 12
-18 52 4 45 24 -4 8 -1 15 5 15 6 0 11 -6 11 -13z m405 -337 c6 0 20 -15 33
-34 27 -40 63 -55 54 -24 -4 17 -2 19 14 10 10 -5 38 -13 62 -17 32 -5 42 -11
40 -23 -4 -23 -55 -34 -73 -16 -17 18 -39 9 -31 -12 3 -8 1 -14 -4 -14 -6 0
-10 -8 -10 -17 0 -14 4 -12 25 7 26 24 47 21 26 -3 -8 -11 -5 -20 14 -41 24
-25 30 -27 75 -21 41 6 54 3 79 -14 16 -12 34 -21 40 -21 6 0 11 -6 12 -12 0
-7 2 -21 4 -30 2 -10 -5 -28 -16 -40 l-18 -23 -1 28 c0 26 -30 67 -49 67 -5 0
-15 -7 -22 -17 -8 -9 -34 -25 -58 -36 -25 -11 -53 -29 -62 -40 -15 -19 -18
-20 -33 -5 -9 9 -16 24 -16 33 0 12 -7 16 -27 13 -30 -3 -41 18 -27 50 4 9 9
24 10 32 1 8 5 34 9 58 6 31 4 42 -5 42 -8 0 -10 8 -6 23 10 42 -79 88 -110
57 -7 -7 -19 -3 -37 14 l-26 24 25 6 c17 5 24 12 20 21 -3 8 3 19 12 24 13 8
23 3 42 -20 14 -16 30 -29 35 -29z m494 -326 c10 -9 16 -24 14 -34 -3 -10 0
-21 6 -24 6 -4 8 -19 5 -34 -5 -21 -4 -25 6 -15 19 18 40 4 40 -28 0 -16 4
-29 8 -29 12 0 8 -38 -6 -52 -7 -7 -24 -12 -40 -13 -21 0 -27 -5 -26 -22 0
-13 -5 -23 -12 -23 -7 0 -17 -8 -23 -17 -8 -15 -12 -16 -22 -5 -9 8 -9 12 -2
12 6 0 9 8 6 19 -3 10 0 22 6 25 19 12 12 26 -12 26 -13 0 -27 -3 -30 -6 -3
-4 -22 -8 -41 -9 -29 -2 -36 2 -41 22 -4 16 -11 23 -20 19 -27 -10 -24 11 7
44 30 34 31 34 47 13 26 -31 61 -39 67 -16 3 11 19 24 35 30 35 13 39 45 9 70
-20 17 -26 44 -13 56 9 10 10 9 32 -9z m185 -660 c5 -13 9 -14 20 -4 12 9 18
6 32 -15 15 -23 18 -24 29 -9 10 15 14 12 34 -21 26 -44 15 -66 -29 -63 -16 1
-35 -4 -44 -11 -13 -11 -20 -11 -39 2 -23 15 -24 14 -36 -30 -14 -45 -14 -45
-34 -25 -23 23 -16 42 13 35 22 -6 25 0 10 27 -7 13 -6 21 5 30 19 16 19 44 0
60 -12 10 -13 16 -4 26 15 19 35 18 43 -2z m485 -10 c5 -29 31 -44 53 -31 24
16 35 1 15 -21 -10 -10 -17 -24 -17 -30 0 -15 35 -16 61 -2 25 14 44 3 28 -16
-6 -8 -8 -25 -5 -40 6 -24 5 -26 -19 -21 -23 4 -26 2 -21 -17 3 -11 6 -27 6
-33 0 -7 11 -13 24 -13 18 0 24 -5 24 -25 0 -22 -5 -25 -33 -25 -28 0 -32 3
-28 20 4 14 0 20 -11 20 -10 0 -19 11 -22 30 -6 26 -11 30 -40 30 -24 0 -34 5
-34 15 0 8 -4 15 -10 15 -5 0 -7 -7 -3 -16 4 -12 0 -14 -21 -8 -20 5 -25 3
-22 -7 2 -8 7 -27 11 -43 6 -26 4 -28 -19 -22 -39 10 -40 -10 -2 -39 35 -26
35 -26 60 -8 13 10 27 27 31 38 5 17 7 16 20 -14 20 -45 19 -50 -10 -57 -15
-4 -25 -13 -25 -24 0 -23 20 -37 30 -20 6 9 17 8 51 -3 27 -10 38 -17 29 -21
-39 -13 -111 -36 -116 -36 -2 0 -1 12 2 26 6 25 5 26 -19 22 -18 -3 -32 1 -43
13 -10 11 -23 19 -31 19 -16 0 -17 -32 0 -49 10 -11 6 -12 -23 -6 -44 9 -55
16 -41 25 17 10 2 42 -18 38 -9 -2 -17 -12 -19 -23 -3 -18 -12 -20 -112 -23
-93 -3 -111 -1 -116 12 -8 20 -24 21 -24 1 0 -8 -4 -15 -10 -15 -5 0 -10 11
-10 24 0 28 -24 51 -45 42 -9 -3 -15 0 -15 9 0 18 -12 19 -27 4 -18 -18 -35
-1 -23 22 9 15 15 17 30 9 15 -8 21 -6 29 7 10 17 12 17 21 1 7 -11 23 -18 40
-18 19 0 30 -5 30 -14 0 -7 10 -16 22 -19 24 -7 48 8 48 29 0 8 7 14 16 14 14
0 16 -8 12 -45 -3 -25 -2 -45 3 -45 5 0 9 7 9 15 0 9 6 12 15 9 21 -9 47 15
40 37 -6 18 8 32 38 36 23 4 22 -19 -3 -40 -21 -18 -27 -37 -11 -37 5 0 12 9
16 20 3 11 12 19 18 17 7 -1 11 4 9 12 -5 25 9 51 29 51 10 0 19 -4 19 -10 0
-5 5 -10 11 -10 6 0 8 9 4 20 -4 13 -1 22 9 26 8 3 25 25 36 49 12 24 27 46
33 48 9 3 9 11 0 35 -17 47 -7 75 25 67 22 -5 24 -4 18 20 -5 20 -3 26 6 23 7
-3 15 -13 17 -24z m316 -64 c3 -6 -1 -13 -9 -16 -9 -3 -16 -10 -16 -15 0 -5 9
-4 21 3 17 11 22 10 35 -7 15 -19 16 -19 29 -2 11 16 14 16 22 3 4 -8 13 -15
18 -16 6 -1 9 -12 8 -26 -2 -21 2 -24 34 -24 30 0 35 -3 30 -19 -3 -11 2 -29
10 -40 13 -19 12 -22 -12 -31 -14 -6 -33 -10 -40 -10 -10 0 -14 -11 -12 -37 2
-36 1 -38 -31 -40 -34 -1 -59 -13 -29 -13 11 0 17 -8 17 -21 0 -38 -24 -49
-119 -55 -78 -5 -91 -3 -91 10 0 24 -12 19 -40 -14 -18 -21 -33 -30 -55 -30
l-30 1 33 27 c18 15 32 32 32 38 0 6 7 17 15 24 11 9 13 16 5 24 -17 17 -13
49 6 42 9 -3 22 -6 30 -6 8 0 14 -10 14 -25 0 -14 5 -25 10 -25 6 0 10 -9 10
-20 0 -27 20 -25 53 6 19 17 26 32 22 44 -12 36 62 49 102 18 9 -7 11 0 6 29
-3 21 -6 39 -7 40 -1 1 -21 5 -45 9 -40 6 -43 5 -37 -13 7 -23 -16 -49 -34
-38 -6 4 -20 -1 -30 -10 -12 -11 -26 -14 -41 -10 -20 7 -20 8 -6 17 10 5 17
20 17 33 0 26 15 34 23 13 3 -7 6 10 6 37 0 48 -1 49 -16 28 -18 -27 -29 -29
-37 -7 -3 8 3 25 15 37 12 13 19 31 16 45 -5 25 -3 26 22 10 11 -7 16 -19 13
-30 -2 -10 1 -18 8 -18 8 0 11 9 7 27 -8 43 29 84 48 53z m617 -67 c3 -16 9
-36 13 -45 5 -13 3 -18 -8 -18 -8 0 -21 -10 -30 -22 l-15 -23 -11 29 c-11 27
-12 28 -31 11 -10 -9 -20 -29 -22 -44 -2 -14 -7 -26 -13 -26 -5 0 -14 -3 -20
-6 -5 -4 -32 -7 -58 -8 -41 -1 -50 2 -54 19 -6 23 -33 27 -33 5 0 -22 -21 -18
-27 5 -4 16 -8 18 -20 9 -10 -9 -17 -9 -25 -1 -14 14 4 37 45 58 27 15 30 14
44 -6 12 -17 17 -19 24 -9 6 10 9 6 9 -13 0 -28 13 -37 26 -17 4 8 9 8 17 0
13 -13 57 -15 57 -2 0 5 -7 11 -15 15 -17 6 -21 61 -5 71 6 3 10 1 10 -5 0 -6
12 -10 28 -8 22 2 27 7 24 28 -1 16 1 21 6 12 7 -10 14 -10 38 3 39 20 41 19
46 -12z"/>
<path d="M11148 15719 c-33 -19 -17 -70 42 -130 43 -44 70 -81 66 -87 -2 -4 9
-32 25 -62 16 -30 38 -74 50 -98 11 -23 29 -48 40 -55 10 -6 19 -16 19 -22 0
-5 20 -36 45 -67 25 -32 45 -62 45 -68 0 -5 4 -10 8 -10 4 0 14 -17 21 -37 13
-36 64 -151 82 -183 5 -8 18 -34 30 -57 11 -23 27 -47 35 -54 8 -6 14 -17 14
-24 0 -7 14 -26 31 -42 17 -15 39 -44 49 -64 29 -55 69 -99 92 -99 14 0 18 5
14 16 -3 9 -6 21 -6 28 0 7 -11 29 -24 48 -13 20 -29 52 -36 72 -6 20 -15 36
-18 36 -9 0 -42 58 -42 75 0 7 -9 15 -19 18 -12 3 -24 20 -32 46 -7 22 -16 41
-21 41 -4 0 -8 5 -8 11 0 6 -15 34 -34 62 -19 29 -40 64 -47 80 -7 15 -18 27
-26 27 -7 0 -13 4 -13 9 0 13 -28 71 -60 126 -17 28 -37 66 -46 85 -9 19 -31
54 -50 77 -19 23 -34 45 -34 50 0 5 -11 19 -25 31 -14 12 -25 29 -25 37 0 8
-4 15 -10 15 -5 0 -10 8 -10 18 0 9 -9 28 -20 42 -11 14 -20 34 -20 45 0 20
-43 75 -58 75 -4 0 -15 -5 -24 -11z"/>
<path d="M4520 15615 c-15 -18 -6 -74 21 -127 22 -43 24 -64 7 -71 -10 -4 -10
-8 -2 -14 6 -4 15 -33 18 -63 10 -77 47 -200 60 -200 6 1 21 9 34 20 20 17 21
23 13 62 -6 25 -27 94 -47 154 -22 69 -36 127 -35 159 0 75 -37 119 -69 80z"/>
<path d="M2317 14883 c-15 -25 31 -73 69 -73 9 0 49 -19 88 -43 39 -23 110
-62 159 -86 48 -23 87 -47 87 -52 0 -5 6 -9 13 -9 15 0 160 -68 167 -79 6 -10
72 -32 77 -27 3 2 -24 18 -59 36 -75 37 -130 70 -155 91 -10 9 -33 21 -51 27
-17 6 -56 26 -85 45 -117 75 -137 87 -146 87 -4 0 -26 16 -47 36 -50 46 -105
68 -117 47z"/>
<path d="M3130 14805 c-23 -25 -24 -27 -12 -97 17 -99 61 -208 89 -221 12 -5
25 -22 28 -37 7 -30 42 -54 71 -48 17 3 19 14 22 98 1 52 -1 104 -6 115 -56
125 -71 153 -98 182 -38 40 -62 42 -94 8z"/>
<path d="M7803 14559 c-7 -7 -13 -20 -13 -28 0 -12 -12 -16 -46 -18 -46 -2
-94 -24 -94 -45 0 -6 15 -25 33 -42 17 -17 38 -43 46 -58 14 -27 38 -35 81
-29 8 1 27 2 43 1 24 0 27 3 27 35 0 22 -8 43 -20 55 -11 11 -20 27 -20 35 0
8 -4 15 -9 15 -6 0 -11 21 -13 46 -2 36 -5 43 -15 33z"/>
<path d="M9956 14405 c-9 -14 -27 -27 -40 -31 -28 -7 -36 -29 -29 -84 4 -26 2
-40 -6 -40 -6 0 -11 -9 -11 -20 0 -24 8 -25 30 -5 16 15 20 13 41 -21 13 -21
28 -46 34 -56 5 -10 13 -18 17 -18 4 0 31 -25 60 -56 76 -80 180 -119 245 -92
15 6 31 11 36 10 4 -1 7 6 7 17 0 10 7 24 15 31 8 7 15 9 15 5 0 -4 7 -2 15 5
25 21 19 43 -10 36 -20 -5 -27 -1 -40 23 -8 17 -15 38 -15 49 0 20 -59 82 -78
82 -7 0 -12 4 -12 9 0 5 -9 11 -19 14 -15 4 -18 10 -14 28 6 21 4 22 -9 11
-12 -10 -18 -9 -28 3 -7 8 -19 15 -27 15 -24 0 -71 32 -76 52 -5 19 -42 25
-52 8 -5 -8 -11 -7 -21 1 -10 8 -11 15 -4 24 7 8 7 16 2 19 -6 3 -17 -5 -26
-19z"/>
<path d="M10566 14084 c-5 -12 -10 -13 -19 -6 -8 7 -18 7 -27 2 -8 -6 -24 -10
-36 -10 -59 0 -68 -61 -14 -93 15 -9 31 -28 34 -41 7 -27 37 -36 106 -33 29 2
38 8 52 36 10 19 17 35 15 36 -40 18 -57 32 -57 45 0 10 -7 23 -15 30 -8 7
-14 19 -13 28 4 21 -18 26 -26 6z"/>
<path d="M10936 13941 c-10 -18 -22 -28 -30 -25 -10 4 -13 -5 -12 -33 1 -28 5
-37 16 -34 37 9 42 5 45 -30 3 -31 0 -38 -18 -43 -14 -4 -18 -9 -11 -13 6 -5
15 -23 19 -41 3 -18 15 -37 25 -42 28 -15 76 -12 90 5 7 8 16 15 21 15 5 0 9
-7 9 -15 0 -8 7 -15 15 -15 20 0 19 3 -10 46 -19 28 -24 45 -20 65 5 22 1 31
-19 44 -14 9 -33 14 -43 11 -10 -3 -25 -1 -33 5 -13 9 -12 10 3 5 9 -3 17 -2
18 2 0 4 2 16 4 26 4 22 -16 66 -39 85 -12 10 -17 7 -30 -18z"/>
<path d="M11929 13896 c-39 -39 -49 -54 -49 -74 0 -16 -46 -42 -77 -44 -23 -1
-44 -22 -41 -41 2 -13 -2 -21 -9 -20 -7 2 -35 -6 -63 -17 -56 -22 -60 -16 -27
35 22 35 42 45 49 24 2 -6 14 -2 28 10 l25 21 -22 6 c-27 7 -31 34 -5 34 16 1
16 2 0 13 -9 7 -18 26 -21 42 -3 25 -4 22 -6 -11 0 -26 -9 -50 -22 -65 -12
-13 -33 -42 -47 -64 -14 -22 -38 -55 -53 -73 -35 -40 -40 -79 -9 -62 31 17 62
-23 56 -72 -3 -24 1 -41 10 -49 20 -16 25 -8 31 45 6 49 27 65 61 47 10 -5 29
-7 42 -4 23 6 23 0 3 -53 -7 -19 18 -27 34 -11 12 11 12 19 4 35 -16 31 -13
75 7 94 30 27 52 61 52 79 0 10 5 21 10 24 6 3 10 15 10 25 0 10 10 27 23 37
21 17 57 82 57 103 0 18 -27 10 -51 -14z"/>
<path d="M12230 13698 c0 -8 -13 -19 -29 -25 -20 -7 -35 -23 -45 -49 -24 -58
-31 -69 -52 -70 -33 -1 -61 -22 -73 -55 -6 -17 -20 -33 -31 -36 -11 -3 -20
-10 -20 -15 0 -5 5 -6 12 -2 7 4 8 3 4 -5 -5 -7 -5 -23 -2 -36 6 -23 10 -24
84 -24 81 0 117 14 106 42 -4 11 1 15 20 13 14 0 26 -5 26 -9 0 -5 5 -5 10 -2
15 9 12 25 -5 25 -9 0 -15 9 -15 23 0 34 -9 38 -37 20 -59 -39 -47 46 18 118
16 18 26 36 23 41 -3 5 2 18 11 28 11 12 13 20 6 25 -6 3 -11 0 -11 -7z"/>
<path d="M3357 13668 c-8 -28 7 -55 51 -96 43 -38 73 -39 86 0 19 55 -35 118
-102 118 -22 0 -31 -6 -35 -22z"/>
<path d="M9725 13510 c-3 -5 -17 -10 -30 -10 -15 0 -34 -14 -57 -42 -18 -23
-32 -45 -32 -48 1 -3 -1 -10 -3 -17 -12 -30 3 -48 35 -45 18 1 32 -2 32 -8 0
-13 57 -13 65 0 3 5 3 20 -1 34 -5 21 -9 23 -35 16 -37 -11 -49 7 -15 20 25 9
36 30 16 30 -5 0 -10 7 -10 16 0 13 3 14 15 4 8 -6 20 -8 27 -4 10 5 11 4 1
-7 -19 -19 -16 -29 8 -29 11 0 17 5 14 10 -3 6 3 10 14 10 13 0 18 6 16 18 -1
9 -9 16 -17 16 -10 -1 -13 6 -10 22 3 17 0 24 -11 24 -9 0 -19 -4 -22 -10z"/>
<path d="M16650 13067 c-39 -19 -40 -86 -3 -140 60 -88 154 -191 204 -223 38
-23 146 -48 170 -39 25 10 62 73 56 97 -17 70 -72 168 -95 168 -14 0 -56 24
-87 50 -33 28 -155 91 -165 85 -5 -3 -11 -1 -15 5 -8 14 -35 12 -65 -3z"/>
<path d="M16823 11513 c-34 -7 -73 -59 -73 -98 0 -76 103 -114 162 -60 32 29
45 83 28 115 -11 20 -68 52 -87 49 -4 -1 -18 -4 -30 -6z"/>
<path d="M16495 11346 c-34 -19 -40 -28 -41 -57 0 -19 3 -44 7 -56 10 -26 57
-53 94 -53 34 0 82 25 95 50 7 12 16 18 23 13 9 -5 9 -3 1 8 -6 8 -11 27 -12
42 -2 32 -36 66 -67 67 -11 0 -29 2 -40 5 -11 3 -38 -6 -60 -19z"/>
<path d="M17258 11190 c-42 -33 -83 -60 -91 -60 -8 0 -20 -7 -28 -16 -7 -8
-35 -27 -61 -40 -66 -33 -110 -77 -102 -99 10 -26 83 -9 136 33 9 8 22 14 30
16 7 1 41 20 75 42 33 22 79 46 102 54 22 7 52 25 67 41 21 22 25 33 19 58 -6
27 -11 31 -38 31 -24 0 -52 -16 -109 -60z"/>
<path d="M16097 11096 c-19 -15 -37 -63 -30 -84 8 -22 62 -44 93 -37 38 8 53
29 52 68 -1 56 -70 87 -115 53z"/>
<path d="M2050 10077 c0 -20 48 -77 64 -77 3 0 17 -4 31 -10 26 -10 26 -10 9
-40 -22 -35 -16 -44 20 -30 42 15 47 13 104 -40 52 -48 133 -100 157 -100 7 0
15 13 17 30 4 24 -2 34 -31 58 -35 28 -151 102 -201 128 -14 7 -45 33 -68 59
-33 33 -51 45 -73 45 -24 0 -29 -4 -29 -23z"/>
<path d="M17274 10082 c-10 -10 -39 -47 -64 -81 -25 -35 -55 -76 -67 -91 -13
-15 -23 -32 -23 -38 0 -15 49 -21 60 -7 6 7 24 18 40 25 38 16 41 43 5 34 -38
-9 -30 9 23 57 77 71 103 119 64 119 -10 0 -27 -8 -38 -18z"/>
<path d="M17051 9336 c13 -13 42 -26 64 -30 51 -10 67 -23 59 -49 -5 -17 -3
-19 20 -13 19 5 39 -1 70 -19 23 -14 50 -25 58 -25 8 0 33 -13 55 -29 22 -16
58 -38 79 -48 71 -35 119 -65 144 -88 26 -24 70 -45 96 -45 22 0 17 32 -11 64
-23 27 -24 31 -10 53 20 29 1 31 -35 3 -33 -26 -45 -25 -99 9 -26 15 -58 32
-72 36 -35 11 -141 65 -160 82 -9 8 -30 18 -45 22 -16 4 -34 17 -40 29 -8 15
-14 18 -21 11 -11 -11 -18 -8 -135 52 -33 17 -41 9 -17 -15z"/>
<path d="M17160 8923 c-36 -15 -49 -47 -46 -108 4 -57 3 -61 -26 -85 -27 -23
-29 -27 -18 -52 11 -23 15 -25 36 -16 13 6 24 20 24 30 0 10 7 21 15 24 8 4
15 14 15 24 0 12 9 20 23 22 31 4 37 53 8 61 -16 4 -21 13 -21 41 0 23 5 39
15 42 8 4 15 10 15 15 0 10 -17 11 -40 2z"/>
<path d="M17273 8445 c-7 -7 -22 -20 -33 -28 -16 -11 -19 -19 -11 -38 11 -29
59 -79 76 -79 24 0 36 69 13 71 -7 0 1 7 19 15 35 15 53 52 32 65 -21 13 -83
10 -96 -6z"/>
<path d="M1365 8185 c-33 -8 -85 -19 -115 -24 -30 -6 -78 -16 -107 -22 -29 -5
-98 -14 -153 -18 -110 -9 -146 -25 -120 -55 16 -20 83 -21 99 -2 6 8 32 17 57
21 24 3 97 20 162 36 64 16 126 29 137 29 11 0 54 11 95 24 61 20 69 24 40 24
-19 0 -62 -6 -95 -13z"/>
<path d="M4239 8120 c-1 -11 -2 -26 -3 -32 -1 -7 10 -13 24 -14 33 -1 61 -13
84 -37 13 -13 26 -17 45 -12 14 3 41 6 59 5 21 0 35 5 38 15 6 14 8 14 24 0
15 -13 23 -14 39 -5 29 15 17 30 -24 30 -19 0 -37 5 -40 10 -3 6 -19 10 -36
10 -16 0 -29 4 -29 9 0 5 -14 14 -31 22 -27 10 -33 10 -43 -2 -26 -33 -45 -42
-61 -29 -8 7 -15 21 -15 31 0 25 -30 24 -31 -1z"/>
<path d="M4205 8034 c-12 -9 -31 -13 -48 -10 -33 7 -34 -15 -1 -24 10 -3 32
-14 47 -24 15 -10 42 -19 60 -20 28 -1 31 -4 31 -35 1 -19 7 -36 14 -38 7 -3
10 1 6 11 -3 9 -1 16 5 16 6 0 11 7 11 16 0 15 2 15 25 0 31 -20 53 -11 31 12
-8 10 -15 21 -15 27 1 16 -17 17 -31 0 -20 -24 -27 -18 -34 25 -5 31 -12 43
-32 50 -34 13 -45 12 -69 -6z"/>
<path d="M3421 7936 c-19 -7 -38 -22 -42 -34 -9 -23 -14 -26 -62 -36 -17 -4
-31 -16 -38 -32 -12 -32 1 -50 41 -59 18 -4 27 -11 24 -20 -3 -7 -1 -16 5 -20
6 -3 11 -2 11 3 0 5 21 3 48 -3 59 -16 98 -3 130 45 24 37 29 104 9 131 -29
38 -68 46 -126 25z"/>
<path d="M3350 7559 c-27 -11 -87 -89 -69 -89 7 0 22 -11 35 -25 29 -32 68
-32 99 0 31 30 32 73 5 103 -23 24 -32 25 -70 11z"/>
<path d="M17128 7530 c-10 -15 -24 -20 -59 -20 -49 0 -79 -21 -79 -54 0 -14
-5 -17 -24 -12 -15 4 -26 1 -28 -6 -4 -10 -10 -10 -31 -1 -44 20 -68 3 -48
-35 13 -25 87 -18 94 9 3 10 11 19 17 19 10 0 9 -4 0 -15 -21 -25 2 -42 35
-27 15 7 30 10 34 7 5 -2 23 7 42 20 20 15 40 23 51 19 10 -3 18 -2 17 3 -4
15 13 62 26 73 8 6 11 18 8 26 -8 21 -41 17 -55 -6z"/>
<path d="M3154 7138 c-24 -8 -34 -20 -48 -57 -27 -76 4 -131 74 -131 30 0 46
7 76 35 34 32 36 38 31 77 -4 29 -14 50 -32 65 -28 25 -51 27 -101 11z"/>
<path d="M3004 6816 c-36 -36 -44 -74 -23 -119 12 -28 34 -42 75 -51 27 -6 35
-2 62 28 39 45 48 85 27 126 -30 58 -92 65 -141 16z"/>
<path d="M16581 6793 c-12 -11 -24 -35 -28 -58 -3 -22 -11 -43 -17 -48 -7 -5
-5 -11 7 -18 10 -6 17 -20 16 -32 -4 -52 0 -57 37 -57 31 0 35 2 29 21 -7 22
12 79 26 79 5 0 9 6 9 14 0 7 7 19 15 26 22 18 18 39 -8 49 -13 5 -29 16 -36
25 -17 20 -24 20 -50 -1z"/>
<path d="M17155 6680 c-8 -16 -15 -36 -15 -46 0 -12 -5 -14 -17 -8 -10 4 -34
9 -54 11 -31 4 -40 0 -67 -31 -39 -44 -40 -75 -7 -114 31 -37 73 -48 120 -32
57 19 82 79 55 130 -7 14 -5 19 9 23 33 8 32 97 -1 97 -4 0 -14 -13 -23 -30z"/>
<path d="M17337 6676 c-16 -18 -32 -38 -36 -44 -8 -14 -71 6 -72 23 0 5 -4 1
-9 -10 -6 -15 -1 -28 23 -52 17 -18 36 -33 42 -33 6 0 22 -11 34 -24 28 -30
76 -38 120 -20 19 8 42 12 52 9 23 -8 33 9 14 25 -9 7 -13 21 -9 34 10 40 -12
74 -65 101 -28 14 -54 25 -58 24 -4 0 -21 -15 -36 -33z"/>
<path d="M16326 6508 c-9 -12 -16 -33 -16 -45 0 -31 -18 -29 -26 2 -10 39 -29
50 -64 35 -34 -14 -34 -13 -17 -41 10 -18 9 -23 -3 -27 -8 -3 -23 -15 -34 -27
-18 -21 -22 -22 -43 -8 -30 20 -50 11 -50 -23 0 -22 1 -24 9 -11 15 27 28 20
28 -15 0 -45 14 -66 33 -50 12 10 16 9 21 -3 3 -8 21 -23 41 -32 36 -17 43
-27 25 -38 -6 -4 -8 -11 -4 -16 4 -6 11 -5 21 2 12 11 13 8 7 -16 -6 -25 -5
-28 14 -23 13 4 23 0 26 -8 8 -20 27 -17 33 4 2 10 19 22 36 28 35 10 34 4 21
139 -5 51 -10 64 -36 86 -32 27 -31 49 1 49 14 0 17 6 13 30 -5 36 -15 38 -36
8z"/>
<path d="M16580 6520 c-32 -8 -55 -49 -47 -82 4 -14 22 -35 40 -45 30 -18 34
-19 60 -3 37 23 38 24 47 64 7 30 5 38 -10 46 -38 20 -66 27 -90 20z"/>
<path d="M4510 6160 c0 -6 -8 -14 -17 -17 -10 -4 -30 -19 -44 -35 -22 -23 -24
-30 -13 -39 10 -8 11 -16 3 -31 -6 -11 -8 -22 -5 -25 8 -8 67 5 100 22 27 14
30 14 49 -6 19 -21 21 -21 34 -3 17 23 17 58 1 51 -52 -21 -51 -21 -45 2 7 26
-28 91 -49 91 -8 0 -14 -5 -14 -10z"/>
<path d="M4800 6111 c0 -5 -14 -14 -30 -21 -27 -11 -32 -10 -44 5 -14 19 -47
17 -54 -2 -2 -7 4 -13 13 -13 12 0 15 -5 9 -22 -4 -13 -11 -26 -17 -29 -5 -4
-7 -15 -3 -24 5 -15 15 -17 58 -12 31 4 57 2 65 -4 9 -8 14 -7 19 5 3 9 15 16
25 16 15 0 18 -5 14 -23 -7 -28 14 -50 35 -37 12 8 12 10 -2 15 -16 6 -15 9 3
28 l20 22 -20 17 c-12 9 -19 23 -15 31 3 9 -3 16 -17 20 -19 5 -20 8 -9 21 11
14 8 16 -19 16 -17 0 -31 -4 -31 -9z"/>
<path d="M5166 6093 c-6 -20 -28 -55 -38 -63 -3 -3 -8 -18 -10 -34 -2 -23 1
-29 20 -32 18 -3 22 1 22 25 0 23 5 30 25 33 33 7 42 -8 20 -32 -16 -18 -16
-20 2 -44 10 -14 22 -26 27 -26 5 0 18 -8 28 -17 17 -16 19 -15 33 4 10 14 22
19 40 16 30 -6 44 20 27 48 -7 11 -8 20 -2 24 19 12 11 45 -10 45 -15 0 -20
-7 -20 -24 0 -31 -14 -40 -30 -21 -7 8 -21 15 -31 15 -21 0 -34 16 -19 25 17
10 11 25 -10 25 -12 0 -25 10 -32 25 -13 29 -33 33 -42 8z"/>
<path d="M5770 5615 c10 -13 9 -19 -6 -36 -17 -19 -17 -21 -2 -30 10 -5 14
-17 11 -29 -3 -11 -10 -17 -17 -13 -6 3 -6 0 2 -8 6 -7 12 -32 12 -56 0 -41
-1 -43 -25 -37 -18 4 -27 1 -31 -10 -9 -25 0 -29 39 -18 31 9 36 8 40 -10 5
-17 11 -19 69 -13 82 8 90 11 86 32 -2 12 4 19 20 21 12 2 22 5 22 7 0 3 -25
30 -56 62 -49 50 -55 62 -50 88 5 28 5 29 -9 11 -14 -18 -16 -18 -33 -3 -10 9
-26 17 -35 17 -9 0 -17 5 -17 10 0 6 6 10 13 10 17 0 -14 20 -32 20 -11 0 -11
-3 -1 -15z"/>
<path d="M13115 5210 c-10 -12 -25 -18 -32 -16 -7 3 -13 -1 -13 -9 0 -8 5 -15
10 -15 6 0 8 -15 4 -39 -4 -24 -2 -41 5 -45 6 -4 11 -25 11 -47 0 -29 4 -39
16 -39 14 0 14 -3 4 -15 -16 -19 -15 -82 1 -102 7 -8 25 -13 43 -11 44 4 57
45 31 94 -16 30 -17 37 -5 44 9 6 19 5 24 0 26 -26 53 10 34 44 -11 20 -48 21
-48 1 0 -8 -6 -15 -14 -15 -8 0 -17 -6 -19 -12 -3 -7 -6 -1 -6 15 -1 15 4 27
9 27 6 0 10 7 10 15 0 8 5 15 10 15 6 0 10 5 10 11 0 6 7 17 15 25 23 24 18
44 -14 55 -16 6 -32 17 -35 25 -8 20 -30 17 -51 -6z"/>
<path d="M5620 4855 c-8 -8 -30 -28 -49 -44 -27 -25 -31 -33 -22 -45 9 -11 10
-20 1 -36 -14 -25 8 -37 39 -21 11 6 27 11 36 11 20 0 51 29 59 56 7 22 -21
85 -40 91 -5 2 -16 -3 -24 -12z"/>
<path d="M5911 4806 c-7 -8 -32 -23 -57 -33 -24 -10 -44 -23 -44 -29 0 -7 -7
-14 -15 -18 -21 -8 -19 -23 5 -36 15 -8 30 -8 55 1 28 10 37 10 50 -1 15 -12
19 -12 30 3 20 28 37 21 30 -13 -6 -29 -5 -31 26 -34 6 -1 13 18 15 42 3 32 1
42 -11 42 -9 0 -15 10 -15 26 0 19 -4 25 -15 20 -17 -6 -20 9 -4 20 8 4 7 9
-2 15 -20 13 -35 11 -48 -5z"/>
<path d="M13320 4772 c0 -15 5 -33 11 -39 7 -7 5 -15 -7 -27 -15 -16 -15 -23
-3 -83 13 -61 17 -68 53 -86 46 -24 66 -16 82 34 6 18 16 35 23 37 6 2 11 13
11 24 0 14 -5 18 -18 14 -13 -4 -21 2 -29 24 -7 18 -25 36 -47 47 -28 13 -36
23 -36 44 0 15 -7 29 -16 33 -23 9 -24 8 -24 -22z"/>
<path d="M6506 4584 c-8 -20 1 -34 20 -34 9 0 14 -6 12 -12 -5 -14 -61 -35
-111 -42 -18 -3 -48 -10 -67 -16 -19 -6 -65 -9 -102 -8 -53 2 -72 -1 -85 -15
-42 -42 34 -72 111 -44 24 9 92 18 161 21 137 5 215 21 215 42 0 8 -4 14 -9
14 -5 0 -11 9 -14 20 -4 14 -14 20 -34 20 -36 0 -73 25 -73 51 0 23 -15 25
-24 3z"/>
<path d="M16930 4575 c0 -3 26 -32 58 -63 57 -58 290 -303 337 -356 15 -15 37
-46 51 -67 29 -46 71 -76 85 -62 15 15 -1 62 -28 81 -13 9 -93 85 -177 167
-84 83 -174 169 -199 193 -25 23 -50 48 -54 55 -10 15 -73 60 -73 52z"/>
<path d="M15140 4434 c-25 -13 -25 -14 -32 -201 -4 -103 -8 -205 -10 -227 -4
-46 19 -69 47 -46 13 11 16 29 14 89 -1 42 6 121 15 176 18 104 18 217 1 221
-5 1 -21 -4 -35 -12z"/>
<path d="M8665 3863 c-25 -28 -30 -45 -26 -96 1 -15 -7 -43 -19 -62 -21 -33
-21 -37 -6 -60 20 -30 35 -31 81 -5 20 11 46 20 59 20 29 0 64 38 77 83 8 29
6 44 -11 80 -34 71 -108 90 -155 40z"/>
<path d="M10474 3635 c3 -8 11 -55 18 -103 6 -48 17 -94 25 -103 7 -8 13 -19
13 -23 0 -5 14 -24 30 -43 24 -27 30 -43 30 -81 0 -59 29 -103 56 -86 30 18
39 40 27 66 -6 13 -11 25 -11 28 0 3 -12 28 -26 56 -14 28 -31 74 -37 102 -6
29 -15 54 -20 58 -5 3 -9 14 -9 24 0 22 -38 90 -60 107 -21 18 -43 16 -36 -2z"/>
<path d="M8867 3526 c-29 -22 -33 -76 -7 -109 57 -72 154 17 100 93 -24 33
-62 40 -93 16z"/>
<path d="M9060 3123 c-61 -25 -80 -118 -34 -172 21 -25 33 -31 65 -31 25 0 46
7 58 19 26 26 42 87 31 114 -18 48 -82 85 -120 70z"/>
<path d="M9158 2804 c-57 -30 -66 -103 -19 -156 26 -30 34 -33 70 -30 33 3 47
11 66 37 28 36 29 37 14 88 -7 26 -21 44 -42 57 -38 24 -53 24 -89 4z"/>
<path d="M7018 2624 c-15 -22 -33 -47 -41 -55 -8 -8 -23 -31 -33 -50 -29 -54
-144 -208 -197 -264 -51 -54 -68 -92 -46 -105 25 -16 78 27 79 64 0 10 21 46
46 79 25 34 54 77 65 97 10 19 32 53 48 75 51 68 113 175 108 188 -2 7 -15 -6
-29 -29z"/>
</g>
</svg>
