<svg xmlns="http://www.w3.org/2000/svg" xmlns:xlink="http://www.w3.org/1999/xlink" width="798px" height="1080px" viewBox="0 0 798 1080"><title>BG 2@2x</title><defs><rect id="path-1" x="0" y="0" width="798" height="1080"></rect></defs><g id="Page-1" stroke="none" stroke-width="1" fill="none" fill-rule="evenodd"><g id="Artboard-Copy" transform="translate(-1122.000000, 0.000000)"><g id="BG-2" transform="translate(1122.000000, 0.000000)"><mask id="mask-2" fill="white"><use xlink:href="#path-1"></use></mask><use id="Rectangle" fill-opacity="0" fill="#FFFFFF" xlink:href="#path-1"></use><path d="M502.212783,1211.76265 C501.011659,1215.6368 498.625031,1218.06682 495.0529,1219.05271 C465.741636,1190.41318 473.703427,1120.72017 487.413954,1086.26941 C497.167018,1061.79562 522.427089,1043.14348 547.707988,1037.5093 C562.939014,1034.11942 579.471837,1034.7599 593.093841,1027.09492 C694.727743,969.946029 537.954924,706.852839 672.956489,700.083494 C726.215611,697.406999 760.327902,760.018231 814.35248,752.952077 C829.203381,751.009796 843.085746,743.021969 858.092862,743.199013 C876.219085,743.412508 892.423855,755.925381 901.926974,771.364695 C911.430092,786.804008 915.387555,804.872952 919.001344,822.6555 C934.159469,897.024563 945.870436,973.065135 938.82511,1048.64747 C935.393573,1085.46229 927.332845,1122.32919 910.097052,1155.03554 C876.771047,1218.21956 810.780349,1260.51234 740.759288,1274.59258 C654.486592,1291.94814 567.0579,1273.55114 495.146629,1225.41069 C486.690155,1219.74527 479.280326,1215.36602 473.896093,1206.52942 C470.485385,1200.9369 467.699539,1194.2717 465.017837,1188.53338" id="Path" fill="#9ECCB2" fill-rule="nonzero" mask="url(#mask-2)"></path><path d="M-397.510835,923.608502 C-405.270835,913.838502 -400.760835,890.538502 -400.080835,879.818502 C-398.440835,853.818502 -392.820835,832.818502 -377.140835,811.648502 C-355.570835,782.488502 -316.370835,752.798502 -277.730835,766.398502 C-261.730835,772.048502 -248.520835,787.208502 -237.440835,799.398502 C-221.210472,817.100362 -207.727136,837.1366 -197.440835,858.838502 C-190.380835,873.928502 -185.370835,890.028502 -177.520835,904.738502 C-167.900835,922.738502 -151.920835,939.478502 -135.660835,951.808502 C-105.570835,974.618502 -66.3108354,987.208502 -28.9108354,990.808502 C-13.3508354,992.288502 0.519164562,992.208502 16.0091646,996.098502 C39.2891646,1001.9085 61.1791646,1014.0985 81.8591646,1025.9685 C120.659165,1048.2985 154.379165,1082.6185 169.129165,1125.7685 C174.129165,1140.3985 178.329165,1156.0985 180.239165,1171.5185 C183.119165,1194.6885 172.939165,1202.9685 155.599165,1215.6685 C139.459165,1227.4885 124.159165,1236.1985 104.229165,1240.1085 C84.2991646,1244.0185 63.6091646,1242.4585 43.5191646,1242.2285 C20.5191646,1241.9585 -1.75083544,1239.9185 -23.3708354,1231.7185 C-46.0808354,1223.1285 -69.3708354,1216.7985 -92.2808354,1208.8185 C-114.610835,1201.0385 -136.010835,1191.1485 -159.280835,1186.2485 C-173.650835,1183.2485 -187.510835,1183.3285 -202.140835,1182.3785 C-219.400835,1181.2585 -236.430835,1178.4685 -253.760835,1180.6485 C-264.840835,1182.0385 -274.960835,1185.7785 -286.150835,1186.2985 C-314.150835,1187.6185 -338.830835,1179.0285 -355.700835,1156.1585 C-375.570835,1129.2285 -376.590835,1097.4185 -376.800835,1065.2685 C-376.940835,1042.4085 -380.030835,1019.7585 -379.910835,996.798502 C-379.844169,982.605169 -379.820835,968.411835 -379.840835,954.218502 C-379.840835,934.878502 -376.710835,913.138502 -383.360835,894.588502 C-384.110835,894.418502 -384.900835,894.268502 -397.510835,923.608502 Z" id="Path" fill="#EDDCCF" fill-rule="nonzero" mask="url(#mask-2)"></path><path d="M-399.090596,192.74 L-399.330596,194.67 C-382.590596,180.33 -360.550596,174.41 -338.690596,173.5 C-314.490596,172.5 -289.500596,181.88 -267.010596,189.36 C-233.910596,200.36 -201.440596,213.18 -168.400596,224.36 C-135.810596,235.36 -102.170596,240.81 -68.4005965,246.58 C-45.5405965,250.47 -23.2105965,253.48 0.0494035364,253.84 C50.5794035,254.65 105.919404,250.3 144.499404,213.55 C158.239404,200.47 167.499404,182.94 177.689404,167.1 C192.399404,144.25 202.289404,119.93 214.239404,95.61 C223.649404,76.47 235.589404,59.26 245.729404,40.54 C255.529404,22.48 264.279404,2.94 277.329404,-13.15 C294.789404,-34.65 320.329404,-49.91 342.759404,-65.74 C355.359404,-74.64 369.429404,-92.29 371.939404,-108 L-444.780596,-108 C-444.520596,-93.44 -446.360596,-76.33 -442.540596,-62.3 C-440.390596,-54.42 -436.540596,-44.91 -434.280596,-37.62 L-399.090596,192.74 Z" id="Path" fill="#EFC9B2" fill-rule="nonzero" mask="url(#mask-2)"></path><path d="M662.23,144.311254 C662.23,131.401254 682.23,131.401254 682.23,144.311254 C682.23,157.221254 662.23,157.201254 662.23,144.311254 Z M689.69,106.461254 C689.69,98.4012542 702.18,98.4612542 702.18,106.461254 C702.18,114.461254 689.69,114.461254 689.69,106.461254 Z M646,96.9412542 C646,81.4212542 670.08,81.4412542 670.08,96.9412542 C670.08,112.461254 646,112.461254 646,96.9412542 Z M747.5,63.7812542 C747.5,56.9812542 758.05,56.9812542 758.05,63.7812542 C758.05,70.5812542 747.5,70.5712542 747.5,63.7812542 Z M698.55,49.5712542 C698.55,40.7312542 712.26,40.7312542 712.26,49.5712542 C712.26,58.4112542 698.55,58.3912542 698.55,49.5712542 Z M722.41,-12.0087458 C722.41,-20.5987458 735.77,-20.6187458 735.77,-12.0087458 C735.77,-3.39874582 722.41,-3.40874582 722.41,-12.0087458 Z M801.8,-40.4287458 C801.8,-50.5387458 817.44,-50.5087458 817.44,-40.4287458 C817.44,-30.3487458 801.8,-30.3587458 801.8,-40.4287458 Z" id="Combined-Shape" fill="#424A5D" fill-rule="nonzero" mask="url(#mask-2)"></path><path d="M320.609404,153.2 C315.199404,145.36 327.359404,136.97 332.759404,144.81 C338.159404,152.65 326.019404,161.04 320.609404,153.2 Z M49.0894035,150.58 C44.1394035,143.39 55.2894035,135.71 60.2394035,142.89 C65.1894035,150.07 54.0894035,157.75 49.0894035,150.58 Z M64.9394035,128.14 C58.0594035,118.16 73.5294035,107.48 80.4194035,117.46 C87.3094035,127.44 71.8094035,138.14 64.9394035,128.14 Z M205.149404,117.74 C200.389404,110.84 211.099404,103.46 215.859404,110.36 C220.619404,117.26 209.899404,124.63 205.149404,117.74 Z M117.779404,109 C112.569404,101.4 124.289404,93.37 129.499404,100.92 C134.709404,108.47 122.979404,116.55 117.779404,109 Z M-20.5905965,106.57 C-28.4405965,95.19 -10.7905965,83.01 -2.94059646,94.39 C4.90940354,105.77 -12.7505965,117.93 -20.5905965,106.57 Z M56.5894035,70.6 C51.2494035,62.84 63.2394035,54.58 68.5894035,62.32 C73.9394035,70.06 61.9294035,78.36 56.5894035,70.6 Z" id="Combined-Shape" fill="#424A5D" fill-rule="nonzero" mask="url(#mask-2)"></path><path d="M610.939404,944.33 C627.249404,944.33 627.259404,969.65 610.939404,969.65 C594.619404,969.65 594.649404,944.33 610.939404,944.33 Z M568.389404,958.27 C574.059404,958.27 574.049404,967.06 568.389404,967.06 C562.729404,967.06 562.739404,958.27 568.389404,958.27 Z M568.389404,935.14 C574.619404,935.14 574.619404,944.81 568.389404,944.81 C562.159404,944.81 562.169404,935.14 568.389404,935.14 Z M588.249404,904.67 C597.199404,904.67 597.249404,918.55 588.249404,918.55 C579.249404,918.55 579.309404,904.67 588.249404,904.67 Z M625.119404,902.05 C625.65888,902.079762 626.089641,902.510524 626.119404,903.05 C626.143607,903.488718 625.894638,903.896888 625.493487,904.076154 C625.092335,904.255421 624.622172,904.168616 624.31148,903.857924 C624.000788,903.547232 623.913983,903.077069 624.093249,902.675917 C624.272516,902.274765 624.680686,902.025796 625.119404,902.05 Z M636.459404,866.22 C647.449404,866.22 647.459404,883.22 636.459404,883.22 C625.459404,883.22 625.459404,866.22 636.459404,866.22 Z M571.229404,859.46 C579.999404,859.46 579.949404,873 571.229404,873 C562.509404,873 562.519404,859.46 571.229404,859.46 Z M613.769404,835.17 C620.909404,835.17 620.899404,846.24 613.769404,846.24 C606.639404,846.24 606.629404,835.17 613.769404,835.17 Z M571.229404,821 C585.619404,821 585.619404,843.32 571.229404,843.32 C556.839404,843.32 556.869404,821 571.229404,821 Z M650.639404,832.49 C653.929404,832.49 653.919404,837.58 650.639404,837.58 C647.359404,837.58 647.359404,832.49 650.639404,832.49 Z M707.369404,800.87 C714.859404,800.87 714.849404,812.47 707.369404,812.47 C699.889404,812.47 699.899404,800.87 707.369404,800.87 Z M656.319404,792.69 C659.719404,792.69 659.719404,797.96 656.319404,797.96 C652.919404,797.96 652.919404,792.69 656.319404,792.69 Z" id="Combined-Shape" fill="#E8F5F7" fill-rule="nonzero" mask="url(#mask-2)"></path></g></g></g></svg>