<?xml version="1.0" standalone="no"?>
<!DOCTYPE svg PUBLIC "-//W3C//DTD SVG 20010904//EN"
 "http://www.w3.org/TR/2001/REC-SVG-20010904/DTD/svg10.dtd">
<svg version="1.0" xmlns="http://www.w3.org/2000/svg"
 width="478.000000pt" height="327.000000pt" viewBox="0 0 478.000000 327.000000"
 preserveAspectRatio="xMidYMid meet">
<metadata>
Created by potrace 1.16, written by Peter Selinger 2001-2019
</metadata>
<g transform="translate(0.000000,327.000000) scale(0.100000,-0.100000)"
fill="#000000" stroke="none">
<path d="M3180 3021 c0 -27 -17 -35 -62 -32 -30 2 -38 -1 -38 -14 0 -12 -5
-15 -17 -10 -45 17 -73 18 -73 1 0 -12 -10 -16 -45 -16 -42 0 -46 -2 -51 -29
-5 -25 -11 -29 -52 -34 -26 -4 -56 -8 -67 -10 -11 -2 -14 -2 -7 0 6 3 12 9 12
14 0 14 -38 11 -43 -3 -4 -10 -7 -10 -18 0 -16 14 -49 16 -49 2 0 -5 10 -10
23 -10 22 -1 22 -1 -3 -15 -23 -13 -26 -12 -39 5 -14 20 -41 27 -41 11 0 -24
14 -41 34 -42 11 0 -1 -7 -29 -16 -37 -11 -54 -12 -67 -4 -10 6 -29 11 -43 11
-23 0 -24 2 -15 20 13 25 9 25 -41 0 -38 -20 -47 -46 -11 -33 13 4 14 3 6 -6
-8 -9 -18 -9 -38 -1 -42 16 -59 13 -53 -9 4 -17 2 -18 -15 -8 -16 10 -22 9
-32 -5 -14 -20 -51 -24 -61 -8 -3 6 -18 11 -33 11 -17 1 -21 3 -9 6 17 5 24
33 8 33 -5 0 -11 10 -13 23 -2 14 -11 23 -26 25 -23 4 -23 3 -7 -22 9 -14 14
-30 10 -36 -8 -13 -46 -13 -81 0 -31 12 -60 -4 -36 -19 20 -12 0 -24 -118 -71
-137 -55 -158 -61 -163 -47 -3 9 -10 9 -26 0 -11 -7 -29 -13 -38 -13 -10 0
-58 -12 -107 -27 -65 -20 -91 -24 -94 -15 -2 7 -11 12 -19 12 -9 0 -13 -6 -10
-14 4 -9 -2 -16 -15 -19 -14 -4 -19 -11 -15 -21 7 -17 -8 -22 -18 -6 -3 6 -15
10 -26 10 -13 0 -18 -4 -13 -12 5 -8 0 -9 -15 -5 -13 3 -42 -6 -77 -25 -70
-37 -81 -32 -14 7 28 16 50 33 50 38 0 6 -22 7 -52 2 -29 -4 -76 -8 -104 -9
-60 -2 -93 -21 -134 -78 -25 -34 -39 -68 -27 -68 21 1 134 43 148 56 12 11 19
13 19 5 0 -12 -125 -75 -172 -86 -21 -6 -27 -3 -33 17 -10 31 -45 68 -64 67
-20 0 -62 -52 -64 -77 0 -11 -8 -19 -17 -18 -12 1 -16 -12 -18 -61 -2 -49 0
-63 11 -63 8 0 20 7 27 16 11 12 10 18 -3 31 -14 14 -14 18 -1 39 13 20 19 21
45 12 16 -5 29 -13 29 -18 0 -4 10 -11 23 -14 21 -7 21 -7 2 -15 -11 -5 -21
-4 -23 0 -5 12 -52 11 -52 0 0 -5 10 -13 22 -17 19 -6 13 -10 -39 -34 -33 -15
-63 -32 -66 -37 -6 -10 -95 -56 -130 -67 -25 -8 -32 -34 -13 -55 9 -10 16 -25
16 -35 0 -10 5 -15 13 -11 6 4 3 -1 -7 -9 -25 -20 -40 -20 -56 -1 -20 24 -43
19 -38 -9 4 -18 -1 -27 -19 -35 -13 -6 -32 -11 -42 -11 -10 0 -24 -7 -31 -15
-7 -8 -21 -15 -30 -15 -10 0 -21 -6 -23 -12 -4 -10 -6 -10 -6 0 -2 25 -31 12
-31 -14 0 -21 4 -25 18 -20 9 4 4 -4 -13 -18 l-30 -24 25 -27 c14 -14 32 -24
41 -22 9 3 22 1 29 -3 19 -12 -77 -32 -99 -20 -24 12 -54 -16 -32 -29 10 -6 9
-10 -3 -14 -11 -5 -16 -1 -16 13 0 12 -7 20 -16 20 -12 0 -15 -7 -12 -24 4
-19 -1 -25 -29 -35 -21 -8 -33 -19 -33 -31 0 -18 2 -18 33 -5 51 21 137 31
137 15 0 -9 10 -11 33 -6 23 4 28 3 17 -4 -8 -5 -25 -10 -37 -10 -12 0 -25 -4
-28 -10 -3 -5 -24 -10 -45 -10 -34 0 -40 -4 -57 -37 -16 -34 -23 -38 -60 -41
-45 -3 -53 -12 -28 -32 13 -10 12 -17 -5 -51 -37 -71 -18 -105 30 -54 21 23
25 24 41 9 10 -9 20 -11 23 -6 3 5 19 12 36 14 24 4 30 1 30 -14 0 -23 29 -36
41 -17 6 10 9 7 9 -13 0 -15 -4 -30 -10 -33 -5 -3 -10 1 -10 9 0 12 -8 14 -32
10 -71 -12 -78 -27 -21 -42 31 -8 33 -10 13 -11 -37 -3 -94 -34 -98 -54 -5
-23 17 -22 42 2 15 13 30 18 49 14 27 -5 38 -23 14 -23 -7 0 -18 -9 -25 -20
-7 -11 -23 -20 -37 -20 -16 0 -25 -6 -25 -16 0 -12 6 -15 21 -11 15 4 19 2 15
-8 -3 -8 2 -18 10 -23 11 -6 12 -14 5 -33 -5 -13 -10 -18 -10 -11 -1 18 -46
14 -64 -6 -22 -24 -21 -32 3 -32 25 0 36 -25 20 -45 -20 -24 6 -47 48 -43 49
4 53 -19 6 -38 l-38 -16 32 -14 c18 -7 32 -17 32 -22 0 -5 23 -12 51 -15 28
-4 57 -11 63 -17 7 -5 17 -6 22 -2 5 4 -1 -4 -13 -18 -12 -14 -24 -42 -28 -62
-6 -32 -4 -38 10 -38 15 0 15 -3 5 -15 -15 -18 -15 -19 30 -38 20 -9 28 -16
18 -16 -30 -2 -20 -29 15 -42 28 -10 33 -16 29 -35 -3 -17 1 -25 14 -30 11 -3
36 -14 57 -23 33 -16 35 -19 18 -24 -12 -3 -21 -1 -21 4 0 5 -7 9 -15 9 -8 0
-15 -9 -15 -20 0 -23 62 -90 84 -90 8 0 17 -4 21 -9 3 -5 21 -7 41 -4 l35 6
-20 -34 c-29 -47 -28 -74 1 -64 13 4 38 7 56 7 18 0 32 4 32 11 0 7 9 1 19
-12 20 -26 51 -24 51 4 0 16 27 20 49 6 9 -6 10 -11 2 -15 -9 -6 -8 -28 5 -93
3 -18 11 -23 34 -23 33 0 38 11 15 30 -27 22 -17 37 30 44 42 7 107 -12 77
-22 -15 -5 -17 -102 -2 -102 6 0 10 6 10 13 1 21 36 56 64 63 22 5 28 3 33
-15 4 -16 9 -19 18 -11 9 8 15 8 20 0 3 -5 13 -10 21 -10 17 0 19 30 2 30 -7
1 3 8 22 16 19 8 44 13 54 10 12 -3 25 2 32 12 16 21 29 9 39 -36 5 -24 3 -32
-7 -30 -8 2 -13 -6 -12 -19 0 -13 -3 -23 -8 -23 -4 0 -8 -12 -8 -27 0 -26 0
-26 -21 -7 -21 19 -21 18 -40 -5 -10 -13 -19 -36 -19 -52 0 -24 4 -29 26 -29
14 0 23 4 19 10 -3 6 3 10 15 10 12 0 36 14 53 32 18 18 40 31 49 30 11 -2 18
3 18 12 0 22 20 20 20 -1 1 -33 26 -53 67 -56 32 -2 39 -5 35 -20 -6 -23 16
-22 53 3 24 16 40 18 82 14 46 -6 54 -4 77 19 14 14 26 35 26 46 0 11 4 23 10
26 6 4 7 -1 3 -11 -5 -14 -3 -16 13 -9 10 4 27 7 36 7 10 0 20 4 24 9 3 6 11
4 17 -5 10 -12 20 -14 52 -6 25 5 44 5 51 -1 7 -6 21 -6 39 1 21 8 30 8 36 -1
5 -9 15 -6 34 10 15 11 33 21 39 21 13 0 39 28 49 53 3 9 12 17 18 17 8 0 8
-4 -1 -15 -10 -12 -10 -15 4 -15 9 0 16 -4 16 -10 0 -5 7 -10 15 -10 8 0 15 9
15 19 0 15 5 18 23 13 18 -5 19 -7 5 -10 -26 -5 -22 -20 12 -37 34 -18 43 -19
38 -4 -4 13 64 88 75 82 4 -2 7 -15 7 -28 0 -21 17 -35 41 -35 6 0 7 9 4 20
-5 17 -2 20 23 20 47 0 129 28 290 101 84 38 159 69 167 69 8 0 18 6 22 13 4
6 18 12 31 13 80 2 92 5 92 19 0 10 -11 15 -35 15 -29 0 -35 4 -35 20 0 18 -5
20 -37 15 l-38 -5 40 19 c22 11 52 22 67 26 24 6 26 5 21 -16 -5 -18 -3 -21
11 -16 10 4 20 7 22 7 2 0 4 10 4 23 0 16 3 19 9 8 6 -9 15 -11 27 -6 11 5 22
8 26 7 4 -1 12 7 18 18 6 11 21 20 34 20 13 0 29 6 36 14 6 8 18 12 26 9 24
-9 60 5 73 30 7 14 32 34 55 46 22 12 52 30 66 41 16 13 47 22 90 26 69 6 150
30 150 45 0 4 7 6 16 2 10 -4 17 2 21 17 4 14 8 18 13 10 5 -9 23 -10 60 -5
52 7 52 7 47 39 -3 17 -8 39 -12 49 -6 13 -2 17 19 17 15 0 29 -7 32 -15 8
-20 34 -19 34 0 0 9 11 20 25 25 26 10 31 25 15 50 -8 12 -11 12 -28 -3 -26
-23 -37 -21 -51 10 -14 30 -3 43 36 43 12 0 28 7 37 15 8 8 22 15 30 15 9 0
13 6 10 14 -4 10 2 16 18 18 17 2 24 10 26 31 2 15 12 33 23 40 22 14 25 27 5
27 -8 0 -16 5 -18 11 -3 9 -15 8 -43 -2 -47 -15 -65 -34 -65 -66 0 -23 -1 -23
-24 -7 -14 8 -35 15 -48 14 -48 -4 -50 -1 -24 31 31 37 34 54 6 39 -14 -8 -20
-8 -20 0 0 6 8 14 18 17 9 4 20 11 24 17 4 6 14 4 26 -7 10 -9 26 -17 34 -17
18 0 32 27 18 35 -6 4 -10 10 -10 14 0 13 138 60 224 76 45 9 97 20 116 25 19
5 52 12 73 15 45 7 48 21 7 30 -17 4 -35 16 -41 27 -10 19 -18 20 -102 15 -51
-3 -112 -11 -137 -16 -109 -24 -107 -24 -86 -7 10 8 22 13 27 11 4 -3 10 -1
13 4 4 5 24 12 46 16 22 4 40 11 40 16 0 5 7 9 16 9 9 0 35 15 57 33 23 17 47
31 54 29 13 -3 95 37 126 61 34 28 16 48 -24 27 -25 -14 -25 2 1 18 11 7 20
19 20 27 0 8 5 15 10 15 18 0 10 32 -9 37 -21 5 -37 61 -22 76 12 12 31 0 31
-19 0 -8 9 -14 20 -14 11 0 20 7 20 15 0 8 -5 15 -11 15 -8 0 -7 5 2 16 10 12
10 17 0 23 -10 6 -9 10 3 14 13 5 16 -1 16 -33 0 -21 4 -41 9 -44 5 -3 7 -15
4 -26 -7 -27 23 -27 32 0 3 11 15 20 25 20 22 0 80 53 80 73 0 9 -6 18 -12 20
-8 3 -5 6 5 6 11 1 21 -8 24 -19 3 -11 12 -20 19 -20 8 0 14 9 14 20 0 16 7
20 30 20 65 0 18 58 -49 61 -21 1 -19 3 9 8 19 4 39 4 45 -1 17 -15 26 -8 23
20 -3 26 -5 27 -60 26 -62 -1 -70 4 -38 24 22 14 27 41 8 44 -7 1 -44 2 -83 2
-62 1 -70 3 -72 21 -1 15 -1 16 3 3 9 -30 84 -16 84 15 0 13 -55 41 -77 40 -8
-1 -13 11 -13 28 0 16 -3 28 -7 27 -5 -1 -21 4 -37 11 -31 12 -56 9 -56 -9 0
-5 9 -10 19 -10 11 0 23 -9 26 -21 7 -22 -5 -43 -12 -21 -10 27 -32 10 -38
-30 -8 -48 -20 -68 -41 -68 -21 0 -17 17 6 23 16 4 20 14 20 46 0 43 -18 56
-27 21 -3 -11 -9 -20 -14 -20 -5 0 -6 7 -3 15 4 8 1 22 -5 29 -8 10 -9 16 -1
21 12 7 14 35 1 35 -4 0 -21 -12 -36 -26 -23 -21 -27 -31 -22 -61 6 -33 4 -35
-16 -29 -12 4 -39 10 -59 13 -21 3 -38 10 -38 16 0 6 -3 7 -6 4 -4 -3 -15 -2
-25 4 -16 8 -19 6 -19 -9 0 -11 7 -25 15 -32 8 -7 15 -21 15 -31 0 -23 18 -25
26 -4 4 8 11 12 17 8 5 -3 15 1 21 9 9 13 13 13 24 2 10 -11 6 -16 -22 -28
-26 -11 -36 -22 -39 -43 l-4 -28 -2 29 c-1 21 -5 27 -16 22 -11 -4 -15 1 -15
19 0 18 -5 25 -18 25 -11 0 -26 8 -35 18 -18 20 -23 37 -8 28 5 -3 25 9 44 27
20 17 52 47 71 65 28 25 44 32 76 32 30 0 40 -4 40 -16 0 -12 5 -14 18 -9 9 4
27 10 40 13 13 2 29 13 35 23 7 11 19 19 27 19 12 -1 11 -3 -2 -11 -10 -5 -18
-17 -18 -25 0 -11 14 -7 59 16 76 38 84 50 32 50 -30 0 -41 4 -41 15 0 8 6 15
14 15 10 0 18 22 26 69 9 54 15 68 28 67 9 0 17 6 17 14 0 12 -15 15 -77 15
-93 -1 -106 -10 -91 -60 6 -19 7 -33 3 -30 -5 3 -15 -1 -23 -10 -13 -12 -17
-12 -26 -1 -9 11 -7 15 9 19 22 6 29 47 8 47 -9 0 -9 3 0 12 19 19 14 28 -13
28 -14 0 -36 -10 -48 -22 -16 -16 -32 -22 -54 -20 -20 2 -32 -2 -36 -12 -6
-15 -2 -16 61 -18 28 -1 32 -4 32 -28 0 -33 -9 -43 -26 -29 -8 6 -21 8 -31 5
-15 -6 -15 -5 2 14 18 20 18 20 -14 20 -27 0 -32 -4 -37 -30 -8 -38 -20 -31
-29 17 -4 21 -14 46 -22 56 -15 16 -14 17 15 17 43 0 82 17 82 35 0 8 9 15 20
15 11 0 23 6 26 14 3 8 12 12 20 9 9 -3 14 2 14 16 0 24 -28 29 -36 7 -4 -9
-18 -14 -39 -13 -25 2 -31 5 -23 14 12 14 1 73 -13 73 -6 0 -20 -5 -31 -11
-14 -8 -23 -8 -31 0 -17 17 -34 13 -40 -9 -4 -15 0 -20 14 -20 12 0 16 -5 13
-15 -8 -19 -21 -19 -40 -1 -15 16 -11 94 8 133 13 27 6 38 -19 28 -10 -4 -27
-8 -38 -9 -27 -1 -25 -30 3 -34 12 -2 22 -7 22 -11 0 -15 -26 -39 -47 -44 -31
-7 -29 1 3 13 26 10 25 30 -2 30 -8 0 -14 5 -14 10 0 17 -33 11 -70 -11 -31
-20 -33 -23 -16 -29 19 -6 19 -7 -2 -12 -12 -4 -22 -2 -22 3 0 16 -57 10 -116
-12 -44 -17 -61 -19 -79 -11 -16 7 -35 8 -57 1 -42 -12 -40 -12 -29 9 5 9 30
23 55 30 25 6 46 16 46 22 0 14 -26 12 -58 -4 -15 -7 -50 -16 -78 -20 -46 -6
-52 -4 -57 14 -4 15 -13 20 -36 20 -21 0 -31 5 -31 15 0 9 -9 15 -21 15 -17 0
-20 -5 -17 -29 2 -25 -6 -37 -56 -81 -54 -47 -62 -51 -95 -46 -111 20 -107 20
-157 -20 -32 -26 -45 -33 -41 -21 9 23 -1 64 -16 70 -7 3 1 3 16 1 19 -3 30 2
34 13 4 9 1 19 -5 21 -7 2 -12 10 -12 18 0 8 -5 14 -10 14 -25 0 -79 -30 -90
-50 -11 -20 -13 -20 -35 -6 -21 14 -24 14 -29 -1 -5 -12 -9 -13 -21 -3 -13 10
-19 10 -34 -5 -19 -16 -19 -16 -14 3 3 12 16 22 35 26 18 4 32 14 35 26 6 23
14 25 31 8 9 -9 16 -7 31 6 12 11 21 14 26 7 10 -17 25 -13 25 8 0 10 16 31
36 46 l35 27 20 -21 c20 -21 59 -29 59 -11 0 5 -9 14 -20 20 -27 14 -26 33 1
25 15 -5 19 -4 15 4 -4 6 6 19 23 29 38 21 40 36 4 29 -57 -12 -119 -26 -138
-32 -18 -6 -17 -4 4 14 13 12 32 21 43 21 30 0 58 19 58 38 0 10 4 22 9 28 5
5 12 19 16 32 5 18 2 22 -14 22 -14 0 -21 -6 -21 -19z"/>
<path d="M4727 2544 c-16 -9 -54 -18 -85 -20 -102 -9 -122 -19 -89 -48 7 -6
11 -10 9 -9 -10 4 -42 -34 -42 -49 0 -13 8 -18 30 -18 17 0 30 5 30 11 0 8 5
7 15 -1 13 -11 21 -9 45 8 16 12 34 22 41 22 7 0 9 9 4 27 -6 27 -6 27 13 10
19 -17 22 -17 51 -2 30 15 38 36 25 69 -7 19 -11 19 -47 0z"/>
</g>
</svg>
