<?xml version="1.0" standalone="no"?>
<!DOCTYPE svg PUBLIC "-//W3C//DTD SVG 20010904//EN"
 "http://www.w3.org/TR/2001/REC-SVG-20010904/DTD/svg10.dtd">
<svg version="1.0" xmlns="http://www.w3.org/2000/svg"
 width="500.000000pt" height="392.000000pt" viewBox="0 0 500.000000 392.000000"
 preserveAspectRatio="xMidYMid meet">

<g transform="translate(0.000000,392.000000) scale(0.100000,-0.100000)"
fill="#000000" stroke="none">
<path d="M447 3843 c-12 -11 -8 -23 7 -23 7 0 19 7 26 15 10 12 9 15 -7 15
-11 0 -23 -3 -26 -7z"/>
<path d="M1130 3836 c0 -8 12 -24 26 -35 22 -17 28 -32 34 -90 4 -38 11 -74
15 -80 19 -32 65 69 65 145 0 49 -21 69 -53 52 -13 -7 -25 -5 -42 6 -30 20
-45 20 -45 2z"/>
<path d="M3221 3716 c-7 -8 -15 -30 -18 -50 -7 -44 17 -51 35 -11 22 48 9 92
-17 61z"/>
<path d="M2704 3676 c-10 -8 -16 -17 -13 -20 10 -10 39 5 39 20 0 17 -2 17
-26 0z"/>
<path d="M3447 3653 c-9 -8 -9 -120 -1 -162 4 -17 12 -31 19 -31 16 0 41 53
50 105 3 22 9 52 11 68 5 26 4 27 -34 27 -21 0 -42 -3 -45 -7z"/>
<path d="M832 3628 c2 -12 11 -24 21 -26 24 -5 22 25 -4 38 -18 10 -20 9 -17
-12z"/>
<path d="M1950 3579 c-7 -11 -9 -28 -5 -37 6 -15 8 -15 21 2 16 23 19 56 4 56
-5 0 -14 -9 -20 -21z"/>
<path d="M1742 3574 c4 -21 22 -23 26 -1 2 10 -3 17 -13 17 -10 0 -15 -6 -13
-16z"/>
<path d="M1684 3496 c-20 -20 -34 -44 -34 -58 0 -54 87 -92 110 -49 23 44 2
141 -32 141 -5 0 -25 -15 -44 -34z"/>
<path d="M1215 3500 c4 -6 11 -8 16 -5 14 9 11 15 -7 15 -8 0 -12 -5 -9 -10z"/>
<path d="M3082 3458 c2 -13 9 -23 17 -23 23 0 24 23 1 35 -19 10 -21 9 -18
-12z"/>
<path d="M2623 3443 c-3 -10 -8 -21 -10 -25 -6 -12 27 -37 42 -32 18 7 20 45
3 62 -17 17 -28 15 -35 -5z"/>
<path d="M3534 3436 c-7 -19 3 -36 22 -36 10 0 14 8 12 22 -4 26 -26 36 -34
14z"/>
<path d="M1892 3398 c-16 -16 -15 -53 2 -67 8 -7 27 -11 43 -9 25 3 28 7 28
43 0 37 -2 40 -30 43 -17 2 -36 -3 -43 -10z"/>
<path d="M2430 3365 c0 -24 24 -44 37 -31 8 7 -17 56 -29 56 -4 0 -8 -11 -8
-25z"/>
<path d="M66 3362 c-31 -35 -19 -61 61 -144 43 -44 107 -104 144 -134 72 -61
232 -236 266 -293 12 -20 77 -88 144 -151 l122 -116 -16 -30 c-8 -17 -60 -73
-115 -125 -88 -85 -108 -99 -183 -128 -128 -51 -160 -99 -75 -115 54 -10 61
-26 39 -93 l-20 -58 -86 0 c-47 0 -89 -3 -92 -7 -17 -16 11 -28 66 -28 72 0
99 -12 99 -44 0 -13 11 -46 24 -73 14 -26 28 -72 31 -100 6 -49 5 -53 -14 -53
-13 0 -29 14 -45 38 -46 73 -86 82 -86 19 0 -48 31 -82 96 -107 118 -44 140
-65 129 -124 -6 -31 -10 -34 -52 -39 -47 -5 -80 -27 -69 -46 11 -16 39 -13 98
10 43 17 66 20 118 15 l65 -6 118 -120 c106 -107 124 -121 173 -136 31 -9 58
-22 61 -30 3 -8 -5 -31 -18 -51 -12 -21 -33 -57 -45 -80 -13 -23 -30 -53 -39
-67 -26 -39 0 -41 42 -3 46 41 160 94 173 81 5 -5 14 -54 20 -109 14 -125 25
-154 59 -160 14 -3 39 -10 54 -15 16 -5 35 -6 43 -3 18 7 18 47 -1 63 -8 7
-15 19 -15 26 0 20 78 66 114 68 31 1 31 1 43 -74 19 -119 45 -230 59 -248 12
-15 13 -14 14 9 0 14 -7 70 -15 125 -17 114 -20 230 -5 239 5 3 10 15 10 26 0
21 33 26 60 9 9 -6 17 -5 22 3 24 39 62 -88 51 -172 -7 -50 12 -56 21 -6 8 38
26 57 26 26 0 -30 39 -61 76 -61 35 0 81 31 94 64 8 20 9 20 9 -3 1 -13 -9
-38 -22 -55 -42 -56 -43 -59 -9 -54 l30 4 7 -307 c4 -169 11 -313 16 -320 16
-24 26 8 33 100 4 47 12 98 18 114 9 23 7 31 -8 48 -17 19 -19 42 -22 223 l-4
201 24 -21 c12 -12 33 -27 45 -33 l22 -11 -20 -55 c-21 -59 -16 -114 16 -175
38 -73 134 -150 187 -150 30 0 40 -9 91 -80 44 -61 109 -89 166 -71 60 17 139
96 196 195 50 87 63 100 90 89 14 -5 14 -7 -1 -24 -12 -14 -14 -24 -7 -46 8
-23 16 -29 45 -31 35 -3 36 -3 42 42 9 57 28 60 74 13 31 -32 32 -36 32 -117
0 -47 3 -136 7 -197 l6 -113 29 0 28 0 0 189 0 189 35 12 c19 6 42 21 50 33
17 24 19 101 6 160 -8 33 -7 37 7 33 49 -14 74 -18 97 -12 22 6 25 12 25 49 0
24 -5 48 -11 54 -8 8 -5 22 10 52 18 34 33 46 98 76 42 20 83 33 91 30 14 -5
13 -82 -3 -226 -6 -53 -5 -58 21 -78 60 -47 134 -10 143 75 5 44 10 51 46 71
23 13 53 22 70 21 28 -3 30 -6 28 -38 -1 -19 6 -66 17 -105 10 -38 21 -89 25
-112 4 -22 13 -49 21 -60 14 -16 15 -13 10 37 -30 279 -31 354 -5 371 28 17
79 10 104 -16 22 -21 25 -33 25 -97 0 -85 15 -122 25 -65 13 66 39 68 108 11
32 -27 77 -32 77 -9 0 14 29 35 49 35 6 0 11 -7 11 -15 0 -33 31 -24 120 37
85 59 93 67 116 123 26 64 30 119 14 175 -13 44 5 60 68 60 33 0 63 -10 116
-39 39 -21 83 -41 97 -45 15 -3 79 -56 143 -117 l116 -111 0 96 0 95 -67 40
c-38 22 -102 69 -144 106 -83 71 -111 118 -124 209 l-7 49 31 -6 30 -6 -21 35
c-15 25 -21 54 -22 106 -1 71 0 73 31 93 45 28 47 41 17 98 -16 32 -23 58 -20
73 8 30 64 94 82 94 8 0 14 4 14 9 0 6 -19 11 -42 13 -42 3 -43 4 -60 57 -10
29 -30 70 -45 90 -25 31 -29 47 -33 126 l-5 90 -45 16 c-40 15 -49 25 -83 87
-47 88 -116 153 -227 212 -51 28 -96 60 -118 86 -28 34 -43 43 -78 49 -41 6
-43 8 -33 27 25 47 -33 43 -74 -6 -18 -21 -18 -21 -92 59 -51 54 -76 89 -79
110 -3 16 -9 63 -14 104 -6 40 -16 79 -22 85 -15 14 -9 -96 10 -175 13 -52 12
-57 -8 -85 -26 -35 -62 -137 -62 -175 0 -15 -7 -35 -16 -43 -9 -10 -13 -24 -9
-36 9 -28 -3 -58 -26 -71 -17 -9 -26 -4 -56 28 -22 23 -33 30 -28 18 4 -11 10
-31 13 -44 4 -22 2 -23 -21 -17 -20 5 -32 1 -47 -14 -17 -17 -33 -20 -108 -20
-93 0 -109 7 -126 54 -6 19 12 96 24 96 3 0 21 -11 39 -24 19 -14 48 -28 65
-32 17 -3 39 -13 48 -22 16 -14 21 -11 60 33 54 61 67 84 74 138 12 85 -51
157 -153 176 -37 7 -45 6 -54 -10 -5 -10 -23 -26 -40 -34 -16 -9 -34 -27 -39
-40 -11 -28 -25 -32 -33 -10 -7 16 -74 49 -94 46 -7 -1 -21 3 -31 8 -14 7 -26
5 -48 -10 -33 -21 -86 -27 -66 -7 7 7 12 23 12 38 l1 25 16 -30 16 -30 14 33
c7 18 35 48 63 68 30 21 50 44 50 55 0 29 -16 23 -51 -21 -18 -22 -38 -40 -44
-40 -7 0 -15 22 -19 51 -8 59 -26 62 -40 6 -11 -43 -18 -46 -39 -14 -8 13 -43
41 -76 63 -34 22 -64 49 -67 60 -4 14 -16 24 -34 27 -22 5 -31 15 -42 49 -11
33 -20 44 -39 46 -13 2 -45 24 -71 49 l-47 46 -31 -26 c-30 -26 -33 -26 -61
-11 -16 8 -34 27 -40 42 -9 24 -11 25 -20 9 -6 -9 -8 -21 -4 -26 3 -5 -2 -17
-12 -26 -16 -16 -48 -17 -84 -1 -23 10 -69 -30 -69 -61 l0 -26 -22 20 c-13 11
-31 23 -40 26 -29 10 -76 -13 -99 -49 -24 -39 -32 -41 -66 -14 -14 11 -32 20
-39 20 -28 0 -94 33 -94 46 0 8 7 14 15 14 8 0 15 5 15 10 0 6 -17 10 -37 10
-47 0 -84 24 -125 79 -17 23 -36 40 -42 38 -6 -3 -42 -18 -80 -33 -74 -31 -68
-32 -103 23 -12 19 -11 20 -28 -32 -2 -8 -21 -23 -41 -32 -35 -17 -37 -17 -74
4 -20 12 -40 19 -44 16 -3 -4 -6 -23 -6 -43 0 -27 -7 -43 -29 -64 -17 -16 -34
-47 -40 -73 -11 -43 -13 -45 -41 -40 -42 9 -53 -10 -40 -69 13 -55 8 -74 -18
-74 -11 0 -25 -7 -32 -15 -10 -12 -7 -17 14 -26 20 -9 24 -17 20 -35 -3 -12 2
-48 11 -79 17 -60 13 -90 -5 -39 -11 29 -75 70 -85 54 -7 -11 23 -91 42 -112
11 -12 30 -18 59 -18 24 0 46 -4 49 -10 3 -5 -3 -10 -15 -10 -12 0 -25 -10
-32 -26 -12 -25 -13 -26 -104 -22 -105 3 -139 21 -130 67 3 14 8 49 11 78 7
51 6 53 -27 73 -49 30 -84 26 -103 -10 -8 -16 -15 -45 -15 -64 0 -38 -20 -56
-60 -56 -23 0 -130 95 -130 116 0 7 -11 25 -24 41 -13 15 -30 42 -39 59 -9 18
-29 36 -44 42 -62 22 -300 257 -324 319 -5 13 -16 23 -24 23 -9 0 -25 15 -35
33 -11 19 -42 46 -69 60 -46 26 -49 26 -65 9z"/>
<path d="M1098 3353 c-21 -5 -25 -52 -6 -71 30 -30 68 -8 68 38 0 16 -30 43
-42 39 -2 -1 -11 -3 -20 -6z"/>
<path d="M1392 3344 c-37 -26 -27 -37 28 -30 28 4 63 11 78 17 21 8 23 12 12
19 -24 15 -93 12 -118 -6z"/>
<path d="M2967 3343 c-10 -9 -8 -96 2 -112 11 -17 19 -4 21 39 4 74 -2 94 -23
73z"/>
<path d="M2040 3244 c-6 -14 -10 -37 -10 -52 l0 -27 20 25 c21 26 27 80 10 80
-6 0 -15 -12 -20 -26z"/>
<path d="M2839 3253 c-38 -46 -44 -56 -31 -52 7 2 22 19 33 37 23 35 21 43 -2
15z"/>
<path d="M1192 3249 c2 -7 10 -15 17 -17 8 -3 12 1 9 9 -2 7 -10 15 -17 17 -8
3 -12 -1 -9 -9z"/>
<path d="M775 3064 c-5 -34 -12 -47 -29 -54 -13 -5 -26 -16 -29 -24 -8 -21 29
-60 50 -52 8 3 23 6 34 6 17 0 19 8 19 69 0 38 -3 76 -6 85 -12 31 -32 16 -39
-30z"/>
<path d="M3556 2957 c-28 -23 -32 -57 -6 -57 16 0 60 47 60 65 0 22 -20 19
-54 -8z"/>
<path d="M3490 2939 c0 -5 5 -7 10 -4 6 3 10 8 10 11 0 2 -4 4 -10 4 -5 0 -10
-5 -10 -11z"/>
<path d="M1102 2878 c3 -7 15 -15 28 -16 21 -3 22 -2 11 12 -16 19 -44 21 -39
4z"/>
<path d="M3615 2600 c-8 -14 3 -30 21 -30 8 0 14 9 14 20 0 21 -24 28 -35 10z"/>
<path d="M3470 2440 c0 -5 5 -10 10 -10 6 0 10 5 10 10 0 6 -4 10 -10 10 -5 0
-10 -4 -10 -10z"/>
<path d="M232 2138 c3 -7 22 -14 44 -16 37 -2 38 -1 20 13 -24 18 -69 20 -64
3z"/>
<path d="M198 1788 c-16 -5 -28 -16 -28 -24 0 -11 10 -12 48 -7 26 3 56 9 67
13 18 7 18 9 -8 19 -33 13 -43 13 -79 -1z"/>
<path d="M633 1230 c-29 -17 -44 -40 -28 -40 13 0 62 30 74 44 20 23 -6 21
-46 -4z"/>
<path d="M527 1150 c-26 -16 -47 -34 -47 -40 0 -17 15 -12 58 19 74 54 66 70
-11 21z"/>
<path d="M727 1055 c-43 -30 -47 -45 -11 -45 49 0 92 34 72 57 -14 18 -18 17
-61 -12z"/>
<path d="M0 778 c0 -122 3 -233 6 -245 5 -19 11 -21 38 -16 44 7 114 52 147
93 16 19 36 64 46 101 16 63 16 68 -1 112 -19 51 -85 131 -125 151 -14 8 -45
17 -68 21 l-43 7 0 -224z"/>
<path d="M831 884 c-25 -32 -25 -35 -7 -79 15 -35 67 -75 99 -75 30 0 57 37
57 79 0 53 -8 69 -41 86 -44 23 -84 19 -108 -11z"/>
<path d="M1475 718 c-4 -18 -5 -52 -3 -73 3 -38 4 -36 15 25 8 39 9 68 4 73
-6 6 -12 -4 -16 -25z"/>
<path d="M1644 637 c-7 -20 -2 -47 11 -50 14 -3 19 43 6 56 -7 7 -12 6 -17 -6z"/>
<path d="M3735 581 c-8 -13 -20 -158 -12 -151 7 7 29 152 23 157 -2 2 -7 0
-11 -6z"/>
<path d="M1268 570 c-7 -19 -28 -95 -28 -104 0 -17 30 -3 36 17 7 30 0 107 -8
87z"/>
<path d="M1730 494 c0 -8 5 -12 10 -9 6 3 10 10 10 16 0 5 -4 9 -10 9 -5 0
-10 -7 -10 -16z"/>
<path d="M1072 435 c-33 -51 -38 -80 -13 -80 26 0 53 49 49 91 l-3 39 -33 -50z"/>
<path d="M3307 474 c-8 -8 1 -24 14 -24 5 0 9 7 9 15 0 15 -12 20 -23 9z"/>
<path d="M3516 400 c-12 -40 -26 -113 -22 -117 12 -12 46 40 46 70 0 39 -16
70 -24 47z"/>
<path d="M4665 389 c-10 -15 26 -50 49 -47 26 4 31 22 11 42 -19 18 -51 21
-60 5z"/>
<path d="M1458 375 c-4 -4 -5 -49 -1 -99 4 -61 2 -99 -6 -113 -7 -15 -8 -24
-1 -28 6 -3 13 0 15 7 8 21 1 241 -7 233z"/>
<path d="M1658 374 c-5 -4 -8 -23 -8 -43 0 -25 3 -32 11 -24 6 6 9 25 7 43 -2
17 -6 28 -10 24z"/>
<path d="M530 286 c0 -9 7 -16 16 -16 9 0 14 5 12 12 -6 18 -28 21 -28 4z"/>
<path d="M2742 289 c-13 -5 -22 -14 -20 -21 6 -18 22 -20 43 -4 26 19 9 37
-23 25z"/>
<path d="M1637 208 c-19 -41 -42 -186 -32 -196 22 -22 61 127 53 199 l-4 34
-17 -37z"/>
<path d="M3714 105 c0 -61 1 -84 3 -52 2 32 2 81 0 110 -2 29 -3 3 -3 -58z"/>
<path d="M3902 187 c-15 -35 -15 -57 -2 -57 12 0 23 42 17 67 -3 15 -6 13 -15
-10z"/>
<path d="M498 174 c-33 -17 -37 -53 -10 -77 26 -24 55 -21 82 8 l24 25 -21 28
c-24 33 -40 36 -75 16z"/>
<path d="M1837 160 c-29 -23 -35 -40 -14 -40 18 0 50 36 45 50 -2 7 -14 3 -31
-10z"/>
<path d="M2110 165 c-18 -22 -1 -50 31 -50 20 0 24 5 24 30 0 23 -5 31 -21 33
-11 2 -27 -4 -34 -13z"/>
<path d="M1892 119 c2 -7 10 -15 17 -17 8 -3 12 1 9 9 -2 7 -10 15 -17 17 -8
3 -12 -1 -9 -9z"/>
<path d="M3880 40 c-14 -34 -9 -46 15 -37 16 7 21 52 6 61 -5 3 -14 -8 -21
-24z"/>
</g>
</svg>
